<svg xmlns="http://www.w3.org/2000/svg" width="63" height="63" viewBox="0 0 63 63">
  <g id="Grupo_1099848" data-name="Grupo 1099848" transform="translate(-1022.813 -820)">
    <g id="Grupo_1098797" data-name="Grupo 1098797" transform="translate(3.813 -5944)">
      <g id="Grupo_1098742" data-name="Grupo 1098742" transform="translate(1019.445 6764.445)">
        <rect id="Rect치ngulo_400898" data-name="Rect치ngulo 400898" width="63" height="63" rx="31.5" transform="translate(-0.445 -0.445)" fill="#c1ddc7" opacity="0.859"/>
        <rect id="Rect치ngulo_400907" data-name="Rect치ngulo 400907" width="63" height="63" rx="31.5" transform="translate(-0.446 -0.445)" fill="none"/>
      </g>
    </g>
    <g id="seguridad-alimenticia" transform="translate(1033.813 817.5)">
      <g id="Grupo_1099846" data-name="Grupo 1099846" transform="translate(0.603 14.103)">
        <path id="Trazado_874475" data-name="Trazado 874475" d="M144.71,32.059A11.059,11.059,0,0,0,125.5,24.583s-.155.214-.245.32a10.742,10.742,0,0,0-2.306,7.156,10.382,10.382,0,0,0,10.7,10.609,10.245,10.245,0,0,0,6.807-2.243,1.735,1.735,0,0,1,.606-.159A11.031,11.031,0,0,0,144.71,32.059Z" transform="translate(-113.665 -21)" fill="#91dafa"/>
        <path id="Trazado_874476" data-name="Trazado 874476" d="M136.573,81.392A11.059,11.059,0,0,1,121.424,65.35a11.061,11.061,0,0,0,14.589,15.888A2.264,2.264,0,0,1,136.573,81.392Z" transform="translate(-109.572 -61.783)" fill="#75cff9"/>
        <path id="Trazado_874477" data-name="Trazado 874477" d="M188.927,240.08a11.061,11.061,0,0,1-13.927.73,11.256,11.256,0,0,1,1.181-1.853,1.76,1.76,0,0,1,1.383-.667,1.741,1.741,0,0,1,.3.027,10.678,10.678,0,0,1,3.4,1.253,9.4,9.4,0,0,1,1.528,1.105.242.242,0,0,0,.274.034,9.874,9.874,0,0,1,.952-.433,11.355,11.355,0,0,1,3.539-.757l.073,0A1.779,1.779,0,0,1,188.927,240.08Z" transform="translate(-161.528 -220.814)" fill="#75cff9"/>
        <g id="Grupo_1099845" data-name="Grupo 1099845" transform="translate(13.236 2.333)">
          <path id="Trazado_874478" data-name="Trazado 874478" d="M215.232,59.306c0-.026.044-.078.044-.078a1.133,1.133,0,0,0-1.13-1.056h-.3a1.079,1.079,0,0,0,1.06-1.14c0-.026.07-.069.07-.069a1.133,1.133,0,0,0-1.13-1.056h-2.533a1.865,1.865,0,0,1-1.83-2.237l.268-1.434a2.008,2.008,0,0,0-1.084-2.17.613.613,0,0,0-.851.356l-1.233,3.9a4.947,4.947,0,0,1-2.211,2.654l.011,6c0,.841.791,1.532,2.74,1.532h6.052c.557,0,.9-.239.9-.8a.562.562,0,0,1,.088-.2,1.009,1.009,0,0,0-.99-.812l.593-.084a1.031,1.031,0,0,0,1.109-1.033c0-.026.1-.092.1-.092a1.133,1.133,0,0,0-1.13-1.056l.236-.072C214.713,60.366,215.232,59.306,215.232,59.306Z" transform="translate(-201.779 -50.002)" fill="#e3a76f"/>
          <path id="Trazado_874479" data-name="Trazado 874479" d="M214.311,200.79A1.009,1.009,0,0,1,213.3,201.8H207.25c-1.95,0-2.74-.681-2.74-1.522V199.07c0,.841.791,1.523,2.74,1.523h7.042a1,1,0,0,1,.019.2Z" transform="translate(-201.901 -187.081)" fill="#d6995c"/>
          <path id="Trazado_874480" data-name="Trazado 874480" d="M173.239,124.249a.791.791,0,0,1,.791-.791l.321-.043h.681a.791.791,0,0,1,.791.791v6.816l-.133.248a.791.791,0,0,1-.791.791l-.814-.007a.791.791,0,0,1-.791-.791Z" transform="translate(-173.145 -117.511)" fill="#857e87"/>
          <path id="Trazado_874481" data-name="Trazado 874481" d="M174.749,131.023v.415a.791.791,0,0,1-.791.791h-1.1a.791.791,0,0,1-.791-.791v-7.231a.791.791,0,0,1,.791-.791h.415v7.125a.483.483,0,0,0,.483.483Z" transform="translate(-172.07 -117.511)" fill="#766e7a"/>
          <g id="Grupo_1099844" data-name="Grupo 1099844" transform="translate(9.924 6.961)">
            <path id="Trazado_874482" data-name="Trazado 874482" d="M298.738,192.879c0,.025,0,.051,0,.076a1.133,1.133,0,0,1-1.132,1.132h-1.544a.6.6,0,0,1-.6-.6h0a.6.6,0,0,1,.6-.6Z" transform="translate(-295.46 -188.348)" fill="#d6995c"/>
            <path id="Trazado_874483" data-name="Trazado 874483" d="M295.46,137.154h0a.6.6,0,0,1,.6-.6h2.674c0,.025,0,.051,0,.076a1.132,1.132,0,0,1-1.132,1.132h-1.544A.6.6,0,0,1,295.46,137.154Z" transform="translate(-295.46 -136.549)" fill="#d6995c"/>
            <path id="Trazado_874484" data-name="Trazado 874484" d="M295.637,165.741a.6.6,0,0,1,.427-1.031h2.97c0,.025,0,.051,0,.076a1.132,1.132,0,0,1-1.1,1.132h-1.869A.6.6,0,0,1,295.637,165.741Z" transform="translate(-295.46 -162.445)" fill="#d6995c"/>
          </g>
        </g>
        <path id="Trazado_874485" data-name="Trazado 874485" d="M182.086,256.3a.32.32,0,0,0-.306.116,9.784,9.784,0,0,0-1.078,1.716,6.707,6.707,0,0,1-.221,1.1,7.258,7.258,0,0,0-.279,5.042c1.569,4.317,6.433,5.034,6.433,5.034s3.178-3.926,1.7-8a6.6,6.6,0,0,0-1.756-2.5,4.607,4.607,0,0,1-.443-.646,9,9,0,0,0-4.048-1.865Z" transform="translate(-165.996 -237.369)" fill="#86cc72"/>
        <path id="Trazado_874486" data-name="Trazado 874486" d="M185.7,290.3s-4.864-.717-6.433-5.034a7.742,7.742,0,0,1,.5-6.139,9.183,9.183,0,0,1,3.721,1.434.24.24,0,0,0,.321-.045,8.563,8.563,0,0,1,1.39-1.356,7.28,7.28,0,0,1,2.2,3.141c1.479,4.074-1.7,8-1.7,8Z" transform="translate(-165.056 -258.37)" fill="#79bf66"/>
        <path id="Trazado_874487" data-name="Trazado 874487" d="M245.039,271.7a.321.321,0,0,0-.288-.155,8.675,8.675,0,0,0-6.364,3.087,5.527,5.527,0,0,1-.329,1.07,8.312,8.312,0,0,0,.208,7.9s5.018-.17,7.1-3.94a7.3,7.3,0,0,0,.439-5.71,5.363,5.363,0,0,1-.112-.894A8.756,8.756,0,0,0,245.039,271.7Z" transform="translate(-218.658 -251.398)" fill="#98db7c"/>
        <path id="Trazado_874488" data-name="Trazado 874488" d="M31.955,286.635a.321.321,0,0,0-.281.168,10.056,10.056,0,0,0-.976,2.718s0,.918-.015,1.418a7.251,7.251,0,0,0,1.147,3.861,8.392,8.392,0,0,0,6.929,3.972s2.473-4.463.288-8.254a6.8,6.8,0,0,0-1.823-1.754,6.181,6.181,0,0,1-.739-.88A9.039,9.039,0,0,0,31.955,286.635Z" transform="translate(-28.814 -265.27)" fill="#b8eb7c"/>
        <path id="Trazado_874489" data-name="Trazado 874489" d="M37.222,304.774a7.326,7.326,0,0,0-2.562-2.634,9.269,9.269,0,0,0-3.313,5.145.242.242,0,0,1-.4.123,7.151,7.151,0,0,1-2.072-3.629,7.562,7.562,0,0,0,.78,5.373c2.316,4.018,7.28,3.877,7.28,3.877S38.449,306.9,37.222,304.774Z" transform="translate(-26.99 -279.528)" fill="#98db7c"/>
        <path id="Trazado_874490" data-name="Trazado 874490" d="M243.391,297.013c-1.667,3.014-5.207,3.727-6.561,3.892-.34.041-.542.048-.542.048a7.5,7.5,0,0,1-.446-.854,8.126,8.126,0,0,1,.016-7.27,6.974,6.974,0,0,1,.552-.849,9.267,9.267,0,0,1,1.021,1.158.321.321,0,0,0,.508.015l.083-.1a7.656,7.656,0,0,1,5.7-2.643A7.707,7.707,0,0,1,243.391,297.013Z" transform="translate(-216.68 -268.742)" fill="#86cc72"/>
        <path id="Trazado_874491" data-name="Trazado 874491" d="M98.121,303.909a7.8,7.8,0,0,0-7.221-7.782s-.376.026-.567.026c-4.3,0-7.26,3.447-7.26,7.756Z" transform="translate(-76.995 -273.999)" fill="#e27f86"/>
        <path id="Trazado_874492" data-name="Trazado 874492" d="M84.9,295.893a7.8,7.8,0,0,0-7.185,7.779H76.51a7.8,7.8,0,0,1,7.788-7.8C84.5,295.87,84.7,295.879,84.9,295.893Z" transform="translate(-70.96 -273.763)" fill="#df646e"/>
        <path id="Trazado_874493" data-name="Trazado 874493" d="M119.172,333.807a5.185,5.185,0,0,0-1.1-3.2l-.487-.36-.359-.5a5.163,5.163,0,0,0-2.642-1.106l-.6.2-.6-.2a5.16,5.16,0,0,0-2.593,1.068l-.3.616-.552.232a5.186,5.186,0,0,0-1.138,3.25Z" transform="translate(-100.642 -303.897)" fill="#df646e"/>
        <path id="Trazado_874494" data-name="Trazado 874494" d="M278.9,308.585a.32.32,0,0,0-.257-.21,7.694,7.694,0,0,0-3.758.413l-.568.3a5.589,5.589,0,0,0-1.624,1.449,6.4,6.4,0,0,0-.857,6.3s3.847.749,6.082-1.92A6.545,6.545,0,0,0,278.9,308.585Z" transform="translate(-250.141 -285.195)" fill="#b8eb7c"/>
        <path id="Trazado_874495" data-name="Trazado 874495" d="M275.466,321.337a7.971,7.971,0,0,1-5.227,1.1s-1.457-3.68.911-6.509a5.69,5.69,0,0,1,2.308-1.653,5.623,5.623,0,0,0-1.1,1.01c-2.369,2.829-.911,6.509-.911,6.509A8.561,8.561,0,0,0,275.466,321.337Z" transform="translate(-248.699 -290.689)" fill="#98db7c"/>
        <path id="Trazado_874496" data-name="Trazado 874496" d="M401.119,316.816a.319.319,0,0,0-.289-.162,7.354,7.354,0,0,0-3,.773s-.573.473-.875.713a4.958,4.958,0,0,0-1.37,1.407c-1.729,3,.215,6.164.215,6.164s3.612-.1,5.243-2.935a6.206,6.206,0,0,0,.532-1.027c.153-.454.389-1.276.389-1.276A6.707,6.707,0,0,0,401.119,316.816Z" transform="translate(-363.713 -292.875)" fill="#b8eb7c"/>
        <path id="Trazado_874497" data-name="Trazado 874497" d="M398.278,330.668a7.968,7.968,0,0,0-.445-4.4,5.508,5.508,0,0,0-2.245,2.12c-1.729,3,.215,6.163.215,6.163h.031c.076,0,.288-.013.591-.053h0a6.47,6.47,0,0,0,4.814-2.84,5.493,5.493,0,0,0,.729-2.344,6.9,6.9,0,0,1-3.406,1.639A.241.241,0,0,1,398.278,330.668Z" transform="translate(-363.715 -301.714)" fill="#98db7c"/>
        <path id="Trazado_874498" data-name="Trazado 874498" d="M285.312,318.465a6.267,6.267,0,0,0,9-.087,6.512,6.512,0,0,0,.735-8.317s-.332-.3-.515-.5a.321.321,0,0,0-.465-.01Z" transform="translate(-262.968 -286.254)" fill="#ffd05b"/>
        <path id="Trazado_874499" data-name="Trazado 874499" d="M292.974,308.566l-9.041,9.051a6.555,6.555,0,0,1-.873-.734l4.838-3.942,2.046-2.954,2.06-2.064a.321.321,0,0,1,.466.01A6.469,6.469,0,0,1,292.974,308.566Z" transform="translate(-260.897 -284.759)" fill="#ffc244"/>
        <path id="Trazado_874500" data-name="Trazado 874500" d="M311.594,339.273a3.248,3.248,0,0,0,4.589-4.6l-2.063,2.775Z" transform="translate(-287.136 -309.448)" fill="#ffe077"/>
        <path id="Trazado_874501" data-name="Trazado 874501" d="M316.839,335.627l-4.3,4.305a3.229,3.229,0,0,1-.948-.659l4.589-4.6A3.236,3.236,0,0,1,316.839,335.627Z" transform="translate(-287.133 -309.447)" fill="#ffd05b"/>
        <path id="Trazado_874502" data-name="Trazado 874502" d="M44.269,399.33l-26.674.173a5.9,5.9,0,0,1-6.185-5.957v-.911a.746.746,0,0,1,.746-.746l.548-.13H50.322a.746.746,0,0,1,.746.746v.911a6.317,6.317,0,0,1-.314,1.975l-.517.654-.025.552a6.351,6.351,0,0,1-1.253,1.535,18.423,18.423,0,0,1-4.69,1.2Z" transform="translate(-11.096 -361.938)" fill="#dfbdf0"/>
        <path id="Trazado_874503" data-name="Trazado 874503" d="M45.363,398.132a6.3,6.3,0,0,1-4.215,1.608H13.825A6.322,6.322,0,0,1,8.357,396.6l.081-.681-.624-.526a6.318,6.318,0,0,1-.315-1.975v-.911a.746.746,0,0,1,.746-.746h.862v.5a5.871,5.871,0,0,0,5.871,5.871Z" transform="translate(-7.5 -361.939)" fill="#cbb0f2"/>
      </g>
      <g id="Grupo_1099847" data-name="Grupo 1099847" transform="translate(0 13.5)">
        <path id="Trazado_874504" data-name="Trazado 874504" d="M179.279,52.41a1.732,1.732,0,0,0-.588-1.3,1.735,1.735,0,0,0-1.443-2.7h-2.533a1.235,1.235,0,0,1-.968-.448,1.3,1.3,0,0,1-.27-1.075l.268-1.434a2.619,2.619,0,0,0-1.41-2.822,1.216,1.216,0,0,0-1-.032,1.32,1.32,0,0,0-.69.747l-1.229,3.891a4.653,4.653,0,0,1-1.244,1.84,1.394,1.394,0,0,0-1.187-.667h-1.016a1.4,1.4,0,0,0-1.394,1.395V52.5a.6.6,0,1,0,1.206,0V49.8a.188.188,0,0,1,.188-.188h1.016a.188.188,0,0,1,.188.188v7.231a.188.188,0,0,1-.188.188h-1.016a.188.188,0,0,1-.188-.188V55.31a.6.6,0,1,0-1.206,0v1.724a1.4,1.4,0,0,0,1.394,1.395h1.016a1.392,1.392,0,0,0,1.107-.55,4.478,4.478,0,0,0,2.435.55h6.052a1.612,1.612,0,0,0,1.492-2.224,1.734,1.734,0,0,0,.623-2.493A1.732,1.732,0,0,0,179.279,52.41Zm-1.736.529H175.7a.6.6,0,0,0,0,1.206h1.552a.529.529,0,0,1,0,1.059H175.7a.6.6,0,0,0,0,1.206h.881a.406.406,0,0,1,0,.812h-6.052c-1.338,0-2.137-.344-2.137-.919,0,0,0-5.728-.01-5.875a5.682,5.682,0,0,0,2.176-2.8c.021-.027,1.213-3.9,1.25-3.922a1.409,1.409,0,0,1,.757,1.519l-.268,1.434a2.5,2.5,0,0,0,.528,2.067,2.454,2.454,0,0,0,1.9.884h2.533a.529.529,0,1,1,0,1.059H175.7a.6.6,0,0,0,0,1.206h1.848a.529.529,0,1,1,0,1.059Z" transform="translate(-151.336 -40.172)"/>
        <path id="Trazado_874505" data-name="Trazado 874505" d="M39.83,43.32h-.706a6.951,6.951,0,0,0-.71-5.771.6.6,0,0,0-.486-.271,7.7,7.7,0,0,0-4.188,1.264,7.075,7.075,0,0,0-1.369-1.934.6.6,0,0,0-.854,0L30.14,37.988a6.307,6.307,0,0,0-.291-.913.6.6,0,0,0-.432-.351,6.605,6.605,0,0,0-.871-.1,9.919,9.919,0,0,0-.863-2.2,11.681,11.681,0,0,0,4.568-9.256A11.548,11.548,0,0,0,29.792,18a.6.6,0,1,0-.951.742,10.352,10.352,0,0,1,2.2,6.423,10.473,10.473,0,0,1-4.351,8.488,10.034,10.034,0,0,0-4.834,1.476A9.327,9.327,0,0,0,16.577,32.4a.6.6,0,0,0-.52.2,9.175,9.175,0,0,0-.991,1.436A10.456,10.456,0,0,1,20.59,14.706a10.357,10.357,0,0,1,6.36,2.156.6.6,0,0,0,.735-.957A11.555,11.555,0,0,0,20.59,13.5a11.662,11.662,0,0,0-6.064,21.624q-.1.237-.2.492-.194-.009-.389-.009a8.331,8.331,0,0,0-4.419,1.257,9.347,9.347,0,0,0-6-1.995.6.6,0,0,0-.478.286A10.278,10.278,0,0,0,1.9,38.219a.6.6,0,1,0,1.182.241,9.6,9.6,0,0,1,.834-2.387,8.305,8.305,0,0,1,4.6,1.531q-.238.2-.463.425a8.354,8.354,0,0,0-2.47,5.29H3.732a6.515,6.515,0,0,1-.755-2.262.6.6,0,1,0-1.195.166,7.721,7.721,0,0,0,.6,2.1H1.349A1.351,1.351,0,0,0,0,44.669v.911a6.936,6.936,0,0,0,6.928,6.928H34.252a6.936,6.936,0,0,0,6.928-6.928v-.911A1.351,1.351,0,0,0,39.83,43.32Zm-2.262-4.825a5.589,5.589,0,0,1,.253,4.825H34.245a7.135,7.135,0,0,0-.063-3.607A6.39,6.39,0,0,1,37.568,38.495Zm-5.645-.586A5.929,5.929,0,0,1,33,43.32H30.812a3.883,3.883,0,0,0-.343-3.954ZM29.6,40.236a2.665,2.665,0,0,1-.211,3.084H26.522Zm-.49-1.217-4.293,4.3H22.3a5.423,5.423,0,0,1,1.213-3.588,6.13,6.13,0,0,1,5.334-1.872A6.826,6.826,0,0,1,29.11,39.019Zm-2.556-4.151a8.616,8.616,0,0,1,.744,1.766,6.712,6.712,0,0,0-4.706,2.323,6.226,6.226,0,0,0-.987,1.629,8.39,8.39,0,0,0-1.315-2.067l.019-.036C22,35.427,25.479,34.944,26.554,34.868Zm-9.8-1.21a8.194,8.194,0,0,1,4.133,2.2,7.591,7.591,0,0,0-1.483,1.778,8.354,8.354,0,0,0-3.84-1.869A9.548,9.548,0,0,1,16.757,33.658Zm-2.815,3.156a7.151,7.151,0,0,1,7.151,6.505H19.7a5.8,5.8,0,0,0-11.509,0H6.79A7.223,7.223,0,0,1,13.942,36.814ZM10.324,41.2l.638.639a.6.6,0,0,0,.854-.852l-.633-.634a4.566,4.566,0,0,1,2.156-.9v1.132a.6.6,0,0,0,1.206,0V39.457a4.57,4.57,0,0,1,2.2.933l-.6.6a.6.6,0,0,0,.854.852l.589-.59a4.577,4.577,0,0,1,.88,2.071H9.407A4.579,4.579,0,0,1,10.324,41.2ZM34.252,51.3H6.928a5.72,5.72,0,0,1-4.753-2.54H26.927a.6.6,0,0,0,0-1.206H1.558a5.7,5.7,0,0,1-.351-1.975v-.911a.143.143,0,0,1,.143-.143H39.83a.143.143,0,0,1,.143.143v.911a5.7,5.7,0,0,1-.351,1.975H29.742a.6.6,0,0,0,0,1.206H39a5.72,5.72,0,0,1-4.753,2.54Z" transform="translate(0 -13.5)"/>
      </g>
    </g>
  </g>
</svg>
