<svg xmlns="http://www.w3.org/2000/svg" width="72" height="72" viewBox="0 0 72 72">
  <g id="Grupo_1099895" data-name="Grupo 1099895" transform="translate(1668 11208)">
    <rect id="Rectángulo_401427" data-name="Rectángulo 401427" width="72" height="72" transform="translate(-1668 -11208)" fill="none"/>
    <g id="accesorios" transform="translate(-1700.425 -11211.721)">
      <path id="Trazado_874752" data-name="Trazado 874752" d="M232,242.333A2.333,2.333,0,1,0,234.333,240,2.333,2.333,0,0,0,232,242.333Zm2.333-.778a.778.778,0,1,1-.778.778A.778.778,0,0,1,234.333,241.555Z" transform="translate(-166.116 -202.228)" fill="#fff"/>
      <path id="Trazado_874753" data-name="Trazado 874753" d="M52.18,36.388,48.292,39.5a.778.778,0,0,0-.292.607V55.657a.778.778,0,0,0,.778.778H61.219A.778.778,0,0,0,62,55.657V51.769h3.888v6.221H61.1a3.836,3.836,0,0,0-3.773,3.888.778.778,0,0,0,.778.778H78.326a.778.778,0,0,0,.778-.778,3.836,3.836,0,0,0-3.773-3.888H70.55V51.769h7.776a.778.778,0,0,0,.778-.778V44.908L84.7,29.525a2.331,2.331,0,0,0,3.141-3.416,2.331,2.331,0,0,0-.959-3.754V20.532a2.333,2.333,0,1,0-3.11-2.2.778.778,0,1,0,1.555,0,.778.778,0,1,1,.778.778.778.778,0,0,0-.778.778v2.466a2.331,2.331,0,0,0-.959,3.754,2.336,2.336,0,0,0-.429.689l-2.018-.269a2.34,2.34,0,0,0-.3-.42,2.331,2.331,0,0,0-.959-3.754V20.532a2.333,2.333,0,1,0-3.11-2.2.778.778,0,1,0,1.555,0,.778.778,0,1,1,.778.778.778.778,0,0,0-.778.778v2.466a2.33,2.33,0,0,0-1.039,3.661l-4.4-.587v-5.54a.778.778,0,0,0-.778-.778H63.552a.778.778,0,0,0-.778.778v5.493l-10.938.729a.778.778,0,0,0-.683,1.031l3.157,9.076H52.665A.778.778,0,0,0,52.18,36.388ZM77.422,61.1H59.013A2.232,2.232,0,0,1,61.1,59.545H75.33A2.233,2.233,0,0,1,77.422,61.1Zm-8.427-3.11H67.44V51.769h1.555ZM86.1,28.441a.778.778,0,1,1,.778-.778.778.778,0,0,1-.778.778Zm0-4.665a.778.778,0,1,1-.778.778A.778.778,0,0,1,86.1,23.776Zm-5.443,3.888a.778.778,0,1,1-.778-.778A.778.778,0,0,1,80.658,27.664Zm-.778-3.888a.778.778,0,1,1-.778.778A.778.778,0,0,1,79.881,23.776ZM63.6,26.884a.778.778,0,0,0,.726-.776V20.666h7.776v5.443a.778.778,0,0,0,.675.771l1.6.214a.777.777,0,0,0,.126.7A.778.778,0,0,0,73.647,29a.778.778,0,0,0-.864,1.209.778.778,0,0,0-.864,1.21.778.778,0,0,0-.864,1.209.779.779,0,0,0-.864,1.21.778.778,0,0,0-.864,1.209.778.778,0,0,0-.863,1.211.769.769,0,0,0-.492,0,.778.778,0,0,0-.864-1.211.778.778,0,0,0-.863-1.209.779.779,0,0,0-.864-1.21.778.778,0,0,0-.864-1.209.778.778,0,0,0-.864-1.21A.778.778,0,0,0,62.788,29a.778.778,0,0,0-.863-1.21.778.778,0,0,0,.085-.8Zm-10.646.71,7.606-.507a.778.778,0,0,0,.987.969.778.778,0,0,0,.864,1.209.779.779,0,0,0,.864,1.21.778.778,0,0,0,.864,1.209.778.778,0,0,0,.864,1.209.778.778,0,0,0,.864,1.21.778.778,0,0,0,.864,1.209.776.776,0,0,0,.866,1.208.778.778,0,1,0,1.231,0,.778.778,0,0,0,.868-1.207.778.778,0,0,0,.863-1.21.778.778,0,0,0,.864-1.209.778.778,0,0,0,.864-1.21.778.778,0,0,0,.864-1.209.779.779,0,0,0,.864-1.21.778.778,0,0,0,.864-1.209.776.776,0,0,0,1.022-.76l1.648.22c0,.049-.005.1-.005.148a2.333,2.333,0,0,0,4.618.467l1.319.176-5.89,16.2a.779.779,0,0,0-.046.266v5.443H62V40.105A.778.778,0,0,0,61.7,39.5l-3.888-3.11a.778.778,0,0,0-.486-.17H55.957Zm4.1,10.178,3.383,2.706v14.4H49.555v-14.4l3.383-2.706Z" transform="translate(0 0)" fill="#fff"/>
      <path id="Trazado_874754" data-name="Trazado 874754" d="M98.333,295.776a.778.778,0,0,1-.778-.778A.778.778,0,1,0,96,295a2.336,2.336,0,0,0,1.555,2.2v.911a.778.778,0,0,0,1.555,0V297.2a2.333,2.333,0,0,0-.778-4.532.778.778,0,1,1,.778-.778.778.778,0,0,0,1.555,0,2.336,2.336,0,0,0-1.555-2.2v-.911a.778.778,0,0,0-1.555,0v.911a2.333,2.333,0,0,0,.778,4.532.778.778,0,1,1,0,1.555Z" transform="translate(-43.335 -245.562)" fill="#fff"/>
      <circle id="Elipse_11576" data-name="Elipse 11576" cx="0.733" cy="0.733" r="0.733" transform="translate(54.286 39.327)" fill="#fff"/>
    </g>
    <g id="Grupo_1099901" data-name="Grupo 1099901" transform="translate(-1661.5 -11201.5)">
      <g id="Grupo_1099902" data-name="Grupo 1099902" transform="translate(0.5 0.5)">
        <path id="Trazado_874780" data-name="Trazado 874780" d="M30,.5A29.5,29.5,0,1,0,59.5,30,29.5,29.5,0,0,0,30,.5M4.369,30A25.633,25.633,0,0,1,45.356,9.477L9.188,44.95A25.5,25.5,0,0,1,4.369,30M30,55.631A25.523,25.523,0,0,1,13.49,49.6L49.917,13.873A25.627,25.627,0,0,1,30,55.631" transform="translate(-0.5 -0.5)" fill="#f9a545" stroke="#fff" stroke-width="2"/>
        <path id="Trazado_874781" data-name="Trazado 874781" d="M30,.5A29.5,29.5,0,1,0,59.5,30,29.5,29.5,0,0,0,30,.5ZM4.369,30A25.633,25.633,0,0,1,45.356,9.477L9.188,44.95A25.5,25.5,0,0,1,4.369,30ZM30,55.631A25.523,25.523,0,0,1,13.49,49.6L49.917,13.873A25.627,25.627,0,0,1,30,55.631Z" transform="translate(-0.5 -0.5)" fill="none" stroke="#fff" stroke-miterlimit="10" stroke-width="2"/>
      </g>
    </g>
  </g>
</svg>
