<svg id="Grupo_1099893" data-name="Grupo 1099893" xmlns="http://www.w3.org/2000/svg" width="72" height="72" viewBox="0 0 72 72">
  <rect id="Rectángulo_401433" data-name="Rectángulo 401433" width="72" height="72" fill="none"/>
  <g id="Icon" transform="translate(6 6)">
    <path id="Trazado_874769" data-name="Trazado 874769" d="M32,2A30,30,0,1,1,2,32,30,30,0,0,1,32,2Zm0,58A28,28,0,1,0,4,32,28,28,0,0,0,32,60Zm4-13a1,1,0,0,0-1-1H29a1,1,0,0,0,0,2h6A1,1,0,0,0,36,47ZM50.163,15.683a1.007,1.007,0,0,1,1.477.068A25.488,25.488,0,0,1,15.751,51.64a1.006,1.006,0,0,1-.068-1.477ZM40,45H24v3a1,1,0,0,0,1,1H39a1,1,0,0,0,1-1Zm0-2V28.675L25.675,43ZM32,55.5A23.49,23.49,0,0,0,50.783,17.892L42,26.675V48a3,3,0,0,1-3,3H25a3,3,0,0,1-3-3V46.675l-4.108,4.108A23.493,23.493,0,0,0,32,55.5Zm0-49a25.484,25.484,0,0,1,16.249,5.86,1.006,1.006,0,0,1,.068,1.477l-34.48,34.48a1.006,1.006,0,0,1-1.477-.068A25.488,25.488,0,0,1,32,6.5ZM24,17H40V16a1,1,0,0,0-1-1H25a1,1,0,0,0-1,1Zm0,2V35.325l16-16V19ZM13.217,46.108,22,37.325V16a3,3,0,0,1,3-3H39a3,3,0,0,1,3,3v1.325l4.108-4.108A23.49,23.49,0,0,0,13.217,46.108Z" transform="translate(-2 -2)" fill="#fff"/>
  </g>
</svg>
