<svg xmlns="http://www.w3.org/2000/svg" width="70" height="70" viewBox="0 0 70 70">
  <g id="Grupo_1099927" data-name="Grupo 1099927" transform="translate(1167 10465)">
    <g id="Elipse_11568" data-name="Elipse 11568" transform="translate(-1167 -10465)" fill="#f9a545" stroke="#707070" stroke-width="1">
      <circle cx="35" cy="35" r="35" stroke="none"/>
      <circle cx="35" cy="35" r="34.5" fill="none"/>
    </g>
    <g id="mascarilla-medica" transform="translate(-1177.988 -10452)">
      <g id="Grupo_1099912" data-name="Grupo 1099912" transform="translate(37.438 15.516)">
        <path id="Trazado_874824" data-name="Trazado 874824" d="M175.862,183.56c-5.267-.75-5.509-3.026-8.316-3.016-2.81-.01-3.051,2.265-8.316,3.016a7.452,7.452,0,0,0,2.4,4.983,8.51,8.51,0,0,0,11.837,0A7.445,7.445,0,0,0,175.862,183.56Z" transform="translate(-159.229 -180.545)" fill="#ccf49e" fill-rule="evenodd"/>
      </g>
      <g id="Grupo_1099913" data-name="Grupo 1099913" transform="translate(37.424 11.755)">
        <path id="Trazado_874825" data-name="Trazado 874825" d="M175.717,139.8c-5.277-.75-5.519-3.028-8.328-3.018-2.812-.01-3.051,2.268-8.331,3.018v3.319q0,.22.015.44c5.265-.75,5.507-3.026,8.316-3.016,2.807-.01,3.049,2.265,8.316,3.016.007-.147.012-.293.012-.44Z" transform="translate(-159.058 -136.78)" fill="#eceaed" fill-rule="evenodd"/>
      </g>
      <g id="Grupo_1099914" data-name="Grupo 1099914" transform="translate(40.973 17.776)">
        <path id="Trazado_874826" data-name="Trazado 874826" d="M211.063,212.59a7.444,7.444,0,0,0,2.4-4.983,13.734,13.734,0,0,1-3.037-.755,7.51,7.51,0,0,1-2.348,4.453,8.8,8.8,0,0,1-5.917,2.4,8.145,8.145,0,0,1-1.8-.205,8.466,8.466,0,0,0,10.7-.9Z" transform="translate(-200.365 -206.852)" fill="#b3e59e" fill-rule="evenodd"/>
      </g>
      <g id="Grupo_1099915" data-name="Grupo 1099915" transform="translate(51.034 14.04)">
        <path id="Trazado_874827" data-name="Trazado 874827" d="M317.434,167.107a13.73,13.73,0,0,0,3.037.755A13.732,13.732,0,0,1,317.434,167.107Zm3.049.315V164.1a13.924,13.924,0,0,1-2.985-.733v2.767c0,.147,0,.293-.012.44-.01.178-.029.357-.051.53a13.729,13.729,0,0,0,3.037.755C320.478,167.715,320.483,167.569,320.483,167.422Z" transform="translate(-317.434 -163.37)" fill="#dad8db" fill-rule="evenodd"/>
      </g>
      <g id="Grupo_1099916" data-name="Grupo 1099916" transform="translate(49.32 30.543)">
        <path id="Trazado_874828" data-name="Trazado 874828" d="M298.628,362.571l6.645-.921,3.467-2.842c.257-.1.515-.191.772-.286A1.608,1.608,0,1,0,308.4,355.5l-3.855,1.439-6.985,2.605C297.331,360.9,297.6,362.573,298.628,362.571Z" transform="translate(-297.485 -355.405)" fill="#f1d0a5" fill-rule="evenodd"/>
      </g>
      <g id="Grupo_1099917" data-name="Grupo 1099917" transform="translate(40.177 28.545)">
        <path id="Trazado_874829" data-name="Trazado 874829" d="M195.587,336.663l3.274-.4,1.05-1.215a1.5,1.5,0,0,0-1.085-2.8l-7.73,2.867.76,1.481Z" transform="translate(-191.096 -332.154)" fill="#f1d0a5" fill-rule="evenodd"/>
      </g>
      <g id="Grupo_1099918" data-name="Grupo 1099918" transform="translate(44.667 29.117)">
        <path id="Trazado_874830" data-name="Trazado 874830" d="M248.079,344.382l4.559-.973,2.426-1.633a1.608,1.608,0,0,0-1.427-2.864l-5.964,2.224a.393.393,0,0,1-.049.017l-4.275,1.6,1.292,1.838Z" transform="translate(-243.349 -338.813)" fill="#f1d0a5" fill-rule="evenodd"/>
      </g>
      <g id="Grupo_1099919" data-name="Grupo 1099919" transform="translate(42.879 28.742)">
        <path id="Trazado_874831" data-name="Trazado 874831" d="M224.328,338.763l4.275-1.6.049-.017a1.507,1.507,0,0,0,.867-1.9,1.483,1.483,0,0,0-.669-.8,1.51,1.51,0,0,1-.95,1.52l-.046.017-5.314,2.158Z" transform="translate(-222.54 -334.452)" fill="#e5c093" fill-rule="evenodd"/>
      </g>
      <g id="Grupo_1099920" data-name="Grupo 1099920" transform="translate(47.032 29.116)">
        <path id="Trazado_874832" data-name="Trazado 874832" d="M273.233,344.374l6.985-2.605a1.6,1.6,0,0,0-.858-2.964,1.645,1.645,0,0,1,.147.31c.254.719.083,1.024-.54,1.415l-8.1,3.028Z" transform="translate(-270.868 -338.804)" fill="#e5c093" fill-rule="evenodd"/>
      </g>
      <g id="Grupo_1099921" data-name="Grupo 1099921" transform="translate(50.462 30.619)">
        <path id="Trazado_874833" data-name="Trazado 874833" d="M310.782,363.383c3.386-1.259,6.775-2.551,10.168-3.783l.716-.266a1.613,1.613,0,0,0,.977-2.053,1.591,1.591,0,0,0-1.021-.987,1.421,1.421,0,0,1-1.036,1.764c-3.2,1.193-6.406,2.446-9.606,3.639.012.044.022.088.032.132a2.19,2.19,0,0,1-.027,1.075,2.06,2.06,0,0,1-.2.479Z" transform="translate(-310.782 -356.293)" fill="#e5c093" fill-rule="evenodd"/>
      </g>
      <g id="Grupo_1099922" data-name="Grupo 1099922" transform="translate(29.789 30.451)">
        <path id="Trazado_874834" data-name="Trazado 874834" d="M79.124,365.727l4.041,1.207a10.871,10.871,0,0,0,5.265-.024c2.077-.643,5.389-1.909,6.611-2.407l8.055-3.28a1.9,1.9,0,0,0,.647-2.742,2.141,2.141,0,0,0-2.683-.667l-.056.02L90.892,361.6a2.088,2.088,0,0,0-1.065-3.023l-9.22-3.182c-2.275-.785-2.976-1.852-7.605-.122l-2.783,4.956L73,364.732A18.541,18.541,0,0,1,79.124,365.727Z" transform="translate(-70.219 -354.339)" fill="#ffe4c1" fill-rule="evenodd"/>
      </g>
      <g id="Grupo_1099923" data-name="Grupo 1099923" transform="translate(32.572 34.556)">
        <path id="Trazado_874835" data-name="Trazado 874835" d="M102.6,408.4a18.545,18.545,0,0,1,6.122.995l4.041,1.207a10.871,10.871,0,0,0,5.265-.024c2.077-.643,5.389-1.909,6.611-2.407l8.055-3.28a1.9,1.9,0,0,0,.647-2.742l-.022-.037a1.456,1.456,0,0,1-.625.491l-8.055,3.28c-1.222.5-4.534,1.764-6.611,2.407a10.9,10.9,0,0,1-5.265.027l-4.041-1.21a18.536,18.536,0,0,0-6.122-.992V408.4Z" transform="translate(-102.599 -402.107)" fill="#f1d0a5" fill-rule="evenodd"/>
      </g>
      <g id="Grupo_1099924" data-name="Grupo 1099924" transform="translate(26.799 29.651)">
        <path id="Trazado_874836" data-name="Trazado 874836" d="M41.2,355.721v-9.565a1.127,1.127,0,0,0-1.124-1.124H36.546a1.127,1.127,0,0,0-1.124,1.124v10.306a1.129,1.129,0,0,0,1.124,1.124h3.525a1.127,1.127,0,0,0,1.124-1.124Z" transform="translate(-35.422 -345.031)" fill="#eceaed" fill-rule="evenodd"/>
      </g>
      <g id="Grupo_1099925" data-name="Grupo 1099925" transform="translate(26.799 38.559)">
        <path id="Trazado_874837" data-name="Trazado 874837" d="M36.546,452.335h3.525a1.127,1.127,0,0,0,1.124-1.124v-2.522a1.129,1.129,0,0,1-1.124,1.124H36.546a1.13,1.13,0,0,1-1.124-1.122v2.52A1.129,1.129,0,0,0,36.546,452.335Z" transform="translate(-35.422 -448.689)" fill="#dad8db" fill-rule="evenodd"/>
      </g>
      <g id="Grupo_1099926" data-name="Grupo 1099926" transform="translate(25.988 0)">
        <path id="Trazado_874838" data-name="Trazado 874838" d="M114.194,127.9c-1.168,0-2.351.992-2.351,2.889,0,4.9,3.353,7.795,6.048,10.122l.009.007c.07.065.141.13.213.194a9.137,9.137,0,0,0,12.237,0c.075-.066.147-.132.219-.2h0c2.694-2.325,6.048-5.219,6.048-10.122,0-1.9-1.182-2.889-2.351-2.889s-2.352.992-2.352,2.889v.134a11.117,11.117,0,0,1-4.39-1.761,5.657,5.657,0,0,0-3.272-1.143h-.04a5.662,5.662,0,0,0-3.278,1.143,11.116,11.116,0,0,1-4.391,1.761v-.134C116.545,128.9,115.362,127.9,114.194,127.9Zm-1.061,2.889c0-1.1.55-1.6,1.061-1.6s1.062.5,1.062,1.6V135a7.834,7.834,0,0,0,.2,1.781A9.067,9.067,0,0,1,113.132,130.792ZM133.2,135v-4.211c0-1.1.551-1.6,1.062-1.6s1.061.5,1.061,1.6A9.067,9.067,0,0,1,133,136.787,7.832,7.832,0,0,0,133.2,135Zm-8.973,7.173c-3.422,0-7.066-2.449-7.615-6.193a12.433,12.433,0,0,0,5-1.965,4.446,4.446,0,0,1,2.6-.947h.031a4.444,4.444,0,0,1,2.592.947,12.432,12.432,0,0,0,5,1.965C131.3,139.727,127.652,142.176,124.232,142.176Zm-2.611-11.919a4.446,4.446,0,0,1,2.6-.947h.031a4.444,4.444,0,0,1,2.592.947,12.449,12.449,0,0,0,5.074,1.978v2.452a11.118,11.118,0,0,1-4.39-1.761,5.657,5.657,0,0,0-3.272-1.143h-.04a5.663,5.663,0,0,0-3.278,1.143,11.116,11.116,0,0,1-4.391,1.761v-2.452A12.451,12.451,0,0,0,121.621,130.257Z" transform="translate(-104.465 -116.911)"/>
        <path id="Trazado_874839" data-name="Trazado 874839" d="M62.743,33.3a2.247,2.247,0,0,0,.188-1.9,2.216,2.216,0,0,0-.576-.884A19.771,19.771,0,0,0,32.443,5.154a.645.645,0,0,0,.868.953A18.482,18.482,0,0,1,61.193,29.931a2.315,2.315,0,0,0-1.171.1l-.01,0-2.242.836A2.219,2.219,0,0,0,56.5,28.692a2.287,2.287,0,0,0-1.762-.083l-.009,0-4.143,1.545a2.136,2.136,0,0,0-1.23-2.054,2.188,2.188,0,0,0-1.665-.074l-.009,0-7.509,2.785c-.293-.108-.564-.22-.826-.33-1.524-.636-2.752-1.146-6.158-.009a1.77,1.77,0,0,0-1.742-1.473h-1.7a18.5,18.5,0,0,1,1.518-20.7.645.645,0,0,0-1.011-.8,19.795,19.795,0,0,0-1.98,21.5h-.349a1.771,1.771,0,0,0-1.768,1.769v3.4a.645.645,0,1,0,1.289,0v-3.4a.48.48,0,0,1,.479-.48h3.525a.48.48,0,0,1,.479.48V41.081a.48.48,0,0,1-.479.48H27.923a.486.486,0,0,1-.479-.48v-3.7a.645.645,0,0,0-1.289,0v3.7a1.771,1.771,0,0,0,1.768,1.769h3.525A1.77,1.77,0,0,0,33.164,41.5a17.653,17.653,0,0,1,5.346.954l4.04,1.207A10.108,10.108,0,0,0,45.306,44a10.338,10.338,0,0,0,2.884-.363c2.078-.643,5.419-1.918,6.663-2.426l8.055-3.28a2.155,2.155,0,0,0,1.234-1.364,2.84,2.84,0,0,0-.282-2.313,2.384,2.384,0,0,0-1.118-.96Zm-6.141-.61.007,0,3.849-1.436a1.011,1.011,0,0,1,.775.037.938.938,0,0,1,.484.538.964.964,0,0,1-.585,1.23l-.009,0-.665.247-.111.04-.019.008-8.938,3.326a2.914,2.914,0,0,0-.069-.671,2.718,2.718,0,0,0-.552-1.143Zm-1.426-2.864a1.007,1.007,0,0,1,.772.035.944.944,0,0,1,.488.539.973.973,0,0,1-.354,1.108L49.389,34l-2.814-.971Zm-7.05-.579a.906.906,0,0,1,.686.028.837.837,0,0,1,.439.482.862.862,0,0,1-.522,1.1l-.032.013-4.039,1.506-2.569-.887Zm14.792,6.925a.887.887,0,0,1-.5.57l-8.055,3.28c-1.228.5-4.517,1.757-6.558,2.388a10.191,10.191,0,0,1-4.89.023l-4.041-1.207a18.91,18.91,0,0,0-5.662-1.007V31.833c3.241-1.152,4.206-.751,5.635-.155.344.143,10.336,3.617,10.336,3.617l.022.007a1.289,1.289,0,0,1,.853.984,1.455,1.455,0,0,1-.4,1.4,2.581,2.581,0,0,1-2.536.144l-5.68-1.877a.645.645,0,1,0-.4,1.224l5.68,1.877a5.553,5.553,0,0,0,1.74.309,2.99,2.99,0,0,0,2.066-.721,2.54,2.54,0,0,0,.361-.405l9.983-3.714a1.39,1.39,0,0,1,2.048,1.644Z" transform="translate(-25.988 0)"/>
      </g>
    </g>
  </g>
</svg>
