<svg xmlns="http://www.w3.org/2000/svg" width="70" height="70" viewBox="0 0 70 70">
  <g id="Grupo_1099932" data-name="Grupo 1099932" transform="translate(841 10452)">
    <g id="Elipse_11569" data-name="Elipse 11569" transform="translate(-841 -10452)" fill="#f9a545" stroke="#707070" stroke-width="1">
      <circle cx="35" cy="35" r="35" stroke="none"/>
      <circle cx="35" cy="35" r="34.5" fill="none"/>
    </g>
    <g id="maquillaje" transform="translate(-829 -10440)">
      <path id="Trazado_874875" data-name="Trazado 874875" d="M36,23.355V16.968l.275-.825A6.235,6.235,0,0,1,40.968,12,7.269,7.269,0,0,1,43.1,17.14v6.215" transform="translate(-10.161 -3.194)" fill="#c33e37"/>
      <path id="Trazado_874876" data-name="Trazado 874876" d="M43.935,35H34v9.935a2.129,2.129,0,0,0,2.129,2.129h5.677a2.129,2.129,0,0,0,2.129-2.129Z" transform="translate(-9.581 -9.871)" fill="#584138"/>
      <path id="Trazado_874877" data-name="Trazado 874877" d="M35,32.968V28h8.516v4.968" transform="translate(-9.871 -7.839)" fill="#745749"/>
      <path id="Trazado_874878" data-name="Trazado 874878" d="M25.935,31H16V43.774A2.129,2.129,0,0,0,18.129,45.9h5.677a2.129,2.129,0,0,0,2.129-2.129Z" transform="translate(-4.355 -8.71)" fill="#584138"/>
      <path id="Trazado_874879" data-name="Trazado 874879" d="M18,36.677a7.806,7.806,0,0,0,7.806,7.806h.579a2.1,2.1,0,0,0,.131-.71V31H18Z" transform="translate(-4.935 -8.71)" fill="#684d42"/>
      <path id="Trazado_874880" data-name="Trazado 874880" d="M38,37.129A8.516,8.516,0,0,0,45.01,45.5a2.118,2.118,0,0,0,.087-.568V35H38Z" transform="translate(-10.742 -9.871)" fill="#684d42"/>
      <path id="Trazado_874881" data-name="Trazado 874881" d="M38,28h6.387v4.968H38Z" transform="translate(-10.742 -7.839)" fill="#997f6f"/>
      <path id="Trazado_874882" data-name="Trazado 874882" d="M38,14.4v9.245h5.677V17.431A7.264,7.264,0,0,0,42.162,13H39.688A6.219,6.219,0,0,0,38,14.4Z" transform="translate(-10.742 -3.484)" fill="#d4483e"/>
      <path id="Trazado_874883" data-name="Trazado 874883" d="M40.968,12a6.235,6.235,0,0,0-4.692,4.142L36,16.968A4.968,4.968,0,0,0,40.968,12Z" transform="translate(-10.161 -3.194)" fill="#a82e25"/>
      <path id="Trazado_874884" data-name="Trazado 874884" d="M16,39.222v2.007l9.935-9.935V31H24.222Z" transform="translate(-4.355 -8.71)" fill="#55b4f1"/>
      <path id="Trazado_874885" data-name="Trazado 874885" d="M16,34.964v2.008L21.971,31H19.964Z" transform="translate(-4.355 -8.71)" fill="#55b4f1"/>
      <path id="Trazado_874886" data-name="Trazado 874886" d="M23.29,2a21.29,21.29,0,1,0,21.29,21.29A21.29,21.29,0,0,0,23.29,2Zm0,39.742A18.447,18.447,0,0,1,9.225,11.354l26,26A18.332,18.332,0,0,1,23.29,41.742Zm14.066-6.515-26-26a18.447,18.447,0,0,1,26,26Z" transform="translate(-0.29 -0.29)" fill="#b73831"/>
      <path id="Trazado_874887" data-name="Trazado 874887" d="M25.841,2A21.226,21.226,0,0,0,10.786,8.235L40.9,38.345A21.29,21.29,0,0,0,25.841,2ZM39.907,35.227l-26-26a18.447,18.447,0,0,1,26,26Z" transform="translate(-2.841 -0.29)" fill="#d4483e"/>
      <path id="Trazado_874888" data-name="Trazado 874888" d="M10.6,14.388a.666.666,0,0,0-.53-.207.7.7,0,0,0-.512.248,19.157,19.157,0,0,0,27,27A.71.71,0,0,0,36.6,40.39Zm2.919,16.99,4.552-4.552h2.251l-6.8,6.8Zm0-2.007V26.826H16.06Zm0,9.52V35.636l8.161-8.161.355.355V38.891a1.419,1.419,0,0,1-1.419,1.419H14.935A1.419,1.419,0,0,1,13.515,38.891Zm-7.1-12.065a17.713,17.713,0,0,1,3.73-10.879l9.46,9.46h-6.8a.71.71,0,0,0-.71.71V38.891a2.807,2.807,0,0,0,.254,1.16A17.7,17.7,0,0,1,6.419,26.826ZM24.161,44.568a17.63,17.63,0,0,1-9.68-2.885,2.823,2.823,0,0,0,.454.046h5.677a2.839,2.839,0,0,0,2.839-2.839V29.25l1.419,1.419v8.222a2.839,2.839,0,0,0,2.839,2.839h4.968V40.31H27.709a1.419,1.419,0,0,1-1.419-1.419v-6.8l8.75,8.75a17.718,17.718,0,0,1-10.879,3.729Z" transform="translate(-1.161 -3.826)"/>
      <path id="Trazado_874889" data-name="Trazado 874889" d="M23,1A22,22,0,1,0,45,23,22,22,0,0,0,23,1Zm0,42.581A20.581,20.581,0,1,1,43.581,23,20.581,20.581,0,0,1,23,43.581Z"/>
      <path id="Trazado_874890" data-name="Trazado 874890" d="M26.827,5a19.123,19.123,0,0,0-12.4,4.555.71.71,0,0,0-.042,1.042l26,26a.71.71,0,0,0,.5.208h.028a.7.7,0,0,0,.512-.248A19.158,19.158,0,0,0,26.827,5Zm3.548,10.6a5.692,5.692,0,0,0,4.706-3.925,6.518,6.518,0,0,1,.972,3.436v5.506H30.375Zm.338-1.506a5.535,5.535,0,0,1,3.09-3.135A4.264,4.264,0,0,1,30.713,14.09ZM37.472,27v4.674L32.8,27Zm-7.806-4.968h7.1v3.548H31.378l-1.713-1.713ZM40.838,35.041l-1.947-1.947v-6.8a.71.71,0,0,0-.71-.71V21.323a.71.71,0,0,0-.71-.71V15.107a7.923,7.923,0,0,0-2.337-5.641.71.71,0,0,0-.639-.194,6.955,6.955,0,0,0-5.227,4.613l-.275.825a.71.71,0,0,0-.038.225v5.677a.71.71,0,0,0-.71.71v1.125l-12.3-12.3A17.742,17.742,0,0,1,40.838,35.041Z" transform="translate(-3.827 -1.161)"/>
    </g>
  </g>
</svg>
