<svg xmlns="http://www.w3.org/2000/svg" xmlns:xlink="http://www.w3.org/1999/xlink" width="257.485" height="424.786" viewBox="0 0 257.485 424.786">
  <defs>
    <clipPath id="clip-path">
      <rect id="Rectángulo_401302" data-name="Rectángulo 401302" width="29.082" height="25.19" fill="#5f6e62"/>
    </clipPath>
    <clipPath id="clip-path-2">
      <rect id="Rectángulo_401302-2" data-name="Rectángulo 401302" width="25.008" height="21.661" transform="translate(0 0)" fill="#5f6e62"/>
    </clipPath>
    <clipPath id="clip-path-3">
      <rect id="Rectángulo_401302-3" data-name="Rectángulo 401302" width="32.113" height="27.816" transform="translate(0)" fill="#5f6e62"/>
    </clipPath>
    <clipPath id="clip-path-4">
      <rect id="Rectángulo_401734" data-name="Rectángulo 401734" width="170" height="424.785" fill="none"/>
    </clipPath>
    <clipPath id="clip-path-5">
      <path id="Trazado_873616" data-name="Trazado 873616" d="M129.338,139.971H1.889C.846,139.971,0,137.622,0,134.726V5.245C0,2.348.846,0,1.889,0H129.338c1.043,0,1.889,2.348,1.889,5.245v129.48C131.227,137.622,130.381,139.971,129.338,139.971Z" fill="#297929" stroke="#707070" stroke-width="1"/>
    </clipPath>
    <radialGradient id="radial-gradient" cx="0.5" cy="0.5" r="0.5" gradientUnits="objectBoundingBox">
      <stop offset="0" stop-color="#fff" stop-opacity="0"/>
      <stop offset="1" stop-color="#f9a545"/>
    </radialGradient>
  </defs>
  <g id="Grupo_1099414" data-name="Grupo 1099414" transform="translate(-199.781 -2464.809)">
    <g id="Grupo_1099412" data-name="Grupo 1099412" transform="translate(199.781 2481.76)">
      <ellipse id="Elipse_11526" data-name="Elipse 11526" cx="112.537" cy="112.987" rx="112.537" ry="112.987" transform="translate(32.411 17.106)" fill="#dcc366"/>
      <path id="Rectángulo_401329" data-name="Rectángulo 401329" d="M200,0h29.575a0,0,0,0,1,0,0V407.834a0,0,0,0,1,0,0H0a0,0,0,0,1,0,0V200A200,200,0,0,1,200,0Z" transform="translate(0 0)" fill="#5f6e62"/>
      <g id="Grupo_1099382" data-name="Grupo 1099382" transform="translate(70.288 313.358)">
        <path id="Trazado_873222" data-name="Trazado 873222" d="M-11400.342-11394.821s33.918-66.292,98.011-80.283" transform="translate(11400.342 11488.354)" fill="none" stroke="#869a8a" stroke-width="2"/>
        <g id="Grupo_1099331" data-name="Grupo 1099331" transform="translate(62.735 52.947) rotate(130)">
          <g id="Grupo_1099328" data-name="Grupo 1099328" transform="translate(0 0)" clip-path="url(#clip-path)">
            <path id="Trazado_873219" data-name="Trazado 873219" d="M27.971,24.348S9.159-9.916,1.1,2.849c0,0-9.406,12.765,26.874,21.5" transform="translate(1.11 0.565)" fill="#5f6e62"/>
            <path id="Trazado_873220" data-name="Trazado 873220" d="M21.472,16.789c-2.916-2.708-7.169-6.692-10.185-9.2C7.767,4.75,4.226,1.713,0,0L.067.02c.175.047.343.1.511.161.06.02.128.047.2.074C4.878,1.612,8.385,4.4,11.717,7.075a88.209,88.209,0,0,1,9.755,9.715" transform="translate(7.609 8.125)" fill="#5f6e62"/>
            <path id="Trazado_873221" data-name="Trazado 873221" d="M28.971,25.189l-.739-.177C17.15,22.343,3.344,17.531.508,9.755a7.447,7.447,0,0,1,.659-6.768C2.45.952,4.111-.062,6.082,0c9.112.279,21.98,23.53,22.524,24.52ZM5.913.672c-1.676,0-3.048.882-4.192,2.693a6.908,6.908,0,0,0-.576,6.176c1.5,4.079,7.326,9.906,26.493,14.633C25.419,20.292,13.956.916,6.061.674l-.148,0" transform="translate(0 0.001)" fill="#5f6e62"/>
          </g>
        </g>
        <g id="Grupo_1099332" data-name="Grupo 1099332" transform="matrix(0.309, 0.951, -0.951, 0.309, 46.847, 19.863)">
          <g id="Grupo_1099328-2" data-name="Grupo 1099328" transform="translate(0 0)" clip-path="url(#clip-path-2)">
            <path id="Trazado_873219-2" data-name="Trazado 873219" d="M24.052,20.937S7.876-8.527.943,2.45c0,0-8.088,10.977,23.109,18.487" transform="translate(0.954 0.486)" fill="#5f6e62"/>
            <path id="Trazado_873220-2" data-name="Trazado 873220" d="M18.464,14.437C15.957,12.109,12.3,8.683,9.706,6.528,6.679,4.085,3.634,1.473,0,0L.058.017C.208.058.352.1.5.156.549.173.607.2.67.22c3.524,1.167,6.54,3.565,9.405,5.864a75.853,75.853,0,0,1,8.389,8.354" transform="translate(6.543 6.987)" fill="#5f6e62"/>
            <path id="Trazado_873221-2" data-name="Trazado 873221" d="M24.913,21.66l-.636-.153c-9.53-2.295-21.4-6.433-23.841-13.12A6.4,6.4,0,0,1,1,2.568,4.736,4.736,0,0,1,5.23,0c7.835.24,18.9,20.234,19.368,21.085ZM5.084.578a4.2,4.2,0,0,0-3.6,2.316A5.94,5.94,0,0,0,.984,8.2c1.288,3.508,6.3,8.519,22.782,12.584C21.858,17.449,12,.788,5.212.58l-.128,0" transform="translate(0 0)" fill="#5f6e62"/>
          </g>
        </g>
        <g id="Grupo_1099333" data-name="Grupo 1099333" transform="matrix(-0.616, 0.788, -0.788, -0.616, 107.299, 17.125)">
          <g id="Grupo_1099328-3" data-name="Grupo 1099328" transform="translate(0 0)" clip-path="url(#clip-path-3)">
            <path id="Trazado_873219-3" data-name="Trazado 873219" d="M30.886,26.887S10.114-10.95,1.211,3.146c0,0-10.386,14.1,29.675,23.74" transform="translate(1.225 0.624)" fill="#5f6e62"/>
            <path id="Trazado_873220-3" data-name="Trazado 873220" d="M23.711,18.54c-3.22-2.99-7.916-7.389-11.247-10.156C8.576,5.245,4.666,1.892,0,0L.074.022C.267.074.453.134.638.2.7.223.779.252.861.282c4.525,1.5,8.4,4.577,12.078,7.53A97.4,97.4,0,0,1,23.711,18.54" transform="translate(8.403 8.972)" fill="#5f6e62"/>
            <path id="Trazado_873221-3" data-name="Trazado 873221" d="M31.991,27.815l-.816-.2C18.938,24.672,3.693,19.358.56,10.772A8.224,8.224,0,0,1,1.288,3.3C2.705,1.052,4.54-.069,6.716,0,16.777.311,30.987,25.986,31.587,27.079ZM6.529.742c-1.85,0-3.366.974-4.629,2.973a7.628,7.628,0,0,0-.637,6.82c1.654,4.5,8.089,10.939,29.255,16.159C28.069,22.407,15.411,1.011,6.693.744l-.164,0" transform="translate(0 0.001)" fill="#5f6e62"/>
          </g>
        </g>
      </g>
    </g>
    <g id="Grupo_1099933" data-name="Grupo 1099933" transform="translate(226.574 2464.809)">
      <g id="Grupo_1099933-2" data-name="Grupo 1099933" clip-path="url(#clip-path-4)">
        <path id="Trazado_874891" data-name="Trazado 874891" d="M33.423,133.084S20.1,38.169,20.1,15.541C20.1,3.168,35.131-1.405,42.816,20.8s17.969,99.479,17.969,99.479,1.3,29.336-27.362,12.808" transform="translate(8.941 2.314)" fill="#f1a6aa"/>
        <path id="Trazado_874892" data-name="Trazado 874892" d="M50.777,126.1S47.64,37.141,48.294,14.522,67.3.5,68.634,10.24C71.824,33.516,78.5,114.083,78.5,114.083s.452,29.36-27.72,12.014" transform="translate(21.443 0.086)" fill="#f1a6aa"/>
        <path id="Trazado_874893" data-name="Trazado 874893" d="M69.171,124S72.207,38.555,74.69,16.063C75.835,5.712,91.648.242,96.02,23.325s2.086,91.985,2.086,91.985S95.122,144.523,69.171,124" transform="translate(30.769 3.179)" fill="#f1a6aa"/>
        <path id="Trazado_874894" data-name="Trazado 874894" d="M85.83,144.489s11.972-84.736,17.8-106.6,20.577-7.656,20.384,5.336c-.351,23.491-8.444,95.934-8.444,95.934s-6.3,28.681-29.737,5.333" transform="translate(38.18 11.806)" fill="#f1a6aa"/>
        <path id="Trazado_874895" data-name="Trazado 874895" d="M95.783,64.377C46.455,50.428,30.24,75.524,30.24,75.524s6.7,54.545,23.2,88.561c-9.553.886-16.016,1.727-16.016,1.727s23.015,41.094,6.08,113.607S16.679,398.026,16.679,398.026h119l-6-199.1s6-6.789,2.812-26.325h0c12.723-13.73,15-32.093,15.166-43.291.309-21.587,6.4-48.451-51.877-64.931" transform="translate(7.419 26.759)" fill="#f1a6aa"/>
        <path id="Trazado_874896" data-name="Trazado 874896" d="M47.481,153.776c-11.7-25.795-18.154-61.45-20.609-77.319,13.971,2.518,56.676,13.93,72.46,61.008,10.39,30.977-24.181,33.464-51.851,16.311" transform="translate(11.953 34.01)" fill="#e98485"/>
        <path id="Trazado_874897" data-name="Trazado 874897" d="M59.456,88.848c3.92,1.309,7.645,2.859,11.353,4.414L81.8,98.026c3.641,1.6,7.285,3.121,10.962,4.541a44.448,44.448,0,0,0,11.466,3.135,24.947,24.947,0,0,1-3.043.735c-1.033.084-2.089.137-3.151.17l-3.132-.243c-1.04-.118-2.053-.337-3.082-.522A60.5,60.5,0,0,1,80.075,102a84.75,84.75,0,0,1-10.839-5.726,63.028,63.028,0,0,1-9.78-7.425" transform="translate(26.448 39.522)" fill="#e26161"/>
        <path id="Trazado_874898" data-name="Trazado 874898" d="M80.4,7.014a18.164,18.164,0,0,1,6.3,2.713,15.733,15.733,0,0,1,4.612,5.353c2.276,4.174,3.252,8.767,4.087,13.281a21.368,21.368,0,0,1,.318,3.5c0,.6-.026,1.224-.049,1.833-.081.624-.127,1.24-.254,1.87A12.379,12.379,0,0,1,94.1,39.322a7.956,7.956,0,0,1-2.93,3.116,8.239,8.239,0,0,1-3.96,1.143,12.034,12.034,0,0,1-3.712-.459,18.117,18.117,0,0,1-6.216-3.14l.207-.381a28.679,28.679,0,0,0,6.4,1.113A7.728,7.728,0,0,0,89.108,39.4a6.731,6.731,0,0,0,1.975-4.522,38.533,38.533,0,0,0,.007-6.119,34.854,34.854,0,0,0-2.04-12.59A15.561,15.561,0,0,0,85.7,10.921a19.123,19.123,0,0,0-5.45-3.5Z" transform="translate(34.379 3.12)" fill="#e26161"/>
        <path id="Trazado_874899" data-name="Trazado 874899" d="M74.951,49.771a11.063,11.063,0,0,1,4.018-2.515,14.465,14.465,0,0,1,4.768-.942,15.613,15.613,0,0,1,4.9.628,18.055,18.055,0,0,1,4.5,2.008l-2.19,3.655-2.735-1.758-2.75-1.812c-1.846-1.218-3.622-2.478-5.633-3.7a12.476,12.476,0,0,1,3.541.1,21.271,21.271,0,0,1,3.417.792,31.223,31.223,0,0,1,3.249,1.2c1.063.462,2.076.954,3.119,1.534a2.126,2.126,0,0,1-1.988,3.758l-.2-.1a28.1,28.1,0,0,0-3.624-1.624,21.675,21.675,0,0,0-3.837-1.032,23.944,23.944,0,0,0-4.115-.407,31.242,31.242,0,0,0-4.444.218" transform="translate(33.34 20.127)" fill="#e26161"/>
        <path id="Trazado_874900" data-name="Trazado 874900" d="M88.615,24.247a55.107,55.107,0,0,1,1.818,8.188c.423,2.75.725,5.512.889,8.285a76.624,76.624,0,0,1,.062,8.35A35.6,35.6,0,0,1,90.174,57.4c-.8-5.56-1.407-10.989-1.737-16.509-.166-2.752-.243-5.512-.244-8.283a69.04,69.04,0,0,1,.422-8.36" transform="translate(39.231 10.786)" fill="#e26161"/>
        <path id="Trazado_874901" data-name="Trazado 874901" d="M64.659,61.794a7.5,7.5,0,0,1,3.546-1.1,10.628,10.628,0,0,1,6.4,1.659,8.431,8.431,0,0,1,2.6,2.6,9.557,9.557,0,0,1-3.577.666,12.256,12.256,0,0,1-3.182-.412,12.907,12.907,0,0,1-2.956-1.192,11.548,11.548,0,0,1-2.832-2.222" transform="translate(28.762 26.988)" fill="#e26161"/>
        <path id="Trazado_874902" data-name="Trazado 874902" d="M85.264,67.984a17.418,17.418,0,0,1,4.745.951,25.478,25.478,0,0,1,4.347,1.932,22.911,22.911,0,0,1,3.917,2.751,13.457,13.457,0,0,1,3.079,3.787c-1.565-.588-2.955-1.232-4.343-1.9s-2.739-1.364-4.067-2.121-2.647-1.546-3.934-2.42a28,28,0,0,1-3.744-2.981" transform="translate(37.928 30.241)" fill="#e26161"/>
        <path id="Trazado_874903" data-name="Trazado 874903" d="M100.6,45.613a7.2,7.2,0,0,1,3.978-1,10.422,10.422,0,0,1,7.032,2.968,7.9,7.9,0,0,1,2.121,3.479,15.679,15.679,0,0,1-3.848-.542,22.893,22.893,0,0,1-3.192-1.1,24.336,24.336,0,0,1-3-1.53,21.3,21.3,0,0,1-3.095-2.283" transform="translate(44.749 19.846)" fill="#e26161"/>
        <path id="Trazado_874904" data-name="Trazado 874904" d="M98.442,61.625a8.775,8.775,0,0,1,4.1-.533,11.88,11.88,0,0,1,3.775,1.011,11.3,11.3,0,0,1,3.261,2.267,7.4,7.4,0,0,1,2.029,3.69,22.353,22.353,0,0,1-3.837-.8,21.406,21.406,0,0,1-3.262-1.219,20.387,20.387,0,0,1-3.089-1.744,14.691,14.691,0,0,1-2.979-2.671" transform="translate(43.79 27.157)" fill="#e26161"/>
        <path id="Trazado_874905" data-name="Trazado 874905" d="M107.556,27.718a19.193,19.193,0,0,1,6.493,8.3,18.669,18.669,0,0,1,1.228,5.314l.065,1.378-.026,1.319-.077,2.627c-.238,6.984-.74,13.934-1.269,20.884-.588,6.944-1.227,13.883-2.04,20.807-.795,6.925-1.7,13.84-2.9,20.73,0-6.993.277-13.96.65-20.92.355-6.96.871-13.906,1.407-20.85q.88-10.409,1.907-20.8l.241-2.588.11-1.289.043-1.234a17.417,17.417,0,0,0-.678-4.92,21.105,21.105,0,0,0-5.159-8.763" transform="translate(47.844 12.33)" fill="#e26161"/>
        <path id="Trazado_874906" data-name="Trazado 874906" d="M51.651,1.527A16.214,16.214,0,0,1,57.123.05,10.963,10.963,0,0,1,62.99,1.066a10.3,10.3,0,0,1,4.323,4.491,14.169,14.169,0,0,1,1.024,2.9l.337,1.484c.1.488.144.926.218,1.391.568,3.671.98,7.36,1.465,11.04l1.225,11.069.994,11.095c.249,3.706.579,7.4.747,11.118.42,7.419.689,14.853.527,22.321C72.217,70.678,71.01,63.347,69.958,56c-.568-3.668-.975-7.354-1.462-11.03L67.277,33.916l-.984-11.079c-.251-3.7-.578-7.4-.746-11.109-.033-.455-.038-.946-.088-1.373L65.287,9.1a15.244,15.244,0,0,0-.566-2.417,7.96,7.96,0,0,0-2.8-3.8,9.788,9.788,0,0,0-4.8-1.647,19.255,19.255,0,0,0-5.466.283" transform="translate(22.976 0)" fill="#e26161"/>
        <path id="Trazado_874907" data-name="Trazado 874907" d="M57.94,44.919a5.27,5.27,0,0,1,2.291-2.939,6.759,6.759,0,0,1,3.531-1.042,5.815,5.815,0,0,1,5.867,3.98c-1.384.2-2.367.179-3.3.263-.9.027-1.7.078-2.507.09s-1.636-.013-2.576-.052-1.965-.114-3.312-.3" transform="translate(25.773 18.21)" fill="#e26161"/>
        <path id="Trazado_874908" data-name="Trazado 874908" d="M54.425,26.676a6.131,6.131,0,0,1,2.307-3.92,7.611,7.611,0,0,1,4.43-1.693,7.836,7.836,0,0,1,4.558,1.159,7.918,7.918,0,0,1,1.734,1.467,7.768,7.768,0,0,1,1.165,1.978,15.984,15.984,0,0,1-2.177-.107c-.682.007-1.271-.139-1.864-.127a26.264,26.264,0,0,0-3.173-.043,20.013,20.013,0,0,0-3.112.384c-1.134.212-2.336.522-3.868.9" transform="translate(24.21 9.366)" fill="#e26161"/>
        <path id="Trazado_874909" data-name="Trazado 874909" d="M26.871,25.46a10.451,10.451,0,0,1,3.55-2.658,13.347,13.347,0,0,1,4.293-1.224,11.245,11.245,0,0,1,4.547.468,7.368,7.368,0,0,1,3.651,2.686,31.572,31.572,0,0,0-4.085-.455c-1.289-.01-2.539.058-3.82.175-2.575.262-5.142.772-8.136,1.008" transform="translate(11.953 9.573)" fill="#e26161"/>
        <path id="Trazado_874910" data-name="Trazado 874910" d="M30.5,46.668a11.114,11.114,0,0,1,3.55-2.787,15.042,15.042,0,0,1,4.272-1.438,13.1,13.1,0,0,1,4.566,0,8.987,8.987,0,0,1,4.155,1.891c-1.558.165-2.906.2-4.259.379s-2.651.337-3.973.575c-2.657.442-5.272,1.045-8.311,1.377" transform="translate(13.566 18.791)" fill="#e26161"/>
        <path id="Trazado_874911" data-name="Trazado 874911" d="M56.667,60.5a33.88,33.88,0,0,1-8.012,1.953,34.544,34.544,0,0,1-4.056.282,19.031,19.031,0,0,1-4.226-.379,14.981,14.981,0,0,1,3.853-1.862,21.465,21.465,0,0,1,4.069-.907,20.557,20.557,0,0,1,4.187-.107,12.086,12.086,0,0,1,4.184,1.02" transform="translate(17.96 26.429)" fill="#e26161"/>
        <path id="Trazado_874912" data-name="Trazado 874912" d="M20.213,12.358c1.351,5.375,2.291,10.781,3.092,16.2.442,2.7.73,5.424,1.1,8.134l.877,8.152c.524,5.44.887,10.893,1.137,16.357s.371,10.936.217,16.472a120.414,120.414,0,0,1-3.58-16.121c-.877-5.415-1.586-10.849-2.086-16.3-.215-2.729-.462-5.456-.64-8.186-.133-2.737-.332-5.466-.377-8.208a150.926,150.926,0,0,1,.264-16.5" transform="translate(8.827 5.497)" fill="#e26161"/>
        <path id="Trazado_874913" data-name="Trazado 874913" d="M31.039,133.283A71.336,71.336,0,0,1,37.39,146.4l1.247,3.44,1.091,3.489c.78,2.319,1.287,4.7,1.894,7.07.646,2.361,1.036,4.769,1.487,7.171.491,2.4.783,4.817,1.107,7.239l.452,3.635c.13,1.214.181,2.433.275,3.65.143,2.436.389,4.869.445,7.308.013,4.881.123,9.761-.254,14.625-.223,4.872-.789,9.711-1.461,14.529-.273,2.417-.718,4.808-1.2,7.191l-1.435,7.14c-1.167,4.713-2.5,9.384-3.917,14.006.481-4.839,1.245-9.594,1.819-14.37l.72-7.175c.246-2.388.568-4.762.653-7.162.137-2.393.29-4.781.481-7.165.111-1.192.156-2.385.165-3.582l.077-3.585c.014-2.388.256-4.774.144-7.161l-.118-7.158a218.983,218.983,0,0,0-2.738-28.465c-.415-2.349-.8-4.71-1.332-7.039l-.735-3.514-.881-3.478a110.874,110.874,0,0,0-4.333-13.755" transform="translate(13.807 59.288)" fill="#e26161"/>
        <path id="Trazado_874914" data-name="Trazado 874914" d="M98.13,156.2s-14.872,70.152-9.251,199.1h15.25Z" transform="translate(38.971 69.483)" fill="#f8c9ce"/>
        <path id="Trazado_874915" data-name="Trazado 874915" d="M36.645,232.4s31.887.288,26.8,89.014H16.679Z" transform="translate(7.419 103.376)" fill="#e98485"/>
        <path id="Trazado_874916" data-name="Trazado 874916" d="M117.881,97.992c-2.917,4.788-11.985,4.586-20.255-.451S68.1,79.9,71.022,75.109s28.9.055,37.165,5.092,12.61,13,9.693,17.792" transform="translate(31.471 32.536)" fill="#f8c9ce"/>
        <path id="Trazado_874917" data-name="Trazado 874917" d="M115.456,108.018a49.76,49.76,0,0,1,.208,15.3,56.393,56.393,0,0,1-4.033,14.929,40.03,40.03,0,0,1-8.754,13.064,29.309,29.309,0,0,1-6.4,4.681,23.348,23.348,0,0,1-7.4,2.384,50.762,50.762,0,0,0,5.75-4.693A45.331,45.331,0,0,0,99.47,148.3a63.091,63.091,0,0,0,6.856-12.343,134.908,134.908,0,0,0,4.91-13.6c1.458-4.674,2.781-9.432,4.22-14.343" transform="translate(39.624 48.05)" fill="#e26161"/>
        <path id="Trazado_874918" data-name="Trazado 874918" d="M95.718,182.649q1.443,20.086,2.335,40.188c.634,13.4,1.1,26.806,1.533,40.212.379,13.409.721,26.817.894,40.233q.323,20.119.085,40.256-1.448-20.086-2.339-40.188c-.633-13.4-1.1-26.806-1.527-40.212-.376-13.409-.718-26.819-.891-40.233q-.321-20.119-.09-40.256" transform="translate(42.535 81.248)" fill="#e26161"/>
        <path id="Trazado_874919" data-name="Trazado 874919" d="M163.562,140.131c-.653,3.736-8.946,4.132-10.966,7.048-1.991,2.856,1.838,13.489-1.6,15.311-1.124.592-2.962-1.276-5.058-3.615h-.016c-2.7-3.007-5.833-6.775-8.308-6.88-3.176-.137-7.733,8.886-11.637,8.035-3.265-.714-7.139-1.443-10.784-2.612-3.265-1.033-3.752-10.3-7.23-11.681-3.251-1.276-10.436,6.425-13.792,4.907-3.221-1.474-6.942-2.612-10.193-4.284-3.158-1.624-5.362-5.528-8.506-7.321-3.13-1.777-4.163-7.155-7.2-9.068-3.053-1.929-5.62-4.466-8.552-6.518-2.978-2.1-6.441-3.371-9.221-5.558-2.885-2.278-2.475-8.066-5.089-10.42-2.748-2.476-12.592,2.384-14.961-.168-2.552-2.75,2.476-11.6.471-14.385-.107-.137-.2-.289-.289-.425-2.005-2.917-2.658-5.515-4.025-8.446-1.625-3.478-4.314-5.042-4.725-8.4C21.462,72,13.153,66.855,14.4,63.438c1.14-3.13,12.122-.653,14.872-3.524A55.937,55.937,0,0,1,36.348,53.2a41.011,41.011,0,0,1,8.4-4.5c3.281-1.5,4.238-8.445,7.655-9.128,3.433-.669,6.958,7.062,10.543,7.169,3.417.105,6.8-4.816,10.359-4.025,3.31.728,5.847,3.356,9.28,4.662,3.176,1.2,9.494-4.222,12.759-2.552,3.023,1.549,5.165,5.453,8.279,7.383,2.9,1.792,1.169,10.526,4.132,12.652,2.794,1.975,8.627-.228,11.482,2.036s6.775,3.265,9.389,5.726c2.673,2.521,8.051,2.658,10.435,5.331,2.461,2.75-.516,10,1.611,12.852,2.232,2.976.744,7.867,2.582,10.891,1.945,3.189,14.643.47,16.146,3.645,1.6,3.417-1.412,9.037-.379,12.349a60.352,60.352,0,0,1,2.263,10.845c.441,3.843,2.856,8.234,2.278,11.59" transform="translate(6.348 17.586)" fill="#fff"/>
        <path id="Trazado_874920" data-name="Trazado 874920" d="M145.866,147.88c-.578,1.245-2.461,1.64-4.678,1.868h-.016c-2.7-3.007-5.833-6.775-8.308-6.88-3.176-.137-7.731,8.886-11.635,8.035-3.267-.714-7.14-1.443-10.786-2.612-3.265-1.033-3.751-10.3-7.23-11.681-3.251-1.276-10.436,6.425-13.792,4.907-3.221-1.474-6.942-2.612-10.192-4.284-3.16-1.625-5.363-5.529-8.507-7.321-3.128-1.777-4.161-7.155-7.2-9.069s-5.62-4.466-8.552-6.516c-2.978-2.1-6.441-3.372-9.219-5.56-2.887-2.277-2.476-8.065-5.089-10.42-2.75-2.475-12.593,2.385-14.963-.166-2.552-2.749,2.476-11.6.471-14.385-.107-.137-.2-.289-.289-.426.683-.971,1.413-1.913,2.157-2.825,2.2-2.689,3.494-7.033,6.259-9.266,2.718-2.2,9.4,1.579,12.515-.091,2.78-1.474,4.785-11.21,9.009-11.134C59.1,60.1,61.472,71.9,65.36,72.766c3.358.73,9.037-6.44,12.668-5.164,3.312,1.154,7.078,2.37,10.5,3.918,3.265,1.474,3.128,9.844,6.379,11.621,3.174,1.747,10.8-3.889,13.869-1.9s6.668,3.872,9.553,6.076c2.933,2.248,4.664,6.425,7.308,8.855,2.748,2.537,2.809,7.731,5.133,10.42,2.476,2.856,4.086,6.015,5.94,8.977,2.02,3.251,4.343,5.956,5.437,9.266,1.2,3.586-2.37,6.882-2.475,10.452s7.822,9.144,6.2,12.592" transform="translate(11.103 26.713)" fill="#cfefff"/>
        <path id="Trazado_874921" data-name="Trazado 874921" d="M6.012,57.9s27.51-.589,33.621,17.306S49.34,108.9,49.34,108.9s50.209,4.04,73,33.618-7.412,49.579-35.385,49.189c-15.24-.214-46.23-13.438-63.437-56.3A257.694,257.694,0,0,1,12.452,101c-6.286-25.559-6.44-43.1-6.44-43.1" transform="translate(2.674 25.754)" fill="#f1a6aa"/>
        <path id="Trazado_874922" data-name="Trazado 874922" d="M99.279,144.735c-5.1,6.226-20.027,2.433-33.334-8.472s-19.96-24.793-14.857-31.02,20.027-2.433,33.334,8.472,19.96,24.795,14.857,31.02" transform="translate(21.961 45.482)" fill="#f8c9ce"/>
        <path id="Trazado_874923" data-name="Trazado 874923" d="M5.631,57.982s3.855-2.628,6.328,8.24,3.726,17.926,3.726,17.926,1.354,4.015-6.194,3.137c0,0-5.886-15.714-3.861-29.3" transform="translate(2.316 25.668)" fill="#f8c9ce"/>
        <path id="Trazado_874924" data-name="Trazado 874924" d="M14.5,58.856a34.86,34.86,0,0,1,14.911,5.493,22.468,22.468,0,0,1,5.888,5.83,17.2,17.2,0,0,1,1.951,3.791c.475,1.287.893,2.5,1.323,3.754,1.74,4.973,3.232,10.01,4.787,15.026,1.469,5.044,2.917,10.083,4.3,15.158l-2.023-1.6A104.55,104.55,0,0,1,61.057,108.4a112.867,112.867,0,0,1,14.879,4.2,97.529,97.529,0,0,1,14.08,6.308,77.934,77.934,0,0,1,12.674,8.644A119.4,119.4,0,0,0,89.1,120.783a128.543,128.543,0,0,0-14.2-5.012,146.023,146.023,0,0,0-14.625-3.385A114.44,114.44,0,0,0,45.5,110.629l-1.611-.065-.413-1.533L35.3,78.728c-.338-1.248-.692-2.544-1.048-3.741a16.362,16.362,0,0,0-1.407-3.3A20.006,20.006,0,0,0,28.1,66.064a39.937,39.937,0,0,0-13.6-7.208" transform="translate(6.448 26.181)" fill="#e26161"/>
        <path id="Trazado_874925" data-name="Trazado 874925" d="M19.461,85.915A11.011,11.011,0,0,1,17.2,87.728a9.555,9.555,0,0,1-1.994.9,8.67,8.67,0,0,1-1.991.4l-2.724.256a3.794,3.794,0,0,1,.887-3.128A5.558,5.558,0,0,1,13.9,84.5a5.7,5.7,0,0,1,2.864-.137,4.861,4.861,0,0,1,2.7,1.555" transform="translate(4.637 37.472)" fill="#e26161"/>
        <path id="Trazado_874926" data-name="Trazado 874926" d="M8.172,79.141a9.246,9.246,0,0,1,2-1.6,6.29,6.29,0,0,1,1.5-.66,1.263,1.263,0,0,1,.959.02c.321.149.945-.02,1.732-.9A2.245,2.245,0,0,1,15.321,79a3.8,3.8,0,0,1-2.507,2.063,4.2,4.2,0,0,1-2.55-.124,4.09,4.09,0,0,1-2.092-1.8" transform="translate(3.635 33.81)" fill="#e26161"/>
        <path id="Trazado_874927" data-name="Trazado 874927" d="M18.131,111.543q4.161,6.944,8.574,13.594c2.978,4.426,6.048,8.767,9.321,12.944L38.5,141.2c.829,1.036,1.74,2,2.588,3.018l1.283,1.52,1.36,1.449c.923.949,1.781,1.968,2.719,2.9a128.414,128.414,0,0,0,11.965,10.628A60.415,60.415,0,0,1,44.9,151.728a90.067,90.067,0,0,1-11.153-11.866,110.39,110.39,0,0,1-8.964-13.553,85.954,85.954,0,0,1-6.656-14.766" transform="translate(8.065 49.618)" fill="#e26161"/>
        <path id="Trazado_874928" data-name="Trazado 874928" d="M88.622,90.58a7.639,7.639,0,1,1-7.639-7.639,7.639,7.639,0,0,1,7.639,7.639" transform="translate(32.626 36.895)" fill="#fff"/>
        <path id="Trazado_874929" data-name="Trazado 874929" d="M71.36,82.56A3.556,3.556,0,1,1,67.8,79,3.556,3.556,0,0,1,71.36,82.56" transform="translate(28.58 35.143)" fill="#fff"/>
        <path id="Trazado_874930" data-name="Trazado 874930" d="M65.8,55.064a3.556,3.556,0,1,1-3.556-3.556A3.556,3.556,0,0,1,65.8,55.064" transform="translate(26.106 22.912)" fill="#cfefff"/>
        <path id="Trazado_874931" data-name="Trazado 874931" d="M68.039,92.939a4.676,4.676,0,1,1-4.675-4.675,4.675,4.675,0,0,1,4.675,4.675" transform="translate(26.106 39.262)" fill="#fff"/>
        <path id="Trazado_874932" data-name="Trazado 874932" d="M83.473,67.341A4.676,4.676,0,1,1,78.8,62.666a4.677,4.677,0,0,1,4.675,4.675" transform="translate(32.971 27.876)" fill="#cfefff"/>
        <path id="Trazado_874933" data-name="Trazado 874933" d="M98.2,107.839a4.676,4.676,0,1,1-4.677-4.677,4.676,4.676,0,0,1,4.677,4.677" transform="translate(39.52 45.889)" fill="#fff"/>
        <path id="Trazado_874934" data-name="Trazado 874934" d="M36.178,38.073a4.343,4.343,0,1,1-4.343-4.343,4.343,4.343,0,0,1,4.343,4.343" transform="translate(12.229 15.004)" fill="#fff"/>
        <path id="Trazado_874935" data-name="Trazado 874935" d="M17.373,46.9a8.686,8.686,0,1,1-8.686-8.686A8.687,8.687,0,0,1,17.373,46.9" transform="translate(0 17)" fill="#cfefff"/>
        <path id="Trazado_874936" data-name="Trazado 874936" d="M68.039,118.083a4.676,4.676,0,1,1-4.675-4.675,4.676,4.676,0,0,1,4.675,4.675" transform="translate(26.106 50.447)" fill="#fff"/>
        <path id="Trazado_874937" data-name="Trazado 874937" d="M45.578,112.983a4.676,4.676,0,1,1-4.677-4.677,4.676,4.676,0,0,1,4.677,4.677" transform="translate(16.114 48.178)" fill="#fff"/>
        <path id="Trazado_874938" data-name="Trazado 874938" d="M44.3,76.842a3.7,3.7,0,1,1-3.7-3.7,3.7,3.7,0,0,1,3.7,3.7" transform="translate(16.415 32.536)" fill="#fff"/>
        <path id="Trazado_874939" data-name="Trazado 874939" d="M118.209,97.6a6.105,6.105,0,1,1-6.106-6.1,6.106,6.106,0,0,1,6.106,6.1" transform="translate(47.151 40.702)" fill="#cfefff"/>
      </g>
    </g>
    <g id="Enmascarar_grupo_1098681" data-name="Enmascarar grupo 1098681" transform="translate(199.961 2749.624)" clip-path="url(#clip-path-5)">
      <path id="Sustracción_21" data-name="Sustracción 21" d="M94.545,189.09a95.242,95.242,0,0,1-19.054-1.921,94.038,94.038,0,0,1-33.807-14.226,94.817,94.817,0,0,1-34.254-41.6A94.1,94.1,0,0,1,1.921,113.6a95.473,95.473,0,0,1,0-38.108A94.038,94.038,0,0,1,16.147,41.684,94.821,94.821,0,0,1,57.744,7.43,94.054,94.054,0,0,1,75.49,1.921a95.456,95.456,0,0,1,38.108,0,94.027,94.027,0,0,1,33.807,14.226,94.826,94.826,0,0,1,34.254,41.6,94.06,94.06,0,0,1,5.509,17.747,95.456,95.456,0,0,1,0,38.108,94.02,94.02,0,0,1-14.226,33.807,94.815,94.815,0,0,1-41.6,34.254,94.076,94.076,0,0,1-17.747,5.509A95.236,95.236,0,0,1,94.545,189.09Zm0-151.344A57.2,57.2,0,0,0,83.1,38.9a56.494,56.494,0,0,0-20.31,8.546,56.967,56.967,0,0,0-20.579,24.99A56.517,56.517,0,0,0,38.9,83.1a57.352,57.352,0,0,0,0,22.894,56.493,56.493,0,0,0,8.546,20.31,56.962,56.962,0,0,0,24.99,20.579,56.49,56.49,0,0,0,10.662,3.31,57.351,57.351,0,0,0,22.894,0,56.488,56.488,0,0,0,20.31-8.546,56.964,56.964,0,0,0,20.578-24.99,56.5,56.5,0,0,0,3.31-10.662,57.352,57.352,0,0,0,0-22.894,56.484,56.484,0,0,0-8.546-20.309,56.962,56.962,0,0,0-24.99-20.579,56.533,56.533,0,0,0-10.662-3.31A57.194,57.194,0,0,0,94.545,37.746Z" transform="translate(120.494 196.227) rotate(180)" fill="url(#radial-gradient)"/>
    </g>
    <g id="Grupo_1099935" data-name="Grupo 1099935" transform="translate(210.113 2585.504)">
      <g id="Grupo_1099936" data-name="Grupo 1099936">
        <path id="Trazado_874940" data-name="Trazado 874940" d="M258.34,1.035l1.159,13.3c.305,3.507,1.714,6.3,3.552,7.05l4.735,1.923c.689.28.689,2.137,0,2.416l-4.735,1.924c-1.837.746-3.246,3.542-3.552,7.05l-1.159,13.3c-.12,1.379-1.169,1.379-1.289,0l-1.159-13.3c-.305-3.508-1.714-6.3-3.552-7.05l-4.735-1.924c-.688-.279-.688-2.136,0-2.416l4.735-1.923c1.837-.746,3.246-3.543,3.552-7.05l1.159-13.3c.12-1.38,1.169-1.38,1.289,0" transform="translate(-59.098 -92)" fill="#fff"/>
        <path id="Trazado_874941" data-name="Trazado 874941" d="M248.711,49.252l.579,6.652c.153,1.754.857,3.152,1.777,3.525l2.367.962c.345.14.345,1.068,0,1.208l-2.367.961c-.919.373-1.624,1.772-1.777,3.525l-.579,6.652c-.06.69-.584.69-.644,0l-.58-6.652c-.152-1.753-.857-3.152-1.776-3.525l-2.367-.961c-.345-.14-.345-1.068,0-1.208l2.367-.962c.919-.373,1.624-1.771,1.776-3.525l.58-6.652c.06-.69.584-.69.644,0" transform="translate(-58.14 -92)" fill="#fff"/>
        <path id="Trazado_874942" data-name="Trazado 874942" d="M11.25,69.722l1.159,13.3c.305,3.507,1.714,6.3,3.552,7.05L20.7,92c.688.279.688,2.136,0,2.415l-4.735,1.924c-1.837.746-3.246,3.542-3.552,7.05l-1.159,13.3c-.12,1.379-1.169,1.379-1.289,0L8.8,103.389c-.305-3.508-1.714-6.3-3.552-7.05L.516,94.415c-.688-.279-.688-2.136,0-2.415l4.735-1.924C7.089,89.33,8.5,86.533,8.8,83.026l1.159-13.3c.12-1.38,1.169-1.38,1.289,0" transform="translate(23 7)" fill="#fff"/>
      </g>
    </g>
  </g>
</svg>
