<svg xmlns="http://www.w3.org/2000/svg" width="51.697" height="47.09" viewBox="0 0 51.697 47.09">
  <g id="caja" transform="translate(0.001 -22.815)">
    <path id="Rectángulo_401737" data-name="Rectángulo 401737" d="M-7.5-7.5H44.18V3.094H-7.5ZM42.666-5.986H-5.986V1.579H42.666Z" transform="translate(7.516 48.548)" fill="#7c5122"/>
    <path id="Trazado_875001" data-name="Trazado 875001" d="M51.841,394.088H47.2v-1.514h3.129v-7.666H1.675v7.666h40.98v1.514H.161V383.394h51.68Z" transform="translate(-0.145 -324.184)" fill="#7c5122"/>
    <path id="Línea_625" data-name="Línea 625" d="M1.514-5.986H0V-7.5H1.514Z" transform="translate(44.024 75.891)" fill="#7c5122"/>
    <path id="Línea_626" data-name="Línea 626" d="M-5.986,9.083H-7.5V0h1.514Z" transform="translate(9.145 50.885)" fill="#7c5122"/>
    <path id="Línea_627" data-name="Línea 627" d="M-5.986,2.27H-7.5V0h1.514Z" transform="translate(18.53 57.697)" fill="#7c5122"/>
    <path id="Línea_628" data-name="Línea 628" d="M-5.986,5.3H-7.5V0h1.514Z" transform="translate(18.53 50.885)" fill="#7c5122"/>
    <path id="Línea_629" data-name="Línea 629" d="M-5.986,9.083H-7.5V0h1.514Z" transform="translate(27.916 50.885)" fill="#7c5122"/>
    <path id="Línea_630" data-name="Línea 630" d="M-5.986,9.083H-7.5V0h1.514Z" transform="translate(37.302 50.885)" fill="#7c5122"/>
    <path id="Línea_631" data-name="Línea 631" d="M-5.986,9.083H-7.5V0h1.514Z" transform="translate(46.688 50.885)" fill="#7c5122"/>
    <path id="Línea_632" data-name="Línea 632" d="M-5.986,9.083H-7.5V0h1.514Z" transform="translate(56.074 50.885)" fill="#7c5122"/>
    <path id="Elipse_11580" data-name="Elipse 11580" d="M-5.205-7.5A2.3,2.3,0,0,1-2.911-5.205,2.3,2.3,0,0,1-5.205-2.911,2.3,2.3,0,0,1-7.5-5.205,2.3,2.3,0,0,1-5.205-7.5Zm0,3.075a.782.782,0,0,0,.781-.781.782.782,0,0,0-.781-.781.782.782,0,0,0-.781.781A.782.782,0,0,0-5.205-4.425Z" transform="translate(11.378 51.55)" fill="#7c5122"/>
    <path id="Elipse_11581" data-name="Elipse 11581" d="M-5.205-7.5A2.3,2.3,0,0,1-2.911-5.205,2.3,2.3,0,0,1-5.205-2.911,2.3,2.3,0,0,1-7.5-5.205,2.3,2.3,0,0,1-5.205-7.5Zm0,3.075a.782.782,0,0,0,.781-.781.782.782,0,0,0-.781-.781.782.782,0,0,0-.781.781A.782.782,0,0,0-5.205-4.425Z" transform="translate(17.434 51.55)" fill="#7c5122"/>
    <path id="Elipse_11582" data-name="Elipse 11582" d="M-5.205-7.5A2.3,2.3,0,0,1-2.911-5.205,2.3,2.3,0,0,1-5.205-2.911,2.3,2.3,0,0,1-7.5-5.205,2.3,2.3,0,0,1-5.205-7.5Zm0,3.075a.782.782,0,0,0,.781-.781.782.782,0,0,0-.781-.781.782.782,0,0,0-.781.781A.782.782,0,0,0-5.205-4.425Z" transform="translate(44.687 51.55)" fill="#7c5122"/>
    <path id="Elipse_11583" data-name="Elipse 11583" d="M-5.205-7.5A2.3,2.3,0,0,1-2.911-5.205,2.3,2.3,0,0,1-5.205-2.911,2.3,2.3,0,0,1-7.5-5.205,2.3,2.3,0,0,1-5.205-7.5Zm0,3.075a.782.782,0,0,0,.781-.781.782.782,0,0,0-.781-.781.782.782,0,0,0-.781.781A.782.782,0,0,0-5.205-4.425Z" transform="translate(50.744 51.55)" fill="#7c5122"/>
    <path id="Elipse_11584" data-name="Elipse 11584" d="M-5.205-7.5A2.3,2.3,0,0,1-2.911-5.205,2.3,2.3,0,0,1-5.205-2.911,2.3,2.3,0,0,1-7.5-5.205,2.3,2.3,0,0,1-5.205-7.5Zm0,3.075a.782.782,0,0,0,.781-.781.782.782,0,0,0-.781-.781.782.782,0,0,0-.781.781A.782.782,0,0,0-5.205-4.425Z" transform="translate(11.378 69.763)" fill="#7c5122"/>
    <path id="Elipse_11585" data-name="Elipse 11585" d="M-5.205-7.5A2.3,2.3,0,0,1-2.911-5.205,2.3,2.3,0,0,1-5.205-2.911,2.3,2.3,0,0,1-7.5-5.205,2.3,2.3,0,0,1-5.205-7.5Zm0,3.075a.782.782,0,0,0,.781-.781.782.782,0,0,0-.781-.781.782.782,0,0,0-.781.781A.782.782,0,0,0-5.205-4.425Z" transform="translate(17.434 69.763)" fill="#7c5122"/>
    <path id="Elipse_11586" data-name="Elipse 11586" d="M-5.205-7.5A2.3,2.3,0,0,1-2.911-5.205,2.3,2.3,0,0,1-5.205-2.911,2.3,2.3,0,0,1-7.5-5.205,2.3,2.3,0,0,1-5.205-7.5Zm0,3.075a.782.782,0,0,0,.781-.781.782.782,0,0,0-.781-.781.782.782,0,0,0-.781.781A.782.782,0,0,0-5.205-4.425Z" transform="translate(44.687 69.763)" fill="#7c5122"/>
    <path id="Elipse_11587" data-name="Elipse 11587" d="M-5.205-7.5A2.3,2.3,0,0,1-2.911-5.205,2.3,2.3,0,0,1-5.205-2.911,2.3,2.3,0,0,1-7.5-5.205,2.3,2.3,0,0,1-5.205-7.5Zm0,3.075a.782.782,0,0,0,.781-.781.782.782,0,0,0-.781-.781.782.782,0,0,0-.781.781A.782.782,0,0,0-5.205-4.425Z" transform="translate(50.744 69.763)" fill="#7c5122"/>
    <path id="Trazado_875002" data-name="Trazado 875002" d="M298.772,116.529a8.348,8.348,0,0,0-3.846-4.322l.712-1.336a9.863,9.863,0,0,1,4.543,5.106Z" transform="translate(-265.158 -79.169)" fill="#7c5122"/>
    <path id="Trazado_875003" data-name="Trazado 875003" d="M338.642,181.367l-1.5-.234a8.426,8.426,0,0,0-.058-2.925l1.485-.294a9.941,9.941,0,0,1,.069,3.452Z" transform="translate(-303.064 -139.445)" fill="#7c5122"/>
    <path id="Trazado_875004" data-name="Trazado 875004" d="M158.78,121.024a9.938,9.938,0,0,1-.119-1.531,9.829,9.829,0,0,1,5.23-8.7l.71,1.337a8.318,8.318,0,0,0-4.426,7.359,8.419,8.419,0,0,0,.1,1.3Z" transform="translate(-142.647 -79.101)" fill="#7c5122"/>
    <path id="Trazado_875005" data-name="Trazado 875005" d="M202.116,58.576l.536.536a8.222,8.222,0,0,1,1.74,2.711,8.224,8.224,0,0,1,3.117.818l.675.344-.344.675a8.223,8.223,0,0,1-2.041,2.493,8.222,8.222,0,0,1,.185,3.216l-.118.748L205.118,70a8.222,8.222,0,0,1-3-1.17,8.222,8.222,0,0,1-3,1.17l-.748.119-.118-.748a8.222,8.222,0,0,1,.185-3.216,8.223,8.223,0,0,1-2.041-2.493l-.344-.675.675-.344a8.225,8.225,0,0,1,3.117-.818,8.223,8.223,0,0,1,1.74-2.711Zm1.1,4.862-.136-.687a5.175,5.175,0,0,0-.966-1.937,5.093,5.093,0,0,0-.967,1.937l-.136.687-.7-.083a3.052,3.052,0,0,0-.36-.02,5.769,5.769,0,0,0-1.781.341,5.093,5.093,0,0,0,1.543,1.518l.611.342-.293.636a5.176,5.176,0,0,0-.357,2.135,5.094,5.094,0,0,0,1.921-1l.514-.476.514.476a5.092,5.092,0,0,0,1.92,1,5.092,5.092,0,0,0-.356-2.134l-.293-.636.611-.342a5.092,5.092,0,0,0,1.543-1.517,5.06,5.06,0,0,0-2.14-.321Z" transform="translate(-176.26 -32.152)" fill="#7c5122"/>
    <path id="Trazado_875006" data-name="Trazado 875006" d="M330.651,85.482l-1.071-1.071,5.639-5.639a3.785,3.785,0,0,0-5.353-5.353l-5.244,5.244-1.071-1.071,5.244-5.244a5.3,5.3,0,1,1,7.494,7.494Z" transform="translate(-290.894 -43.141)" fill="#7c5122"/>
    <path id="Trazado_875007" data-name="Trazado 875007" d="M57.737,86.853,51.15,81.61a5.273,5.273,0,1,1,7.413-7.391L62.849,79.6l-1.185.943-4.3-5.4a3.759,3.759,0,1,0-5.288,5.266l6.6,5.252Z" transform="translate(-44.172 -44.39)" fill="#7c5122"/>
    <path id="Trazado_875008" data-name="Trazado 875008" d="M428.586,37.134a2.271,2.271,0,0,1,1.606,3.877l-3.747,3.747-3.212-3.212L426.98,37.8A2.256,2.256,0,0,1,428.586,37.134Zm-2.141,5.483,2.677-2.677a.757.757,0,1,0-1.071-1.071l-2.677,2.677Z" transform="translate(-380.514 -12.874)" fill="#7c5122"/>
    <path id="Trazado_875009" data-name="Trazado 875009" d="M414.843,28.881l-1.462-.392,1.01-3.769a2.271,2.271,0,0,1,4.387,1.176l-.209.78-1.462-.392.209-.78a.757.757,0,0,0-1.462-.392Z" transform="translate(-371.656 -0.199)" fill="#7c5122"/>
    <path id="Trazado_875010" data-name="Trazado 875010" d="M454.652,73.05l-.392-1.462,3.769-1.01a.757.757,0,1,0-.392-1.462l-.78.209-.392-1.462.78-.209a2.271,2.271,0,1,1,1.175,4.387Z" transform="translate(-408.409 -40.243)" fill="#7c5122"/>
    <path id="Trazado_875011" data-name="Trazado 875011" d="M30.609,56.55a2.926,2.926,0,0,1-2.012-.86c-1.252-1.253-1.325-4.368-1.329-4.719l-.009-.788.788.023c.581.017,3.538.16,4.706,1.328a2.92,2.92,0,0,1,.861,2.078H32.1a1.416,1.416,0,0,0-.417-1.008,5.885,5.885,0,0,0-2.854-.829,5.605,5.605,0,0,0,.839,2.844,1.418,1.418,0,0,0,.975.417Z" transform="translate(-24.508 -24.606)" fill="#7c5122"/>
    <path id="Trazado_875012" data-name="Trazado 875012" d="M4.674,87.674a2.942,2.942,0,0,1-.762-.1C2.2,87.115.581,84.453.4,84.151L0,83.473.693,83.1a13.408,13.408,0,0,1,3.084-1.178L4.085,83.4a9.981,9.981,0,0,0-1.928.667A5.6,5.6,0,0,0,4.3,86.111,1.422,1.422,0,0,0,5.32,86l.688,1.349A2.934,2.934,0,0,1,4.674,87.674Z" transform="translate(0 -53.14)" fill="#7c5122"/>
    <path id="Trazado_875013" data-name="Trazado 875013" d="M64.539,28.823l-1.349-.688a1.422,1.422,0,0,0,.107-1.016,5.6,5.6,0,0,0-2.041-2.145,9.994,9.994,0,0,0-.667,1.927l-1.482-.308a13.4,13.4,0,0,1,1.178-3.084l.374-.694.678.4c.3.179,2.964,1.8,3.423,3.51A2.934,2.934,0,0,1,64.539,28.823Z" transform="translate(-53.141)" fill="#7c5122"/>
    <path id="Línea_633" data-name="Línea 633" d="M-2.108-1.038l-3.2-3.2L-4.233-5.3l3.2,3.2Z" transform="translate(43.205 34.511)" fill="#7c5122"/>
    <path id="Línea_634" data-name="Línea 634" d="M-3.233-2.163-5.3-4.233-4.233-5.3l2.07,2.07Z" transform="translate(42.134 39.864)" fill="#7c5122"/>
    <path id="Línea_635" data-name="Línea 635" d="M-4.233-3.162-5.3-4.233-4.233-5.3l1.071,1.071Z" transform="translate(13.428 38.376)" fill="#7c5122"/>
    <path id="Trazado_875014" data-name="Trazado 875014" d="M17.733,154.2H16.219a3.828,3.828,0,0,1,3.066-3.746,3.037,3.037,0,0,1,1.857-2.726l.59,1.394a1.528,1.528,0,0,0-.878,1.815l.27.984-1.02-.026A2.322,2.322,0,0,0,17.733,154.2Z" transform="translate(-14.582 -112.304)" fill="#7c5122"/>
    <path id="Trazado_875015" data-name="Trazado 875015" d="M138.548,72.4l-1.483-.3a4.544,4.544,0,0,1,8.752-.553l-1.433.489a3.03,3.03,0,0,0-5.835.367Z" transform="translate(-123.23 -41.047)" fill="#7c5122"/>
    <path id="Trazado_875016" data-name="Trazado 875016" d="M295.673,72.4a3.03,3.03,0,0,0-5.835-.367l-1.433-.489a4.544,4.544,0,0,1,8.752.553Z" transform="translate(-259.295 -41.047)" fill="#7c5122"/>
    <path id="Trazado_875017" data-name="Trazado 875017" d="M447.037,154.2h-1.514a2.31,2.31,0,0,0-2.307-2.307h-.993l.18-.956a1.529,1.529,0,0,0-.878-1.815l.59-1.394a3.037,3.037,0,0,1,1.857,2.726A3.828,3.828,0,0,1,447.037,154.2Z" transform="translate(-396.958 -112.304)" fill="#7c5122"/>
    <path id="Línea_636" data-name="Línea 636" d="M-5.986,1.514H-7.5V0h1.514Z" transform="translate(12.194 53.156)" fill="#7c5122"/>
    <path id="Línea_637" data-name="Línea 637" d="M-5.986,1.514H-7.5V0h1.514Z" transform="translate(29.57 45.588)" fill="#7c5122"/>
    <path id="Línea_638" data-name="Línea 638" d="M-5.986,1.514H-7.5V0h1.514Z" transform="translate(32.599 45.588)" fill="#7c5122"/>
    <path id="Línea_639" data-name="Línea 639" d="M-5.986,1.514H-7.5V0h1.514Z" transform="translate(35.627 45.588)" fill="#7c5122"/>
  </g>
</svg>
