<svg id="pueden" xmlns="http://www.w3.org/2000/svg" width="48.234" height="48.234" viewBox="0 0 48.234 48.234">
  <g id="Grupo_1099961" data-name="Grupo 1099961" transform="translate(0)">
    <path id="Trazado_875010" data-name="Trazado 875010" d="M187.9,330.323h-4.668a1.558,1.558,0,0,0-1.556,1.556v1.556a1.558,1.558,0,0,0,1.556,1.556H187.9a1.558,1.558,0,0,0,1.556-1.556v-1.556A1.558,1.558,0,0,0,187.9,330.323Zm0,3.112h-4.668v-1.556H187.9v1.556Z" transform="translate(-164.563 -299.204)" fill="#7c5122"/>
    <path id="Trazado_875011" data-name="Trazado 875011" d="M178.209,297.29H150.2a1.558,1.558,0,0,0-1.556,1.556v7.78a1.558,1.558,0,0,0,1.556,1.556h28.007a1.558,1.558,0,0,0,1.556-1.556v-7.78A1.558,1.558,0,0,0,178.209,297.29Zm0,9.336H150.2v-7.78h28.007v7.78Z" transform="translate(-134.642 -269.283)" fill="#7c5122"/>
    <path id="Trazado_875012" data-name="Trazado 875012" d="M45.122,24.973V6.224A2.853,2.853,0,0,0,43.566,3.9s0-.008,0-.012C43.567,1.217,37.517,0,31.9,0s-11.67,1.217-11.67,3.89c0,0,0,.008,0,.012a2.853,2.853,0,0,0-1.556,2.322V8.856a25.273,25.273,0,0,0-7.78-1.076,26.137,26.137,0,0,0-7.38.946C.609,9.619,0,10.819,0,11.67V41.233c0,.85.609,2.051,3.511,2.944a26.141,26.141,0,0,0,7.38.946h.078a3.9,3.9,0,0,0,3.812,3.112H44.345a3.894,3.894,0,0,0,3.89-3.89V28.785A3.9,3.9,0,0,0,45.122,24.973ZM31.9,24.117a.778.778,0,1,1,.778.778A.779.779,0,0,1,31.9,24.117Zm.778-2.334a2.333,2.333,0,0,0-2.2,3.112H23.339V14.781A.779.779,0,0,1,24.117,14H39.677a.779.779,0,0,1,.778.778V24.9h-5.58a2.333,2.333,0,0,0-2.2-3.112Zm7-9.336H24.117a2.337,2.337,0,0,0-2.334,2.334V24.9H20.227V8.545c2.351,1.548,7.03,2.347,11.67,2.347s9.318-.8,11.67-2.347V24.9H42.011V14.781A2.337,2.337,0,0,0,39.677,12.448Zm-28.785,24.9a3.89,3.89,0,0,1,0-7.78v7.78ZM8.558,28.007a2.338,2.338,0,0,1-2.2-1.556H7.78a2.338,2.338,0,0,1,2.2,1.556Zm2.723-.916a3.894,3.894,0,0,0-3.5-2.2H4.668v.778a3.9,3.9,0,0,0,2.641,3.683A5.442,5.442,0,0,0,10.892,38.9v1.556a9.336,9.336,0,1,1,6.96-15.56H14.781A3.9,3.9,0,0,0,11.281,27.091ZM24.409,2.438A28.493,28.493,0,0,1,31.9,1.556a28.5,28.5,0,0,1,7.488.882c2.144.612,2.626,1.27,2.626,1.452s-.441.781-2.346,1.369c-.149-1.236-1.765-2.147-3.877-2.147-2.218,0-3.89,1-3.89,2.334a1.626,1.626,0,0,0,.2.777h-.2a28.5,28.5,0,0,1-7.488-.882c-2.144-.612-2.626-1.27-2.626-1.452S22.266,3.05,24.409,2.438ZM34.728,6.115c-.939-.2-1.275-.585-1.275-.669,0-.194.828-.778,2.334-.778s2.334.584,2.334.778c0,.027-.057.127-.224.25A27.854,27.854,0,0,1,34.728,6.115Zm-13.822-.79C22.639,7,27.4,7.78,31.9,7.78S41.155,7,42.888,5.325c.433.317.679.636.679.9,0,.517-.958,1.339-3.1,2.008a29.967,29.967,0,0,1-8.57,1.1,29.967,29.967,0,0,1-8.57-1.1c-2.141-.669-3.1-1.491-3.1-2.008C20.227,5.961,20.474,5.642,20.906,5.325ZM3.969,10.213a24.568,24.568,0,0,1,6.923-.877,22.465,22.465,0,0,1,7.78,1.18v2.307A22.466,22.466,0,0,1,10.892,14h-.2a1.62,1.62,0,0,0,.2-.777c0-1.33-1.672-2.334-3.89-2.334-2,0-3.555.816-3.842,1.951-1.161-.464-1.6-.935-1.6-1.173C1.556,11.382,2.2,10.757,3.969,10.213Zm.769,3.126a.265.265,0,0,1-.07-.114c0-.194.828-.778,2.334-.778s2.334.584,2.334.778c0,.081-.322.453-1.218.657A22.46,22.46,0,0,1,4.738,13.339Zm-3.182.455a9.3,9.3,0,0,0,1.955.82,26.141,26.141,0,0,0,7.38.946,25.273,25.273,0,0,0,7.78-1.076v1.452a22.466,22.466,0,0,1-7.78,1.18,24.567,24.567,0,0,1-6.923-.877c-1.77-.545-2.413-1.17-2.413-1.457v-.988Zm0,3.112a9.3,9.3,0,0,0,1.955.82,26.141,26.141,0,0,0,7.38.946,25.276,25.276,0,0,0,7.78-1.076v5.9a10.891,10.891,0,0,0-17.115,2.02V16.906ZM3.969,42.689c-1.77-.545-2.413-1.17-2.413-1.457V36.723a10.9,10.9,0,0,0,9.336,5.287v1.556A24.571,24.571,0,0,1,3.969,42.689Zm8.479,1.655V41.23a3.869,3.869,0,0,0,2.334.78h.778v4.668h-.778A2.336,2.336,0,0,1,12.448,44.345Zm29.563-2.334v4.668H40.455V42.011ZM38.9,46.678H35.787V42.011H38.9Zm-4.668,0H32.675V42.011h1.556Zm-3.112,0H28.007V42.011h3.112v4.668Zm-4.668,0H24.9V42.011h1.556Zm-3.112,0H20.227V42.011h3.112Zm-4.668,0H17.115V42.011h1.556Zm25.673,0h-.778V42.011h.778a3.869,3.869,0,0,0,2.334-.78v3.114A2.336,2.336,0,0,1,44.345,46.678Zm2.334-8.558a2.336,2.336,0,0,1-2.334,2.334H14.781a2.336,2.336,0,0,1-2.334-2.334V28.785a2.336,2.336,0,0,1,2.334-2.334H44.345a2.336,2.336,0,0,1,2.334,2.334v9.336Z" transform="translate(0)" fill="#7c5122"/>
    <path id="Trazado_875013" data-name="Trazado 875013" d="M266.592,165.161a2.334,2.334,0,1,0,2.334,2.334A2.337,2.337,0,0,0,266.592,165.161Zm0,3.112a.778.778,0,1,1,.778-.778A.779.779,0,0,1,266.592,168.273Z" transform="translate(-239.363 -149.602)" fill="#7c5122"/>
    <path id="Trazado_875014" data-name="Trazado 875014" d="M368.023,184.012a2.334,2.334,0,1,0-2.334,2.334A2.337,2.337,0,0,0,368.023,184.012Zm-3.112,0a.778.778,0,1,1,.778.778A.779.779,0,0,1,364.911,184.012Z" transform="translate(-329.124 -164.563)" fill="#7c5122"/>
  </g>
</svg>
