<svg xmlns="http://www.w3.org/2000/svg" width="47.56" height="65.105" viewBox="0 0 47.56 65.105">
  <g id="pasos" transform="translate(-68.982 0)">
    <path id="Trazado_875015" data-name="Trazado 875015" d="M117.921,276.991a1.531,1.531,0,0,0-1.6-1.094L103.713,277a1.53,1.53,0,0,0-1.383,1.355l-.283,2.574a15.061,15.061,0,0,0,.49,5.8,8.545,8.545,0,0,0,8.186,6.209q.366,0,.736-.032a8.532,8.532,0,0,0,7.713-7.631,15.061,15.061,0,0,0-.527-5.8Zm-12.838,10.844a6.659,6.659,0,0,1-.71-1.627l-.013-.047,12.922-1.129c0,.016,0,.033,0,.049a6.658,6.658,0,0,1-.416,1.725Zm-1.218-5.222L117.14,281.4a13.106,13.106,0,0,1,.193,1.717l-13.359,1.167A13.13,13.13,0,0,1,103.865,282.613Zm12.312-4.788.5,1.7-12.68,1.163.2-1.814Zm-4.883,13.184q-.287.025-.57.025a6.575,6.575,0,0,1-4.07-1.421l8.967-.783a6.559,6.559,0,0,1-4.327,2.179Z" transform="translate(-28.781 -240.807)" fill="#7c5122"/>
    <path id="Trazado_875016" data-name="Trazado 875016" d="M74.468,33.271q.07,0,.14-.006l12.743-1.113A1.592,1.592,0,0,0,88.8,30.62l.731-15.078c0-.007,0-.015,0-.022a29.226,29.226,0,0,0-.928-8.085A9.992,9.992,0,0,0,79.319,0a.954.954,0,0,0-.063,1.906A8.012,8.012,0,0,1,83.772,3.5l-10.628.929a7.989,7.989,0,0,1,2.217-1.66.954.954,0,0,0-.86-1.7,9.991,9.991,0,0,0-5.428,8.08,29.23,29.23,0,0,0,.492,8.123l0,.021,3.341,14.722a1.592,1.592,0,0,0,1.557,1.263ZM87.011,8.959q.211.966.35,1.944L70.9,12.341q-.031-.957,0-1.916ZM73.423,25.645,87.2,24.384l-.1,1.982L73.85,27.524Zm-1.718-7.57,5.919-.539a.954.954,0,0,0-.173-1.9l-6.146.559q-.171-.971-.272-1.951L87.566,12.8q.069.953.071,1.91l-5.754.524a.954.954,0,0,0,.085,1.9q.043,0,.087,0l5.517-.5-.1,1.982L72.132,19.954Zm.853,3.757,14.826-1.3-.093,1.924L73,23.768Zm2.158,9.509-.44-1.939L87.008,28.29l-.1,1.986Zm10.8-26.082A7.963,7.963,0,0,1,86.5,7.09L71.08,8.494a8,8,0,0,1,.665-2.032Z" transform="translate(0 0)" fill="#7c5122"/>
    <path id="Trazado_875017" data-name="Trazado 875017" d="M290.9,380.354A1.53,1.53,0,0,0,289.517,379l-12.611-1.1a1.534,1.534,0,0,0-1.6,1.094l-.726,2.486a15.064,15.064,0,0,0-.527,5.8,8.532,8.532,0,0,0,7.713,7.631q.37.032.736.032a8.546,8.546,0,0,0,8.186-6.209,15.063,15.063,0,0,0,.49-5.8Zm-8.755,7.22,6.727.588a6.638,6.638,0,0,1-.722,1.674l-11.779-1.029a6.635,6.635,0,0,1-.42-1.774l1.761.154a.954.954,0,1,0,.166-1.9l-1.979-.173a13.1,13.1,0,0,1,.193-1.717l13.276,1.217a13.107,13.107,0,0,1-.109,1.667l-6.946-.607a.954.954,0,0,0-.166,1.9Zm-5.091-7.749,11.984,1.047.2,1.814-12.68-1.163Zm4.883,13.184a6.56,6.56,0,0,1-4.326-2.179l8.966.783A6.564,6.564,0,0,1,281.936,393.009Z" transform="translate(-178.925 -329.836)" fill="#7c5122"/>
    <path id="Trazado_875018" data-name="Trazado 875018" d="M301.744,111.11a9.944,9.944,0,0,0-19.536-1.707,29.225,29.225,0,0,0-.928,8.085c0,.007,0,.015,0,.022l.731,15.078a1.591,1.591,0,0,0,1.453,1.532l4.143.362a.954.954,0,1,0,.166-1.9l-3.87-.338-.1-1.986,12.732,1.112-.44,1.939-3.892-.34a.954.954,0,0,0-.166,1.9l4.165.364a1.594,1.594,0,0,0,1.7-1.257l3.341-14.722,0-.021a29.23,29.23,0,0,0,.492-8.123Zm-16.45-3.884,13.791,1.205a8,8,0,0,1,.653,2.031l-15.42-1.4A8.013,8.013,0,0,1,285.294,107.226Zm13.392,14.7-15.345-1.341-.1-1.982,15.868,1.444Zm-15.506-5.244q0-.957.071-1.91l16.533,1.444q-.1.979-.272,1.951Zm16.728-4.285q.036.959.005,1.916l-16.457-1.438q.14-.978.35-1.944ZM283.434,122.5l14.826,1.3-.439,1.936-14.293-1.308Zm9.1-18.6a8.019,8.019,0,0,1,5.157,2.492l-10.669-.932A8.018,8.018,0,0,1,292.534,103.9Zm-8.817,24.433-.1-1.982,13.774,1.26-.427,1.88Z" transform="translate(-185.294 -88.997)" fill="#7c5122"/>
  </g>
</svg>
