<svg xmlns="http://www.w3.org/2000/svg" width="81" height="81" viewBox="0 0 81 81">
  <g id="Grupo_1099598" data-name="Grupo 1099598" transform="translate(-1255.333 -197)">
    <g id="Elipse_11505" data-name="Elipse 11505" transform="translate(1255.333 197)" fill="#f8fbf9" stroke="#869a8a" stroke-width="5">
      <circle cx="40.5" cy="40.5" r="40.5" stroke="none"/>
      <circle cx="40.5" cy="40.5" r="38" fill="none"/>
    </g>
    <g id="reshot-icon-diet-7SD8YTBQCV" transform="translate(1274.733 214.326)">
      <path id="Trazado_873635" data-name="Trazado 873635" d="M422.555,9.1V24.861H415.2V9.1a1.6,1.6,0,0,1,1.6-1.6h4.16A1.6,1.6,0,0,1,422.555,9.1Z" transform="translate(-380.975 -6.882)" fill="#eacc8f"/>
      <path id="Trazado_873636" data-name="Trazado 873636" d="M419.2,9.1V24.861h-4V9.1a1.6,1.6,0,0,1,1.6-1.6h4A1.6,1.6,0,0,0,419.2,9.1Z" transform="translate(-380.975 -6.882)" fill="#d8b77c"/>
      <path id="Trazado_873637" data-name="Trazado 873637" d="M232.154,7.5a1.6,1.6,0,0,0-1.6,1.6V41.771a.931.931,0,0,1-.931.931h0a.931.931,0,0,1-.784-.429l-.1-.156a1.467,1.467,0,0,0-2.471,0l-.1.156a.931.931,0,0,1-.784.429h-.261a.931.931,0,0,1-.784-.429h0a1.467,1.467,0,0,0-2.471,0h0a.931.931,0,0,1-.784.429h-.261a.931.931,0,0,1-.784-.429h0a1.467,1.467,0,0,0-2.471,0h0a.931.931,0,0,1-.784.429h-.261a.931.931,0,0,1-.784-.429l-.1-.156a1.467,1.467,0,0,0-2.471,0l-.1.156a.931.931,0,0,1-.784.429h0a.931.931,0,0,1-.931-.931V9.1a1.6,1.6,0,0,1,1.6-1.6h19.2Z" transform="translate(-193.934 -6.882)" fill="#f9e1a2"/>
      <path id="Trazado_873638" data-name="Trazado 873638" d="M37.53,296.235l-1.181,7.677a5.465,5.465,0,0,1-5.4,4.634h0a5.445,5.445,0,0,1-3.706-1.449,5.445,5.445,0,0,1-3.706,1.449h0a5.465,5.465,0,0,1-5.4-4.634l-1.181-7.677a4.591,4.591,0,0,1,4.538-5.29h.623a6.87,6.87,0,0,1,5.128,2.29,6.87,6.87,0,0,1,5.128-2.29h.623A4.592,4.592,0,0,1,37.53,296.235Z" transform="translate(-15.505 -266.966)" fill="#f24f43"/>
      <path id="Trazado_873639" data-name="Trazado 873639" d="M187.565,298.157l-1.181,7.677a5.465,5.465,0,0,1-5.4,4.634h0a5.534,5.534,0,0,1-.572-.03,6.308,6.308,0,0,0,3.409-4.681l1.364-8.864a5.27,5.27,0,0,0-.9-3.853A4.594,4.594,0,0,1,187.565,298.157Z" transform="translate(-165.541 -268.888)" fill="#ed322e"/>
      <path id="Trazado_873640" data-name="Trazado 873640" d="M16.86,151.964h0a4.68,4.68,0,0,1-4.68,4.68h0a4.68,4.68,0,0,1-4.68-4.68v-4.68h4.68A4.68,4.68,0,0,1,16.86,151.964Z" transform="translate(-6.882 -135.145)" fill="#8eb55e"/>
      <path id="Trazado_873641" data-name="Trazado 873641" d="M30,17.019a.618.618,0,0,1,.618-.618H31.2v-.582a.618.618,0,1,1,1.236,0V16.4h.582a.618.618,0,0,1,0,1.236h-.582v.582a.618.618,0,0,1-1.236,0v-.582H30.62A.618.618,0,0,1,30,17.019ZM25.419,18.4h-4.8a.618.618,0,1,0,0,1.236h4.8a.618.618,0,1,0,0-1.236ZM28,30.58v.08a.618.618,0,0,0,1.236,0v-.08a.618.618,0,1,0-1.236,0ZM17.419,22.237a.618.618,0,0,0,.618-.618V2.218a.983.983,0,0,1,.982-.982H31.153a.618.618,0,0,0,0-1.236H19.019A2.221,2.221,0,0,0,16.8,2.218v19.4A.618.618,0,0,0,17.419,22.237Zm16,9.041a.618.618,0,0,0,.618-.618v-.08a.618.618,0,1,0-1.236,0v.08A.618.618,0,0,0,33.42,31.278ZM31.82,9.6a.618.618,0,0,0-.618.618V10.8H30.62a.618.618,0,0,0,0,1.236H31.2v.582a.618.618,0,1,0,1.236,0v-.582h.582a.618.618,0,0,0,0-1.236h-.582v-.582A.618.618,0,0,0,31.82,9.6Zm.618,14.219v-.582h.582a.618.618,0,0,0,0-1.236h-.582v-.582a.618.618,0,0,0-1.236,0V22H30.62a.618.618,0,0,0,0,1.236H31.2v.582a.618.618,0,1,0,1.236,0ZM31.2,4.618V5.2H30.62a.618.618,0,0,0,0,1.236H31.2v.582a.618.618,0,1,0,1.236,0V6.437h.582a.618.618,0,0,0,0-1.236h-.582V4.618a.618.618,0,1,0-1.236,0ZM30.4,30.58v.08a.618.618,0,0,0,1.236,0v-.08a.618.618,0,1,0-1.236,0ZM39.98,0H33.366a.618.618,0,0,0,0,1.236h2.865A2.205,2.205,0,0,0,36,2.218V34.889a.313.313,0,0,1-.576.169l-.1-.156a2.085,2.085,0,0,0-3.513,0l-.1.156a.311.311,0,0,1-.263.144h-.261a.311.311,0,0,1-.263-.144,2.085,2.085,0,0,0-3.512,0,.311.311,0,0,1-.263.144h-.261a.311.311,0,0,1-.263-.144,2.085,2.085,0,0,0-3.512,0,.311.311,0,0,1-.263.144.618.618,0,1,0,0,1.236,1.542,1.542,0,0,0,1.3-.714.849.849,0,0,1,1.43,0,1.542,1.542,0,0,0,1.3.714h.261a1.542,1.542,0,0,0,1.3-.714.849.849,0,0,1,1.43,0,1.542,1.542,0,0,0,1.3.714h.261a1.542,1.542,0,0,0,1.3-.714l.1-.156a.849.849,0,0,1,1.43,0l.1.156a1.549,1.549,0,0,0,2.853-.835V2.218a.983.983,0,0,1,.982-.982h1.76a.983.983,0,0,1,.982.982V17.361H38.62a.618.618,0,1,0,0,1.236h2.96a.618.618,0,0,0,.618-.618V2.218A2.221,2.221,0,0,0,39.98,0ZM27.019,5.2h-6.4a.618.618,0,1,0,0,1.236h6.4a.618.618,0,0,0,0-1.236Zm-6.4,3.236h3.2a.618.618,0,1,0,0-1.236h-3.2a.618.618,0,1,0,0,1.236Zm2.016,20.926L21.455,37.04a6.087,6.087,0,0,1-7.969,4.837.618.618,0,1,1,.4-1.171,4.851,4.851,0,0,0,6.35-3.854l1.181-7.677A3.973,3.973,0,0,0,17.486,24.6h-.623A6.28,6.28,0,0,0,12.2,26.682a.618.618,0,0,1-.92,0A6.279,6.279,0,0,0,6.608,24.6H5.985a3.973,3.973,0,0,0-3.927,4.578l1.181,7.677a4.846,4.846,0,0,0,8.078,2.825.618.618,0,0,1,.839.908A6.083,6.083,0,0,1,2.017,37.04L.836,29.363a5.21,5.21,0,0,1,5.149-6h.623a7.516,7.516,0,0,1,4.529,1.521l.013-1.338L8.58,20.975A5.3,5.3,0,0,1,0,16.819v-4.68a.618.618,0,0,1,.618-.618H5.3A5.3,5.3,0,0,1,9.455,20.1l1.712,1.712.034-3.6a2.218,2.218,0,0,1,4.436.006.618.618,0,0,1-1.236,0,.982.982,0,0,0-1.964,0l-.063,6.635a7.516,7.516,0,0,1,4.49-1.492h.623a5.21,5.21,0,0,1,5.149,6ZM9.36,16.819A4.067,4.067,0,0,0,5.3,12.757H1.236v4.062A4.06,4.06,0,0,0,7.7,20.094L3.061,15.456a.618.618,0,0,1,.874-.874L8.573,19.22A4.04,4.04,0,0,0,9.36,16.819ZM3.28,28.78a.618.618,0,1,0,1.236,0A1.784,1.784,0,0,1,6.3,27a.618.618,0,1,0,0-1.236A3.022,3.022,0,0,0,3.28,28.78ZM20.619,14.037h3.2a.618.618,0,1,0,0-1.236h-3.2a.618.618,0,1,0,0,1.236Zm7.018,2.982a.618.618,0,0,0-.618-.618h-6.4a.618.618,0,1,0,0,1.236h6.4A.618.618,0,0,0,27.638,17.019ZM27.019,10.8h-6.4a.618.618,0,1,0,0,1.236h6.4a.618.618,0,0,0,0-1.236ZM25.419,22h-4.8a.618.618,0,1,0,0,1.236h4.8a.618.618,0,1,0,0-1.236Z"/>
    </g>
  </g>
</svg>
