<svg xmlns="http://www.w3.org/2000/svg" width="87" height="87" viewBox="0 0 87 87">
  <g id="Grupo_1099597" data-name="Grupo 1099597" transform="translate(-955.333 -165)">
    <g id="Elipse_11504" data-name="Elipse 11504" transform="translate(955.333 165)" fill="#869a8a" stroke="#fff" stroke-width="5">
      <circle cx="43.5" cy="43.5" r="43.5" stroke="none"/>
      <circle cx="43.5" cy="43.5" r="41" fill="none"/>
    </g>
    <g id="reshot-icon-canned-food-XF8KZLVAYM" transform="translate(940.92 184.005)">
      <path id="Trazado_873617" data-name="Trazado 873617" d="M169.485,134.648v28.783a5.741,5.741,0,0,1-5.741,5.741H147.428a5.741,5.741,0,0,1-5.741-5.741V134.648a.957.957,0,0,1,.957-.957h25.884A.957.957,0,0,1,169.485,134.648Z" transform="translate(-97.835 -120.899)" fill="#c1e9fd"/>
      <path id="Trazado_873618" data-name="Trazado 873618" d="M358.2,134.62V163.6a5.566,5.566,0,0,1-5.56,5.573h-2.27a5.566,5.566,0,0,0,5.56-5.573V134.62a.928.928,0,0,0-.927-.929h2.27A.928.928,0,0,1,358.2,134.62Z" transform="translate(-286.555 -120.899)" fill="#a4e0f7"/>
      <path id="Trazado_873619" data-name="Trazado 873619" d="M169.485,230.762v20.62a5.566,5.566,0,0,1-5.56,5.573H147.247a5.566,5.566,0,0,1-5.56-5.573v-20.62Z" transform="translate(-97.835 -208.682)" fill="#fec76b"/>
      <path id="Trazado_873620" data-name="Trazado 873620" d="M358.2,230.762v20.62a5.566,5.566,0,0,1-5.56,5.573h-2.27a5.566,5.566,0,0,0,5.56-5.573v-20.62Z" transform="translate(-286.555 -208.682)" fill="#fcb54f"/>
      <path id="Trazado_873621" data-name="Trazado 873621" d="M186.147,210.929a3.706,3.706,0,1,1,3.706,3.715A3.711,3.711,0,0,1,186.147,210.929Zm12.972-1.858a3.715,3.715,0,1,0-3.706-3.715A3.711,3.711,0,0,0,199.12,209.071Zm1.122,14.123a3.708,3.708,0,0,0-6.218-4.027,3.709,3.709,0,0,0-6.218,4.027,3.715,3.715,0,1,0,3.206,5.875,3.7,3.7,0,0,0,6.023,0,3.71,3.71,0,1,0,3.206-5.875Z" transform="translate(-136.365 -182.347)" fill="#fbb03b"/>
      <path id="Trazado_873622" data-name="Trazado 873622" d="M216.406,210.929a3.715,3.715,0,0,0-2.642-3.559,3.715,3.715,0,1,1,0,7.118A3.715,3.715,0,0,0,216.406,210.929Zm6.624-2.014a3.715,3.715,0,1,0,0-7.118,3.718,3.718,0,0,1,0,7.118Zm2.186,14.279h0a3.71,3.71,0,0,0-4.27-5.422,3.718,3.718,0,0,1,.873,6.725A3.691,3.691,0,0,0,219,223.19c-.08,0-.16,0-.239.009l.044,0a3.717,3.717,0,0,1,.194-4.027,3.7,3.7,0,0,0-4.076-1.394,3.718,3.718,0,0,1,.873,6.725,3.7,3.7,0,0,0-3.885-1.152,3.718,3.718,0,0,1,0,7.118,3.7,3.7,0,0,0,4.076-1.394,3.717,3.717,0,0,1-.183-4.046c.034-.059.07-.117.108-.173l.01-.014a3.063,3.063,0,1,1,2.013,5.628,3.7,3.7,0,0,0,4.076-1.394,3.717,3.717,0,0,1-.184-4.046c.036-.061.123-.195.128-.2a3.066,3.066,0,1,1,2,5.642,3.714,3.714,0,1,0,1.259-7.27Z" transform="translate(-161.339 -182.347)" fill="#f99a1e"/>
      <path id="Trazado_873623" data-name="Trazado 873623" d="M137.676,47.731a1.045,1.045,0,0,1,.435.849h0a1.043,1.043,0,0,1-1.042,1.044h-7.542l-2.78-2.786-2.78,2.786h-6.936l-2.78-2.786-2.78,2.786h-7.542a1.043,1.043,0,0,1-1.042-1.044h0a1.045,1.045,0,0,1,.435-.849l6.422-4.608h.012v-6.5h21.486v6.5h.012Z" transform="translate(-62.749 -33.117)" fill="#ffd691"/>
      <path id="Trazado_873624" data-name="Trazado 873624" d="M382.528,48.58a1.043,1.043,0,0,1-1.042,1.044h-1.179l-7.14-5.772V36.621h2.493v6.5h.012l6.422,4.608A1.045,1.045,0,0,1,382.528,48.58Z" transform="translate(-307.166 -33.117)" fill="#fec76b"/>
      <path id="Trazado_873625" data-name="Trazado 873625" d="M188.278,8.457v3.659a.957.957,0,0,1-.957.957H165.885a.957.957,0,0,1-.957-.957V8.457a.957.957,0,0,1,.957-.957h21.437A.957.957,0,0,1,188.278,8.457Z" transform="translate(-118.852 -6.782)" fill="#e6f2e9"/>
      <path id="Trazado_873626" data-name="Trazado 873626" d="M376.514,8.429v3.715a.928.928,0,0,1-.927.929h-2.507V7.5h2.507A.928.928,0,0,1,376.514,8.429Z" transform="translate(-307.088 -6.782)" fill="#ed322e"/>
      <path id="Trazado_873627" data-name="Trazado 873627" d="M75.349,14.032l-6.106-4.4v-2.8a1.677,1.677,0,0,0,.928-1.5V1.674A1.676,1.676,0,0,0,68.5,0H47.166a1.676,1.676,0,0,0-1.674,1.674V5.334a1.677,1.677,0,0,0,.928,1.5v.154L43.134,5.332a2.8,2.8,0,0,0-2.748.118,2.849,2.849,0,0,0,1.49,5.273h1.142l-9.043,3.251a.718.718,0,0,0,.486,1.351l8.1-2.913-2.251,1.62a1.763,1.763,0,0,0,1.023,3.193h1.941V42.7a6.278,6.278,0,0,0,6.252,6.291h16.6A6.279,6.279,0,0,0,72.385,42.7V17.225h1.941a1.763,1.763,0,0,0,1.023-3.193ZM46.927,1.674a.24.24,0,0,1,.239-.239H68.5a.24.24,0,0,1,.239.239V5.334a.24.24,0,0,1-.239.239H47.166a.24.24,0,0,1-.239-.239Zm-5.05,7.614a1.414,1.414,0,0,1-.737-2.616,1.359,1.359,0,0,1,1.349-.058L46.42,8.593v.695ZM56.526,40.3A4.406,4.406,0,0,0,54.644,41.4a4.366,4.366,0,0,0-2.563-1.081,3,3,0,0,1,2.66-4.336,2.937,2.937,0,0,1,2.117.893,4.426,4.426,0,0,0-.529,2.1A4.473,4.473,0,0,0,56.526,40.3Zm3.33,6.366a2.953,2.953,0,0,1-2.117.894,3,3,0,0,1,0-6,2.951,2.951,0,0,1,2.117.894,4.45,4.45,0,0,0,0,4.208Zm3.878.894a3,3,0,1,1,2.972-3A2.988,2.988,0,0,1,63.735,47.555ZM70.95,42.7a4.854,4.854,0,0,1-3.891,4.765,4.442,4.442,0,0,0-2.11-7.169,4.435,4.435,0,0,0,.2-1.311.718.718,0,0,0-1.435,0,2.99,2.99,0,0,1-.225,1.147,4.379,4.379,0,0,0-2.745,1.178,4.378,4.378,0,0,0-2.748-1.178,3.03,3.03,0,0,1-.225-1.147,2.967,2.967,0,0,1,5.155-2.034.718.718,0,0,0,1.058-.97,4.386,4.386,0,0,0-6.237-.246,4.359,4.359,0,0,0-3-1.184,4.425,4.425,0,0,0-4.407,4.433,4.48,4.48,0,0,0,.253,1.482,4.417,4.417,0,0,0-2.069,1.256.718.718,0,1,0,1.053.975,2.954,2.954,0,0,1,4.226-.122,4.451,4.451,0,0,0,.064,4.086,2.933,2.933,0,0,1-2.117.893,2.988,2.988,0,0,1-2.972-3,.718.718,0,0,0-1.435,0,4.429,4.429,0,0,0,1.04,2.857A4.856,4.856,0,0,1,44.713,42.7V22.8h13.7c0,.07,0,.14,0,.211a4.416,4.416,0,0,0,1.7,3.5.718.718,0,0,0,.884-1.131,2.967,2.967,0,1,1,1.819.627.718.718,0,1,0,0,1.435,4.425,4.425,0,0,0,4.407-4.433c0-.071,0-.141,0-.211h3.735V42.7Zm0-21.337H66.9a4.4,4.4,0,0,0-8.184,0H44.713V17.225h4.132a.718.718,0,0,0,.509-.212l2.258-2.274,2.258,2.274a.718.718,0,0,0,.509.212h6.9a.718.718,0,0,0,.509-.212l2.258-2.274,2.258,2.274a.718.718,0,0,0,.509.212H70.95v4.138Zm3.376-5.573H67.117L64.56,13.215a.718.718,0,0,0-1.018,0L60.985,15.79H54.678l-2.557-2.574a.718.718,0,0,0-1.018,0L48.546,15.79H41.337a.323.323,0,0,1-.319-.327.329.329,0,0,1,.135-.267l6.215-4.473H61.89a.718.718,0,0,0,0-1.435H47.855V7.008H67.808v2.28H64.657a.718.718,0,1,0,0,1.435H68.3l6.2,4.473a.329.329,0,0,1,.135.267A.323.323,0,0,1,74.325,15.79ZM58,28.582a4.407,4.407,0,1,1-4.407-4.433.718.718,0,1,1,0,1.435,2.984,2.984,0,1,0,1.956.741.718.718,0,1,1,.95-1.076A4.446,4.446,0,0,1,58,28.582Z"/>
    </g>
  </g>
</svg>
