<svg xmlns="http://www.w3.org/2000/svg" xmlns:xlink="http://www.w3.org/1999/xlink" width="355.584" height="305.225" viewBox="0 0 355.584 305.225">
  <defs>
    <clipPath id="clip-path">
      <rect id="Rectángulo_401345" data-name="Rectángulo 401345" width="355.584" height="305.225" fill="none"/>
    </clipPath>
  </defs>
  <g id="Grupo_1099404" data-name="Grupo 1099404" clip-path="url(#clip-path)">
    <path id="Trazado_873411" data-name="Trazado 873411" d="M225.717,1.867C194.038,7.073,181.171,23.893,151.67,47.3,76.4,107.01,43.971,67.074,23.432,117.847s22.5,125.435,119.4,85.256c54.413-22.562,135,67.676,188.571,15.846C404.88,147.86,355.625-19.483,225.717,1.867" transform="translate(-10.037 0)" fill="#f8fbf9"/>
    <path id="Trazado_873412" data-name="Trazado 873412" d="M303.914,153.414s2.321-3.037,1.292-8.8l-.1-.061c-5.632,1.612-7.339,5.032-7.339,5.032a2.972,2.972,0,0,0-1.932-2.38c-1.27.954-1.593,3.085-1.676,4.118l.034.04s-.205,14.9-3.068,11.977,1.226-14.18,1.226-14.18l.055.066a9.966,9.966,0,0,0-1.222-5.457s-1.829-.086-3.728,3.433c0,0,.341-4.33-1.7-6.124,0,0-2.434.683-2.682,2.824,0,0-1.824-4.5-8.8-7.1l-.131.068c-1.873,7.2.767,11.278.767,11.278-1.9-1.024-3.852.577-3.852.577.3,2.7,4.043,4.9,4.043,4.9-3.971-.463-5.378,1.523-5.378,1.523,1.185,2.489,5.348,3.8,5.348,3.8s11.225,4.175,11.6,8.25-11.113-5.42-11.113-5.42-2.93-2.259-4.44-1.786a2.971,2.971,0,0,0,.805,2.958s-3.773-.61-8.369,3.024l-.008.116c4.083,4.2,7.9,4.088,7.9,4.088A2.971,2.971,0,0,0,270.274,173c1.939.9,4.95-.721,4.95-.721-1.933,2.484-.45,3.337-.45,3.337a7.085,7.085,0,0,0,3.842-.66,15.286,15.286,0,0,1,13.636.386l.14.077a2.919,2.919,0,0,0,4.272-2.467q.008-.18.019-.364a12.632,12.632,0,0,1,6.872-10.457,8.281,8.281,0,0,0,3.69-3.274s-.674-1.274-3.818-1.154c0,0,3.072-1.5,3.473-3.6a2.971,2.971,0,0,0-2.987-.689" transform="translate(-143.666 -74.571)" fill="#bed99d"/>
    <path id="Trazado_873413" data-name="Trazado 873413" d="M379.128,228.807s3.411,1.151,8.423-2.086l.03-.121c-3-5-6.6-5.391-6.6-5.391,1.537-.713,1.661-2.839,1.661-2.839-1.218-.9-3.26-.407-4.229-.094l-.028.049s-11.581,5.592-9.494,2.073,12.307-1.458,12.307-1.458l-.049.07a9.968,9.968,0,0,0,4.958-2.587s-.388-1.789-4.277-2.718c0,0,4.271-.785,5.48-3.216,0,0-1.287-2.176-3.419-1.865,0,0,3.879-2.921,4.592-10.33l-.1-.108c-7.442.045-10.7,3.646-10.7,3.646.5-2.1-1.55-3.573-1.55-3.573-2.529.986-3.7,5.17-3.7,5.17-.575-3.957-2.857-4.8-2.857-4.8-2.1,1.786-2.29,6.145-2.29,6.145s1.567,10.512-1.414,11.833c-2.043.906-1.462-1.651-.513-4.158a10.865,10.865,0,0,0-1.928-11.051,12.246,12.246,0,0,0-2.089-1.894c-3.242,2.589-3.041,5.343-2.559,8.11-1.075-1.046-2.891-.25-2.891-.25-.5,1.954,1.574,4.146,1.574,4.146-2.7-1-3.241.537-3.241.537a5.6,5.6,0,0,0,1.317,3.191c2.661,3.289,2.627,6.641,1.488,11.3-.012.052-.283,3.182,2.281,2.7.118-.022.741,0,.862-.02,4.378-.9,7.9-.6,10.855,2.574a6.976,6.976,0,0,0,4,2.425s.987-1.16.028-4.25c0,0,2.205,2.488,4.238,2.084,0,0,.875-1.961-.174-3.243" transform="translate(-193.098 -108.035)" fill="#bed99d"/>
    <path id="Trazado_873414" data-name="Trazado 873414" d="M262.523,210.988s-1.56-3.245-7.378-4.568l-.107.064c-1.482,5.638.752,8.484.752,8.484-1.584-.6-3.192.8-3.192.8.206,1.5,1.987,2.616,2.888,3.091l.055-.014s12.093,4.377,8.117,5.344-9.642-7.785-9.642-7.785l.085-.014a9.967,9.967,0,0,0-5.315-1.74s-1.009,1.528,1.044,4.959c0,0-3.547-2.507-6.13-1.674,0,0-.657,2.441,1.055,3.749,0,0-4.8-.734-10.6,3.933l-.009.146c5.233,5.293,10.085,5.107,10.085,5.107-1.85,1.105-1.472,3.605-1.472,3.605,2.472,1.12,6.28-.969,6.28-.969-2.429,3.176-1.44,5.4-1.44,5.4,2.745.255,6-2.655,6-2.655s6.425-8.465,9.453-7.256c2.075.829-.16,2.2-2.617,3.272a10.866,10.866,0,0,0-6.558,9.1,12.253,12.253,0,0,0,.1,2.818c4.118.51,5.947-1.558,7.589-3.836,0,1.5,1.842,2.243,1.842,2.243,1.749-1.006,1.867-4.023,1.867-4.023,1.169,2.633,2.649,1.943,2.649,1.943a5.6,5.6,0,0,0,1.362-3.172c.493-4.2,2.915-6.52,7.047-8.963.046-.027,2.474-2.022.335-3.516-.1-.069-.515-.533-.617-.6-3.7-2.506-5.95-5.234-5.743-9.564a6.977,6.977,0,0,0-1.059-4.556s-1.52.1-3.06,2.95c0,0,.239-3.316-1.47-4.488,0,0-2.014.744-2.2,2.391" transform="translate(-127.636 -112.522)" fill="#bed99d"/>
    <path id="Trazado_873415" data-name="Trazado 873415" d="M302.545,166.461c21.325,39.4,25.77,48.629,27.77,70.9" transform="translate(-164.921 -90.74)" fill="none" stroke="#80b569" stroke-linecap="round" stroke-linejoin="round" stroke-width="2.558"/>
    <path id="Trazado_873416" data-name="Trazado 873416" d="M357.778,265.21s.71-8.929,7.183-15" transform="translate(-195.029 -136.39)" fill="none" stroke="#80b569" stroke-linecap="round" stroke-linejoin="round" stroke-width="2.558"/>
    <path id="Trazado_873417" data-name="Trazado 873417" d="M290.812,245.676s18-2.266,28.087,10.217" transform="translate(-158.525 -133.833)" fill="none" stroke="#80b569" stroke-linecap="round" stroke-linejoin="round" stroke-width="2.558"/>
    <path id="Trazado_873418" data-name="Trazado 873418" d="M291.357,215.4a6.975,6.975,0,0,0-1.059-4.555s-1.519.1-3.06,2.949c0,0,.239-3.316-1.471-4.488,0,0-2.014.744-2.2,2.39,0,0-1.56-3.244-7.377-4.568-1.36,4,.76,8.228.76,8.228s-1.062-.861-3.983,1.224c0,0,1.565,2.92,4.3,2.957" transform="translate(-148.798 -112.906)" fill="none" stroke="#80b569" stroke-linecap="round" stroke-linejoin="round" stroke-width="2.099"/>
    <path id="Trazado_873419" data-name="Trazado 873419" d="M403.059,241.388c.137-.034,4.826-2.312,5.434-2.608a3.125,3.125,0,0,1,.51,2.062" transform="translate(-219.712 -130.162)" fill="none" stroke="#80b569" stroke-linecap="round" stroke-linejoin="round" stroke-width="2.099"/>
    <circle id="Elipse_11535" data-name="Elipse 11535" cx="3.489" cy="3.489" r="3.489" transform="translate(285.821 67.04) rotate(-9.218)" fill="none" stroke="#28401d" stroke-linecap="round" stroke-linejoin="round" stroke-width="1.923"/>
    <circle id="Elipse_11536" data-name="Elipse 11536" cx="3.489" cy="3.489" r="3.489" transform="translate(126.435 0.768)" fill="none" stroke="#28401d" stroke-linecap="round" stroke-linejoin="round" stroke-width="1.923"/>
    <circle id="Elipse_11537" data-name="Elipse 11537" cx="3.489" cy="3.489" r="3.489" transform="translate(11.949 195.729)" fill="none" stroke="#28401d" stroke-linecap="round" stroke-linejoin="round" stroke-width="1.923"/>
    <path id="Trazado_873420" data-name="Trazado 873420" d="M299.346,364.514H275.5a11.961,11.961,0,0,1-11.926-11.926V315.16A11.961,11.961,0,0,1,275.5,303.234h23.844a11.961,11.961,0,0,1,11.926,11.926v37.428a11.961,11.961,0,0,1-11.926,11.926" transform="translate(-143.678 -165.296)" fill="#446337"/>
    <path id="Trazado_873421" data-name="Trazado 873421" d="M308.428,294.931H281.222a3.465,3.465,0,1,1,0-6.929h27.206a3.465,3.465,0,1,1,0,6.929" transform="translate(-151.409 -156.993)" fill="#28401d"/>
    <path id="Trazado_873422" data-name="Trazado 873422" d="M278.439,352.306c0,7.725-6.655,13.987-14.863,13.987V338.319c8.209,0,14.863,6.262,14.863,13.987" transform="translate(-143.678 -184.422)" fill="#fff"/>
    <path id="Trazado_873423" data-name="Trazado 873423" d="M428.34,69.921l-21.11,72.767-26.136,50.05,8.945-48.217s12.887-45.1,38.3-74.6" transform="translate(-207.739 -38.115)" fill="#789e4c"/>
    <path id="Trazado_873424" data-name="Trazado 873424" d="M374.6,49.943s-15.766,144.691-37.415,202.18l-9.965,3.7S345.636,95.715,374.6,49.943" transform="translate(-178.37 -27.225)" fill="#789e4c"/>
    <path id="Trazado_873425" data-name="Trazado 873425" d="M340.578,265.793,415.736,71.82S387.96,89.88,356.282,185.3c-28.035,84.45-30.157,95.39-30.157,95.39Z" transform="translate(-177.775 -39.15)" fill="#789e4c"/>
    <path id="Trazado_873426" data-name="Trazado 873426" d="M400.035,155.963S364.452,235.186,350.1,281.345" transform="translate(-190.845 -85.017)" fill="none" stroke="#537a43" stroke-linecap="round" stroke-linejoin="round" stroke-width="2.669"/>
    <path id="Trazado_873427" data-name="Trazado 873427" d="M403.564,198.316s-5.693,39.028-6.862,48.864" transform="translate(-216.247 -108.104)" fill="none" stroke="#537a43" stroke-linecap="round" stroke-linejoin="round" stroke-width="2.669"/>
    <path id="Trazado_873428" data-name="Trazado 873428" d="M463.861,258.779c-5.666-10.406-11.268-22.239-12.37-35.976l-12.541.07-12.484.071c-.973,13.747-6.52,25.6-12.088,36.063a65.807,65.807,0,0,0-7.488,31.205l64.754-.3a65.819,65.819,0,0,0-7.783-31.135" transform="translate(-221.8 -121.453)" fill="#fff"/>
    <path id="Trazado_873429" data-name="Trazado 873429" d="M463.861,301.891l-49.483.227a65.807,65.807,0,0,0-7.488,31.205l.916,45.671a12.358,12.358,0,0,0,12.468,12.051l38.413-.176a12.355,12.355,0,0,0,12.353-12.134l.6-45.709a65.819,65.819,0,0,0-7.783-31.135" transform="translate(-221.8 -164.564)" fill="#fff"/>
    <path id="Trazado_873430" data-name="Trazado 873430" d="M469.015,221.76l-26.067-.055a4.5,4.5,0,0,1-4.477-4.5l0-.9a4.5,4.5,0,0,1,4.5-4.477l26.067.055a4.5,4.5,0,0,1,4.477,4.5l0,.9a4.5,4.5,0,0,1-4.5,4.477" transform="translate(-239.016 -115.473)" fill="#a0cc76"/>
    <path id="Trazado_873431" data-name="Trazado 873431" d="M380.8,626.876c0,7.173-47.4,12.987-105.863,12.987s-105.863-5.814-105.863-12.987,47.4-12.987,105.863-12.987S380.8,619.7,380.8,626.876" transform="translate(-92.167 -334.638)" fill="#feedda"/>
    <rect id="Rectángulo_401344" data-name="Rectángulo 401344" width="145.239" height="134.557" transform="translate(107.284 158.113)" fill="#f9a545"/>
    <path id="Trazado_873432" data-name="Trazado 873432" d="M280.355,329.849l11.312-14.8,12.448,14.8c0,7.691-23.759,7.691-23.759,0" transform="translate(-152.825 -171.736)" fill="#f9a545"/>
    <path id="Trazado_873433" data-name="Trazado 873433" d="M235.846,329.849l11.312-14.8,12.448,14.8c0,7.691-23.759,7.691-23.759,0" transform="translate(-128.562 -171.736)" fill="#f9a545"/>
    <path id="Trazado_873434" data-name="Trazado 873434" d="M324.864,329.849l11.312-14.8,12.448,14.8c0,7.691-23.759,7.691-23.759,0" transform="translate(-177.087 -171.736)" fill="#f9a545"/>
    <path id="Trazado_873435" data-name="Trazado 873435" d="M369.373,329.849l11.312-14.8,12.448,14.8c0,7.691-23.759,7.691-23.759,0" transform="translate(-201.35 -171.736)" fill="#f9a545"/>
    <path id="Trazado_873436" data-name="Trazado 873436" d="M413.882,329.849l11.312-14.8,12.448,14.8c0,7.691-23.759,7.691-23.759,0" transform="translate(-225.612 -171.736)" fill="#f9a545"/>
    <path id="Trazado_873437" data-name="Trazado 873437" d="M458.391,329.849l11.312-14.8,12.448,14.8c0,7.691-23.759,7.691-23.759,0" transform="translate(-249.874 -171.736)" fill="#f9a545"/>
    <path id="Trazado_873438" data-name="Trazado 873438" d="M502.9,329.849l11.312-14.8,12.448,14.8c0,7.691-23.759,7.691-23.759,0" transform="translate(-274.137 -171.736)" fill="#f9a545"/>
    <path id="Trazado_873439" data-name="Trazado 873439" d="M506.883,490.878,487.6,467.767l-20.984,22.716V363.61" transform="translate(-254.361 -198.208)" fill="none" stroke="#663a24" stroke-linecap="round" stroke-linejoin="round" stroke-width="1.558"/>
    <line id="Línea_583" data-name="Línea 583" x2="0.116" y2="58.29" transform="translate(232.276 202.304)" fill="none" stroke="#663a24" stroke-linecap="round" stroke-linejoin="round" stroke-width="1.558"/>
    <path id="Trazado_873440" data-name="Trazado 873440" d="M340.02,466.767a27.289,27.289,0,1,1-27.289-27.289,27.289,27.289,0,0,1,27.289,27.289" transform="translate(-155.598 -239.565)" fill="#fff"/>
    <path id="Trazado_873441" data-name="Trazado 873441" d="M348.9,463.742s.518,11.523-6.242,19.331-18.239,8.945-18.239,8.945-.518-11.523,6.242-19.331,18.239-8.945,18.239-8.945" transform="translate(-176.84 -252.791)" fill="#7fbf36"/>
    <line id="Línea_584" data-name="Línea 584" y1="32.606" x2="28.316" transform="translate(143.746 210.951)" fill="none" stroke="#66992b" stroke-linecap="round" stroke-linejoin="round" stroke-width="2.138"/>
    <line id="Línea_585" data-name="Línea 585" x2="23.305" transform="translate(205.458 106.339)" fill="none" stroke="#28401d" stroke-linecap="round" stroke-linejoin="round" stroke-width="1.59"/>
    <path id="Trazado_873442" data-name="Trazado 873442" d="M653.626,287.667a89.645,89.645,0,0,1,15.2,7.679c4.509,2.846,9.065,6.543,10.207,11.749.66,3.009.079,6.132.025,9.213s.6,6.479,3.032,8.377c-4.9-4.107-12.83-2.255-17.937-6.1-2.826-2.125-4.252-5.641-4.989-9.1s-.919-7.031-1.913-10.423-3-6.73-6.164-8.5c.758-.834,1.517-1.667,2.292-2.485.007.06.014.121.244-.413" transform="translate(-354.917 -156.811)" fill="#663a24" fill-rule="evenodd"/>
    <path id="Trazado_873443" data-name="Trazado 873443" d="M537.975,416.988l-.57,4.23a3.569,3.569,0,0,1-1.166,2.19l-2.586,2.3a1.726,1.726,0,0,1-2.758-.666l1.017-5.277a5.374,5.374,0,0,1,1.95-3.1l1.715-1.385Z" transform="translate(-289.398 -226.372)" fill="#d45d39"/>
    <path id="Trazado_873444" data-name="Trazado 873444" d="M600.5,304.958a48.827,48.827,0,0,0-4.791,1.432c-1.791.649-3.527,1.321-4.643,2.864C589.721,311.119,572,339.223,572,339.223l24.461-3.864Z" transform="translate(-311.803 -166.236)" fill="#b9c4ad" fill-rule="evenodd"/>
    <path id="Trazado_873445" data-name="Trazado 873445" d="M635.6,270.573s-4.875,1.854-1.816,6.99L640,275.353Z" transform="translate(-344.932 -147.493)" fill="#663a24" fill-rule="evenodd"/>
    <path id="Trazado_873446" data-name="Trazado 873446" d="M531.216,644.955c0,2.976,18.332,5.389,40.946,5.389s40.945-2.413,40.945-5.389-18.332-5.389-40.945-5.389-40.946,2.413-40.946,5.389" transform="translate(-289.572 -348.635)" fill="#dbe8cc" fill-rule="evenodd"/>
    <path id="Trazado_873447" data-name="Trazado 873447" d="M604.9,532.919s9.921-31.841,6.429-45.032l6.978-43.154-16.528,5.486-1.848,82.962Z" transform="translate(-327.027 -242.429)" fill="#d45d39" fill-rule="evenodd"/>
    <path id="Trazado_873448" data-name="Trazado 873448" d="M662.141,625.554l-2.045-10.4,7.658-1.644-.38,12.38Z" transform="translate(-359.826 -334.433)" fill="#d45d39" fill-rule="evenodd"/>
    <path id="Trazado_873449" data-name="Trazado 873449" d="M587.611,636.03l-4.343,3.108c-.857.768-5.47,2.26-5.47,2.26-.48.954.4,1.456,1.154,1.582l13.514-.282s3.134-.648.513-6.661c-2.484,1.085-4.771,1.863-5.367-.007" transform="translate(-314.889 -346.707)" fill="#4a2a1a" fill-rule="evenodd"/>
    <path id="Trazado_873450" data-name="Trazado 873450" d="M654.016,636.133l-4.171,3.108a26.551,26.551,0,0,1-4.041,2.26c-.456.954.436,1.456,1.192,1.582l12.131-.282s3.289-.655.523-6.667c-1.3,1.265-4.663,2.752-5.634,0" transform="translate(-351.968 -346.764)" fill="#4a2a1a" fill-rule="evenodd"/>
    <path id="Trazado_873451" data-name="Trazado 873451" d="M595.4,451.027,593.779,491.4l-2.124,37.675h12.6s.062-6.8.722-8.953,5.841-22.612,3.167-32.022l9.017-38.325Z" transform="translate(-322.518 -245.179)" fill="#6fad75" fill-rule="evenodd"/>
    <path id="Trazado_873452" data-name="Trazado 873452" d="M616.081,481.586l7.484-31.81-7.559.409-4.493,22.643c-1.231,5.23-2.4,12.528-2.277,17.694.251,10.212-1.385,29.992-1.343,31.724.143,5.823-4.7,6.832-4.7,6.832h7.463s.062-6.8.722-8.953c.576-1.882,4.594-17.694,3.832-27.946a34.942,34.942,0,0,1,.867-10.592" transform="translate(-328.809 -245.178)" fill="#5f9464" fill-rule="evenodd"/>
    <path id="Trazado_873453" data-name="Trazado 873453" d="M635.959,385.307l-30.195,2.085c-5.124,1.69-5.869,28.491-5.869,28.491l17.958.892c9.148-.155,21.428,8.737,21.548-5.689.162-19.47-3.443-25.78-3.443-25.78" transform="translate(-327.01 -210.035)" fill="#6fad75" fill-rule="evenodd"/>
    <path id="Trazado_873454" data-name="Trazado 873454" d="M607.549,306.725l6.1-2.656,5.891-.689,2.96.116,11.245,3.922a8.268,8.268,0,0,1,4.1,10.26l-.256,12.734c-.934,11.3,0,18.793-.3,27.253-15.945,5.921-36.131,5.022-41.163-2.294.849-20,3.663-35.777,11.429-48.647" transform="translate(-324.952 -165.376)" fill="#b9c4ad" fill-rule="evenodd"/>
    <path id="Trazado_873455" data-name="Trazado 873455" d="M633.424,303.13s-3.536,8.753,2.472,9.137,9.3-8.713,9.3-8.713L640.8,301.6Z" transform="translate(-344.723 -164.408)" fill="#d45d39"/>
    <path id="Trazado_873456" data-name="Trazado 873456" d="M640.828,286.735l-.789,7.693a2.577,2.577,0,0,0,1.067,2.368,2.534,2.534,0,0,0,2.573.212l.792-.383a3.331,3.331,0,0,0,1.874-3c0-3.278-.008-9.25-.008-9.25Z" transform="translate(-348.885 -155.015)" fill="#d45d39" fill-rule="evenodd"/>
    <path id="Trazado_873457" data-name="Trazado 873457" d="M640.771,294.557,640.7,297.1l2.6-1.937Z" transform="translate(-349.255 -160.566)" fill="#c24a27" fill-rule="evenodd"/>
    <path id="Trazado_873458" data-name="Trazado 873458" d="M643.161,276.087a2.243,2.243,0,0,0-1.409-2.832L637.7,271.91a2.365,2.365,0,0,0-2.806,1.432,24.275,24.275,0,0,0-1.656,6.4,2.717,2.717,0,0,0,1.566,2.982c1.243.413,5.359.451,6.454-1.677a32.636,32.636,0,0,0,1.9-4.964" transform="translate(-345.172 -148.164)" fill="#d45d39" fill-rule="evenodd"/>
    <path id="Trazado_873459" data-name="Trazado 873459" d="M645.911,279.04a5.314,5.314,0,0,0,2.546-3.321c.367-1.468.566-3.29-.25-4.383-2.064-2.764-5.147-4.594-9.225-2.141,0,0,.817,5.09,6.294,10.2Z" transform="translate(-348.317 -146.115)" fill="#663a24" fill-rule="evenodd"/>
    <path id="Trazado_873460" data-name="Trazado 873460" d="M651.471,288.459a1.681,1.681,0,0,1-2.316.508,1.72,1.72,0,0,1-.054-2.393,1.681,1.681,0,0,1,2.316-.508,1.721,1.721,0,0,1,.054,2.393" transform="translate(-353.586 -155.786)" fill="#d45d39" fill-rule="evenodd"/>
    <path id="Trazado_873461" data-name="Trazado 873461" d="M634.891,287.667l2.035.63s-.469,1.394-1.411.973-.624-1.6-.624-1.6" transform="translate(-346.058 -156.811)" fill="#fff" fill-rule="evenodd"/>
    <path id="Trazado_873462" data-name="Trazado 873462" d="M661.094,442.318l-1.514,36.173s3.813,16.033-.4,43.158l-11.291-.2-3.835-46.46-2.853-38Z" transform="translate(-349.525 -238.209)" fill="#6fad75" fill-rule="evenodd"/>
    <path id="Trazado_873463" data-name="Trazado 873463" d="M561.252,353.309s.353-5.344-6.376-5.24a77.512,77.512,0,0,0-11.87,1.074s6.119,5.866,9.85,7.721Z" transform="translate(-295.998 -189.736)" fill="#537a43"/>
    <path id="Trazado_873464" data-name="Trazado 873464" d="M590.12,354.3c.549-.331,2.662,5.59,13.168-4.541a36.381,36.381,0,0,0-10.486-2.132c-3.05-.023-7.694.932-8.279,4.9Z" transform="translate(-318.63 -189.497)" fill="#537a43"/>
    <path id="Trazado_873465" data-name="Trazado 873465" d="M585.308,331.522c-.806,3.219-2.543,11.944-2.543,11.944l-2.484-.206s-.61-7.186.4-12.262c.111-.555.477-.935.887-.908l3.149.205c.441.029.736.641.59,1.225" transform="translate(-316.219 -179.936)" fill="#537a43"/>
    <path id="Trazado_873466" data-name="Trazado 873466" d="M521.375,364.529c2.965-4.378,6.846-6.212,12.205-5.87,2.2.14,7.027,1.031,10.3,1.672a19.512,19.512,0,0,0,6.757.131c3.5-.546,8.623-1.354,10.194-1.641,5.282-.966,9.222,1.6,12.134,6.015,8.441,13.094-.93,30.473-14.681,34.171-4.655,1.252-16.536,1.663-22.637-.134-12.8-3.773-22.871-21.35-14.275-34.343" transform="translate(-282.463 -195.487)" fill="#d1603a"/>
    <path id="Trazado_873467" data-name="Trazado 873467" d="M558.168,354.535s-6.807-.041-9.7,5.2a41.021,41.021,0,0,0-3.557,8.01l8.858-2.321a16.008,16.008,0,0,0,6.34-3.237,10.207,10.207,0,0,0,2.141-2.413c1.569-2.6.464-5.15-4.08-5.235" transform="translate(-297.036 -193.261)" fill="#537a43"/>
    <path id="Trazado_873468" data-name="Trazado 873468" d="M587.9,354.651s6.807.039,9.64,5.311A41.041,41.041,0,0,1,601,368.013l-8.83-2.425a16.008,16.008,0,0,1-6.3-3.313,10.2,10.2,0,0,1-2.113-2.438c-1.538-2.623-.4-5.155,4.142-5.186" transform="translate(-317.861 -193.324)" fill="#537a43"/>
    <path id="Trazado_873469" data-name="Trazado 873469" d="M576.6,365.637a13.714,13.714,0,0,0-6.345-5.548c10.692,12.891-7.659,46.613-37.179,35.037-2.112-.828-5.531-3.731-8.234-7.75,3.174,5.842,8.511,10.551,14.44,12.3,6.1,1.8,17.981,1.386,22.637.134,13.75-3.7,23.122-21.077,14.681-34.171" transform="translate(-286.1 -196.289)" fill="#ba5634"/>
    <path id="Trazado_873470" data-name="Trazado 873470" d="M558.64,355.209s4.245-4.116,9.39-2.616" transform="translate(-304.521 -192.024)" fill="none" stroke="#3d5931" stroke-linecap="round" stroke-linejoin="round" stroke-width="1.41"/>
    <path id="Trazado_873471" data-name="Trazado 873471" d="M596.915,356.506s-4.8-3.173-9.432-2.358" transform="translate(-320.243 -192.977)" fill="none" stroke="#3d5931" stroke-linecap="round" stroke-linejoin="round" stroke-width="1.41"/>
    <path id="Trazado_873472" data-name="Trazado 873472" d="M583.459,359.684a6.116,6.116,0,0,1-.257-4.245" transform="translate(-317.764 -193.754)" fill="none" stroke="#3d5931" stroke-linecap="round" stroke-linejoin="round" stroke-width="1.41"/>
    <path id="Trazado_873473" data-name="Trazado 873473" d="M624.884,422.553l-.57,4.23a3.569,3.569,0,0,1-1.166,2.19l-2.586,2.3a1.726,1.726,0,0,1-2.758-.666l1.017-5.277a5.378,5.378,0,0,1,1.95-3.1l1.714-1.385Z" transform="translate(-336.772 -229.405)" fill="#d45d39"/>
    <path id="Trazado_873474" data-name="Trazado 873474" d="M654.514,336.4l-.866,2.007-3.794,15.229-3.391,4.217" transform="translate(-352.394 -183.377)" fill="none" stroke="#768a81" stroke-linecap="round" stroke-linejoin="round" stroke-width="1.283"/>
    <path id="Trazado_873475" data-name="Trazado 873475" d="M628.06,404.933l-6.831,10.181,4.6.879,6.883-5.174Z" transform="translate(-338.639 -220.734)" fill="#d45d39"/>
    <path id="Trazado_873476" data-name="Trazado 873476" d="M627.737,360.784l5.725,6,16.96-18.849,4.435-13.369c2.349-8.624,2.8-12.473-.983-17.7l-1.9-.509-11.12,27.69Z" transform="translate(-342.187 -172.45)" fill="#b9c4ad"/>
    <path id="Trazado_873477" data-name="Trazado 873477" d="M645.679,392.222l14.357-14.429,3.086-8.352" transform="translate(-351.967 -201.387)" fill="none" stroke="#768a81" stroke-linecap="round" stroke-linejoin="round" stroke-width="1.283"/>
    <line id="Línea_586" data-name="Línea 586" x1="0.834" y2="5.338" transform="translate(281.38 150.946)" fill="none" stroke="#768a81" stroke-linecap="round" stroke-linejoin="round" stroke-width="1.283"/>
    <path id="Trazado_873478" data-name="Trazado 873478" d="M191.422,229.866l1.695-3.882a3.529,3.529,0,0,0,.138-2.455l-1.01-3.273a1.711,1.711,0,0,0-2.683-.845l-1.855,5a5.318,5.318,0,0,0,.056,3.631l.742,2.052Z" transform="translate(-102.162 -119.407)" fill="#a3472c"/>
    <path id="Trazado_873479" data-name="Trazado 873479" d="M192.354,234.192s7.657,13.166,11.928,21.615c4.446,8.794-9.114,9.929-10.338,3.907-.5-2.479-4.515-21.872-4.515-21.872Z" transform="translate(-103.26 -127.661)" fill="#a3472c" fill-rule="evenodd"/>
    <path id="Trazado_873480" data-name="Trazado 873480" d="M105.3,95.5c3.8,10.667-2.5,19.949.089,30.381,2.978,11.991,27.5,25.126,10.724,34.189-11.132,6.015-17.7-14.623-26.375-19.35-10.87-5.921-21.251-2.417-32.969-5.731,3.178-10.884,11.323-12.849,21.906-8.5C70.054,119.031,60.529,101,72.82,97.956c10.877-2.693,15.522,16.441,22.624,25.1,2.9-8.859,4.038-18.464,1.912-27.517L105.3,95.5" transform="translate(-30.945 -52.055)" fill="#446337"/>
    <path id="Trazado_873481" data-name="Trazado 873481" d="M48.36,157.275l2.574-2.094a12.2,12.2,0,0,0-15.4-18.929l-2.574,2.094a12.2,12.2,0,1,0,15.4,18.929" transform="translate(-15.519 -72.788)" fill="#537a43"/>
    <path id="Trazado_873482" data-name="Trazado 873482" d="M19.889,145.858l2.574-2.094a12.2,12.2,0,0,0-15.4-18.929l-2.574,2.094a12.2,12.2,0,0,0,15.4,18.929" transform="translate(0 -66.564)" fill="#537a43"/>
    <path id="Trazado_873483" data-name="Trazado 873483" d="M32.882,179.635l2.574-2.094a12.2,12.2,0,0,0-15.4-18.929l-2.574,2.094a12.2,12.2,0,0,0,15.4,18.929" transform="translate(-7.082 -84.976)" fill="#537a43"/>
    <path id="Trazado_873484" data-name="Trazado 873484" d="M89.68,92.968l2.574-2.094a12.2,12.2,0,0,0-15.4-18.929l-2.574,2.094a12.2,12.2,0,0,0,15.4,18.929" transform="translate(-38.043 -37.733)" fill="#537a43"/>
    <path id="Trazado_873485" data-name="Trazado 873485" d="M61.21,81.551l2.574-2.094a12.2,12.2,0,0,0-15.4-18.929l-2.574,2.094a12.2,12.2,0,0,0,15.4,18.929" transform="translate(-22.524 -31.51)" fill="#537a43"/>
    <path id="Trazado_873486" data-name="Trazado 873486" d="M35.91,98.738l2.574-2.094a12.2,12.2,0,0,0-15.4-18.929l-2.574,2.094a12.2,12.2,0,0,0,15.4,18.929" transform="translate(-8.733 -40.879)" fill="#537a43"/>
    <path id="Trazado_873487" data-name="Trazado 873487" d="M67.411,125.513l2.574-2.094a12.2,12.2,0,1,0-15.4-18.929l-2.574,2.094a12.2,12.2,0,0,0,15.4,18.929" transform="translate(-25.904 -55.474)" fill="#537a43"/>
    <path id="Trazado_873488" data-name="Trazado 873488" d="M126.813,84.369l2.574-2.094a12.2,12.2,0,0,0-15.4-18.929L111.41,65.44a12.2,12.2,0,0,0,15.4,18.929" transform="translate(-58.285 -33.046)" fill="#537a43"/>
    <path id="Trazado_873489" data-name="Trazado 873489" d="M167.378,85.944l2.574-2.094a12.239,12.239,0,0,0,1.763-17.166h0a12.238,12.238,0,0,0-17.166-1.763l-2.574,2.094a12.2,12.2,0,0,0,15.4,18.929" transform="translate(-80.398 -33.904)" fill="#537a43"/>
    <path id="Trazado_873490" data-name="Trazado 873490" d="M146.353,55.247l2.574-2.094a12.2,12.2,0,0,0-15.4-18.929l-2.574,2.094a12.2,12.2,0,1,0,15.4,18.929" transform="translate(-68.937 -17.171)" fill="#537a43"/>
    <path id="Trazado_873491" data-name="Trazado 873491" d="M96.385,52.929l2.574-2.094a12.2,12.2,0,0,0-15.4-18.929L80.982,34a12.2,12.2,0,0,0,15.4,18.929" transform="translate(-41.698 -15.907)" fill="#537a43"/>
    <path id="Trazado_873492" data-name="Trazado 873492" d="M48.217,60.542l2.574-2.094a12.2,12.2,0,0,0-15.4-18.929l-2.574,2.094a12.2,12.2,0,0,0,15.4,18.929" transform="translate(-15.442 -20.057)" fill="#537a43"/>
    <path id="Trazado_873493" data-name="Trazado 873493" d="M52.2,76.946A13.791,13.791,0,1,0,38.867,62.715,13.79,13.79,0,0,0,52.2,76.946" transform="translate(-21.183 -26.913)" fill="#598248"/>
    <path id="Trazado_873494" data-name="Trazado 873494" d="M89.462,68.451A13.791,13.791,0,1,0,76.126,54.22,13.79,13.79,0,0,0,89.462,68.451" transform="translate(-41.493 -22.282)" fill="#598248"/>
    <path id="Trazado_873495" data-name="Trazado 873495" d="M58.556,115.063a1.308,1.308,0,1,0-1.265-1.349,1.308,1.308,0,0,0,1.265,1.349" transform="translate(-31.23 -61.297)" fill="#6a9c55"/>
    <path id="Trazado_873496" data-name="Trazado 873496" d="M174.493,73.195a1.308,1.308,0,1,0-1.265-1.349,1.307,1.307,0,0,0,1.265,1.349" transform="translate(-94.428 -38.474)" fill="#6a9c55"/>
    <path id="Trazado_873497" data-name="Trazado 873497" d="M104.948,58.4a1.308,1.308,0,1,0-1.265-1.349,1.307,1.307,0,0,0,1.265,1.349" transform="translate(-56.519 -30.41)" fill="#6a9c55"/>
    <path id="Trazado_873498" data-name="Trazado 873498" d="M147.411,91.567a1.308,1.308,0,1,0-1.265-1.349,1.307,1.307,0,0,0,1.265,1.349" transform="translate(-79.666 -48.489)" fill="#6a9c55"/>
    <path id="Trazado_873499" data-name="Trazado 873499" d="M42.792,187.658a1.308,1.308,0,1,0-1.265-1.349,1.307,1.307,0,0,0,1.265,1.349" transform="translate(-22.637 -100.869)" fill="#6a9c55"/>
    <path id="Trazado_873500" data-name="Trazado 873500" d="M11.865,150.423a1.308,1.308,0,1,0-1.265-1.349,1.307,1.307,0,0,0,1.265,1.349" transform="translate(-5.778 -80.572)" fill="#6a9c55"/>
    <path id="Trazado_873501" data-name="Trazado 873501" d="M67.894,149.366a1.308,1.308,0,1,0-1.265-1.349,1.307,1.307,0,0,0,1.265,1.349" transform="translate(-36.32 -79.996)" fill="#6a9c55"/>
    <path id="Trazado_873502" data-name="Trazado 873502" d="M59.855,66.27a1.308,1.308,0,1,0-1.265-1.349,1.307,1.307,0,0,0,1.265,1.349" transform="translate(-31.938 -34.699)" fill="#6a9c55"/>
    <path id="Trazado_873503" data-name="Trazado 873503" d="M112.075,167.2s-5.365-1.9-7.151-3.581" transform="translate(-57.195 -89.193)" fill="none" stroke="#28401d" stroke-linecap="round" stroke-linejoin="round" stroke-width="1.701"/>
    <line id="Línea_587" data-name="Línea 587" y1="3.862" x2="1.07" transform="translate(64.004 69.149)" fill="none" stroke="#28401d" stroke-linecap="round" stroke-linejoin="round" stroke-width="1.701"/>
    <path id="Trazado_873504" data-name="Trazado 873504" d="M33.947,202.54l-3.4-2.521a3.53,3.53,0,0,1-1.343-2.06l-.754-3.342a1.711,1.711,0,0,1,1.9-2.069l4.1,3.41a5.315,5.315,0,0,1,1.76,3.176l.379,2.149Z" transform="translate(-15.483 -104.951)" fill="#a3472c"/>
    <path id="Trazado_873505" data-name="Trazado 873505" d="M36.6,206.866s-.081,15.23.424,24.684c.525,9.841,12.849,4.07,10.91-1.761-.8-2.4-6.979-21.215-6.979-21.215Z" transform="translate(-19.948 -112.765)" fill="#a3472c" fill-rule="evenodd"/>
    <path id="Trazado_873506" data-name="Trazado 873506" d="M154.568,645.408c0,3.6-20.595,6.52-46,6.52s-46-2.919-46-6.52,20.595-6.52,46-6.52,46,2.919,46,6.52" transform="translate(-34.107 -348.265)" fill="#dbe8cc" fill-rule="evenodd"/>
    <path id="Trazado_873507" data-name="Trazado 873507" d="M169.756,526.78s-10.172-35.236-5.3-49.178l-10.364-47.8,13.036,11.454,8.9,85.862Z" transform="translate(-83.996 -234.29)" fill="#a3472c" fill-rule="evenodd"/>
    <path id="Trazado_873508" data-name="Trazado 873508" d="M192.417,639.945l3.3,3.222c.894.8,5.687,2.343,5.687,2.343.5.989-.405,1.509-1.185,1.64l-14.011-.293s-3.254-.671-.577-6.9c2.582,1.125,6.182,1.931,6.786-.007" transform="translate(-100.613 -348.841)" fill="#4a2a1a" fill-rule="evenodd"/>
    <path id="Trazado_873509" data-name="Trazado 873509" d="M157.743,426.852l11.776,91.409H153.209s-.515-7.058-1.341-9.3-7.554-23.482-5.4-33.255l-11.887-39.8Z" transform="translate(-73.359 -232.682)" fill="#537a43" fill-rule="evenodd"/>
    <path id="Trazado_873510" data-name="Trazado 873510" d="M146.211,486.561l-11.886-39.8,7.863.424,8.7,29.145a65.661,65.661,0,0,1,2.664,16.252c.416,10.6,5.114,25.385,5.8,27.233.827,2.24,1.342,9.3,1.342,9.3h-7.737s-.515-7.058-1.342-9.3-7.553-23.482-5.4-33.255" transform="translate(-73.222 -243.534)" fill="#4c703e" fill-rule="evenodd"/>
    <path id="Trazado_873511" data-name="Trazado 873511" d="M94.279,377.643l30.46,2.32c4.955,1.819,2.975,30.384,2.975,30.384l-20.028.928c-9.3-.194-20.31,7.1-21.468-8.4-1.323-17.723,8.062-25.232,8.062-25.232" transform="translate(-46.929 -205.858)" fill="#537a43" fill-rule="evenodd"/>
    <path id="Trazado_873512" data-name="Trazado 873512" d="M105.614,618.38c.032.032.064.064.444.4.269,3.878,1.189,5.318,1.458,9.2,1.675.058,2.7,2.54,4.378,2.566.474.008-.245-2.128.131-2.445l2.433-10.556Z" transform="translate(-57.571 -336.631)" fill="#a3472c"/>
    <path id="Trazado_873513" data-name="Trazado 873513" d="M107.471,404.391c.269,33.558.538,67.131-.333,101.141-4.9-.784-13.673-.518-13.673-.518s.057-6.014-.024-6.872c-1.95-20.5-4.372-23.434-4.139-39.287-1.527-22.881-3.829-38.585-3.569-57.173,8.032.655,13.587,2.249,21.628,3.108l.353.045c.118.1.236.191-.243-.444" transform="translate(-46.723 -218.962)" fill="#537a43"/>
    <path id="Trazado_873514" data-name="Trazado 873514" d="M112.957,638.131a33.584,33.584,0,0,1,1.079,6.6,1.749,1.749,0,0,1-.655,1.26,2.111,2.111,0,0,1-1.415.54l-2.92-.113a1.589,1.589,0,0,1-1.1-.448l-.551-.57c-.919-.951-.529-2.009-.025-3.5a31.25,31.25,0,0,0,.876-3.292,4.407,4.407,0,0,1,4.716-.474" transform="translate(-58.238 -347.598)" fill="#3d2213" fill-rule="evenodd"/>
    <path id="Trazado_873515" data-name="Trazado 873515" d="M88.8,417.015s19.012-1.229,24-1.255l-24.1-6.268a59.2,59.2,0,0,0,.1,7.523" transform="translate(-48.305 -223.219)" fill="#728f3b" fill-rule="evenodd"/>
    <path id="Trazado_873516" data-name="Trazado 873516" d="M113.688,291.372l-12.437-3.265-3.288-.119-15.184,3.727c-4.332,1.77-10.322,8.813-9,13.375l5.5,12.4c-1.184,12.464,1.135,22.424,1.05,32.67a3.86,3.86,0,0,0,3.113,3.807c12.5,2.419,35.45,4.429,41.051-2.667.253-11.566-2.319-35.005-3.593-45.6-1.189-9.886-3.5-7.093-7.21-14.331" transform="translate(-40.115 -156.986)" fill="#b9c4ad" fill-rule="evenodd"/>
    <path id="Trazado_873517" data-name="Trazado 873517" d="M107.46,377.409s-25.1-27.069-22.8-50.476l-2.9,6.342s.649,29.139,0,39.831c0,0,9.054,5.08,25.7,4.3" transform="translate(-44.567 -178.215)" fill="#a8b39e" fill-rule="evenodd"/>
    <path id="Trazado_873518" data-name="Trazado 873518" d="M143.51,267.488a21.388,21.388,0,0,0,2.026,1.754c.6.479-.371,1.9-1.095,1.755s-1.948-2.245-1.948-2.245Z" transform="translate(-77.675 -145.811)" fill="#a3472c" fill-rule="evenodd"/>
    <path id="Trazado_873519" data-name="Trazado 873519" d="M130.266,273.03l-2.082,7.6a2.732,2.732,0,0,1-2.126,1.863,3.5,3.5,0,0,1-3-.736l-.75-.653a3.1,3.1,0,0,1-.964-3.536c1.272-3.115,3.589-8.79,3.589-8.79Z" transform="translate(-66.028 -146.515)" fill="#a3472c" fill-rule="evenodd"/>
    <path id="Trazado_873520" data-name="Trazado 873520" d="M136.736,281.11l-.909,2.443L133.5,280.1Z" transform="translate(-72.774 -152.686)" fill="#8c3d25" fill-rule="evenodd"/>
    <path id="Trazado_873521" data-name="Trazado 873521" d="M125.591,263.113a2.278,2.278,0,0,1,1.453-2.865l4.125-1.334a2.4,2.4,0,0,1,2.839,1.477,24.641,24.641,0,0,1,1.631,6.516,2.759,2.759,0,0,1-1.614,3.015c-1.265.409-6.019-.838-7.115-3.008a18.437,18.437,0,0,1-1.32-3.8" transform="translate(-68.401 -141.081)" fill="#a3472c" fill-rule="evenodd"/>
    <path id="Trazado_873522" data-name="Trazado 873522" d="M122.225,267.979c-.97,0-3.786-3.821-2.776-7.249a5.854,5.854,0,0,1,.827-1.832c2.118-2.79,4.133-3.855,8.254-1.332a30.336,30.336,0,0,1-.817,5.451,10.576,10.576,0,0,1-1.9,3.433,4.224,4.224,0,0,1-3.234,1.525Z" transform="translate(-64.996 -139.625)" fill="#663a24" fill-rule="evenodd"/>
    <path id="Trazado_873523" data-name="Trazado 873523" d="M133.445,272.491a1.707,1.707,0,0,0,2.348.534,1.747,1.747,0,0,0,.074-2.43,1.707,1.707,0,0,0-2.348-.534,1.747,1.747,0,0,0-.074,2.43" transform="translate(-72.497 -147.062)" fill="#a3472c" fill-rule="evenodd"/>
    <path id="Trazado_873524" data-name="Trazado 873524" d="M124.832,250.834c-2.785-1.809-4.325-1.152-5.169.336a.874.874,0,0,1-.59.458,1.132,1.132,0,0,1-.472-.083,2.73,2.73,0,0,0-3.333,3.575,1.076,1.076,0,0,0-.976.6,4.866,4.866,0,0,0,1.373,5.878,2.835,2.835,0,0,0,1.935.97,2.3,2.3,0,0,0,1.843-1.9,6.429,6.429,0,0,0-.241-2.8,7.42,7.42,0,0,1-.324-2.8,2.406,2.406,0,0,1,1.678-2.071,4.406,4.406,0,0,1,1.9.225,2.216,2.216,0,0,0,1.855-.192c.637-.492.523-1.953.525-2.191" transform="translate(-62.05 -136.135)" fill="#663a24"/>
    <path id="Trazado_873525" data-name="Trazado 873525" d="M121.15,261.472c.936-.377.485-3.532.01-4.421a2.035,2.035,0,0,0,1.891-2.011c.883,1.149,2.425.164,2.7-.572-.034.534.542.876,1.033,1.088a5.041,5.041,0,0,0,2.372-.257c.551-.223-.1-2.271-.319-2.85a2.433,2.433,0,0,0-1.211-1.354,1.757,1.757,0,0,0-1.767.156,4.5,4.5,0,0,1-2.225.7,10.929,10.929,0,0,0-2.934,1.047,16.067,16.067,0,0,0-2.757,2.391c-.824,1.331.034,3.3.039,3.873a1.5,1.5,0,0,0,.853,1.368c.525.219,1.529.416,1.806-.085.013,0,.674.947.511.932" transform="translate(-64.096 -136.784)" fill="#663a24"/>
    <path id="Trazado_873526" data-name="Trazado 873526" d="M135.182,267.115c.639,2.395-.175,3.126,1.3,5.871a3.824,3.824,0,0,0,3.151,1.8c1.19-.038,1.944-.68,1.966-1.7a12.683,12.683,0,0,0-.647-2.947c-.246-.443-.681-.314-1.883.385-.273.159-.588.348-.883.236a.986.986,0,0,1-.472-.615l-1.931-4.814c-.146.677-.293,1.353-.41,2.041.009.034.018.067-.189-.251" transform="translate(-73.689 -144.631)" fill="#663a24"/>
    <path id="Trazado_873527" data-name="Trazado 873527" d="M145.5,277.528l-.96.094s.086,1.355.885.98c.169-.08.076-1.074.076-1.074" transform="translate(-78.792 -151.284)" fill="#fff" fill-rule="evenodd"/>
    <path id="Trazado_873528" data-name="Trazado 873528" d="M33.939,226.034l.476,17.457a14.493,14.493,0,0,0,2.822,8.206l18.454,25.033,12.851-22.14-5.987-1.815a10.643,10.643,0,0,1-3.858-2.121l-10.611-9.138L42.77,223.205Z" transform="translate(-18.501 -121.672)" fill="#b9c4ad"/>
    <path id="Trazado_873529" data-name="Trazado 873529" d="M147.861,267.691l21.919-3.567-3.01-14.118,7.872-2.421s13.324,20.813,7.872,25.314-21.13,10.781-21.13,10.781Z" transform="translate(-80.601 -134.961)" fill="#b9c4ad"/>
    <line id="Línea_588" data-name="Línea 588" x1="3.718" y1="6.71" transform="translate(77.459 140.94)" fill="none" stroke="#768a81" stroke-linecap="round" stroke-linejoin="round" stroke-width="1.079"/>
    <line id="Línea_589" data-name="Línea 589" x2="2.852" y2="6.63" transform="translate(47.884 142.018)" fill="none" stroke="#768a81" stroke-linecap="round" stroke-linejoin="round" stroke-width="1.079"/>
  </g>
</svg>
