<svg xmlns="http://www.w3.org/2000/svg" width="83.051" height="62.196" viewBox="0 0 83.051 62.196">
  <g id="Grupo_1099490" data-name="Grupo 1099490" transform="translate(-178.051 -1830)">
    <path id="Trazado_113538" data-name="Trazado 113538" d="M71.648,11.2c-3.267,0-4.879-2.7-6.174-4.862C64.161,4.142,63.272,2.8,61.6,2.8s-2.56,1.344-3.869,3.536C56.436,8.5,54.823,11.2,51.558,11.2s-4.879-2.7-6.174-4.862c-1.311-2.192-2.2-3.536-3.87-3.536s-2.558,1.344-3.869,3.536C36.349,8.5,34.736,11.2,31.471,11.2S26.594,8.5,25.3,6.334C23.989,4.142,23.1,2.8,21.433,2.8s-2.557,1.344-3.867,3.536C16.27,8.5,14.659,11.2,11.394,11.2S6.518,8.5,5.223,6.334C3.912,4.142,3.025,2.8,1.355,2.8A1.377,1.377,0,0,1,0,1.4,1.378,1.378,0,0,1,1.355,0C4.619,0,6.231,2.7,7.527,4.863,8.836,7.054,9.724,8.4,11.394,8.4s2.557-1.344,3.867-3.534C16.557,2.7,18.169,0,21.433,0s4.876,2.7,6.17,4.862C28.913,7.054,29.8,8.4,31.471,8.4s2.558-1.344,3.869-3.536C36.635,2.7,38.248,0,41.513,0s4.878,2.7,6.174,4.862C49,7.054,49.885,8.4,51.558,8.4s2.558-1.344,3.869-3.536C56.72,2.7,58.335,0,61.6,0s4.881,2.7,6.176,4.862c1.312,2.192,2.2,3.536,3.872,3.536s2.561-1.344,3.873-3.536C76.816,2.7,78.43,0,81.7,0a1.377,1.377,0,0,1,1.354,1.4A1.376,1.376,0,0,1,81.7,2.8c-1.673,0-2.561,1.344-3.873,3.536C76.528,8.5,74.916,11.2,71.648,11.2Z" transform="translate(261.102 1880.195) rotate(180)" fill="#869a8a"/>
    <path id="Trazado_126924" data-name="Trazado 126924" d="M71.648,11.2c-3.267,0-4.879-2.7-6.174-4.862C64.161,4.142,63.272,2.8,61.6,2.8s-2.56,1.344-3.869,3.536C56.436,8.5,54.823,11.2,51.558,11.2s-4.879-2.7-6.174-4.862c-1.311-2.192-2.2-3.536-3.87-3.536s-2.558,1.344-3.869,3.536C36.349,8.5,34.736,11.2,31.471,11.2S26.594,8.5,25.3,6.334C23.989,4.142,23.1,2.8,21.433,2.8s-2.557,1.344-3.867,3.536C16.27,8.5,14.659,11.2,11.394,11.2S6.518,8.5,5.223,6.334C3.912,4.142,3.025,2.8,1.355,2.8A1.377,1.377,0,0,1,0,1.4,1.378,1.378,0,0,1,1.355,0C4.619,0,6.231,2.7,7.527,4.863,8.836,7.054,9.724,8.4,11.394,8.4s2.557-1.344,3.867-3.534C16.557,2.7,18.169,0,21.433,0s4.876,2.7,6.17,4.862C28.913,7.054,29.8,8.4,31.471,8.4s2.558-1.344,3.869-3.536C36.635,2.7,38.248,0,41.513,0s4.878,2.7,6.174,4.862C49,7.054,49.885,8.4,51.558,8.4s2.558-1.344,3.869-3.536C56.72,2.7,58.335,0,61.6,0s4.881,2.7,6.176,4.862c1.312,2.192,2.2,3.536,3.872,3.536s2.561-1.344,3.873-3.536C76.816,2.7,78.43,0,81.7,0a1.377,1.377,0,0,1,1.354,1.4A1.376,1.376,0,0,1,81.7,2.8c-1.673,0-2.561,1.344-3.873,3.536C76.528,8.5,74.916,11.2,71.648,11.2Z" transform="translate(261.102 1854.195) rotate(180)" fill="#869a8a"/>
    <path id="Trazado_126938" data-name="Trazado 126938" d="M71.648,11.2c-3.267,0-4.879-2.7-6.174-4.862C64.161,4.142,63.272,2.8,61.6,2.8s-2.56,1.344-3.869,3.536C56.436,8.5,54.823,11.2,51.558,11.2s-4.879-2.7-6.174-4.862c-1.311-2.192-2.2-3.536-3.87-3.536s-2.558,1.344-3.869,3.536C36.349,8.5,34.736,11.2,31.471,11.2S26.594,8.5,25.3,6.334C23.989,4.142,23.1,2.8,21.433,2.8s-2.557,1.344-3.867,3.536C16.27,8.5,14.659,11.2,11.394,11.2S6.518,8.5,5.223,6.334C3.912,4.142,3.025,2.8,1.355,2.8A1.377,1.377,0,0,1,0,1.4,1.378,1.378,0,0,1,1.355,0C4.619,0,6.231,2.7,7.527,4.863,8.836,7.054,9.724,8.4,11.394,8.4s2.557-1.344,3.867-3.534C16.557,2.7,18.169,0,21.433,0s4.876,2.7,6.17,4.862C28.913,7.054,29.8,8.4,31.471,8.4s2.558-1.344,3.869-3.536C36.635,2.7,38.248,0,41.513,0s4.878,2.7,6.174,4.862C49,7.054,49.885,8.4,51.558,8.4s2.558-1.344,3.869-3.536C56.72,2.7,58.335,0,61.6,0s4.881,2.7,6.176,4.862c1.312,2.192,2.2,3.536,3.872,3.536s2.561-1.344,3.873-3.536C76.816,2.7,78.43,0,81.7,0a1.377,1.377,0,0,1,1.354,1.4A1.376,1.376,0,0,1,81.7,2.8c-1.673,0-2.561,1.344-3.873,3.536C76.528,8.5,74.916,11.2,71.648,11.2Z" transform="translate(261.102 1892.195) rotate(180)" fill="#869a8a"/>
    <path id="Trazado_113539" data-name="Trazado 113539" d="M71.648,11.2c-3.267,0-4.879-2.7-6.174-4.862C64.161,4.142,63.272,2.8,61.6,2.8s-2.56,1.344-3.869,3.536C56.436,8.5,54.823,11.2,51.558,11.2s-4.879-2.7-6.174-4.862c-1.311-2.192-2.2-3.536-3.87-3.536s-2.558,1.344-3.869,3.536C36.349,8.5,34.736,11.2,31.471,11.2S26.594,8.5,25.3,6.334C23.989,4.142,23.1,2.8,21.433,2.8s-2.557,1.344-3.867,3.536C16.27,8.5,14.659,11.2,11.394,11.2S6.518,8.5,5.223,6.334C3.912,4.142,3.025,2.8,1.355,2.8A1.377,1.377,0,0,1,0,1.4,1.378,1.378,0,0,1,1.355,0C4.619,0,6.231,2.7,7.527,4.863,8.836,7.054,9.724,8.4,11.394,8.4s2.557-1.344,3.867-3.534C16.557,2.7,18.169,0,21.433,0s4.876,2.7,6.17,4.862C28.913,7.054,29.8,8.4,31.471,8.4s2.558-1.344,3.869-3.536C36.635,2.7,38.248,0,41.513,0s4.878,2.7,6.174,4.862C49,7.054,49.885,8.4,51.558,8.4s2.558-1.344,3.869-3.536C56.72,2.7,58.335,0,61.6,0s4.881,2.7,6.176,4.862c1.312,2.192,2.2,3.536,3.872,3.536s2.561-1.344,3.873-3.536C76.816,2.7,78.43,0,81.7,0a1.377,1.377,0,0,1,1.354,1.4A1.376,1.376,0,0,1,81.7,2.8c-1.673,0-2.561,1.344-3.873,3.536C76.528,8.5,74.916,11.2,71.648,11.2Z" transform="translate(261.102 1867.195) rotate(180)" fill="#869a8a"/>
    <path id="Trazado_126923" data-name="Trazado 126923" d="M71.648,11.2c-3.267,0-4.879-2.7-6.174-4.862C64.161,4.142,63.272,2.8,61.6,2.8s-2.56,1.344-3.869,3.536C56.436,8.5,54.823,11.2,51.558,11.2s-4.879-2.7-6.174-4.862c-1.311-2.192-2.2-3.536-3.87-3.536s-2.558,1.344-3.869,3.536C36.349,8.5,34.736,11.2,31.471,11.2S26.594,8.5,25.3,6.334C23.989,4.142,23.1,2.8,21.433,2.8s-2.557,1.344-3.867,3.536C16.27,8.5,14.659,11.2,11.394,11.2S6.518,8.5,5.223,6.334C3.912,4.142,3.025,2.8,1.355,2.8A1.377,1.377,0,0,1,0,1.4,1.378,1.378,0,0,1,1.355,0C4.619,0,6.231,2.7,7.527,4.863,8.836,7.054,9.724,8.4,11.394,8.4s2.557-1.344,3.867-3.534C16.557,2.7,18.169,0,21.433,0s4.876,2.7,6.17,4.862C28.913,7.054,29.8,8.4,31.471,8.4s2.558-1.344,3.869-3.536C36.635,2.7,38.248,0,41.513,0s4.878,2.7,6.174,4.862C49,7.054,49.885,8.4,51.558,8.4s2.558-1.344,3.869-3.536C56.72,2.7,58.335,0,61.6,0s4.881,2.7,6.176,4.862c1.312,2.192,2.2,3.536,3.872,3.536s2.561-1.344,3.873-3.536C76.816,2.7,78.43,0,81.7,0a1.377,1.377,0,0,1,1.354,1.4A1.376,1.376,0,0,1,81.7,2.8c-1.673,0-2.561,1.344-3.873,3.536C76.528,8.5,74.916,11.2,71.648,11.2Z" transform="translate(261.102 1841.195) rotate(180)" fill="#869a8a"/>
  </g>
</svg>
