<svg xmlns="http://www.w3.org/2000/svg" xmlns:xlink="http://www.w3.org/1999/xlink" width="348.116" height="291.33" viewBox="0 0 348.116 291.33">
  <defs>
    <clipPath id="clip-path">
      <rect id="Rect치ngulo_401716" data-name="Rect치ngulo 401716" width="291.764" height="238.967" fill="none"/>
    </clipPath>
  </defs>
  <g id="Grupo_1099856" data-name="Grupo 1099856" transform="translate(-205.814 -1960)">
    <path id="Trazado_873686" data-name="Trazado 873686" d="M63.732,290.937C25.744,295.381-6.3,261.567,1.059,223.981q.28-1.43.607-2.9C15.594,158.441,77.366,171.26,65.138,85.3S166.186-32.867,209.113,41.576c48.183,83.556,111.158,61.675,131.962,110.14,25.04,58.336-19.72,132.3-86.687,127.508-49.774-3.565-145.026,6.375-190.655,11.713" transform="translate(205.814 1959.999)" fill="#feedda" fill-rule="evenodd"/>
    <g id="Grupo_1099855" data-name="Grupo 1099855" transform="translate(233.813 1986)">
      <g id="Grupo_1099854" data-name="Grupo 1099854" clip-path="url(#clip-path)">
        <path id="Trazado_874506" data-name="Trazado 874506" d="M232.506,124.9a13.3,13.3,0,0,0-22.459-3.342l-4.77-.729,2.532,4.58a13.3,13.3,0,1,0,24.7-.509" transform="translate(-72.05 -40.99)" fill="#9595e7"/>
        <path id="Trazado_874507" data-name="Trazado 874507" d="M231.232,144.925h-12.65a.325.325,0,0,1,0-.649h12.65a.325.325,0,0,1,0,.649" transform="translate(-76.606 -50.639)" fill="#fff"/>
        <path id="Trazado_874508" data-name="Trazado 874508" d="M231.232,138.376h-12.65a.325.325,0,0,1,0-.649h12.65a.325.325,0,0,1,0,.649" transform="translate(-76.606 -48.341)" fill="#fff"/>
        <path id="Trazado_874509" data-name="Trazado 874509" d="M231.232,131.279h-12.65a.325.325,0,0,1,0-.649h12.65a.325.325,0,0,1,0,.649" transform="translate(-76.606 -45.85)" fill="#fff"/>
        <path id="Trazado_874510" data-name="Trazado 874510" d="M216.989,62.926a23.746,23.746,0,0,0,38.136,13.723l8.093,2.95-2.824-8.9a23.738,23.738,0,1,0-43.405-7.769" transform="translate(-75.989 -12.077)" fill="#766ccc"/>
        <path id="Trazado_874511" data-name="Trazado 874511" d="M247.025,76.625H246.2a3.628,3.628,0,0,1,0-7.248h.821a3.628,3.628,0,0,1,0,7.248m-.821-6.6a2.98,2.98,0,0,0,0,5.95h.821a2.98,2.98,0,0,0,0-5.95Zm1.331-2.2h-.051a4.62,4.62,0,0,1-1.861-.339,3.079,3.079,0,0,1-1.689-2.715l-.561-3.753a.321.321,0,0,1,.078-.263l.31-.349a.323.323,0,0,1,.217-.108,11.77,11.77,0,0,0,4.6-1.024,2.015,2.015,0,0,0,1.2-1.8,1.533,1.533,0,0,0-.625-1.313c-1.369-1.025-2.853-.482-4.425.093a7.228,7.228,0,0,1-3.446.67,3.4,3.4,0,0,1-2.86-3.972,4.46,4.46,0,0,1,2.253-2.938,14.52,14.52,0,0,1,7.02-1.638,13.4,13.4,0,0,1,4.02.579,9.457,9.457,0,0,1,3.173,1.669,7.672,7.672,0,0,1,2.087,2.673,9.207,9.207,0,0,1,.141,6.926,7.259,7.259,0,0,1-1.668,2.4,8.976,8.976,0,0,1-2.473,1.631,14.133,14.133,0,0,1-2.614.741c-.192.042-.382.083-.565.125,0,.1.012.219.018.334.012.236.023.457.021.5a1.683,1.683,0,0,1-.743,1.518,3.014,3.014,0,0,1-1.551.35m-3.5-6.753.539,3.6c.167,1.113.435,1.833,1.309,2.217a4,4,0,0,0,1.6.284,2.522,2.522,0,0,0,1.262-.257c.293-.177.4-.435.429-.99,0-.045-.01-.236-.02-.44-.043-.794-.047-.878.228-.94s.542-.125.828-.187a13.643,13.643,0,0,0,2.486-.7A8.353,8.353,0,0,0,255,62.15a6.613,6.613,0,0,0,1.517-2.183,8.566,8.566,0,0,0-.132-6.388,7,7,0,0,0-1.912-2.449,8.805,8.805,0,0,0-2.956-1.554,12.785,12.785,0,0,0-3.825-.548A13.871,13.871,0,0,0,241,50.576a3.82,3.82,0,0,0-1.942,2.492,2.757,2.757,0,0,0,2.315,3.216,6.7,6.7,0,0,0,3.129-.638c1.664-.609,3.387-1.239,5.038,0a2.173,2.173,0,0,1,.885,1.833,2.668,2.668,0,0,1-1.519,2.355,11.9,11.9,0,0,1-4.742,1.1Z" transform="translate(-83.663 -16.98)" fill="#fff"/>
        <path id="Trazado_874512" data-name="Trazado 874512" d="M53.363,141.952l10.079-.994L96.56,153.376l14.829-4.3c1.978.642,3.743,1.27,5.336,1.89.029-.165,9.845,3.387,10.4,3.625a64.943,64.943,0,0,1,20.137,13.22A41.989,41.989,0,0,1,159.7,193.288c.674,6.626-.461,13.4-.587,20.062q-.211,11.256-.153,22.513.119,22.515,1.32,45.007a5.888,5.888,0,0,1-.35,2.958c-1.465,2.939-15.334,3.622-18.255,3.729-6.608.242-106.4-.01-108.374,0L30.68,210.13S4.961,193.888,4.98,193.34s.043-1.063.073-1.587c1.5-26.189,22.2-47.228,48.31-49.8" transform="translate(-1.748 -49.475)" fill="#5353b8"/>
        <rect id="Rect치ngulo_401715" data-name="Rect치ngulo 401715" width="34.677" height="124.773" transform="translate(75.963 113.407)" fill="#f4f2ed"/>
        <path id="Trazado_874513" data-name="Trazado 874513" d="M195.312,240.607a.325.325,0,0,1-.325-.324V219.405a.325.325,0,0,1,.649,0v20.877a.325.325,0,0,1-.325.324" transform="translate(-68.439 -76.895)" fill="#29297f"/>
        <path id="Trazado_874514" data-name="Trazado 874514" d="M161.585,37.154c-2.177-6.936-9.28-6.048-12.946-5.068a19.12,19.12,0,0,0-2.238.734c-2.944-.349-10.778-5.474-14.65-8.112l-.373-.255c-1.141-.781-1.859-1.292-1.859-1.292l-1.06,19.8s-2.911,8.492-4.8,7.4a9.326,9.326,0,0,0-4.239-1.244l-7.89-.363-4.185-.192a9.286,9.286,0,0,0-2.429.213,9.483,9.483,0,0,0-7.419,8.77l-.034.754a10.316,10.316,0,0,0,9.8,10.746l1.827.084L98.712,100.781c-2.747,9.571,5.1,17.725,14.822,20.516l.4.116a18.3,18.3,0,0,0,22.674-12.328l3.722-12.97c11.557-.982,20.711-10.906,20.856-23.12l.4-33.389c0-.092,0-2.359,0-2.451" transform="translate(-34.205 -8.129)" fill="#d96448"/>
        <path id="Trazado_874515" data-name="Trazado 874515" d="M151.34,127.924s-19.751-3.984-21.277-11.752h0s-4.637,13.691,17.512,25.125Z" transform="translate(-45.413 -39.563)" fill="#bb432a"/>
        <path id="Trazado_874516" data-name="Trazado 874516" d="M110.8,103.077,118.905,94h-5.128Z" transform="translate(-38.889 -32.992)" fill="#0b1126"/>
        <path id="Trazado_874517" data-name="Trazado 874517" d="M172.945,12.607a14.306,14.306,0,0,0-.484-3.327A10.1,10.1,0,0,0,169.9,4.7C166.124.974,158.759.877,154.441,3.692c-1.445.942-2.338,2.4-3.506,3.628.191-.119.1-1.258.091-1.475a5.641,5.641,0,0,0-.254-1.415,5.343,5.343,0,0,0-1.43-2.262,8.521,8.521,0,0,0-5.011-2.1c-4.681-.484-8.715,1.828-11.837,5.125-.223.235-.458.557-.324.852-.631-1.393-3.04-1.658-4.363-1.7a11.263,11.263,0,0,0-5.393,1.3,22.418,22.418,0,0,0-6.367,5.1,21.179,21.179,0,0,0-4.022,6.558c-.032.088-.055.178-.086.265-3.324,1.29-6.4,4.82-8.27,8.536a10.931,10.931,0,0,0-1,7.591,18.449,18.449,0,0,0,3.974,6.955,9.284,9.284,0,0,1,2.428-.214l4.185.193,5.24.241a22.448,22.448,0,0,0,2.767,7.221l-.4,9.78a3.882,3.882,0,0,1-.911,2.336h0a20.743,20.743,0,0,0,15.335,30.514l1.408.2a3.865,3.865,0,0,0,1.111.286l9.884,1.021A14.328,14.328,0,0,0,163.487,78l-.525-17.24-.8,1.438a1.529,1.529,0,0,1-2.531.208,6.608,6.608,0,0,0-4.489-2.459l-9.967-1.036a11.369,11.369,0,0,0-5.858.948l-1.231.778a5.582,5.582,0,0,1-8.563-4.837c.045-2.31.377-9.054.565-14.378,1.6-6.528,2.857-14.715,1.648-22.683a61.452,61.452,0,0,0,16.955,9.613A25.74,25.74,0,0,0,159.665,30.3a13.749,13.749,0,0,0,9.931-5.328c2.572-3.427,3.475-8.139,3.349-12.366" transform="translate(-35.929 0)" fill="#0b1126"/>
        <path id="Trazado_874518" data-name="Trazado 874518" d="M109.977,72.823l3.2,4.2-3.464,1.88" transform="translate(-38.508 -25.56)" fill="#d96448"/>
        <path id="Trazado_874519" data-name="Trazado 874519" d="M109.364,79.2a.649.649,0,0,1-.31-1.219l2.8-1.519-2.742-3.595a.649.649,0,1,1,1.032-.787l3.2,4.2a.649.649,0,0,1-.207.964l-3.464,1.88a.649.649,0,0,1-.309.079" transform="translate(-38.157 -25.209)" fill="#bb432a"/>
        <path id="Trazado_874520" data-name="Trazado 874520" d="M154.771,56.2a6.531,6.531,0,0,0,2.7-.275c.94-.223,1.89-.424,2.721-.57s1.795-.282,2.754-.392a6.5,6.5,0,0,0,2.627-.663c.661-.428.8-1.345-.234-2.261a7.484,7.484,0,0,0-6.01-1.18,7.263,7.263,0,0,0-5.18,3.148c-.624,1.207-.156,2.017.62,2.192" transform="translate(-54.004 -17.801)" fill="#0b1126"/>
        <path id="Trazado_874521" data-name="Trazado 874521" d="M186.4,56.338a4.506,4.506,0,0,1,2.082.426c.71.262,1.43.5,2.065.689s1.373.371,2.111.533a4.493,4.493,0,0,1,1.98.765c.469.423.473,1.242-.439,1.98a5.494,5.494,0,0,1-4.837.633,5.392,5.392,0,0,1-3.7-3.132c-.352-1.109.106-1.793.734-1.894" transform="translate(-65.123 -19.765)" fill="#0b1126"/>
        <path id="Trazado_874522" data-name="Trazado 874522" d="M172.478,102.017h-.043l-5.872-.387a4.869,4.869,0,0,1-4.274-4.493.649.649,0,1,1,1.289-.153,3.579,3.579,0,0,0,3.07,3.351l5.871.387a.649.649,0,0,1-.042,1.3" transform="translate(-56.96 -33.839)" fill="#bb432a"/>
        <path id="Trazado_874523" data-name="Trazado 874523" d="M165.9,69.3a6.379,6.379,0,0,0-5.354-6.156,6.8,6.8,0,0,0-1.942-.109c-2.826.241-4.828,2.3-6.047,4.082a2.308,2.308,0,0,0,1.345,3.537c.487.118.974.219,1.459.308a3.769,3.769,0,0,1-.212-1.413,4.54,4.54,0,0,1,9.029.411,3.769,3.769,0,0,1-.386,1.49c.273-.014.528-.03.753-.046a1.5,1.5,0,0,0,1.39-1.523c0-.182-.018-.379-.036-.583" transform="translate(-53.404 -22.116)" fill="#fff"/>
        <path id="Trazado_874524" data-name="Trazado 874524" d="M161.464,67.077a4.328,4.328,0,0,0-4.7,3.9,3.753,3.753,0,0,0,.212,1.412,37.148,37.148,0,0,0,8.431.489,3.764,3.764,0,0,0,.386-1.49,4.327,4.327,0,0,0-4.327-4.31" transform="translate(-55.021 -23.542)" fill="#0b1126"/>
        <path id="Trazado_874525" data-name="Trazado 874525" d="M193.81,72.345a5.082,5.082,0,0,0-4.265-4.9A5.4,5.4,0,0,0,188,67.354a6.806,6.806,0,0,0-4.818,3.252,1.838,1.838,0,0,0,1.071,2.818c.406.1.811.182,1.214.255a3,3,0,0,1-.177-1.151,3.616,3.616,0,0,1,7.192.328,3.007,3.007,0,0,1-.313,1.2c.2-.011.395-.023.564-.035a1.19,1.19,0,0,0,1.107-1.213c0-.144-.014-.3-.029-.464" transform="translate(-64.182 -23.633)" fill="#fff"/>
        <path id="Trazado_874526" data-name="Trazado 874526" d="M190.345,70.551a3.449,3.449,0,0,0-3.745,3.106,3,3,0,0,0,.178,1.151,29.662,29.662,0,0,0,6.7.377,3,3,0,0,0,.314-1.2,3.448,3.448,0,0,0-3.448-3.433" transform="translate(-65.494 -24.761)" fill="#0b1126"/>
        <path id="Trazado_874527" data-name="Trazado 874527" d="M178.718,58.273l2.475,14.969a1.268,1.268,0,0,1-.208.936c-.69.992-2.767,3.034-7.582,1.516" transform="translate(-60.862 -20.453)" fill="#d96448"/>
        <path id="Trazado_874528" data-name="Trazado 874528" d="M176.232,76.536a11.258,11.258,0,0,1-3.375-.574.649.649,0,1,1,.39-1.238c4.42,1.4,6.267-.421,6.854-1.268a.619.619,0,0,0,.1-.459l-2.475-14.969a.649.649,0,1,1,1.28-.211l2.475,14.967a1.913,1.913,0,0,1-.315,1.413,5.731,5.731,0,0,1-4.935,2.338" transform="translate(-60.511 -20.102)" fill="#bb432a"/>
        <path id="Trazado_874529" data-name="Trazado 874529" d="M135.3,140.653a1.95,1.95,0,0,0-2.739-.138l-10.216,9.139-25.3-20.177a2.816,2.816,0,0,0-3.662.129l-10.69,9.837a2.423,2.423,0,0,0-.13,3.437l23.661,25.343a1.713,1.713,0,0,0,2.611-.127l13.559-17.684,14.161,15.955a1.123,1.123,0,0,0,1.942-.533l3.446-17.918Z" transform="translate(-28.748 -45.23)" fill="#fff"/>
        <path id="Trazado_874530" data-name="Trazado 874530" d="M150.446,175.8l-7.534,11.65a2.893,2.893,0,0,1-4.475.473l-11.314-11.329,11.136-14.524Z" transform="translate(-44.619 -56.884)" fill="#0b1126"/>
        <path id="Trazado_874531" data-name="Trazado 874531" d="M123.177,238.69,136.8,232.5a22.808,22.808,0,0,1,13.672-1.7l14.88,2.783c2.135.4,5.263,1.048,6.837,2.666l21.674,12.016a2.368,2.368,0,0,1,.887,3.448l-.053.079a4.806,4.806,0,0,1-6.264,1.518L177.36,247.3l.453.438a4.983,4.983,0,0,1,1.256,4.851l-.841,3.128.147,1.367a5.148,5.148,0,0,1-2.064,4.753l-14.154,9.929a1.655,1.655,0,0,1-2.478-.7,5.884,5.884,0,0,1,1.58-7.076l4.494-3.506-12.947,3.834a12.669,12.669,0,0,1-6.5.2l-6.924-1.619-11.331,8.519Z" transform="translate(-43.234 -80.873)" fill="#d96448"/>
        <path id="Trazado_874532" data-name="Trazado 874532" d="M202.08,254a.322.322,0,0,1-.191-.062l-7.427-5.391a.325.325,0,1,1,.382-.525l7.427,5.391a.324.324,0,0,1-.191.587" transform="translate(-68.207 -87.032)" fill="#bb432a"/>
        <path id="Trazado_874533" data-name="Trazado 874533" d="M202.265,266.028a.322.322,0,0,1-.174-.051L192.666,260a.324.324,0,0,1,.347-.548l9.426,5.973a.324.324,0,0,1-.174.6" transform="translate(-67.571 -91.049)" fill="#bb432a"/>
        <path id="Trazado_874534" data-name="Trazado 874534" d="M188.6,275.859a.324.324,0,0,1-.186-.591l2.727-1.9a.325.325,0,0,1,.371.533l-2.727,1.9a.32.32,0,0,1-.186.058" transform="translate(-66.084 -95.928)" fill="#bb432a"/>
        <path id="Trazado_874535" data-name="Trazado 874535" d="M5.712,208.53l38.745,3.124.11,14.485,44.616-6.632a2.352,2.352,0,0,1,2.584,1.946l8.795,40.674a3.491,3.491,0,0,1-2.62,4.256c-8.454,1.409-25.041,4.4-42.3,7.185-8.3,1.338-16.758,2.625-24.542,3.663a25.34,25.34,0,0,1-12.977-1.647C7.163,271.13-.615,259.242.038,245.335c.21-4.472.455-8.508.737-11.494.8-8.442,2.593-16.868,3.391-25.311" transform="translate(0 -73.192)" fill="#5353b8"/>
        <path id="Trazado_874536" data-name="Trazado 874536" d="M67.254,220.456h-.013a.325.325,0,0,1-.312-.337l1.09-27.689a.318.318,0,0,1,.337-.312.326.326,0,0,1,.312.337l-1.09,27.689a.325.325,0,0,1-.325.312" transform="translate(-23.492 -67.432)" fill="#29297f"/>
        <path id="Trazado_874537" data-name="Trazado 874537" d="M53.433,235.238a.324.324,0,0,1-.053-.644l41.17-6.832a.325.325,0,0,1,.106.641l-41.17,6.831a.307.307,0,0,1-.054,0" transform="translate(-18.641 -79.941)" fill="#29297f"/>
        <path id="Trazado_874538" data-name="Trazado 874538" d="M34.877,311.232a19.356,19.356,0,0,1-10.071-2.846.325.325,0,1,1,.339-.554,18.591,18.591,0,0,0,12.371,2.558l47.049-7.375a.324.324,0,0,1,.1.641l-47.052,7.375a18.884,18.884,0,0,1-2.736.2" transform="translate(-8.652 -106.354)" fill="#29297f"/>
        <path id="Trazado_874539" data-name="Trazado 874539" d="M374.662,149.586a4.989,4.989,0,0,0,1.772-2.628c.177-.484.329-.973.469-1.465a18.8,18.8,0,0,0,1.239-19.464,18.586,18.586,0,0,0-8.591-7.9q-.69-.316-1.405-.578a18.4,18.4,0,0,0-4.424-1.03c-1.044-.109-2.034-.087-2.954-.274a8.314,8.314,0,0,1-1.5-1.356c-2.959-3.5-1.675-8.627-1.394-13.155a24.834,24.834,0,0,0-1.437-9.845,11.516,11.516,0,1,0-14.176-16.511,27.777,27.777,0,0,0-2.468-1.411c-13.585-6.849-34.3-3.021-42.626,10.482-2.877,4.667-3.374,10.381-3.572,15.86a13.979,13.979,0,0,1-1.077,5.987c-1.541,2.975-4.269,4.857-5.4,8.109a15.152,15.152,0,0,0,.389,10.746,24.131,24.131,0,0,0,3.028,4.685c.561.781,1.78,2.39,1.452,3.535-.105.177-.2.356-.3.533l-.008.01v0a21.61,21.61,0,0,0-2.753,13.2c.909,7.665,5.918,14,13.007,17.671,8.673,4.5,17.176,9.28,24.664,15.086,6.264,4.856,15.151,7.22,24.509,5.652,13.493-2.26,23.8-12.5,24.366-24.09a19.606,19.606,0,0,0-.486-5.546c-.385-1.588-1.328-3.1-1.214-4.788a4.686,4.686,0,0,1,.262-1.207,3.221,3.221,0,0,0,.636-.31" transform="translate(-100.493 -24.449)" fill="#0b1126"/>
        <path id="Trazado_874540" data-name="Trazado 874540" d="M253.624,252.219c-1.85-46.561,40.812-52.058,40.812-52.058l0,.192,11.734.04,15.611,7.3,15.1-9.681,13.656,2.9s30.585,7.363,29.5,45.089a1.587,1.587,0,0,1-1.326,1.514l-12.636,12.678-4.667,34.883c2.133,4.31,5.761,12.654,5.761,12.654H255.409Z" transform="translate(-88.999 -69.501)" fill="#ffd563"/>
        <path id="Trazado_874541" data-name="Trazado 874541" d="M357.938,198.014l-1.4,109.716H314.754l-1.192-107.22" transform="translate(-110.057 -69.501)" fill="#f4f2ed"/>
        <path id="Trazado_874542" data-name="Trazado 874542" d="M337.441,216.788l.391-.009c9.413-.223,18.409-5.588,18.216-14.625l-.284-4.724a4.228,4.228,0,0,0-3.288-3.871l-14.488-3.277-15.569,5.274a3.652,3.652,0,0,0-2.48,3.538l.036,1.668c.194,9.037,8.054,16.25,17.467,16.028" transform="translate(-112.295 -66.787)" fill="#ffd563"/>
        <path id="Trazado_874543" data-name="Trazado 874543" d="M346.271,259.69a.325.325,0,0,1-.324-.324V232.991a.325.325,0,1,1,.649,0v26.375a.325.325,0,0,1-.325.324" transform="translate(-121.424 -81.664)" fill="#ffd563"/>
        <path id="Trazado_874544" data-name="Trazado 874544" d="M334.7,237.537a1.946,1.946,0,1,1,1.968-1.945,1.959,1.959,0,0,1-1.968,1.945m0-3.242a1.3,1.3,0,1,0,1.319,1.3,1.31,1.31,0,0,0-1.319-1.3" transform="translate(-116.785 -82.007)" fill="#ffd563"/>
        <path id="Trazado_874545" data-name="Trazado 874545" d="M334.393,253.509a1.946,1.946,0,1,1,1.968-1.946,1.959,1.959,0,0,1-1.968,1.946m0-3.242a1.3,1.3,0,1,0,1.319,1.3,1.31,1.31,0,0,0-1.319-1.3" transform="translate(-116.678 -87.614)" fill="#ffd563"/>
        <path id="Trazado_874546" data-name="Trazado 874546" d="M312.687,286.312l-11.253-5.944a19.406,19.406,0,0,0-11.524-2.138l-12.777,1.612c-1.833.231-4.523.623-5.94,1.918l-19.013,9.109a2.016,2.016,0,0,0-.927,2.884l.042.069a4.089,4.089,0,0,0,5.243,1.606l9.7-4.546-.407.349a4.24,4.24,0,0,0-1.312,4.056l.556,2.7-.194,1.155a4.38,4.38,0,0,0,1.513,4.14l11.519,9.146a1.408,1.408,0,0,0,2.14-.471,5.006,5.006,0,0,0-.985-6.088l-3.639-3.2,10.8,3.91a10.778,10.778,0,0,0,5.51.5l5.962-1.025,9.193,7.807Z" transform="translate(-88.086 -97.603)" fill="#ff9278"/>
        <path id="Trazado_874547" data-name="Trazado 874547" d="M274.637,295.995a.325.325,0,0,1-.175-.6l6.58-4.2a.324.324,0,1,1,.35.546l-6.58,4.2a.323.323,0,0,1-.175.051" transform="translate(-96.281 -102.188)" fill="#ff6a48"/>
        <path id="Trazado_874548" data-name="Trazado 874548" d="M272.94,306.2a.324.324,0,0,1-.157-.608l8.306-4.6a.324.324,0,0,1,.314.568l-8.306,4.6a.335.335,0,0,1-.157.04" transform="translate(-95.685 -105.631)" fill="#ff6a48"/>
        <path id="Trazado_874549" data-name="Trazado 874549" d="M287.283,315.161a.327.327,0,0,1-.2-.069l-2.219-1.756a.325.325,0,1,1,.4-.509l2.219,1.755a.325.325,0,0,1-.2.58" transform="translate(-99.941 -109.775)" fill="#ff6a48"/>
        <path id="Trazado_874550" data-name="Trazado 874550" d="M399.857,266.921l-33.061.7-.826,12.3-37.553-7.886a2,2,0,0,0-2.293,1.522l-9.524,34.1a2.969,2.969,0,0,0,2.01,3.747c7.108,1.624,21.043,5.005,35.562,8.239,6.981,1.555,14.1,3.076,20.656,4.35a21.561,21.561,0,0,0,11.1-.743c9.529-3.229,16.735-12.932,16.883-24.775.047-3.808.044-7.249-.045-9.8-.252-7.21-.389-14.92-.641-22.13" transform="translate(-111.082 -93.551)" fill="#ffd563"/>
        <path id="Trazado_874551" data-name="Trazado 874551" d="M393.63,274.287h-.007a.325.325,0,0,1-.318-.331l.473-23.569a.33.33,0,0,1,.331-.318.324.324,0,0,1,.318.33l-.473,23.569a.325.325,0,0,1-.324.318" transform="translate(-138.047 -87.772)" fill="#d3a739"/>
        <path id="Trazado_874552" data-name="Trazado 874552" d="M394.12,288.185a.312.312,0,0,1-.072-.008l-20.47-4.66a.325.325,0,0,1-.244-.389.32.32,0,0,1,.388-.244l20.47,4.661a.324.324,0,0,1-.072.641" transform="translate(-131.034 -99.287)" fill="#d3a739"/>
        <path id="Trazado_874553" data-name="Trazado 874553" d="M400.826,353.733a16.048,16.048,0,0,1-3.28-.337L376.408,349a.324.324,0,1,1,.132-.635l21.138,4.4a15.784,15.784,0,0,0,10.6-1.543.324.324,0,1,1,.3.573,16.552,16.552,0,0,1-7.759,1.942" transform="translate(-132.025 -122.269)" fill="#d3a739"/>
        <path id="Trazado_874554" data-name="Trazado 874554" d="M348.717,123.333l-7.255.611c-3-.447-6.025-4.65-7.786-10.331a16.533,16.533,0,0,1-8.067-4.518c-4.44,4.357-10.124,7.968-15.776,6.1a21.231,21.231,0,0,1-6.942-3.708c-.032-.026-.056-.06-.088-.087,0,.031-.007.061-.009.092L300.739,140.3a20.219,20.219,0,0,0,15.133,21.277l.158,7.347a14.732,14.732,0,0,0,14.9,14.514l.333-.008c8.02-.189,15.681-5.03,15.5-13.2l-1.655-28.636,3.5.018a8.914,8.914,0,0,0,8.778-8.99v-.206a8.91,8.91,0,0,0-8.679-9.082" transform="translate(-105.537 -38.291)" fill="#ff9278"/>
        <path id="Trazado_874555" data-name="Trazado 874555" d="M374.2,146.262a.644.644,0,0,1-.346-.1l-2.9-1.835a.648.648,0,0,1-.155-.959l2.945-3.6a.649.649,0,1,1,1,.822l-2.48,3.032,2.281,1.443a.649.649,0,0,1-.347,1.2" transform="translate(-130.096 -48.974)" fill="#ff6a48"/>
        <path id="Trazado_874556" data-name="Trazado 874556" d="M374.933,161.668a3.509,3.509,0,0,1-2.255-.824,3.75,3.75,0,0,1,1.937-6.589,3.5,3.5,0,0,1,2.59.809,3.749,3.749,0,0,1-1.938,6.588c-.112.011-.223.016-.334.016m.014-6.78c-.09,0-.18,0-.271.013A3.041,3.041,0,0,0,372,158.233a3.074,3.074,0,0,0,1.092,2.112,2.866,2.866,0,0,0,2.113.661,3.041,3.041,0,0,0,2.675-3.333,3.072,3.072,0,0,0-1.092-2.111,2.865,2.865,0,0,0-1.843-.674" transform="translate(-130.337 -54.136)" fill="#fff"/>
        <path id="Trazado_874557" data-name="Trazado 874557" d="M314.449,138.617a6.889,6.889,0,0,0-4.594-3.673,5.5,5.5,0,0,0-1.568-.038c-.045.006-.085.016-.129.021a3.238,3.238,0,0,1,1.506,2.8,3.489,3.489,0,0,1-3.757,3.182,3.837,3.837,0,0,1-2.388-.925,1.2,1.2,0,0,0,1.018,1.3,29.227,29.227,0,0,0,8.6.088,1.86,1.86,0,0,0,1.31-2.755" transform="translate(-106.53 -47.337)" fill="#fff"/>
        <path id="Trazado_874558" data-name="Trazado 874558" d="M309.667,137.758a3.238,3.238,0,0,0-1.506-2.8,5.139,5.139,0,0,0-4.573,4.577c-.027.163-.051.321-.067.466a.075.075,0,0,1,0,.012,3.835,3.835,0,0,0,2.389.926,3.489,3.489,0,0,0,3.757-3.182" transform="translate(-106.533 -47.369)" fill="#0b1126"/>
        <path id="Trazado_874559" data-name="Trazado 874559" d="M319.936,173.668a.341.341,0,0,0,.236-.008,2.918,2.918,0,0,1,3.287.8.345.345,0,0,0,.5.041.375.375,0,0,0,.04-.514,3.667,3.667,0,0,0-4.083-1.009.37.37,0,0,0-.2.472.358.358,0,0,0,.22.213" transform="translate(-112.209 -60.63)" fill="#ff6a48"/>
        <path id="Trazado_874560" data-name="Trazado 874560" d="M344.361,124.916a4.941,4.941,0,0,1-2.122-.172c-.741-.164-1.49-.31-2.144-.412s-1.413-.195-2.168-.267a4.949,4.949,0,0,1-2.071-.489c-.526-.334-.652-1.077.143-1.839a6.455,6.455,0,0,1,8.81,1.388c.511.968.158,1.635-.448,1.791" transform="translate(-117.734 -42.321)" fill="#0b1126"/>
        <path id="Trazado_874561" data-name="Trazado 874561" d="M304.644,123.773a4.956,4.956,0,0,0,2.129-.009c.751-.106,1.508-.194,2.168-.247s1.423-.086,2.181-.1a4.942,4.942,0,0,0,2.1-.328c.549-.294.728-1.024-.009-1.846a5.743,5.743,0,0,0-4.6-1.427,5.64,5.64,0,0,0-4.284,2.136c-.58.927-.277,1.618.316,1.82" transform="translate(-106.707 -42.046)" fill="#0b1126"/>
        <path id="Trazado_874562" data-name="Trazado 874562" d="M333.335,156.9a1.632,1.632,0,0,0-2.059.059,11.229,11.229,0,0,1-6.661,2.579,1.231,1.231,0,0,0-.972,1.708c.633,1.678,2.452,4.324,6.719,2.61,5.2-2.089,4.554-5.7,2.972-6.956" transform="translate(-113.566 -54.953)" fill="#fff"/>
        <path id="Trazado_874563" data-name="Trazado 874563" d="M323.436,145.473c-1.5.075-2.7.367-4.059-.582a4.232,4.232,0,0,1-1.827-4.272,1.884,1.884,0,0,1,1.5-1.343l1.428-.244.7-6.718" transform="translate(-111.42 -46.441)" fill="#ff9278"/>
        <path id="Trazado_874564" data-name="Trazado 874564" d="M321.3,145.873a4.34,4.34,0,0,1-2.651-.8,4.849,4.849,0,0,1-2.081-4.978,2.533,2.533,0,0,1,2.014-1.809l.944-.161.654-6.229a.649.649,0,1,1,1.29.136l-.7,6.717a.649.649,0,0,1-.536.572l-1.428.245a1.23,1.23,0,0,0-.981.876,3.62,3.62,0,0,0,1.573,3.567,3.966,3.966,0,0,0,2.932.513c.234-.018.474-.036.722-.049a.635.635,0,0,1,.681.617.647.647,0,0,1-.616.68c-.237.012-.466.029-.689.047-.378.028-.751.056-1.122.056" transform="translate(-111.067 -46.091)" fill="#ff6a48"/>
        <path id="Trazado_874565" data-name="Trazado 874565" d="M343.416,137.6c-1.056-1.848-2.858-4.026-5.613-4.488a6.689,6.689,0,0,0-1.917-.047c-.227.027-.44.065-.65.106a4.108,4.108,0,0,1,2.939,3.954,4.264,4.264,0,0,1-4.591,3.888,4.6,4.6,0,0,1-3.522-1.777l0,.018a1.472,1.472,0,0,0,1.244,1.605,35.713,35.713,0,0,0,10.511.108,2.274,2.274,0,0,0,1.6-3.366" transform="translate(-115.845 -46.689)" fill="#fff"/>
        <path id="Trazado_874566" data-name="Trazado 874566" d="M333.591,141.1a4.264,4.264,0,0,0,4.591-3.888,4.108,4.108,0,0,0-2.939-3.954,6.273,6.273,0,0,0-5.1,5.513c-.032.193-.06.378-.079.552a4.6,4.6,0,0,0,3.522,1.777" transform="translate(-115.851 -46.773)" fill="#0b1126"/>
        <path id="Trazado_874567" data-name="Trazado 874567" d="M324.114,185.239s17.132.424,19.863-5.949h0s.987,9.6-19.539,15.111Z" transform="translate(-113.761 -61.935)" fill="#ff6a48"/>
        <path id="Trazado_874568" data-name="Trazado 874568" d="M237.784,325.279A3.482,3.482,0,0,0,234.3,321.8H181.494L155.515,257.49a6.183,6.183,0,0,0-5.732-3.866H63.721a4.03,4.03,0,0,0-3.764,5.471L86.33,327.986l95.958-.42c.023,0,.043-.008.067-.009h55.429Z" transform="translate(-20.95 -89.02)" fill="#0b1126"/>
        <path id="Trazado_874569" data-name="Trazado 874569" d="M262.682,363.8h-6.188a.087.087,0,0,1-.088-.088v-1.416a.088.088,0,0,1,.088-.087h6.188a.087.087,0,0,1,.087.087v1.416a.087.087,0,0,1-.087.088" transform="translate(-89.996 -127.13)" fill="#fff"/>
        <path id="Trazado_874570" data-name="Trazado 874570" d="M279.581,363.8h-6.188a.087.087,0,0,1-.088-.088v-1.416a.087.087,0,0,1,.088-.087h6.188a.088.088,0,0,1,.088.087v1.416a.088.088,0,0,1-.088.088" transform="translate(-95.927 -127.13)" fill="#fff"/>
        <path id="Trazado_874571" data-name="Trazado 874571" d="M141.3,312.075c-2.787,2.787-7.984,2.109-11.608-1.515s-4.3-8.821-1.515-11.608,7.983-2.107,11.608,1.516,4.3,8.821,1.515,11.608" transform="translate(-44.388 -104.327)" fill="#fff"/>
        <path id="Trazado_874572" data-name="Trazado 874572" d="M136.7,313.934a10.762,10.762,0,0,1-7.41-3.32,11.106,11.106,0,0,1-3.253-6.306,6.365,6.365,0,0,1,7.5-7.5,11.1,11.1,0,0,1,6.306,3.254c3.745,3.745,4.424,9.158,1.515,12.067a6.456,6.456,0,0,1-4.657,1.8m-4.266-16.548a5.816,5.816,0,0,0-4.2,1.621c-2.656,2.656-1.976,7.658,1.515,11.149s8.493,4.172,11.149,1.515,1.976-7.658-1.515-11.149a10.124,10.124,0,0,0-6.948-3.136" transform="translate(-44.211 -104.151)" fill="#121936"/>
        <path id="Trazado_874573" data-name="Trazado 874573" d="M136.393,315.05a13.857,13.857,0,0,1-9.537-4.283c-4.811-4.81-5.7-11.746-1.989-15.461s10.652-2.822,15.462,1.989,5.7,11.747,1.989,15.461a8.21,8.21,0,0,1-5.925,2.294m-5.6-21.716a7.889,7.889,0,0,0-5.7,2.2c-3.588,3.588-2.7,10.319,1.989,15s11.415,5.577,15,1.989,2.7-10.318-1.988-15a13.544,13.544,0,0,0-9.306-4.19" transform="translate(-43.022 -102.845)" fill="#fff"/>
      </g>
    </g>
  </g>
</svg>
