<svg xmlns="http://www.w3.org/2000/svg" xmlns:xlink="http://www.w3.org/1999/xlink" width="348.116" height="291.33" viewBox="0 0 348.116 291.33">
  <defs>
    <clipPath id="clip-path">
      <rect id="Rectángulo_401717" data-name="Rectángulo 401717" width="342.788" height="226.073" fill="none"/>
    </clipPath>
  </defs>
  <g id="Grupo_1099859" data-name="Grupo 1099859" transform="translate(-205.814 -2317.001)">
    <path id="Trazado_873687" data-name="Trazado 873687" d="M63.732,290.937C25.744,295.381-6.3,261.567,1.059,223.981q.28-1.43.607-2.9C15.594,158.441,77.366,171.26,65.138,85.3S166.186-32.867,209.113,41.576c48.183,83.556,111.158,61.675,131.962,110.14,25.04,58.336-19.72,132.3-86.687,127.508-49.774-3.565-145.026,6.375-190.655,11.713" transform="translate(205.814 2317)" fill="#feedda" fill-rule="evenodd"/>
    <g id="Grupo_1099858" data-name="Grupo 1099858" transform="translate(211.142 2357.576)">
      <g id="Grupo_1099857" data-name="Grupo 1099857" clip-path="url(#clip-path)">
        <path id="Trazado_874574" data-name="Trazado 874574" d="M492.268,163.777c1.882,2.769,4.747,4.556,2.06,7.089-3,2.827-11.25,11.4-11.25,11.4l7.416,16.275s11.627-11.736,17.716-18.268,9.377-13.259,5.391-20.235-21.334,3.737-21.334,3.737" transform="translate(-194.153 -63.373)" fill="#f2ac30"/>
        <path id="Trazado_874575" data-name="Trazado 874575" d="M491.812,163.664c.8,1.135,1.758,2.152,2.543,3.3,1.069,1.565.273,2.745-.922,3.893-1.448,1.393-2.855,2.826-4.264,4.257q-3.269,3.319-6.5,6.68a.308.308,0,0,0-.047.362q3.709,8.137,7.416,16.276a.3.3,0,0,0,.469.061q4.474-4.518,8.906-9.074,3.476-3.57,6.911-7.176a45.632,45.632,0,0,0,7.015-8.821,14.554,14.554,0,0,0,1.874-9.744c-.41-2.3-1.5-4.984-3.745-6.012-3.8-1.737-8.94.441-12.446,1.94a54.183,54.183,0,0,0-7.1,3.651c-.328.2-.028.72.3.516a53.689,53.689,0,0,1,8.96-4.4,22.014,22.014,0,0,1,7.144-1.653c2.924-.082,4.545,1.289,5.653,3.914,3.454,8.187-3.679,15.569-8.849,21-4.257,4.471-8.58,8.882-12.913,13.278q-1.064,1.081-2.131,2.159l.47.061-7.392-16.223c-.088-.193-.191.434-.011.246l.348-.361q.822-.852,1.645-1.7,2.587-2.671,5.2-5.316,1.269-1.286,2.553-2.557a12.76,12.76,0,0,0,2.14-2.2c1.505-2.549-1.36-4.748-2.707-6.651-.221-.312-.739-.014-.516.3" transform="translate(-193.954 -63.109)" fill="#f2ac30"/>
        <path id="Trazado_874576" data-name="Trazado 874576" d="M411.358,231.236c-.356,4.864-4.694,50.82-7.143,76.681h27l7.378-63.23,6.064,63.23H475.5c-2.208-21.808-5.775-56.65-6.675-63.063-1.33-9.467-3.156-26.186-11.128-39.8-5.481-.831-49.491,9.412-49.491,9.412,1,2.988,3.654,9.964,3.155,16.773" transform="translate(-162.457 -82.392)" fill="#32015c"/>
        <path id="Trazado_874577" data-name="Trazado 874577" d="M406.335,279.948q-1.307,13.881-2.626,27.762h.6q1.825-19.254,3.639-38.51c1.194-12.715,2.569-25.434,3.51-38.171.352-5.742-1.267-11.179-3.066-16.555q9.11-2.116,18.257-4.071c9.1-1.957,18.3-4.126,27.57-5.142.776-.085,2.845-.563,3.272.174a65.659,65.659,0,0,1,5.243,11.88,122.469,122.469,0,0,1,4.842,21.934c1.1,7.636,1.916,15.3,2.732,22.973q2.42,22.737,4.694,45.488h.6q-2.19-21.684-4.467-43.357c-.778-7.355-1.53-14.714-2.532-22.042a157.765,157.765,0,0,0-3.994-20.939,78.918,78.918,0,0,0-4.062-11.275,59.771,59.771,0,0,0-2.791-5.4c-.16-.275-.821-.194-1.086-.195a56.137,56.137,0,0,0-9.622,1.234c-4.928.854-9.832,1.845-14.728,2.862q-11.787,2.45-23.516,5.171l-.877.2a.3.3,0,0,0-.209.368c1.822,5.422,3.5,10.9,3.145,16.694-1.2,16.325-2.985,32.624-4.52,48.92" transform="translate(-162.254 -82.185)" fill="#32015c"/>
        <path id="Trazado_874578" data-name="Trazado 874578" d="M456.84,271.16a.3.3,0,0,0-.6,0q-2.314,19.829-4.627,39.656-1.376,11.787-2.751,23.574h.6q1.41-12.084,2.82-24.167,2.116-18.125,4.23-36.25,1.775,18.5,3.548,36.993l2.246,23.424h.6q-1.166-12.158-2.333-24.316-1.866-19.458-3.732-38.914" transform="translate(-180.402 -108.866)" fill="#32015c"/>
        <path id="Trazado_874579" data-name="Trazado 874579" d="M272.389,83.255c-.663-1.992-3.431-9.855-3.431-9.855s-8.083-5.092-11.626-7.084S252.24,57.458,258,55.8c1.55-2.879,3.919-3.13,5.248-2.356.885-6.532,4.19-7.319,7.843-6.1s5.878,4.356,8.092,9.338,2.732,7.644,4.614,12.626,3.321,8.748,3.321,8.748-4.319,9.078-14.726,5.2" transform="translate(-102.153 -18.834)" fill="#ffd4d4"/>
        <path id="Trazado_874580" data-name="Trazado 874580" d="M277.172,73.992a8.857,8.857,0,1,1-8.857-8.857,8.857,8.857,0,0,1,8.857,8.857" transform="translate(-104.278 -26.178)" fill="#d4336e"/>
        <path id="Trazado_874581" data-name="Trazado 874581" d="M257.023,68.055c1.246,1.411,3.322.664,2.99-2.407,2.075-.167,2.49-3.073,4.4-5.648.831,3.322,2.326,3.737,3.4,3.238s1.993-1.162,2.075-4.234,1-3.9,2.326-3.487,2.492,3.487,4.151,7.307,1.827,6.809-.582,7.389-4.566,1.5-5.977,4.069.249,5.065,4.651,3.156,5.729-4.983,5.729-4.983a44.33,44.33,0,0,0-2.657-14.032c-2.574-6.312-8.388-4.983-8.388-4.983l-6.891,5.149-5.48,5.9" transform="translate(-103.2 -21.431)" fill="#ffd4d4"/>
        <path id="Trazado_874582" data-name="Trazado 874582" d="M424.688,63.087c3.21.277,6.589-3.322,5.813-7.639s-7.585,2.269-7.585,2.269Z" transform="translate(-169.973 -21.695)" fill="#495edb"/>
        <path id="Trazado_874583" data-name="Trazado 874583" d="M424.486,63.166a6.053,6.053,0,0,0,5.51-3.58c.689-1.328,1.483-4.888-.23-5.864-2.284-1.3-5.767,2.125-7.263,3.564a.3.3,0,0,0-.077.291l1.772,5.37c.12.364.7.209.577-.159q-.755-2.291-1.512-4.582l-.236-.715c.02.062-.211.318.106.023.51-.473,1.043-.92,1.587-1.353,1-.795,4.088-3.284,5.108-1.468.861,1.531.075,3.928-.739,5.291a5.208,5.208,0,0,1-4.6,2.585c-.385-.017-.385.581,0,.6" transform="translate(-169.772 -21.475)" fill="#495edb"/>
        <path id="Trazado_874584" data-name="Trazado 874584" d="M370.526,31.231c-.664,4.206-1.44,7.834,2.325,14.587s5.093,15.251,17.493,13.534A43.024,43.024,0,0,1,391.9,65l16.274-3.542-5.2-15.834c6.921-2.046,6.807-6.4,5.589-9.274s-12.01-14.306-15.886-15.3-18.156-.221-22.142,10.186" transform="translate(-148.695 -8.329)" fill="#ffd4d4"/>
        <path id="Trazado_874585" data-name="Trazado 874585" d="M400.892,57.3c1.021-1.141-.843-3.6-1.923-2.561s1.086,3.5,1.923,2.561" transform="translate(-160.23 -21.898)"/>
        <path id="Trazado_874586" data-name="Trazado 874586" d="M381.871,59.8c1.02-1.142-.845-3.6-1.925-2.561s1.088,3.5,1.925,2.561" transform="translate(-152.585 -22.903)"/>
        <path id="Trazado_874587" data-name="Trazado 874587" d="M386.361,62.271a6.458,6.458,0,0,1-3.133-.867c-1.446-.964-1.3-2.349-.975-3.579.7-3.04-.723-5.7-3.913-7.294a.3.3,0,1,1,.267-.535c3.407,1.7,4.988,4.681,4.227,7.974-.344,1.289-.344,2.223.7,2.923a5.862,5.862,0,0,0,2.825.78.3.3,0,0,1,0,.6" transform="translate(-151.991 -20.081)"/>
        <path id="Trazado_874588" data-name="Trazado 874588" d="M392.727,71.217a.3.3,0,0,1-.069-.59,10.9,10.9,0,0,0,6.152-3.944.3.3,0,0,1,.458.385,11.457,11.457,0,0,1-6.471,4.14.278.278,0,0,1-.069.008" transform="translate(-157.72 -26.758)"/>
        <path id="Trazado_874589" data-name="Trazado 874589" d="M404.111,76.891a.3.3,0,0,1-.108-.578,14.479,14.479,0,0,0,5.153-3.526l.251-.286a13.149,13.149,0,0,0,1.858-2.469,24.058,24.058,0,0,0,1.312-2.953,8.76,8.76,0,0,0,.7-2.887.3.3,0,1,1,.6,0,9.262,9.262,0,0,1-.74,3.1,24.648,24.648,0,0,1-1.344,3.025,13.61,13.61,0,0,1-1.938,2.586l-.26.295a15.088,15.088,0,0,1-5.376,3.679.3.3,0,0,1-.108.02" transform="translate(-162.295 -25.679)"/>
        <path id="Trazado_874590" data-name="Trazado 874590" d="M394.455,48.562c-.443-1.439,1.272-2.382,3.709-1.384s2.915,2.11,2.159,1.937c-4.373-1-5.591.056-5.868-.553" transform="translate(-158.507 -18.795)" fill="#495edb"/>
        <path id="Trazado_874591" data-name="Trazado 874591" d="M394.558,48.281c-.489-2.091,2.717-1.284,3.657-.88a6.076,6.076,0,0,1,1.7,1.062l.125.132q.135.376.173.031c-.42-.063-.839-.175-1.258-.248a14.235,14.235,0,0,0-3-.2c-.2.007-1.318.236-1.432.033a.3.3,0,0,0-.516.3c.384.685,1.793.261,2.391.249a22.353,22.353,0,0,1,3.77.458.475.475,0,0,0,.592-.429c0-.455-.5-.856-.825-1.089a7.845,7.845,0,0,0-3.312-1.4c-1.41-.221-3.03.5-2.647,2.138.089.376.664.217.577-.159" transform="translate(-158.321 -18.594)" fill="#495edb"/>
        <path id="Trazado_874592" data-name="Trazado 874592" d="M377,50.14c-1.551-.885-3.6-1.383-4.263-.5s-.111,1.938.554,1.882a30.378,30.378,0,0,1,4.208-.388c.553,0,0-.608-.5-1" transform="translate(-149.684 -19.765)" fill="#495edb"/>
        <path id="Trazado_874593" data-name="Trazado 874593" d="M376.945,49.65c-1.074-.588-2.894-1.464-4.126-.83-.9.464-1.356,2.2-.19,2.672a2.921,2.921,0,0,0,1.486-.031c.819-.112,1.638-.22,2.464-.266.414-.023.952.145,1.2-.269.262-.432-.533-1.028-.775-1.229-.295-.245-.721.176-.423.423.146.121.757.48.386.469a9.129,9.129,0,0,0-1.062.056c-.72.063-1.438.169-2.153.267-.223.031-.445.06-.669.082q-.686-.112-.527-.962c.084-.59.563-.736,1.029-.783a5.73,5.73,0,0,1,3.056.918c.338.185.64-.331.3-.516" transform="translate(-149.482 -19.532)" fill="#495edb"/>
        <path id="Trazado_874594" data-name="Trazado 874594" d="M387.111,16.578c-.776,3.986.221,11.9,4.1,16.054s3.322-3.266,2.879-4.484c2.214-2.545,6.409-3.022,8.016,1.075.5,1.659-.363,4.737-.363,4.737,2.891-1.1,4.306-5.258,3.253-7.583s-1.439-6.865-1.162-10.409S400.562,4.4,390.764,6.945c-2.775-4.822-5.627-5.735-10.644-4.984-4.556.682-9.654-2.406-13.474-1.132-2.525.842-4,3.571-.184,7.39-5.924-1.661-11.238-1.439-13.562,4.429s.662,13.452,9.909,13.618a19.455,19.455,0,0,1,.8-3.723c.72,4.318,4.346,4.386,7.723,1.785a32.869,32.869,0,0,0,6.035-6.477c-1.33,3.6-.167,4.041,2.435,3.765s5.592-4.319,7.308-5.038" transform="translate(-141.53 -0.208)" fill="#495edb"/>
        <path id="Trazado_874595" data-name="Trazado 874595" d="M386.631,16.291a22.38,22.38,0,0,0,1.432,11.858c.444,1.129,3.589,7.513,5.624,5.544a4.116,4.116,0,0,0,.816-2.885,12.661,12.661,0,0,0-.1-1.824c-.078-.658-.3-.859.17-1.313a4.277,4.277,0,0,1,6.127-.123c1.571,1.638,1.1,4.148.558,6.125a.3.3,0,0,0,.439.338,6.693,6.693,0,0,0,3.742-6.331c-.023-1.274-.727-2.473-1.016-3.7a27.033,27.033,0,0,1-.57-6.38c.016-2.185.111-3.888-.786-5.937A9.765,9.765,0,0,0,398.71,6.99a8.994,8.994,0,0,0-3.27-.968,13.689,13.689,0,0,0-2.275-.033c-.462.03-2.345.58-2.572.194a9.242,9.242,0,0,0-6.1-4.813,13.228,13.228,0,0,0-4.135.025,18.326,18.326,0,0,1-6.425-.5c-2.81-.627-6.248-1.689-8.854.1-2.844,1.954-.794,5.383.983,7.233l.291-.5c-3.034-.83-6.672-1.537-9.659-.141a9.207,9.207,0,0,0-4.927,7.275,10.205,10.205,0,0,0,2.069,7.761c2.1,2.651,5.54,3.637,8.784,3.739a.306.306,0,0,0,.3-.3,19.077,19.077,0,0,1,.791-3.644h-.577c.713,3.634,3.644,4.483,6.759,2.883,3.053-1.568,5.618-4.716,7.545-7.5l-.547-.23c-.37,1.049-.91,2.436-.282,3.495.5.849,1.863.738,2.675.681,3.373-.24,4.989-3.772,7.79-5.111.348-.166.045-.682-.3-.516-2.076.992-3.526,3.1-5.465,4.332a4.976,4.976,0,0,1-3.559.66c-1.505-.287-.589-2.508-.28-3.38.119-.339-.365-.494-.547-.231a31.4,31.4,0,0,1-5.223,5.8,8.28,8.28,0,0,1-4.651,2.279c-2.017.154-3-1.585-3.337-3.311-.061-.31-.49-.261-.577,0a19.888,19.888,0,0,0-.812,3.8l.3-.3a11.116,11.116,0,0,1-8.156-3.323,9.317,9.317,0,0,1-2.17-6.961,8.857,8.857,0,0,1,4.394-7.233c2.869-1.51,6.555-.749,9.5.057a.3.3,0,0,0,.291-.5c-2.01-2.091-3.576-5.564.052-6.891,2.97-1.086,6.634.526,9.59,1.028,2.763.469,5.457-.411,8.206.009,2.812.431,4.619,2.627,5.984,4.942a.3.3,0,0,0,.338.137c3.279-.8,6.708-.647,9.4,1.575a9.518,9.518,0,0,1,3.26,6.059c.175,1.434-.079,2.932-.048,4.377a26.568,26.568,0,0,0,.675,5.5c.4,1.716,1.124,2.936.747,4.772a5.8,5.8,0,0,1-3.291,4.186l.44.337c.7-2.565.961-5.258-1.2-7.181-2.121-1.885-5.249-.769-6.949,1.078a.3.3,0,0,0-.077.291,9.086,9.086,0,0,1,.218,3.88c-.421,3.051-2.882.107-3.737-1.139a20.5,20.5,0,0,1-2.879-14.311c.068-.377-.508-.538-.577-.159" transform="translate(-141.339 0)" fill="#495edb"/>
        <path id="Trazado_874596" data-name="Trazado 874596" d="M371.208,33.777a.3.3,0,0,1-.3-.26l-.053-.382a8.321,8.321,0,0,1-.113-2.242,8.016,8.016,0,0,1,1.84-3.862,7.322,7.322,0,0,1,1.5-1.492.3.3,0,1,1,.342.49,6.82,6.82,0,0,0-1.378,1.381,7.428,7.428,0,0,0-1.71,3.569,7.889,7.889,0,0,0,.113,2.073l.054.387a.3.3,0,0,1-.258.336l-.039,0" transform="translate(-148.99 -10.243)"/>
        <path id="Trazado_874597" data-name="Trazado 874597" d="M422.006,49.007a.3.3,0,0,1-.046,0,.29.29,0,0,1-.248-.334,5.863,5.863,0,0,0,.107-.947,3.992,3.992,0,0,0-.1-.819c-.1-.456-.216-.971-.38-1.468a10.338,10.338,0,0,0-.914-2.1.3.3,0,1,1,.516-.3,10.892,10.892,0,0,1,.968,2.221,15.5,15.5,0,0,1,.394,1.519,4.571,4.571,0,0,1,.118.95,6.271,6.271,0,0,1-.111,1.024.312.312,0,0,1-.3.26" transform="translate(-168.954 -17.236)"/>
        <path id="Trazado_874598" data-name="Trazado 874598" d="M283.707,98.266c3.488,1,11.127-.83,14.948-6.144,2.658,5.979,11.626,26.073,12.289,27.07s8.8-4.983,18.1-12.456,14.946-9.631,20.593-8.967,8.3-.166,7.806-3.322-1.162-5.813-1.162-5.813,6.476,2.657,16.607-3.322c2.159,6.312,1.993,7.474,2.824,8.47s8.3-2.158,15.445-1.161,21.867,16.73,28.841,23.251c8.525,7.971,18.406,16.607,13.618,26.241-3.343,6.723-15.388,1.992-15.388,1.992s-1-2.989-6.312-8.3-14.283-14.45-14.283-14.45,10.518,31.667,12.511,36.482c-10.629,8.968-41.788,13.512-50.234,9.672-2.764-8.293-12.1-37.02-16.251-44.826-12.622,8.8-21.424,17.273-28.9,19.929S300.647,147.922,294,129.82c-3.8-10.365-10.3-31.554-10.3-31.554" transform="translate(-114.024 -34.288)" fill="#f2ac30"/>
        <path id="Trazado_874599" data-name="Trazado 874599" d="M283.424,98.353c5.456,1.429,12.084-1.981,15.285-6.282h-.517c3.9,8.766,7.678,17.61,11.861,26.243.376.776.59,1.275,1.547.961,2.21-.724,4.261-2.469,6.118-3.8,6.879-4.932,13.1-11.023,20.564-15.074a21.027,21.027,0,0,1,7.735-2.575c2.7-.288,5.362.444,8.062.175,1.627-.162,3.241-.854,3.493-2.63a12.218,12.218,0,0,0-.5-3.806c-.208-1.075-.438-2.149-.7-3.212l-.368.368a11.92,11.92,0,0,0,4.584.592c4.351-.09,8.539-1.791,12.254-3.943l-.439-.179c.845,2.489,1.422,5.083,2.312,7.552.481,1.333,1.237,1.417,2.572,1.236,3.717-.506,7.269-1.472,11.059-1.455a13.814,13.814,0,0,1,7.589,2.361c5.444,3.356,10.165,7.981,14.761,12.383,4.684,4.486,9.4,8.951,14.044,13.478,5.367,5.233,12.113,12.557,8.618,20.6-2.267,5.215-9.224,4.1-13.607,2.814q-.772-.226-1.526-.5c-.284-.105.133.266.074.11-.065-.174-.143-.343-.222-.511a25.555,25.555,0,0,0-4.266-5.894c-4.413-4.939-9.338-9.486-13.984-14.208q-1.091-1.108-2.179-2.217a.3.3,0,0,0-.5.291q3.545,10.671,7.163,21.318c1.451,4.264,2.9,8.529,4.437,12.763.217.6.437,1.193.666,1.785.091.236.2.428.124.49a20.845,20.845,0,0,1-1.683,1.233,38.412,38.412,0,0,1-7.246,3.651,86.306,86.306,0,0,1-17.986,4.733,72.529,72.529,0,0,1-17.04,1.039,26.8,26.8,0,0,1-3.139-.42c-.375-.074-2.362-.355-2.5-.764q-.946-2.835-1.881-5.675-2.784-8.4-5.669-16.754c-1.525-4.386-3.086-8.761-4.745-13.1a83.937,83.937,0,0,0-3.932-9.2.3.3,0,0,0-.409-.107c-6.892,4.822-13.342,10.236-20.22,15.074a38.355,38.355,0,0,1-13.69,6.417c-4.868,1.081-8.459-1.346-11.1-5.327-3.724-5.609-5.564-12.544-7.664-18.888q-3.546-10.713-6.839-21.51c-.112-.367-.69-.211-.577.159,2.862,9.337,5.8,18.661,8.993,27.889,1.962,5.663,4,12.238,8.668,16.308,2.891,2.52,6.451,2.6,9.983,1.618a42.346,42.346,0,0,0,13.206-6.628c6.632-4.706,12.877-9.931,19.543-14.6l-.409-.107a108.8,108.8,0,0,1,5.456,13.29c2.165,5.891,4.2,11.83,6.208,17.777,1.519,4.5,3,9.014,4.5,13.52.359,1.079,3.374,1.282,4.319,1.418a43.27,43.27,0,0,0,6.979.322,93.833,93.833,0,0,0,21.8-3.226c6.134-1.609,12.741-3.772,17.693-7.888a.29.29,0,0,0,.077-.291c-2.682-6.531-4.744-13.363-7-20.048q-2.775-8.21-5.508-16.434l-.5.291q5.076,5.171,10.174,10.319c2.536,2.56,5.182,5.039,7.468,7.83a16.259,16.259,0,0,1,2.873,4.465c.215.6,2.186.865,2.677,1a21.52,21.52,0,0,0,6.738.819,7.874,7.874,0,0,0,5.821-2.624c1.8-2.188,2.219-5.47,1.854-8.181-.446-3.313-2.371-6.3-4.371-8.885a77.544,77.544,0,0,0-8.605-8.923c-4.51-4.217-8.854-8.6-13.363-12.82-4.287-4.009-8.8-8.267-14.04-11.01-5.635-2.949-11.868-.551-17.742.106-1.251.14-1.414-.769-1.707-1.794-.637-2.224-1.278-4.435-2.021-6.627a.3.3,0,0,0-.44-.179,25.946,25.946,0,0,1-11.952,3.862,11.088,11.088,0,0,1-4.425-.57c-.223-.09-.417.167-.368.367.264,1.065.487,2.138.7,3.213.294,1.483,1.105,3.637-.161,4.87-.988.961-2.854.895-4.112.883-1.6-.015-3.169-.316-4.764-.322-6.18-.026-11.782,3.8-16.512,7.362-6.095,4.588-11.819,10.063-18.552,13.741-.237.13-1.292.767-1.464.46-.253-.453-.467-.931-.688-1.4-.9-1.9-1.768-3.813-2.637-5.726q-4.5-9.888-8.891-19.823c-.1-.228-.4-.158-.517,0-3.035,4.079-9.433,7.363-14.61,6.007a.3.3,0,0,0-.159.577" transform="translate(-113.82 -34.087)" fill="#f2ac30"/>
        <path id="Trazado_874600" data-name="Trazado 874600" d="M271.664,79.86a2.724,2.724,0,0,1-2.1-.8,2.968,2.968,0,0,1-.053-3.473c1.514-2.76,3.859-3.657,6.17-4.215A1.854,1.854,0,0,0,277,70.379c.574-1.151.24-3.278-.937-5.988-1.483-3.413-2.764-6.361-3.989-6.743a1.3,1.3,0,0,0-1.169.028c-.453.324-.7,1.26-.746,2.784-.086,3.235-1.112,3.974-2.248,4.5a1.973,1.973,0,0,1-1.726.01,4.346,4.346,0,0,1-1.923-2.828,22.419,22.419,0,0,0-1.214,2.152c-.767,1.49-1.436,2.791-2.746,3.06.093,1.487-.376,2.6-1.28,3a1.947,1.947,0,0,1-2.256-.646.3.3,0,0,1,.449-.4,1.372,1.372,0,0,0,1.567.5c.549-.243,1.074-1.072.9-2.673a.3.3,0,0,1,.273-.33c1.179-.095,1.789-1.28,2.561-2.779a19.184,19.184,0,0,1,1.624-2.748.3.3,0,0,1,.3-.115.3.3,0,0,1,.232.221c.516,2.069,1.249,2.8,1.773,3.053a1.4,1.4,0,0,0,1.216-.014c1.029-.475,1.824-1.069,1.9-3.971.048-1.77.365-2.8,1-3.255a1.889,1.889,0,0,1,1.694-.112c1.418.441,2.525,2.853,4.361,7.076.883,2.034,1.761,4.81.922,6.492a2.445,2.445,0,0,1-1.709,1.307c-2.176.527-4.384,1.366-5.785,3.922a2.4,2.4,0,0,0-.029,2.782c.743.817,2.352.8,4.3-.044a10.81,10.81,0,0,0,5.573-4.828.3.3,0,0,1,.549.238c-.056.13-1.426,3.2-5.884,5.138a7.437,7.437,0,0,1-2.882.7" transform="translate(-103.165 -22.881)"/>
        <path id="Trazado_874601" data-name="Trazado 874601" d="M290.686,118.142a7.445,7.445,0,0,1-2.851-.531.3.3,0,0,1,.227-.554,8.64,8.64,0,0,0,5.541.072,14.011,14.011,0,0,0,6.186-3c.113-.114.247-.238.385-.366a5.41,5.41,0,0,0,1.133-1.3.3.3,0,1,1,.522.291,5.941,5.941,0,0,1-1.249,1.45c-.132.122-.261.241-.379.36a14.563,14.563,0,0,1-6.45,3.151,12.189,12.189,0,0,1-3.065.434" transform="translate(-115.609 -45.135)"/>
        <path id="Trazado_874602" data-name="Trazado 874602" d="M290.885,115.818a.3.3,0,0,1-.281-.2c-.184-.5-.358-1.015-.533-1.533-.248-.728-.5-1.482-.794-2.226-.309-.772-.661-1.648-.947-2.505-.074-.223-.168-.44-.261-.656a4.341,4.341,0,0,1-.417-1.35.3.3,0,1,1,.6-.05,3.892,3.892,0,0,0,.37,1.163c.1.231.2.464.281.7.28.84.628,1.708.935,2.474s.555,1.519.8,2.254c.175.513.347,1.021.529,1.519a.3.3,0,0,1-.178.384.309.309,0,0,1-.1.018" transform="translate(-115.609 -43.015)"/>
        <path id="Trazado_874603" data-name="Trazado 874603" d="M295.789,115.132a.3.3,0,0,1-.254-.141,6.061,6.061,0,0,1-.5-1.145c-.061-.17-.123-.34-.189-.507-.117-.349-.241-.681-.365-1.013s-.249-.664-.361-1c-.238-.668-.542-1.4-.928-2.239-.172-.4-.314-.813-.451-1.211s-.275-.8-.437-1.176a.3.3,0,1,1,.549-.236c.172.4.315.815.454,1.217s.271.788.432,1.163c.391.846.7,1.6.947,2.287.111.331.233.656.355.981s.255.678.367,1.019c.063.155.127.333.191.51a5.561,5.561,0,0,0,.445,1.03.3.3,0,0,1-.1.412.294.294,0,0,1-.158.045" transform="translate(-117.469 -42.717)"/>
        <path id="Trazado_874604" data-name="Trazado 874604" d="M301.97,113.1a.3.3,0,0,1-.29-.226,6.756,6.756,0,0,0-.336-.9c-.075-.176-.148-.349-.208-.507-.138-.329-.264-.668-.392-1.007s-.244-.651-.379-.977l-.032-.077c-.642-1.551-1.306-3.155-2.014-4.731a.3.3,0,0,1,.546-.245c.711,1.584,1.376,3.192,2.02,4.748l.032.077c.138.332.263.664.387,1s.249.664.388,1c.06.161.13.325.2.493a7.236,7.236,0,0,1,.366.989.3.3,0,0,1-.29.372" transform="translate(-119.887 -41.898)"/>
        <path id="Trazado_874605" data-name="Trazado 874605" d="M305.621,108.382a.3.3,0,0,1-.267-.164,5.23,5.23,0,0,1-.238-.592,5.065,5.065,0,0,0-.205-.517l-.848-2.056a15.158,15.158,0,0,1-.664-1.58c-.039-.091-.1-.215-.17-.344a3.346,3.346,0,0,1-.4-1.042.3.3,0,1,1,.593-.075,2.946,2.946,0,0,0,.336.844c.074.143.144.28.2.406a15.12,15.12,0,0,0,.647,1.54l.18.391.67,1.673a5.205,5.205,0,0,1,.224.561,4.652,4.652,0,0,0,.208.523.3.3,0,0,1-.132.4.3.3,0,0,1-.135.032" transform="translate(-121.71 -40.894)"/>
        <path id="Trazado_874606" data-name="Trazado 874606" d="M410.971,99.882a.3.3,0,0,1-.3-.27,8.4,8.4,0,0,0-.373-1.65c-.061-.257-.108-.486-.155-.714a12.064,12.064,0,0,0-.343-1.389c-.271-.7-.494-1.429-.71-2.129-.1-.355-.168-.663-.238-.97s-.137-.6-.219-.9a.3.3,0,0,1,.577-.158c.084.309.154.619.225.928s.135.6.217.9c.222.718.441,1.433.71,2.131a12.777,12.777,0,0,1,.367,1.469c.046.224.092.449.145.673a8.584,8.584,0,0,1,.392,1.754.3.3,0,0,1-.267.327h-.031" transform="translate(-164.23 -36.766)"/>
        <path id="Trazado_874607" data-name="Trazado 874607" d="M415.971,100.434a.3.3,0,0,1-.3-.3,1.849,1.849,0,0,0-.1-.5c-.02-.07-.04-.137-.056-.2a7.149,7.149,0,0,0-.269-1.03c-.185-.855-.424-1.664-.612-2.277-.116-.433-.215-.856-.313-1.278s-.19-.816-.3-1.224c-.041-.2-.1-.4-.157-.594a4.431,4.431,0,0,1-.241-1.254.3.3,0,1,1,.6,0,3.983,3.983,0,0,0,.216,1.084c.063.215.125.425.166.628.106.4.2.81.3,1.223s.194.833.306,1.25c.188.613.431,1.438.613,2.284a7.388,7.388,0,0,1,.278,1.066l.044.15a2.357,2.357,0,0,1,.127.673.3.3,0,0,1-.3.3" transform="translate(-166.238 -36.766)"/>
        <path id="Trazado_874608" data-name="Trazado 874608" d="M421.541,99.4a.3.3,0,0,1-.284-.2c-.028-.086-.056-.184-.084-.284s-.054-.188-.081-.27a4.257,4.257,0,0,1-.231-.812,12.931,12.931,0,0,0-.314-1.307c-.063-.224-.124-.448-.181-.672l-.205-.765c-.38-1.419-.74-2.759-1.069-4.166a.3.3,0,0,1,.583-.136c.327,1.4.684,2.733,1.064,4.147l.207.77c.056.223.116.443.177.661a13.178,13.178,0,0,1,.327,1.361,3.708,3.708,0,0,0,.2.712c.036.105.066.209.1.312s.052.181.078.259a.3.3,0,0,1-.284.394" transform="translate(-168.433 -36.394)"/>
        <path id="Trazado_874609" data-name="Trazado 874609" d="M426.854,97.4a.3.3,0,0,1-.285-.209c-.4-1.275-.747-2.543-1.055-3.724l-.157-.513c-.171-.564-.348-1.148-.557-1.731-.094-.262-.17-.544-.246-.829a7.168,7.168,0,0,0-.352-1.087.3.3,0,1,1,.545-.246,7.568,7.568,0,0,1,.385,1.179c.072.269.142.533.231.78.215.6.393,1.19.566,1.761l.159.522c.31,1.185.65,2.445,1.051,3.707a.3.3,0,0,1-.195.376.293.293,0,0,1-.09.014" transform="translate(-170.479 -35.723)"/>
        <path id="Trazado_874610" data-name="Trazado 874610" d="M412.287,104.165a6.193,6.193,0,0,1-1.132-.1,12.515,12.515,0,0,1-1.5-.35,10.019,10.019,0,0,0-1.685-.365.3.3,0,0,1,.06-.6,10.608,10.608,0,0,1,1.785.384,12.2,12.2,0,0,0,1.441.337,6.707,6.707,0,0,0,1.813.054,7.117,7.117,0,0,1,.838-.012,5.675,5.675,0,0,0,1.075-.041,16.783,16.783,0,0,0,3.805-1.307,24.889,24.889,0,0,0,3.169-1.64c.6-.383,1.214-.772,1.811-1.206.314-.263.657-.606.961-.91a.3.3,0,1,1,.423.422c-.312.313-.666.667-1.016.959-.627.458-1.246.851-1.845,1.231a25.612,25.612,0,0,1-3.261,1.691,17.222,17.222,0,0,1-3.949,1.35,6.168,6.168,0,0,1-1.188.05,6.683,6.683,0,0,0-.771.01c-.3.025-.575.038-.832.038" transform="translate(-163.858 -39.518)"/>
        <path id="Trazado_874611" data-name="Trazado 874611" d="M382.741,146.121a.3.3,0,0,1-.267-.165c-.131-.263-.24-.544-.344-.816s-.2-.526-.321-.762a11.834,11.834,0,0,0-.653-1.474c-.123-.276-.249-.509-.376-.743a5.7,5.7,0,0,1-.657-1.594.3.3,0,0,1,.587-.117,5.17,5.17,0,0,0,.6,1.428c.133.248.266.495.379.752a11.733,11.733,0,0,1,.674,1.521,8.311,8.311,0,0,1,.327.775c.1.271.2.527.321.763a.3.3,0,0,1-.267.433" transform="translate(-152.772 -56.351)"/>
        <path id="Trazado_874612" data-name="Trazado 874612" d="M466.316,139.636a.341.341,0,0,1-.154-.037,6.751,6.751,0,0,1-1.541-1.22c-.178-.171-.356-.344-.541-.508a12.048,12.048,0,0,0-1.767-1.246L460,135.137a.362.362,0,0,1-.109-.49.34.34,0,0,1,.475-.114l2.3,1.481a12.63,12.63,0,0,1,1.858,1.313c.2.175.383.353.568.532a6.118,6.118,0,0,0,1.378,1.1.361.361,0,0,1,.155.477.345.345,0,0,1-.309.2" transform="translate(-184.813 -54.048)"/>
        <path id="Trazado_874613" data-name="Trazado 874613" d="M492.848,200.335a.3.3,0,0,1-.281-.194l-3.862-10.38a.3.3,0,0,1,.561-.209l3.862,10.38a.3.3,0,0,1-.176.385.307.307,0,0,1-.1.019" transform="translate(-196.407 -76.104)"/>
        <path id="Trazado_874614" data-name="Trazado 874614" d="M426.655,228.047a79.533,79.533,0,0,1-8.321-.428.3.3,0,0,1-.266-.329.293.293,0,0,1,.329-.266c16.141,1.7,34.276-1.789,46.206-8.886a.3.3,0,1,1,.306.514c-10.014,5.957-24.354,9.395-38.254,9.395" transform="translate(-168.024 -87.654)"/>
        <path id="Trazado_874615" data-name="Trazado 874615" d="M487.859,242.074a7.372,7.372,0,0,1-2.886-.609c-4.423-1.87-7.934-7.757-9.324-12.434a.3.3,0,1,1,.574-.17c1.394,4.691,4.928,10.337,8.983,12.053a6.606,6.606,0,0,0,5.871-.276.3.3,0,0,1,.277.531,7.5,7.5,0,0,1-3.494.9" transform="translate(-191.162 -91.895)"/>
        <path id="Trazado_874616" data-name="Trazado 874616" d="M499.792,246.66a.3.3,0,0,1-.3-.271c-1.144-12.09-7.38-24.68-7.443-24.805a.3.3,0,1,1,.535-.267c.063.127,6.35,12.813,7.5,25.016a.3.3,0,0,1-.27.326h-.029" transform="translate(-197.747 -88.882)"/>
        <path id="Trazado_874617" data-name="Trazado 874617" d="M260.644,69.094a1.961,1.961,0,0,1-1.5-.721,4.638,4.638,0,0,1-.9-2.434,8.685,8.685,0,0,1,1.453-4.554.3.3,0,0,1,.513.307,8.129,8.129,0,0,0-1.369,4.23,4.04,4.04,0,0,0,.775,2.085,1.313,1.313,0,0,0,1.377.435.3.3,0,1,1,.175.572,1.8,1.8,0,0,1-.529.079" transform="translate(-103.789 -24.613)"/>
        <path id="Trazado_874618" data-name="Trazado 874618" d="M269.3,61.785a.3.3,0,0,1-.3-.267,30.221,30.221,0,0,1-.1-3.45c0-.32.006-.633.006-.934a.3.3,0,1,1,.6,0c0,.3,0,.618-.005.94a29.715,29.715,0,0,0,.092,3.379.3.3,0,0,1-.265.33l-.033,0" transform="translate(-108.075 -22.842)"/>
        <path id="Trazado_874619" data-name="Trazado 874619" d="M453.1,248.928a12.838,12.838,0,0,1-3.288-.492.3.3,0,0,1-.2-.2l-7.21-23.275a.3.3,0,1,1,.571-.176l7.162,23.119a9.836,9.836,0,0,0,4.411.254c-1.467-5.088-4.9-18.33-4.938-18.465a.3.3,0,1,1,.579-.151c.035.138,3.6,13.873,5.014,18.727a.3.3,0,0,1-.184.364,5.617,5.617,0,0,1-1.917.292" transform="translate(-177.799 -90.258)"/>
        <path id="Trazado_874620" data-name="Trazado 874620" d="M95.8,148.081a18.319,18.319,0,0,1-4.586,1.684c-.394.061-1.835-10.985-1.835-10.985,6.684-2.45,9.964-4.762,11.735-9.854S98,122.949,97.721,117.815c-.221-4.105.623-17.343-14.655-15.35S55.5,126.047,61.7,132.581,73.544,140,73.433,141.66s-5.979,10.739-6.31,11.181,4.207,9.41,8.857,11.294,30.446,1,19.818-16.054" transform="translate(-24.137 -41.1)" fill="#ffd4d4"/>
        <path id="Trazado_874621" data-name="Trazado 874621" d="M5.1,337.012c-.664-9.632-.664-41.021,17.77-54.639,1.495-1.163,2.713-4.65,2.713-4.65,8.248,2.158,29.4,7.806,38.751,7.308A50.834,50.834,0,0,1,60.124,293l2.933,43.843-24.081.5-4.815-7.64.663,7.307Z" transform="translate(-1.97 -111.62)" fill="#f2ac30"/>
        <path id="Trazado_874622" data-name="Trazado 874622" d="M5.179,336.811a94.179,94.179,0,0,1,2.483-29.1,53.527,53.527,0,0,1,7.378-17.125,34.916,34.916,0,0,1,6.351-7.043,12.043,12.043,0,0,0,2.762-2.733,16.465,16.465,0,0,0,1.462-3.1c.012-.033.024-.065.035-.1l-.368.209c6.3,1.648,12.6,3.268,18.961,4.65,6.423,1.395,13.252,2.978,19.87,2.669l-.288-.379a41.665,41.665,0,0,1-4.083,7.752c-.238.378-.1.883-.067,1.31q.314,4.7.629,9.4.92,13.753,1.84,27.506l.4,5.927.3-.3-18.448.382-4.194.087-1.138.023c-.512.01,0,.224-.147-.009L34.2,329.353c-.147-.233-.586-.162-.557.151q.331,3.654.663,7.307l.3-.3H4.88a.3.3,0,0,0,0,.6H34.606a.3.3,0,0,0,.3-.3q-.331-3.653-.663-7.307l-.557.151,4.712,7.477c.272.431.667.305,1.135.3l4.1-.085,19.2-.4a.3.3,0,0,0,.3-.3l-2.858-42.73q-.031-.45-.06-.9c-.024-.351-.085-.011.2-.458a41.5,41.5,0,0,0,3.986-7.647.3.3,0,0,0-.288-.379c-6.576.307-13.325-1.272-19.711-2.647-6.363-1.371-12.665-3-18.96-4.65a.3.3,0,0,0-.368.209,18.532,18.532,0,0,1-1.255,2.752c-.818,1.478-2.17,2.326-3.416,3.4a35.541,35.541,0,0,0-5.879,6.681,52.9,52.9,0,0,0-7.254,16.559,93.408,93.408,0,0,0-2.731,29.31q.02.331.042.662c.026.383.624.385.6,0" transform="translate(-1.753 -111.419)" fill="#f2ac30"/>
        <path id="Trazado_874623" data-name="Trazado 874623" d="M52.516,292.055a.289.289,0,0,1-.051,0c-6.8-1.171-13.08-3.812-15.995-6.727a.3.3,0,1,1,.423-.423c2.834,2.833,8.986,5.409,15.673,6.56a.3.3,0,0,1-.05.594" transform="translate(-14.623 -114.469)"/>
        <path id="Trazado_874624" data-name="Trazado 874624" d="M14.594,341.409a.3.3,0,0,1-.3-.286c-.283-6.346-.838-38.712,16.052-52.724a.3.3,0,1,1,.382.46C14.058,302.691,14.613,334.8,14.894,341.1a.3.3,0,0,1-.285.312h-.014" transform="translate(-5.711 -115.882)"/>
        <path id="Trazado_874625" data-name="Trazado 874625" d="M110.866,171.96c4.934-1.2,7.052-2.844,10.318-3.176,1.108-3.544-2.6-9.632-5.2-10.74a21.1,21.1,0,0,1-7.086,3.156c.775,5.228,1.971,10.76,1.971,10.76" transform="translate(-43.766 -63.519)" fill="#32015c"/>
        <path id="Trazado_874626" data-name="Trazado 874626" d="M110.748,172.038c3.44-.863,6.7-2.749,10.239-3.166a.308.308,0,0,0,.288-.219c.86-3.184-1.031-6.718-2.982-9.116-.3-.368-2.017-2.379-2.66-1.962a20.292,20.292,0,0,1-7.014,3.126.3.3,0,0,0-.209.368q.814,5.408,1.971,10.76c.081.377.658.218.577-.159q-1.152-5.346-1.971-10.76-.1.184-.209.367a14.754,14.754,0,0,0,3-.955c.611-.263,1.209-.544,1.8-.844.309-.157,2.019-1.4,2.27-1.283,2.164,1.023,3.636,3.861,4.441,5.977a8.4,8.4,0,0,1,.575,3.466c-.061,1.063-1.8.968-2.664,1.242-2.566.81-4.991,1.922-7.614,2.58a.3.3,0,0,0,.159.577" transform="translate(-43.569 -63.308)" fill="#32015c"/>
        <path id="Trazado_874627" data-name="Trazado 874627" d="M96.932,162.439a19.735,19.735,0,0,1-9.16-2.251.3.3,0,0,1,.282-.528,18.96,18.96,0,0,0,12.164,1.873.3.3,0,0,1,.114.587,17.889,17.889,0,0,1-3.4.318" transform="translate(-35.212 -64.155)"/>
        <path id="Trazado_874628" data-name="Trazado 874628" d="M46.17,117.134c1.469,4.626,4.464,5.854,3.7-1.057C62.9,108.272,63.358,97.537,61.532,93.8c8.054,1.08,13.452,4.733,12.206,13.867,8.552-2.241,7.972-16.69.58-19.347-.165-10.463-11.574-13.108-22.835-6.727-5.047,2.86-6.842,6.349-13.72,9.04C29.7,93.792,26.9,104.091,26.9,112.764c0,13.2-.077,19.65-10.456,27.7S-3.679,158.749,2.326,171.442a12.56,12.56,0,0,0,11.625,7.224c-2.242,10.379,4.151,16.523,10.3,16.109,0,0,1.743-21.589,3.986-31.056s6.642-13.37,14.034-17.106,9.284-5.054,8.552-12.206a79.931,79.931,0,0,0-1.577-9.715c-6.56,2.74-9.817-1.062-10.546-3.82-1.163-4.4,4.9-7.806,7.473-3.737" transform="translate(-0.195 -31.411)" fill="#32015c"/>
        <path id="Trazado_874629" data-name="Trazado 874629" d="M45.686,117.013c.344,1.034,2.295,5.708,3.921,3.44a3.451,3.451,0,0,0,.436-1.556,10.171,10.171,0,0,0,.04-1.533c-.026-1.165.076-1.422,1.071-2.066a30.214,30.214,0,0,0,5.974-5.077c3.721-4.112,7.072-11.242,4.467-16.772l-.337.439c3.3.463,6.711,1.336,9.242,3.628,2.8,2.534,3.19,6.41,2.745,9.951a.3.3,0,0,0,.378.288c4.665-1.316,6.669-6.019,6.468-10.552a12.312,12.312,0,0,0-2.11-6.418,8.692,8.692,0,0,0-2.02-2.041,7.1,7.1,0,0,0-1.428-.785c-.275-.118-.234-1.474-.288-1.835-.845-5.666-5.974-8.441-11.3-8.47-6.94-.038-12.741,3.779-17.893,7.989a30.758,30.758,0,0,1-4.374,3.013c-1.724.971-3.631,1.538-5.332,2.549a16.164,16.164,0,0,0-5.828,6.63c-3.155,6.1-3.04,12.86-3.14,19.528-.089,5.911-.658,11.75-4.224,16.674-2.075,2.865-4.88,5.009-7.614,7.2a61.708,61.708,0,0,0-8.507,8.071A25.561,25.561,0,0,0,.461,159.547a17.9,17.9,0,0,0,1.412,11.845,12.773,12.773,0,0,0,11.883,7.373l-.288-.379c-.865,4.242-.579,8.736,2.034,12.333a10.038,10.038,0,0,0,8.551,4.156.306.306,0,0,0,.3-.3,263.276,263.276,0,0,1,3.49-28.71c1.246-6.445,3.726-12.185,9.167-16.122,2.671-1.932,5.706-3.237,8.572-4.837,1.922-1.073,3.86-2.359,4.817-4.415,1.2-2.577.606-5.817.268-8.5a69.408,69.408,0,0,0-1.331-7.575.3.3,0,0,0-.368-.209c-3.753,1.492-8.238,1.231-9.965-2.959-1.7-4.115,3.977-8.137,6.713-4.159.217.315.736.017.516-.3-2.6-3.785-8.786-1.258-8.145,3.282a6.8,6.8,0,0,0,2.964,4.605c2.409,1.655,5.542,1.117,8.075.109l-.367-.209a72.771,72.771,0,0,1,1.377,7.953c.35,2.771.849,6.014-.717,8.519-1.491,2.386-4.682,3.68-7.078,4.9a37.026,37.026,0,0,0-7.611,4.847c-4.592,3.982-6.486,9.742-7.584,15.536-1.118,5.9-1.782,11.9-2.412,17.876-.365,3.454-.7,6.913-.981,10.375l.3-.3a9.532,9.532,0,0,1-7.876-3.655c-2.752-3.339-2.959-8.02-2.132-12.076a.3.3,0,0,0-.288-.379A12.237,12.237,0,0,1,2.8,171.886c-4.261-7.437-1.682-15.586,3.37-21.808a57.527,57.527,0,0,1,8.426-8.12,48.135,48.135,0,0,0,7.614-7.008c3.418-4.284,4.428-9.483,4.688-14.832.322-6.631-.218-13.109,2.063-19.486a18.33,18.33,0,0,1,5.216-7.854,16.831,16.831,0,0,1,4.565-2.507,25.9,25.9,0,0,0,4.808-2.72c2.453-1.73,4.59-3.851,7.14-5.455A25.161,25.161,0,0,1,61.394,78.33a13.005,13.005,0,0,1,8.581,1.858c2.648,1.771,3.758,4.864,3.849,7.931a.309.309,0,0,0,.22.288c7.562,2.891,7.34,16.535-.581,18.771l.379.288c.45-3.577.015-7.2-2.494-9.95-2.484-2.724-6.426-3.715-9.933-4.206a.3.3,0,0,0-.337.44c1.336,2.835.751,6.4-.237,9.236-1.919,5.508-6.459,9.674-11.322,12.631a.293.293,0,0,0-.148.258c.074.736.606,4.467-.71,4.555-1.225.082-2.139-2.8-2.4-3.578-.121-.364-.7-.208-.577.159" transform="translate(0 -31.21)" fill="#32015c"/>
        <path id="Trazado_874630" data-name="Trazado 874630" d="M99.987,135.2c-1.518.2-1.7,3.279-.208,3.2s1.453-3.364.208-3.2" transform="translate(-39.688 -54.337)"/>
        <path id="Trazado_874631" data-name="Trazado 874631" d="M100.34,135.133a.3.3,0,0,1-.17-.545l.064-.044a3.8,3.8,0,0,0,1.09-.934.3.3,0,1,1,.523.291,4.027,4.027,0,0,1-1.273,1.135l-.065.044a.3.3,0,0,1-.169.053" transform="translate(-40.207 -53.637)"/>
        <path id="Trazado_874632" data-name="Trazado 874632" d="M118.222,129.305c-1.509.258-1.581,3.339-.09,3.2s1.33-3.414.09-3.2" transform="translate(-47.044 -51.965)"/>
        <path id="Trazado_874633" data-name="Trazado 874633" d="M118.552,129.22a.3.3,0,0,1-.179-.538l.077-.057a3.764,3.764,0,0,0,1.041-.963.3.3,0,1,1,.534.271,3.96,3.96,0,0,1-1.217,1.171l-.076.057a.3.3,0,0,1-.179.06" transform="translate(-47.527 -51.242)"/>
        <path id="Trazado_874634" data-name="Trazado 874634" d="M113.431,138.873a.3.3,0,0,1-.215-.507c.182-.189.355-.365.518-.531,1.715-1.745,2.175-2.214.485-4.785l-.087-.132c-1.981-3.013-2.259-3.608-.466-6.943a.3.3,0,1,1,.527.283c-1.675,3.115-1.475,3.42.439,6.331l.087.132c1.955,2.973,1.22,3.722-.558,5.532-.162.165-.334.34-.514.528a.3.3,0,0,1-.215.092" transform="translate(-45.203 -50.568)"/>
        <path id="Trazado_874635" data-name="Trazado 874635" d="M93.28,129.042c-1.06,1.919-.872,2.9.5,1.7a20.961,20.961,0,0,1,4.443-2.949c1.121-.5.038-1.9-1.745-1.577a5.653,5.653,0,0,0-3.2,2.824" transform="translate(-37.216 -50.709)"/>
        <path id="Trazado_874636" data-name="Trazado 874636" d="M92.663,131.368h0a.528.528,0,0,1-.468-.261c-.3-.514.17-1.6.621-2.41a5.857,5.857,0,0,1,3.406-2.974,3.255,3.255,0,0,1,.574-.053,1.883,1.883,0,0,1,1.959,1.167.908.908,0,0,1-.614,1.03,20.649,20.649,0,0,0-4.367,2.9,1.919,1.919,0,0,1-1.111.6m0-.6,0,.3v-.3h0m4.136-4.5a2.628,2.628,0,0,0-.468.043,5.423,5.423,0,0,0-2.989,2.674,3.767,3.767,0,0,0-.641,1.779,1.83,1.83,0,0,0,.681-.446,21.375,21.375,0,0,1,4.519-3c.212-.093.3-.215.273-.36-.062-.29-.574-.693-1.374-.693" transform="translate(-37.016 -50.508)"/>
        <path id="Trazado_874637" data-name="Trazado 874637" d="M114.486,124.2c1.079-1.951,2.863-3.9,3.778-3.654s1.328,1.5.789,1.869-.956-.665-2.74.539c-1.565,1.055-1.911,1.577-1.827,1.245" transform="translate(-46.008 -48.439)"/>
        <path id="Trazado_874638" data-name="Trazado 874638" d="M114.294,124.4h-.147l-.1-.121a.393.393,0,0,1-.048-.35l.028-.071c1.1-2,3-4.1,4.118-3.8a1.783,1.783,0,0,1,1.228,1.387.881.881,0,0,1-1.193,1.086,1.861,1.861,0,0,0-.495-.08,2.63,2.63,0,0,0-1.4.551c-.737.5-1.2.872-1.472,1.1s-.368.3-.513.3m3.6-3.775c-.584,0-1.671,1.009-2.612,2.348.192-.141.411-.3.662-.465a3.182,3.182,0,0,1,1.738-.654,2.4,2.4,0,0,1,.647.1c.155.041.237.1.352.017a.421.421,0,0,0,.1-.423,1.181,1.181,0,0,0-.8-.911.348.348,0,0,0-.09-.011" transform="translate(-45.808 -48.239)"/>
        <path id="Trazado_874639" data-name="Trazado 874639" d="M106.136,151.552a3.779,3.779,0,0,1-2.47-1,8.6,8.6,0,0,1-1.851-2.279.3.3,0,1,1,.518-.3,7.99,7.99,0,0,0,1.717,2.12,3.051,3.051,0,0,0,2.619.809,2.761,2.761,0,0,0,1.186-.553.3.3,0,1,1,.4.447,3.325,3.325,0,0,1-1.454.69,3.527,3.527,0,0,1-.661.064" transform="translate(-40.904 -59.412)"/>
        <path id="Trazado_874640" data-name="Trazado 874640" d="M108.525,149.323c-.153,0-.305-.011-.458-.022-.48-.034-.964-.048-1.423-.112-.211-.029-.422-.059-.633-.075-.584-.1-1.052-.176-1.581-.3-.158-.042-.305-.078-.452-.114a8.693,8.693,0,0,1-.953-.27,4.151,4.151,0,0,1-.541-.215c-.12-.054-.244-.111-.375-.16a.3.3,0,0,1,.212-.559c.143.054.278.114.409.173a3.687,3.687,0,0,0,.48.191,8.278,8.278,0,0,0,.909.258c.153.037.3.074.456.115.5.114.961.193,1.508.284.2.014.42.044.644.075.484.068.932.076,1.384.108a4.551,4.551,0,0,0,1.1-.057l.11.588a4.878,4.878,0,0,1-.8.087" transform="translate(-40.961 -59.273)"/>
        <path id="Trazado_874641" data-name="Trazado 874641" d="M110.414,132.528a3.007,3.007,0,0,1,1.376-1.133,1.731,1.731,0,0,1,1.6.362.3.3,0,0,0,.3-.517,2.354,2.354,0,0,0-2.063-.421,3.412,3.412,0,0,0-1.733,1.407c-.22.319.3.617.516.3" transform="translate(-44.148 -52.539)" fill="#495edb"/>
        <path id="Trazado_874642" data-name="Trazado 874642" d="M100.178,122.39c-7.4-4.6-12.363,8.408-6.482,12.718,3.087,2.263,6.809.391,8.326-2.741s1.154-7.811-1.844-9.977c-.313-.226-.611.292-.3.516,2.636,1.9,2.839,5.8,1.853,8.617-1.138,3.254-4.987,5.377-7.932,2.895-4.867-4.1-.56-15.644,6.079-11.512.328.2.629-.313.3-.516" transform="translate(-36.615 -48.799)" fill="#495edb"/>
        <path id="Trazado_874643" data-name="Trazado 874643" d="M83,141.783l5.771-1.7a.3.3,0,0,0-.158-.577l-5.772,1.7a.3.3,0,0,0,.159.576" transform="translate(-33.21 -56.063)" fill="#495edb"/>
        <path id="Trazado_874644" data-name="Trazado 874644" d="M123.9,124.827c.411-2.511.373-6.735-2.228-8.151a3.15,3.15,0,0,0-3.407.731c-1.481,1.241-2.084,3.452-2.417,5.261-.452,2.452-.712,7.632,2.824,8.046,3.259.381,4.721-3.266,5.229-5.887.073-.377-.5-.537-.577-.159-.42,2.173-1.4,5.214-3.981,5.477-3.31.337-3.23-4.315-3.038-6.44.2-2.212,1.906-8.233,5.3-6.387,2.156,1.174,2.054,5.321,1.723,7.351-.062.377.514.539.577.159" transform="translate(-46.456 -46.788)" fill="#495edb"/>
        <path id="Trazado_874645" data-name="Trazado 874645" d="M105.7,359.043c.679-1.088-.485-2.775-1.08-3.4-1.755-1.861-3.57-3.488-7-3.654-1.257-.06-4.075.5-5.314.221-2.008-.453-2.824-14.5-2.824-14.5-7.971,1.08-16.5,2.325-16.5,2.325s4.49,18.043,5.7,19.265a5.045,5.045,0,0,0,5.037,1.659,54.242,54.242,0,0,1,6.754-1.217,13.063,13.063,0,0,1,5.647.664c.8.271.909.95,2.437.389.616-.228,2.132.636,2.767.441a6.352,6.352,0,0,0,1.219-.83c.166-.249,1.992.495,3.154-1.356" transform="translate(-29.332 -135.726)" fill="#ffd4d4"/>
        <path id="Trazado_874646" data-name="Trazado 874646" d="M40.139,232.62l-.664,3.986s4.207,3.209,11.956,4.1c1.551,7.529,8.083,34.1,8.083,34.1,5.647,1.328,14.116-.112,16.773-1.883-.11-8.3-3.265-27.678-4.151-29.341a14.361,14.361,0,0,0,6.09.334c2.435-7.419,5.425-15.5,6.532-18.6s2.215-4.428,4.872-5.535,11.515-4.982,9.742-19.265c5.647.775,13.952,2.1,13.952,2.1l-.221-23.693s-14.284-7.087-26.462-1.108c3.764,3.543,2.547,9.744-4.318,13.065s-16.165.443-21.589-6.2a23.636,23.636,0,0,0-16.94,18.49c-2.214,11.4-3.654,29.451-3.654,29.451" transform="translate(-15.865 -70.501)" fill="#495edb"/>
        <path id="Trazado_874647" data-name="Trazado 874647" d="M39.652,232.324l-.664,3.986a.317.317,0,0,0,.137.338,16.859,16.859,0,0,0,3.215,1.779,28.4,28.4,0,0,0,3.572,1.3c.5.148,5.05.918,5.067,1,.855,4.135,1.854,8.243,2.828,12.351q2.562,10.8,5.221,21.585a.3.3,0,0,0,.209.209A28.737,28.737,0,0,0,74.2,273.91a9.558,9.558,0,0,0,2.045-.949c.389-.246.113-1.5.1-1.883-.1-2.111-.3-4.219-.528-6.32-.492-4.581-1.15-9.148-1.914-13.692-.3-1.77-.617-3.537-.991-5.293a10.96,10.96,0,0,0-.706-2.561l-.338.439a14.669,14.669,0,0,0,6.248.334c.265-.062.33-.575.376-.716q.505-1.533,1.028-3.062.934-2.749,1.906-5.483c1.012-2.867,2.051-5.725,3.084-8.585,1.044-2.892,2.144-5.093,5.107-6.331a16.515,16.515,0,0,0,6.65-4.831c3.306-4.113,3.8-9.618,3.215-14.681l-.379.288c4.659.644,9.308,1.361,13.952,2.1a.3.3,0,0,0,.379-.288q-.11-11.847-.221-23.693a.3.3,0,0,0-.148-.258c-8.071-3.976-18.534-5.03-26.764-1.108a.3.3,0,0,0-.061.47,6.41,6.41,0,0,1,1.236,7.629c-1.471,3.053-4.844,5.027-8,5.873-6.895,1.846-14.345-1.82-18.718-7.06a.294.294,0,0,0-.291-.077,25.217,25.217,0,0,0-11.138,6.747c-4.018,4.2-5.625,9.466-6.571,15.061-1.477,8.736-2.4,17.593-3.1,26.421-.031.385.568.382.6,0,.321-4.015.726-8.025,1.169-12.029.4-3.647.858-7.29,1.392-10.92a54.142,54.142,0,0,1,2.191-10.418,23.356,23.356,0,0,1,13.2-13.45c.535-.221,1.081-.414,1.63-.6.842-.279,1.113.415,1.671,1a21.517,21.517,0,0,0,4.127,3.314,20,20,0,0,0,9.19,3.008c4.453.327,9.469-1.444,12.216-5.09,2.316-3.074,2.459-7.049-.378-9.84q-.03.235-.06.47c6.727-3.206,14.392-2.788,21.382-.7a33.44,33.44,0,0,1,4.673,1.752c.034.017-.044-.376-.039.179l.016,1.744q.1,10.782.2,21.564l.379-.289c-4.644-.742-9.293-1.461-13.952-2.1-.17-.023-.4.075-.379.289.6,5.138.054,10.559-3.37,14.662-1.895,2.27-4.34,3.448-6.943,4.669a8.056,8.056,0,0,0-3.973,4.551c-.98,2.343-1.751,4.8-2.609,7.187q-1.828,5.093-3.565,10.218c-.067.2-.522,1.839-.534,1.842a6.919,6.919,0,0,1-.882.112,17.046,17.046,0,0,1-4.982-.461.3.3,0,0,0-.338.439,17.687,17.687,0,0,1,1.042,4.382c.527,2.749.967,5.514,1.378,8.282.477,3.212.892,6.435,1.225,9.666q.207,2.014.345,4.034c.039.589.069,1.178.093,1.767.032.8.048.919-.686,1.274-3.072,1.483-6.887,1.812-10.239,1.885-.883.019-1.766-.019-2.647-.082-.283-.02-2.6-.281-2.587-.218q-.094-.384-.189-.769-1.449-5.909-2.877-11.823c-1.727-7.151-3.525-14.3-5.016-21.506a.306.306,0,0,0-.288-.22,27.928,27.928,0,0,1-10.991-3.517q-.361-.217-.706-.459c-.23-.16.073-.009.033.233.03-.181.06-.363.091-.544l.569-3.416c.063-.377-.514-.539-.577-.159" transform="translate(-15.667 -70.284)" fill="#495edb"/>
        <path id="Trazado_874648" data-name="Trazado 874648" d="M55.993,270.386a.3.3,0,0,1-.293-.239c-1.837-9.078-3.837-17.809-4.863-21.232a.3.3,0,0,1,.573-.172c1.031,3.439,3.036,12.192,4.877,21.285a.3.3,0,0,1-.234.353.294.294,0,0,1-.06.006" transform="translate(-20.427 -99.886)"/>
        <path id="Trazado_874649" data-name="Trazado 874649" d="M91.39,270.543a.3.3,0,0,1-.294-.243,14.68,14.68,0,0,0-1.078-2.888A41.633,41.633,0,0,1,88,262.137c-.761-2.563-.925-8.4-1.068-13.551-.087-3.157-.17-6.139-.382-7.867a.3.3,0,0,1,.261-.333.3.3,0,0,1,.333.261c.214,1.756.3,4.751.386,7.922.143,5.114.305,10.91,1.044,13.4a40.95,40.95,0,0,0,1.989,5.2,14.957,14.957,0,0,1,1.12,3.02.3.3,0,0,1-.239.349.29.29,0,0,1-.055.005" transform="translate(-34.785 -96.612)"/>
        <path id="Trazado_874650" data-name="Trazado 874650" d="M139.161,214.569a.3.3,0,0,1-.3-.268c0-.032-.336-3.23-.663-5.412a.3.3,0,0,1,.592-.089c.33,2.2.663,5.407.666,5.439a.3.3,0,0,1-.267.328l-.03,0" transform="translate(-55.543 -83.816)"/>
        <path id="Trazado_874651" data-name="Trazado 874651" d="M53.267,360.469a.3.3,0,0,1-.3-.284l-.387-7.583a.3.3,0,1,1,.6-.03l.387,7.584a.3.3,0,0,1-.283.313h-.016" transform="translate(-21.133 -141.586)"/>
        <path id="Trazado_874652" data-name="Trazado 874652" d="M53.155,356.677a.3.3,0,0,1-.064-.591l5.04-1.108a.3.3,0,0,1,.129.584l-5.04,1.108a.3.3,0,0,1-.065.007" transform="translate(-21.243 -142.666)"/>
        <path id="Trazado_874653" data-name="Trazado 874653" d="M109.906,372.994a.3.3,0,0,1-.088-.585c.072-.022.089-.053.1-.083a2.108,2.108,0,0,0-.426-1.238,7.12,7.12,0,0,0-4.447-2.637,7.917,7.917,0,0,0-2.258-.052,8.493,8.493,0,0,0-1.062.2c-.187.044-.374.087-.562.124a.3.3,0,1,1-.117-.586c.181-.036.362-.078.542-.12a9.092,9.092,0,0,1,1.147-.216,8.511,8.511,0,0,1,2.417.06,7.738,7.738,0,0,1,4.829,2.883c.083.124.731,1.13.5,1.781a.717.717,0,0,1-.486.453.3.3,0,0,1-.088.013" transform="translate(-40.514 -147.8)"/>
        <path id="Trazado_874654" data-name="Trazado 874654" d="M114.94,371.651a.3.3,0,0,1-.135-.566c.444-.222.631-.436.667-.763a2.122,2.122,0,0,0-.039-1.245,5.766,5.766,0,0,0-1.8-2.376,8.294,8.294,0,0,0-2.674-1.493,5.069,5.069,0,0,0-2.776-.259c-.431.03-.847.1-1.249.166s-.842.141-1.272.169a.3.3,0,0,1-.318-.279.3.3,0,0,1,.279-.319c.4-.026.812-.1,1.213-.161.416-.069.846-.141,1.278-.169a5.586,5.586,0,0,1,3.063.3,8.81,8.81,0,0,1,2.863,1.61A6.214,6.214,0,0,1,116,368.892a2.631,2.631,0,0,1,.058,1.535,1.548,1.548,0,0,1-.987,1.192.3.3,0,0,1-.133.032" transform="translate(-42.337 -146.401)"/>
        <path id="Trazado_874655" data-name="Trazado 874655" d="M195.873,120.886l-1.494-5.98s3.874-10.074,5.977-10.407,4.541-1.662,3.766-5.426-2.659-2.879-2.659-2.879c-1.881-3.21-3.543-2.989-4.65-2.435-2.989-3.986-9.412-4.539-12.955,1.993s-2.325,19.043.112,33.658c3.765-2.546,11.9-8.524,11.9-8.524" transform="translate(-73.005 -36.491)" fill="#ffd4d4"/>
        <path id="Trazado_874656" data-name="Trazado 874656" d="M89.919,200.625a24.234,24.234,0,0,1-16.338-6.3.3.3,0,1,1,.4-.445,23.674,23.674,0,0,0,17.452,6.1c4.251-.283,8.1-1.755,9.809-3.751a14.679,14.679,0,0,0,3.043-8.418.311.311,0,0,1,.309-.288.3.3,0,0,1,.288.309,15,15,0,0,1-3.183,8.782c-1.81,2.116-5.822,3.67-10.226,3.963-.467.031-.987.051-1.553.051" transform="translate(-29.533 -75.366)"/>
        <path id="Trazado_874657" data-name="Trazado 874657" d="M273.272,140.092,228.8,114.419c-4.429-2.557-11.678-2.557-16.107,0l-44.468,25.673c-4.43,2.557-8.054,8.836-8.054,13.95v51.347c0,5.115,3.624,11.392,8.054,13.951L212.7,245.012c4.429,2.558,11.678,2.558,16.107,0l44.468-25.673c4.429-2.558,8.053-8.836,8.053-13.951V154.042c0-5.114-3.624-11.392-8.053-13.95" transform="translate(-64.376 -45.215)" fill="#def2ff"/>
        <path id="Trazado_874658" data-name="Trazado 874658" d="M272.677,187.881A30.337,30.337,0,1,0,229.344,215.3c3.315,2.014,3.324,4.629,3.179,9.3-.121,3.931-.387,7.1,1.425,8.761,1.446,1.584,4.656,2.687,8.392,2.687s6.946-1.1,8.394-2.687c1.812-1.663,1.545-4.83,1.423-8.761-.144-4.669-.135-7.284,3.179-9.3a30.338,30.338,0,0,0,17.341-27.417" transform="translate(-85.206 -63.319)" fill="#f2ac30"/>
        <path id="Trazado_874659" data-name="Trazado 874659" d="M272.821,187.679a31.006,31.006,0,0,0-20.893-29.052c-12.5-4.292-26.531.392-34.391,10.859-8.246,10.98-7.733,26.5.644,37.225A30.793,30.793,0,0,0,225.7,213.5c1.45.943,3.145,1.551,4.465,2.673a6.19,6.19,0,0,1,1.9,4.418c.3,3.515-.6,7.156.27,10.617.7,2.792,3.728,4.013,6.256,4.572,4.269.944,11.861.493,13.446-4.572,1.568-5.014-2.386-13.113,3.678-16.045a30.9,30.9,0,0,0,17.107-27.49.3.3,0,0,0-.6,0,30.075,30.075,0,0,1-16.81,26.973,6.755,6.755,0,0,0-3.705,5.944c-.306,3.617,1,7.961-.592,11.355-1.7,3.612-7.7,3.8-11,3.476a10.939,10.939,0,0,1-5.651-2.045c-1.581-1.25-1.822-3.15-1.88-5.04-.1-3.319.67-6.895-.358-10.125-.913-2.865-3.914-3.776-6.221-5.23a30.042,30.042,0,0,1-13.677-28.641c1.464-14.3,13.565-25.568,27.762-26.634a30.041,30.041,0,0,1,32.132,29.966.3.3,0,0,0,.6,0" transform="translate(-85.051 -63.116)" fill="#f2ac30"/>
        <path id="Trazado_874660" data-name="Trazado 874660" d="M265.934,262.563a45.853,45.853,0,0,1-19.728,0,32.77,32.77,0,0,1,.047,4.24c-.121,3.931-.386,7.1,1.425,8.761,1.446,1.584,4.656,2.687,8.392,2.687s6.946-1.1,8.394-2.687c1.812-1.663,1.545-4.83,1.424-8.761a32.878,32.878,0,0,1,.047-4.24" transform="translate(-98.936 -105.526)" fill="#32015c"/>
        <path id="Trazado_874661" data-name="Trazado 874661" d="M265.565,262.076a46.254,46.254,0,0,1-19.569,0,.3.3,0,0,0-.379.288c.347,3.868-.989,8.466.717,12.1,1.509,3.216,6.384,3.845,9.446,3.888,3.268.046,7.679-.78,9.447-3.888.8-1.406.761-3.271.755-4.829-.008-2.424-.256-4.851-.039-7.272.034-.384-.565-.38-.6,0-.322,3.591.6,7.376-.291,10.9-.935,3.724-6.127,4.444-9.275,4.489-3.311.047-8.134-.847-9.274-4.489a15.838,15.838,0,0,1-.3-5.1,48.679,48.679,0,0,0,.005-5.8l-.379.289a47.023,47.023,0,0,0,19.887,0c.377-.082.217-.658-.159-.577" transform="translate(-98.646 -105.327)" fill="#32015c"/>
        <path id="Trazado_874662" data-name="Trazado 874662" d="M246.092,237.03h-.021a.6.6,0,0,1-.577-.618,53.939,53.939,0,0,0-2.71-18.524,12.963,12.963,0,0,1-1.932.087c-5.831-.17-9.168-3.237-10.254-5.812a3.823,3.823,0,0,1,.337-4.145c.573-.623,1.97-1.526,4.9-.575,3.547,1.156,6.04,4.717,7.736,9.1a11.1,11.1,0,0,0,5.421-2.935,18.518,18.518,0,0,1-5.377-12.014c-.18-4.971,2.532-7.164,5.13-7.559a5.674,5.674,0,0,1,6.412,3.992c.964,3.56-.394,10.4-3.952,14.915q-.248.314-.5.608a12.184,12.184,0,0,0,1.885,1.3,10.373,10.373,0,0,0,2.185.91c2.181-6.566,5.356-9.41,7.15-10.55a4.942,4.942,0,0,1,5.04-.355,3.978,3.978,0,0,1,2.112,3.488c.021,1.461-.7,4.346-5.74,7.253a11.381,11.381,0,0,1-7.717,1.582c-1.3,4.325-2.172,10.232-1.956,18.254a.6.6,0,0,1-.582.615.61.61,0,0,1-.614-.582c-.218-8.093.636-14.106,1.95-18.561A11.617,11.617,0,0,1,252,215.9a13.236,13.236,0,0,1-2.126-1.475,12.234,12.234,0,0,1-5.893,3.261,57.21,57.21,0,0,1,2.707,18.771.6.6,0,0,1-.6.578M233.5,208.222a2.195,2.195,0,0,0-1.682.606,2.694,2.694,0,0,0-.117,2.87c.949,2.248,3.923,4.926,9.187,5.08a11.665,11.665,0,0,0,1.46-.047c-1.618-4.037-3.887-7.174-6.886-8.15a6.446,6.446,0,0,0-1.962-.359m22.481,7.8a10.369,10.369,0,0,0,6.749-1.461c3.3-1.9,5.171-4.161,5.142-6.2a2.761,2.761,0,0,0-1.484-2.453,3.767,3.767,0,0,0-3.829.312c-1.324.842-4.406,3.4-6.578,9.8m-6.365-20.851a4.59,4.59,0,0,0-.695.052c-2.089.316-4.266,2.147-4.114,6.333a17.239,17.239,0,0,0,5,11.2q.24-.275.453-.546c3.638-4.613,4.508-11.014,3.737-13.86a4.421,4.421,0,0,0-4.383-3.174" transform="translate(-92.504 -77.957)" fill="#32015c"/>
        <path id="Trazado_874663" data-name="Trazado 874663" d="M256.723,269.814a28.051,28.051,0,0,1-7.944-1.041.3.3,0,1,1,.169-.574c5.212,1.532,10.7,1.03,15.429.438a.3.3,0,0,1,.334.26.3.3,0,0,1-.26.333,62.178,62.178,0,0,1-7.727.583" transform="translate(-99.9 -107.787)"/>
        <path id="Trazado_874664" data-name="Trazado 874664" d="M182.025,244.593c-1.8,1.413-3.543.713-3.864-1.556l-1.734-12.253c-.321-2.27,1.153-3.424,3.279-2.568l11.479,4.623c2.126.856,2.389,2.712.585,4.124Z" transform="translate(-70.89 -91.608)" fill="#d4336e"/>
        <path id="Trazado_874665" data-name="Trazado 874665" d="M247.8,312.038a2.4,2.4,0,0,1-1.022-.215,2.505,2.505,0,0,1-1.3-2.595,4.566,4.566,0,0,1,2.739-3.9,8.229,8.229,0,0,1,.906-.409,7.543,7.543,0,0,0-4.3-1.822,4.73,4.73,0,0,0-4.855,2.629.3.3,0,1,1-.535-.267,5.313,5.313,0,0,1,5.436-2.958,8.138,8.138,0,0,1,4.891,2.2,11.853,11.853,0,0,1,9.346,1.146.3.3,0,0,1-.327.5,11.19,11.19,0,0,0-8.558-1.16,5.6,5.6,0,0,1,1.108,1.932,3.647,3.647,0,0,1-1.114,3.934,3.758,3.758,0,0,1-2.417.986m1.8-6.66a8.058,8.058,0,0,0-1.1.477,4.019,4.019,0,0,0-2.42,3.386,1.991,1.991,0,0,0,.951,2.039,2.748,2.748,0,0,0,2.792-.678,3.048,3.048,0,0,0,.938-3.3,5.147,5.147,0,0,0-1.16-1.922" transform="translate(-96.217 -121.567)" fill="#495edb"/>
        <path id="Trazado_874666" data-name="Trazado 874666" d="M323.721,261.641a7.2,7.2,0,1,1-7.2-7.2,7.2,7.2,0,0,1,7.2,7.2" transform="translate(-124.322 -102.263)" fill="#7db3db"/>
        <path id="Trazado_874667" data-name="Trazado 874667" d="M326.5,171.146a3.486,3.486,0,0,1-4.886.665l-5.421-4.121a3.488,3.488,0,0,1,4.223-5.553l5.421,4.121a3.488,3.488,0,0,1,.664,4.887" transform="translate(-126.528 -64.879)" fill="#ffc4c4"/>
        <path id="Trazado_874668" data-name="Trazado 874668" d="M207.122,272.657a3.487,3.487,0,0,1,4.389,2.249l2.089,6.481a3.488,3.488,0,0,1-6.64,2.139l-2.089-6.481a3.488,3.488,0,0,1,2.25-4.389" transform="translate(-82.272 -109.515)" fill="#ffc4c4"/>
        <path id="Trazado_874669" data-name="Trazado 874669" d="M189.415,182.512a5.032,5.032,0,1,1,5.032-5.032,5.038,5.038,0,0,1-5.032,5.032m0-9.467a4.434,4.434,0,1,0,4.434,4.434,4.439,4.439,0,0,0-4.434-4.434" transform="translate(-74.105 -69.308)" fill="#495edb"/>
        <path id="Trazado_874670" data-name="Trazado 874670" d="M235.13,142.258a12.047,12.047,0,0,1-3.288-.519.3.3,0,0,1,.164-.575c3.148.9,5.3.608,7.413-1a16.894,16.894,0,0,0,1.851-1.644,6.056,6.056,0,0,1-2.556-2.349,5.4,5.4,0,0,1-.435-4.506,2.908,2.908,0,0,1,2.043-1.8,3.639,3.639,0,0,1,3.84,2.011c1.112,2.22-.325,4.648-1.853,6.392a5.323,5.323,0,0,0,2.233.139,6.131,6.131,0,0,0,5.031-4.51.3.3,0,1,1,.577.154A6.728,6.728,0,0,1,244.627,139a5.9,5.9,0,0,1-2.766-.242,18.548,18.548,0,0,1-2.08,1.879,7.376,7.376,0,0,1-4.65,1.618m5.669-11.826a2.963,2.963,0,0,0-.368.023,2.291,2.291,0,0,0-1.6,1.437,4.754,4.754,0,0,0,.391,3.967,5.427,5.427,0,0,0,2.478,2.2c1.6-1.784,2.858-4.048,1.912-5.938a3,3,0,0,0-2.814-1.686" transform="translate(-93.092 -52.183)" fill="#f2ac30"/>
        <path id="Trazado_874671" data-name="Trazado 874671" d="M361.694,231.891a49.509,49.509,0,0,0-2.355-9.009c-.663-1.72-.182-2.795-2.757-4.29s-5.73-4.153-6.312-4.4-1.494-3.819-4.9-.664-7.14,3.4-8.053.414c-1.744-.331-2.74-1.743-2.243-2.74s4.484-3.736,4.484-3.736c-1.993,1.078-5.481,1.328-5.979-.166s1.162-2.659,3.986-3.488,14.117-5.9,17.188-3.986,7.973,6.062,11.46,8.387,4.733,6.061,6.394,10.462,2.989,9.052,2.989,9.052-4.356,7.653-13.9,4.165" transform="translate(-134.033 -80.14)" fill="#ffd4d4"/>
        <path id="Trazado_874672" data-name="Trazado 874672" d="M338.052,221.594a2.312,2.312,0,0,1-2-1.087.3.3,0,1,1,.493-.339c1.087,1.578,2.946.639,4.916-.554l.4-.238c.15-.078.289-.147.428-.215a5.347,5.347,0,0,0,1.336-.827.3.3,0,1,1,.41.435,5.866,5.866,0,0,1-1.482.927c-.135.066-.269.133-.4.2l-.377.227a8.069,8.069,0,0,1-3.718,1.469" transform="translate(-135.04 -87.717)"/>
        <path id="Trazado_874673" data-name="Trazado 874673" d="M336.465,213.031a3.945,3.945,0,0,1-1.017-.129.3.3,0,1,1,.152-.578,5.271,5.271,0,0,0,2.339-.071c.191-.035.385-.069.581-.1a12.442,12.442,0,0,0,1.981-.644c.15-.077.306-.147.462-.218s.3-.136.46-.217c.111-.056.221-.124.335-.195a3.124,3.124,0,0,1,.768-.379.3.3,0,1,1,.165.575,2.647,2.647,0,0,0-.619.313c-.129.08-.255.157-.381.22-.169.086-.325.156-.48.227s-.3.136-.461.216a13.022,13.022,0,0,1-2.116.688c-.213.034-.4.068-.589.1a8.848,8.848,0,0,1-1.58.19" transform="translate(-134.729 -84.596)"/>
        <path id="Trazado_874674" data-name="Trazado 874674" d="M359.726,197.285a2.569,2.569,0,0,1,.716,3.546l-6.891,10.375a2.564,2.564,0,0,1-3.543.716l-10.376-6.889a2.566,2.566,0,0,1-.716-3.544l6.89-10.374a2.564,2.564,0,0,1,3.544-.717Z" transform="translate(-136.043 -76.352)" fill="#495edb"/>
        <path id="Trazado_874675" data-name="Trazado 874675" d="M457.3,152.216c-15.387.816-12.734,13.5-11.5,17.652,1.125,3.795-4.1,6.961-1.434,11.648s7.372,7.226,14.68,7.559c0,0-.362,8.139-.694,10.794l15.281-1c-.641-4.706-2.021-14.468-.139-18.1.766-1.478,5.385,4.729,10.295-2.822s-11.1-26.547-26.484-25.731" transform="translate(-178.284 -61.166)" fill="#ffd4d4"/>
        <path id="Trazado_874676" data-name="Trazado 874676" d="M469.2,211.094a.3.3,0,0,1-.017-.6,19.252,19.252,0,0,0,10.48-4.023.3.3,0,0,1,.373.468,19.865,19.865,0,0,1-10.818,4.153H469.2" transform="translate(-188.455 -82.957)"/>
        <path id="Trazado_874677" data-name="Trazado 874677" d="M469.717,184.71c1.529-.077,2.269,2.916.784,3.106s-2.04-3.043-.784-3.106" transform="translate(-188.503 -74.236)"/>
        <path id="Trazado_874678" data-name="Trazado 874678" d="M469.4,184.743a.3.3,0,0,1-.123-.026l-.091-.041a3.959,3.959,0,0,1-1.438-.876.3.3,0,0,1,.461-.381,3.763,3.763,0,0,0,1.221.712l.092.041a.3.3,0,0,1-.122.572" transform="translate(-187.965 -73.673)"/>
        <path id="Trazado_874679" data-name="Trazado 874679" d="M450.729,182.22c1.53-.022,2.161,3,.67,3.132s-1.928-3.115-.67-3.132" transform="translate(-180.856 -73.236)"/>
        <path id="Trazado_874680" data-name="Trazado 874680" d="M450.445,182.231a.306.306,0,0,1-.133-.031l-.1-.05a3.922,3.922,0,0,1-1.394-.923.3.3,0,0,1,.474-.363,3.737,3.737,0,0,0,1.185.75l.1.05a.3.3,0,0,1-.133.567" transform="translate(-180.358 -72.643)"/>
        <path id="Trazado_874681" data-name="Trazado 874681" d="M457.079,188.817a3.888,3.888,0,0,1-2.792-.864c-1.057-.946-.434-2.094-.021-2.854a7.943,7.943,0,0,0,1.191-3.788,3.522,3.522,0,0,0-1.109-2.456l-.273-.334a.3.3,0,1,1,.466-.374l.269.329a4.083,4.083,0,0,1,1.246,2.825,8.478,8.478,0,0,1-1.264,4.084c-.49.9-.761,1.536-.106,2.123a4.009,4.009,0,0,0,3.008.7c.171,0,.341-.008.511-.01h0a.3.3,0,0,1,0,.6c-.167,0-.334.005-.5.01-.209,0-.42.01-.63.01" transform="translate(-182.347 -71.553)"/>
        <path id="Trazado_874682" data-name="Trazado 874682" d="M460.56,200.473c-.9,0-1.716-.787-2.434-2.339a.3.3,0,0,1,.029-.3.306.306,0,0,1,.276-.122,8.491,8.491,0,0,0,4.85-1.981.3.3,0,0,1,.514.26c-.373,1.862-1.622,4.484-3.236,4.484m-1.685-2.173c.544,1.032,1.122,1.575,1.685,1.575,1,0,1.94-1.611,2.419-3.118a10.524,10.524,0,0,1-4.1,1.543" transform="translate(-184.114 -78.626)"/>
        <path id="Trazado_874683" data-name="Trazado 874683" d="M466.252,177.184c-.413-1.038.6-2.209,2.467-1.42a7.584,7.584,0,0,1,3.419,3.167c.664,1.245-.126.52-.914-.1a5.441,5.441,0,0,0-3.813-1.309c-.684.014-1.074.079-1.159-.336" transform="translate(-187.354 -70.537)" fill="#d4336e"/>
        <path id="Trazado_874684" data-name="Trazado 874684" d="M472.128,179.716c-.227,0-.48-.2-1.031-.638l-.261-.209a5.107,5.107,0,0,0-3.47-1.246l-.369.008c-.11,0-.211.006-.3.006-.266,0-.821,0-.94-.588a1.429,1.429,0,0,1,.151-1.338,2.173,2.173,0,0,1,2.726-.417,7.831,7.831,0,0,1,3.568,3.3c.286.536.342.767.231.952a.405.405,0,0,1-.3.169m-4.761-2.691a5.714,5.714,0,0,1,3.839,1.374l.267.212.092.075a7.329,7.329,0,0,0-3.164-2.842c-.886-.374-1.67-.281-2,.2a.879.879,0,0,0-.074.831c.029.12.037.16.369.16.085,0,.181,0,.284-.006Z" transform="translate(-187.15 -70.342)" fill="#d4336e"/>
        <path id="Trazado_874685" data-name="Trazado 874685" d="M440.5,148.716c1.328-2.269,6.643-7.972,14.061-11.128,0,6.976,3.708,17.825,12.289,18.1-.277,2.88-.609,4.983.109,5.26s3.1-1.273,3.488-4.705c2.05-2.214,6.974-1.5,8.083,1.993s-2.27,8.912-8.469,6.422c-1-.166-2.215,1.661-1.993,5.646,5.037.554,10.574-1.218,13.619-6.421s2.49-11.568-.667-16.663-3.764-7.141-3.154-9.744c9.19,1.882,14.9-4.544,13.653-12.681s-9.066-13.157-17.868-10.915-11.289,12.635-2.392,18.69c-1.246,1.411-5.074.034-9.889-2.207s-19.159-5.517-26.241,5.565c-7.252,11.348,3.488,18.765,6.228,18.019a15.257,15.257,0,0,1-.858-5.232" transform="translate(-173.89 -45.554)" fill="#d4336e"/>
        <path id="Trazado_874686" data-name="Trazado 874686" d="M489.875,280.966c-5.647-13.064-7.529-20.814-12.953-34.321s-15.39-13.507-21.368-14.172-7.907-3.388-8.24-7.815c-12.289,4.54-14.679-1.263-14.9-.82-1.053,6.533-3.1,6.532-10.188,5.535s-16.163,10.518-23.47,19.93c0,0-4.429-12.456-5.537-14.339-5.812,5.065-10.571,4.523-14.142,3.361,0,0,1.551,5.5,2.458,9.316-7.135,2.408,1.431,21.5,5.208,28.841,6.919,13.452,18.978,9.451,28.169-4.5,2.227,2.3,4.725,4.651,4.837,5.759a61.314,61.314,0,0,1-.51,10.2c-.552,3.321-3.321,12.843-3.321,13.175s3.542,8.968,3.542,8.968,34.765.665,34.655,5.647c5.314-.775,23.029.332,33.547-4.761s7.86-16.939,2.214-30M462.861,295.8l1.439-15.721,3.986,15.279Z" transform="translate(-152.236 -89.952)" fill="#7db3db"/>
        <path id="Trazado_874687" data-name="Trazado 874687" d="M489.919,280.619c-3.121-7.246-5.721-14.674-8.357-22.1q-2.072-5.839-4.349-11.6a26.784,26.784,0,0,0-5.272-8.7c-3.333-3.521-7.89-5.192-12.6-5.807a39.015,39.015,0,0,1-7.179-1.112c-3.161-1.033-4.491-3.7-4.76-6.837a.3.3,0,0,0-.379-.288c-4.135,1.5-10.211,3.213-13.934-.181-.254-.231-.784-1-1.144-.5a6.821,6.821,0,0,0-.388,1.873,9.662,9.662,0,0,1-.624,1.833,3.5,3.5,0,0,1-2.343,1.989c-2.524.691-5.2-.416-7.74-.362-2.585.055-5.017,1.566-7.028,3.045-6.151,4.522-10.851,11.057-15.488,17.027l.5.132q-1.18-3.317-2.409-6.614a53.549,53.549,0,0,0-3.158-7.8.3.3,0,0,0-.47-.061c-4.072,3.465-8.685,4.926-13.852,3.285a.3.3,0,0,0-.368.368c.871,3.091,1.71,6.193,2.458,9.316.071-.123.14-.245.209-.368-3.955,1.453-3.08,6.891-2.415,10.092a73.342,73.342,0,0,0,5.992,16.254c2.33,4.9,5.322,10.307,11.2,11.244,6.025.961,11.523-3.681,15.207-7.861a46.107,46.107,0,0,0,3.73-4.948l-.47.061c.966.995,1.947,1.975,2.9,2.985.716.761,1.807,1.733,1.873,2.844a51.2,51.2,0,0,1-.126,6.044,60.829,60.829,0,0,1-2.44,12.177c-.4,1.478-.819,2.95-1.195,4.434a3.075,3.075,0,0,0,.413,1.9c.979,2.544,2.017,5.065,3.051,7.587a.309.309,0,0,0,.288.22c5.451.106,10.907.4,16.34.865a99.2,99.2,0,0,1,12.02,1.6c1.293.271,5.963.959,6,2.885a.305.305,0,0,0,.379.288c4.918-.682,10-.413,14.949-.766,6.084-.434,12.349-1.241,17.981-3.706,12.815-5.608,7.147-21.111,3.009-30.734-.152-.354-.667-.048-.516.3,2.478,5.766,4.962,12.016,4.913,18.391a12.937,12.937,0,0,1-2.12,7.22c-1.715,2.53-4.534,3.964-7.317,5-5.7,2.13-11.962,2.7-18,3.06-4.33.256-8.76.057-13.062.653l.379.289c-.039-2.24-4.2-2.947-5.754-3.311A93.134,93.134,0,0,0,435,310.405c-4.185-.349-8.382-.572-12.579-.722q-1.484-.053-2.967-.089c-.429-.01.169.429-.03-.057q-.527-1.287-1.048-2.576-.87-2.144-1.718-4.3c-.249-.636-.721-1.472-.586-2.023.761-3.093,1.679-6.147,2.45-9.238a48.508,48.508,0,0,0,1.34-10.745c.026-1.053.312-2.685-.19-3.676-1.062-2.095-3.153-3.749-4.762-5.406a.3.3,0,0,0-.47.06c-3.564,5.351-8.565,11.262-15.244,12.481-6.435,1.173-10.568-4.258-13.1-9.35a89.439,89.439,0,0,1-6.024-15c-.893-3.109-3.009-10.438,1.328-12.031a.306.306,0,0,0,.209-.368c-.748-3.123-1.587-6.226-2.458-9.316l-.368.368c5.382,1.71,10.2.167,14.433-3.438l-.47-.06a54.632,54.632,0,0,1,3.209,7.953q1.171,3.148,2.3,6.313c.067.187.35.325.5.132,4.7-6.055,9.457-12.589,15.692-17.172,2.525-1.856,5.175-3,8.33-2.563,2.093.286,4.536.771,6.578-.02,1.681-.651,2.361-2.429,2.777-4.04.147-.572.466-1.238,0-1.629.095.08.178.175.265.263a8.028,8.028,0,0,0,1,.849c3.907,2.841,9.724,1.213,13.787-.256l-.379-.289a8.538,8.538,0,0,0,2.515,5.931c1.915,1.719,4.668,2.053,7.119,2.3,5,.5,9.819,1.41,13.791,4.734a23.057,23.057,0,0,1,6.194,9.105c1.642,4,3.118,8.072,4.566,12.145,2.66,7.478,5.275,14.953,8.418,22.247.152.353.667.048.516-.3" transform="translate(-152.021 -89.755)" fill="#7db3db"/>
        <path id="Trazado_874688" data-name="Trazado 874688" d="M519.456,333.417,520.9,317.7l-.587.08q1.993,7.639,3.986,15.279l.288-.379-5.425.443c-.382.031-.385.63,0,.6l5.425-.443a.3.3,0,0,0,.289-.379q-1.993-7.64-3.986-15.279a.3.3,0,0,0-.588.08l-1.439,15.721c-.035.385.563.381.6,0" transform="translate(-208.533 -127.566)" fill="#7db3db"/>
        <path id="Trazado_874689" data-name="Trazado 874689" d="M407.732,353.163c2.437-2.325,8.3-6.422,9.744-4.319a5.073,5.073,0,0,1,3.764-1.217c1.661-1.772,3.655-2.215,5.647.111s7.971,7.307,8.968,8.3,8.747.775,26.13-2.989c3.542,1.44,3.733,11.464,3.733,11.464-6.453.408-53.985.182-53.985.182Z" transform="translate(-163.871 -139.118)" fill="#ffd4d4"/>
        <path id="Trazado_874690" data-name="Trazado 874690" d="M433.25,360.032a.3.3,0,0,1-.214-.09l-.082-.084a.292.292,0,0,1-.072-.122,5.272,5.272,0,0,1-.572-1.3c-.155-.31-.3-.619-.444-.928s-.292-.627-.461-.962c-.364-.563-.705-1.2-1.035-1.82-.258-.486-.525-.985-.809-1.458-.428.5-.888.983-1.334,1.452a26.222,26.222,0,0,0-1.88,2.123l-.107.143c-.74,1-2.118,2.848-3.85,1.844a1.825,1.825,0,0,1-.944-1.138,3.919,3.919,0,0,1,.586-2.759c.425-.681.892-1.339,1.344-1.976s.907-1.279,1.318-1.934c.222-.335.422-.68.622-1.025a9.518,9.518,0,0,1,1.413-2.017.3.3,0,0,1,.423.423,8.948,8.948,0,0,0-1.318,1.894c-.206.355-.413.711-.638,1.049-.414.663-.881,1.321-1.332,1.956s-.91,1.282-1.321,1.938a3.429,3.429,0,0,0-.523,2.286,1.24,1.24,0,0,0,.659.778c1.187.687,2.134-.4,3.081-1.677l.109-.147a26.7,26.7,0,0,1,1.924-2.174c.559-.587,1.086-1.141,1.572-1.739a.3.3,0,0,1,.248-.109.3.3,0,0,1,.236.136c.38.592.72,1.23,1.05,1.848s.658,1.236,1.026,1.806c.187.368.335.686.484,1.005.142.3.284.608.446.932a.5.5,0,0,1,.022.058,4.127,4.127,0,0,0,.608,1.3.3.3,0,0,1-.234.486" transform="translate(-169.349 -139.821)"/>
        <path id="Trazado_874691" data-name="Trazado 874691" d="M414.2,358.682a2.4,2.4,0,0,1-1.919-.857c-1.1-1.529.493-3.118,1.015-3.64a28.744,28.744,0,0,1,5.961-4.035.3.3,0,1,1,.292.522,28.283,28.283,0,0,0-5.835,3.941c-1.19,1.19-1.5,2.1-.959,2.849a2.223,2.223,0,0,0,2.7.321,12.624,12.624,0,0,0,2.5-1.693l.394.451a13.119,13.119,0,0,1-2.638,1.782,3.43,3.43,0,0,1-1.508.359" transform="translate(-165.546 -140.713)"/>
        <path id="Trazado_874692" data-name="Trazado 874692" d="M409.382,363.342a.3.3,0,0,1-.041-.6A3.428,3.428,0,0,0,411,362a.3.3,0,0,1,.423.423,3.989,3.989,0,0,1-2,.915l-.042,0" transform="translate(-164.414 -145.456)"/>
        <path id="Trazado_874693" data-name="Trazado 874693" d="M438.639,290.723a.3.3,0,0,1-.2-.081,11.78,11.78,0,0,1-2.67-4.272c-1.755-5.494-.348-11.208,1.435-16.565.1-.291-.379-.824-.694-1.176-.123-.138-.239-.269-.329-.385-.315-.533-.608-1.035-.9-1.537a.3.3,0,1,1,.517-.3q.436.754.876,1.5c.061.075.167.195.281.321.454.51,1.021,1.145.815,1.764-1.751,5.261-3.136,10.863-1.432,16.194a11.3,11.3,0,0,0,2.508,4.017.3.3,0,0,1-.2.517" transform="translate(-174.814 -107.011)"/>
        <path id="Trazado_874694" data-name="Trazado 874694" d="M385.045,261.92a5.635,5.635,0,0,1-2.93-.6.3.3,0,1,1,.329-.5c1.795,1.184,8.117.438,13.173-3.012a.3.3,0,1,1,.337.494,20.555,20.555,0,0,1-10.909,3.622" transform="translate(-153.521 -103.593)"/>
        <path id="Trazado_874695" data-name="Trazado 874695" d="M414.354,273.277a.3.3,0,0,1-.293-.243,37.863,37.863,0,0,0-2.583-8.271.3.3,0,1,1,.556-.221,38.352,38.352,0,0,1,2.614,8.379.3.3,0,0,1-.237.35.309.309,0,0,1-.057.005" transform="translate(-165.368 -106.246)"/>
        <path id="Trazado_874696" data-name="Trazado 874696" d="M521.726,319.917a.3.3,0,0,1-.288-.216c-.467-1.621-.965-3.48-1.493-5.449-1.055-3.935-2.251-8.4-3.517-12.118-1.825-5.364-3.287-10.827-4.874-16.9a.3.3,0,0,1,.214-.365.3.3,0,0,1,.364.214c1.584,6.062,3.044,11.514,4.862,16.859,1.272,3.74,2.471,8.211,3.528,12.156.527,1.966,1.025,3.822,1.49,5.437a.3.3,0,0,1-.2.37.287.287,0,0,1-.083.012" transform="translate(-205.594 -114.486)"/>
        <path id="Trazado_874697" data-name="Trazado 874697" d="M497.81,351.6a.294.294,0,0,1-.209-.087.365.365,0,0,1-.087-.359.385.385,0,0,1,.33-.193.221.221,0,0,0,.083-.01.336.336,0,0,1,.062-.023c.132-.033.264-.081.4-.13a4.932,4.932,0,0,1,.69-.206,9.131,9.131,0,0,0,1.322-.317l.316-.092c.281-.049.528-.071.766-.092.1-.008.2-.017.3-.028-.016-.038-.033-.075-.05-.114a3.867,3.867,0,0,1-.483-2.273,4.512,4.512,0,0,1,2.128-2.773,13.007,13.007,0,0,1,5.02-1.467c.331-.05.66-.1.985-.154a39.829,39.829,0,0,1,4.2-.374c.684-.036,1.369-.072,2.054-.127,1.633-.083,3.313-.168,5-.168H524.3a.3.3,0,0,1,0,.6h-3.654c-1.677,0-3.349.084-4.966.166-.682.054-1.371.091-2.06.127a39.245,39.245,0,0,0-4.136.367c-.326.054-.658.1-.993.155a12.579,12.579,0,0,0-4.792,1.381,3.938,3.938,0,0,0-1.856,2.365,3.377,3.377,0,0,0,.441,1.934c.071.161.142.322.206.483a.3.3,0,0,1-.219.4,6.913,6.913,0,0,1-.735.09c-.223.019-.454.039-.686.078l-.28.083a9.474,9.474,0,0,1-1.389.333,4.318,4.318,0,0,0-.59.181c-.147.052-.288.1-.429.139a.691.691,0,0,1-.19.051.3.3,0,0,1-.163.048" transform="translate(-199.948 -137.7)"/>
        <path id="Trazado_874698" data-name="Trazado 874698" d="M509.914,367.084a.3.3,0,0,1-.3-.3,17.644,17.644,0,0,0-1.06-6.206l-.145-.409a11.3,11.3,0,0,0-1.316-2.846,6.893,6.893,0,0,0-2.471-2.067.3.3,0,0,1,.286-.525,7.46,7.46,0,0,1,2.682,2.26,11.78,11.78,0,0,1,1.382,2.978l.142.4a18.129,18.129,0,0,1,1.1,6.223c0,.007,0,.014,0,.022v.166a.3.3,0,0,1-.3.3" transform="translate(-202.749 -142.555)"/>
        <path id="Trazado_874699" data-name="Trazado 874699" d="M457.422,312.636H457.4a.3.3,0,0,1-.281-.316,31.669,31.669,0,0,1,1.523-5.614,24.3,24.3,0,0,0,1.029-3.147c.127-.46.256-.923.4-1.391a53.8,53.8,0,0,0,2.42-10.565,16.872,16.872,0,0,0,.331-3.292,9.391,9.391,0,0,0-.648-3c-.2-.637-.41-1.268-.621-1.9-.486-1.467-.99-2.984-1.38-4.544a31.54,31.54,0,0,1-1.114-6.465,11.5,11.5,0,0,1,.126-2.559c.035-.274.069-.548.1-.823l.028-.278c.105-1.059.215-2.153.419-3.182.171-.573.307-1.119.444-1.665s.28-1.121.45-1.684a23.977,23.977,0,0,1,.83-2.411c.129-.334.26-.676.392-1.037.37-1.169.7-2.36,1.051-3.621.267-.959.536-1.926.826-2.894.1-.53.246-1.094.382-1.638s.277-1.107.386-1.657c.071-.252.126-.471.181-.686a9.983,9.983,0,0,1,.5-1.588.3.3,0,1,1,.549.236,9.544,9.544,0,0,0-.471,1.5c-.056.221-.113.445-.18.679-.106.541-.249,1.111-.387,1.661s-.273,1.095-.383,1.638c-.3.991-.563,1.955-.829,2.91-.337,1.211-.684,2.462-1.061,3.653-.138.377-.27.722-.4,1.06a23.782,23.782,0,0,0-.815,2.361c-.167.557-.308,1.12-.444,1.664s-.278,1.111-.444,1.664c-.192.974-.3,2.053-.4,3.1l-.028.279c-.027.279-.062.559-.1.837a10.944,10.944,0,0,0-.124,2.425,31.146,31.146,0,0,0,1.1,6.363c.39,1.554.89,3.061,1.373,4.517.212.637.422,1.27.621,1.9a9.963,9.963,0,0,1,.678,3.19,17.294,17.294,0,0,1-.337,3.38,54.235,54.235,0,0,1-2.439,10.651c-.141.463-.269.922-.395,1.377a25.308,25.308,0,0,1-1.054,3.222,31.393,31.393,0,0,0-1.477,5.413.3.3,0,0,1-.3.282" transform="translate(-183.721 -99.067)"/>
        <path id="Trazado_874700" data-name="Trazado 874700" d="M475.635,239.159a2.887,2.887,0,0,1-2.368-1.4,9.807,9.807,0,0,1-1.643-4.857c-.051-.342-.1-.691-.164-1.039-.459.781-.925,1.554-1.437,2.321l-.141.213c-.717,1.087-2.052,3.111-3.559,3.3a1.909,1.909,0,0,1-1.566-.551c-1.2-1.112-1.111-2.523-1.026-3.886l.015-.255a.3.3,0,1,1,.6.035l-.015.256c-.079,1.282-.154,2.492.834,3.41a1.319,1.319,0,0,0,1.087.4c1.233-.154,2.517-2.1,3.133-3.035l.142-.215c.651-.976,1.232-1.971,1.794-2.933a.333.333,0,0,1,.316-.166.293.293,0,0,1,.258.211c.136.612.23,1.241.321,1.849a9.236,9.236,0,0,0,1.534,4.591,2.2,2.2,0,0,0,2.725.986A19.937,19.937,0,0,0,480,236.75a11.588,11.588,0,0,0,2.832-2.428.3.3,0,0,1,.459.383,12.188,12.188,0,0,1-2.978,2.553,20.437,20.437,0,0,1-3.627,1.688,2.819,2.819,0,0,1-1.051.212" transform="translate(-186.36 -92.739)"/>
        <path id="Trazado_874701" data-name="Trazado 874701" d="M473.964,243.966a1.209,1.209,0,0,1-.218-.02,1,1,0,0,1-.818-.824,1.5,1.5,0,0,1,.52-1.562,1.437,1.437,0,0,1,1.578-.087.3.3,0,0,1,.148.333,1.071,1.071,0,0,1,.153.336,1.491,1.491,0,0,1-.2,1.185,1.394,1.394,0,0,1-1.158.639m.323-2.089a.784.784,0,0,0-.478.16.907.907,0,0,0-.3.96.408.408,0,0,0,.34.361.8.8,0,0,0,.776-.37.9.9,0,0,0,.12-.692.4.4,0,0,0-.233-.286.3.3,0,0,1-.144-.13.811.811,0,0,0-.086,0" transform="translate(-190.056 -96.972)"/>
        <path id="Trazado_874702" data-name="Trazado 874702" d="M469.242,269.954a1.284,1.284,0,0,1-.852-.372,1.442,1.442,0,0,1-.423-1.149,1.942,1.942,0,0,1,.774-1.391.992.992,0,0,1,1.15-.059.331.331,0,0,1,.135.1.8.8,0,0,1,.551.711,2.166,2.166,0,0,1-.851,2.032,1.007,1.007,0,0,1-.484.127m.065-2.529a.347.347,0,0,0-.209.1,1.354,1.354,0,0,0-.535.953.839.839,0,0,0,.236.672c.356.312.569.2.638.157a1.6,1.6,0,0,0,.55-1.412c-.008-.05-.041-.216-.124-.231a.3.3,0,0,1-.19-.12l0,0a1.187,1.187,0,0,0-.361-.114" transform="translate(-188.078 -107.24)"/>
        <path id="Trazado_874703" data-name="Trazado 874703" d="M467.395,297.453a1.043,1.043,0,0,1-.806-.45,2.017,2.017,0,0,1-.315-1.445,1.156,1.156,0,0,1,.463-.821.3.3,0,0,1,.283-.026.285.285,0,0,1,.313-.273,1.2,1.2,0,0,1,1.165,1.018,1.838,1.838,0,0,1-.754,1.918.815.815,0,0,1-.35.079m-.194-2.441a.3.3,0,0,1-.132.223.6.6,0,0,0-.2.414,1.433,1.433,0,0,0,.188.977c.161.2.307.269.435.208a1.307,1.307,0,0,0,.424-1.261.6.6,0,0,0-.608-.538.311.311,0,0,1-.1-.023" transform="translate(-187.39 -118.336)"/>
        <path id="Trazado_874704" data-name="Trazado 874704" d="M469.168,337.215a.778.778,0,0,1-.426-.126,1.956,1.956,0,0,1-.533-1.895.3.3,0,0,1,.16-.2.3.3,0,0,1,.163-.248.514.514,0,0,0,.152-.153,1.189,1.189,0,0,1,.1-.124.276.276,0,0,1,.077-.056,1.065,1.065,0,0,1,1.259.3,1.583,1.583,0,0,1-.186,2.185,1.279,1.279,0,0,1-.77.314m-.369-1.935a.3.3,0,0,1-.007.045c-.093.42.016,1.1.27,1.261.137.09.349-.034.5-.151a.99.99,0,0,0,.118-1.316.532.532,0,0,0-.5-.191l-.021.028a1.063,1.063,0,0,1-.355.323l0,0" transform="translate(-188.158 -134.363)"/>
        <path id="Trazado_874705" data-name="Trazado 874705" d="M378.01,213.964c-1.162-1.274-4.1-2.824-6.7-4.1-2.207-1.08-5.15.941-1.994,4.318s9.08,5.037,9.08,5.037" transform="translate(-147.877 -84.23)" fill="#ffd4d4"/>
        <path id="Trazado_874706" data-name="Trazado 874706" d="M378.2,219.32a.292.292,0,0,1-.081-.011c-.245-.069-6.041-1.722-9.218-5.12-2.092-2.239-1.439-3.669-1.061-4.179a2.752,2.752,0,0,1,3.4-.612c2.515,1.231,5.559,2.818,6.788,4.164a.3.3,0,0,1-.442.4c-1.173-1.286-4.334-2.916-6.608-4.03a2.181,2.181,0,0,0-2.662.43c-.6.813-.221,2.089,1.018,3.415,3.063,3.278,8.883,4.937,8.942,4.953a.3.3,0,0,1-.081.587" transform="translate(-147.675 -84.028)"/>
        <path id="Trazado_874707" data-name="Trazado 874707" d="M399.858,345.81h-23.61l-9.5-27.748a6.98,6.98,0,0,0-6.157-4.4H320.273a3.122,3.122,0,0,0-3.143,4.4l9.787,28.585c1.071,2.775,1.2,5.059,3.979,5.059h68.963a2.948,2.948,0,0,0,0-5.9" transform="translate(-127.362 -126.064)" fill="#f2ac30"/>
        <path id="Trazado_874708" data-name="Trazado 874708" d="M399.681,345.244H376.307c-.462,0,.117.408-.009.039l-1.078-3.15-4.377-12.784-3.673-10.73c-1.073-3.134-3.545-5.522-7.039-5.522H324.757c-2.028,0-4.755-.419-6.654.466-3.05,1.422-1.082,5.352-.319,7.579l4.353,12.714q1.925,5.625,3.851,11.249c.881,2.571,1.4,6.633,4.774,6.633h68.9c4.228,0,4.162-6.214.015-6.493-.386-.026-.383.572,0,.6,3.651.246,3.215,5.3-.285,5.3H330.827c-2.654,0-3.108-2.821-3.8-4.854l-.812-2.371q-4.13-12.067-8.263-24.134l-.707-2.065c-.893-2.608,1.071-4.021,3.4-4.021h35.877c3.418,0,6.63-.336,9.029,2.8a10.519,10.519,0,0,1,1.3,3.041q.85,2.48,1.7,4.961,3.616,10.565,7.235,21.13a.305.305,0,0,0,.288.219h23.61a.3.3,0,0,0,0-.6" transform="translate(-127.185 -125.796)" fill="#f2ac30"/>
        <path id="Trazado_874709" data-name="Trazado 874709" d="M380.943,369.2h-46.89a.3.3,0,0,1,0-.6h46.89a.3.3,0,1,1,0,.6" transform="translate(-134.138 -148.144)"/>
        <path id="Trazado_874710" data-name="Trazado 874710" d="M362.077,346.861c-2.047,0-4.3-2.029-5.018-4.523a4.156,4.156,0,0,1,.412-3.663,2.578,2.578,0,0,1,2.118-1.025c2.048,0,4.3,2.029,5.017,4.524a4.159,4.159,0,0,1-.413,3.663,2.576,2.576,0,0,1-2.116,1.025m-2.488-8.614a1.97,1.97,0,0,0-1.64.786,3.581,3.581,0,0,0-.316,3.139c.651,2.256,2.645,4.091,4.444,4.091a1.967,1.967,0,0,0,1.638-.786,3.578,3.578,0,0,0,.316-3.138c-.65-2.257-2.643-4.092-4.443-4.092" transform="translate(-143.412 -135.704)"/>
        <path id="Trazado_874711" data-name="Trazado 874711" d="M451.294,176.562c-1.416-1.723-3.523-3.218-4.376-2.806s-1.036,1.711-.437,1.98.819-.828,2.793.034c1.73.754,2.162,1.1,2.02.793" transform="translate(-179.303 -69.806)" fill="#d4336e"/>
        <path id="Trazado_874712" data-name="Trazado 874712" d="M451.083,176.774h0a1.99,1.99,0,0,1-.716-.279c-.319-.154-.778-.377-1.413-.653a3.164,3.164,0,0,0-1.216-.312,1.572,1.572,0,0,0-.737.191.993.993,0,0,1-.844.085.982.982,0,0,1-.526-.934,1.782,1.782,0,0,1,.956-1.588,1.066,1.066,0,0,1,.466-.1c1.181,0,3.081,1.537,4.271,2.984a.307.307,0,0,1,.041.065.4.4,0,0,1,0,.388.367.367,0,0,1-.282.15m-3.345-1.841a3.687,3.687,0,0,1,1.455.361c.347.151.644.286.893.4a5.953,5.953,0,0,0-3.033-1.913.48.48,0,0,0-.206.039,1.178,1.178,0,0,0-.618,1.042c0,.075.016.325.174.4a.161.161,0,0,0,.071.018.836.836,0,0,0,.272-.1,2.153,2.153,0,0,1,.992-.249" transform="translate(-179.103 -69.605)" fill="#d4336e"/>
        <path id="Trazado_874713" data-name="Trazado 874713" d="M501.632,145.447a.3.3,0,0,1-.263-.157,16.052,16.052,0,0,1-1.37-3.125,9.983,9.983,0,0,1-.685-3.371,1.9,1.9,0,0,1,.9-1.751,1.462,1.462,0,0,1,1.593.239c2.6,1.99,1.248,6.14.548,7.832a.3.3,0,0,1-.391.161.313.313,0,0,1-.052-.028.3.3,0,0,1-.14.164.306.306,0,0,1-.142.035m-.843-7.944a.66.66,0,0,0-.3.072,1.334,1.334,0,0,0-.574,1.218,9.5,9.5,0,0,0,.655,3.189,15.044,15.044,0,0,0,1.248,2.875c.65-1.581,1.884-5.373-.365-7.1a1.173,1.173,0,0,0-.661-.257" transform="translate(-200.678 -55.023)"/>
        <path id="Trazado_874714" data-name="Trazado 874714" d="M509.535,152.3a8.532,8.532,0,0,1-3.083-.833l-.41-.167c-1.05-.45-2.188-.905-3.289-1.346a.3.3,0,0,1,.111-.577h.009a.3.3,0,0,1,.17-.2l.607-.27a16.6,16.6,0,0,1,3.186-1.169c1.553-.309,3.679-.084,4.589,1.569a1.942,1.942,0,0,1-1.666,2.984c-.074,0-.148.007-.223.007m-6.011-2.681c.929.373,1.87.753,2.747,1.129l.408.166a7.3,7.3,0,0,0,3.044.782,1.348,1.348,0,0,0,1.175-2.1c-.752-1.365-2.589-1.537-3.939-1.267a16.157,16.157,0,0,0-3.065,1.129Z" transform="translate(-201.984 -59.332)"/>
        <path id="Trazado_874715" data-name="Trazado 874715" d="M504.141,151.691a.3.3,0,0,1-.179-.06c-.27-.2-.526-.435-.774-.66a8.806,8.806,0,0,0-1.007-.826,14.383,14.383,0,0,1-1.313-.92c-.252-.19-.508-.385-.786-.579a38.654,38.654,0,0,1-3.18-2.949.3.3,0,0,1,.423-.423,37.822,37.822,0,0,0,3.115,2.894c.269.188.531.386.789.581a14.125,14.125,0,0,0,1.271.891,9.255,9.255,0,0,1,1.089.889c.163.148.32.291.479.423a.307.307,0,0,1,.371.29v.15a.3.3,0,0,1-.165.267.3.3,0,0,1-.134.032" transform="translate(-199.673 -58.352)"/>
      </g>
    </g>
  </g>
</svg>
