<svg xmlns="http://www.w3.org/2000/svg" width="72" height="72" viewBox="0 0 72 72">
  <g id="Grupo_1099888" data-name="Grupo 1099888" transform="translate(-1125.051 -587)">
    <rect id="Rectángulo_401428" data-name="Rectángulo 401428" width="72" height="72" transform="translate(1125.051 587)" fill="none"/>
    <g id="Boots" transform="translate(1128.919 591)">
      <path id="Trazado_874755" data-name="Trazado 874755" d="M54.043,48.078c-1.356-1.261-2.884-1.417-4.5-1.583-11.308-1.153-11.051-10.1-8.567-22.882A117.608,117.608,0,0,0,42.65,6.062a2,2,0,0,0-2-2.062H18.633a2,2,0,0,0-1.988,1.748c-.052.413-.09.834-.133,1.252H10.442A1.787,1.787,0,0,0,8.669,8.553,78.793,78.793,0,0,0,9.311,31.32C12.6,50.4,7.048,46.526,8.889,58.276a1.767,1.767,0,0,0,1.753,1.5H21.66a1,1,0,0,0,1-1v-.517c3.7.655,5.619,1.621,8.885,1.741H45.937a1.769,1.769,0,0,0,1.76-1.532c.073-.513.115-1,.141-1.468h6.1a1.769,1.769,0,0,0,1.76-1.532c.487-3.433-.069-5.919-1.653-7.39Zm-4.7.407c1.438.147,2.476.254,3.342,1.058A3.681,3.681,0,0,1,53.7,51.5H46.432c-1.339-1.578-2.9-1.806-4.889-2.01-11.308-1.153-11.051-10.1-8.567-22.882a112.348,112.348,0,0,0,1.61-15.889h5.848a100.137,100.137,0,0,1-1.422,12.508c-2.528,13.012-2.85,23.9,10.327,25.253ZM18.633,6H40.651q-.044,1.384-.109,2.726H34.65A1.769,1.769,0,0,0,32.875,7H18.524c.036-.333.066-.672.108-1Zm-8,3H32.65q-.044,1.384-.109,2.725H10.354c.073-.91.162-1.82.275-2.725Zm-.4,4.725h22.21a99.972,99.972,0,0,1-1.422,12.508c-2.528,13.012-2.85,23.9,10.327,25.253,1.757.18,3.76.3,4.36,3.02-14.3,0-13.735.082-15.1-.242a81.848,81.848,0,0,0-19.973-2.2c.725-5.1,3.172-6.5.656-21.084a77.839,77.839,0,0,1-1.058-17.256ZM31.582,58c-3.2-.119-7.914-1.914-9.922-1.914a1,1,0,0,0-1,1v.688H10.834a24.04,24.04,0,0,1-.346-3.71A79.922,79.922,0,0,1,30.14,56.21c1.673.393,1.193.295,15.719.295a14.361,14.361,0,0,1-.117,1.5ZM47.8,55a8.062,8.062,0,0,0-.312-1.5h6.367a14.36,14.36,0,0,1-.117,1.5Z" fill="#fff"/>
    </g>
  </g>
</svg>
