<svg xmlns="http://www.w3.org/2000/svg" width="72" height="72" viewBox="0 0 72 72">
  <g id="Grupo_1099889" data-name="Grupo 1099889" transform="translate(2124 11057)">
    <rect id="Rectángulo_401429" data-name="Rectángulo 401429" width="72" height="72" transform="translate(-2124 -11057)" fill="none"/>
    <g id="Layer_x0020_1" transform="translate(-2155.376 -11048)">
      <path id="Trazado_874756" data-name="Trazado 874756" d="M51.137,14.674A1.033,1.033,0,0,1,50.1,13.641V5.359a1.018,1.018,0,0,0-2.036.008v8.274a1.033,1.033,0,1,1-2.067,0V7.8a1.018,1.018,0,1,0-2.036,0V28.431h14.35v-4.4a1.032,1.032,0,0,1,.3-.733L64.1,17.82a1.225,1.225,0,0,0,.362-.871,1.207,1.207,0,0,0-.362-.864,1.194,1.194,0,0,0-.864-.362,1.225,1.225,0,0,0-.871.362l-2.282,2.282a1.035,1.035,0,0,1-1.766-.733V6.431a1.018,1.018,0,1,0-2.036,0v7.21a1.037,1.037,0,0,1-2.074,0V3.092a1.014,1.014,0,1,0-2.028,0V13.641A1.04,1.04,0,0,1,51.137,14.674ZM84.164,54.834h-14.2A1.033,1.033,0,0,1,68.935,53.8V48.6h-2.9v5.2a1.035,1.035,0,0,1-1.041,1.033H50.8a1.031,1.031,0,0,1-.81-.393l-4.55-5.776a1.026,1.026,0,0,1-.224-.64V42.388a1.018,1.018,0,0,1,.278-.7l3.732-4.01a1.052,1.052,0,0,1,.756-.332h35a1.039,1.039,0,0,1,.756.332l3.732,4.01a1,1,0,0,1,.278.7v5.637a1.067,1.067,0,0,1-.216.64l-4.55,5.776A1.057,1.057,0,0,1,84.164,54.834ZM71,52.759H83.663L87.68,47.67V46.29H84.642l-3.277,3.277A1.033,1.033,0,0,1,79.908,48.1l3.578-3.578a1.032,1.032,0,0,1,.733-.3H87.68V42.8l-3.146-3.377h-34.1L47.282,42.8v1.427h3.462a1.032,1.032,0,0,1,.733.3L55.062,48.1a1.033,1.033,0,0,1-.733,1.766,1.026,1.026,0,0,1-.733-.3L50.32,46.29H47.282v1.38L51.3,52.759H63.961v-5.2a1.033,1.033,0,0,1,1.033-1.033h4.974A1.033,1.033,0,0,1,71,47.562Zm-.216-9.338H64.177a1.033,1.033,0,1,1,0-2.067h6.608a1.033,1.033,0,1,1,0,2.067Zm3.794-14.1V24.46L69.4,19.278a3.293,3.293,0,0,1,4.658-4.658l.524.524V6.431a3.094,3.094,0,0,1,3.084-3.084,3.131,3.131,0,0,1,1.018.17V3.092A3.088,3.088,0,0,1,84.8,2.475a3.15,3.15,0,0,1,1.08-.193A3.1,3.1,0,0,1,88.93,4.9a3.122,3.122,0,0,1,1.049-.185A3.09,3.09,0,0,1,93.063,7.8V29.325l1.488,5.49a1.04,1.04,0,0,1-1,1.311H74.093a1.04,1.04,0,0,1-.995-1.311Zm2.067-.894H91V7.8a1.018,1.018,0,0,0-2.036,0v5.837a1.033,1.033,0,0,1-2.067,0V5.367a1.018,1.018,0,1,0-2.036,0v8.274a1.033,1.033,0,1,1-2.067,0V3.092a1.018,1.018,0,1,0-2.036,0V13.641a1.037,1.037,0,0,1-2.074,0V6.431a1.018,1.018,0,0,0-2.036,0V17.643a1.016,1.016,0,0,1-.632.948,1.034,1.034,0,0,1-1.134-.224L72.6,16.085a1.219,1.219,0,0,0-1.735,0,1.2,1.2,0,0,0-.355.864,1.218,1.218,0,0,0,.355.871L76.345,23.3a1.032,1.032,0,0,1,.3.733Zm-1.2,5.621H92.2L91.243,30.5H76.407ZM41.9,29.325V7.8a3.09,3.09,0,0,1,3.084-3.092A3.2,3.2,0,0,1,46.04,4.9a3.088,3.088,0,0,1,4.125-2.421,3.088,3.088,0,0,1,6.115.617v.424a3.166,3.166,0,0,1,1.018-.17,3.094,3.094,0,0,1,3.084,3.084v8.714l.524-.524a3.293,3.293,0,0,1,4.658,4.658L60.383,24.46v4.866l1.465,5.429a.936.936,0,0,1,.054.332,1.04,1.04,0,0,1-1.033,1.041H41.414a1.04,1.04,0,0,1-1-1.311Zm.864,4.727H59.519L58.556,30.5H43.727Z" transform="translate(0)" fill="#fff" fill-rule="evenodd"/>
    </g>
  </g>
</svg>
