<svg xmlns="http://www.w3.org/2000/svg" width="72" height="72" viewBox="0 0 72 72">
  <g id="Grupo_1099890" data-name="Grupo 1099890" transform="translate(1809 11057)">
    <rect id="Rectángulo_401430" data-name="Rectángulo 401430" width="72" height="72" transform="translate(-1809 -11057)" fill="none"/>
    <g id="no-comer" transform="translate(-1804 -11052)">
      <path id="Trazado_874757" data-name="Trazado 874757" d="M116.565,153.155a26.306,26.306,0,0,0,36.9-36.9,1.858,1.858,0,0,0-2.781-.179l-34.3,34.3A1.857,1.857,0,0,0,116.565,153.155Zm33.568-31.6h-2.387l1.435-1.435A9.867,9.867,0,0,1,150.133,121.552Zm2.831,1.794a.613.613,0,0,1,.6.6v.838a.613.613,0,0,1-.6.6H143.9l2.047-2.047Zm-4.15,27.409a24.5,24.5,0,0,1-2.307,1.8H134.953a.846.846,0,0,1-.844-.761l-1.549-15.051,9.55-9.55h9.129Zm-17.889-12.382.463,4.5h-4.96Zm-6.291,6.291h6.939l.28,2.719h-9.937Zm-6.98,6.98,2.467-2.467h11.916l.288,2.8a2.835,2.835,0,0,0,.125.578h-13.67l-.054-.037c-.39-.269-.759-.541-1.062-.776A.062.062,0,0,1,117.654,151.643Zm4.19,2.7h21.581A24.6,24.6,0,0,1,121.844,154.344Zm30.107-37a.053.053,0,0,1,.041-.017h0a.064.064,0,0,1,.049.026,24.545,24.545,0,0,1-1.225,31.423l2.222-21.594a2.4,2.4,0,0,0,2.319-2.395v-.838a2.4,2.4,0,0,0-2.4-2.4h-.834a11.623,11.623,0,0,0-1.676-2.708Z" transform="translate(-102.024 -101.716)" fill="#fff"/>
      <path id="Trazado_874758" data-name="Trazado 874758" d="M79.008,44.4a1.857,1.857,0,0,0-.18-2.781,26.307,26.307,0,0,0-36.9,36.9,1.86,1.86,0,0,0,2.781.18l34.3-34.3ZM61.683,57.3h1.895L61.86,59.013Zm5.736-3.841L65.372,55.5H59.959a.613.613,0,0,1-.6-.6v-.838a.613.613,0,0,1,.6-.6Zm-2.176-6.959-1.027-2.337a.9.9,0,0,0-.821-.536H60.625a.98.98,0,1,1,0-1.96h4a.98.98,0,0,1,.9.586l1.466,3.337A11.913,11.913,0,0,0,65.244,46.495Zm8.827.308L69.214,51.66H62.791A9.963,9.963,0,0,1,74.07,46.8Zm-11.3-8.863a24.376,24.376,0,0,1,14.957,5.1.064.064,0,0,1,.026.048.054.054,0,0,1-.017.045L75.5,45.373a11.739,11.739,0,0,0-6.8-.355l-1.535-3.493a2.775,2.775,0,0,0-2.54-1.658h-4a2.774,2.774,0,1,0,0,5.548H62.81l.96,2.184a11.677,11.677,0,0,0-2.976,4.06h-.835a2.4,2.4,0,0,0-2.4,2.4V54.9a2.4,2.4,0,0,0,2.319,2.395l.345,3.357-.874.874A18.865,18.865,0,0,0,56,60.881a.9.9,0,1,0-.175,1.785,17.208,17.208,0,0,1,2.055.33L47.9,72.977H41.934a.7.7,0,0,1-.67-.906,13.685,13.685,0,0,1,10.618-9.263.9.9,0,0,0-.316-1.766,15.473,15.473,0,0,0-11.809,9.9A24.521,24.521,0,0,1,62.773,37.94ZM43.4,77.449a.064.064,0,0,1-.048-.026l-.012-.016a24.749,24.749,0,0,1-1.728-2.555l-.024-.041a.829.829,0,0,1,.252-.039H46.1l-2.661,2.661a.057.057,0,0,1-.045.017Z" transform="translate(-32.131 -31.824)" fill="#fff"/>
      <path id="Trazado_874759" data-name="Trazado 874759" d="M60.639,29.421a.9.9,0,0,0,.832-.958,30.619,30.619,0,1,0,0,4.312.9.9,0,0,0-1.79-.126,28.825,28.825,0,1,1,0-4.06.9.9,0,0,0,.958.832Z" transform="translate(-0.309)" fill="#fff"/>
    </g>
  </g>
</svg>
