<svg xmlns="http://www.w3.org/2000/svg" xmlns:xlink="http://www.w3.org/1999/xlink" width="72" height="72" viewBox="0 0 72 72">
  <defs>
    <clipPath id="clip-path">
      <path id="path2904" d="M0-682.665H46.906v46.906H0Z" fill="none"/>
    </clipPath>
  </defs>
  <g id="Grupo_1099904" data-name="Grupo 1099904" transform="translate(1483 11035)">
    <g id="Grupo_1099892" data-name="Grupo 1099892">
      <rect id="Rectángulo_401431" data-name="Rectángulo 401431" width="72" height="72" transform="translate(-1483 -11035)" fill="none"/>
      <g id="g2902" transform="translate(-1470.768 -10340.103)" clip-path="url(#clip-path)">
        <g id="g2908" transform="translate(31.727 -682.665)">
          <path id="path2910" d="M-7.749-109.784a.916.916,0,0,1-.873-.64.916.916,0,0,1,.6-1.15l5.165-1.636-2.227-.965a.916.916,0,0,1-.512-.573.916.916,0,0,1,.1-.761l2.3-3.59-4.062,1.922a.916.916,0,0,1-.8-.008.916.916,0,0,1-.489-.633l-.561-2.685-2.486,5.183a.916.916,0,0,1-1.222.43.916.916,0,0,1-.43-1.222l3.655-7.621a.916.916,0,0,1,.936-.513.916.916,0,0,1,.787.722l.877,4.194,5.9-2.789a.916.916,0,0,1,1.08.223.916.916,0,0,1,.084,1.1l-3.439,5.369,3.488,1.511a.916.916,0,0,1,.551.887.916.916,0,0,1-.638.827l-7.5,2.376A.916.916,0,0,1-7.749-109.784Z" transform="translate(13.336 124.253)" fill="#fff"/>
        </g>
        <g id="g2912" transform="translate(8.068 -665.321)">
          <path id="path2914" d="M-72.167-270.323a.916.916,0,0,1-.806-.482l-3.723-6.912a7.007,7.007,0,0,1-.595-4.9l2.1-7.951a.916.916,0,0,1,.938-.68.916.916,0,0,1,.854.783l1.408,9.687c.135.851.269,1.628.392,2.341.524,3.045.871,5.057.32,7.409a.916.916,0,0,1-.771.7A.92.92,0,0,1-72.167-270.323Zm-2.4-15.443-.953,3.6a5.157,5.157,0,0,0,.439,3.593l2.208,4.1c-.083-1.046-.283-2.208-.532-3.653-.124-.72-.259-1.505-.4-2.376Z" transform="translate(77.491 291.251)" fill="#fff"/>
        </g>
        <g id="g2916" transform="translate(34.326 -640.898)">
          <path id="path2918" d="M-12.419-13.336a.916.916,0,0,1,.894.721c.04.185.056.3.062.345a.916.916,0,0,1-.778,1.023.916.916,0,0,1-1.035-.762c-.013-.08-.027-.156-.042-.232a.916.916,0,0,1,.711-1.076A.92.92,0,0,1-12.419-13.336Z" transform="translate(13.336 13.336)" fill="#fff"/>
        </g>
        <g id="g2920" transform="translate(32.234 -665.321)">
          <path id="path2922" d="M-16.091-271.045a.92.92,0,0,1-.121-.008.916.916,0,0,1-.77-.7c-.56-2.343-.245-4.192.278-7.254.13-.761.274-1.605.423-2.561l1.5-9.687a.916.916,0,0,1,.857-.775.916.916,0,0,1,.934.681l2.1,7.934a7,7,0,0,1-.584,4.907l-3.811,6.982A.916.916,0,0,1-16.091-271.045Zm2.449-15.6-.829,5.357c-.15.967-.3,1.82-.427,2.589-.246,1.444-.438,2.569-.513,3.575l2.318-4.246a5.151,5.151,0,0,0,.426-3.593Z" transform="translate(17.278 292.026)" fill="#fff"/>
        </g>
        <g id="g2924" transform="translate(34.378 -658.926)">
          <path id="path2926" d="M-14.516-300.671a.916.916,0,0,1-.916-.916,19.829,19.829,0,0,0-.143-2.878.916.916,0,0,1,.224-.758l7.147-7.942a10.811,10.811,0,0,0,2.016-7.945l-.242-1.681a.916.916,0,0,1,.776-1.037.916.916,0,0,1,1.037.776l.242,1.681a12.655,12.655,0,0,1-2.388,9.338q-.024.033-.052.063l-6.892,7.659a25.832,25.832,0,0,1,.107,2.725A.916.916,0,0,1-14.516-300.671Z" transform="translate(15.587 323.838)" fill="#fff"/>
        </g>
        <g id="g2928" transform="translate(1.177 -682.665)">
          <path id="path2930" d="M-250.256,33.572a.916.916,0,0,1-.916-.916,25.517,25.517,0,0,1,.111-2.757l-6.807-7.63q-.026-.029-.049-.06a12.651,12.651,0,0,1-2.389-9.338L-258.7,1.7a10.561,10.561,0,0,1,1.926-4.716,10.454,10.454,0,0,1,5.321-3.819l6.583-2.079a1.675,1.675,0,0,0,1.157-1.4l.261-2.209a.916.916,0,0,1,1.017-.8.916.916,0,0,1,.8,1.017l-.261,2.209a3.51,3.51,0,0,1-2.424,2.929L-250.9-5.093a8.637,8.637,0,0,0-4.4,3.154,8.73,8.73,0,0,0-1.59,3.9l-1.611,11.176a10.807,10.807,0,0,0,2.017,7.946l7.062,7.915a.916.916,0,0,1,.22.758,19.583,19.583,0,0,0-.147,2.9A.916.916,0,0,1-250.256,33.572Z" transform="translate(260.432 13.335)" fill="#fff"/>
        </g>
        <g id="g2932" transform="translate(26.908 -682.665)">
          <path id="path2934" d="M-77.746-114.8a.913.913,0,0,1-.4-.09.916.916,0,0,1-.43-1.222l.54-1.126-2.714-.865a3.523,3.523,0,0,1-2.405-2.846l-.321-2.26a.916.916,0,0,1,.778-1.036.916.916,0,0,1,1.036.778l.321,2.26a1.681,1.681,0,0,0,1.148,1.358l3.717,1.184a.916.916,0,0,1,.563.51.916.916,0,0,1-.015.759l-.995,2.075A.916.916,0,0,1-77.746-114.8Z" transform="translate(83.481 124.255)" fill="#fff"/>
        </g>
        <g id="g2936" transform="translate(36.399 -671.531)">
          <path id="path2938" d="M-93.44-74.311a.916.916,0,0,1-.906-.786l-.22-1.524a8.676,8.676,0,0,0-.59-2.126l-3.985,1.262a.916.916,0,0,1-1.15-.6.916.916,0,0,1,.6-1.15l4.747-1.5a.916.916,0,0,1,1.087.446,10.494,10.494,0,0,1,1.108,3.407l.22,1.524a.916.916,0,0,1-.776,1.037A.924.924,0,0,1-93.44-74.311Z" transform="translate(100.333 80.778)" fill="#fff"/>
        </g>
        <g id="g2940" transform="translate(10.596 -646.225)">
          <path id="path2942" d="M-39.777-5.922A.924.924,0,0,1-39.9-5.93a.916.916,0,0,1-.787-1.03,14.291,14.291,0,0,1,1.031-3.207,17.135,17.135,0,0,0,.871-2.485.916.916,0,0,1,1.118-.655.916.916,0,0,1,.655,1.118A18.812,18.812,0,0,1-38-9.382a13.057,13.057,0,0,0-.871,2.665A.916.916,0,0,1-39.777-5.922Z" transform="translate(40.695 13.337)" fill="#fff"/>
        </g>
        <g id="g2944" transform="translate(32.505 -646.172)">
          <path id="path2946" d="M-10.557-6a.916.916,0,0,1-.907-.795,12.677,12.677,0,0,0-.868-2.643,18.353,18.353,0,0,1-.975-2.753.916.916,0,0,1,.654-1.118.916.916,0,0,1,1.118.654,16.742,16.742,0,0,0,.858,2.432A14.188,14.188,0,0,1-9.648-7.033.916.916,0,0,1-10.435-6,.925.925,0,0,1-10.557-6Z" transform="translate(13.337 13.335)" fill="#fff"/>
        </g>
        <g id="g2948" transform="translate(22.53 -671.72)">
          <path id="path2950" d="M-12.417,11.856a.916.916,0,0,1-.916-.916V-12.417a.916.916,0,0,1,.916-.916.916.916,0,0,1,.916.916V10.94A.916.916,0,0,1-12.417,11.856Z" transform="translate(13.333 13.333)" fill="#fff"/>
        </g>
        <g id="g2952" transform="translate(15.142 -665.381)">
          <path id="path2954" d="M-52.078-5.05a.913.913,0,0,1-.661-.282.916.916,0,0,1,.027-1.3l.079-.076a7.544,7.544,0,0,0,2.364-5.475v-.239a.916.916,0,0,1,.916-.916.916.916,0,0,1,.916.916v.239a9.487,9.487,0,0,1-2.927,6.8l-.08.076A.913.913,0,0,1-52.078-5.05Z" transform="translate(52.995 13.333)" fill="#fff"/>
        </g>
        <g id="g2956" transform="translate(27.194 -665.381)">
          <path id="path2958" d="M-9.692-5.05a.913.913,0,0,1-.634-.255l-.079-.076a9.487,9.487,0,0,1-2.928-6.8v-.239a.916.916,0,0,1,.916-.916.916.916,0,0,1,.916.916v.239A7.544,7.544,0,0,0-9.137-6.7l.079.076a.916.916,0,0,1,.027,1.3A.914.914,0,0,1-9.692-5.05Z" transform="translate(13.333 13.333)" fill="#fff"/>
        </g>
        <g id="g2960" transform="translate(22.53 -641.039)">
          <path id="path2962" d="M-12.417-58.237a.916.916,0,0,1-.916-.916V-62.6a.916.916,0,0,1,.916-.916.916.916,0,0,1,.916.916v3.448A.916.916,0,0,1-12.417-58.237Z" transform="translate(13.333 63.517)" fill="#fff"/>
        </g>
        <g id="g2964" transform="translate(29.198 -671.72)">
          <path id="path2966" d="M-66.493-41.333a2.843,2.843,0,0,1,2.84,2.84,2.843,2.843,0,0,1-2.84,2.84,2.843,2.843,0,0,1-2.84-2.84A2.843,2.843,0,0,1-66.493-41.333Zm0,3.848a1.009,1.009,0,0,0,1.008-1.008A1.009,1.009,0,0,0-66.493-39.5,1.009,1.009,0,0,0-67.5-38.493,1.009,1.009,0,0,0-66.493-37.485Z" transform="translate(69.333 41.333)" fill="#fff"/>
        </g>
        <g id="g2968" transform="translate(43.848 -662.138)">
          <path id="path2970" fill="#fff"/>
        </g>
      </g>
    </g>
    <g id="Grupo_1099903" data-name="Grupo 1099903" transform="translate(-1480.5 -11032.5)">
      <g id="Grupo_1099902" data-name="Grupo 1099902" transform="translate(0.5 0.5)">
        <path id="Trazado_874780" data-name="Trazado 874780" d="M34,.5A33.5,33.5,0,1,0,67.5,34,33.5,33.5,0,0,0,34,.5M4.893,34A29.109,29.109,0,0,1,51.439,10.694L10.365,50.977A28.957,28.957,0,0,1,4.893,34M34,63.107a28.984,28.984,0,0,1-18.749-6.849L56.617,15.686A29.1,29.1,0,0,1,34,63.107" transform="translate(-0.5 -0.5)" fill="#f9a545" stroke="#fff" stroke-width="2"/>
        <path id="Trazado_874781" data-name="Trazado 874781" d="M34,.5A33.5,33.5,0,1,0,67.5,34,33.5,33.5,0,0,0,34,.5ZM4.893,34A29.109,29.109,0,0,1,51.439,10.694L10.365,50.977A28.957,28.957,0,0,1,4.893,34ZM34,63.107a28.984,28.984,0,0,1-18.749-6.849L56.617,15.686A29.1,29.1,0,0,1,34,63.107Z" transform="translate(-0.5 -0.5)" fill="none" stroke="#fff" stroke-miterlimit="10" stroke-width="2"/>
      </g>
    </g>
  </g>
</svg>
