<svg xmlns="http://www.w3.org/2000/svg" width="72" height="72" viewBox="0 0 72 72">
  <g id="Grupo_1099906" data-name="Grupo 1099906" transform="translate(1168 11057)">
    <g id="Grupo_1099891" data-name="Grupo 1099891">
      <rect id="Rectángulo_401432" data-name="Rectángulo 401432" width="72" height="72" transform="translate(-1168 -11057)" fill="none"/>
      <g id="_06_Sick" data-name="06 Sick" transform="translate(-1154.93 -11043.939)">
        <path id="Trazado_874760" data-name="Trazado 874760" d="M430.024,16.025V2.287a2.277,2.277,0,0,0-4.555,0V16.025a3.949,3.949,0,1,0,4.555,0ZM427.746,1.352a.933.933,0,0,1,.932.932v3.2h-1.865V2.287a.933.933,0,0,1,.932-.935Zm0,20.508a2.606,2.606,0,0,1-1.274-4.878.673.673,0,0,0,.342-.587V14.549h.537a.673.673,0,0,0,0-1.343h-.537V10.69h.537a.673.673,0,0,0,0-1.343h-.537V6.83h1.865V16.4a.673.673,0,0,0,.343.587,2.606,2.606,0,0,1-1.275,4.876Z" transform="translate(-385.844 0)" fill="#fff"/>
        <path id="Trazado_874761" data-name="Trazado 874761" d="M32.9,35.9c-2.319-.9-4.5-1.62-5.434-1.918V30.619a11.878,11.878,0,0,0,2.668-3.411,9.163,9.163,0,0,0,.608-2.324,3.519,3.519,0,0,0,2.234-1.07,5.16,5.16,0,0,0,1.361-3.037,4.177,4.177,0,0,0-.09-1.653c.677-1.254,3.3-6.5,2.2-10.374a5.024,5.024,0,0,0-3.476-3.7,5.974,5.974,0,0,0-1.87-.23C30.5,3.34,28.865,1.28,24.508.757a15.271,15.271,0,0,0-6.6.972,10.032,10.032,0,0,1-4.148.735A4.041,4.041,0,0,1,11.118.41.678.678,0,0,0,9.994.287a14.845,14.845,0,0,0-2.462,5.27A17.686,17.686,0,0,0,9.249,18.372a3.535,3.535,0,0,0-.423,2.4,5.162,5.162,0,0,0,1.361,3.037,3.519,3.519,0,0,0,2.239,1.07,9.125,9.125,0,0,0,.608,2.324A11.862,11.862,0,0,0,15.7,30.619V33.98c-.932.3-3.115,1.016-5.435,1.918-4.185,1.627-6.822,3.066-7.837,4.277C.511,42.463,0,44.421,0,45.218a.673.673,0,0,0,.673.673H42.495a.673.673,0,0,0,.673-.673,9.076,9.076,0,0,0-2.426-5.039C39.725,38.968,37.088,37.529,32.9,35.9ZM17.043,31.687a8.263,8.263,0,0,0,4.54,1.637,8.265,8.265,0,0,0,4.54-1.637v2.645c-.22.438-1.318,2.233-4.54,2.233s-4.313-1.779-4.54-2.234ZM8.819,5.956A14.842,14.842,0,0,1,10.51,1.914a4.84,4.84,0,0,0,3.069,1.881,11.05,11.05,0,0,0,4.728-.784A14.008,14.008,0,0,1,24.35,2.09c4.141.5,5.317,2.486,5.65,3.627a.674.674,0,0,0,.759.475,4.583,4.583,0,0,1,1.881.158,3.736,3.736,0,0,1,2.518,2.767c.82,2.873-.868,6.889-1.742,8.679a3.474,3.474,0,0,0-2.032-.755,3.524,3.524,0,0,0-.681-1.647A13.886,13.886,0,0,1,28.23,9.708a.585.585,0,0,0-.017-.081,2.021,2.021,0,0,0-1.993-1.7H16.945a2.02,2.02,0,0,0-2.018,2.019v1.15a25.545,25.545,0,0,1-2.644-.179.677.677,0,0,0-.767.679c0,.027.047,2.5.2,5.451a3.814,3.814,0,0,0-1.433.392A16.145,16.145,0,0,1,8.819,5.956Zm7.454,3.991a.673.673,0,0,1,.673-.673h9.275a.673.673,0,0,1,.673.673v3.69a.673.673,0,0,1-.673.673H16.945a.673.673,0,0,1-.673-.673ZM14.239,26.619a9.547,9.547,0,0,1-.58-2.539.735.735,0,0,0-1-.537c-1.062,0-2.248-.908-2.5-2.937a2.083,2.083,0,0,1,.333-1.662,2.279,2.279,0,0,1,1.7-.573.71.71,0,0,0,.905-.695c-.124-2.229-.188-4.28-.216-5.344.485.042,1.182.09,2.047.107v1.193a2.021,2.021,0,0,0,2.018,2.019h9.276a2.02,2.02,0,0,0,2-1.749,14,14,0,0,0,1.413,2.3,2.2,2.2,0,0,1,.437,1.462.71.71,0,0,0,.905.7,2.279,2.279,0,0,1,1.7.573A2.067,2.067,0,0,1,33,20.606c-.254,2.029-1.44,2.937-2.5,2.937a.732.732,0,0,0-1,.537,9.57,9.57,0,0,1-.58,2.539c-1.229,2.53-4.63,5.359-7.343,5.359S15.469,29.149,14.239,26.619ZM1.464,44.547a9.736,9.736,0,0,1,1.993-3.5c1.664-1.984,9.2-4.683,12.586-5.759.586.917,2.137,2.625,5.54,2.625s4.955-1.708,5.541-2.628c3.383,1.075,10.926,3.775,12.586,5.759a9.719,9.719,0,0,1,1.993,3.5Z" transform="translate(0 -0.03)" fill="#fff"/>
        <path id="Trazado_874762" data-name="Trazado 874762" d="M210.093,273.247a.67.67,0,0,0,.871-.374,1.681,1.681,0,0,1,3.022,0,.673.673,0,1,0,1.248-.5,3.02,3.02,0,0,0-5.517,0A.676.676,0,0,0,210.093,273.247Z" transform="translate(-190.892 -246.339)" fill="#fff"/>
        <path id="Trazado_874763" data-name="Trazado 874763" d="M173.466,199.722a.674.674,0,1,0-1.254-.5c0,.007-.351.725-1.767.654a.673.673,0,0,0-.067,1.343c.09,0,.174.006.257.006A2.865,2.865,0,0,0,173.466,199.722Z" transform="translate(-154.57 -180.987)" fill="#fff"/>
        <path id="Trazado_874764" data-name="Trazado 874764" d="M87.23,289.441a.672.672,0,0,0-.945.109,5.227,5.227,0,0,0-.956,3.062,5.28,5.28,0,0,0,.611,2.3,4.473,4.473,0,0,1,.532,1.97.673.673,0,1,0,1.343,0,5.641,5.641,0,0,0-.655-2.53,3.711,3.711,0,0,1,.179-3.967A.673.673,0,0,0,87.23,289.441Z" transform="translate(-77.688 -263.378)" fill="#fff"/>
        <path id="Trazado_874765" data-name="Trazado 874765" d="M33.536,329.667a.673.673,0,0,0,1.343,0,5.649,5.649,0,0,0-.654-2.53,3.952,3.952,0,0,1-.488-1.739,4.084,4.084,0,0,1,.288-1.515.674.674,0,0,0-1.254-.5,5.443,5.443,0,0,0-.382,2.011,5.224,5.224,0,0,0,.61,2.3A4.344,4.344,0,0,1,33.536,329.667Z" transform="translate(-29.489 -294.028)" fill="#fff"/>
        <path id="Trazado_874766" data-name="Trazado 874766" d="M368.891,296.867a.673.673,0,1,0,1.343,0,4.417,4.417,0,0,1,.532-1.97,5.042,5.042,0,0,0-.346-5.361.672.672,0,1,0-1.056.833,3.713,3.713,0,0,1,.178,3.967A5.678,5.678,0,0,0,368.891,296.867Z" transform="translate(-335.854 -263.364)" fill="#fff"/>
        <path id="Trazado_874767" data-name="Trazado 874767" d="M421.8,329.667a.673.673,0,0,0,1.343,0,4.417,4.417,0,0,1,.531-1.97,5.219,5.219,0,0,0,.611-2.3,5.444,5.444,0,0,0-.382-2.011.674.674,0,1,0-1.254.5,4.086,4.086,0,0,1,.288,1.515,3.962,3.962,0,0,1-.488,1.739A5.712,5.712,0,0,0,421.8,329.667Z" transform="translate(-384.026 -294.028)" fill="#fff"/>
        <path id="Trazado_874768" data-name="Trazado 874768" d="M270.517,199.722a.674.674,0,1,1,1.254-.5c0,.007.351.725,1.767.654a.673.673,0,0,1,.067,1.343c-.09,0-.174.006-.257.006A2.866,2.866,0,0,1,270.517,199.722Z" transform="translate(-246.248 -180.987)" fill="#fff"/>
      </g>
    </g>
    <g id="Grupo_1099905" data-name="Grupo 1099905" transform="translate(-1165.5 -11054.5)">
      <g id="Grupo_1099902" data-name="Grupo 1099902" transform="translate(0.5 0.5)">
        <path id="Trazado_874780" data-name="Trazado 874780" d="M34,.5A33.5,33.5,0,1,0,67.5,34,33.5,33.5,0,0,0,34,.5M4.893,34A29.109,29.109,0,0,1,51.439,10.694L10.365,50.977A28.957,28.957,0,0,1,4.893,34M34,63.107a28.984,28.984,0,0,1-18.749-6.849L56.617,15.686A29.1,29.1,0,0,1,34,63.107" transform="translate(-0.5 -0.5)" fill="#f9a545" stroke="#fff" stroke-width="2"/>
        <path id="Trazado_874781" data-name="Trazado 874781" d="M34,.5A33.5,33.5,0,1,0,67.5,34,33.5,33.5,0,0,0,34,.5ZM4.893,34A29.109,29.109,0,0,1,51.439,10.694L10.365,50.977A28.957,28.957,0,0,1,4.893,34ZM34,63.107a28.984,28.984,0,0,1-18.749-6.849L56.617,15.686A29.1,29.1,0,0,1,34,63.107Z" transform="translate(-0.5 -0.5)" fill="none" stroke="#fff" stroke-miterlimit="10" stroke-width="2"/>
      </g>
    </g>
  </g>
</svg>
