<svg xmlns="http://www.w3.org/2000/svg" width="72" height="72" viewBox="0 0 72 72">
  <g id="Grupo_1099894" data-name="Grupo 1099894" transform="translate(527 11034)">
    <rect id="Rectángulo_401434" data-name="Rectángulo 401434" width="72" height="72" transform="translate(-527 -11034)" fill="none"/>
    <g id="vida-laboral" transform="translate(-522.992 -11029.991)">
      <path id="Trazado_874770" data-name="Trazado 874770" d="M10.977,14.96h.053a4.007,4.007,0,0,0,2.745-6.876,4.041,4.041,0,0,0-2.848-1.137,4.007,4.007,0,0,0,.05,8.013ZM9.541,9.552a2,2,0,0,1,1.412-.606h.027a2.008,2.008,0,0,1,.025,4.015,1.948,1.948,0,0,1-1.427-.569,2.01,2.01,0,0,1-.037-2.84Z" fill="#fff"/>
      <path id="Trazado_874771" data-name="Trazado 874771" d="M1.624,11.7A1,1,0,0,0,1.062,13l1.321,3.339a1,1,0,0,0,1.3.562l1.2-.476c.158.178.324.35.5.513l-.515,1.188a1,1,0,0,0,.52,1.315l3.3,1.427A1,1,0,0,0,10,20.35l.515-1.188c.239.015.478.018.715.012l.477,1.2a1,1,0,0,0,1.3.563L16.34,19.62a1,1,0,0,0,.562-1.3l-.476-1.2c.178-.158.35-.324.513-.5l1.188.515a1,1,0,0,0,1.315-.52l1.427-3.3a1,1,0,0,0-.52-1.315l-1.188-.515c.014-.238.018-.477.012-.715l1.2-.477A1,1,0,0,0,20.939,9L19.618,5.662a1,1,0,0,0-1.3-.562l-1.2.476c-.158-.178-.324-.35-.5-.513l.515-1.188a1,1,0,0,0-.52-1.315l-3.3-1.43A1,1,0,0,0,12,1.65l-.515,1.188c-.238-.014-.477-.018-.715-.012l-.477-1.2A1,1,0,0,0,9,1.062L5.659,2.383A1,1,0,0,0,5.1,3.68l.476,1.2c-.178.158-.35.324-.513.5L3.872,4.868a1,1,0,0,0-1.315.52L1.13,8.683A1,1,0,0,0,1.65,10l1.188.515c-.014.238-.018.477-.012.715ZM4.9,10.043a1,1,0,0,0-.59-1.073l-.946-.41L3.995,7.1l.946.41a1,1,0,0,0,1.187-.3,6.117,6.117,0,0,1,1.235-1.2A1,1,0,0,0,7.7,4.833l-.379-.958L8.8,3.29l.379.958a1,1,0,0,0,1.054.625,6.152,6.152,0,0,1,1.719.028,1,1,0,0,0,1.073-.59l.41-.946L14.9,4l-.41.946a1,1,0,0,0,.3,1.187,6.117,6.117,0,0,1,1.2,1.235,1,1,0,0,0,1.176.341l.958-.379.585,1.479-.958.379a1,1,0,0,0-.625,1.054,6.152,6.152,0,0,1-.028,1.719,1,1,0,0,0,.59,1.073l.946.41L18,14.9l-.946-.41a1,1,0,0,0-1.187.3,6.117,6.117,0,0,1-1.235,1.2,1,1,0,0,0-.341,1.176l.379.958-1.479.585-.379-.958a1,1,0,0,0-.929-.632.875.875,0,0,0-.125.008,6.152,6.152,0,0,1-1.719-.028,1,1,0,0,0-1.073.59l-.41.946L7.1,18l.41-.946a1,1,0,0,0-.3-1.187,6.117,6.117,0,0,1-1.2-1.235A1,1,0,0,0,4.833,14.3l-.958.379L3.29,13.2l.958-.379a1,1,0,0,0,.625-1.054,6.121,6.121,0,0,1,.026-1.72Z" fill="#fff"/>
      <path id="Trazado_874772" data-name="Trazado 874772" d="M58.917,2.142A6.194,6.194,0,0,0,53,4.078a6.2,6.2,0,0,0-5.917-1.936A5.14,5.14,0,0,0,43,7.449c0,5.6,7.227,10.893,9.442,12.381a1,1,0,0,0,1.116,0C55.773,18.342,63,13.051,63,7.449a5.14,5.14,0,0,0-4.083-5.307ZM53,17.785c-2.174-1.538-8-6.058-8-10.336a3.145,3.145,0,0,1,2.519-3.355A3.93,3.93,0,0,1,48.374,4,4.07,4.07,0,0,1,52.1,6.323a1,1,0,0,0,1.81,0,4.1,4.1,0,0,1,4.576-2.229A3.147,3.147,0,0,1,61,7.449C61,11.727,55.174,16.247,53,17.785Z" fill="#fff"/>
      <path id="Trazado_874773" data-name="Trazado 874773" d="M10,29a1,1,0,0,0-1,1v4a1,1,0,0,0,1,1h9.08a3,3,0,0,0,2.278-1.047l3.429-4-.778,10.9L19.028,61.77A1,1,0,0,0,20,63h6a1,1,0,0,0,.961-.725L32,44.64l5.039,17.635A1,1,0,0,0,38,63h6a1,1,0,0,0,.973-1.231L39.992,40.848l-.778-10.9,3.429,4A2.993,2.993,0,0,0,44.921,35H54a1,1,0,0,0,1-1V30a1,1,0,0,0-1-1H47.449l-6.508-7.322A5.011,5.011,0,0,0,37.2,20H36.46a6,6,0,1,0-8.92,0H26.8a5.005,5.005,0,0,0-3.737,1.678L16.551,29ZM28,16a4,4,0,1,1,4,4A4,4,0,0,1,28,16ZM17.748,30.665l6.807-7.657A3,3,0,0,1,26.8,22H37.2a3,3,0,0,1,2.242,1.007l6.807,7.657A1,1,0,0,0,47,31h6v2H44.92a1,1,0,0,1-.759-.349l-5.4-6.3A1,1,0,0,0,37,27.071l1,14a.968.968,0,0,0,.025.16L42.734,61H38.755L32.962,40.725a1,1,0,0,0-1.923,0L25.246,61H21.267l4.707-19.769a.968.968,0,0,0,.025-.16l1-14a1,1,0,0,0-1.757-.722l-5.4,6.3A1,1,0,0,1,19.08,33H11V31h6a1,1,0,0,0,.748-.335Z" fill="#fff"/>
      <path id="Trazado_874774" data-name="Trazado 874774" d="M52,22h2v2H52Z" fill="#fff"/>
      <path id="Trazado_874775" data-name="Trazado 874775" d="M52,26h2v2H52Z" fill="#fff"/>
      <path id="Trazado_874776" data-name="Trazado 874776" d="M10,22h2v2H10Z" fill="#fff"/>
      <path id="Trazado_874777" data-name="Trazado 874777" d="M10,26h2v2H10Z" fill="#fff"/>
    </g>
  </g>
</svg>
