<svg xmlns="http://www.w3.org/2000/svg" width="70" height="70" viewBox="0 0 70 70">
  <g id="Grupo_1099907" data-name="Grupo 1099907" transform="translate(-397.051 -1105)">
    <g id="Elipse_11563" data-name="Elipse 11563" transform="translate(397.051 1105)" fill="#f9a545" stroke="#707070" stroke-width="1">
      <circle cx="35" cy="35" r="35" stroke="none"/>
      <circle cx="35" cy="35" r="34.5" fill="none"/>
    </g>
    <g id="doctor" transform="translate(356.938 1115)">
      <path id="Trazado_874782" data-name="Trazado 874782" d="M98.118,341.681l-8.323-2.448H75.338l-8.323,2.448a4.738,4.738,0,0,0-3.4,4.546v9.287h37.9v-9.287A4.738,4.738,0,0,0,98.118,341.681Z" transform="translate(-6.762 -305.814)" fill="#edebed"/>
      <path id="Trazado_874783" data-name="Trazado 874783" d="M209.364,359.971h-7.9l-1.579-15.794h11.056Z" transform="translate(-129.611 -310.271)" fill="#a5cdff"/>
      <path id="Trazado_874784" data-name="Trazado 874784" d="M200.247,347.769a7.869,7.869,0,0,0,10.337,0l.359-3.592H199.888Z" transform="translate(-129.611 -310.271)" fill="#8cb4eb"/>
      <path id="Trazado_874785" data-name="Trazado 874785" d="M205.416,275.072h0a5.528,5.528,0,0,1-5.528-5.528v-5.528h11.056v5.528A5.528,5.528,0,0,1,205.416,275.072Z" transform="translate(-129.611 -238.007)" fill="#f7d291"/>
      <path id="Trazado_874786" data-name="Trazado 874786" d="M199.888,268.147a11.635,11.635,0,0,0,11.056,0v-4.131H199.888Z" transform="translate(-129.611 -238.007)" fill="#f0c382"/>
      <path id="Trazado_874787" data-name="Trazado 874787" d="M144.6,87.542h-1.185v-7.9H122.887v7.9H121.7a1.974,1.974,0,1,0,0,3.948h1.224a10.256,10.256,0,0,0,20.452,0H144.6a1.974,1.974,0,1,0,0-3.948Z" transform="translate(-57.348 -71.799)" fill="#ffe1a0"/>
      <path id="Trazado_874788" data-name="Trazado 874788" d="M122.981,79.645v7.9h-1.1A2.02,2.02,0,0,0,119.9,88.98a1.981,1.981,0,0,0,1.9,2.51h1.214a10.193,10.193,0,0,0,11.81,9.343A10.259,10.259,0,0,1,126.14,90.7V85.738a2.364,2.364,0,0,1,2.676-2.328,20,20,0,0,0,2.369.136,31.134,31.134,0,0,0,7.8-1.112,6.093,6.093,0,0,0,3.673-2.789Z" transform="translate(-57.443 -71.799)" fill="#f7d291"/>
      <path id="Trazado_874789" data-name="Trazado 874789" d="M141.188,47.531l.1,3.159a8.721,8.721,0,0,0-2.369,5.528v.975a1.579,1.579,0,0,1-1.384,1.567l-1.775.222V52.269A5.055,5.055,0,0,1,141.188,47.531Z" transform="translate(-71.8 -42.843)" fill="#a06e50"/>
      <path id="Trazado_874790" data-name="Trazado 874790" d="M265.462,319.2,263.9,317.64l1.674-2.232a.967.967,0,0,0-.341-1.445l-3.7-1.851L256,331.065h4.738l5.019-10.038A1.579,1.579,0,0,0,265.462,319.2Z" transform="translate(-180.197 -281.365)" fill="#dbd9dc"/>
      <path id="Trazado_874791" data-name="Trazado 874791" d="M320.229,23.482l-.1,5.528a8.721,8.721,0,0,1,2.369,5.528v.975a1.579,1.579,0,0,0,1.384,1.567l1.775.222V28.22A5.055,5.055,0,0,0,320.229,23.482Z" transform="translate(-238.008 -21.164)" fill="#cd916e"/>
      <path id="Trazado_874792" data-name="Trazado 874792" d="M155.729,319.2l1.564-1.564-1.674-2.232a.967.967,0,0,1,.341-1.445l3.7-1.851,5.528,18.953h-4.738l-5.019-10.038A1.579,1.579,0,0,1,155.729,319.2Z" transform="translate(-89.385 -281.365)" fill="#dbd9dc"/>
      <path id="Trazado_874793" data-name="Trazado 874793" d="M149.65,7.5c-6.588,0-7.851,2-12.924,3.619a.553.553,0,0,0-.309.823c1.1,1.722,5.2,6.211,16.839,3.163a3.689,3.689,0,0,0,2.688-2.838h0a3.692,3.692,0,0,0-2.116-3.911A9.724,9.724,0,0,0,149.65,7.5Z" transform="translate(-72.315 -6.761)" fill="#b67f5f"/>
      <rect id="Rectángulo_401727" data-name="Rectángulo 401727" width="7.897" height="4.738" transform="translate(60.8 44.961)" fill="#a5cdff"/>
      <path id="Trazado_874794" data-name="Trazado 874794" d="M201.144,160.322a.739.739,0,0,0-.739.739v.79a.739.739,0,1,0,1.478,0v-.79A.739.739,0,0,0,201.144,160.322Z" transform="translate(-130.077 -144.528)"/>
      <path id="Trazado_874795" data-name="Trazado 874795" d="M297.337,160.322a.739.739,0,0,0-.739.739v.79a.739.739,0,1,0,1.478,0v-.79A.739.739,0,0,0,297.337,160.322Z" transform="translate(-216.794 -144.528)"/>
      <path id="Trazado_874796" data-name="Trazado 874796" d="M230.45,217.7a.739.739,0,0,0-1.038-1.052,3.256,3.256,0,0,1-3.7,0,.739.739,0,0,0-1.038,1.052,4.661,4.661,0,0,0,5.776,0Z" transform="translate(-151.757 -195.113)"/>
      <path id="Trazado_874797" data-name="Trazado 874797" d="M194.707,136.274h-1.579a.739.739,0,0,0,0,1.478h1.579a.739.739,0,0,0,0-1.478Z" transform="translate(-122.851 -122.849)"/>
      <path id="Trazado_874798" data-name="Trazado 874798" d="M289.321,137.752H290.9a.739.739,0,0,0,0-1.478h-1.579a.739.739,0,0,0,0,1.478Z" transform="translate(-209.568 -122.849)"/>
      <path id="Trazado_874799" data-name="Trazado 874799" d="M91.628,35.192,86.3,33.555a1.694,1.694,0,0,0-.938-1.618L82.071,30.29V27.942A11.021,11.021,0,0,0,86.7,20.43h.439a2.8,2.8,0,0,0,2.812-2.436,2.709,2.709,0,0,0-1.565-2.741v-8.2a5.483,5.483,0,0,0-5.477-5.477h-.125A9.315,9.315,0,0,0,77.334,0a18.837,18.837,0,0,0-9.19,2.075,32.043,32.043,0,0,1-4.59,1.772.739.739,0,0,0-.474.994,6.7,6.7,0,0,0,1.2,1.751,6.043,6.043,0,0,0-1.064,3.887v4.808a2.695,2.695,0,0,0,1.134,5.144h.551a11.018,11.018,0,0,0,4.632,7.513V30.29l-3.294,1.647a1.694,1.694,0,0,0-.938,1.618L59.98,35.192a5.449,5.449,0,0,0-3.867,5.235V49.7a.739.739,0,0,0,1.478,0V40.428A3.979,3.979,0,0,1,60.415,36.6l5.539-1.7.978,1.3-1.111,1.111a2.315,2.315,0,0,0-.434,2.676l2.115,4.23H65.488v-.841a.739.739,0,1,0-1.478,0v.841H60.8a.739.739,0,0,0-.739.739V49.7a.739.739,0,0,0,.739.739h7.9a.739.739,0,0,0,.739-.739V48.091l.969,1.939a.739.739,0,0,0,1.322-.661L66.709,39.331a.84.84,0,0,1,.158-.97L68.43,36.8a.739.739,0,0,0,.069-.966L66.825,33.6a.228.228,0,0,1,.08-.341l2.91-1.455,2.054,7.044a.739.739,0,1,0,1.419-.414l-.324-1.11a8.645,8.645,0,0,0,5.68,0L75.8,47.061,74.21,41.594a.739.739,0,1,0-1.419.414l2.3,7.9a.739.739,0,0,0,1.419,0l5.28-18.1,2.91,1.455a.228.228,0,0,1,.081.341L83.11,35.831a.739.739,0,0,0,.069.966l1.564,1.564a.839.839,0,0,1,.158.97L79.882,49.369a.739.739,0,1,0,1.322.661l5.019-10.038a2.315,2.315,0,0,0-.434-2.676l-1.111-1.111.978-1.3,5.54,1.7a3.979,3.979,0,0,1,2.824,3.823V49.7a.739.739,0,1,0,1.478,0V40.428A5.449,5.449,0,0,0,91.628,35.192ZM67.958,48.961H61.539V45.7H64.01v.051a.739.739,0,1,0,1.478,0V45.7h2.471v3.26Zm.8-45.54a17.4,17.4,0,0,1,8.58-1.943C80.06,1.478,82.5,2.618,83,4.131a.739.739,0,0,0,1.4-.467,3.483,3.483,0,0,0-.151-.375,4.006,4.006,0,0,1,2.659,3.768V15h-.84a.841.841,0,0,1-.841-.841v-.79a9.413,9.413,0,0,0-2.586-6.05.74.74,0,0,0-.745-.182c-4.1,1.3-9.884,2.387-14.142.233a7.948,7.948,0,0,1-2.88-2.391A36.341,36.341,0,0,0,68.754,3.421ZM80.594,30.641,79.182,35.48a7.168,7.168,0,0,1-6.755,0l-1.411-4.839V28.808a10.988,10.988,0,0,0,9.578,0ZM75.8,28.429A9.538,9.538,0,0,1,66.278,18.9a.739.739,0,1,0-1.478,0v.051h-.446a1.236,1.236,0,0,1-1.229-1.365,1.311,1.311,0,0,1,1.342-1.105h1.072a2.321,2.321,0,0,0,2.318-2.318V11.375a.739.739,0,1,0-1.478,0v2.789a.841.841,0,0,1-.841.841H64.7V10.478A4.98,4.98,0,0,1,65.374,7.6a10.156,10.156,0,0,0,1.6,1.032A13.793,13.793,0,0,0,72.9,10.069a27.963,27.963,0,0,0,8.988-1.377,7.786,7.786,0,0,1,1.867,4.681v.79a2.321,2.321,0,0,0,2.318,2.318h1.185a1.236,1.236,0,0,1,1.229,1.365,1.311,1.311,0,0,1-1.341,1.106h-.333v-.043a.739.739,0,0,0-.739-.739h0a.739.739,0,0,0-.739.738A9.539,9.539,0,0,1,75.8,28.429Z" transform="translate(0)"/>
      <path id="Trazado_874800" data-name="Trazado 874800" d="M365.414,434.845h-1.235V433.61a.739.739,0,0,0-1.478,0v1.235h-1.235a.739.739,0,1,0,0,1.478H362.7v1.235a.739.739,0,0,0,1.478,0v-1.235h1.235a.739.739,0,1,0,0-1.478Z" transform="translate(-274.606 -390.228)"/>
    </g>
  </g>
</svg>
