<svg xmlns="http://www.w3.org/2000/svg" width="70" height="70" viewBox="0 0 70 70">
  <g id="Grupo_1099908" data-name="Grupo 1099908" transform="translate(-717.051 -1084)">
    <g id="Elipse_11564" data-name="Elipse 11564" transform="translate(717.051 1084)" fill="#f9a545" stroke="#707070" stroke-width="1">
      <circle cx="35" cy="35" r="35" stroke="none"/>
      <circle cx="35" cy="35" r="34.5" fill="none"/>
    </g>
    <g id="Layer_31" data-name="Layer 31" transform="translate(726.94 1093.33)">
      <path id="Trazado_874801" data-name="Trazado 874801" d="M46.376,36.525a1.087,1.087,0,0,1-.023-.32v-.125a12.476,12.476,0,0,1,6.792-10.73l1.427-.725-.047-.234a2.7,2.7,0,0,0-3.891-1.942l-2.846,1.458a1.381,1.381,0,0,1-2.012-1.115L44.5,7.612a1.568,1.568,0,0,0-1.56-1.435c-.047,0-.086.008-.133.008A1.56,1.56,0,0,0,41.4,7.877l1.006,11.541c0,.039.008.07.008.109a1.1,1.1,0,0,1-2.176.179L37.993,6.957a1.555,1.555,0,0,0-1.8-1.263h-.008A1.56,1.56,0,0,0,34.921,7.5l2.238,12.671a1.773,1.773,0,0,1,.016.2,1.166,1.166,0,0,1-2.293.3L32.3,11.058a1.56,1.56,0,0,0-1.9-1.1l-.117.031a1.553,1.553,0,0,0-1.123,1.793L31.482,23.94s-2.207-4.437-3.431-6.917A1.548,1.548,0,0,0,25.275,18.4l4.85,9.739a12.19,12.19,0,0,1,1.107,3.353l.172.983A10.787,10.787,0,0,0,33.354,37l.156.2a3.073,3.073,0,0,1,.538,1.248l2.1,11.923H48.813Z" transform="translate(-5.507 -1.101)" fill="#ffd3b6"/>
      <path id="Trazado_874802" data-name="Trazado 874802" d="M51.146,58.56H42.678a1.563,1.563,0,0,0-1.536,1.832l.226,1.287H39.029L38.452,58.4,38.21,57H50.873Z" transform="translate(-8.391 -12.406)" fill="#f9b995"/>
      <path id="Trazado_874803" data-name="Trazado 874803" d="M33.51,37.2l-.156-.2a10.787,10.787,0,0,1-1.949-4.53l-.172-.983a12.189,12.189,0,0,0-1.107-3.353L25.275,18.4a1.548,1.548,0,0,1,2.776-1.372c1.224,2.48,3.431,6.917,3.431,6.917L29.159,11.783A1.553,1.553,0,0,1,30.281,9.99l.117-.031a1.56,1.56,0,0,1,1.9,1.1l2.581,9.622a1.166,1.166,0,0,0,2.293-.3,1.773,1.773,0,0,0-.016-.2L34.921,7.5a1.56,1.56,0,0,1,1.263-1.809h.008a1.555,1.555,0,0,1,1.8,1.263l2.246,12.749a1.1,1.1,0,0,0,2.176-.179c0-.039-.008-.07-.008-.109L41.4,7.877a1.56,1.56,0,0,1,1.411-1.692c.047,0,.086-.008.133-.008A1.568,1.568,0,0,1,44.5,7.612l1.271,15.182a1.381,1.381,0,0,0,2.012,1.115l2.846-1.458a2.7,2.7,0,0,1,3.891,1.942l.047.234-1.427.725a12.476,12.476,0,0,0-6.792,10.73v.125a1.087,1.087,0,0,0,.023.32l1.065,6.051H34.773l-.727-4.125A3.073,3.073,0,0,0,33.51,37.2Z" transform="translate(-5.507 -1.101)" fill="#a7d0e1"/>
      <path id="Trazado_874804" data-name="Trazado 874804" d="M52.78,35.91a.78.78,0,0,1-.664-1.188,15,15,0,0,1,1.005-1.438.78.78,0,1,1,1.219.967,13.31,13.31,0,0,0-.9,1.287A.78.78,0,0,1,52.78,35.91Z" transform="translate(-11.428 -7.108)" fill="#fff"/>
      <path id="Trazado_874805" data-name="Trazado 874805" d="M39.8,15.412a1.507,1.507,0,0,0-.852-.275l.644,3.645.707-1.421a1.55,1.55,0,0,0-.5-1.949Z" transform="translate(-8.553 -3.186)" fill="#80bbce"/>
      <path id="Trazado_874806" data-name="Trazado 874806" d="M32.4,26.214l2.367-4.757L33.561,16.95c-1.17,2.366-2.516,5.069-2.516,5.069l1.612-8.433L32.3,12.26a1.56,1.56,0,0,0-1.9-1.1l-.117.031a1.542,1.542,0,0,0-.72.43l-.39,1.444,2.31,12.072s-2.207-4.437-3.431-6.917a1.482,1.482,0,0,0-.188-.274l-.218.812a1.166,1.166,0,0,1-2.293-.3,1.774,1.774,0,0,1,.016-.2l.044-.247a1.549,1.549,0,0,0-.137,1.588l4.85,9.739a12.273,12.273,0,0,1,.8,2.059c.073-.279.15-.558.2-.842l.172-.983A12.19,12.19,0,0,1,32.4,26.214Z" transform="translate(-5.507 -2.299)" fill="#80bbce"/>
      <path id="Trazado_874807" data-name="Trazado 874807" d="M35.849,40.168l-.156-.2a10.787,10.787,0,0,1-1.949-4.53l-.172-.983A12.189,12.189,0,0,0,32.465,31.1l-4.85-9.739a1.548,1.548,0,0,1,.22-1.689,1.537,1.537,0,0,0-1.17-.541,1.519,1.519,0,0,0-.889.281,1.55,1.55,0,0,0-.5,1.949l4.85,9.739a12.189,12.189,0,0,1,1.107,3.353l.172.983a10.787,10.787,0,0,0,1.949,4.53l.156.2a3.073,3.073,0,0,1,.538,1.248l.724,4.125h2.339l-.727-4.125a3.073,3.073,0,0,0-.536-1.248Z" transform="translate(-5.508 -4.066)" fill="#80bbce"/>
      <rect id="Rect치ngulo_401728" data-name="Rect치ngulo 401728" width="17.155" height="3.119" rx="1.56" transform="translate(44.471 44.594) rotate(180)" fill="#80bbce"/>
      <path id="Trazado_874808" data-name="Trazado 874808" d="M30.406,14.4l-4.85,9.739a12.189,12.189,0,0,0-1.107,3.353l-.172.983A10.787,10.787,0,0,1,22.328,33l-.156.2a3.073,3.073,0,0,0-.538,1.248L18.982,49.493H6.319L9.305,32.525a1.087,1.087,0,0,0,.023-.32v-.125a12.476,12.476,0,0,0-6.792-10.73L1.11,20.626l.047-.234a2.7,2.7,0,0,1,3.891-1.942l2.846,1.458a1.381,1.381,0,0,0,2.012-1.115L11.177,3.612a1.568,1.568,0,0,1,1.56-1.435c.047,0,.086.008.133.008A1.56,1.56,0,0,1,14.28,3.877L13.274,15.417c0,.039-.008.07-.008.109a1.1,1.1,0,0,0,2.176.179L17.688,2.957a1.555,1.555,0,0,1,1.8-1.263H19.5A1.56,1.56,0,0,1,20.76,3.5L18.522,16.174a1.774,1.774,0,0,0-.016.2,1.166,1.166,0,0,0,2.293.3L23.38,7.058a1.56,1.56,0,0,1,1.9-1.1l.117.031a1.553,1.553,0,0,1,1.123,1.793L24.2,19.94s2.207-4.437,3.431-6.917A1.548,1.548,0,0,1,30.406,14.4Z" transform="translate(-0.22 -0.22)" fill="#ffd3b6"/>
      <path id="Trazado_874809" data-name="Trazado 874809" d="M22.172,33.2l.156-.2a10.787,10.787,0,0,0,1.949-4.53l.172-.983a12.189,12.189,0,0,1,1.107-3.353l4.85-9.739a1.548,1.548,0,0,0-2.776-1.372C26.406,15.5,24.2,19.94,24.2,19.94L26.523,7.783A1.553,1.553,0,0,0,25.4,5.99l-.117-.031a1.56,1.56,0,0,0-1.9,1.1L20.8,16.681a1.166,1.166,0,0,1-2.293-.3,1.774,1.774,0,0,1,.016-.2L20.76,3.5A1.56,1.56,0,0,0,19.5,1.693h-.008a1.555,1.555,0,0,0-1.8,1.263L15.442,15.706a1.1,1.1,0,0,1-2.176-.179c0-.039.008-.07.008-.109L14.28,3.877a1.56,1.56,0,0,0-1.411-1.692c-.047,0-.086-.008-.133-.008a1.568,1.568,0,0,0-1.56,1.435L9.906,18.794a1.381,1.381,0,0,1-2.012,1.115L5.048,18.451a2.7,2.7,0,0,0-3.891,1.942l-.047.234,1.427.725a12.476,12.476,0,0,1,6.792,10.73v.125a1.087,1.087,0,0,1-.023.32L8.24,38.576H20.908l.727-4.125a3.073,3.073,0,0,1,.536-1.248Z" transform="translate(-0.22 -0.22)" fill="#a7d0e1"/>
      <path id="Trazado_874810" data-name="Trazado 874810" d="M11.668,36.863v-.125a12.476,12.476,0,0,0-6.792-10.73h0a1.545,1.545,0,0,1-.561-2.278,2.061,2.061,0,0,1,.669-.646A2.7,2.7,0,0,0,1.157,25.05l-.047.234,1.427.725a12.476,12.476,0,0,1,6.792,10.73v.125a1.087,1.087,0,0,1-.023.32L8.24,43.234H10.58l1.065-6.051A1.087,1.087,0,0,0,11.668,36.863Z" transform="translate(-0.22 -4.878)" fill="#80bbce"/>
      <rect id="Rect치ngulo_401729" data-name="Rect치ngulo 401729" width="17.155" height="3.119" rx="1.56" transform="translate(5.483 38.356)" fill="#80bbce"/>
      <path id="Trazado_874811" data-name="Trazado 874811" d="M21.828,53H9.162L7.79,60.8h2.339l.644-3.659a3.119,3.119,0,0,1,3.072-2.579h7.708Z" transform="translate(-1.691 -11.525)" fill="#f9b995"/>
      <path id="Trazado_874812" data-name="Trazado 874812" d="M56.852,24.253l-.044-.214a3.482,3.482,0,0,0-5.015-2.5l-2.847,1.458a.6.6,0,0,1-.572-.008.6.6,0,0,1-.306-.479L46.8,7.325a2.363,2.363,0,0,0-2.339-2.148,1.714,1.714,0,0,0-.2.011,2.339,2.339,0,0,0-2.118,2.537L43.143,19.2a.527.527,0,0,0,.008.109.312.312,0,0,1-.254.3.324.324,0,0,1-.37-.253L40.277,6.6a2.334,2.334,0,0,0-2.663-1.9.2.2,0,0,0-.051.007,2.343,2.343,0,0,0-1.9,2.713l.546,3.1a.78.78,0,1,0,1.536-.271l-.546-3.1a.78.78,0,0,1,.6-.9l.037-.005a.78.78,0,0,1,.9.63l2.247,12.755a1.9,1.9,0,0,0,2.175,1.515,1.871,1.871,0,0,0,1.55-1.836,1.17,1.17,0,0,0-.011-.177l-1-11.544a.774.774,0,0,1,.632-.841,1.1,1.1,0,0,0,.133-.008.791.791,0,0,1,.78.721l1.271,15.178a2.16,2.16,0,0,0,3.145,1.747l2.852-1.458a1.923,1.923,0,0,1,2.683,1.064l-.89.448a13.273,13.273,0,0,0-7.213,11.424v.068a1.761,1.761,0,0,0,.033.512l.906,5.136H36.945l-.616-3.491a3.842,3.842,0,0,0-.685-1.576l-.148-.192a10.059,10.059,0,0,1-1.808-4.2l-.14-.8a.78.78,0,1,0-1.536.268l.14.805a11.636,11.636,0,0,0,2.1,4.869l.145.189a2.274,2.274,0,0,1,.4.923l.577,3.275a2.339,2.339,0,0,0,.526,4.613h.287l.711,4.035a.78.78,0,0,0,.768.644H50.329a.78.78,0,0,0,.768-.915L50.425,46.2a2.339,2.339,0,0,0-.49-4.621h-.324l-.96-5.445a.6.6,0,0,1,0-.146v-.1a11.7,11.7,0,0,1,6.365-10.059l1.427-.725A.78.78,0,0,0,56.852,24.253ZM38.316,49.374l-.546-3.119H48.851l.546,3.119Zm12.4-5.458a.78.78,0,0,1-.78.78H35.9a.78.78,0,0,1,0-1.56H49.935A.78.78,0,0,1,50.714,43.916Z" transform="translate(-7.023 -0.881)"/>
      <path id="Trazado_874813" data-name="Trazado 874813" d="M22.576,33.451l.156-.208a11.608,11.608,0,0,0,2.091-4.859l.172-.983a11.417,11.417,0,0,1,1.037-3.139l4.852-9.742a2.329,2.329,0,0,0-4.176-2.063l-.9,1.811,1.259-6.558a2.339,2.339,0,0,0-1.687-2.7l-.119-.033A2.335,2.335,0,0,0,22.4,6.636L19.823,16.26a.39.39,0,0,1-.759-.1.3.3,0,0,0,0-.067L21.312,3.416A2.339,2.339,0,0,0,19.41.7L19.363.7A2.335,2.335,0,0,0,16.7,2.6L14.456,15.344a.324.324,0,0,1-.367.263.312.312,0,0,1-.264-.264l.006-.078L14.84,3.727a2.353,2.353,0,0,0-2.183-2.544c-.024,0-.115-.007-.139-.007a2.363,2.363,0,0,0-2.339,2.15L8.907,18.512a.591.591,0,0,1-.306.475.6.6,0,0,1-.574.008L5.183,17.536a3.445,3.445,0,0,0-3.139-.015,3.438,3.438,0,0,0-1.871,2.5l-.047.234a.78.78,0,0,0,.412.848l1.425.724A11.7,11.7,0,0,1,8.329,31.861v.182a.409.409,0,0,1-.013.127l-.951,5.407H7.042a2.339,2.339,0,0,0-.49,4.625l-1.221,6.94a.78.78,0,0,0,.768.912H18.762a.78.78,0,0,0,.768-.644l1.261-7.154h.287a2.339,2.339,0,0,0,.526-4.614l.575-3.265a2.285,2.285,0,0,1,.4-.925ZM18.108,48.493H7.027l1.1-6.238H19.207Zm3.75-8.577a.78.78,0,0,1-.78.78H7.042a.78.78,0,1,1,0-1.56H21.078A.78.78,0,0,1,21.858,39.916Zm-.37-7.61-.156.2-.011.015a3.841,3.841,0,0,0-.676,1.571l-.614,3.481H8.949l.9-5.1a1.715,1.715,0,0,0,.043-.494v-.149a13.262,13.262,0,0,0-7.218-11.4l-.882-.448a1.924,1.924,0,0,1,2.68-1.064l2.846,1.458a2.161,2.161,0,0,0,3.145-1.744l1.271-15.18a.788.788,0,0,1,.77-.723l.078.005a.78.78,0,0,1,.7.848l-1.008,11.58c0,.027-.009.11-.009.138a1.871,1.871,0,0,0,1.557,1.84,1.892,1.892,0,0,0,2.169-1.523l2.246-12.75a.775.775,0,0,1,.9-.629l.035,0a.768.768,0,0,1,.475.312.786.786,0,0,1,.129.586L17.524,15.893a2.466,2.466,0,0,0-.017.264,1.946,1.946,0,0,0,3.826.506l2.582-9.625a.78.78,0,0,1,.947-.546l.116.031a.773.773,0,0,1,.559.894L23.212,19.572a.78.78,0,0,0,1.464.494s2.208-4.438,3.431-6.919a.769.769,0,0,1,1.379.68l-4.85,9.739a12.958,12.958,0,0,0-1.177,3.567l-.172.981A10.028,10.028,0,0,1,21.488,32.306Z"/>
      <path id="Trazado_874814" data-name="Trazado 874814" d="M18.611,31.19a6.316,6.316,0,0,0-4.78-3.943.78.78,0,1,0-.271,1.536,4.75,4.75,0,0,1,3.595,2.963l.511,1.333a.78.78,0,1,0,1.456-.558Z" transform="translate(-2.82 -5.85)"/>
      <path id="Trazado_874815" data-name="Trazado 874815" d="M43.838,36.582a.78.78,0,0,0,.728-.5l.511-1.333a4.752,4.752,0,0,1,3.595-2.963.78.78,0,0,0-.271-1.536,6.316,6.316,0,0,0-4.78,3.943l-.511,1.333a.78.78,0,0,0,.728,1.059Z" transform="translate(-9.458 -6.512)"/>
    </g>
  </g>
</svg>
