<svg xmlns="http://www.w3.org/2000/svg" width="70" height="70" viewBox="0 0 70 70">
  <g id="Grupo_1099911" data-name="Grupo 1099911" transform="translate(2123 10466)">
    <g id="Elipse_11565" data-name="Elipse 11565" transform="translate(-2123 -10466)" fill="#f9a545" stroke="#707070" stroke-width="1">
      <circle cx="35" cy="35" r="35" stroke="none"/>
      <circle cx="35" cy="35" r="34.5" fill="none"/>
    </g>
    <g id="_x31_7_Apron" transform="translate(-2171.968 -10457.087)">
      <g id="Grupo_1099910" data-name="Grupo 1099910" transform="translate(65.968 2.087)">
        <path id="Trazado_874816" data-name="Trazado 874816" d="M139.522,113.115a18.167,18.167,0,0,1-5.015-10.78,2.064,2.064,0,0,0-2.057-1.851h-8.788a2.065,2.065,0,0,0-2.057,1.851,18.166,18.166,0,0,1-5.015,10.78l-1.365,1.411a2.072,2.072,0,0,0-.583,1.441v20.794a2.072,2.072,0,0,0,2.072,2.072H139.4a2.072,2.072,0,0,0,2.072-2.072V115.967a2.072,2.072,0,0,0-.583-1.441Z" transform="translate(-110.025 -91.148)" fill="#f4f4f4"/>
        <path id="Trazado_874817" data-name="Trazado 874817" d="M272.045,115.963v20.791a2.074,2.074,0,0,1-2.073,2.073h-4.116a2.074,2.074,0,0,0,2.073-2.073V115.963a2.074,2.074,0,0,0-.582-1.441l-1.365-1.415a18.147,18.147,0,0,1-5.015-10.777,2.068,2.068,0,0,0-2.058-1.852h4.116a2.064,2.064,0,0,1,2.058,1.852,18.147,18.147,0,0,0,5.015,10.777l1.365,1.415a2.052,2.052,0,0,1,.582,1.441Z" transform="translate(-240.601 -91.142)" opacity="0.15"/>
        <path id="Trazado_874818" data-name="Trazado 874818" d="M198.381,279.549v3.756a4.5,4.5,0,0,1-4.5,4.5h-4.5a4.5,4.5,0,0,1-4.5-4.5v-3.756Z" transform="translate(-173.601 -253.221)" fill="#7bffcd"/>
        <path id="Trazado_874819" data-name="Trazado 874819" d="M254.56,279.54v3.76a4.5,4.5,0,0,1-4.5,4.492h-3.107a4.494,4.494,0,0,0,4.492-4.492v-3.76Z" transform="translate(-229.781 -253.213)" opacity="0.15"/>
        <g id="Grupo_1099909" data-name="Grupo 1099909" transform="translate(0)">
          <path id="Trazado_874820" data-name="Trazado 874820" d="M66.47,125.514a.5.5,0,0,0,.5-.5V113.7a2.018,2.018,0,0,1,2.016-2.016h1.1v20.292a2.577,2.577,0,0,0,2.574,2.574H95.341a2.577,2.577,0,0,0,2.574-2.574V111.68h1.1a2.018,2.018,0,0,1,2.016,2.016v11.316a.5.5,0,0,0,1,0V113.7a3.024,3.024,0,0,0-3.02-3.02H97.866a2.559,2.559,0,0,0-.675-1.288c-.543-.741-5.48-4.459-6.241-11.893a2.559,2.559,0,0,0-2.556-2.3H79.606a2.559,2.559,0,0,0-2.556,2.3c-.764,7.455-5.691,11.141-6.241,11.893a2.559,2.559,0,0,0-.675,1.288H68.988a3.024,3.024,0,0,0-3.02,3.02v11.316a.5.5,0,0,0,.5.5Zm5.061-15.428c.55-.753,5.72-4.693,6.518-12.489a1.558,1.558,0,0,1,1.557-1.4h8.788a1.558,1.558,0,0,1,1.557,1.4c.8,7.773,6,11.775,6.518,12.489a1.562,1.562,0,0,1,.442,1.092v20.794a1.572,1.572,0,0,1-1.57,1.57H72.659a1.572,1.572,0,0,1-1.57-1.57V111.179A1.562,1.562,0,0,1,71.531,110.087Z" transform="translate(-65.968 -86.359)" fill="#2b3c65"/>
          <path id="Trazado_874821" data-name="Trazado 874821" d="M224.125,9.917a.5.5,0,0,0,.5-.5V5.761a3.674,3.674,0,0,0-7.348,0V9.416a.5.5,0,0,0,1,0V5.761a2.67,2.67,0,1,1,5.341,0V9.416A.5.5,0,0,0,224.125,9.917Z" transform="translate(-202.921 -2.087)" fill="#2b3c65"/>
          <path id="Trazado_874822" data-name="Trazado 874822" d="M220.795,275.255h1.682a.5.5,0,1,0,0-1h-1.682a.5.5,0,1,0,0,1Z" transform="translate(-205.649 -248.425)" fill="#2b3c65"/>
          <path id="Trazado_874823" data-name="Trazado 874823" d="M184.614,283.507h4.5a5,5,0,0,0,5-4.995v-3.759a.5.5,0,0,0-.5-.5h-3.559a.5.5,0,1,0,0,1h3.057v3.258a4,4,0,0,1-4,3.991h-4.5a4,4,0,0,1-4-3.991v-3.258h1.34a.5.5,0,1,0,0-1h-1.842a.5.5,0,0,0-.5.5v3.759a5,5,0,0,0,5,4.995Z" transform="translate(-168.831 -248.425)" fill="#2b3c65"/>
        </g>
      </g>
    </g>
  </g>
</svg>
