<svg xmlns="http://www.w3.org/2000/svg" width="70" height="70" viewBox="0 0 70 70">
  <g id="Grupo_1099930" data-name="Grupo 1099930" transform="translate(1808 10466)">
    <g id="Elipse_11566" data-name="Elipse 11566" transform="translate(-1808 -10466)" fill="#f9a545" stroke="#707070" stroke-width="1">
      <circle cx="35" cy="35" r="35" stroke="none"/>
      <circle cx="35" cy="35" r="34.5" fill="none"/>
    </g>
    <g id="_06-Wash_hands" data-name="06-Wash hands" transform="translate(-1797 -10455)">
      <path id="Trazado_874840" data-name="Trazado 874840" d="M57.127,49.962V58.85L40.36,50.829l.474-.126,3.7-3.7Z" transform="translate(-10.469 -12.192)" fill="#f2b59d"/>
      <path id="Trazado_874841" data-name="Trazado 874841" d="M3.222,36.9a3.02,3.02,0,0,1-1.355-.77A2.981,2.981,0,0,1,1,34.034a2.222,2.222,0,0,1,2.222-2.222H6.184l.022-.03,3.355,2.57a2.074,2.074,0,0,0,2.7-.163,2.01,2.01,0,0,0,.592-1.422v-.348a1.481,1.481,0,0,0-.741-1.348L9.154,28.739l.022-.03,5.3,4.118a2.2,2.2,0,0,0,3.562-1.74v-.393a2.189,2.189,0,0,0-.852-1.74l.852.637a2.979,2.979,0,0,0,1.5.741,2.2,2.2,0,0,0,2.207-2.207v-.393a2.2,2.2,0,0,0-.881-1.763l-2.081-1.563h.741v-.741a1.486,1.486,0,0,0-1.481-1.481H11.716a1.829,1.829,0,0,1-.815-3.466l2.037-.711L15.812,17l2.222.244,4.444.5,2.844,2.37L35.808,28.85H46.917V42.18l-12.59-2.962-3.7,3.7-.474.126-13.309,3.5a2.263,2.263,0,0,1-.585.074h-1.7a2.327,2.327,0,0,1-1.644-.681l-1.54-1.54h-.955a2.974,2.974,0,0,1-2.755-1.859L6.925,40.7H6.206a2.211,2.211,0,0,1-2.059-1.4L3.222,37Z" transform="translate(-0.259 -4.41)" fill="#f2c4b2"/>
      <path id="Trazado_874842" data-name="Trazado 874842" d="M30.665,14.7l.741,3.7-.118.148-2.844-2.37L24,15.688V13.5a2.5,2.5,0,0,1,4.451-1.563Z" transform="translate(-6.226 -2.853)" fill="#f2b59d"/>
      <path id="Trazado_874843" data-name="Trazado 874843" d="M24.47,25.481v.741h-.741L21.3,24.4a2,2,0,0,0-1.2-.4h2.888A1.486,1.486,0,0,1,24.47,25.481Z" transform="translate(-5.214 -6.226)" fill="#ed9776"/>
      <path id="Trazado_874844" data-name="Trazado 874844" d="M23.449,27.784l-2.081-1.563L18.939,24.4a2,2,0,0,0-1.2-.4H16.7A1.988,1.988,0,0,0,14.7,25.992a2.138,2.138,0,0,0,.592,1.415l-.059-.044a2,2,0,0,0-1.2-.4H12.992a1.99,1.99,0,0,0-1.222,3.562l5.3,4.118a2.2,2.2,0,0,0,3.562-1.74V32.51a2.189,2.189,0,0,0-.852-1.74l.852.637a2.979,2.979,0,0,0,1.5.741,2.2,2.2,0,0,0,2.207-2.207v-.393a2.2,2.2,0,0,0-.881-1.763Z" transform="translate(-2.853 -6.226)" fill="#f2b59d"/>
      <path id="Trazado_874845" data-name="Trazado 874845" d="M13.59,1V6.925H6.925V5.444H1V1Z" transform="translate(-0.259 -0.259)" fill="#d4d4d4"/>
      <g id="Grupo_1099929" data-name="Grupo 1099929" transform="translate(3.703 22.959)">
        <path id="Trazado_874846" data-name="Trazado 874846" d="M13.887,36.051V36.4a2.01,2.01,0,0,1-.592,1.422,2.074,2.074,0,0,1-2.7.163l-3.355-2.57L5.7,34.229a1.8,1.8,0,0,1-.659-1.015A1.855,1.855,0,0,1,5,32.807,1.82,1.82,0,0,1,6.837,31h.97a1.842,1.842,0,0,1,1.1.363l1.281,1.007L13.147,34.7a1.481,1.481,0,0,1,.741,1.348Z" transform="translate(-5 -31)" fill="#f2b59d"/>
        <path id="Trazado_874847" data-name="Trazado 874847" d="M25.451,31.952l-.6-.452v.384a2.2,2.2,0,0,1-2.207,2.208,2.979,2.979,0,0,1-1.5-.741l-.852-.637a2.189,2.189,0,0,1,.852,1.74v.007l.6.45-.6-.444v.381a2.206,2.206,0,0,1-3.562,1.74l-4.577-3.559a.21.21,0,0,1,0,.053l2.219,1.751a1.481,1.481,0,0,1,.741,1.348V36.4l3.1,2.413a2.2,2.2,0,0,0,3.562-1.74v-.393a2.189,2.189,0,0,0-.852-1.74l.852.637a2.979,2.979,0,0,0,1.5.741,2.2,2.2,0,0,0,2.207-2.207v-.393a2.2,2.2,0,0,0-.881-1.763Z" transform="translate(-7.076 -31.13)" fill="#f2b59d"/>
        <path id="Trazado_874848" data-name="Trazado 874848" d="M15.163,38.471l-.741-.584v.059a2.01,2.01,0,0,1-.592,1.422,2.074,2.074,0,0,1-2.7.163L7.779,36.96l-.022.03H7.063A1.8,1.8,0,0,0,7.72,38l1.54,1.185,3.355,2.57a2.074,2.074,0,0,0,2.7-.163,2.01,2.01,0,0,0,.592-1.422v-.348a1.481,1.481,0,0,0-.741-1.348Z" transform="translate(-5.535 -32.546)" fill="#f2b59d"/>
      </g>
      <path id="Trazado_874849" data-name="Trazado 874849" d="M11.962,59.777c0,1.229-.667,1.666-1.481,1.666S9,61.007,9,59.777,10.481,57,10.481,57,11.962,58.548,11.962,59.777Z" transform="translate(-2.335 -14.786)" fill="#96e0ff"/>
      <path id="Trazado_874850" data-name="Trazado 874850" d="M9.741,59.037a3.777,3.777,0,0,1,.815-1.954L10.481,57S9,58.548,9,59.777s.667,1.666,1.481,1.666a1.323,1.323,0,0,0,1.342-.84,1.766,1.766,0,0,1-.6.1C10.407,60.7,9.741,60.266,9.741,59.037Z" transform="translate(-2.335 -14.786)" fill="#81d2f5"/>
      <path id="Trazado_874851" data-name="Trazado 874851" d="M6.206,36.19l-.022.03H3.222A2.222,2.222,0,0,0,1,38.441V36.96A2.962,2.962,0,0,1,3.962,34l.044-.007A1.8,1.8,0,0,0,4.666,35Z" transform="translate(-0.259 -8.817)" fill="#ed9776"/>
      <path id="Trazado_874852" data-name="Trazado 874852" d="M6.439,54.7a2,2,0,0,1-2.222,2.222A2,2,0,0,1,2,54.7C2,53.066,4.217,51,4.217,51S6.439,53.066,6.439,54.7Z" transform="translate(-0.514 -13.229)" fill="#96e0ff"/>
      <path id="Trazado_874853" data-name="Trazado 874853" d="M2.736,53.792a2.306,2.306,0,0,1,.087-.592A3.986,3.986,0,0,0,2,55.274,2,2,0,0,0,4.217,57.5a1.963,1.963,0,0,0,2.2-1.9,2.427,2.427,0,0,1-1.455.417,2,2,0,0,1-2.222-2.222Z" transform="translate(-0.514 -13.8)" fill="#81d2f5"/>
      <path id="Trazado_874854" data-name="Trazado 874854" d="M22.586,53.621a.741.741,0,0,0,.561-.718V52l-6.414,1.385a1.371,1.371,0,0,1-.518.1H15l1.235,1.235.987.247Z" transform="translate(-3.891 -13.489)" fill="#f2b59d"/>
      <path id="Trazado_874855" data-name="Trazado 874855" d="M18.893,48.7a1.481,1.481,0,0,0,1.216-1.458V47l-8.147,1.481H9l.592,1.481h2.37Z" transform="translate(-2.335 -12.192)" fill="#f2b59d"/>
      <path id="Trazado_874856" data-name="Trazado 874856" d="M15.129,43.725A1.749,1.749,0,0,0,16.59,42L6.962,43.481H4.741a2.709,2.709,0,0,1-.741-.1v.1l.592,1.481H7.7Z" transform="translate(-1.038 -10.895)" fill="#f2b59d"/>
      <path id="Trazado_874857" data-name="Trazado 874857" d="M47.176,49.78l9.951,2.927V49.962L44.537,47l-3.7,3.7-.474.126,4.918,2.352V51.2a1.481,1.481,0,0,1,1.9-1.421Z" transform="translate(-10.469 -12.192)" fill="#ed9776"/>
      <path id="Trazado_874858" data-name="Trazado 874858" d="M23.713,30.584,18.1,26.659A1.461,1.461,0,0,1,18.94,24h-.948A1.988,1.988,0,0,0,16,25.992a2.138,2.138,0,0,0,.592,1.415l.007.007,4.444,3.333c.007.007.022.015.03.022l.852.637a2.979,2.979,0,0,0,1.5.741,2.18,2.18,0,0,0,2.137-1.681A1.481,1.481,0,0,1,23.713,30.584Z" transform="translate(-4.15 -6.226)" fill="#f2a283"/>
      <path id="Trazado_874859" data-name="Trazado 874859" d="M11.972,36.954,6.363,33.028a1.428,1.428,0,0,1-.558-1.6A1.8,1.8,0,0,0,5,32.917a1.855,1.855,0,0,0,.044.407A1.8,1.8,0,0,0,5.7,34.339l1.54,1.185,3.355,2.57a2.074,2.074,0,0,0,2.7-.163,2.014,2.014,0,0,0,.564-1.141,1.481,1.481,0,0,1-1.886.163Z" transform="translate(-1.297 -8.152)" fill="#f2a283"/>
      <path id="Trazado_874860" data-name="Trazado 874860" d="M18.713,34.736l-6.35-4.666a1.457,1.457,0,0,1-.593-1.483,1.971,1.971,0,0,0-.429.444,1.993,1.993,0,0,0,.43,2.688l5.3,4.118a2.192,2.192,0,0,0,3.493-1.215,1.481,1.481,0,0,1-1.846.113Z" transform="translate(-2.853 -7.416)" fill="#f2a283"/>
      <path id="Trazado_874861" data-name="Trazado 874861" d="M58.59,33H55.628v5.8A2.222,2.222,0,0,1,52.7,40.913l-1.689-.563A3.851,3.851,0,0,0,46,43.368l12.59,2.962Z" transform="translate(-11.932 -8.56)" fill="#f2b59d"/>
      <path id="Trazado_874862" data-name="Trazado 874862" d="M21.147,21.673H14.481a1.481,1.481,0,0,1-1.374-.935,1.789,1.789,0,0,0-.107.587,1.833,1.833,0,0,0,1.829,1.829h6.317a1.486,1.486,0,0,1,1.481,1.481V23.154A1.481,1.481,0,0,0,21.147,21.673Z" transform="translate(-3.372 -5.379)" fill="#f2b59d"/>
      <path id="Trazado_874863" data-name="Trazado 874863" d="M18.252,24H17v.452A1.974,1.974,0,0,1,18.252,24Z" transform="translate(-4.41 -6.226)" fill="#81d2f5"/>
      <path id="Trazado_874864" data-name="Trazado 874864" d="M11.489,26.663l.022-.03a1.989,1.989,0,0,1,1.222-3.562h1.044a2,2,0,0,1,1.2.4l.059.044a2.138,2.138,0,0,1-.592-1.415,1.978,1.978,0,0,1,.741-1.54v-.452H14.051a1.829,1.829,0,0,1-.815-3.466l1.948-.681V9H10V25.527a1.829,1.829,0,0,1,.207.13Z" transform="translate(-2.594 -2.335)" fill="#96e0ff"/>
      <path id="Trazado_874865" data-name="Trazado 874865" d="M2.481,1V2.481A1.481,1.481,0,0,0,3.962,3.962H6.925V5.444H1V1Z" transform="translate(-0.259 -0.259)" fill="#bfbfbf"/>
      <path id="Trazado_874866" data-name="Trazado 874866" d="M9,8h6.665v.741H9Z" transform="translate(-2.335 -2.075)" fill="#bfbfbf"/>
      <path id="Trazado_874867" data-name="Trazado 874867" d="M12.962,10.481h2.222V9H10V25.527a1.829,1.829,0,0,1,.207.13l1.281,1.007.022-.03a1.958,1.958,0,0,1-.03-3.111V11.962a1.481,1.481,0,0,1,1.481-1.481Z" transform="translate(-2.594 -2.335)" fill="#81d2f5"/>
      <rect id="Rectángulo_401730" data-name="Rectángulo 401730" width="1.166" height="4.663" rx="0.583" transform="translate(10.875 8.543)" fill="#b3f5ff"/>
      <rect id="Rectángulo_401731" data-name="Rectángulo 401731" width="1.166" height="2.332" rx="0.583" transform="translate(10.875 17.87)" fill="#b3f5ff"/>
      <rect id="Rectángulo_401732" data-name="Rectángulo 401732" width="2.332" height="2.332" rx="1" transform="translate(8.543 12.04)" fill="#b3f5ff"/>
      <path id="Trazado_874868" data-name="Trazado 874868" d="M5.92,55.474c.264.061.411-.318.4-.559a.878.878,0,0,0-.475-.82,1.052,1.052,0,0,0-.667-.074.493.493,0,0,0-.256.114.287.287,0,0,0-.079.284.4.4,0,0,0,.1.143l.755.764a.472.472,0,0,0,.218.148Z" transform="translate(-1.254 -14.007)" fill="#fff"/>
      <path id="Trazado_874869" data-name="Trazado 874869" d="M11.877,61.241c.132.03.205-.159.2-.28a.44.44,0,0,0-.235-.41.53.53,0,0,0-.333-.037.247.247,0,0,0-.127.057.143.143,0,0,0-.04.142.192.192,0,0,0,.052.074l.377.381a.237.237,0,0,0,.105.072Z" transform="translate(-2.941 -15.695)" fill="#fff"/>
      <path id="Trazado_874870" data-name="Trazado 874870" d="M46.658,23.7H35.817l-9.943-8.286.032-.006-.741-3.7a.736.736,0,0,0-.148-.318L22.811,8.623a3.242,3.242,0,0,0-5.777,2.025v.461h1.481v-.461a1.76,1.76,0,0,1,3.134-1.1l2.1,2.624.353,1.765-1.407-1.175a.741.741,0,0,0-.393-.167l-6.665-.741a.741.741,0,0,0-.326.037l-1.98.691V7.406a.741.741,0,0,0,.741-.741V.741A.741.741,0,0,0,13.331,0H.741V1.481H12.59V5.925H7.406V5.184a.741.741,0,0,0-.741-.741H.741V5.925H5.925v.741a.741.741,0,0,0,.741.741v8.887H8.147V7.406h3.7V13.1l-1.455.508a.741.741,0,0,0-.087.036,2.57,2.57,0,0,0,1.119,4.872,2.688,2.688,0,0,0-.318,1.252c0,.079.02.155.027.233h-1a2.725,2.725,0,0,0-2.7,2.4,2.584,2.584,0,0,0-.93-.181h-.97a2.561,2.561,0,0,0-2.551,2.3A3.707,3.707,0,0,0,0,28.143v1.481a3.7,3.7,0,0,0,2.356,3.44l.841,2.1A2.948,2.948,0,0,0,5.948,37.03h.216l.55,1.375a3.685,3.685,0,0,0,3.439,2.328h.65l1.326,1.326a3.082,3.082,0,0,0,2.166.9H16a3.066,3.066,0,0,0,.778-.1l13.782-3.629a.733.733,0,0,0,.335-.193l3.408-3.41,11.618,2.734v7.125L35.125,40.321l-.64,1.333,11.85,5.669a.741.741,0,0,0,1.064-.664V24.44a.741.741,0,0,0-.741-.741ZM15.639,18.765l4.512,3.384a1.475,1.475,0,0,1,.586,1.172v.395a1.467,1.467,0,0,1-1.466,1.465c-.048,0-.327-.028-1.054-.592l-.865-.645-.016-.015-4.36-3.273a1.232,1.232,0,0,1-.386-.889,1.25,1.25,0,0,1,1.249-1.252h1.046a1.259,1.259,0,0,1,.753.25Zm2.135-.25a.732.732,0,0,1,.7.518Zm-7.638,2.962h1.046a1.259,1.259,0,0,1,.75.25l.141.105c.035.03.061.067.1.1l4.3,3.2a1.472,1.472,0,0,1,.567,1.155v.395a1.464,1.464,0,0,1-2.364,1.156l-5.3-4.122a1.249,1.249,0,0,1,.767-2.234ZM5.539,23.7h.97a1.111,1.111,0,0,1,.656.213l4.244,3.342c.385.284.44.417.44.754v.348a1.281,1.281,0,0,1-1.3,1.268,1.319,1.319,0,0,1-.8-.27L4.856,25.6a1.057,1.057,0,0,1-.413-.835,1.083,1.083,0,0,1,1.1-1.068ZM1.481,29.624a1.481,1.481,0,0,1,1.481-1.481H3.7V26.662H2.962a2.937,2.937,0,0,0-1.076.21,2.222,2.222,0,0,1,1.389-.907,2.524,2.524,0,0,0,.68.815l4.9,3.753a2.814,2.814,0,0,0,1.7.575,2.847,2.847,0,0,0,.366-.036l-5.055.776H3.7a2.222,2.222,0,0,1-2.222-2.222Zm32.756,4.463a.741.741,0,0,0-.693.2l-3.562,3.56L16.395,41.422a1.563,1.563,0,0,1-.4.052h-1.7a1.59,1.59,0,0,1-1.115-.462l-.345-.345a2.148,2.148,0,0,0,.216-.055l6.365-1.376L19.1,37.787l-6.417,1.391a.628.628,0,0,0-.1.031.736.736,0,0,1-.259.047h-2.17a2.21,2.21,0,0,1-2.063-1.4l-.33-.829H9.628a.724.724,0,0,0,.133-.012l8.147-1.481-.265-1.458L9.561,35.549H5.948a1.472,1.472,0,0,1-1.375-.931l-.517-1.291H5.925a.713.713,0,0,0,.113-.009l9.628-1.481-.222-1.463-4.26.658A2.748,2.748,0,0,0,13.3,28.646L13.76,29a2.947,2.947,0,0,0,4.755-2.325V26.5a2.051,2.051,0,0,0,.756.165,2.95,2.95,0,0,0,2.947-2.946v-.395a2.962,2.962,0,0,0-1.179-2.357l-.3-.227h2.222V19.256H20a2.222,2.222,0,0,0-2.222-2.222H11.459a1.09,1.09,0,0,1-.524-2.046l4.7-1.643,6.277.7L35.074,25.009a.741.741,0,0,0,.475.172H45.917V36.835Z" transform="translate(0)"/>
      <path id="Trazado_874871" data-name="Trazado 874871" d="M0,0H1.482V1.642H0Z" transform="translate(31.507 40.228) rotate(-64.46)"/>
      <path id="Trazado_874872" data-name="Trazado 874872" d="M4.463,50.2a.741.741,0,0,0-1.009,0C3.2,50.433,1,52.54,1,54.444a2.722,2.722,0,0,0,2.962,2.962,2.722,2.722,0,0,0,2.962-2.962c0-1.9-2.206-4.011-2.458-4.245Zm-.5,5.726c-1.024,0-1.481-.457-1.481-1.481A5.128,5.128,0,0,1,3.958,51.8a5.139,5.139,0,0,1,1.481,2.643C5.439,55.468,4.983,55.925,3.958,55.925Z" transform="translate(-0.255 -12.97)"/>
      <path id="Trazado_874873" data-name="Trazado 874873" d="M9.681,56.232c-.173.181-1.686,1.808-1.686,3.289a2.148,2.148,0,0,0,2.222,2.407,2.148,2.148,0,0,0,2.222-2.407c0-1.481-1.514-3.111-1.686-3.289a.764.764,0,0,0-1.071,0Zm.535,4.215c-.375,0-.741-.074-.741-.926a3.333,3.333,0,0,1,.741-1.617,3.333,3.333,0,0,1,.741,1.617C10.957,60.373,10.591,60.447,10.216,60.447Z" transform="translate(-2.07 -14.53)"/>
      <path id="Trazado_874874" data-name="Trazado 874874" d="M9,24h1.481v2.962H9Z" transform="translate(-2.335 -6.226)"/>
    </g>
  </g>
</svg>
