<svg xmlns="http://www.w3.org/2000/svg" xmlns:xlink="http://www.w3.org/1999/xlink" width="70" height="70" viewBox="0 0 70 70">
  <defs>
    <clipPath id="clip-path">
      <path id="path3972" d="M0-682.665H44.709v44.709H0Z" transform="translate(0 682.665)"/>
    </clipPath>
  </defs>
  <g id="Grupo_1099931" data-name="Grupo 1099931" transform="translate(1482 10465)">
    <g id="Elipse_11567" data-name="Elipse 11567" transform="translate(-1482 -10465)" fill="#f9a545" stroke="#707070" stroke-width="1">
      <circle cx="35" cy="35" r="35" stroke="none"/>
      <circle cx="35" cy="35" r="34.5" fill="none"/>
    </g>
    <g id="g3968" transform="translate(-1469 -9769.335)">
      <g id="g3970" transform="translate(0 -682.665)" clip-path="url(#clip-path)">
        <g id="g3976" transform="translate(2.381 0.655)">
          <path id="path3978" d="M-81.485-27.66c-7.7,4-5.621,11.245-4.931,17.819,7.75,14.018,9.135,15.929,18.06,23.321,4.077.849,8.238-.2,14.392-.713,7.1-.591,8.173-10.341,5.07-14.1s-4.6-3.29-5.579-13.936C-55.625-30.232-73.687-31.712-81.485-27.66" transform="translate(87.196 29.598)" fill="#a1d4ff" fill-rule="evenodd"/>
        </g>
        <g id="g3980" transform="translate(3.342 21.784)">
          <path id="path3982" d="M0-26.42C.134-18.477,6.678-8.328,15.075-7.233,18.089-15.538,10.316-27.194,3.2-28.262A4.172,4.172,0,0,0,0-26.42" transform="translate(0 28.271)" fill="#eff6ff" fill-rule="evenodd"/>
        </g>
        <g id="g3984" transform="translate(7.439 0.655)">
          <path id="path3986" d="M0-32.8c8.57-2.746,23.676-.313,24.726,13.333C25.7-8.818,27.2-9.282,30.3-5.528c2.468,2.987,2.294,9.762-1.447,12.71,6.482-1.137,7.389-10.376,4.387-14.008-3.1-3.754-4.6-3.29-5.579-13.936C26.513-35.729,8.451-37.209.653-33.157c-.226.117-.444.238-.653.36" transform="translate(0 35.095)" fill="#86beec" fill-rule="evenodd"/>
        </g>
        <g id="g3988" transform="translate(3.161 19.785)">
          <path id="path3990" d="M-35.569-39.247C-28.453-38.18-22.033-26.721-22.8-18.96a13.657,13.657,0,0,0,2.8.911c1.924-12.052-9.737-27.234-18.06-23.321a28.6,28.6,0,0,1,.181,2.977v.246a2.1,2.1,0,0,1,2.311-1.1" transform="translate(38.061 41.998)" fill="#fde588" fill-rule="evenodd"/>
        </g>
        <g id="g3992" transform="translate(9.924 15.013)">
          <path id="path3994" d="M-33.3-3.433a.666.666,0,0,1-.087-.006.66.66,0,0,1-.568-.74,20.723,20.723,0,0,1,1.612-5.5.66.66,0,0,1,.868-.345.66.66,0,0,1,.345.868,19.709,19.709,0,0,0-1.516,5.153A.66.66,0,0,1-33.3-3.433Z" transform="translate(33.962 10.081)"/>
        </g>
        <g id="g3996" transform="translate(15.712 18.091)">
          <path id="path3998" d="M-80.387-.985a.661.661,0,0,1-.178-.025.66.66,0,0,1-.458-.813,21.01,21.01,0,0,1,4.583-7.784l.192-.232a.66.66,0,0,1,.929-.089A.66.66,0,0,1-75.231-9l-.192.233a19.923,19.923,0,0,0-4.329,7.3A.66.66,0,0,1-80.387-.985Z" transform="translate(81.048 10.079)"/>
        </g>
        <g id="g4000" transform="translate(16.476 5.585)">
          <path id="path4002" d="M1.2,3.822A.66.66,0,0,1,.55,3.245C-.829-7.573-8.037-8.654-9.468-8.761a.66.66,0,0,1-.609-.707.66.66,0,0,1,.707-.609C-8.383-10,.319-9.009,1.859,3.078a.66.66,0,0,1-.571.738A.667.667,0,0,1,1.2,3.822Z" transform="translate(10.079 10.079)"/>
        </g>
        <g id="g4004" transform="translate(19.136 27.938)">
          <path id="path4006" d="M-130.653-5.208a.659.659,0,0,1-.512-.243.66.66,0,0,1,.1-.929c3.575-2.911,5.453-3.493,8.31-3.7a.66.66,0,0,1,.705.611.66.66,0,0,1-.611.705c-2.526.18-4.1.575-7.57,3.4A.657.657,0,0,1-130.653-5.208Z" transform="translate(131.313 10.079)"/>
        </g>
        <g id="g4008" transform="translate(20.446 36.089)">
          <path id="path4010" d="M-144.609-22.19a.658.658,0,0,1-.234-.043c-2.5-.95-4.894-1.324-9.077-.256a.66.66,0,0,1-.8-.476.66.66,0,0,1,.476-.8c4.5-1.15,7.2-.712,9.872.3a.66.66,0,0,1,.383.851A.66.66,0,0,1-144.609-22.19Z" transform="translate(154.743 24.452)"/>
        </g>
        <g id="g4012" transform="translate(3.342 22.507)">
          <path id="path4014" d="M-2.124-43.309c6.242-.055,11.066,9.5,12.061,16.543a12.285,12.285,0,0,0,2.865.737C13.574-33.79,7.154-45.248.038-46.316a2.1,2.1,0,0,0-2.311,1.1,16.827,16.827,0,0,0,.149,1.907" transform="translate(2.273 46.344)" fill="#d9eeff" fill-rule="evenodd"/>
        </g>
        <g id="g4016" transform="translate(2.501 19.127)">
          <path id="path4018" d="M-267.113-350.456a.666.666,0,0,1-.1-.008.66.66,0,0,1-.548-.756c1.276-7.99-3.488-16.92-8.831-20.938-2.946-2.215-5.892-2.813-8.3-1.682a.66.66,0,0,1-.878-.316.66.66,0,0,1,.316-.878c2.868-1.349,6.3-.7,9.652,1.822,5.655,4.253,10.695,13.72,9.341,22.2A.66.66,0,0,1-267.113-350.456Z" transform="translate(285.834 375.722)"/>
        </g>
        <g id="g4020" transform="translate(1.731 0.007)">
          <path id="path4022" d="M-491.933-231.876a15.326,15.326,0,0,1-6.371-1.246c-8.768-1.211-15.554-11.758-15.554-20.075a42.286,42.286,0,0,0-.469-5.319c-.747-5.783-1.594-12.337,5.574-16.063,4.866-2.529,13.755-3,20.206.586a14.787,14.787,0,0,1,7.769,12.343.66.66,0,0,1-.607.709.66.66,0,0,1-.709-.607,13.52,13.52,0,0,0-7.094-11.291c-6.063-3.371-14.4-2.936-18.956-.568-6.35,3.3-5.633,8.849-4.874,14.723a43.91,43.91,0,0,1,.48,5.488c0,7.65,6.468,17.733,14.5,18.778a.66.66,0,0,1,.184.052c3.709,1.656,7.154,1.243,11.923.671,1.472-.177,3.141-.377,4.949-.527a6.2,6.2,0,0,0,5.34-4.068c1.263-3,.945-6.931-.724-8.951-.536-.648-1.035-1.18-1.475-1.65-1.861-1.985-3.091-3.3-3.906-9.487a.66.66,0,0,1,.568-.741.66.66,0,0,1,.741.568c.76,5.77,1.755,6.831,3.561,8.756.453.484.968,1.032,1.53,1.712,1.987,2.406,2.384,6.836.923,10.3a7.494,7.494,0,0,1-6.447,4.871c-1.784.148-3.369.338-4.9.522A52.767,52.767,0,0,1-491.933-231.876Z" transform="translate(514.81 276.579)"/>
        </g>
        <g id="g4024" transform="translate(2.682 21.847)">
          <path id="path4026" d="M-159.285-85.433q-.033,0-.066,0a.66.66,0,0,1-.591-.722,20.382,20.382,0,0,0-2.621-10.988.66.66,0,0,1,.276-.892.66.66,0,0,1,.892.276,21.715,21.715,0,0,1,2.767,11.735A.66.66,0,0,1-159.285-85.433ZM-169.8-103.921a23.629,23.629,0,0,1-4.7-.71.66.66,0,0,1-.443-.342.66.66,0,0,1-.022-.559,2.742,2.742,0,0,1,3.016-1.5c1.342.2,3.383.9,3.721,1.823a.848.848,0,0,1-.155.863C-168.537-104.174-168.759-103.921-169.8-103.921Zm-3.2-1.743a24.122,24.122,0,0,0,2.529.388,7.667,7.667,0,0,0-1.672-.451A2.006,2.006,0,0,0-173-105.664Z" transform="translate(175.021 107.068)"/>
        </g>
      </g>
    </g>
  </g>
</svg>
