<svg xmlns="http://www.w3.org/2000/svg" xmlns:xlink="http://www.w3.org/1999/xlink" width="50.151" height="53.493" viewBox="0 0 50.151 53.493">
  <defs>
    <clipPath id="clip-path">
      <path id="Trazado_873679" data-name="Trazado 873679" d="M.722,0H49.429c.4,0,.722.9.722,2V51.489c0,1.107-.323,2-.722,2H.722c-.4,0-.722-.9-.722-2V2C0,.9.323,0,.722,0Z" transform="translate(1102.763 70)" fill="#297929" stroke="#707070" stroke-width="1"/>
    </clipPath>
    <radialGradient id="radial-gradient" cx="0.5" cy="0.5" r="0.5" gradientUnits="objectBoundingBox">
      <stop offset="0" stop-color="#fff" stop-opacity="0"/>
      <stop offset="1" stop-color="#f9a545"/>
    </radialGradient>
  </defs>
  <g id="Enmascarar_grupo_1098687" data-name="Enmascarar grupo 1098687" transform="translate(-1102.763 -70)" clip-path="url(#clip-path)">
    <path id="Sustracción_24" data-name="Sustracción 24" d="M36.207,72.414a36.469,36.469,0,0,1-7.3-.736,36.009,36.009,0,0,1-12.947-5.448A36.308,36.308,0,0,1,2.846,50.3a36.027,36.027,0,0,1-2.11-6.8,36.557,36.557,0,0,1,0-14.594A36.017,36.017,0,0,1,6.184,15.964,36.314,36.314,0,0,1,22.114,2.845a36.02,36.02,0,0,1,6.8-2.11A36.557,36.557,0,0,1,43.5.736,36.011,36.011,0,0,1,56.451,6.184a36.313,36.313,0,0,1,13.118,15.93,36.025,36.025,0,0,1,2.11,6.8,36.557,36.557,0,0,1,0,14.594,36.007,36.007,0,0,1-5.448,12.947A36.312,36.312,0,0,1,50.3,69.569a36.019,36.019,0,0,1-6.8,2.11A36.469,36.469,0,0,1,36.207,72.414Zm0-57.959a21.9,21.9,0,0,0-4.384.442,21.634,21.634,0,0,0-7.778,3.273,21.817,21.817,0,0,0-7.881,9.57A21.643,21.643,0,0,0,14.9,31.823a21.962,21.962,0,0,0,0,8.768,21.636,21.636,0,0,0,3.273,7.778A21.815,21.815,0,0,0,27.74,56.25a21.634,21.634,0,0,0,4.083,1.268,21.967,21.967,0,0,0,8.768,0,21.633,21.633,0,0,0,7.778-3.273,21.815,21.815,0,0,0,7.881-9.57,21.636,21.636,0,0,0,1.268-4.083,21.962,21.962,0,0,0,0-8.768,21.632,21.632,0,0,0-3.273-7.778,21.814,21.814,0,0,0-9.57-7.881A21.65,21.65,0,0,0,40.591,14.9,21.9,21.9,0,0,0,36.207,14.455Z" transform="translate(1106.909 48.666)" fill="url(#radial-gradient)"/>
  </g>
</svg>
