<svg id="Grupo_1099650" data-name="Grupo 1099650" xmlns="http://www.w3.org/2000/svg" xmlns:xlink="http://www.w3.org/1999/xlink" width="345" height="297" viewBox="0 0 345 297">
  <defs>
    <clipPath id="clip-path">
      <rect id="Rectángulo_401571" data-name="Rectángulo 401571" width="345" height="297" fill="none"/>
    </clipPath>
    <clipPath id="clip-path-3">
      <rect id="Rectángulo_401548" data-name="Rectángulo 401548" width="228.454" height="134.376" fill="none"/>
    </clipPath>
    <clipPath id="clip-path-4">
      <rect id="Rectángulo_401550" data-name="Rectángulo 401550" width="167.042" height="155.029" fill="none"/>
    </clipPath>
    <clipPath id="clip-path-5">
      <rect id="Rectángulo_401553" data-name="Rectángulo 401553" width="135.633" height="123.571" fill="none"/>
    </clipPath>
    <clipPath id="clip-path-6">
      <rect id="Rectángulo_401554" data-name="Rectángulo 401554" width="10.128" height="120.273" fill="none"/>
    </clipPath>
    <clipPath id="clip-path-7">
      <rect id="Rectángulo_401555" data-name="Rectángulo 401555" width="15.363" height="15.729" fill="none"/>
    </clipPath>
    <clipPath id="clip-path-8">
      <path id="Trazado_873811" data-name="Trazado 873811" d="M348.278,270.387c-6.413,2.252,14.559,32.2,14.559,32.2s-23.891-30.483-28.295-27.568c-5.689,3.766,19.159,34.785,19.159,34.785s-22.8-25.294-27.771-21.224c-4.264,3.489,18.414,29.182,18.414,29.182S324.6,299.931,320.48,303.09c-5.99,4.589,81.864,100.55,112.751,132.928A34.321,34.321,0,0,0,467.7,395.539l-1.5-8.283s-65.5-55.849-70.57-65.841-6.634-40.314-13.635-42.948-5.3,24.5-5.3,24.5-20.656-32.688-27.765-32.689a1.929,1.929,0,0,0-.645.1" transform="translate(-320.188 -270.283)" fill="none"/>
    </clipPath>
    <clipPath id="clip-path-9">
      <rect id="Rectángulo_401557" data-name="Rectángulo 401557" width="124.296" height="135.157" fill="none"/>
    </clipPath>
    <clipPath id="clip-path-10">
      <rect id="Rectángulo_401558" data-name="Rectángulo 401558" width="19.749" height="32.252" fill="none"/>
    </clipPath>
    <clipPath id="clip-path-11">
      <rect id="Rectángulo_401559" data-name="Rectángulo 401559" width="20.086" height="34.784" fill="none"/>
    </clipPath>
    <clipPath id="clip-path-12">
      <rect id="Rectángulo_401560" data-name="Rectángulo 401560" width="16.869" height="32.203" fill="none"/>
    </clipPath>
    <clipPath id="clip-path-13">
      <rect id="Rectángulo_401561" data-name="Rectángulo 401561" width="4.909" height="31.568" fill="none"/>
    </clipPath>
    <clipPath id="clip-path-15">
      <path id="Trazado_873860" data-name="Trazado 873860" d="M88.675,398.66l.3,1.341a42.154,42.154,0,0,0,48.8,32.342s48.163-89.515,56.648-96.826,33.989-16.7,34.88-24.14-24.1,1.436-24.1,1.436,27.627-30.458,23.929-36.15-27.773,21.815-27.773,21.815,23.888-30.485,20.014-34.078c-5-4.64-29.184,26.9-29.184,26.9s19.116-28.188,13.987-32.061c-4.4-3.32-23.927,24.848-23.927,24.848s12.607-23.444,8.564-26.705a.72.72,0,0,0-.465-.151c-8.463-.006-78.118,104.487-101.669,141.426" transform="translate(-88.675 -257.234)" fill="none"/>
    </clipPath>
    <clipPath id="clip-path-16">
      <rect id="Rectángulo_401563" data-name="Rectángulo 401563" width="20.295" height="33.037" fill="none"/>
    </clipPath>
    <clipPath id="clip-path-17">
      <rect id="Rectángulo_401564" data-name="Rectángulo 401564" width="21.237" height="33.501" fill="none"/>
    </clipPath>
    <clipPath id="clip-path-18">
      <rect id="Rectángulo_401565" data-name="Rectángulo 401565" width="15.242" height="29.649" fill="none"/>
    </clipPath>
    <clipPath id="clip-path-19">
      <rect id="Rectángulo_401566" data-name="Rectángulo 401566" width="104.901" height="122.498" fill="none"/>
    </clipPath>
    <clipPath id="clip-path-20">
      <rect id="Rectángulo_401567" data-name="Rectángulo 401567" width="9.173" height="25.174" fill="none"/>
    </clipPath>
    <clipPath id="clip-path-22">
      <path id="Trazado_873912" data-name="Trazado 873912" d="M87.145,106.639s.029,21.8,9.267,34.475,12.846,30.932,12.846,30.932,16.652-24.958,11.7-45.852S96.92,91.27,96.92,91.27Z" transform="translate(-87.145 -91.27)" fill="none"/>
    </clipPath>
    <clipPath id="clip-path-23">
      <rect id="Rectángulo_401569" data-name="Rectángulo 401569" width="37.281" height="53.84" fill="none"/>
    </clipPath>
  </defs>
  <g id="Grupo_1099712" data-name="Grupo 1099712" clip-path="url(#clip-path)">
    <g id="Grupo_1099666" data-name="Grupo 1099666">
      <g id="Grupo_1099665" data-name="Grupo 1099665" clip-path="url(#clip-path)">
        <path id="Trazado_873768" data-name="Trazado 873768" d="M63.163,281.855C25.515,286.161-6.243,253.4,1.051,216.989q.278-1.39.6-2.808c13.8-60.688,75.022-48.268,62.9-131.544S164.7-31.842,207.242,40.277c47.751,80.948,110.163,59.75,130.781,106.7,24.816,56.514-19.543,128.175-85.911,123.528-49.329-3.454-143.728,6.176-188.948,11.348" transform="translate(0 0)" fill="#c1ddc7" fill-rule="evenodd"/>
        <path id="Trazado_873769" data-name="Trazado 873769" d="M264.323,291.163H203.561a83.98,83.98,0,0,1,0-167.959h60.762a83.98,83.98,0,0,1,0,167.959" transform="translate(-65.016 -66.821)" fill="#238aa4"/>
        <g id="Grupo_1099652" data-name="Grupo 1099652" transform="translate(54.699 66.016)" opacity="0.5">
          <g id="Grupo_1099651" data-name="Grupo 1099651">
            <g id="Grupo_1099650-2" data-name="Grupo 1099650" clip-path="url(#clip-path-3)">
              <line id="Línea_597" data-name="Línea 597" x2="228.454" transform="translate(0 0.229)" fill="none" stroke="#fff" stroke-miterlimit="10" stroke-width="1"/>
              <line id="Línea_598" data-name="Línea 598" x2="228.454" transform="translate(0 33.708)" fill="none" stroke="#fff" stroke-miterlimit="10" stroke-width="1"/>
              <line id="Línea_599" data-name="Línea 599" x2="228.454" transform="translate(0 67.188)" fill="none" stroke="#fff" stroke-miterlimit="10" stroke-width="1"/>
              <line id="Línea_600" data-name="Línea 600" x2="228.454" transform="translate(0 100.668)" fill="none" stroke="#fff" stroke-miterlimit="10" stroke-width="1"/>
              <line id="Línea_601" data-name="Línea 601" x2="228.454" transform="translate(0 134.148)" fill="none" stroke="#fff" stroke-miterlimit="10" stroke-width="1"/>
            </g>
          </g>
        </g>
        <g id="Grupo_1099655" data-name="Grupo 1099655" transform="translate(89.974 69.313)" opacity="0.1">
          <g id="Grupo_1099654" data-name="Grupo 1099654">
            <g id="Grupo_1099653" data-name="Grupo 1099653" clip-path="url(#clip-path-4)">
              <path id="Rectángulo_401549" data-name="Rectángulo 401549" d="M55.061,0h56.921a55.06,55.06,0,0,1,55.06,55.06V99.969a55.06,55.06,0,0,1-55.06,55.06H55.061A55.061,55.061,0,0,1,0,99.968V55.061A55.061,55.061,0,0,1,55.061,0Z" transform="translate(0 0)"/>
            </g>
          </g>
        </g>
        <path id="Rectángulo_401551" data-name="Rectángulo 401551" d="M55.061,0h56.921a55.06,55.06,0,0,1,55.06,55.06V99.968a55.061,55.061,0,0,1-55.061,55.061H55.061A55.061,55.061,0,0,1,0,99.968V55.061A55.061,55.061,0,0,1,55.061,0Z" transform="translate(85.405 64.736)" fill="#f1f0ff"/>
        <path id="Rectángulo_401552" data-name="Rectángulo 401552" d="M37.875,0h75.587a37.875,37.875,0,0,1,37.875,37.875v63.549A37.876,37.876,0,0,1,113.461,139.3H37.875A37.875,37.875,0,0,1,0,101.425V37.875A37.875,37.875,0,0,1,37.875,0Z" transform="translate(93.257 72.601)" fill="#e1e1f9"/>
        <g id="Grupo_1099658" data-name="Grupo 1099658" transform="translate(101.109 80.465)" opacity="0.7">
          <g id="Grupo_1099657" data-name="Grupo 1099657">
            <g id="Grupo_1099656" data-name="Grupo 1099656" clip-path="url(#clip-path-5)">
              <path id="Trazado_873770" data-name="Trazado 873770" d="M347.469,299.4H230.743a9.461,9.461,0,0,1-9.454-9.469V185.3a9.461,9.461,0,0,1,9.454-9.469H347.469a9.461,9.461,0,0,1,9.453,9.469V289.93a9.461,9.461,0,0,1-9.453,9.469" transform="translate(-221.289 -175.827)" fill="#4834d4"/>
            </g>
          </g>
        </g>
        <g id="Grupo_1099661" data-name="Grupo 1099661" transform="translate(93.257 78.211)" opacity="0.1">
          <g id="Grupo_1099660" data-name="Grupo 1099660">
            <g id="Grupo_1099659" data-name="Grupo 1099659" clip-path="url(#clip-path-6)">
              <path id="Trazado_873771" data-name="Trazado 873771" d="M214.233,176.466l-5.556-5.564s-4.572,3.866-4.572,8.828V291.174l7.9-7.908V182.625s.431-4.53,2.232-6.158" transform="translate(-204.105 -170.902)"/>
            </g>
          </g>
        </g>
        <path id="Trazado_873772" data-name="Trazado 873772" d="M487.207,166.108a3.34,3.34,0,0,0,.823.891,6.218,6.218,0,0,0,6.439,10.434,2.524,2.524,0,0,0,4.9-.157,5.119,5.119,0,1,0-1.143-6.837,6.22,6.22,0,0,0-4.721-4.849c-.114-.026-.228-.04-.342-.059a3.355,3.355,0,1,0-5.96.577" transform="translate(-263.9 -87.295)" fill="#fff"/>
        <path id="Trazado_873773" data-name="Trazado 873773" d="M465.123,171.889a2.655,2.655,0,0,0,.034-.368,3.671,3.671,0,0,0,3.043.185c0,.024-.012.047-.016.071a3.264,3.264,0,1,0,2.274-2.568c.029-.11.056-.222.075-.336a3.7,3.7,0,1,0-7.283.038A2.622,2.622,0,0,0,459.942,171a2.628,2.628,0,1,0,5.18.891" transform="translate(-249.771 -89.24)" fill="#fff"/>
        <path id="Trazado_873774" data-name="Trazado 873774" d="M501.006,202.6a2.613,2.613,0,0,0,.223-.295,3.676,3.676,0,0,0,2.488,1.763c-.016.018-.035.033-.051.052a3.258,3.258,0,1,0,4.6-.279,3.227,3.227,0,0,0-1.313-.7c.083-.078.164-.159.241-.246a3.7,3.7,0,1,0-6.21-3.81,2.675,2.675,0,0,0-.2-.2,2.631,2.631,0,1,0,.225,3.716" transform="translate(-269.597 -106.7)" fill="#fff"/>
        <path id="Trazado_873775" data-name="Trazado 873775" d="M217.337,177.492a2.447,2.447,0,0,0,.691-.556,4.546,4.546,0,0,0,7.931-4.176,1.851,1.851,0,0,0,.136-3.592,3.733,3.733,0,1,0-5.04.488,4.548,4.548,0,0,0-3.774,3.2c-.025.082-.041.165-.061.247a2.456,2.456,0,1,0,.117,4.386" transform="translate(-116.069 -88.372)" fill="#fff"/>
        <path id="Trazado_873776" data-name="Trazado 873776" d="M237.6,182.578a1.528,1.528,0,0,0,.17.526,2.835,2.835,0,0,0,.664,5.55,1.167,1.167,0,0,0-.006.335,1.15,1.15,0,0,0,2.063.542,2.331,2.331,0,1,0,.837-3.046,2.838,2.838,0,0,0-1.023-2.911c-.042-.033-.087-.061-.13-.091a1.529,1.529,0,1,0-2.574-.906" transform="translate(-128.029 -98.086)" fill="#fff"/>
        <path id="Trazado_873777" data-name="Trazado 873777" d="M221.131,201.823a1.864,1.864,0,0,0-.266-.043,2.7,2.7,0,0,0,.29-2.215c.017,0,.034.011.051.015a2.393,2.393,0,1,0-1.756-1.793c-.079-.027-.159-.052-.241-.072a2.711,2.711,0,1,0-.343,5.326,1.817,1.817,0,0,0-.059.195,1.923,1.923,0,1,0,2.324-1.413" transform="translate(-117.231 -105.694)" fill="#fff"/>
        <path id="Trazado_873778" data-name="Trazado 873778" d="M245.439,176.061a1.944,1.944,0,0,0-.2-.178,2.689,2.689,0,0,0,1.411-1.729c.012.013.023.027.036.04a2.394,2.394,0,1,0-.55-2.45c-.053-.065-.107-.128-.167-.189a2.709,2.709,0,1,0-3.093,4.346,1.924,1.924,0,1,0,2.566.16" transform="translate(-131.063 -92.276)" fill="#fff"/>
        <path id="Trazado_873779" data-name="Trazado 873779" d="M221.678,414.605a2.44,2.44,0,0,0-.6-.649,4.532,4.532,0,0,0-4.694-7.606,1.84,1.84,0,0,0-3.575.114,3.731,3.731,0,1,0,.833,4.984,4.534,4.534,0,0,0,3.441,3.535c.084.019.166.029.249.043a2.446,2.446,0,1,0,4.345-.421" transform="translate(-112.319 -219.657)" fill="#fff"/>
        <path id="Trazado_873780" data-name="Trazado 873780" d="M244.634,416.3a1.922,1.922,0,0,0-.025.268,2.674,2.674,0,0,0-2.218-.135c0-.018.008-.034.011-.052a2.374,2.374,0,1,0-2.741,1.94,2.351,2.351,0,0,0,1.083-.068c-.021.081-.04.162-.055.245a2.7,2.7,0,1,0,5.309-.027,2.018,2.018,0,0,0,.2.045,1.919,1.919,0,1,0-1.564-2.216" transform="translate(-129.088 -224.32)" fill="#fff"/>
        <path id="Trazado_873781" data-name="Trazado 873781" d="M219.866,394.549a1.944,1.944,0,0,0-.162.215,2.681,2.681,0,0,0-1.814-1.285c.012-.013.025-.024.037-.038a2.377,2.377,0,1,0-2.393.717c-.061.057-.12.116-.176.179a2.7,2.7,0,1,0,4.527,2.778,1.857,1.857,0,0,0,.145.143,1.917,1.917,0,1,0-.164-2.709" transform="translate(-116.101 -211.244)" fill="#fff"/>
        <path id="Trazado_873782" data-name="Trazado 873782" d="M506.82,404.906a3.335,3.335,0,0,0-.942.759,6.2,6.2,0,0,0-10.815,5.694,2.524,2.524,0,0,0-.185,4.9,5.091,5.091,0,1,0,6.872-.664,6.2,6.2,0,0,0,5.146-4.369c.033-.112.056-.225.083-.337a3.349,3.349,0,1,0-.159-5.981" transform="translate(-267.771 -218.693)" fill="#fff"/>
        <path id="Trazado_873783" data-name="Trazado 873783" d="M486.611,407.417a2.075,2.075,0,0,0-.232-.718,3.866,3.866,0,0,0-.906-7.568,1.572,1.572,0,0,0-1.75-1.814,1.562,1.562,0,0,0-1.055.618,3.177,3.177,0,1,0-1.14,4.153,3.871,3.871,0,0,0,1.4,3.97c.058.044.118.082.177.123a2.086,2.086,0,1,0,3.51,1.236" transform="translate(-258.884 -214.894)" fill="#fff"/>
        <path id="Trazado_873784" data-name="Trazado 873784" d="M510.433,379.878a2.662,2.662,0,0,0,.363.06,3.677,3.677,0,0,0-.4,3.019c-.023-.006-.046-.015-.069-.021a3.263,3.263,0,1,0,2.394,2.445c.107.037.217.07.329.1a3.7,3.7,0,1,0,.468-7.262,2.686,2.686,0,0,0,.08-.266,2.622,2.622,0,1,0-3.17,1.927" transform="translate(-274.974 -203.224)" fill="#fff"/>
        <path id="Trazado_873785" data-name="Trazado 873785" d="M475.436,417.5a2.658,2.658,0,0,0,.277.242,3.671,3.671,0,0,0-1.924,2.358c-.017-.018-.032-.037-.049-.054a3.265,3.265,0,1,0,.749,3.341c.072.088.147.174.228.257a3.694,3.694,0,1,0,4.218-5.926,2.7,2.7,0,0,0,.208-.184,2.624,2.624,0,1,0-3.708-.034" transform="translate(-254.263 -224.016)" fill="#fff"/>
        <path id="Trazado_873786" data-name="Trazado 873786" d="M261.082,186.469a.64.64,0,1,1-.641-.642.641.641,0,0,1,.641.642" transform="translate(-141.096 -100.786)" fill="#fff"/>
        <path id="Trazado_873787" data-name="Trazado 873787" d="M494.4,218.852a1.743,1.743,0,1,1-1.744-1.746,1.745,1.745,0,0,1,1.744,1.746" transform="translate(-266.613 -117.75)" fill="#fff"/>
        <path id="Trazado_873788" data-name="Trazado 873788" d="M481.342,197.722a.988.988,0,1,1-.988-.99.989.989,0,0,1,.988.99" transform="translate(-260.34 -106.7)" fill="#fff"/>
        <path id="Trazado_873789" data-name="Trazado 873789" d="M500.242,373.472a1.562,1.562,0,1,1-1.562-1.565,1.564,1.564,0,0,1,1.562,1.565" transform="translate(-269.981 -201.709)" fill="#fff"/>
        <path id="Trazado_873790" data-name="Trazado 873790" d="M491.461,389.825a.571.571,0,1,1-.571-.572.571.571,0,0,1,.571.572" transform="translate(-266.289 -211.116)" fill="#fff"/>
        <path id="Trazado_873791" data-name="Trazado 873791" d="M224.512,383.069a1.277,1.277,0,1,1-1.277-1.279,1.278,1.278,0,0,1,1.277,1.279" transform="translate(-120.544 -207.069)" fill="#fff"/>
        <path id="Trazado_873792" data-name="Trazado 873792" d="M216.22,363.552A1.222,1.222,0,1,1,215,362.328a1.222,1.222,0,0,1,1.221,1.224" transform="translate(-116.101 -196.513)" fill="#fff"/>
        <path id="Trazado_873793" data-name="Trazado 873793" d="M239.321,215.7a.671.671,0,1,1-.671-.672.672.672,0,0,1,.671.672" transform="translate(-129.244 -116.621)" fill="#fff"/>
        <path id="Trazado_873794" data-name="Trazado 873794" d="M363.3,148.353h-9.184a4.674,4.674,0,0,1-4.671-4.678V111.616h18.525v32.059a4.674,4.674,0,0,1-4.671,4.678" transform="translate(-189.78 -60.536)" fill="#dff9fb"/>
        <path id="Trazado_873795" data-name="Trazado 873795" d="M367.142,97.118A13.637,13.637,0,1,1,353.506,83.46a13.647,13.647,0,0,1,13.636,13.658" transform="translate(-184.58 -45.266)" fill="#7ed6df"/>
        <path id="Trazado_873796" data-name="Trazado 873796" d="M368.2,103.761a8.04,8.04,0,1,1-8.04-8.053,8.047,8.047,0,0,1,8.04,8.053" transform="translate(-191.233 -51.908)" fill="#4834d4"/>
        <path id="Trazado_873797" data-name="Trazado 873797" d="M367.982,130.929h0a1.459,1.459,0,0,1-1.458-1.46v-10.1a1.458,1.458,0,1,1,2.916,0v10.1a1.459,1.459,0,0,1-1.458,1.46" transform="translate(-199.057 -63.95)" fill="#f1f0ff"/>
        <path id="Trazado_873798" data-name="Trazado 873798" d="M367.982,80.252h0a1.459,1.459,0,0,1,1.458,1.46v10.1a1.458,1.458,0,1,1-2.916,0v-10.1a1.459,1.459,0,0,1,1.458-1.46" transform="translate(-199.057 -43.526)" fill="#f1f0ff"/>
        <path id="Trazado_873799" data-name="Trazado 873799" d="M336.662,111.574h0a1.459,1.459,0,0,1,1.458-1.46H348.2a1.46,1.46,0,0,1,0,2.921H338.12a1.459,1.459,0,0,1-1.458-1.46" transform="translate(-182.839 -59.722)" fill="#f1f0ff"/>
        <path id="Trazado_873800" data-name="Trazado 873800" d="M387.318,111.574h0a1.459,1.459,0,0,1-1.458,1.46H375.778a1.46,1.46,0,0,1,0-2.921H385.86a1.459,1.459,0,0,1,1.458,1.46" transform="translate(-203.291 -59.722)" fill="#f1f0ff"/>
        <g id="Grupo_1099664" data-name="Grupo 1099664" transform="translate(178.188 64.736)" opacity="0.1">
          <g id="Grupo_1099663" data-name="Grupo 1099663">
            <g id="Grupo_1099662" data-name="Grupo 1099662" clip-path="url(#clip-path-7)">
              <path id="Trazado_873801" data-name="Trazado 873801" d="M390.154,157.187h15.2l-3.382-7.864h-8.6v-7.865h-3.382Z" transform="translate(-389.987 -141.457)"/>
            </g>
          </g>
        </g>
        <path id="Trazado_873802" data-name="Trazado 873802" d="M467.2,259.5a2.458,2.458,0,0,0-.89.081,4.577,4.577,0,0,0-8.979-.92,1.864,1.864,0,0,0-2.112,2.94,3.767,3.767,0,1,0,4.5,2.4,4.574,4.574,0,0,0,4.949-.584c.066-.055.126-.116.188-.173A2.473,2.473,0,1,0,467.2,259.5" transform="translate(-245.703 -138.468)" fill="#fff"/>
        <path id="Trazado_873803" data-name="Trazado 873803" d="M468.07,330.425a2.588,2.588,0,0,0,.36-.028,3.61,3.61,0,0,0,.325,2.97c-.024,0-.047,0-.071,0a3.2,3.2,0,1,0,2.851,1.771c.111.01.223.017.336.017a3.627,3.627,0,1,0-1.243-7.03,2.679,2.679,0,0,0,.015-.273,2.572,2.572,0,1,0-2.572,2.577" transform="translate(-252.809 -176.415)" fill="#fff"/>
        <path id="Trazado_873804" data-name="Trazado 873804" d="M251.473,303.028a2.529,2.529,0,0,0,.36-.028,3.611,3.611,0,0,0,.325,2.97c-.024,0-.047,0-.071,0a3.2,3.2,0,1,0,2.851,1.771c.111.01.222.017.336.017a3.627,3.627,0,1,0-1.243-7.03,2.683,2.683,0,0,0,.015-.273,2.572,2.572,0,1,0-2.572,2.577" transform="translate(-135.176 -161.556)" fill="#fff"/>
        <path id="Trazado_873805" data-name="Trazado 873805" d="M466.191,387.256s-65.5-55.849-70.571-65.841-6.633-40.314-13.635-42.948-5.3,24.5-5.3,24.5-22.01-34.831-28.409-32.584,14.559,32.2,14.559,32.2-23.891-30.483-28.295-27.568c-5.689,3.766,19.159,34.785,19.159,34.785s-22.8-25.294-27.771-21.224c-4.264,3.489,18.414,29.182,18.414,29.182S324.6,299.931,320.48,303.09c-5.99,4.589,81.864,100.55,112.751,132.927h0A34.321,34.321,0,0,0,467.7,395.539Z" transform="translate(-173.892 -146.592)" fill="#ffc2bd"/>
      </g>
    </g>
    <g id="Grupo_1099683" data-name="Grupo 1099683" transform="translate(146.296 123.691)">
      <g id="Grupo_1099682" data-name="Grupo 1099682" clip-path="url(#clip-path-8)">
        <g id="Grupo_1099669" data-name="Grupo 1099669" transform="translate(-0.73 32.806)" opacity="0.1">
          <g id="Grupo_1099668" data-name="Grupo 1099668">
            <g id="Grupo_1099667" data-name="Grupo 1099667" clip-path="url(#clip-path-9)">
              <path id="Trazado_873806" data-name="Trazado 873806" d="M442.885,474.282s-51.094-49.469-74.858-71.825-48.416-60.488-48.416-60.488-7.339-.493,17.309,29.12,96.3,106.036,96.3,106.036Z" transform="translate(-318.59 -341.969)"/>
            </g>
          </g>
        </g>
        <g id="Grupo_1099672" data-name="Grupo 1099672" transform="translate(4.407 15.23)" opacity="0.1">
          <g id="Grupo_1099671" data-name="Grupo 1099671">
            <g id="Grupo_1099670" data-name="Grupo 1099670" clip-path="url(#clip-path-10)">
              <path id="Trazado_873807" data-name="Trazado 873807" d="M330.8,303.563s6.658,21,18.786,32.252c0,0-24.888-23.32-18.786-32.252" transform="translate(-329.834 -303.563)"/>
            </g>
          </g>
        </g>
        <g id="Grupo_1099675" data-name="Grupo 1099675" transform="translate(13.427 4.74)" opacity="0.1">
          <g id="Grupo_1099674" data-name="Grupo 1099674">
            <g id="Grupo_1099673" data-name="Grupo 1099673" clip-path="url(#clip-path-11)">
              <path id="Trazado_873808" data-name="Trazado 873808" d="M369.661,315.424S349.367,287.742,350.5,280.64c0,0-7.314,5.611,19.159,34.784" transform="translate(-349.576 -280.64)"/>
            </g>
          </g>
        </g>
        <g id="Grupo_1099678" data-name="Grupo 1099678" transform="translate(25.78 0.104)" opacity="0.1">
          <g id="Grupo_1099677" data-name="Grupo 1099677">
            <g id="Grupo_1099676" data-name="Grupo 1099676" clip-path="url(#clip-path-12)">
              <path id="Trazado_873809" data-name="Trazado 873809" d="M393.48,302.714s-14.92-29.493-14.559-32.2c0,0-10.873.741,14.559,32.2" transform="translate(-376.611 -270.511)"/>
            </g>
          </g>
        </g>
        <g id="Grupo_1099681" data-name="Grupo 1099681" transform="translate(51.591 27.001)" opacity="0.1">
          <g id="Grupo_1099680" data-name="Grupo 1099680">
            <g id="Grupo_1099679" data-name="Grupo 1099679" clip-path="url(#clip-path-13)">
              <path id="Trazado_873810" data-name="Trazado 873810" d="M435.557,329.284l-.734,13.048s-4.2,11.218.519,18.52a30.227,30.227,0,0,1,2.668-18.93l-.143-10.573Z" transform="translate(-433.102 -329.284)"/>
            </g>
          </g>
        </g>
      </g>
    </g>
    <g id="Grupo_1099685" data-name="Grupo 1099685">
      <g id="Grupo_1099684" data-name="Grupo 1099684" clip-path="url(#clip-path)">
        <path id="Trazado_873812" data-name="Trazado 873812" d="M453.581,316.378a20.076,20.076,0,0,1-3.129,0" transform="translate(-244.637 -171.592)" fill="none" stroke="#eb4d4b" stroke-linecap="round" stroke-linejoin="round" stroke-width="0.75"/>
        <path id="Trazado_873813" data-name="Trazado 873813" d="M453.391,319.9s-2.444.458-5.146.715" transform="translate(-243.439 -173.5)" fill="none" stroke="#eb4d4b" stroke-linecap="round" stroke-linejoin="round" stroke-width="0.75"/>
        <path id="Trazado_873814" data-name="Trazado 873814" d="M394.949,289.562a29.952,29.952,0,0,1-3.83,2.381" transform="translate(-212.414 -157.048)" fill="none" stroke="#eb4d4b" stroke-linecap="round" stroke-linejoin="round" stroke-width="0.75"/>
        <path id="Trazado_873815" data-name="Trazado 873815" d="M410.633,311.872a11.608,11.608,0,0,1-4.374,2.448" transform="translate(-220.636 -169.148)" fill="none" stroke="#eb4d4b" stroke-linecap="round" stroke-linejoin="round" stroke-width="0.75"/>
        <path id="Trazado_873816" data-name="Trazado 873816" d="M412.774,314.547a5.116,5.116,0,0,1-2.573,1.733" transform="translate(-222.777 -170.599)" fill="none" stroke="#eb4d4b" stroke-linecap="round" stroke-linejoin="round" stroke-width="0.75"/>
        <path id="Trazado_873817" data-name="Trazado 873817" d="M397.111,292.163s-1.415,1.327-2.959,2.5" transform="translate(-214.061 -158.458)" fill="none" stroke="#eb4d4b" stroke-linecap="round" stroke-linejoin="round" stroke-width="0.75"/>
        <path id="Trazado_873818" data-name="Trazado 873818" d="M367.676,300.469a6.01,6.01,0,0,1-3.088,2.388" transform="translate(-198.005 -162.963)" fill="none" stroke="#eb4d4b" stroke-linecap="round" stroke-linejoin="round" stroke-width="0.75"/>
        <path id="Trazado_873819" data-name="Trazado 873819" d="M369.628,303.079s-.377.96-2.393,2.027" transform="translate(-199.443 -164.379)" fill="none" stroke="#eb4d4b" stroke-linecap="round" stroke-linejoin="round" stroke-width="0.75"/>
        <path id="Trazado_873820" data-name="Trazado 873820" d="M390.023,326a11.028,11.028,0,0,1-3.473,2.36" transform="translate(-209.933 -176.812)" fill="none" stroke="#eb4d4b" stroke-linecap="round" stroke-linejoin="round" stroke-width="0.75"/>
        <path id="Trazado_873821" data-name="Trazado 873821" d="M391.792,328.581a17.545,17.545,0,0,1-3.428,2.468" transform="translate(-210.918 -178.21)" fill="none" stroke="#eb4d4b" stroke-linecap="round" stroke-linejoin="round" stroke-width="0.75"/>
        <path id="Trazado_873822" data-name="Trazado 873822" d="M347.454,329.066a8.589,8.589,0,0,0,2.187-2.36" transform="translate(-188.7 -177.193)" fill="none" stroke="#eb4d4b" stroke-linecap="round" stroke-linejoin="round" stroke-width="0.75"/>
        <path id="Trazado_873823" data-name="Trazado 873823" d="M366.995,342.123s-.991,2.76-2.406,3.487" transform="translate(-198.006 -185.555)" fill="none" stroke="#eb4d4b" stroke-linecap="round" stroke-linejoin="round" stroke-width="0.75"/>
        <path id="Trazado_873824" data-name="Trazado 873824" d="M369.106,347.489a5.161,5.161,0,0,1-1.885,2.062" transform="translate(-199.435 -188.465)" fill="none" stroke="#eb4d4b" stroke-linecap="round" stroke-linejoin="round" stroke-width="0.75"/>
        <path id="Trazado_873825" data-name="Trazado 873825" d="M351.952,328.521a26.485,26.485,0,0,1-2.1,2.414" transform="translate(-190 -178.178)" fill="none" stroke="#eb4d4b" stroke-linecap="round" stroke-linejoin="round" stroke-width="0.75"/>
        <path id="Trazado_873826" data-name="Trazado 873826" d="M339.367,355.185a6.009,6.009,0,0,1-3.087,2.388" transform="translate(-182.631 -192.639)" fill="none" stroke="#eb4d4b" stroke-linecap="round" stroke-linejoin="round" stroke-width="0.75"/>
        <path id="Trazado_873827" data-name="Trazado 873827" d="M341.859,357.8s-.377.96-2.393,2.027" transform="translate(-184.362 -194.055)" fill="none" stroke="#eb4d4b" stroke-linecap="round" stroke-linejoin="round" stroke-width="0.75"/>
        <path id="Trazado_873828" data-name="Trazado 873828" d="M355.6,372.978a11.029,11.029,0,0,1-3.473,2.36" transform="translate(-191.24 -202.29)" fill="none" stroke="#eb4d4b" stroke-linecap="round" stroke-linejoin="round" stroke-width="0.75"/>
        <path id="Trazado_873829" data-name="Trazado 873829" d="M357.881,375.437a17.548,17.548,0,0,1-3.428,2.469" transform="translate(-192.501 -203.623)" fill="none" stroke="#eb4d4b" stroke-linecap="round" stroke-linejoin="round" stroke-width="0.75"/>
        <path id="Trazado_873830" data-name="Trazado 873830" d="M440.056,341.711v6.951s-4.727,7.591-2.669,18.93" transform="translate(-237.26 -185.331)" fill="none" stroke="#eb4d4b" stroke-linecap="round" stroke-linejoin="round" stroke-width="0.75"/>
        <path id="Trazado_873831" data-name="Trazado 873831" d="M377.475,361.9s12.295-14.039,21.31-15.971" transform="translate(-205.004 -187.621)" fill="none" stroke="#eb4d4b" stroke-linecap="round" stroke-linejoin="round" stroke-width="0.75"/>
        <path id="Trazado_873832" data-name="Trazado 873832" d="M401.482,365.945s3.288-5.4,8.186-5.935" transform="translate(-218.042 -195.256)" fill="none" stroke="#eb4d4b" stroke-linecap="round" stroke-linejoin="round" stroke-width="0.75"/>
        <path id="Trazado_873833" data-name="Trazado 873833" d="M421.676,339.857a4.272,4.272,0,0,0-1.527.285,7.956,7.956,0,0,0-15.691-.147,3.24,3.24,0,0,0-3.184,5.428,6.546,6.546,0,1,0,8.178,3.435,7.953,7.953,0,0,0,8.473-1.807c.106-.106.2-.22.3-.33a4.3,4.3,0,1,0,3.452-6.863" transform="translate(-215.591 -180.841)" fill="#fff"/>
        <path id="Trazado_873834" data-name="Trazado 873834" d="M463.42,364.941a2.323,2.323,0,0,0-.685-.5,4.345,4.345,0,0,0-5.815-6.292,1.765,1.765,0,0,0-3.343.767,3.578,3.578,0,1,0,1.7,4.537,4.344,4.344,0,0,0,3.888,2.692c.082,0,.162,0,.243-.005a2.345,2.345,0,1,0,4.012-1.2" transform="translate(-243.528 -193.717)" fill="#fff"/>
        <path id="Trazado_873835" data-name="Trazado 873835" d="M369.046,215.343a3.751,3.751,0,0,0,.837,1.07,6.963,6.963,0,0,0,6.223,12.239,2.826,2.826,0,0,0,5.486.28,5.731,5.731,0,1,0-.645-7.735,6.967,6.967,0,0,0-4.82-5.848c-.125-.039-.251-.066-.376-.1a3.757,3.757,0,1,0-6.7.092" transform="translate(-199.355 -113.81)" fill="#fff"/>
        <path id="Trazado_873836" data-name="Trazado 873836" d="M304,232.3a3.752,3.752,0,0,0,.837,1.07,6.963,6.963,0,0,0,6.223,12.239,2.826,2.826,0,0,0,5.486.28,5.731,5.731,0,1,0-.645-7.735,6.967,6.967,0,0,0-4.82-5.848c-.125-.039-.251-.066-.377-.1a3.757,3.757,0,1,0-6.7.092" transform="translate(-164.027 -123.008)" fill="#fff"/>
        <path id="Trazado_873837" data-name="Trazado 873837" d="M431.018,231.155a3.739,3.739,0,0,0-1.351.124,6.953,6.953,0,0,0-13.642-1.4,2.831,2.831,0,0,0-3.208,4.466A5.724,5.724,0,1,0,419.655,238a6.949,6.949,0,0,0,7.519-.887c.1-.084.191-.175.286-.263a3.757,3.757,0,1,0,3.557-5.693" transform="translate(-221.88 -121.909)" fill="#fff"/>
        <path id="Trazado_873838" data-name="Trazado 873838" d="M357.064,392.177a4.278,4.278,0,0,0,1.364-.744,7.958,7.958,0,0,0,14.966-4.722,3.241,3.241,0,0,0,1.351-6.149,6.54,6.54,0,1,0-8.837-.732,7.958,7.958,0,0,0-7.5,4.344c-.068.134-.122.271-.181.406a4.3,4.3,0,1,0-1.163,7.6" transform="translate(-190.861 -200.054)" fill="#fff"/>
        <path id="Trazado_873839" data-name="Trazado 873839" d="M364.455,266.382c0,16.3-19.03,29.515-42.5,29.515s-42.5-13.214-42.5-29.515,19.03-29.515,42.5-29.515,42.5,13.214,42.5,29.515" transform="translate(-151.765 -128.468)" fill="#e1e1f9"/>
        <path id="Trazado_873840" data-name="Trazado 873840" d="M365.582,262.231c0,14.008-16.354,25.364-36.527,25.364s-36.526-11.356-36.526-25.364,16.354-25.364,36.526-25.364,36.527,11.356,36.527,25.364" transform="translate(-158.87 -128.468)" fill="#f1f0ff"/>
        <path id="Trazado_873841" data-name="Trazado 873841" d="M308.4,286.863l1.3-2.924a8.816,8.816,0,0,0,4.619,1.382c1.639,0,2.279-.46,2.279-1.141,0-2.223-7.958-.6-7.958-5.808,0-2.5,2.04-4.546,6.2-4.546a10.471,10.471,0,0,1,5.078,1.221l-1.22,2.944a8.261,8.261,0,0,0-3.879-1.081c-1.66,0-2.259.561-2.259,1.262,0,2.143,7.938.541,7.938,5.708,0,2.443-2.04,4.526-6.2,4.526a11.012,11.012,0,0,1-5.9-1.542" transform="translate(-167.488 -148.513)" fill="#e1e1f9"/>
        <path id="Trazado_873842" data-name="Trazado 873842" d="M337.283,281.115c0-4.206,3.3-7.29,7.778-7.29s7.778,3.084,7.778,7.29-3.3,7.29-7.778,7.29-7.778-3.084-7.778-7.29m11.557,0a3.785,3.785,0,1,0-3.779,4.005,3.751,3.751,0,0,0,3.779-4.005" transform="translate(-183.176 -148.513)" fill="#e1e1f9"/>
        <path id="Trazado_873843" data-name="Trazado 873843" d="M382.829,285.732H376.91l-1.1,2.724h-4.039l6.178-14.019h3.9l6.2,14.019h-4.119Zm-1.16-2.924-1.8-4.486-1.8,4.486Z" transform="translate(-201.907 -148.844)" fill="#e1e1f9"/>
        <path id="Trazado_873844" data-name="Trazado 873844" d="M422.465,279.624c0,3.184-2.4,5.167-6.218,5.167h-2.439v3.665h-3.959V274.437h6.4c3.819,0,6.218,1.983,6.218,5.187m-4,0c0-1.3-.82-2.063-2.46-2.063h-2.2v4.106h2.2c1.64,0,2.46-.761,2.46-2.043" transform="translate(-222.586 -148.844)" fill="#e1e1f9"/>
        <path id="Trazado_873845" data-name="Trazado 873845" d="M308.4,289.864l1.3-2.924a8.817,8.817,0,0,0,4.619,1.382c1.639,0,2.279-.46,2.279-1.141,0-2.223-7.958-.6-7.958-5.808,0-2.5,2.04-4.546,6.2-4.546a10.471,10.471,0,0,1,5.078,1.221l-1.22,2.944a8.261,8.261,0,0,0-3.879-1.081c-1.66,0-2.259.561-2.259,1.262,0,2.143,7.938.541,7.938,5.708,0,2.443-2.04,4.526-6.2,4.526a11.011,11.011,0,0,1-5.9-1.542" transform="translate(-167.488 -150.14)" fill="#fff"/>
        <path id="Trazado_873846" data-name="Trazado 873846" d="M337.283,284.115c0-4.206,3.3-7.29,7.778-7.29s7.778,3.084,7.778,7.29-3.3,7.29-7.778,7.29-7.778-3.084-7.778-7.29m11.557,0a3.785,3.785,0,1,0-3.779,4.005,3.751,3.751,0,0,0,3.779-4.005" transform="translate(-183.176 -150.14)" fill="#fff"/>
        <path id="Trazado_873847" data-name="Trazado 873847" d="M382.829,288.733H376.91l-1.1,2.724h-4.039l6.178-14.019h3.9l6.2,14.019h-4.119Zm-1.16-2.924-1.8-4.486-1.8,4.486Z" transform="translate(-201.907 -150.472)" fill="#fff"/>
        <path id="Trazado_873848" data-name="Trazado 873848" d="M422.465,282.625c0,3.184-2.4,5.167-6.218,5.167h-2.439v3.665h-3.959V277.438h6.4c3.819,0,6.218,1.983,6.218,5.187m-4,0c0-1.3-.82-2.063-2.46-2.063h-2.2v4.106h2.2c1.64,0,2.46-.761,2.46-2.043" transform="translate(-222.586 -150.472)" fill="#fff"/>
        <path id="Trazado_873849" data-name="Trazado 873849" d="M137.771,432.342s48.163-89.516,56.647-96.826,33.989-16.7,34.88-24.139-24.1,1.436-24.1,1.436,27.628-30.458,23.929-36.15-27.773,21.814-27.773,21.814,23.888-30.485,20.015-34.077c-5-4.64-29.184,26.9-29.184,26.9s19.115-28.188,13.987-32.061c-4.4-3.32-23.927,24.848-23.927,24.848s12.607-23.444,8.564-26.7c-5.873-4.737-78.07,103.533-102.134,141.275l.3,1.341A42.156,42.156,0,0,0,137.771,432.342Z" transform="translate(-48.159 -139.514)" fill="#ffc2bd"/>
        <path id="Trazado_873850" data-name="Trazado 873850" d="M385.63,372.393c.409,1.195-3.656,4.373-4.967,4.823s-3.372-4.644-1.684-5.762,5.9-1.249,6.651.94" transform="translate(-205.475 -201.035)" fill="#fff8f8"/>
        <path id="Trazado_873851" data-name="Trazado 873851" d="M387.581,300.909c.849.934-1.623,5.467-2.648,6.4S380,304.388,381.1,302.69s4.923-3.493,6.477-1.782" transform="translate(-206.869 -162.826)" fill="#fff8f8"/>
        <path id="Trazado_873852" data-name="Trazado 873852" d="M370.072,274.01c.849.934-1.623,5.467-2.648,6.4s-4.935-2.922-3.829-4.619,4.923-3.493,6.477-1.782" transform="translate(-197.36 -148.237)" fill="#fff8f8"/>
        <path id="Trazado_873853" data-name="Trazado 873853" d="M338.65,262c.975.8-.811,5.646-1.69,6.719s-5.307-2.172-4.459-4.012,4.363-4.173,6.149-2.707" transform="translate(-180.521 -141.847)" fill="#fff8f8"/>
        <path id="Trazado_873854" data-name="Trazado 873854" d="M305.219,259.443c1,.773-.634,5.209-1.482,6.306s-5.387-1.568-4.591-3.431,4.247-4.291,6.073-2.874" transform="translate(-162.413 -140.482)" fill="#fff8f8"/>
      </g>
    </g>
    <g id="Grupo_1099702" data-name="Grupo 1099702" transform="translate(40.516 117.72)">
      <g id="Grupo_1099701" data-name="Grupo 1099701" clip-path="url(#clip-path-15)">
        <g id="Grupo_1099688" data-name="Grupo 1099688" transform="translate(121.694 20.407)" opacity="0.1">
          <g id="Grupo_1099687" data-name="Grupo 1099687">
            <g id="Grupo_1099686" data-name="Grupo 1099686" clip-path="url(#clip-path-16)">
              <path id="Trazado_873855" data-name="Trazado 873855" d="M374.725,301.826a284.927,284.927,0,0,0-19.707,33.037s24.345-23.262,19.707-33.037" transform="translate(-355.018 -301.826)"/>
            </g>
          </g>
        </g>
        <g id="Grupo_1099691" data-name="Grupo 1099691" transform="translate(113.445 6.882)" opacity="0.1">
          <g id="Grupo_1099690" data-name="Grupo 1099690">
            <g id="Grupo_1099689" data-name="Grupo 1099689" clip-path="url(#clip-path-17)">
              <path id="Trazado_873856" data-name="Trazado 873856" d="M336.963,305.775s19.923-26.309,19.907-33.5c0,0,9.019,3.378-19.907,33.5" transform="translate(-336.963 -272.274)"/>
            </g>
          </g>
        </g>
        <g id="Grupo_1099694" data-name="Grupo 1099694" transform="translate(104.862 2.11)" opacity="0.1">
          <g id="Grupo_1099693" data-name="Grupo 1099693">
            <g id="Grupo_1099692" data-name="Grupo 1099692" clip-path="url(#clip-path-18)">
              <path id="Trazado_873857" data-name="Trazado 873857" d="M318.179,291.494s13.41-27.214,13.026-29.649c0,0,10.157.257-13.026,29.649" transform="translate(-318.179 -261.845)"/>
            </g>
          </g>
        </g>
        <g id="Grupo_1099697" data-name="Grupo 1099697" transform="translate(36.045 56.783)" opacity="0.1">
          <g id="Grupo_1099696" data-name="Grupo 1099696">
            <g id="Grupo_1099695" data-name="Grupo 1099695" clip-path="url(#clip-path-19)">
              <path id="Trazado_873858" data-name="Trazado 873858" d="M167.565,499.084s54.493-86.061,65.086-95.548,39.814-22.224,39.814-22.224l-90.256,122.5Z" transform="translate(-167.565 -381.312)"/>
            </g>
          </g>
        </g>
        <g id="Grupo_1099700" data-name="Grupo 1099700" transform="translate(94.176 -0.259)" opacity="0.1">
          <g id="Grupo_1099699" data-name="Grupo 1099699">
            <g id="Grupo_1099698" data-name="Grupo 1099698" clip-path="url(#clip-path-20)">
              <path id="Trazado_873859" data-name="Trazado 873859" d="M294.792,281.841s7.587-23.251,7.01-25.171c0,0,8.084-.82-7.01,25.171" transform="translate(-294.792 -256.667)"/>
            </g>
          </g>
        </g>
      </g>
    </g>
    <g id="Grupo_1099704" data-name="Grupo 1099704">
      <g id="Grupo_1099703" data-name="Grupo 1099703" clip-path="url(#clip-path)">
        <path id="Trazado_873861" data-name="Trazado 873861" d="M370.815,387.708a20.144,20.144,0,0,1-.743-3.045" transform="translate(-200.984 -208.627)" fill="none" stroke="#eb4d4b" stroke-linecap="round" stroke-linejoin="round" stroke-width="0.75"/>
        <path id="Trazado_873862" data-name="Trazado 873862" d="M367.431,387.46s-1.024-2.269-1.916-4.837" transform="translate(-198.509 -207.521)" fill="none" stroke="#eb4d4b" stroke-linecap="round" stroke-linejoin="round" stroke-width="0.75"/>
        <path id="Trazado_873863" data-name="Trazado 873863" d="M377.979,317.792a29.961,29.961,0,0,1-3.218-3.161" transform="translate(-203.53 -170.644)" fill="none" stroke="#eb4d4b" stroke-linecap="round" stroke-linejoin="round" stroke-width="0.75"/>
        <path id="Trazado_873864" data-name="Trazado 873864" d="M359.956,338.346a11.621,11.621,0,0,1-3.413-3.674" transform="translate(-193.636 -181.514)" fill="none" stroke="#eb4d4b" stroke-linecap="round" stroke-linejoin="round" stroke-width="0.75"/>
        <path id="Trazado_873865" data-name="Trazado 873865" d="M358.691,340.857a5.118,5.118,0,0,1-2.292-2.091" transform="translate(-193.558 -183.734)" fill="none" stroke="#eb4d4b" stroke-linecap="round" stroke-linejoin="round" stroke-width="0.75"/>
        <path id="Trazado_873866" data-name="Trazado 873866" d="M375.829,320.542s-1.623-1.062-3.128-2.285" transform="translate(-202.412 -172.611)" fill="none" stroke="#eb4d4b" stroke-linecap="round" stroke-linejoin="round" stroke-width="0.75"/>
        <path id="Trazado_873867" data-name="Trazado 873867" d="M360.9,293.891a6.006,6.006,0,0,1-3.05-2.436" transform="translate(-194.344 -158.074)" fill="none" stroke="#eb4d4b" stroke-linecap="round" stroke-linejoin="round" stroke-width="0.75"/>
        <path id="Trazado_873868" data-name="Trazado 873868" d="M359.242,296.3s-1.021-.139-2.534-1.847" transform="translate(-193.726 -159.703)" fill="none" stroke="#eb4d4b" stroke-linecap="round" stroke-linejoin="round" stroke-width="0.75"/>
        <path id="Trazado_873869" data-name="Trazado 873869" d="M341.436,321.657a11.04,11.04,0,0,1-3.114-2.819" transform="translate(-183.74 -172.926)" fill="none" stroke="#eb4d4b" stroke-linecap="round" stroke-linejoin="round" stroke-width="0.75"/>
        <path id="Trazado_873870" data-name="Trazado 873870" d="M339.226,324.017a17.542,17.542,0,0,1-3.208-2.749" transform="translate(-182.489 -174.244)" fill="none" stroke="#eb4d4b" stroke-linecap="round" stroke-linejoin="round" stroke-width="0.75"/>
        <path id="Trazado_873871" data-name="Trazado 873871" d="M328.353,281.028a8.587,8.587,0,0,0,2.808,1.567" transform="translate(-178.326 -152.419)" fill="none" stroke="#eb4d4b" stroke-linecap="round" stroke-linejoin="round" stroke-width="0.75"/>
        <path id="Trazado_873872" data-name="Trazado 873872" d="M319.008,303.431s-2.912-.308-3.953-1.512" transform="translate(-171.104 -163.75)" fill="none" stroke="#eb4d4b" stroke-linecap="round" stroke-linejoin="round" stroke-width="0.75"/>
        <path id="Trazado_873873" data-name="Trazado 873873" d="M315.939,306.355a5.153,5.153,0,0,1-2.447-1.344" transform="translate(-170.255 -165.427)" fill="none" stroke="#eb4d4b" stroke-linecap="round" stroke-linejoin="round" stroke-width="0.75"/>
        <path id="Trazado_873874" data-name="Trazado 873874" d="M329.883,285.286a26.317,26.317,0,0,1-2.841-1.474" transform="translate(-177.614 -153.929)" fill="none" stroke="#eb4d4b" stroke-linecap="round" stroke-linejoin="round" stroke-width="0.75"/>
        <path id="Trazado_873875" data-name="Trazado 873875" d="M301.023,279.389a6.006,6.006,0,0,1-3.05-2.436" transform="translate(-161.827 -150.209)" fill="none" stroke="#eb4d4b" stroke-linecap="round" stroke-linejoin="round" stroke-width="0.75"/>
        <path id="Trazado_873876" data-name="Trazado 873876" d="M299.5,282.328s-1.021-.139-2.534-1.847" transform="translate(-161.277 -152.123)" fill="none" stroke="#eb4d4b" stroke-linecap="round" stroke-linejoin="round" stroke-width="0.75"/>
        <path id="Trazado_873877" data-name="Trazado 873877" d="M287.63,299.381a11.034,11.034,0,0,1-3.114-2.819" transform="translate(-154.519 -160.844)" fill="none" stroke="#eb4d4b" stroke-linecap="round" stroke-linejoin="round" stroke-width="0.75"/>
        <path id="Trazado_873878" data-name="Trazado 873878" d="M285.655,302.207a17.542,17.542,0,0,1-3.208-2.749" transform="translate(-153.395 -162.415)" fill="none" stroke="#eb4d4b" stroke-linecap="round" stroke-linejoin="round" stroke-width="0.75"/>
        <path id="Trazado_873879" data-name="Trazado 873879" d="M436.874,296.992a4.284,4.284,0,0,0,1.364-.744,7.958,7.958,0,0,0,14.966-4.722,3.241,3.241,0,0,0,1.351-6.149,6.54,6.54,0,1,0-8.838-.732,7.96,7.96,0,0,0-7.5,4.344c-.068.134-.122.271-.181.407a4.3,4.3,0,1,0-1.163,7.6" transform="translate(-234.206 -148.43)" fill="#fff"/>
        <path id="Trazado_873880" data-name="Trazado 873880" d="M282.514,337.463a3.731,3.731,0,0,0,1.357.04,6.953,6.953,0,0,0,13.374,3.035,2.83,2.83,0,0,0,3.723-4.046,5.725,5.725,0,1,0-6.35-4.45,6.947,6.947,0,0,0-7.571-.027c-.11.071-.211.151-.316.227a3.757,3.757,0,1,0-4.217,5.221" transform="translate(-151.823 -176.324)" fill="#fff"/>
        <path id="Trazado_873881" data-name="Trazado 873881" d="M228.243,314.45a3.752,3.752,0,0,0,.837,1.07,6.963,6.963,0,0,0,6.223,12.239,2.826,2.826,0,0,0,5.486.28,5.73,5.73,0,1,0-.645-7.735,6.966,6.966,0,0,0-4.82-5.848c-.125-.039-.251-.066-.376-.1a3.757,3.757,0,1,0-6.7.092" transform="translate(-122.886 -167.562)" fill="#fff"/>
        <path id="Trazado_873882" data-name="Trazado 873882" d="M291.112,308.9a3.738,3.738,0,0,0-1.351.124,6.953,6.953,0,0,0-13.642-1.4,2.831,2.831,0,0,0-3.208,4.466,5.723,5.723,0,1,0,6.839,3.651,6.949,6.949,0,0,0,7.519-.887c.1-.084.191-.175.286-.264a3.757,3.757,0,1,0,3.557-5.693" transform="translate(-145.898 -164.074)" fill="#fff"/>
        <path id="Trazado_873883" data-name="Trazado 873883" d="M323.171,307.719a2.781,2.781,0,0,0-.383.03,3.834,3.834,0,0,0-.346-3.158c.025,0,.05,0,.076,0a3.4,3.4,0,1,0-3.031-1.883c-.118-.011-.237-.018-.358-.018a3.857,3.857,0,1,0,1.322,7.475,2.767,2.767,0,0,0-.016.29,2.735,2.735,0,1,0,2.735-2.739" transform="translate(-171.226 -161.52)" fill="#fff"/>
        <path id="Trazado_873884" data-name="Trazado 873884" d="M358.81,357.485a3.294,3.294,0,0,0-.064-.461,4.624,4.624,0,0,0,3.784-.655c0,.031,0,.061,0,.092a4.114,4.114,0,1,0,2.045-3.808c0-.143,0-.288,0-.434a4.661,4.661,0,1,0-8.918,2.158,3.316,3.316,0,1,0,3.158,3.108" transform="translate(-191.275 -188.655)" fill="#fff"/>
        <path id="Trazado_873885" data-name="Trazado 873885" d="M371.381,337.872a1.912,1.912,0,0,0,.272-.022,2.729,2.729,0,0,0,.246,2.246c-.018,0-.036,0-.054,0A2.418,2.418,0,1,0,374,341.432c.084.008.168.013.254.013a2.742,2.742,0,1,0-.94-5.315,1.915,1.915,0,0,0,.011-.206,1.945,1.945,0,1,0-1.945,1.948" transform="translate(-200.638 -181.136)" fill="#fff"/>
        <path id="Trazado_873886" data-name="Trazado 873886" d="M284.164,251.444a2.593,2.593,0,0,0,.36-.028,3.611,3.611,0,0,0,.325,2.97c-.024,0-.047,0-.071,0a3.2,3.2,0,1,0,2.851,1.771c.111.01.223.017.336.017a3.627,3.627,0,1,0-1.243-7.03,2.705,2.705,0,0,0,.015-.273,2.572,2.572,0,1,0-2.572,2.576" transform="translate(-152.931 -133.579)" fill="#fff"/>
        <path id="Trazado_873887" data-name="Trazado 873887" d="M467.261,345.266a1.189,1.189,0,1,1-1.189-1.191,1.19,1.19,0,0,1,1.189,1.191" transform="translate(-252.474 -186.614)" fill="#fff"/>
        <path id="Trazado_873888" data-name="Trazado 873888" d="M492.866,319.922a1.585,1.585,0,1,1-1.585-1.588,1.586,1.586,0,0,1,1.585,1.588" transform="translate(-265.95 -172.653)" fill="#fff"/>
        <path id="Trazado_873889" data-name="Trazado 873889" d="M497.835,287.248a1.494,1.494,0,1,1-1.494-1.5,1.5,1.5,0,0,1,1.494,1.5" transform="translate(-268.747 -154.981)" fill="#fff"/>
        <path id="Trazado_873890" data-name="Trazado 873890" d="M350.786,217.352a1.665,1.665,0,1,1-1.665-1.668,1.667,1.667,0,0,1,1.665,1.668" transform="translate(-188.7 -116.979)" fill="#fff"/>
        <path id="Trazado_873891" data-name="Trazado 873891" d="M342.468,229.951a1.5,1.5,0,1,1-1.5-1.5,1.5,1.5,0,0,1,1.5,1.5" transform="translate(-184.362 -123.902)" fill="#fff"/>
        <path id="Trazado_873892" data-name="Trazado 873892" d="M262.1,252.205a4.669,4.669,0,1,1-4.669-4.676,4.673,4.673,0,0,1,4.669,4.676" transform="translate(-137.273 -134.251)" fill="#fff"/>
        <path id="Trazado_873893" data-name="Trazado 873893" d="M262.415,278.116a1.289,1.289,0,1,1-1.288-1.29,1.289,1.289,0,0,1,1.288,1.29" transform="translate(-141.116 -150.14)" fill="#fff"/>
        <path id="Trazado_873894" data-name="Trazado 873894" d="M272.289,260.953a.97.97,0,1,1-.97-.971.97.97,0,0,1,.97.971" transform="translate(-146.825 -141.005)" fill="#fff"/>
        <path id="Trazado_873895" data-name="Trazado 873895" d="M243.84,291.352a1.011,1.011,0,1,1-1.011-1.012,1.011,1.011,0,0,1,1.011,1.012" transform="translate(-131.33 -157.47)" fill="#fff"/>
        <path id="Trazado_873896" data-name="Trazado 873896" d="M374.351,441.681a2.249,2.249,0,1,1-2.248-2.252,2.251,2.251,0,0,1,2.248,2.252" transform="translate(-200.865 -238.33)" fill="#fff"/>
        <path id="Trazado_873897" data-name="Trazado 873897" d="M394.22,426.525a3.433,3.433,0,1,1,0-4.859,3.427,3.427,0,0,1,0,4.859" transform="translate(-210.918 -228.15)" fill="#fff"/>
        <path id="Trazado_873898" data-name="Trazado 873898" d="M411.557,414.2a1.8,1.8,0,1,1-1.8-1.8,1.8,1.8,0,0,1,1.8,1.8" transform="translate(-221.56 -223.671)" fill="#fff"/>
        <path id="Trazado_873899" data-name="Trazado 873899" d="M425.133,392.514a.761.761,0,1,1-.761-.762.762.762,0,0,1,.761.762" transform="translate(-230.06 -212.472)" fill="#fff"/>
        <path id="Trazado_873900" data-name="Trazado 873900" d="M334.668,379.533a1.093,1.093,0,1,1-1.093-1.1,1.094,1.094,0,0,1,1.093,1.1" transform="translate(-180.568 -205.251)" fill="#fff"/>
        <path id="Trazado_873901" data-name="Trazado 873901" d="M354.124,371.651a3.29,3.29,0,1,1-3.29-3.295,3.292,3.292,0,0,1,3.29,3.295" transform="translate(-188.749 -199.783)" fill="#fff"/>
        <path id="Trazado_873902" data-name="Trazado 873902" d="M334.316,365.345a.968.968,0,1,1-.968-.969.968.968,0,0,1,.968.969" transform="translate(-180.514 -197.624)" fill="#fff"/>
        <path id="Trazado_873903" data-name="Trazado 873903" d="M339.655,339.741a3.267,3.267,0,1,1-3.267-3.273,3.27,3.27,0,0,1,3.267,3.273" transform="translate(-180.915 -182.488)" fill="#fff"/>
        <path id="Trazado_873904" data-name="Trazado 873904" d="M415.933,214.891a1.458,1.458,0,1,1-1.458-1.46,1.459,1.459,0,0,1,1.458,1.46" transform="translate(-224.307 -115.757)" fill="#fff"/>
        <path id="Trazado_873905" data-name="Trazado 873905" d="M464.7,239a2.125,2.125,0,1,1-2.125-2.128A2.127,2.127,0,0,1,464.7,239" transform="translate(-250.068 -128.468)" fill="#fff"/>
        <path id="Trazado_873906" data-name="Trazado 873906" d="M482.379,244.929a1.463,1.463,0,1,1-1.463-1.465,1.464,1.464,0,0,1,1.463,1.465" transform="translate(-260.388 -132.046)" fill="#fff"/>
        <path id="Trazado_873907" data-name="Trazado 873907" d="M93.161,85.269l7.6,16.556s18.306,11.786,33.95,10.879,32.916,5.947,32.916,5.947-11.92-27.542-32.139-34.69-42.328,1.308-42.328,1.308" transform="translate(-50.595 -43.98)" fill="#22a6b3"/>
        <path id="Trazado_873908" data-name="Trazado 873908" d="M99.887,104.6s38.211-4.395,71.394,26.687" transform="translate(-54.248 -56.614)" fill="none" stroke="#30336b" stroke-miterlimit="10" stroke-width="1"/>
        <path id="Trazado_873909" data-name="Trazado 873909" d="M96.92,91.27l-9.775,15.369s.029,21.8,9.267,34.474,12.845,30.932,12.845,30.932,16.652-24.958,11.7-45.852S96.92,91.27,96.92,91.27" transform="translate(-47.328 -49.501)" fill="#22a6b3"/>
        <path id="Trazado_873910" data-name="Trazado 873910" d="M99.887,104.85s24.392,29.785,16.29,74.561" transform="translate(-54.248 -56.867)" fill="none" stroke="#30336b" stroke-miterlimit="10" stroke-width="1"/>
      </g>
    </g>
    <g id="Grupo_1099709" data-name="Grupo 1099709" transform="translate(39.817 41.769)">
      <g id="Grupo_1099708" data-name="Grupo 1099708" clip-path="url(#clip-path-22)">
        <g id="Grupo_1099707" data-name="Grupo 1099707" transform="translate(0.859 4.116)" opacity="0.1">
          <g id="Grupo_1099706" data-name="Grupo 1099706">
            <g id="Grupo_1099705" data-name="Grupo 1099705" clip-path="url(#clip-path-23)">
              <path id="Trazado_873911" data-name="Trazado 873911" d="M89.025,104.309s2.036,12.542,4.963,20.444,19.223,24.34,29.857,29.351c0,0,4.38-13.178,1.452-22.54s-23.848-30.363-29.974-31.3Z" transform="translate(-89.025 -100.264)"/>
            </g>
          </g>
        </g>
      </g>
    </g>
    <g id="Grupo_1099711" data-name="Grupo 1099711">
      <g id="Grupo_1099710" data-name="Grupo 1099710" clip-path="url(#clip-path)">
        <path id="Trazado_873913" data-name="Trazado 873913" d="M99.107,88.91l-2.573,18.039s9.005,19.844,22.642,27.574,24.443,22.868,24.443,22.868,4.888-29.616-8.233-46.6S99.107,88.91,99.107,88.91" transform="translate(-52.427 -48.222)" fill="#7ed6df"/>
        <path id="Trazado_873914" data-name="Trazado 873914" d="M99.887,104.85s34.489,17.052,45.552,61.187" transform="translate(-54.248 -56.867)" fill="none" stroke="#30336b" stroke-miterlimit="10" stroke-width="1"/>
        <path id="Trazado_873915" data-name="Trazado 873915" d="M136.6,407.449a.909.909,0,0,0,0,1.816.909.909,0,0,0,0-1.816" transform="translate(-73.711 -220.985)" fill="#fff"/>
        <path id="Trazado_873916" data-name="Trazado 873916" d="M163.63,445.459a.909.909,0,0,0,0,1.816.909.909,0,0,0,0-1.816" transform="translate(-88.391 -241.6)" fill="#fff"/>
        <path id="Trazado_873917" data-name="Trazado 873917" d="M142.188,463.345a.454.454,0,0,0,0,.908.454.454,0,0,0,0-.908" transform="translate(-76.984 -251.301)" fill="#fff"/>
        <path id="Trazado_873918" data-name="Trazado 873918" d="M159.926,403.373a.454.454,0,0,0,0,.908.454.454,0,0,0,0-.908" transform="translate(-86.617 -218.775)" fill="#fff"/>
        <path id="Trazado_873919" data-name="Trazado 873919" d="M136.275,334.109a.454.454,0,0,0,0,.908.454.454,0,0,0,0-.908" transform="translate(-73.772 -181.208)" fill="#fff"/>
        <path id="Trazado_873920" data-name="Trazado 873920" d="M174.286,258.088a.454.454,0,0,0,0,.908.454.454,0,0,0,0-.908" transform="translate(-94.416 -139.977)" fill="#fff"/>
        <path id="Trazado_873921" data-name="Trazado 873921" d="M577.2,323.129a.454.454,0,0,0,0,.908.454.454,0,0,0,0-.908" transform="translate(-313.235 -175.253)" fill="#fff"/>
        <path id="Trazado_873922" data-name="Trazado 873922" d="M601.694,396.616a.454.454,0,0,0,0,.908.454.454,0,0,0,0-.908" transform="translate(-326.538 -215.11)" fill="#fff"/>
        <path id="Trazado_873923" data-name="Trazado 873923" d="M589.023,453.209a.454.454,0,0,0,0,.908.454.454,0,0,0,0-.908" transform="translate(-319.657 -245.804)" fill="#fff"/>
        <path id="Trazado_873924" data-name="Trazado 873924" d="M569.076,408.294a.909.909,0,0,0,0,1.816.909.909,0,0,0,0-1.816" transform="translate(-308.585 -221.444)" fill="#fff"/>
        <path id="Trazado_873925" data-name="Trazado 873925" d="M601.174,319.6a.909.909,0,0,0,0,1.816.909.909,0,0,0,0-1.816" transform="translate(-326.018 -173.34)" fill="#fff"/>
        <path id="Trazado_873926" data-name="Trazado 873926" d="M573.3,267.232a.909.909,0,0,0,0,1.816.909.909,0,0,0,0-1.816" transform="translate(-310.879 -144.937)" fill="#fff"/>
        <path id="Trazado_873927" data-name="Trazado 873927" d="M425.48,127.86a.909.909,0,0,0,0,1.816.909.909,0,0,0,0-1.816" transform="translate(-230.599 -69.347)" fill="#fff"/>
        <path id="Trazado_873928" data-name="Trazado 873928" d="M174.611,313.69a.909.909,0,0,0,0,1.816.909.909,0,0,0,0-1.816" transform="translate(-94.354 -170.134)" fill="#fff"/>
        <path id="Trazado_873929" data-name="Trazado 873929" d="M145.047,307.777a.909.909,0,0,0,0,1.816.909.909,0,0,0,0-1.816" transform="translate(-78.298 -166.927)" fill="#fff"/>
      </g>
    </g>
  </g>
</svg>
