<svg xmlns="http://www.w3.org/2000/svg" xmlns:xlink="http://www.w3.org/1999/xlink" width="286" height="519.013" viewBox="0 0 286 519.013">
  <defs>
    <clipPath id="clip-path">
      <rect id="Rectángulo_401735" data-name="Rectángulo 401735" width="211.567" height="500.939" fill="none"/>
    </clipPath>
    <clipPath id="clip-path-2">
      <path id="Trazado_873211" data-name="Trazado 873211" d="M143.661,155.472H2.1c-1.159,0-2.1-2.609-2.1-5.826V5.826C0,2.609.939,0,2.1,0H143.661c1.159,0,2.1,2.609,2.1,5.826V149.646C145.759,152.864,144.82,155.472,143.661,155.472Z" fill="#297929" stroke="#707070" stroke-width="1"/>
    </clipPath>
    <radialGradient id="radial-gradient" cx="0.5" cy="0.5" r="0.5" gradientUnits="objectBoundingBox">
      <stop offset="0" stop-color="#fff" stop-opacity="0"/>
      <stop offset="1" stop-color="#f9a545"/>
    </radialGradient>
    <clipPath id="clip-path-3">
      <rect id="Rectángulo_401302" data-name="Rectángulo 401302" width="32.302" height="27.979" fill="none"/>
    </clipPath>
    <clipPath id="clip-path-4">
      <rect id="Rectángulo_401302-2" data-name="Rectángulo 401302" width="27.777" height="24.06" fill="none"/>
    </clipPath>
    <clipPath id="clip-path-5">
      <rect id="Rectángulo_401302-3" data-name="Rectángulo 401302" width="35.67" height="30.896" fill="none"/>
    </clipPath>
  </defs>
  <g id="Grupo_1100025" data-name="Grupo 1100025" transform="translate(-179.051 -3295)">
    <g id="Grupo_1099954" data-name="Grupo 1099954">
      <ellipse id="Elipse_11526" data-name="Elipse 11526" cx="125" cy="125.5" rx="125" ry="125.5" transform="translate(215.051 3528.013)" fill="#f1e7c2"/>
      <path id="Rectángulo_401329" data-name="Rectángulo 401329" d="M200,0h55a0,0,0,0,1,0,0V506.012a0,0,0,0,1,0,0H0a0,0,0,0,1,0,0V200A200,200,0,0,1,200,0Z" transform="translate(179.051 3308)" fill="#e6f2e9"/>
      <g id="Grupo_1099951" data-name="Grupo 1099951" transform="translate(217.051 3308)">
        <g id="Grupo_1099950" data-name="Grupo 1099950" clip-path="url(#clip-path)">
          <path id="Trazado_874944" data-name="Trazado 874944" d="M181.242,394.528a154.193,154.193,0,0,1-5.986,30.508c-4.7,14.541-6.516,17.271-6.516,17.271s-22.68-56.443,12.5-47.779" transform="translate(22.618 55.111)" fill="#ff9f87"/>
          <path id="Trazado_874945" data-name="Trazado 874945" d="M176.722,445.131l8.761-46.526-81.848,2.776-3.846,43.75Z" transform="translate(13.971 55.808)" fill="#21191b"/>
          <path id="Trazado_874946" data-name="Trazado 874946" d="M123.945,447.115c6.557-22.991,11.188-39.18,11.188-39.18l-87.923-23.5-9.347,62.68Z" transform="translate(5.301 53.824)" fill="#21191b"/>
          <path id="Trazado_874947" data-name="Trazado 874947" d="M51.251,446l7.693-51.728a1.659,1.659,0,0,0-3.282-.488L47.9,446Z" transform="translate(6.706 54.936)" fill="#3f3538"/>
          <path id="Trazado_874948" data-name="Trazado 874948" d="M180.415,436.044a9.98,9.98,0,0,0,7.785-8.266c4.3-28.094,1.027-82.176-4.136-118.682C174.3,240.074,161.338,140,161.338,140c-8.6,46.514-13.867,237.341-.644,293.588,6.9,2.688,13.519,3.756,19.721,2.453" transform="translate(21.378 19.602)" fill="#e13139"/>
          <path id="Trazado_874949" data-name="Trazado 874949" d="M191.823,379.891q-.381-3.979-.76-8.019c-.1-.95-.182-1.9-.271-2.848-.247-2.537-.5-5.088-.735-7.629q-.188-1.963-.37-3.916c-.125-1.371-.262-2.737-.38-4.1-.071-.756-.136-1.522-.207-2.278-.065-.7-.129-1.391-.182-2.094-.154-1.65-.3-3.3-.428-4.936-.046-.427-.08-.863-.116-1.288s-.066-.872-.106-1.3q-.282-3.394-.528-6.716c-.082-1.1-.162-2.2-.234-3.287-.065-.885-.122-1.761-.177-2.635-.017-.272-.031-.547-.051-.82-.031-.544-.065-1.086-.1-1.624-.057-.885-.112-1.776-.157-2.655-.036-.755-.076-1.509-.108-2.249-.046-.9-.091-1.783-.131-2.661q-.12-2.77-.188-5.429c-.072-2.824-.106-5.548-.085-8.156q.021-2.138.085-4.164c.011-.428.026-.87.036-1.314.021-.93.04-1.884.047-2.867.034-3.557-.007-7.434-.1-11.577-.019-.99-.044-2-.076-3.024a1.1,1.1,0,0,0-.008-.162c-.017-.923-.046-1.861-.078-2.809q-.048-1.532-.1-3.117a.748.748,0,0,1-.006-.116c-.014-.391-.028-.781-.04-1.177-.021-.457-.034-.911-.051-1.366-.014-.435-.04-.866-.055-1.294-.044-1.269-.1-2.551-.143-3.844-.051-1.268-.111-2.548-.162-3.837-.032-.846-.065-1.7-.1-2.556-.085-2.25-.182-4.541-.282-6.849-.017-.467-.032-.929-.051-1.4-.011-.38-.032-.772-.047-1.156q-.174-4.215-.336-8.518c-.027-.9-.059-1.8-.091-2.714-.027-.832-.065-1.659-.09-2.5-.026-.9-.06-1.808-.087-2.708,0-.078,0-.148,0-.22-.034-1.106-.066-2.216-.091-3.322-.026-.684-.04-1.374-.06-2.055-.137-5.25-.228-10.511-.254-15.721q-.015-2.741.009-5.455c0-.34.006-.678.006-1.009.072-10.543-.373-23.02-.385-32.317-.036-29.126-11.562-49.05-36.942-57.28l-19.329-6.27a27.852,27.852,0,0,0-20.557,1.369c-11.138,5.3-29.042,14.658-42.34,25.656-1.659,1.373-3.246,2.771-4.74,4.192-6.5,6.171-11.226,12.737-12.358,19.312-.278,1.614-.6,3.988-.948,7.051-.188,1.66-.4,3.533-.6,5.581-1.393,13.519-3.129,35.093-4.7,60.308-.04.682-.085,1.371-.125,2.077q-.192,3.08-.382,6.24c-.046.827-.091,1.666-.143,2.51q-.068,1.339-.156,2.694-.1,1.725-.2,3.464c-.046.9-.1,1.8-.148,2.705-.04.837-.086,1.66-.131,2.491-.04.73-.072,1.465-.111,2.194-.063,1.2-.129,2.411-.189,3.629-.04.69-.071,1.378-.1,2.074q-.227,4.422-.437,8.91-.311,6.789-.6,13.678c-.025.72-.06,1.443-.086,2.165-.057,1.614-.117,3.226-.173,4.845q-.15,3.834-.283,7.683c-.174,5.442-.336,10.892-.473,16.309-.051,2.337-.112,4.666-.156,6.986-.015.587-.021,1.166-.032,1.751-.034,1.7-.059,3.381-.1,5.066,0,.325,0,.644-.01.963-.021,1.123-.04,2.242-.051,3.369-.015,1.24-.034,2.47-.047,3.7-.014,1.309-.019,2.608-.034,3.9q-.029,3.394-.031,6.745c-.006.807-.006,1.605-.006,2.405v2.081c0,1.2.006,2.375.011,3.558q.022,5.369.1,10.55.039,2.886.112,5.717c.014.787.034,1.568.051,2.346.019.806.04,1.622.065,2.413.983,34.717,4.22,60.635,11.252,64.653,22.764,13,124.521,14.543,139.908,6.472,8.655-4.54,6.407-36.679,3.05-72.465M49.071,347.375l-7.885-31.011q6.192-20.277,14.091-39.3Z" transform="translate(5.219 15.568)" fill="#ff495c"/>
          <path id="Trazado_874950" data-name="Trazado 874950" d="M72.118,346.036a1.567,1.567,0,0,1-.165-3.126,107.99,107.99,0,0,0,36.267-12.449c17.48-9.648,40.241-28.741,49.414-64.908a1.567,1.567,0,0,1,3.038.771,106.576,106.576,0,0,1-21.534,42.921,103.67,103.67,0,0,1-29.515,24.022C90.07,344.032,73,345.951,72.286,346.027a1.371,1.371,0,0,1-.168.009" transform="translate(9.878 37.015)" fill="#e13139"/>
          <path id="Trazado_874951" data-name="Trazado 874951" d="M135.819,141.588a3.271,3.271,0,1,1-3.54-2.978,3.272,3.272,0,0,1,3.54,2.978" transform="translate(18.102 19.405)" fill="#e13139"/>
          <path id="Trazado_874952" data-name="Trazado 874952" d="M136.943,154.592a3.271,3.271,0,1,1-3.541-2.977,3.273,3.273,0,0,1,3.541,2.977" transform="translate(18.259 21.226)" fill="#e13139"/>
          <path id="Trazado_874953" data-name="Trazado 874953" d="M138.375,171.172a3.271,3.271,0,1,1-3.54-2.978,3.272,3.272,0,0,1,3.54,2.978" transform="translate(18.46 23.547)" fill="#e13139"/>
          <path id="Trazado_874954" data-name="Trazado 874954" d="M139.1,136.658l-.059,0c-23.5.907-41.708-12.441-42.471-13.009a1.3,1.3,0,0,1,1.553-2.087c.18.133,18.264,13.368,40.818,12.5a1.3,1.3,0,0,1,.16,2.6" transform="translate(13.447 16.984)" fill="#e13139"/>
          <path id="Trazado_874955" data-name="Trazado 874955" d="M70.815,410.2a1.3,1.3,0,0,0,1.23-1.724C59.855,373.017,47.423,335.9,41.03,305.948c9.047-31.122,29.378-75.543,49.041-118.5a1.3,1.3,0,1,0-2.364-1.083C67.937,229.554,47.5,274.216,38.441,305.538a1.288,1.288,0,0,0-.023.632c6.4,30.153,18.907,67.491,31.167,103.151a1.3,1.3,0,0,0,1.23.878" transform="translate(5.375 25.986)" fill="#e13139"/>
          <path id="Trazado_874956" data-name="Trazado 874956" d="M75.469,205.974a1.3,1.3,0,0,0,.732-.226l14.308-9.756a1.3,1.3,0,1,0-1.466-2.149L74.735,203.6a1.3,1.3,0,0,0,.734,2.376" transform="translate(10.384 27.108)" fill="#e13139"/>
          <path id="Trazado_874957" data-name="Trazado 874957" d="M102.812,380.53a146.9,146.9,0,0,0,38.246-5.521,180.458,180.458,0,0,0,33.136-12.615,1.662,1.662,0,1,0-1.56-2.936c-.535.284-54.091,28.265-98.516,13.4a1.662,1.662,0,1,0-1.056,3.152,93.736,93.736,0,0,0,29.75,4.524" transform="translate(10.071 50.3)" fill="#e13139"/>
          <path id="Trazado_874958" data-name="Trazado 874958" d="M114.077,392.373c7.722,0,15.626-.8,21.936-3.208a1.663,1.663,0,0,0-1.186-3.106c-17.5,6.68-49.585,0-49.905-.072a1.661,1.661,0,1,0-.691,3.25,161.247,161.247,0,0,0,29.845,3.136" transform="translate(11.609 54.036)" fill="#e13139"/>
          <path id="Trazado_874959" data-name="Trazado 874959" d="M99.543,175.5l-.017.03c-2.664,5.656-5.368,11.483-8.026,17.245l-7.93,17.375Q75.7,227.539,68.134,244.992c-5.021,11.624-9.923,23.278-14.464,34.85-2.257,5.774-4.437,11.541-6.358,17.128-.954,2.78-1.838,5.521-2.563,8.03-.348,1.231-.684,2.451-.895,3.388-.066.266-.107.459-.148.654l-.065.294a.081.081,0,0,0-.006.03v-.018a.092.092,0,0,0-.011-.035c-.006-.006-.011-.017-.018-.017v.058a1.681,1.681,0,0,1-.052.243c0,.329-.054.571-.041,1.042.006.219-.013.407,0,.654l.023.748c.013.489.078,1.1.1,1.644l.177,1.809c.283,2.492.725,5.226,1.249,8.019,1.055,5.609,2.462,11.483,3.995,17.381,3.105,11.82,6.782,23.815,10.67,35.776s8.048,23.945,12.343,35.876q3.217,8.952,6.558,17.875l3.357,8.9,3.388,8.8.119.294a17.943,17.943,0,0,1-33.159,13.687l-3.989-8.984-3.9-8.939q-3.861-8.943-7.618-17.94c-5-12-9.875-24.075-14.553-36.312s-9.155-24.611-13.221-37.449c-1.579-5.025-3.1-10.1-4.489-15.389-.4-1.491-.773-2.994-1.143-4.519-.837-3.483-1.614-7.059-2.257-10.912l-.454-2.97c-.123-1.049-.27-2.033-.365-3.145L.195,313.9c-.048-.553-.078-1.172-.107-1.756-.082-1.131-.082-2.492-.088-3.77l.082-2.163.03-.536.054-.619.123-1.231.071-.619.076-.56.137-.9c.088-.6.182-1.2.283-1.713.389-2.222.819-4.113,1.26-6,.885-3.706,1.833-7.117,2.811-10.457a1.476,1.476,0,0,1,.047-.148c1.939-6.6,4.013-12.9,6.133-19.142,4.284-12.55,8.8-24.787,13.416-36.966s9.351-24.239,14.159-36.276l7.264-18.024c2.451-6.016,4.891-11.954,7.429-18.035.136-.318.312-.725.459-1.037A25.267,25.267,0,1,1,99.543,175.5" transform="translate(0 19.524)" fill="#ff495c"/>
          <path id="Trazado_874960" data-name="Trazado 874960" d="M94.552,161.415a1.694,1.694,0,0,1-.249.071,1.569,1.569,0,0,1-1.767-.994c-3.947-10.64-9.878-17.417-17.627-20.144-6.224-2.189-12.648-1.419-17.619-.038,1.493-1.422,3.08-2.818,4.739-4.192a30.076,30.076,0,0,1,13.92,1.273c8.673,3.05,15.242,10.457,19.526,22.008a1.566,1.566,0,0,1-.923,2.016" transform="translate(8.021 19.017)" fill="#e13139"/>
          <path id="Trazado_874961" data-name="Trazado 874961" d="M4.566,319.411c-.394-1.491-.772-2.993-1.143-4.519-.837-3.483-1.614-7.059-2.256-10.912l-.454-2.97c-.124-1.048-.271-2.033-.366-3.145l-.153-1.65c-.047-.554-.076-1.173-.106-1.756-.082-1.132-.082-2.493-.088-3.771l.082-2.163.03-.536.052-.619.124-1.231.071-.619.076-.56.136-.895c.088-.6.182-1.2.283-1.715.389-2.222.819-4.113,1.261-6,.884-3.705,1.832-7.117,2.81-10.457a1.486,1.486,0,0,1,.048-.148c5.5,11.684,18.058,43.123-.407,53.664" transform="translate(0 37.207)" fill="#e13139"/>
          <path id="Trazado_874962" data-name="Trazado 874962" d="M74.742,443.068,85.791,437.1l.161-.088a6.421,6.421,0,0,0,1.892-9.57C83.819,422.3,76.916,413.6,76.916,413.6c-11.609-1.463-20.141,3.223-27.166,10.919,0,0,.022,10.278,3.037,18.546Z" transform="translate(6.965 57.871)" fill="#ff9f87"/>
          <path id="Trazado_874963" data-name="Trazado 874963" d="M77.768,441.709c10.43-7.246,14.753-15.469,15.038-16.027a1.812,1.812,0,0,0-3.225-1.651c-.075.146-5.473,10.323-18.843,17.678Z" transform="translate(9.904 59.231)" fill="#3f3538"/>
          <path id="Trazado_874964" data-name="Trazado 874964" d="M41.263,296.5a1.662,1.662,0,0,0,.372-3.282l-21.05-4.845a1.662,1.662,0,1,0-.744,3.239l21.049,4.846a1.687,1.687,0,0,0,.374.042" transform="translate(2.597 40.369)" fill="#e13139"/>
          <path id="Trazado_874965" data-name="Trazado 874965" d="M21.185,299.656a1.644,1.644,0,0,0,.622-.122l12.822-5.189a1.661,1.661,0,1,0-1.246-3.08l-12.822,5.189a1.662,1.662,0,0,0,.624,3.2" transform="translate(2.733 40.763)" fill="#e13139"/>
          <path id="Trazado_874966" data-name="Trazado 874966" d="M94.4,55.313S86.369,45.031,89.53,35.531s15.224-10.26,15.224-10.26-2.184-10.449,5.226-13.869,34.987,2.558,50.113-.808C174.393,7.411,177.81,0,177.81,0s11,34.009-11.6,37.715-63.269,1.659-71.816,17.6" transform="translate(12.432 0)" fill="#21191b"/>
          <path id="Trazado_874967" data-name="Trazado 874967" d="M95.67,54.048c-.473-.342-11.552-8.5-9.068-18.728,2.239-9.222,10.359-11.079,16.884-12.571.814-.187,1.585-.363,2.332-.549l.276,1.107c-.758.189-1.533.366-2.354.554-6.543,1.5-13.957,3.192-16.03,11.727-2.3,9.483,8.518,17.457,8.628,17.537Z" transform="translate(12.074 3.108)" fill="#21191b"/>
          <path id="Trazado_874968" data-name="Trazado 874968" d="M158.135,37.06a16.217,16.217,0,0,1-2.564-.182l.192-1.124c.08.014,7.939,1.281,12.409-3.793,3.911-4.44,4.193-12.3.836-23.358l1.091-.331c3.482,11.466,3.119,19.693-1.077,24.449-3.26,3.695-7.988,4.339-10.886,4.339" transform="translate(21.781 1.158)" fill="#21191b"/>
          <path id="Trazado_874969" data-name="Trazado 874969" d="M139.438,130.9s-.038.015-.12.038a69.432,69.432,0,0,1-10.343,1.5h-.06a52.628,52.628,0,0,1-29.338-8.246L100,102.792l.451-22.963,5.269,1.609,32.8,10.013.624,26.714Z" transform="translate(13.942 11.177)" fill="#ff9f87"/>
          <path id="Trazado_874970" data-name="Trazado 874970" d="M110.287,85.357s2.234,30.378,27.4,34.261l-.679-28.943Z" transform="translate(15.441 11.951)" fill="#21191b"/>
          <path id="Trazado_874971" data-name="Trazado 874971" d="M151.253,50.985s9.805-6.049,14.5,5.911S159.6,84.108,148.444,81.624c0,0-1.611-24.49,2.809-30.639" transform="translate(20.743 6.924)" fill="#ff7e6a"/>
          <path id="Trazado_874972" data-name="Trazado 874972" d="M153.343,108.013s11.179-16.17,8.534-43.319c0,0-2.81,21.176-6.057,24.681Z" transform="translate(21.469 9.058)" fill="#21191b"/>
          <path id="Trazado_874973" data-name="Trazado 874973" d="M170.267,73.575c-.213,3.951-.587,7.952-1.174,11.893-.378,2.573-.852,5.118-1.431,7.606-2.058,8.864-5.452,17-10.832,23.019-10.492,11.725-25.391,6.615-38.114-4.838A88.725,88.725,0,0,1,98.486,83.772v-.009c-.669-1.444-1.29-2.875-1.841-4.306a43.257,43.257,0,0,1-3.223-14.721q-.022-2.373.006-4.559c.019-1.652.068-3.222.139-4.723.049-.978.112-1.932.182-2.848a66.773,66.773,0,0,1,1.283-9.3c2.409-10.887,7.735-16.1,17.36-20.459,7.008-3.184,18.83-4.25,29.831-3.014a31.04,31.04,0,0,1,24.105,16.551c.42.781.79,1.574,1.132,2.394.006,0,.006.019.014.028a31.209,31.209,0,0,1,2.3,9.391,188.528,188.528,0,0,1,.5,25.374" transform="translate(13.079 2.707)" fill="#ff9f87"/>
          <path id="Trazado_874974" data-name="Trazado 874974" d="M161.72,66.93c-.213,3.951-.587,7.952-1.174,11.893a.429.429,0,0,1-.076,0,6.014,6.014,0,0,1,0-12.028,6.124,6.124,0,0,1,1.251.131" transform="translate(21.625 9.352)" fill="#ff7e6a"/>
          <path id="Trazado_874975" data-name="Trazado 874975" d="M132.03,71.989a6.014,6.014,0,1,1-6.014-6.014,6.014,6.014,0,0,1,6.014,6.014" transform="translate(16.801 9.237)" fill="#ff7e6a"/>
          <path id="Trazado_874976" data-name="Trazado 874976" d="M123.092,57.4s10.285-2.894,18.525-1.235c0,0,1.116-7.386-8.24-6.715-6.789.487-11.331,1.489-10.285,7.949" transform="translate(17.213 6.917)" fill="#21191b"/>
          <path id="Trazado_874977" data-name="Trazado 874977" d="M164.783,58.132s-9.524-3.088-17.3-1.838c0,0-.773-6.957,7.963-5.984,6.338.706,10.554,1.811,9.338,7.822" transform="translate(20.646 7.031)" fill="#21191b"/>
          <path id="Trazado_874978" data-name="Trazado 874978" d="M96.247,72.074q.829,2.139,1.839,4.3v.008a22.478,22.478,0,0,0,11.456,3.4c.3,0,.483-.008.538-.016a1.167,1.167,0,1,0-.148-2.33c-.04,0-.187.008-.414.008a20.315,20.315,0,0,1-13.271-5.369" transform="translate(13.475 10.091)" fill="#ff7e6a"/>
          <path id="Trazado_874979" data-name="Trazado 874979" d="M161.351,115.08c-4.153,7.656-8.927,9.827-23.48,8.7-7.538-.58-15.541-5.75-20.259-12.053a29.075,29.075,0,0,1-5.224-14.093c-.9-8.257-4.851-34.075-4.983-34.981-4.243-.238-9.269-1.564-13.98-2.478.007-.809.027-1.6.049-2.372.027-.8.056-1.585.09-2.352.049-.978.112-1.935.182-2.849a66.3,66.3,0,0,1,1.284-9.3c2.408-10.888,7.734-16.1,17.358-20.456,7.009-3.183,18.832-4.251,29.832-3.015A31.018,31.018,0,0,1,166,35.777c.111.2.222.4.327.608a5.98,5.98,0,0,0-.461-.5c-5.946-5.765-26.285-3.545-33.362-2.428a5.633,5.633,0,0,0-4.753,5.548,5.553,5.553,0,0,0,.132,1.207,8.6,8.6,0,0,1-.363,4.962c-.635,1.64-1.717,3.4-3.455,3.657a10.417,10.417,0,0,0-5.863,2.6c-3.581,3.406-2.415,8.738-2.415,8.738s7.252,27.221,11.8,28.931,8.7-.782,26.208.774c0,0,9.639,1.278,13.143,2.589a1.483,1.483,0,0,1,.726.6c1.94,3.008-2.506,15.006-6.31,22.007" transform="translate(13.081 2.707)" fill="#21191b"/>
          <path id="Trazado_874980" data-name="Trazado 874980" d="M141.539,99.351a12.228,12.228,0,0,1-3.742-1.317,1.115,1.115,0,0,1,1.137-1.919,9.959,9.959,0,0,0,9.242.114,1.116,1.116,0,0,1,1.048,1.97,11.605,11.605,0,0,1-7.685,1.151" transform="translate(19.216 13.435)" fill="#3f3538"/>
          <path id="Trazado_874981" data-name="Trazado 874981" d="M133.86,85.918s12.932,2.79,23.479.814c0,0-4.7,9.218-14.475,7.717-7.624-1.172-9-8.531-9-8.531" transform="translate(18.742 12.029)" fill="#fff"/>
          <path id="Trazado_874982" data-name="Trazado 874982" d="M165.993,35.777a1.67,1.67,0,0,1-.133.113c-5.946-5.766-26.284-3.547-33.361-2.431a5.635,5.635,0,0,0-4.754,5.551,5.544,5.544,0,0,0,.132,1.206,8.6,8.6,0,0,1-.363,4.962c-.635,1.64-1.717,3.4-3.454,3.658a10.405,10.405,0,0,0-5.863,2.6c-11.579,1.409-23.71,5.974-24.729,6.366.028-.8.056-1.586.091-2.353.049-.977.112-1.932.181-2.847a66.242,66.242,0,0,1,1.285-9.3c2.408-10.888,7.733-16.1,17.358-20.459,7.008-3.181,18.831-4.25,29.831-3.014a31.017,31.017,0,0,1,23.779,15.941" transform="translate(13.086 2.707)" fill="#21191b"/>
          <path id="Trazado_874983" data-name="Trazado 874983" d="M129.49,31.875s8.409-1.67,13.592,2.51,6.4,5.051,9.46,4.916c3.226-.143,2.005-6.148,6.2-6.139s-20.957-9.5-29.255-1.287" transform="translate(18.13 3.995)" fill="#21191b"/>
          <path id="Trazado_874984" data-name="Trazado 874984" d="M104.172,50.528S93.4,45.283,90.749,57.859s9.594,23.622,20.55,22.853c0,0-1.747-24.853-7.126-30.183" transform="translate(12.655 6.923)" fill="#ff9f87"/>
          <path id="Trazado_874985" data-name="Trazado 874985" d="M104.758,70.7a1.159,1.159,0,0,1-1.114-.958,19.367,19.367,0,0,0-7.315-11.811A1.161,1.161,0,0,1,97.621,56a21.367,21.367,0,0,1,8.31,13.332,1.161,1.161,0,0,1-.941,1.346,1.068,1.068,0,0,1-.231.018" transform="translate(13.415 7.813)" fill="#ff7e6a"/>
          <path id="Trazado_874986" data-name="Trazado 874986" d="M95.968,64.376a1.161,1.161,0,0,1-.513-2.189c.158-.083,3.918-2.027,6.973-1.464a1.161,1.161,0,1,1-.423,2.283c-1.878-.347-4.587.775-5.473,1.238a1.165,1.165,0,0,1-.564.131" transform="translate(13.278 8.488)" fill="#ff7e6a"/>
          <path id="Trazado_874987" data-name="Trazado 874987" d="M147.669,82.745a17.9,17.9,0,0,1-3.949-.548,1.256,1.256,0,1,1,.6-2.44,12.977,12.977,0,0,0,4.172.43c-.088-2.065-1.483-11.492-2.841-19.874a1.256,1.256,0,0,1,2.48-.4c.725,4.467,3.07,19.173,2.856,20.893a1.968,1.968,0,0,1-.86,1.387,4.454,4.454,0,0,1-2.454.554" transform="translate(19.988 8.24)" fill="#ff7e6a"/>
          <path id="Trazado_874988" data-name="Trazado 874988" d="M133.6,62.511c.039,2.181-.906,3.967-2.111,3.989s-2.213-1.729-2.251-3.911.906-3.967,2.111-3.989,2.213,1.731,2.252,3.911" transform="translate(18.094 8.205)" fill="#21191b"/>
          <path id="Trazado_874989" data-name="Trazado 874989" d="M156.9,62.511c.039,2.181-.907,3.967-2.111,3.989s-2.213-1.729-2.252-3.911.906-3.967,2.112-3.989,2.212,1.731,2.25,3.911" transform="translate(21.357 8.205)" fill="#21191b"/>
          <path id="Trazado_874990" data-name="Trazado 874990" d="M147.556,65.25c0-7.042,5.2-12.77,11.586-12.77s11.585,5.729,11.585,12.77-5.2,12.77-11.585,12.77-11.586-5.729-11.586-12.77m1.488,0c0,6.221,4.53,11.283,10.1,11.283s10.1-5.062,10.1-11.283-4.53-11.283-10.1-11.283-10.1,5.062-10.1,11.283" transform="translate(20.659 7.348)" fill="#fff"/>
          <path id="Trazado_874991" data-name="Trazado 874991" d="M122.392,65.25c0-7.042,5.2-12.77,11.586-12.77s11.585,5.729,11.585,12.77-5.2,12.77-11.585,12.77-11.586-5.729-11.586-12.77m1.488,0c0,6.221,4.53,11.283,10.1,11.283s10.1-5.062,10.1-11.283-4.53-11.283-10.1-11.283-10.1,5.062-10.1,11.283" transform="translate(17.136 7.348)" fill="#fff"/>
          <path id="Trazado_874992" data-name="Trazado 874992" d="M112.888,52.947a29.9,29.9,0,0,1,12.352,5.926c.619.5.975.846,1.041.911l-1.041,1.064c-.014-.014-.23-.222-.629-.559A29.119,29.119,0,0,0,112.928,54.5Z" transform="translate(15.805 7.413)" fill="#fff"/>
          <path id="Trazado_874993" data-name="Trazado 874993" d="M141.3,59.224c4.121-3.555,9.036-.367,9.243-.23l.825-1.238c-.059-.039-6.056-3.959-11.04.343Z" transform="translate(19.648 7.852)" fill="#fff"/>
          <path id="Trazado_874994" data-name="Trazado 874994" d="M155.735,264.52a.853.853,0,0,1-.821-.618c-.083-.29-8.465-29.272-20.814-61.625C117.788,159.543,102,130.366,88.435,117.9a.855.855,0,1,1,1.157-1.259c7.7,7.073,16.006,19.207,24.7,36.066a489.443,489.443,0,0,1,21.408,48.97c9.956,26.081,17.336,49.976,19.885,58.473,7.9-39.776,4.468-75.877.1-99.418-4.866-26.235-11.9-42.962-11.972-43.128a.855.855,0,1,1,1.574-.669c.071.166,7.168,17.028,12.07,43.433a278.941,278.941,0,0,1,4.675,46.724,254.35,254.35,0,0,1-5.464,56.75.857.857,0,0,1-.807.676h-.03" transform="translate(12.343 16.299)" fill="#fff"/>
          <path id="Trazado_874995" data-name="Trazado 874995" d="M129.94,297.57h36.72a1.754,1.754,0,0,0,1.753-1.753V243.164a1.754,1.754,0,0,0-1.753-1.753H129.94a1.754,1.754,0,0,0-1.753,1.753v52.652a1.754,1.754,0,0,0,1.753,1.753" transform="translate(17.947 33.8)" fill="#f5f2ee"/>
          <path id="Trazado_874996" data-name="Trazado 874996" d="M135.788,250.355H158.15a.491.491,0,1,0,0-.982H135.788a.491.491,0,1,0,0,.982" transform="translate(18.943 34.915)" fill="#e6d7d4"/>
          <path id="Trazado_874997" data-name="Trazado 874997" d="M135.788,257.244H158.15a.491.491,0,1,0,0-.982H135.788a.491.491,0,1,0,0,.982" transform="translate(18.943 35.879)" fill="#e6d7d4"/>
          <path id="Trazado_874998" data-name="Trazado 874998" d="M135.788,264.037H158.15a.491.491,0,1,0,0-.982H135.788a.491.491,0,1,0,0,.982" transform="translate(18.943 36.83)" fill="#e6d7d4"/>
          <path id="Trazado_874999" data-name="Trazado 874999" d="M164.792,294.375H131.11a.428.428,0,0,1-.428-.427V244.334a.428.428,0,0,1,.428-.427h33.683a.428.428,0,0,1,.428.427v49.613a.428.428,0,0,1-.428.427m-33.255-.855h32.827V244.761H131.537Z" transform="translate(18.297 34.149)" fill="#e6d7d4"/>
        </g>
      </g>
      <g id="Enmascarar_grupo_1098662" data-name="Enmascarar grupo 1098662" transform="translate(179.25 3658.541)" clip-path="url(#clip-path-2)">
        <path id="Sustracción_1" data-name="Sustracción 1" d="M105.015,210.031A105.789,105.789,0,0,1,83.851,207.9,104.453,104.453,0,0,1,46.3,192.1a105.318,105.318,0,0,1-38.047-46.2A104.524,104.524,0,0,1,2.133,126.18a106.046,106.046,0,0,1,0-42.328A104.453,104.453,0,0,1,17.935,46.3a105.322,105.322,0,0,1,46.2-38.048A104.471,104.471,0,0,1,83.851,2.134a106.027,106.027,0,0,1,42.328,0,104.44,104.44,0,0,1,37.551,15.8,105.327,105.327,0,0,1,38.048,46.2A104.477,104.477,0,0,1,207.9,83.852a106.027,106.027,0,0,1,0,42.328,104.432,104.432,0,0,1-15.8,37.551,105.315,105.315,0,0,1-46.2,38.047,104.493,104.493,0,0,1-19.712,6.119A105.782,105.782,0,0,1,105.015,210.031Zm0-168.1A63.529,63.529,0,0,0,92.3,43.208,62.75,62.75,0,0,0,69.74,52.7,63.276,63.276,0,0,0,46.883,80.458,62.776,62.776,0,0,0,43.206,92.3a63.7,63.7,0,0,0,0,25.43A62.75,62.75,0,0,0,52.7,140.29a63.271,63.271,0,0,0,27.758,22.858A62.746,62.746,0,0,0,92.3,166.824a63.7,63.7,0,0,0,25.43,0,62.744,62.744,0,0,0,22.559-9.493,63.273,63.273,0,0,0,22.857-27.758,62.758,62.758,0,0,0,3.676-11.843,63.7,63.7,0,0,0,0-25.43,62.739,62.739,0,0,0-9.493-22.559,63.271,63.271,0,0,0-27.757-22.858,62.793,62.793,0,0,0-11.843-3.676A63.528,63.528,0,0,0,105.015,41.926Z" transform="translate(133.838 217.958) rotate(180)" fill="url(#radial-gradient)"/>
      </g>
      <g id="Grupo_1099382" data-name="Grupo 1099382" transform="translate(257.123 3709.074)">
        <path id="Trazado_873222" data-name="Trazado 873222" d="M-11400.342-11385.93s37.675-73.634,108.865-89.175" transform="translate(11400.342 11489.822)" fill="none" stroke="#869a8a" stroke-width="2"/>
        <g id="Grupo_1099331" data-name="Grupo 1099331" transform="translate(69.682 58.81) rotate(130)">
          <g id="Grupo_1099328" data-name="Grupo 1099328" transform="translate(0 0)" clip-path="url(#clip-path-3)">
            <path id="Trazado_873219" data-name="Trazado 873219" d="M31.068,27.045s-20.9-38.059-29.85-23.88c0,0-10.448,14.179,29.85,23.88" transform="translate(1.233 0.628)" fill="#c1ddc7"/>
            <path id="Trazado_873220" data-name="Trazado 873220" d="M23.85,18.649c-3.239-3.007-7.963-7.433-11.313-10.216C8.627,5.276,4.694,1.9,0,0L.075.022C.269.075.455.134.642.2.709.224.784.254.866.284c4.552,1.507,8.448,4.6,12.149,7.574A97.978,97.978,0,0,1,23.85,18.649" transform="translate(8.452 9.025)" fill="#869a8a"/>
            <path id="Trazado_873221" data-name="Trazado 873221" d="M32.179,27.979l-.821-.2C19.049,24.818,3.714,19.472.564,10.835A8.272,8.272,0,0,1,1.3,3.317C2.721,1.058,4.567-.069,6.755,0,16.876.313,31.17,26.139,31.774,27.239ZM6.567.747c-1.861,0-3.386.98-4.656,2.991a7.673,7.673,0,0,0-.64,6.86c1.664,4.531,8.137,11,29.427,16.254C28.234,22.539,15.5,1.017,6.732.749l-.165,0" transform="translate(0 0.001)" fill="#869a8a"/>
          </g>
        </g>
        <g id="Grupo_1099332" data-name="Grupo 1099332" transform="matrix(0.309, 0.951, -0.951, 0.309, 52.035, 22.063)">
          <g id="Grupo_1099328-2" data-name="Grupo 1099328" clip-path="url(#clip-path-4)">
            <path id="Trazado_873219-2" data-name="Trazado 873219" d="M26.716,23.256S8.748-9.471,1.048,2.721c0,0-8.984,12.192,25.668,20.535" transform="translate(1.06 0.54)" fill="#c1ddc7"/>
            <path id="Trazado_873220-2" data-name="Trazado 873220" d="M20.509,16.036c-2.785-2.586-6.847-6.391-9.728-8.785C7.418,4.537,4.036,1.636,0,0L.064.019c.167.045.327.1.488.154C.61.193.674.218.744.244,4.659,1.54,8.009,4.2,11.191,6.757a84.253,84.253,0,0,1,9.318,9.279" transform="translate(7.268 7.76)" fill="#869a8a"/>
            <path id="Trazado_873221-2" data-name="Trazado 873221" d="M27.672,24.059l-.706-.169C16.381,21.341,3.194,16.744.485,9.317a7.113,7.113,0,0,1,.63-6.465A5.26,5.26,0,0,1,5.809,0c8.7.266,20.994,22.475,21.513,23.42ZM5.647.642a4.664,4.664,0,0,0-4,2.572,6.6,6.6,0,0,0-.551,5.9c1.431,3.9,7,9.462,25.3,13.977C24.279,19.382,13.33.875,5.789.644l-.142,0" transform="translate(0 0.001)" fill="#869a8a"/>
          </g>
        </g>
        <g id="Grupo_1099333" data-name="Grupo 1099333" transform="matrix(-0.616, 0.788, -0.788, -0.616, 119.181, 19.022)">
          <g id="Grupo_1099328-3" data-name="Grupo 1099328" transform="translate(0 0)" clip-path="url(#clip-path-5)">
            <path id="Trazado_873219-3" data-name="Trazado 873219" d="M34.307,29.864S11.234-12.162,1.345,3.495c0,0-11.537,15.657,32.962,26.369" transform="translate(1.361 0.693)" fill="#c1ddc7"/>
            <path id="Trazado_873220-3" data-name="Trazado 873220" d="M26.336,20.593c-3.576-3.321-8.793-8.207-12.493-11.281C9.526,5.826,5.183,2.1,0,0L.082.025C.3.082.5.148.709.222.783.247.865.28.956.313,5.983,1.978,10.284,5.4,14.371,8.677A108.191,108.191,0,0,1,26.336,20.593" transform="translate(9.333 9.965)" fill="#869a8a"/>
            <path id="Trazado_873221-3" data-name="Trazado 873221" d="M35.534,30.9l-.906-.218C21.035,27.4,4.1,21.5.622,11.965a9.135,9.135,0,0,1,.808-8.3C3,1.168,5.043-.076,7.46,0c11.176.342,26.959,28.86,27.626,30.074ZM7.252.824c-2.055,0-3.739,1.082-5.141,3.3A8.473,8.473,0,0,0,1.4,11.7c1.838,5,8.985,12.151,32.495,17.948C31.177,24.889,17.117,1.123,7.434.827l-.182,0" transform="translate(0 0.001)" fill="#869a8a"/>
          </g>
        </g>
      </g>
      <g id="Grupo_1099383" data-name="Grupo 1099383" transform="translate(421.668 3354.687) rotate(90)">
        <path id="Trazado_873218" data-name="Trazado 873218" d="M0,1.264a1.307,1.307,0,0,1,.322-.9A1.225,1.225,0,0,1,1.286,0a1.262,1.262,0,0,1,.976.361,1.281,1.281,0,0,1,.333.9,1.211,1.211,0,0,1-.333.869,1.285,1.285,0,0,1-.976.35,1.247,1.247,0,0,1-.965-.35A1.235,1.235,0,0,1,0,1.264Zm11.8,0a1.307,1.307,0,0,1,.322-.9A1.225,1.225,0,0,1,13.089,0a1.262,1.262,0,0,1,.976.361,1.281,1.281,0,0,1,.333.9,1.211,1.211,0,0,1-.333.869,1.285,1.285,0,0,1-.976.35,1.247,1.247,0,0,1-.965-.35A1.235,1.235,0,0,1,11.8,1.264Zm11.8,0a1.307,1.307,0,0,1,.322-.9A1.225,1.225,0,0,1,24.891,0a1.262,1.262,0,0,1,.976.361,1.281,1.281,0,0,1,.333.9,1.211,1.211,0,0,1-.333.869,1.285,1.285,0,0,1-.976.35,1.247,1.247,0,0,1-.965-.35A1.235,1.235,0,0,1,23.6,1.264Zm11.8,0a1.307,1.307,0,0,1,.322-.9A1.225,1.225,0,0,1,36.694,0a1.262,1.262,0,0,1,.976.361,1.281,1.281,0,0,1,.333.9,1.211,1.211,0,0,1-.333.869,1.285,1.285,0,0,1-.976.35,1.247,1.247,0,0,1-.965-.35A1.235,1.235,0,0,1,35.407,1.264Zm11.8,0a1.307,1.307,0,0,1,.322-.9A1.225,1.225,0,0,1,48.5,0a1.262,1.262,0,0,1,.976.361,1.281,1.281,0,0,1,.333.9,1.211,1.211,0,0,1-.333.869,1.285,1.285,0,0,1-.976.35,1.247,1.247,0,0,1-.965-.35A1.235,1.235,0,0,1,47.21,1.264Zm11.8,0a1.307,1.307,0,0,1,.322-.9A1.225,1.225,0,0,1,60.3,0a1.262,1.262,0,0,1,.976.361,1.281,1.281,0,0,1,.333.9,1.211,1.211,0,0,1-.333.869,1.285,1.285,0,0,1-.976.35,1.247,1.247,0,0,1-.965-.35A1.235,1.235,0,0,1,59.012,1.264Z" transform="translate(0)" fill="#5f6e62"/>
        <path id="Trazado_873216" data-name="Trazado 873216" d="M0,1.264a1.307,1.307,0,0,1,.322-.9A1.225,1.225,0,0,1,1.286,0a1.262,1.262,0,0,1,.976.361,1.281,1.281,0,0,1,.333.9,1.211,1.211,0,0,1-.333.869,1.285,1.285,0,0,1-.976.35,1.247,1.247,0,0,1-.965-.35A1.235,1.235,0,0,1,0,1.264Zm11.8,0a1.307,1.307,0,0,1,.322-.9A1.225,1.225,0,0,1,13.089,0a1.262,1.262,0,0,1,.976.361,1.281,1.281,0,0,1,.333.9,1.211,1.211,0,0,1-.333.869,1.285,1.285,0,0,1-.976.35,1.247,1.247,0,0,1-.965-.35A1.235,1.235,0,0,1,11.8,1.264Zm11.8,0a1.307,1.307,0,0,1,.322-.9A1.225,1.225,0,0,1,24.891,0a1.262,1.262,0,0,1,.976.361,1.281,1.281,0,0,1,.333.9,1.211,1.211,0,0,1-.333.869,1.285,1.285,0,0,1-.976.35,1.247,1.247,0,0,1-.965-.35A1.235,1.235,0,0,1,23.6,1.264Zm11.8,0a1.307,1.307,0,0,1,.322-.9A1.225,1.225,0,0,1,36.694,0a1.262,1.262,0,0,1,.976.361,1.281,1.281,0,0,1,.333.9,1.211,1.211,0,0,1-.333.869,1.285,1.285,0,0,1-.976.35,1.247,1.247,0,0,1-.965-.35A1.235,1.235,0,0,1,35.407,1.264Zm11.8,0a1.307,1.307,0,0,1,.322-.9A1.225,1.225,0,0,1,48.5,0a1.262,1.262,0,0,1,.976.361,1.281,1.281,0,0,1,.333.9,1.211,1.211,0,0,1-.333.869,1.285,1.285,0,0,1-.976.35,1.247,1.247,0,0,1-.965-.35A1.235,1.235,0,0,1,47.21,1.264Zm11.8,0a1.307,1.307,0,0,1,.322-.9A1.225,1.225,0,0,1,60.3,0a1.262,1.262,0,0,1,.976.361,1.281,1.281,0,0,1,.333.9,1.211,1.211,0,0,1-.333.869,1.285,1.285,0,0,1-.976.35,1.247,1.247,0,0,1-.965-.35A1.235,1.235,0,0,1,59.012,1.264Z" transform="translate(0 8.73)" fill="#5f6e62"/>
        <path id="Trazado_873217" data-name="Trazado 873217" d="M0,1.264a1.307,1.307,0,0,1,.322-.9A1.225,1.225,0,0,1,1.286,0a1.262,1.262,0,0,1,.976.361,1.281,1.281,0,0,1,.333.9,1.211,1.211,0,0,1-.333.869,1.285,1.285,0,0,1-.976.35,1.247,1.247,0,0,1-.965-.35A1.235,1.235,0,0,1,0,1.264Zm11.8,0a1.307,1.307,0,0,1,.322-.9A1.225,1.225,0,0,1,13.089,0a1.262,1.262,0,0,1,.976.361,1.281,1.281,0,0,1,.333.9,1.211,1.211,0,0,1-.333.869,1.285,1.285,0,0,1-.976.35,1.247,1.247,0,0,1-.965-.35A1.235,1.235,0,0,1,11.8,1.264Zm11.8,0a1.307,1.307,0,0,1,.322-.9A1.225,1.225,0,0,1,24.891,0a1.262,1.262,0,0,1,.976.361,1.281,1.281,0,0,1,.333.9,1.211,1.211,0,0,1-.333.869,1.285,1.285,0,0,1-.976.35,1.247,1.247,0,0,1-.965-.35A1.235,1.235,0,0,1,23.6,1.264Zm11.8,0a1.307,1.307,0,0,1,.322-.9A1.225,1.225,0,0,1,36.694,0a1.262,1.262,0,0,1,.976.361,1.281,1.281,0,0,1,.333.9,1.211,1.211,0,0,1-.333.869,1.285,1.285,0,0,1-.976.35,1.247,1.247,0,0,1-.965-.35A1.235,1.235,0,0,1,35.407,1.264Zm11.8,0a1.307,1.307,0,0,1,.322-.9A1.225,1.225,0,0,1,48.5,0a1.262,1.262,0,0,1,.976.361,1.281,1.281,0,0,1,.333.9,1.211,1.211,0,0,1-.333.869,1.285,1.285,0,0,1-.976.35,1.247,1.247,0,0,1-.965-.35A1.235,1.235,0,0,1,47.21,1.264Zm11.8,0a1.307,1.307,0,0,1,.322-.9A1.225,1.225,0,0,1,60.3,0a1.262,1.262,0,0,1,.976.361,1.281,1.281,0,0,1,.333.9,1.211,1.211,0,0,1-.333.869,1.285,1.285,0,0,1-.976.35,1.247,1.247,0,0,1-.965-.35A1.235,1.235,0,0,1,59.012,1.264Z" transform="translate(0 16.946)" fill="#5f6e62"/>
      </g>
      <g id="Grupo_1099953" data-name="Grupo 1099953" transform="translate(0 -16.162)">
        <g id="Grupo_1099952" data-name="Grupo 1099952" transform="translate(2.854 24.838)">
          <rect id="Rectángulo_401736" data-name="Rectángulo 401736" width="119" height="32" rx="7" transform="translate(185.197 3385.162)" fill="#f9a545"/>
          <path id="Trazado_875000" data-name="Trazado 875000" d="M2.1-2.779a1.417,1.417,0,0,1-.991-.277,1.082,1.082,0,0,1-.289-.819q0-.148.018-.5T.89-5.205q.037-.48.08-1.053t.092-1.164q.1-1.244.142-2.019l.068-1.219a5.63,5.63,0,0,1,.074-.708q.037-.154.16-.154.382,0,.782-.018t.77-.043q.369-.025.7-.043t.585-.018a4.138,4.138,0,0,1,1.355.2,2.338,2.338,0,0,1,.917.554,2.184,2.184,0,0,1,.517.862A3.611,3.611,0,0,1,7.293-8.9a3.725,3.725,0,0,1-.382,1.712A2.514,2.514,0,0,1,5.692-6.042L6.727-4.565q.283.419.431.646a.743.743,0,0,1,.148.339.488.488,0,0,1-.1.24,1.361,1.361,0,0,1-.308.308,1.99,1.99,0,0,1-.493.265,1.8,1.8,0,0,1-.646.111.992.992,0,0,1-.683-.259A2.469,2.469,0,0,1,4.553-3.6a5.285,5.285,0,0,1-.394-.979q-.166-.554-.314-1.158a4.772,4.772,0,0,1-.727-.086q-.037.542-.074,1.034t-.062.88q-.025.388-.049.64t-.025.3a.271.271,0,0,1-.049.142.192.192,0,0,1-.148.043ZM4.092-9.8q-.148,0-.332.018t-.394.043q-.025.431-.055,1.028T3.23-7.434a3.434,3.434,0,0,0,.751.1A1.172,1.172,0,0,0,4.6-7.483a1.138,1.138,0,0,0,.376-.363,1.272,1.272,0,0,0,.179-.462A2.6,2.6,0,0,0,5.2-8.752a1.114,1.114,0,0,0-.246-.776A1.129,1.129,0,0,0,4.092-9.8Zm6.957,7.142a4.379,4.379,0,0,1-1.077-.135,2.557,2.557,0,0,1-.96-.468,2.491,2.491,0,0,1-.7-.887,3.16,3.16,0,0,1-.271-1.391,6.651,6.651,0,0,1,.049-.739,4.84,4.84,0,0,1,.191-.887,4.693,4.693,0,0,1,.394-.905,3.075,3.075,0,0,1,.659-.807,3.219,3.219,0,0,1,.985-.579A3.856,3.856,0,0,1,11.7-9.675a3.456,3.456,0,0,1,1.084.148,1.924,1.924,0,0,1,.714.4,1.508,1.508,0,0,1,.394.585,2.04,2.04,0,0,1,.123.714,1.89,1.89,0,0,1-.228.96,2.116,2.116,0,0,1-.591.659,2.936,2.936,0,0,1-.807.413,6.543,6.543,0,0,1-.874.228,6.063,6.063,0,0,1-.794.1q-.363.018-.56.018a1.612,1.612,0,0,0,.068.462,1.189,1.189,0,0,0,.2.4,1.032,1.032,0,0,0,.357.283,1.2,1.2,0,0,0,.542.111.991.991,0,0,0,.5-.1,1.127,1.127,0,0,0,.289-.234q.111-.129.191-.234a.257.257,0,0,1,.215-.1,1.3,1.3,0,0,1,.215.031.962.962,0,0,1,.314.129.982.982,0,0,1,.283.271A.745.745,0,0,1,13.462-4a.915.915,0,0,1-.222.616,1.632,1.632,0,0,1-.573.419,3.166,3.166,0,0,1-.782.234A4.953,4.953,0,0,1,11.049-2.656Zm.234-5.381a.712.712,0,0,0-.462.154,1.3,1.3,0,0,0-.32.388,2.048,2.048,0,0,0-.2.517q-.068.283-.1.542A2.786,2.786,0,0,0,11.437-6.7a.765.765,0,0,0,.474-.7.7.7,0,0,0-.154-.443A.564.564,0,0,0,11.283-8.037Zm6.576,3.743a1.781,1.781,0,0,0,.622-.1,2.547,2.547,0,0,0,.462-.222q.2-.123.332-.222a.433.433,0,0,1,.246-.1q.283,0,.283.369a1.1,1.1,0,0,1-.037.24,2.817,2.817,0,0,1-.1.32q-.062.166-.129.314a1.018,1.018,0,0,1-.129.222q-.062.062-.215.2A2.11,2.11,0,0,1,18.782-3a3.485,3.485,0,0,1-.6.24,2.621,2.621,0,0,1-.763.1,3.533,3.533,0,0,1-.967-.142,2.357,2.357,0,0,1-.905-.493,2.642,2.642,0,0,1-.671-.948,3.7,3.7,0,0,1-.265-1.5,7.138,7.138,0,0,1,.043-.733,4.426,4.426,0,0,1,.179-.85,4.877,4.877,0,0,1,.363-.862,2.679,2.679,0,0,1,.61-.757,3,3,0,0,1,.917-.536,3.594,3.594,0,0,1,1.274-.2,3.392,3.392,0,0,1,1.041.142,2.1,2.1,0,0,1,.72.382,1.553,1.553,0,0,1,.425.56,1.685,1.685,0,0,1,.142.69,1.144,1.144,0,0,1-.419.979,1.938,1.938,0,0,1-1.182.314.694.694,0,0,1-.252-.031Q18.4-6.67,18.4-6.781q0-.3-.012-.53A1.451,1.451,0,0,0,18.32-7.7a.516.516,0,0,0-.166-.246.513.513,0,0,0-.32-.086.79.79,0,0,0-.61.246,1.621,1.621,0,0,0-.345.6,3.078,3.078,0,0,0-.148.72q-.031.369-.031.616a2,2,0,0,0,.277,1.219A1.063,1.063,0,0,0,17.859-4.294Zm5.911,1.638a3.6,3.6,0,0,1-1.41-.24,2.239,2.239,0,0,1-.893-.659A2.494,2.494,0,0,1,21-4.534a5.1,5.1,0,0,1-.135-1.2,5.9,5.9,0,0,1,.179-1.447,3.375,3.375,0,0,1,.61-1.262,3.115,3.115,0,0,1,1.139-.893,4.086,4.086,0,0,1,1.767-.339,2.84,2.84,0,0,1,2.223.757,3.1,3.1,0,0,1,.671,2.124,7.128,7.128,0,0,1-.055.844,4.557,4.557,0,0,1-.209.917,4.354,4.354,0,0,1-.419.887,3.035,3.035,0,0,1-.671.763,3.145,3.145,0,0,1-.979.53A4.151,4.151,0,0,1,23.769-2.656Zm.579-5.381a1.1,1.1,0,0,0-.745.24,1.544,1.544,0,0,0-.419.579A2.614,2.614,0,0,0,23-6.5a5.714,5.714,0,0,0-.043.634,2.167,2.167,0,0,0,.259,1.194.839.839,0,0,0,.739.382.971.971,0,0,0,.708-.271,1.887,1.887,0,0,0,.431-.653,3.283,3.283,0,0,0,.209-.8,5.511,5.511,0,0,0,.055-.7,1.763,1.763,0,0,0-.228-.967A.86.86,0,0,0,24.348-8.037ZM30.505-5q-.037.566-.086,1.077t-.074.893a.325.325,0,0,1-.062.2.31.31,0,0,1-.209.049h-.443a2.007,2.007,0,0,1-.622-.08.92.92,0,0,1-.382-.228.8.8,0,0,1-.2-.363,2.013,2.013,0,0,1-.055-.5q0-.185.018-.523t.068-.936q.049-.6.117-1.515t.166-2.272a.621.621,0,0,1,.062-.32.322.322,0,0,1,.2-.037h.48a1.773,1.773,0,0,1,.6.086,1.142,1.142,0,0,1,.382.222.751.751,0,0,1,.209.32,1.5,1.5,0,0,1,.074.382,2.052,2.052,0,0,1,.813-.9,2.316,2.316,0,0,1,1.071-.234,3.258,3.258,0,0,1,.64.062,1.725,1.725,0,0,1,.554.209,1.4,1.4,0,0,1,.419.388,1.557,1.557,0,0,1,.246.61,2.5,2.5,0,0,1,.837-.991,2.171,2.171,0,0,1,1.145-.277,3.286,3.286,0,0,1,.733.08,1.566,1.566,0,0,1,.61.277,1.369,1.369,0,0,1,.413.536,2.038,2.038,0,0,1,.154.844q0,.382-.037.936t-.086,1.2q-.049.646-.111,1.33t-.1,1.311q-.012.135-.025.209a.232.232,0,0,1-.043.111.155.155,0,0,1-.092.049.929.929,0,0,1-.172.012h-.394a2.285,2.285,0,0,1-.64-.074.892.892,0,0,1-.382-.209.746.746,0,0,1-.191-.339,1.758,1.758,0,0,1-.055-.462q0-.16.018-.456t.049-.64q.031-.345.062-.714t.062-.683q.031-.314.049-.548t.018-.308a1.2,1.2,0,0,0-.129-.566.51.51,0,0,0-.5-.246.8.8,0,0,0-.554.209,1.634,1.634,0,0,0-.394.579,4.261,4.261,0,0,0-.259.874,8.506,8.506,0,0,0-.135,1.1q-.025.382-.062.874T34.2-3.161q-.012.135-.025.209a.232.232,0,0,1-.043.111.155.155,0,0,1-.092.049.929.929,0,0,1-.172.012h-.394a2.285,2.285,0,0,1-.64-.074.892.892,0,0,1-.382-.209A.746.746,0,0,1,32.26-3.4a1.758,1.758,0,0,1-.055-.462q0-.246.043-.72t.086-.985q.043-.511.086-.973t.043-.671a1.2,1.2,0,0,0-.129-.566.51.51,0,0,0-.5-.246.753.753,0,0,0-.566.246,1.917,1.917,0,0,0-.388.659,5.25,5.25,0,0,0-.246.967A11.209,11.209,0,0,0,30.505-5Zm11.821,2.34a4.379,4.379,0,0,1-1.077-.135,2.557,2.557,0,0,1-.96-.468,2.491,2.491,0,0,1-.7-.887,3.16,3.16,0,0,1-.271-1.391,6.651,6.651,0,0,1,.049-.739,4.841,4.841,0,0,1,.191-.887,4.693,4.693,0,0,1,.394-.905,3.074,3.074,0,0,1,.659-.807,3.219,3.219,0,0,1,.985-.579,3.856,3.856,0,0,1,1.379-.222,3.456,3.456,0,0,1,1.084.148,1.924,1.924,0,0,1,.714.4,1.507,1.507,0,0,1,.394.585,2.04,2.04,0,0,1,.123.714,1.89,1.89,0,0,1-.228.96,2.116,2.116,0,0,1-.591.659,2.936,2.936,0,0,1-.807.413,6.544,6.544,0,0,1-.874.228,6.063,6.063,0,0,1-.794.1q-.363.018-.56.018a1.612,1.612,0,0,0,.068.462,1.189,1.189,0,0,0,.2.4,1.032,1.032,0,0,0,.357.283,1.2,1.2,0,0,0,.542.111.991.991,0,0,0,.5-.1,1.127,1.127,0,0,0,.289-.234q.111-.129.191-.234a.257.257,0,0,1,.215-.1,1.3,1.3,0,0,1,.215.031.962.962,0,0,1,.314.129.982.982,0,0,1,.283.271A.745.745,0,0,1,44.74-4a.915.915,0,0,1-.222.616,1.632,1.632,0,0,1-.573.419,3.167,3.167,0,0,1-.782.234A4.953,4.953,0,0,1,42.326-2.656Zm.234-5.381a.712.712,0,0,0-.462.154,1.3,1.3,0,0,0-.32.388,2.048,2.048,0,0,0-.2.517q-.068.283-.1.542A2.786,2.786,0,0,0,42.714-6.7a.765.765,0,0,0,.474-.7.7.7,0,0,0-.154-.443A.564.564,0,0,0,42.56-8.037Zm7.672,4.174q0-.271.043-.708t.086-.924q.043-.486.086-.942t.043-.763a1.078,1.078,0,0,0-.154-.573.643.643,0,0,0-.6-.252,1.169,1.169,0,0,0-.714.209,1.556,1.556,0,0,0-.474.763,7.953,7.953,0,0,0-.314,1.527q-.123.973-.234,2.5a.325.325,0,0,1-.062.2.31.31,0,0,1-.209.049h-.443a2.007,2.007,0,0,1-.622-.08.92.92,0,0,1-.382-.228.8.8,0,0,1-.2-.363,2.013,2.013,0,0,1-.055-.5q0-.185.018-.523t.068-.936q.049-.6.117-1.515T46.4-9.195a.621.621,0,0,1,.062-.32.322.322,0,0,1,.2-.037h.48a1.829,1.829,0,0,1,.61.086,1.078,1.078,0,0,1,.388.228.79.79,0,0,1,.209.332,1.58,1.58,0,0,1,.074.388,2.243,2.243,0,0,1,.874-.905,2.684,2.684,0,0,1,1.231-.252,3.242,3.242,0,0,1,.9.111,1.394,1.394,0,0,1,.634.376,1.641,1.641,0,0,1,.376.69,3.839,3.839,0,0,1,.123,1.053q0,.2-.025.566t-.062.807q-.037.437-.08.911l-.08.88q-.037.406-.062.714t-.025.406q0,.271-.062.326a.441.441,0,0,1-.271.055H51.5a2.285,2.285,0,0,1-.64-.074.892.892,0,0,1-.382-.209.746.746,0,0,1-.191-.339A1.758,1.758,0,0,1,50.232-3.863Zm5.677,1.207a2.478,2.478,0,0,1-.917-.172,1.977,1.977,0,0,1-.763-.542,2.693,2.693,0,0,1-.517-.936,4.306,4.306,0,0,1-.191-1.367,7.149,7.149,0,0,1,.049-.794,5.651,5.651,0,0,1,.172-.88,4.3,4.3,0,0,1,.345-.862,2.934,2.934,0,0,1,.56-.745,2.588,2.588,0,0,1,.813-.523,2.891,2.891,0,0,1,1.114-.2,1.983,1.983,0,0,1,.991.215,1.016,1.016,0,0,1,.474.745q.025-.48.049-.837t.043-.665q.018-.308.043-.616t.049-.7a.621.621,0,0,1,.062-.32.11.11,0,0,1,.062-.031.976.976,0,0,1,.135-.006h.48a1.885,1.885,0,0,1,.616.086,1.027,1.027,0,0,1,.394.234.838.838,0,0,1,.209.339,1.3,1.3,0,0,1,.062.4l-.025.308q-.025.308-.062.819t-.086,1.164q-.049.653-.1,1.348t-.1,1.379q-.049.683-.1,1.256t-.08.985q-.031.413-.043.548a.5.5,0,0,1-.062.2q-.037.049-.209.049h-.443a2.616,2.616,0,0,1-.486-.043,1.125,1.125,0,0,1-.394-.148.718.718,0,0,1-.259-.283,1,1,0,0,1-.092-.462,1.849,1.849,0,0,1-.671.763A2.01,2.01,0,0,1,55.909-2.656ZM56.98-8.037a.993.993,0,0,0-.93.548,3.057,3.057,0,0,0-.3,1.472,4.525,4.525,0,0,0,.043.628,2.031,2.031,0,0,0,.154.554,1.012,1.012,0,0,0,.3.394.771.771,0,0,0,.486.148,1.051,1.051,0,0,0,.887-.517,2.908,2.908,0,0,0,.357-1.625,4.712,4.712,0,0,0-.037-.6,1.584,1.584,0,0,0-.148-.511.929.929,0,0,0-.308-.357A.872.872,0,0,0,56.98-8.037Zm3.793,3.743a1.953,1.953,0,0,1,1-1.736,5.87,5.87,0,0,1,2.943-.677q.012-.135.018-.228t.006-.228a1.166,1.166,0,0,0-.148-.628.679.679,0,0,0-.616-.234,1.007,1.007,0,0,0-.419.074.672.672,0,0,0-.259.2,1.074,1.074,0,0,0-.16.314,4.1,4.1,0,0,0-.111.406.177.177,0,0,1-.111.142.87.87,0,0,1-.271.031q-1.256,0-1.256-.948a1.559,1.559,0,0,1,.179-.727,1.7,1.7,0,0,1,.53-.6,2.775,2.775,0,0,1,.88-.4,4.6,4.6,0,0,1,1.231-.148,2.874,2.874,0,0,1,1.983.566,2.066,2.066,0,0,1,.616,1.6q0,.135-.031.486t-.074.739q-.043.388-.074.733t-.031.48a.674.674,0,0,0,.111.437.585.585,0,0,0,.252.179,2.3,2.3,0,0,0,.252.074.12.12,0,0,1,.111.123,2.191,2.191,0,0,1-.074.554,1.569,1.569,0,0,1-.24.517,1.234,1.234,0,0,1-.456.382,1.544,1.544,0,0,1-.708.148,1.237,1.237,0,0,1-.887-.283,1.439,1.439,0,0,1-.394-.788,2.858,2.858,0,0,1-.77.751,2.172,2.172,0,0,1-1.238.32,2.715,2.715,0,0,1-.7-.086,1.473,1.473,0,0,1-.566-.283,1.384,1.384,0,0,1-.382-.511A1.834,1.834,0,0,1,60.773-4.294ZM64.6-5.7a3.969,3.969,0,0,0-.628.049,2.265,2.265,0,0,0-.548.154,1.056,1.056,0,0,0-.388.277.621.621,0,0,0-.148.419.426.426,0,0,0,.179.394.722.722,0,0,0,.388.111.976.976,0,0,0,.394-.086.981.981,0,0,0,.351-.265,1.674,1.674,0,0,0,.265-.437A1.892,1.892,0,0,0,64.6-5.7Zm6.576,1.4a1.781,1.781,0,0,0,.622-.1,2.547,2.547,0,0,0,.462-.222q.2-.123.332-.222a.433.433,0,0,1,.246-.1q.283,0,.283.369a1.1,1.1,0,0,1-.037.24,2.817,2.817,0,0,1-.1.32q-.062.166-.129.314a1.018,1.018,0,0,1-.129.222q-.062.062-.215.2A2.11,2.11,0,0,1,72.1-3a3.485,3.485,0,0,1-.6.24,2.621,2.621,0,0,1-.763.1,3.533,3.533,0,0,1-.967-.142,2.357,2.357,0,0,1-.905-.493,2.642,2.642,0,0,1-.671-.948,3.7,3.7,0,0,1-.265-1.5,7.14,7.14,0,0,1,.043-.733,4.426,4.426,0,0,1,.179-.85,4.877,4.877,0,0,1,.363-.862,2.679,2.679,0,0,1,.61-.757,3,3,0,0,1,.917-.536,3.594,3.594,0,0,1,1.274-.2,3.393,3.393,0,0,1,1.041.142,2.1,2.1,0,0,1,.72.382,1.553,1.553,0,0,1,.425.56,1.685,1.685,0,0,1,.142.69,1.144,1.144,0,0,1-.419.979,1.938,1.938,0,0,1-1.182.314.694.694,0,0,1-.252-.031q-.068-.031-.068-.142,0-.3-.012-.53A1.451,1.451,0,0,0,71.64-7.7a.516.516,0,0,0-.166-.246.513.513,0,0,0-.32-.086.79.79,0,0,0-.61.246,1.621,1.621,0,0,0-.345.6,3.078,3.078,0,0,0-.148.72q-.031.369-.031.616A2,2,0,0,0,70.3-4.639,1.063,1.063,0,0,0,71.178-4.294ZM75.6-2.779a2.007,2.007,0,0,1-.622-.08.92.92,0,0,1-.382-.228.8.8,0,0,1-.2-.363,2.013,2.013,0,0,1-.055-.5q0-.185.018-.523t.068-.936q.049-.6.117-1.515t.166-2.272a.621.621,0,0,1,.062-.32.322.322,0,0,1,.2-.037h.48a2.164,2.164,0,0,1,.622.074.871.871,0,0,1,.382.222.8.8,0,0,1,.2.357,1.829,1.829,0,0,1,.055.468q0,.185-.025.554t-.068,1q-.043.634-.117,1.576t-.185,2.272a.325.325,0,0,1-.062.2.31.31,0,0,1-.209.049ZM74.725-11a.936.936,0,0,1,.357-.776,1.5,1.5,0,0,1,.96-.283,1.134,1.134,0,0,1,.77.215.732.732,0,0,1,.24.573.972.972,0,0,1-.339.757,1.446,1.446,0,0,1-.991.3Q74.725-10.217,74.725-11Zm5.825,8.349a3.6,3.6,0,0,1-1.41-.24,2.239,2.239,0,0,1-.893-.659,2.494,2.494,0,0,1-.468-.979,5.1,5.1,0,0,1-.135-1.2,5.894,5.894,0,0,1,.179-1.447,3.375,3.375,0,0,1,.61-1.262,3.115,3.115,0,0,1,1.139-.893,4.086,4.086,0,0,1,1.767-.339,2.84,2.84,0,0,1,2.223.757,3.1,3.1,0,0,1,.671,2.124,7.128,7.128,0,0,1-.055.844,4.557,4.557,0,0,1-.209.917,4.354,4.354,0,0,1-.419.887,3.035,3.035,0,0,1-.671.763,3.145,3.145,0,0,1-.979.53A4.151,4.151,0,0,1,80.549-2.656Zm.579-5.381a1.1,1.1,0,0,0-.745.24,1.544,1.544,0,0,0-.419.579,2.614,2.614,0,0,0-.185.714,5.714,5.714,0,0,0-.043.634,2.167,2.167,0,0,0,.259,1.194.839.839,0,0,0,.739.382.971.971,0,0,0,.708-.271,1.887,1.887,0,0,0,.431-.653,3.284,3.284,0,0,0,.209-.8,5.511,5.511,0,0,0,.055-.7,1.763,1.763,0,0,0-.228-.967A.86.86,0,0,0,81.128-8.037Zm8.226,4.174q0-.271.043-.708t.086-.924q.043-.486.086-.942t.043-.763a1.078,1.078,0,0,0-.154-.573.643.643,0,0,0-.6-.252,1.169,1.169,0,0,0-.714.209,1.556,1.556,0,0,0-.474.763,7.954,7.954,0,0,0-.314,1.527q-.123.973-.234,2.5a.325.325,0,0,1-.062.2.31.31,0,0,1-.209.049h-.443a2.007,2.007,0,0,1-.622-.08.92.92,0,0,1-.382-.228.8.8,0,0,1-.2-.363,2.013,2.013,0,0,1-.055-.5q0-.185.018-.523t.068-.936q.049-.6.117-1.515t.166-2.272a.621.621,0,0,1,.062-.32.322.322,0,0,1,.2-.037h.48a1.828,1.828,0,0,1,.61.086,1.078,1.078,0,0,1,.388.228.791.791,0,0,1,.209.332,1.58,1.58,0,0,1,.074.388,2.243,2.243,0,0,1,.874-.905,2.685,2.685,0,0,1,1.231-.252,3.242,3.242,0,0,1,.9.111,1.394,1.394,0,0,1,.634.376,1.641,1.641,0,0,1,.376.69,3.839,3.839,0,0,1,.123,1.053q0,.2-.025.566t-.062.807q-.037.437-.08.911l-.08.88q-.037.406-.062.714t-.025.406q0,.271-.062.326a.441.441,0,0,1-.271.055h-.394a2.285,2.285,0,0,1-.64-.074.892.892,0,0,1-.382-.209.746.746,0,0,1-.191-.339A1.758,1.758,0,0,1,89.354-3.863Zm6.268,1.207a4.379,4.379,0,0,1-1.077-.135,2.557,2.557,0,0,1-.96-.468,2.491,2.491,0,0,1-.7-.887,3.16,3.16,0,0,1-.271-1.391,6.651,6.651,0,0,1,.049-.739,4.84,4.84,0,0,1,.191-.887,4.693,4.693,0,0,1,.394-.905,3.075,3.075,0,0,1,.659-.807,3.219,3.219,0,0,1,.985-.579,3.856,3.856,0,0,1,1.379-.222,3.456,3.456,0,0,1,1.084.148,1.924,1.924,0,0,1,.714.4,1.508,1.508,0,0,1,.394.585,2.04,2.04,0,0,1,.123.714,1.89,1.89,0,0,1-.228.96,2.116,2.116,0,0,1-.591.659,2.936,2.936,0,0,1-.807.413,6.544,6.544,0,0,1-.874.228,6.063,6.063,0,0,1-.794.1q-.363.018-.56.018a1.612,1.612,0,0,0,.068.462,1.189,1.189,0,0,0,.2.4,1.032,1.032,0,0,0,.357.283A1.2,1.2,0,0,0,95.9-4.2a.991.991,0,0,0,.5-.1,1.127,1.127,0,0,0,.289-.234q.111-.129.191-.234a.257.257,0,0,1,.215-.1,1.3,1.3,0,0,1,.215.031.962.962,0,0,1,.314.129.982.982,0,0,1,.283.271A.745.745,0,0,1,98.035-4a.915.915,0,0,1-.222.616,1.632,1.632,0,0,1-.573.419,3.166,3.166,0,0,1-.782.234A4.953,4.953,0,0,1,95.621-2.656Zm.234-5.381a.712.712,0,0,0-.462.154,1.3,1.3,0,0,0-.32.388,2.048,2.048,0,0,0-.2.517q-.068.283-.1.542A2.786,2.786,0,0,0,96.009-6.7a.765.765,0,0,0,.474-.7.7.7,0,0,0-.154-.443A.564.564,0,0,0,95.855-8.037ZM102.2-9.675a2.371,2.371,0,0,1,1.539.413,1.313,1.313,0,0,1,.493,1.053,1.015,1.015,0,0,1-.339.825,1.489,1.489,0,0,1-.979.283.5.5,0,0,1-.234-.037.145.145,0,0,1-.062-.135,1.976,1.976,0,0,0-.018-.252.8.8,0,0,0-.086-.271.553.553,0,0,0-.209-.215.773.773,0,0,0-.4-.086.865.865,0,0,0-.554.166.508.508,0,0,0-.209.413.482.482,0,0,0,.215.413,2.748,2.748,0,0,0,.542.289q.326.135.708.277a3,3,0,0,1,.708.376,2,2,0,0,1,.542.585,1.708,1.708,0,0,1,.215.905,1.869,1.869,0,0,1-.628,1.453,2.735,2.735,0,0,1-1.884.566,6.58,6.58,0,0,1-.794-.055,5.54,5.54,0,0,1-.856-.172,2.241,2.241,0,0,1-.683-.314.586.586,0,0,1-.277-.493,1.074,1.074,0,0,1,.043-.271,1.137,1.137,0,0,1,.135-.308,1.011,1.011,0,0,1,.222-.252.483.483,0,0,1,.314-.1.517.517,0,0,1,.271.074q.123.074.289.154a2.857,2.857,0,0,0,.413.154,2.34,2.34,0,0,0,.653.074,1.863,1.863,0,0,0,.548-.074.316.316,0,0,0,.24-.332.441.441,0,0,0-.2-.376,2.433,2.433,0,0,0-.5-.265l-.653-.265a2.723,2.723,0,0,1-.653-.376,1.874,1.874,0,0,1-.5-.6,1.969,1.969,0,0,1-.2-.942,2.1,2.1,0,0,1,.252-1.065,2.122,2.122,0,0,1,.653-.708,2.676,2.676,0,0,1,.905-.388A4.46,4.46,0,0,1,102.2-9.675Z" transform="translate(191.931 3408.608)" fill="#12263f"/>
        </g>
        <path id="Polígono_1" data-name="Polígono 1" d="M6.5,0,13,19.012H0Z" transform="translate(322.834 3419.5) rotate(90)" fill="#f9a545"/>
      </g>
    </g>
    <g id="Grupo_1099997" data-name="Grupo 1099997" transform="translate(-1018.508 -1369.508)">
      <g id="Grupo_1099983" data-name="Grupo 1099983" transform="translate(1222.559 4664.508)">
        <circle id="Elipse_11585" data-name="Elipse 11585" cx="43.5" cy="43.5" r="43.5" fill="#fddbb4"/>
        <circle id="Elipse_11586" data-name="Elipse 11586" cx="31.5" cy="31.5" r="31.5" transform="translate(12 12)" fill="#feedda"/>
      </g>
      <g id="Layer_1" transform="translate(1239.478 4683.008)">
        <g id="Grupo_1100024" data-name="Grupo 1100024" transform="translate(6.081 3.5)">
          <g id="Grupo_1100020" data-name="Grupo 1100020" transform="translate(0.424 0.423)">
            <g id="Grupo_1100009" data-name="Grupo 1100009" transform="translate(17.618)">
              <path id="Trazado_875526" data-name="Trazado 875526" d="M116.112,6a3.349,3.349,0,0,0-3.349,3.349v2a3.349,3.349,0,1,0,6.7,0v-2A3.349,3.349,0,0,0,116.112,6Z" transform="translate(-112.763 -6)" fill="#feb69f"/>
            </g>
            <g id="Grupo_1100010" data-name="Grupo 1100010" transform="translate(4.293 8.695)">
              <path id="Trazado_875527" data-name="Trazado 875527" d="M67.323,59.248a1.838,1.838,0,0,1-1.838,1.84H56.99a.522.522,0,0,0-.521.561l1.953,25.881.744,1.744a.508.508,0,0,1-.467.707H54.781a.847.847,0,0,1-.844-.775L52.909,77.033a2.267,2.267,0,0,0-4.519,0L47.362,89.207a.847.847,0,0,1-.844.775H42.6a.508.508,0,0,1-.467-.707l.744-1.744.364-4.81a1.8,1.8,0,1,0,.269-3.565L44.83,61.65a.522.522,0,0,0-.521-.561H35.814a1.839,1.839,0,0,1,0-3.678H65.485A1.839,1.839,0,0,1,67.323,59.248Z" transform="translate(-33.976 -57.41)" fill="#72c2e9"/>
            </g>
            <g id="Grupo_1100011" data-name="Grupo 1100011" transform="translate(19.705 13.362)">
              <circle id="Elipse_11589" data-name="Elipse 11589" cx="1.803" cy="1.803" r="1.803" fill="#fc5d3d"/>
            </g>
            <g id="Grupo_1100012" data-name="Grupo 1100012" transform="translate(12.348 2.372)">
              <circle id="Elipse_11590" data-name="Elipse 11590" cx="1.803" cy="1.803" r="1.803" fill="#fc5d3d"/>
            </g>
            <g id="Grupo_1100013" data-name="Grupo 1100013" transform="translate(4.293 8.695)">
              <path id="Trazado_875528" data-name="Trazado 875528" d="M41.4,57.41v3.678H35.811a1.839,1.839,0,0,1,0-3.678Z" transform="translate(-33.973 -57.41)" fill="#feb69f"/>
            </g>
            <g id="Grupo_1100014" data-name="Grupo 1100014" transform="translate(30.212 8.695)">
              <path id="Trazado_875529" data-name="Trazado 875529" d="M194.661,59.248a1.838,1.838,0,0,1-1.838,1.84h-5.589V57.41h5.589A1.839,1.839,0,0,1,194.661,59.248Z" transform="translate(-187.233 -57.41)" fill="#feb69f"/>
            </g>
            <g id="Grupo_1100015" data-name="Grupo 1100015" transform="translate(26.453 0.901)">
              <circle id="Elipse_11591" data-name="Elipse 11591" cx="1.803" cy="1.803" r="1.803" fill="#fc5d3d"/>
            </g>
            <g id="Grupo_1100017" data-name="Grupo 1100017" transform="translate(0 15.927)">
              <g id="Grupo_1100016" data-name="Grupo 1100016">
                <path id="Trazado_875530" data-name="Trazado 875530" d="M18.736,109.79H9.321a.73.73,0,0,1-.632-1.095l1.5-2.6,3.207-5.554a.729.729,0,0,1,1.264,0l4.707,8.153a.73.73,0,0,1-.632,1.095Z" transform="translate(-8.59 -100.176)" fill="#f0c020"/>
              </g>
            </g>
            <g id="Grupo_1100019" data-name="Grupo 1100019" transform="translate(12.122 30.44)">
              <g id="Grupo_1100018" data-name="Grupo 1100018">
                <path id="Trazado_875531" data-name="Trazado 875531" d="M83.872,187.791a1.8,1.8,0,1,1-1.9-1.8A1.8,1.8,0,0,1,83.872,187.791Z" transform="translate(-80.266 -185.99)" fill="#fc5d3d"/>
              </g>
            </g>
          </g>
          <g id="Grupo_1100023" data-name="Grupo 1100023" transform="translate(0)">
            <g id="Grupo_1100021" data-name="Grupo 1100021" transform="translate(25.161 12.24)">
              <path id="Trazado_875532" data-name="Trazado 875532" d="M157.525,104.173h-1.646a.423.423,0,1,1,0-.846H156.9c-.007-.037-1.835-24.266-1.838-24.3a.423.423,0,1,1,.843-.064l1.826,24.185.187.439A.423.423,0,0,1,157.525,104.173Zm-2.174-26.445a.423.423,0,0,1-.421-.391l-.076-1.012a.423.423,0,1,1,.843-.064l.076,1.012a.423.423,0,0,1-.39.453Z" transform="translate(-154.853 -75.871)" fill="#c5e5fe"/>
            </g>
            <g id="Grupo_1100022" data-name="Grupo 1100022" transform="translate(1.491 17.534)">
              <path id="Trazado_875533" data-name="Trazado 875533" d="M23.218,114.859H17.586a.423.423,0,0,1,0-.846h4.9L18.9,107.808a.423.423,0,0,1,.732-.423l3.949,6.84A.423.423,0,0,1,23.218,114.859Zm-7.323,0h-.574a.423.423,0,1,1,0-.846H15.9a.423.423,0,0,1,0,.846Z" transform="translate(-14.898 -107.174)" fill="#f8e5b0"/>
            </g>
            <path id="Trazado_875534" data-name="Trazado 875534" d="M123.028,37.217a.424.424,0,0,0,.423-.423.839.839,0,1,1,1.678,0,.423.423,0,0,0,.846,0,1.684,1.684,0,1,0-3.369,0A.423.423,0,0,0,123.028,37.217Z" transform="translate(-102.898 -29.764)"/>
            <path id="Trazado_875535" data-name="Trazado 875535" d="M114.076,13.426a.425.425,0,0,0,.054-.32.417.417,0,0,0-.188-.264.43.43,0,0,0-.582.132.421.421,0,0,0,.132.583.426.426,0,0,0,.583-.132Z" transform="translate(-95.162 -11.211)"/>
            <path id="Trazado_875536" data-name="Trazado 875536" d="M62.952,15.59a2.226,2.226,0,1,0-1.4-3.951l-2.029-1.7a.419.419,0,0,0-.271-.1H57.408a.423.423,0,0,0,0,.846H59.1l1.91,1.6a2.223,2.223,0,0,0,1.946,3.3Zm-1.278-2.744,1.006.843a.423.423,0,1,0,.543-.648l-1-.842a1.379,1.379,0,1,1-.544.647Z" transform="translate(-48.376 -8.768)"/>
            <path id="Trazado_875537" data-name="Trazado 875537" d="M123.451,22.487v-.394a.423.423,0,1,0-.846,0v.394a.423.423,0,1,0,.846,0Z" transform="translate(-102.898 -18.597)"/>
            <path id="Trazado_875538" data-name="Trazado 875538" d="M138.371,22.487v-.394a.423.423,0,0,0-.846,0v.394a.423.423,0,0,0,.846,0Z" transform="translate(-115.295 -18.597)"/>
            <path id="Trazado_875539" data-name="Trazado 875539" d="M31.473,14.456a2.265,2.265,0,0,0,2.261,2.263h8.5a.1.1,0,0,1,.1.1c0,.013-1.294,17.165-1.3,17.178a2.223,2.223,0,0,0-1.351,3.412l-1.807,1.8H36.209a.423.423,0,0,0,0,.846h1.843a.423.423,0,0,0,.3-.123L40.282,38a2.25,2.25,0,0,0,.432.23l-.333,4.4-.717,1.679a.933.933,0,0,0,.856,1.3h3.919A1.269,1.269,0,0,0,45.7,44.449l1.028-12.173a1.845,1.845,0,0,1,3.677,0l1.028,12.173A1.269,1.269,0,0,0,52.7,45.611H56.62a.933.933,0,0,0,.856-1.3l-.717-1.679-.906-12.019a.423.423,0,0,0-.844.061v0l.913,12.091a12.4,12.4,0,0,0,.776,1.877.086.086,0,0,1-.078.118H52.7a.427.427,0,0,1-.423-.387L51.25,32.205a2.69,2.69,0,0,0-5.361,0L44.861,44.378a.426.426,0,0,1-.423.387H40.519a.086.086,0,0,1-.078-.117,12.447,12.447,0,0,0,.776-1.879l.331-4.383a2.223,2.223,0,0,0,.333-4.417c.006-.079,1.292-17.074,1.292-17.153a.947.947,0,0,0-.945-.944H39.746V13.04H57.393v2.833H54.91a.945.945,0,0,0-.942,1.021l.432,5.726-3.3-2.539a2.224,2.224,0,1,0-4.212-.993,2.22,2.22,0,0,0,3.7,1.664l3.9,3,.268,3.554a.422.422,0,1,0,.842-.064l-.211-2.8,2.193,1.686a.419.419,0,0,0,.257.088H60.15a.423.423,0,1,0,0-.846H57.98l-2.68-2.06-.49-6.487v-.008a.1.1,0,0,1,.1-.1H63.4a2.262,2.262,0,0,0,0-4.524H50.946a3.765,3.765,0,0,0,1.4-2.926v-2a3.772,3.772,0,0,0-5.6-3.3.424.424,0,0,0-.166.575.434.434,0,0,0,.575.164,2.888,2.888,0,0,1,1.416-.364A2.938,2.938,0,0,1,51.5,7.271v2a2.926,2.926,0,1,1-5.852,0c0-2.209,0-1.994,0-2.163A.423.423,0,1,0,44.8,7.06c-.008.168-.005.148-.005,2.209a3.765,3.765,0,0,0,1.395,2.926H33.734a2.266,2.266,0,0,0-2.261,2.261ZM42.908,36.164A1.384,1.384,0,0,1,40.9,37.391l.93-.927a.426.426,0,0,0,0-.6.43.43,0,0,0-.6,0l-.929.927a1.377,1.377,0,0,1,1.144-2.006,1.386,1.386,0,0,1,1.463,1.378Zm7.5-16.613-1.04-.8a.434.434,0,0,0-.594.078.425.425,0,0,0,.078.594l1.04.8a1.393,1.393,0,1,1,.516-.671Zm7.83-6.511H63.4a1.416,1.416,0,0,1,0,2.833H58.238ZM38.9,15.873H33.734a1.416,1.416,0,0,1,0-2.833H38.9Z" transform="translate(-27.179 -3.5)"/>
            <path id="Trazado_875540" data-name="Trazado 875540" d="M170.268,151.553a.422.422,0,1,0,.455.389A.424.424,0,0,0,170.268,151.553Z" transform="translate(-142.177 -126.513)"/>
            <path id="Trazado_875541" data-name="Trazado 875541" d="M11.438,237.176h5.836a.423.423,0,0,0,0-.846H11.438a.423.423,0,0,0,0,.846Z" transform="translate(-10.181 -196.953)"/>
            <path id="Trazado_875542" data-name="Trazado 875542" d="M11.438,226.336h5.836a.423.423,0,0,0,0-.846H11.438a.423.423,0,0,0,0,.846Z" transform="translate(-10.181 -187.947)"/>
            <path id="Trazado_875543" data-name="Trazado 875543" d="M11.438,215.486h5.836a.423.423,0,1,0,0-.846H11.438a.423.423,0,1,0,0,.846Z" transform="translate(-10.181 -178.932)"/>
            <path id="Trazado_875544" data-name="Trazado 875544" d="M205.057,242.693a.423.423,0,0,0-.423-.423h-8.147a.423.423,0,0,0,0,.846h8.147A.423.423,0,0,0,205.057,242.693Z" transform="translate(-163.935 -201.889)"/>
            <path id="Trazado_875545" data-name="Trazado 875545" d="M204.634,231.43h-8.147a.423.423,0,0,0,0,.846h8.147a.423.423,0,0,0,0-.846Z" transform="translate(-163.935 -192.882)"/>
            <path id="Trazado_875546" data-name="Trazado 875546" d="M204.634,220.58h-8.147a.423.423,0,1,0,0,.846h8.147a.423.423,0,1,0,0-.846Z" transform="translate(-163.935 -183.867)"/>
            <path id="Trazado_875547" data-name="Trazado 875547" d="M196.488,208.62a.423.423,0,0,0,0,.846h4.072a.423.423,0,0,0,0-.846Z" transform="translate(-163.935 -173.93)"/>
            <path id="Trazado_875548" data-name="Trazado 875548" d="M11.438,31.7h5.836a.423.423,0,0,0,0-.846H11.438a.423.423,0,0,0,0,.846Z" transform="translate(-10.181 -26.225)"/>
            <path id="Trazado_875549" data-name="Trazado 875549" d="M11.438,20.856h5.836a.423.423,0,1,0,0-.846H11.438a.423.423,0,1,0,0,.846Z" transform="translate(-10.181 -17.218)"/>
            <path id="Trazado_875550" data-name="Trazado 875550" d="M11.438,10.006h5.836a.423.423,0,0,0,0-.846H11.438a.423.423,0,1,0,0,.846Z" transform="translate(-10.181 -8.203)"/>
            <path id="Trazado_875551" data-name="Trazado 875551" d="M216.674,41.18h-5.836a.423.423,0,1,0,0,.846h5.836a.423.423,0,0,0,0-.846Z" transform="translate(-175.858 -34.807)"/>
            <path id="Trazado_875552" data-name="Trazado 875552" d="M216.674,30.33h-5.836a.423.423,0,1,0,0,.846h5.836a.423.423,0,0,0,0-.846Z" transform="translate(-175.858 -25.792)"/>
            <path id="Trazado_875553" data-name="Trazado 875553" d="M216.674,19.49h-5.836a.423.423,0,1,0,0,.846h5.836a.423.423,0,0,0,0-.846Z" transform="translate(-175.858 -16.786)"/>
            <path id="Trazado_875554" data-name="Trazado 875554" d="M166.915,11.478h2.171a.423.423,0,0,0,0-.846h-2.171a2.226,2.226,0,1,0,0,.846Zm-3.564-.423a1.379,1.379,0,0,1,2.692-.423h-1.312a.423.423,0,1,0,0,.846h1.312a1.379,1.379,0,0,1-2.692-.423Z" transform="translate(-136.05 -7.929)"/>
            <path id="Trazado_875555" data-name="Trazado 875555" d="M38.669,124.447a.423.423,0,0,0,.423-.423V122.8a.423.423,0,1,0-.846,0v1.226A.423.423,0,0,0,38.669,124.447Z" transform="translate(-32.806 -102.271)"/>
            <path id="Trazado_875556" data-name="Trazado 875556" d="M38.246,137.55a.423.423,0,1,0,.846,0v-.257a.423.423,0,1,0-.846,0Z" transform="translate(-32.806 -114.314)"/>
            <path id="Trazado_875557" data-name="Trazado 875557" d="M7.237,108.138h9.415a1.153,1.153,0,0,0,1-1.728l-4.707-8.153a1.152,1.152,0,0,0-2,0l-.878,1.52a.411.411,0,0,0-.042.321.422.422,0,0,0,.2.257.437.437,0,0,0,.578-.156l.878-1.52a.306.306,0,0,1,.531,0l4.708,8.155a.308.308,0,0,1-.266.46H7.237a.306.306,0,0,1-.267-.458l2.139-3.705a.422.422,0,0,0-.156-.577.432.432,0,0,0-.577.154l-2.138,3.7a1.154,1.154,0,0,0,1,1.728Z" transform="translate(-6.081 -81.752)"/>
            <path id="Trazado_875558" data-name="Trazado 875558" d="M24.376,117.72a.423.423,0,1,0,.577-.154A.432.432,0,0,0,24.376,117.72Z" transform="translate(-21.235 -98.23)"/>
            <path id="Trazado_875559" data-name="Trazado 875559" d="M216.751,154.943a.423.423,0,0,0-.423-.423h-5.661a.423.423,0,0,0,0,.846h5.661A.423.423,0,0,0,216.751,154.943Z" transform="translate(-175.716 -128.979)"/>
            <path id="Trazado_875560" data-name="Trazado 875560" d="M216.328,143.68h-5.661a.423.423,0,0,0,0,.846h5.661a.423.423,0,0,0,0-.846Z" transform="translate(-175.716 -119.972)"/>
            <path id="Trazado_875561" data-name="Trazado 875561" d="M216.328,132.83h-5.661a.423.423,0,0,0,0,.846h5.661a.423.423,0,0,0,0-.846Z" transform="translate(-175.716 -110.957)"/>
          </g>
        </g>
      </g>
    </g>
    <g id="Grupo_1100000" data-name="Grupo 1100000" transform="translate(-1018.508 -1128.508)">
      <g id="Grupo_1099983-2" data-name="Grupo 1099983" transform="translate(1222.559 4664.508)">
        <circle id="Elipse_11585-2" data-name="Elipse 11585" cx="56.5" cy="56.5" r="56.5" fill="#fddbb4"/>
        <circle id="Elipse_11586-2" data-name="Elipse 11586" cx="41" cy="41" r="41" transform="translate(16 16)" fill="#feedda"/>
      </g>
      <g id="seguro-de-salud" transform="translate(1249.269 4697.001)">
        <g id="Grupo_1100007" data-name="Grupo 1100007" transform="translate(5.499 0.748)">
          <g id="Grupo_1100005" data-name="Grupo 1100005" transform="translate(0)">
            <g id="Grupo_1100004" data-name="Grupo 1100004">
              <path id="Trazado_875518" data-name="Trazado 875518" d="M36.549,57.03c25-10.239,24.289-39.053,24.289-39.053C52.98,10.119,36.549,7.5,36.549,7.5S20.118,10.119,12.26,17.977C12.26,17.977,11.546,46.791,36.549,57.03Z" transform="translate(-12.258 -7.5)" fill="#a2c6fe"/>
              <path id="Trazado_875519" data-name="Trazado 875519" d="M36.549,57.071c-25-10.24-24.289-39.053-24.289-39.053C19.948,10.33,35.84,7.657,36.526,7.545c-.533.1-10.355,2.061-17.277,7.378a8.077,8.077,0,0,0-3.114,7.087C16.832,30.283,20.226,49.185,36.549,57.071Z" transform="translate(-12.258 -7.541)" fill="#7898d5"/>
              <path id="Trazado_875520" data-name="Trazado 875520" d="M85.387,99.965C77.655,96.2,72.148,89.828,69,80.992a46.4,46.4,0,0,1-2.5-11.929c5.5-4.218,14.65-6.622,18.88-7.409,4.231.794,13.4,3.212,18.89,7.411a46.407,46.407,0,0,1-2.5,11.927C98.626,89.828,93.119,96.2,85.387,99.965Z" transform="translate(-61.096 -56.256)" fill="#f5f0f0"/>
              <path id="Trazado_875521" data-name="Trazado 875521" d="M85.387,99.965C77.656,96.2,72.149,89.827,69,80.991a46.385,46.385,0,0,1-2.5-11.929c5.5-4.218,14.651-6.622,18.88-7.41a49.659,49.659,0,0,0-9.311,3.071A10.609,10.609,0,0,0,70.03,76.58c.294,1.4.667,2.886,1.138,4.411C73.9,89.827,78.678,96.2,85.387,99.965Z" transform="translate(-61.096 -56.255)" fill="#e8ded8"/>
            </g>
          </g>
          <g id="Grupo_1100006" data-name="Grupo 1100006" transform="translate(14.879 13.715)">
            <path id="Trazado_875522" data-name="Trazado 875522" d="M179.037,150.606q-1.475-.064-2.95-.1A1.117,1.117,0,0,1,175,149.416q-.04-1.475-.1-2.95a1.109,1.109,0,0,0-.886-1.042,15.574,15.574,0,0,0-6.087,0,1.109,1.109,0,0,0-.886,1.042q-.064,1.475-.1,2.95a1.117,1.117,0,0,1-1.087,1.087q-1.475.04-2.95.1a1.109,1.109,0,0,0-1.042.886,15.574,15.574,0,0,0,0,6.087,1.109,1.109,0,0,0,1.042.886q1.475.064,2.95.1a1.117,1.117,0,0,1,1.087,1.087q.04,1.475.1,2.95a1.109,1.109,0,0,0,.886,1.042,15.574,15.574,0,0,0,6.087,0,1.109,1.109,0,0,0,.886-1.042q.064-1.475.1-2.95a1.117,1.117,0,0,1,1.087-1.087q1.475-.04,2.95-.1a1.109,1.109,0,0,0,1.042-.886,15.574,15.574,0,0,0,0-6.087,1.109,1.109,0,0,0-1.042-.886Z" transform="translate(-161.555 -145.123)" fill="#dd636e"/>
          </g>
        </g>
        <g id="Grupo_1100008" data-name="Grupo 1100008" transform="translate(4.751 0)">
          <path id="Trazado_875523" data-name="Trazado 875523" d="M54.826,11.207a.748.748,0,0,0-.219-.51c-3.344-3.344-8.522-6.159-15.391-8.369A68.968,68.968,0,0,0,29.908.01a.745.745,0,0,0-.235,0,68.967,68.967,0,0,0-9.309,2.319C13.495,4.537,8.316,7.353,4.973,10.7a.748.748,0,0,0-.219.51,49.59,49.59,0,0,0,2.809,15.95,41.983,41.983,0,0,0,7.309,13.177A37.1,37.1,0,0,0,29.507,50.97a.747.747,0,0,0,.567,0A37.1,37.1,0,0,0,44.708,40.334a41.984,41.984,0,0,0,7.309-13.177,49.584,49.584,0,0,0,2.809-15.95ZM50.588,26.714A40.465,40.465,0,0,1,43.54,39.4,35.578,35.578,0,0,1,29.79,49.469,35.579,35.579,0,0,1,16.04,39.4,40.468,40.468,0,0,1,8.992,26.714,49.835,49.835,0,0,1,6.247,11.54C13.576,4.45,28.32,1.759,29.79,1.506,31.261,1.759,46,4.45,53.333,11.54A49.839,49.839,0,0,1,50.588,26.714Z" transform="translate(-4.751 0)"/>
          <path id="Trazado_875524" data-name="Trazado 875524" d="M78.488,54.162c-1.264.235-12.541,2.446-19.2,7.551a.747.747,0,0,0-.291.647,46.852,46.852,0,0,0,2.54,12.126C64.752,83.5,70.392,90.03,78.3,93.881a.747.747,0,0,0,.654,0C86.868,90.03,92.508,83.5,95.721,74.487a46.855,46.855,0,0,0,2.54-12.124.747.747,0,0,0-.291-.648A28.11,28.11,0,0,0,93.5,58.983a.747.747,0,1,0-.67,1.337,27.432,27.432,0,0,1,3.906,2.342,45.331,45.331,0,0,1-2.426,11.324C91.28,82.5,86,88.682,78.63,92.376c-7.375-3.694-12.65-9.88-15.683-18.39a46.064,46.064,0,0,1-2.425-11.327,36.179,36.179,0,0,1,9.387-4.637,62.918,62.918,0,0,1,8.716-2.363A62.723,62.723,0,0,1,90.164,59.1a.747.747,0,1,0,.573-1.381,64.239,64.239,0,0,0-11.974-3.56.751.751,0,0,0-.275,0Z" transform="translate(-53.591 -48.753)"/>
          <path id="Trazado_875525" data-name="Trazado 875525" d="M172.258,150.98c-.936.041-1.924.076-2.937.1a1.864,1.864,0,0,0-1.814,1.813c-.027.993-.061,1.982-.1,2.938a.363.363,0,0,1-.284.341,14.894,14.894,0,0,1-5.8,0,.363.363,0,0,1-.284-.341c-.041-.957-.075-1.945-.1-2.938a1.865,1.865,0,0,0-1.814-1.813q-.725-.019-1.451-.045a.747.747,0,0,0-.052,1.494q.731.026,1.463.045a.37.37,0,0,1,.36.359c.027,1,.062,2,.1,2.962a1.849,1.849,0,0,0,1.488,1.744,16.379,16.379,0,0,0,6.377,0A1.849,1.849,0,0,0,168.9,155.9c.041-.964.076-1.961.1-2.962a.37.37,0,0,1,.361-.359c1.022-.028,2.018-.063,2.962-.1a1.849,1.849,0,0,0,1.743-1.488,16.376,16.376,0,0,0,0-6.376,1.849,1.849,0,0,0-1.743-1.488c-.965-.042-1.961-.077-2.961-.1a.371.371,0,0,1-.361-.361c-.027-1-.062-2-.1-2.962a1.849,1.849,0,0,0-1.488-1.744,16.384,16.384,0,0,0-6.377,0,1.849,1.849,0,0,0-1.488,1.744c-.041.964-.076,1.961-.1,2.962a.371.371,0,0,1-.36.36c-1,.026-2,.061-2.962.1a1.849,1.849,0,0,0-1.743,1.488,16.359,16.359,0,0,0-.031,6.213.747.747,0,1,0,1.469-.275,14.873,14.873,0,0,1,.029-5.648.363.363,0,0,1,.342-.284c.956-.042,1.944-.076,2.939-.1a1.867,1.867,0,0,0,1.813-1.814c.027-.993.062-1.982.1-2.938a.363.363,0,0,1,.284-.341,14.894,14.894,0,0,1,5.8,0,.363.363,0,0,1,.284.341c.041.957.075,1.945.1,2.938a1.867,1.867,0,0,0,1.815,1.814c.993.026,1.981.061,2.937.1a.363.363,0,0,1,.341.284,14.885,14.885,0,0,1,0,5.8A.363.363,0,0,1,172.258,150.98Z" transform="translate(-139.182 -123.923)"/>
        </g>
      </g>
    </g>
  </g>
</svg>
