<svg xmlns="http://www.w3.org/2000/svg" width="85" height="85" viewBox="0 0 85 85">
  <g id="Grupo_1099969" data-name="Grupo 1099969" transform="translate(-180.051 -1173)">
    <circle id="Elipse_4967" data-name="Elipse 4967" cx="42.5" cy="42.5" r="42.5" transform="translate(180.051 1173)" fill="#7c5122"/>
    <g id="documentos_1_" data-name="documentos (1)" transform="translate(166.551 1186)">
      <g id="Grupo_1099967" data-name="Grupo 1099967" transform="translate(31.358 0.858)">
        <path id="Trazado_875019" data-name="Trazado 875019" d="M163.572,92.5H198.02a.572.572,0,0,1,.572.572v46.006a.572.572,0,0,1-.572.572H163.572a.572.572,0,0,1-.572-.572V93.072A.572.572,0,0,1,163.572,92.5Z" transform="translate(-148.695 -82.772)" fill="#f5f5f5"/>
        <path id="Trazado_875020" data-name="Trazado 875020" d="M196.017,92.5v44a.572.572,0,0,1-.572.572H163v-44a.572.572,0,0,1,.572-.572Z" transform="translate(-148.695 -82.772)" fill="#e6e6e6"/>
        <path id="Trazado_875021" data-name="Trazado 875021" d="M155.52,50H121.072a.572.572,0,0,0-.572.572V96.578a.572.572,0,0,0,.572.572H155.52a.572.572,0,0,0,.572-.572V50.572A.572.572,0,0,0,155.52,50Z" transform="translate(-111.058 -45.136)" fill="#f5f5f5"/>
        <path id="Trazado_875022" data-name="Trazado 875022" d="M153.517,50V94a.572.572,0,0,1-.572.572H120.5v-44a.572.572,0,0,1,.572-.572Z" transform="translate(-111.058 -45.136)" fill="#e6e6e6"/>
        <path id="Trazado_875023" data-name="Trazado 875023" d="M78.169,8.072V54.078a.572.572,0,0,1-.572.572H43.722A5.723,5.723,0,0,1,38,48.928V47.441a.572.572,0,0,1,.572-.572h3.453a.571.571,0,0,0,.553-.571V8.072A.572.572,0,0,1,43.15,7.5H77.6A.572.572,0,0,1,78.169,8.072Z" transform="translate(-38 -7.5)" fill="#f5f5f5"/>
        <path id="Trazado_875024" data-name="Trazado 875024" d="M123.414,67.487h-9.842a.572.572,0,0,1-.572-.572V57.072a.572.572,0,0,1,.572-.572h9.842a.572.572,0,0,1,.572.572v9.842A.572.572,0,0,1,123.414,67.487Z" transform="translate(-104.417 -50.892)" fill="#faa515"/>
        <g id="Grupo_1099966" data-name="Grupo 1099966" transform="translate(0 6.237)">
          <path id="Trazado_875025" data-name="Trazado 875025" d="M249.947,133.717H237.358a.858.858,0,1,1,0-1.717h12.589a.858.858,0,1,1,0,1.717Z" transform="translate(-213.783 -123.989)" fill="#2b597f"/>
          <path id="Trazado_875026" data-name="Trazado 875026" d="M184.061,201.717h-12.7a.858.858,0,0,1,0-1.717h12.7a.858.858,0,0,1,0,1.717Z" transform="translate(-155.336 -184.207)" fill="#2b597f"/>
          <path id="Trazado_875027" data-name="Trazado 875027" d="M249.947,98.717H237.358a.858.858,0,1,1,0-1.717h12.589a.858.858,0,1,1,0,1.717Z" transform="translate(-213.783 -92.994)" fill="#2b597f"/>
          <path id="Trazado_875028" data-name="Trazado 875028" d="M249.947,63.717H237.358a.858.858,0,1,1,0-1.717h12.589a.858.858,0,1,1,0,1.717Z" transform="translate(-213.783 -62)" fill="#2b597f"/>
          <path id="Trazado_875029" data-name="Trazado 875029" d="M133.939,290.717H106.358a.858.858,0,1,1,0-1.717h27.581a.858.858,0,1,1,0,1.717Z" transform="translate(-97.775 -263.021)" fill="#2b597f"/>
          <path id="Trazado_875030" data-name="Trazado 875030" d="M231.35,245.717H216.358a.858.858,0,1,1,0-1.717H231.35a.858.858,0,0,1,0,1.717Z" transform="translate(-195.186 -223.171)" fill="#2b597f"/>
          <path id="Trazado_875031" data-name="Trazado 875031" d="M114.5,245.717h-8.64a.858.858,0,1,1,0-1.717h8.64a.858.858,0,1,1,0,1.717Z" transform="translate(-97.332 -223.171)" fill="#2b597f"/>
          <path id="Trazado_875032" data-name="Trazado 875032" d="M72.537,359.273H43.722A5.722,5.722,0,0,1,38,353.551v-1.488a.572.572,0,0,1,.572-.572H66.3a.572.572,0,0,1,.572.572v1.489A5.723,5.723,0,0,0,72.537,359.273Z" transform="translate(-38 -318.36)" fill="#2b597f"/>
        </g>
      </g>
      <g id="Grupo_1099968" data-name="Grupo 1099968" transform="translate(30.5)">
        <path id="Trazado_875033" data-name="Trazado 875033" d="M81.255,9.728H77.25V5.722a.858.858,0,0,0-.858-.858H72.386V.858A.858.858,0,0,0,71.528,0H35.936a.858.858,0,0,0-.858.858v38.51H31.358a.858.858,0,0,0-.858.858v2.06a6.588,6.588,0,0,0,6.58,6.58h2.861v4.005a.858.858,0,0,0,.858.858h4.005v4.006a.858.858,0,0,0,.858.858H62.887a.858.858,0,0,0,0-1.717H46.522V53.731h29.87a.858.858,0,0,0,.858-.858v-13.5a.858.858,0,0,0-1.717,0V52.014H41.658V48.867h29.87a.858.858,0,0,0,.858-.858V6.58h3.147v28.9a.858.858,0,0,0,1.717,0V11.444H80.4V56.878H66.778a.858.858,0,1,0,0,1.717H81.255a.858.858,0,0,0,.858-.858V10.586A.858.858,0,0,0,81.255,9.728ZM70.669,47.15H65.92a4.869,4.869,0,0,1-4.864-4.864v-2.06a.858.858,0,0,0-.858-.858H54.247a.858.858,0,0,0,0,1.717H59.34v1.2a6.565,6.565,0,0,0,2.153,4.864H37.08a4.869,4.869,0,0,1-4.864-4.864v-1.2H50.241a.858.858,0,0,0,0-1.717H36.794V1.717H70.669Z" transform="translate(-30.5)"/>
        <path id="Trazado_875034" data-name="Trazado 875034" d="M106.358,61.7h10.987a.858.858,0,0,0,.858-.858V49.858a.858.858,0,0,0-.858-.858H106.358a.858.858,0,0,0-.858.858V60.845A.858.858,0,0,0,106.358,61.7Zm.858-10.987h9.27v9.27h-9.27Z" transform="translate(-96.917 -43.392)"/>
        <path id="Trazado_875035" data-name="Trazado 875035" d="M249.947,132H237.358a.858.858,0,1,0,0,1.717h12.589a.858.858,0,1,0,0-1.717Z" transform="translate(-212.925 -116.894)"/>
        <path id="Trazado_875036" data-name="Trazado 875036" d="M170.5,200.858a.858.858,0,0,0,.858.858h12.7a.858.858,0,0,0,0-1.717h-12.7A.858.858,0,0,0,170.5,200.858Z" transform="translate(-154.478 -177.111)"/>
        <path id="Trazado_875037" data-name="Trazado 875037" d="M249.947,97H237.358a.858.858,0,1,0,0,1.717h12.589a.858.858,0,1,0,0-1.717Z" transform="translate(-212.925 -85.899)"/>
        <path id="Trazado_875038" data-name="Trazado 875038" d="M249.947,62H237.358a.858.858,0,1,0,0,1.717h12.589a.858.858,0,1,0,0-1.717Z" transform="translate(-212.925 -54.905)"/>
        <path id="Trazado_875039" data-name="Trazado 875039" d="M133.939,289H106.358a.858.858,0,1,0,0,1.717h27.581a.858.858,0,1,0,0-1.717Z" transform="translate(-96.917 -255.926)"/>
        <path id="Trazado_875040" data-name="Trazado 875040" d="M231.35,244H216.358a.858.858,0,1,0,0,1.717H231.35a.858.858,0,0,0,0-1.717Z" transform="translate(-194.328 -216.076)"/>
        <path id="Trazado_875041" data-name="Trazado 875041" d="M105.858,245.717h8.64a.858.858,0,1,0,0-1.717h-8.64a.858.858,0,1,0,0,1.717Z" transform="translate(-96.474 -216.076)"/>
      </g>
    </g>
  </g>
</svg>
