<svg xmlns="http://www.w3.org/2000/svg" width="44" height="44" viewBox="0 0 44 44">
  <g id="comida_1_" data-name="comida (1)" transform="translate(-1 -1)">
    <path id="Trazado_875001" data-name="Trazado 875001" d="M29,39h4.258v1.419H29Z" transform="translate(-8.129 -11.032)" fill="#7c5122"/>
    <path id="Trazado_875002" data-name="Trazado 875002" d="M29,9h4.258v1.419H29Z" transform="translate(-8.129 -2.323)" fill="#7c5122"/>
    <path id="Trazado_875003" data-name="Trazado 875003" d="M43.581,18.742V6.677A1.421,1.421,0,0,0,45,5.258V2.419A1.421,1.421,0,0,0,43.581,1H2.419A1.421,1.421,0,0,0,1,2.419V5.258A1.421,1.421,0,0,0,2.419,6.677V18.742a4.951,4.951,0,0,0,1.5,3.548h-1.5A1.421,1.421,0,0,0,1,23.71v2.839a1.421,1.421,0,0,0,1.419,1.419V40.032A4.974,4.974,0,0,0,7.387,45H38.613a4.974,4.974,0,0,0,4.968-4.968V27.968A1.421,1.421,0,0,0,45,26.548V23.71a1.421,1.421,0,0,0-1.419-1.419h-1.5A4.951,4.951,0,0,0,43.581,18.742ZM2.419,2.419H43.581V5.258H27.968a1.421,1.421,0,0,0-1.419-1.419h-7.1a1.421,1.421,0,0,0-1.419,1.419H2.419Zm24.13,7.1h-7.1V5.258h7.1ZM3.839,18.742V6.677H18.032V9.516a1.421,1.421,0,0,0,1.419,1.419h7.1a1.392,1.392,0,0,0,.405-.066l-.263.349A7.739,7.739,0,0,0,25.129,15.9c0,.247.013.493.036.737l-7.984-5.988-.426.567A7.739,7.739,0,0,0,15.194,15.9c0,.247.013.493.036.737L7.246,10.652l-.426.567A7.795,7.795,0,0,0,8.59,22.29h-1.2a3.552,3.552,0,0,1-3.548-3.548ZM17.717,20.28a6.326,6.326,0,0,1-4.653,2.011A6.4,6.4,0,0,1,6.677,15.9a6.331,6.331,0,0,1,.882-3.242Zm.32,1.645c.157.13.32.249.485.365h-.979C17.711,22.173,17.879,22.056,18.037,21.925Zm1-1.015c.091-.108.187-.209.273-.323l.427-.568-2.79-2.092a6.364,6.364,0,0,1,.549-5.266L27.653,20.28a6.384,6.384,0,0,1-8.615.63Zm8.936,1.015c.157.13.32.249.485.365h-.979C27.646,22.173,27.814,22.056,27.973,21.925Zm1-1.015c.09-.108.187-.209.273-.323l.427-.568-2.79-2.092a6.364,6.364,0,0,1,.549-5.266L37.588,20.28a6.384,6.384,0,0,1-8.615.63ZM10.664,43.581l-2.21-4.42A3.405,3.405,0,0,1,8.1,37.645a2.612,2.612,0,0,1,2.947-2.562l9.366,1.1A2.13,2.13,0,0,1,22.29,38.3v4.572a.71.71,0,0,1-.71.71Zm13.045-.71V41.619l.981,1.962H23.579A2.105,2.105,0,0,0,23.71,42.871Zm2.568.71-2.21-4.42a3.405,3.405,0,0,1-.358-1.516,2.614,2.614,0,0,1,2.947-2.562l9.366,1.1A2.13,2.13,0,0,1,37.9,38.3v4.572a.71.71,0,0,1-.71.71Zm15.884-3.548A3.547,3.547,0,0,1,39.21,43.52a2.1,2.1,0,0,0,.112-.649V38.3a3.55,3.55,0,0,0-3.134-3.524l-9.364-1.1a4.33,4.33,0,0,0-.534-.028,4,4,0,0,0-3.571,2.208,3.533,3.533,0,0,0-2.144-1.079l-9.364-1.1a4.31,4.31,0,0,0-.534-.028,4,4,0,0,0-4,4,4.843,4.843,0,0,0,.507,2.15l1.893,3.785H7.387a3.552,3.552,0,0,1-3.548-3.548V27.968H18.032v2.839a1.421,1.421,0,0,0,1.419,1.419h7.1a1.421,1.421,0,0,0,1.419-1.419V27.968H42.161Zm-22.71-9.226V26.548h7.1v4.258Zm24.129-7.1v2.839H27.968a1.421,1.421,0,0,0-1.419-1.419h-7.1a1.421,1.421,0,0,0-1.419,1.419H2.419V23.71ZM37.415,22.29a7.866,7.866,0,0,0,1.766-1.7l.427-.568L27.242,10.747a1.415,1.415,0,0,0,.725-1.231V6.677H42.161V18.742a3.552,3.552,0,0,1-3.548,3.548Z" fill="#7c5122"/>
    <path id="Trazado_875004" data-name="Trazado 875004" d="M0,0H1.419V4.761H0Z" transform="translate(25.895 37.501) rotate(-26.565)" fill="#7c5122"/>
    <path id="Trazado_875005" data-name="Trazado 875005" d="M0,0H1.419V4.761H0Z" transform="translate(29.442 37.502) rotate(-26.565)" fill="#7c5122"/>
    <path id="Trazado_875006" data-name="Trazado 875006" d="M0,0H1.419V4.761H0Z" transform="translate(32.988 37.502) rotate(-26.565)" fill="#7c5122"/>
    <path id="Trazado_875007" data-name="Trazado 875007" d="M0,0H1.419V4.761H0Z" transform="translate(10.288 37.498) rotate(-26.565)" fill="#7c5122"/>
    <path id="Trazado_875008" data-name="Trazado 875008" d="M0,0H1.419V4.761H0Z" transform="translate(13.835 37.499) rotate(-26.565)" fill="#7c5122"/>
    <path id="Trazado_875009" data-name="Trazado 875009" d="M0,0H1.419V4.761H0Z" transform="translate(17.382 37.499) rotate(-26.565)" fill="#7c5122"/>
    <circle id="Elipse_11580" data-name="Elipse 11580" cx="0.5" cy="0.5" r="0.5" transform="translate(10 17)" fill="#7c5122"/>
    <ellipse id="Elipse_11581" data-name="Elipse 11581" cx="1" cy="0.5" rx="1" ry="0.5" transform="translate(19 17)" fill="#7c5122"/>
    <ellipse id="Elipse_11582" data-name="Elipse 11582" cx="1" cy="0.5" rx="1" ry="0.5" transform="translate(29 17)" fill="#7c5122"/>
  </g>
</svg>
