<svg xmlns="http://www.w3.org/2000/svg" width="345" height="297" viewBox="0 0 345 297">
  <g id="Grupo_1099752" data-name="Grupo 1099752" transform="translate(-217.558 -1178)">
    <path id="Trazado_873690" data-name="Trazado 873690" d="M62.835,285.352c-37.453,4.359-69.046-28.806-61.791-65.67q.276-1.4.6-2.843C15.374,155.4,76.276,167.973,64.22,83.664s99.626-115.9,141.948-42.887c47.5,81.952,109.593,60.492,130.1,108.026,24.688,57.216-19.443,129.765-85.467,125.06-49.073-3.5-142.984,6.252-187.97,11.488" transform="translate(219.345 1177.999)" fill="#c1ddc7" fill-rule="evenodd"/>
    <g id="Grupo_1099714" data-name="Grupo 1099714" transform="translate(217.558 1266)">
      <g id="Grupo_1099716" data-name="Grupo 1099716" transform="translate(0)">
        <path id="Trazado_873930" data-name="Trazado 873930" d="M116.978,161.771a30.52,30.52,0,1,1,30.52-30.52,30.554,30.554,0,0,1-30.52,30.52m0-60.647a30.127,30.127,0,1,0,30.127,30.127,30.162,30.162,0,0,0-30.127-30.127" transform="translate(-44.776 -47.517)" fill="#f9a545"/>
        <path id="Trazado_873931" data-name="Trazado 873931" d="M131.415,161.022H117.874V145.687H102.539v-13.54h15.335V116.811h13.541v15.336H146.75v13.54H131.415Zm-13.148-.392h12.756V145.294h15.335V132.539H131.022V117.2H118.266v15.336H102.931v12.755h15.335Z" transform="translate(-52.443 -55.163)" fill="#f9a545"/>
        <path id="Trazado_873932" data-name="Trazado 873932" d="M444.627,159.4H416.9V121.884h27.731Zm-27.339-.392h26.946V122.276H417.288Z" transform="translate(-205.576 -57.58)" fill="#7baefa"/>
        <rect id="Rectángulo_401572" data-name="Rectángulo 401572" width="38.321" height="0.392" transform="translate(249.101 64.209)" fill="#7baefa"/>
        <rect id="Rectángulo_401573" data-name="Rectángulo 401573" width="38.321" height="0.392" transform="translate(228.928 52.266)" fill="#7baefa"/>
        <rect id="Rectángulo_401574" data-name="Rectángulo 401574" width="38.321" height="0.392" transform="translate(249.101 87.636)" fill="#7baefa"/>
        <rect id="Rectángulo_401575" data-name="Rectángulo 401575" width="38.321" height="0.392" transform="translate(249.101 94.611)" fill="#7baefa"/>
        <rect id="Rectángulo_401576" data-name="Rectángulo 401576" width="38.321" height="0.392" transform="translate(249.101 101.585)" fill="#7baefa"/>
        <rect id="Rectángulo_401577" data-name="Rectángulo 401577" width="25.126" height="0.392" transform="translate(262.259 73.157)" fill="#7baefa"/>
        <path id="Trazado_873933" data-name="Trazado 873933" d="M633.125,157.814a17.289,17.289,0,1,1-17.289-17.289,17.289,17.289,0,0,1,17.289,17.289" transform="translate(-293.814 -66.397)" fill="#dcc366"/>
        <path id="Trazado_873934" data-name="Trazado 873934" d="M632.7,158.437h-8.743v-8.743h-7.5v8.743h-8.744v7.5h8.744v8.743h7.5v-8.743H632.7Z" transform="translate(-298.185 -70.763)" fill="#fff"/>
        <path id="Trazado_873935" data-name="Trazado 873935" d="M609.109,175.558a22.989,22.989,0,0,1-3.106-.42l.079-.384a22.717,22.717,0,0,0,3.053.413Zm3.134,0-.027-.391a22.539,22.539,0,0,0,3.052-.419l.08.385a22.975,22.975,0,0,1-3.105.425m-9.262-1.257a23.006,23.006,0,0,1-2.878-1.247l.18-.348a22.742,22.742,0,0,0,2.829,1.226Zm15.386-.014-.132-.37a22.646,22.646,0,0,0,2.824-1.231l.181.348a23.142,23.142,0,0,1-2.873,1.253m-20.943-2.862a23.2,23.2,0,0,1-2.433-1.977l.268-.287a22.764,22.764,0,0,0,2.391,1.943Zm26.49-.022-.227-.32a22.866,22.866,0,0,0,2.388-1.946l.268.286a23.169,23.169,0,0,1-2.429,1.98m-31.066-4.242a23.051,23.051,0,0,1-1.813-2.556l.335-.2a22.639,22.639,0,0,0,1.781,2.512Zm35.635-.029-.3-.248a22.759,22.759,0,0,0,1.779-2.517l.335.2a23.233,23.233,0,0,1-1.809,2.561m-38.9-5.305a22.815,22.815,0,0,1-1.055-2.952l.378-.106a22.392,22.392,0,0,0,1.036,2.9Zm42.149-.039-.359-.156a22.461,22.461,0,0,0,1.032-2.905l.378.106a22.808,22.808,0,0,1-1.05,2.956M587.892,155.8a23.3,23.3,0,0,1-.217-3.126h.392a22.948,22.948,0,0,0,.213,3.074Zm45.528-.043-.388-.053a22.861,22.861,0,0,0,.207-3.074v-.088h.392v.085a23.227,23.227,0,0,1-.211,3.131M588.269,149.6l-.389-.052a23.118,23.118,0,0,1,.628-3.071l.378.105a22.575,22.575,0,0,0-.617,3.018m44.75-.13a22.634,22.634,0,0,0-.635-3.014l.377-.107a22.912,22.912,0,0,1,.646,3.067Zm-43.106-5.8-.36-.156a22.846,22.846,0,0,1,1.439-2.786l.336.2a22.535,22.535,0,0,0-1.414,2.739m41.429-.118a22.591,22.591,0,0,0-1.427-2.727l.334-.206A23.017,23.017,0,0,1,631.7,143.4Zm-38.241-5.14-.3-.247a23.14,23.14,0,0,1,2.135-2.295l.268.286a22.78,22.78,0,0,0-2.1,2.256m35.027-.1a22.823,22.823,0,0,0-2.11-2.244l.266-.288a23.144,23.144,0,0,1,2.147,2.283Zm-30.544-4.111-.227-.32a23.1,23.1,0,0,1,2.671-1.637l.182.348a22.693,22.693,0,0,0-2.626,1.61m26.038-.072a22.477,22.477,0,0,0-2.637-1.6l.18-.349a23,23,0,0,1,2.683,1.624Zm-20.59-2.773-.133-.37a23.044,23.044,0,0,1,3.017-.852l.081.384a22.493,22.493,0,0,0-2.964.838m15.123-.043a22.378,22.378,0,0,0-2.972-.821l.079-.385a22.875,22.875,0,0,1,3.024.836Zm-9.107-1.219-.028-.391a23.38,23.38,0,0,1,3.134-.009l-.026.391a23.107,23.107,0,0,0-3.081.009" transform="translate(-288.631 -61.222)" fill="#7baefa"/>
        <path id="Trazado_873936" data-name="Trazado 873936" d="M211.927,61.29,196.194,29.537l-3.506,5.692h-30.64l-7.341,8.87L143.834,13.965,131.559,61.29,115.825,29.537l-3.506,5.692H76.04L68.7,44.1,57.825,13.965,45.55,61.29,29.817,29.537,26.311,35.23H6.8V32.09h17.8l5.515-8.953L44.64,52.461l12.7-48.97L69.768,37.926,74.6,32.09H110.6l5.515-8.953,14.53,29.324,12.7-48.97,12.426,34.435,4.829-5.835h30.367l5.515-8.953,14.529,29.324,12.7-48.97,12.426,34.435,4.83-5.835H276.98l5.514-8.953,14.53,29.324,12.7-48.97,12.426,34.435,4.829-5.835h23.055v3.14H328.425l-7.34,8.87L310.211,13.965,297.936,61.29,282.2,29.537,278.7,35.23H242.417l-7.341,8.87L224.2,13.965Z" transform="translate(-6.799 -1.664)" fill="#dcc366"/>
        <path id="Trazado_873937" data-name="Trazado 873937" d="M36.026,316.378h0A14.581,14.581,0,0,1,21.488,301.84V229.251H50.564V301.84a14.581,14.581,0,0,1-14.538,14.538" transform="translate(-13.802 -107.888)" fill="#dcc366"/>
        <path id="Trazado_873938" data-name="Trazado 873938" d="M38.624,325.379h0a11.721,11.721,0,0,1-11.687-11.687V255.34H50.311v58.352a11.721,11.721,0,0,1-11.687,11.687" transform="translate(-16.4 -120.326)" fill="#f9a545"/>
        <path id="Trazado_873939" data-name="Trazado 873939" d="M48.061,229.5H18.273a2.783,2.783,0,1,1,0-5.567H48.061a2.783,2.783,0,1,1,0,5.567" transform="translate(-10.942 -105.943)" fill="#dcc366"/>
        <rect id="Rectángulo_401578" data-name="Rectángulo 401578" width="29.076" height="0.262" transform="translate(7.686 123.441)" fill="#3a70bf"/>
        <rect id="Rectángulo_401579" data-name="Rectángulo 401579" width="1.047" height="45.95" transform="translate(31.345 138.141)" fill="#fff"/>
        <rect id="Rectángulo_401580" data-name="Rectángulo 401580" width="1.047" height="5.079" transform="translate(31.345 127.309)" fill="#fff"/>
        <path id="Trazado_873940" data-name="Trazado 873940" d="M40.6,206.294a3.389,3.389,0,1,1-3.389-3.389,3.389,3.389,0,0,1,3.389,3.389" transform="translate(-19.681 -95.991)" fill="#dcc366"/>
        <path id="Trazado_873941" data-name="Trazado 873941" d="M64.471,196.843a2.339,2.339,0,1,1-2.339-2.339,2.339,2.339,0,0,1,2.339,2.339" transform="translate(-32.064 -92.024)" fill="#dcc366"/>
        <path id="Trazado_873942" data-name="Trazado 873942" d="M42.361,183.722a1.8,1.8,0,1,1-1.8-1.8,1.8,1.8,0,0,1,1.8,1.8" transform="translate(-22.038 -86.075)" fill="#dcc366"/>
        <path id="Trazado_873943" data-name="Trazado 873943" d="M56.176,174.4a1.272,1.272,0,1,1-1.272-1.272,1.272,1.272,0,0,1,1.272,1.272" transform="translate(-29.127 -81.919)" fill="#dcc366"/>
        <path id="Trazado_873944" data-name="Trazado 873944" d="M49.9,151.568A1.272,1.272,0,1,1,48.63,150.3a1.272,1.272,0,0,1,1.272,1.272" transform="translate(-26.136 -71.114)" fill="#dcc366"/>
        <path id="Trazado_873945" data-name="Trazado 873945" d="M51.587,191.253a.9.9,0,1,1-.9-.9.9.9,0,0,1,.9.9" transform="translate(-27.294 -90.07)" fill="#7baefa"/>
        <path id="Trazado_873946" data-name="Trazado 873946" d="M647.642,249.236a5.1,5.1,0,0,1-5.094-5.093c0-2.714,4.712-13.808,4.913-14.279l.181-.424.18.424c.2.47,4.913,11.564,4.913,14.279a5.1,5.1,0,0,1-5.093,5.093m0-18.79c-.884,2.108-4.7,11.355-4.7,13.7a4.7,4.7,0,0,0,9.4,0c0-2.342-3.818-11.589-4.7-13.7" transform="translate(-314.791 -108.486)" fill="#7baefa"/>
        <path id="Trazado_873947" data-name="Trazado 873947" d="M51.908,243.165c4.134-2.3,6.927,0,6.7,2.909-.365,3.492-9,17.241-9.73,18.122-4.052,6.067-8.8,2.969-7.862-2.285-.312-2.948,5.5-15.752,10.89-18.747" transform="translate(-23.056 -114.504)" fill="#fff"/>
        <path id="Trazado_873948" data-name="Trazado 873948" d="M92.034,387.295a8.027,8.027,0,0,0,2.824,2.126c1.248.324,3.053.668,3.033,2.6H86.426a7.483,7.483,0,0,1,1.06-4.136,7.063,7.063,0,0,0,1.765.094c.522-.2,2.1-1.21,2.782-.679" transform="translate(-44.761 -183.162)" fill="#fff"/>
        <path id="Trazado_873949" data-name="Trazado 873949" d="M68.851,388.244s.449,1.5,1.494,1.748c1.248.324,2.563.668,2.544,2.6H63.38c.077-1.8.34-3.445.987-4.208a8.113,8.113,0,0,0,1.838.166c.522-.2,1.966-.832,2.645-.3" transform="translate(-33.774 -183.588)" fill="#fff"/>
        <path id="Trazado_873950" data-name="Trazado 873950" d="M90.661,247.894c-.747-4.558,1.531-6.691,4.283-5.908,3.767.754,14.281,11.55,15.324,12.929,4.955,5.1.921,9.08-3.936,7.15-3.6-.024-14.679-8.127-15.67-14.171" transform="translate(-46.712 -114.338)" fill="#fff"/>
        <path id="Trazado_873951" data-name="Trazado 873951" d="M75.674,235.294c2.425,1.327,4.687,1.673,6.612,0v-9.155H75.674Z" transform="translate(-39.635 -106.967)" fill="#fca886"/>
        <path id="Trazado_873952" data-name="Trazado 873952" d="M74.293,240.331l-1.516.1c7.112,26.123,9.747,18.341,10.32.175l-2.192-.279c-1.712,1.139-3.99.966-6.612,0" transform="translate(-38.254 -113.649)" fill="#7baefa"/>
        <path id="Trazado_873953" data-name="Trazado 873953" d="M65.179,296.3l15.453-.366c.711.92,4.226,15.928,3.8,25.742a180.792,180.792,0,0,1-3.092,23.21,15.944,15.944,0,0,1-6.359.457,112.052,112.052,0,0,1,.945-23.261c-1.386-4.75-2.934-15.661-2.934-15.661L68.638,345.19c-1.25.459-4.68.152-6-.307-3.566-44.757,2.545-48.585,2.545-48.585" transform="translate(-32.886 -139.678)" fill="#181818"/>
        <path id="Trazado_873954" data-name="Trazado 873954" d="M81.321,310.8l-.519-.068.342-2.636.17-.044a9.072,9.072,0,0,0,4.266-2.471l.384.356a9.568,9.568,0,0,1-4.346,2.574Z" transform="translate(-42.08 -144.572)" fill="#377dd1"/>
        <path id="Trazado_873955" data-name="Trazado 873955" d="M65.642,304.85l-.075-.518c.106-.016,2.6-.407,3-2.6l.514.094c-.467,2.568-3.406,3.021-3.436,3.026" transform="translate(-34.817 -142.763)" fill="#377dd1"/>
        <path id="Trazado_873956" data-name="Trazado 873956" d="M79.942,241.843c-1.747-1.56-6.286-1.66-6.286-1.66a52.825,52.825,0,0,1-1.128,14.375,65.567,65.567,0,0,0-6.11-14.354s-4.289-.117-6.566,1.771c-4.51,4.035-1.15,13.338-1.258,25.692,0,0-2.208,9.416-1.5,29.163,1.008.541,8.051.771,14.376.747.862-4.059,1.466-17.113,1.466-17.113s.507,12.651.323,17.093c5.147-.071,9.65-.314,10.183-.7.212-.125-1.788-53.447-3.505-55.018" transform="translate(-30.712 -113.1)" fill="#fff"/>
        <path id="Trazado_873957" data-name="Trazado 873957" d="M73.936,236.611a4.284,4.284,0,0,0-1.908,1.947l2.958,2.469-1.05-2.546Z" transform="translate(-37.897 -111.946)" fill="#fff"/>
        <path id="Trazado_873958" data-name="Trazado 873958" d="M88.308,236.611a4.284,4.284,0,0,1,1.908,1.947L88.729,241.5a16.409,16.409,0,0,0-.421-3.014Z" transform="translate(-45.658 -111.944)" fill="#fff"/>
        <path id="Trazado_873959" data-name="Trazado 873959" d="M78.929,254.718a.131.131,0,0,1-.113-.064c-3.093-5.232-5.611-8.575-7.924-10.52a.129.129,0,0,1-.045-.117.131.131,0,0,1,.074-.1l1.483-.685-1.943-.857a.13.13,0,0,1-.07-.165l.73-1.964.245.091-.687,1.849,2.1.924a.13.13,0,0,1,0,.238l-1.561.722c2.26,1.953,4.713,5.217,7.695,10.234a42.574,42.574,0,0,0,3.471-11.23l-1.287-.716a.131.131,0,0,1-.016-.218l.852-.655-.386-1.152.248-.083.415,1.24a.13.13,0,0,1-.044.145l-.768.591,1.191.663a.131.131,0,0,1,.066.133,43.065,43.065,0,0,1-3.606,11.62.132.132,0,0,1-.112.077Z" transform="translate(-37.113 -113.62)" fill="#92bbf4"/>
        <path id="Trazado_873960" data-name="Trazado 873960" d="M87.072,294.192l-.261-.017a138.813,138.813,0,0,0-.345-26.518l.26-.029a139.034,139.034,0,0,1,.346,26.564" transform="translate(-44.78 -126.503)" fill="#92bbf4"/>
        <path id="Trazado_873961" data-name="Trazado 873961" d="M59.1,270.462a49.631,49.631,0,0,1-.042-8.525c.033-.607.066-1.212.094-1.816l.261.013c-.027.6-.06,1.209-.094,1.817a49.431,49.431,0,0,0,.041,8.481Z" transform="translate(-31.637 -123.041)" fill="#92bbf4"/>
        <path id="Trazado_873962" data-name="Trazado 873962" d="M103.931,265.629l-.261-.013c.081-1.615.127-4.266.1-5.789l.262,0c.027,1.527-.02,4.187-.1,5.807" transform="translate(-52.982 -122.922)" fill="#92bbf4"/>
        <path id="Trazado_873963" data-name="Trazado 873963" d="M73.391,222.471c-3.109-2.422-2.8-10.106.309-10.673l9.888,2.252s1.055,1.292-.82,5.632Z" transform="translate(-37.506 -100.182)" fill="#181818"/>
        <path id="Trazado_873964" data-name="Trazado 873964" d="M74.456,221.774a5.3,5.3,0,0,0,6.37,2.763,6.076,6.076,0,0,0,2.473-2.649c.5-1.17,1.312-9.075,1.312-9.075l-6.789-2.476-1.793.733-1.2,1.685-.543,1.906a12.866,12.866,0,0,0-.828,4.42,10.351,10.351,0,0,0,1,2.693" transform="translate(-38.571 -99.476)" fill="#fca886"/>
        <path id="Trazado_873965" data-name="Trazado 873965" d="M74.552,215.974c1.1-.091,1.639-2.758,2.038-4.772,1.291.859,7.13,1.465,8.131,1.027,1.1.153,3.729-4.716-1.783-5.4-4.492-.643-8.636,1.231-8.194,3.152l-.859,4.833Z" transform="translate(-38.782 -97.778)" fill="#181818"/>
        <path id="Trazado_873966" data-name="Trazado 873966" d="M73.287,219.66l-.03-.054a1.542,1.542,0,0,0-.44-.516,1.317,1.317,0,0,0-1.315-.07c-1.746.9-.607,4.307,1.188,4.177.738-.182.911-2.95.6-3.538" transform="translate(-37.232 -103.557)" fill="#fca886"/>
        <path id="Trazado_873967" data-name="Trazado 873967" d="M81.328,236.459a5.029,5.029,0,0,1-1.477-.228,3.646,3.646,0,0,1-2.222-1.639l.232-.12a3.439,3.439,0,0,0,2.067,1.51,4,4,0,0,0,3.006-.152l.125.23a3.644,3.644,0,0,1-1.731.4" transform="translate(-40.567 -110.944)" fill="#d66947"/>
        <path id="Trazado_873968" data-name="Trazado 873968" d="M234.993,178.359c-.094,2.084,2.478,2.6,2.778,2.721,1.545.6,5.5.143,5.5.143,1.021-.047,1.015-.878.715-.918-.147-.007.558-.016.7-.021,1.276-.1.98-1.072.475-1.165.995.089,1.164-.995.527-1.1.718-.015.832-1.014-.218-1.18-.574-.143-5.444-.53-5.444-.53.053-.436,1.945-.248,2.2-1.307a.184.184,0,0,0-.18-.183,11.183,11.183,0,0,0-5.025,1.172,2.962,2.962,0,0,0-2.029,2.371" transform="translate(-117.317 -82.703)" fill="#f6a97e"/>
        <rect id="Rectángulo_401581" data-name="Rectángulo 401581" width="0.262" height="2.913" transform="translate(123.656 97.57) rotate(-85.735)" fill="#d1655f"/>
        <path id="Trazado_873969" data-name="Trazado 873969" d="M250.867,182.959,247,182.816l.01-.262,3.863.143Z" transform="translate(-123.097 -86.384)" fill="#d1655f"/>
        <rect id="Rectángulo_401582" data-name="Rectángulo 401582" width="0.262" height="4.277" transform="translate(124.022 95.176) rotate(-86.55)" fill="#d1655f"/>
        <path id="Trazado_873970" data-name="Trazado 873970" d="M241.736,180.151l-.06-.254a1.906,1.906,0,0,0,1.408-2.23l.258-.044a2.191,2.191,0,0,1-1.605,2.528" transform="translate(-120.506 -84.044)" fill="#d1655f"/>
        <path id="Trazado_873971" data-name="Trazado 873971" d="M205.336,154.66A53.141,53.141,0,0,1,218.5,158.1a8.11,8.11,0,0,1-1.4,5.79s-15.765.951-18.273-2.747c-2.412-3.171-4.459-19.147-4.459-19.147s5.691-3.081,5.8-3.113,4.163-.088,4.163-.088l.128,4.107a61.7,61.7,0,0,1,.883,11.76" transform="translate(-97.697 -65.609)" fill="#fff"/>
        <path id="Trazado_873972" data-name="Trazado 873972" d="M211.157,171.222l-.07-.252a3.217,3.217,0,0,0,2.155-2l.251.074a3.42,3.42,0,0,1-2.336,2.181" transform="translate(-105.7 -79.949)" fill="#181818"/>
        <path id="Trazado_873973" data-name="Trazado 873973" d="M348.949,63.949c-6.224-10.875-11.273-25.442-11.5-31.83.063-6.644-1.094-13.48-4.471-19.09C328.027,4.8,317.849.031,308.5,0c-8.405-.027-19.634,1.389-23.179,13.105-.149.492-3.632,2.2-4.244,2.775-5.522,5.219-5.083,14.165-6.416,21.1-1.644,8.562-4.517,16.771-9.6,23.944-9.685,13.673-22.273,27.044-1.808,58.4,16.544,25.35,36.492,26.89,43.531,26.55,7.038.34,26.987-1.2,43.531-26.55,20.465-31.358,8.319-41.705-1.366-55.378" transform="translate(-126.436 0)" fill="#181818"/>
        <path id="Trazado_873974" data-name="Trazado 873974" d="M227.145,224.22c-22.89,24.292,15.167,43.75,24.736,16.624,12.357-13.03,17.538-31.952,23.192-54.109,7.55-21.277-23.2-32.4-31.893-11.04-6.233,14.81-8.617,22.229-16.035,48.526" transform="translate(-110.271 -77.25)" fill="#fa754a"/>
        <path id="Trazado_873975" data-name="Trazado 873975" d="M196.907,283.992,150.242,302.1l4.64,18.482L205.7,309.65c16.754-4.969,7.329-30.195-8.8-25.658" transform="translate(-76.473 -133.727)" fill="#f6a97e"/>
        <path id="Trazado_873976" data-name="Trazado 873976" d="M127.407,329.1s-.294,1.872-4.854,3.4c-8.039,2.607-19.7,1.931-19.7,1.931-4.823-.556-5.05-3.539-3.243-4.231-6.573,1.855-8.1-3.314-4.748-4.3-4.573.749-4.741-4.565-1.057-4.442l.068-.155c-3.315-.136-3.433-5.335,1.411-5.608l18.532-3.4c-.965-.33-9.415-4.947-6.182-9.626,0,0,10.016,4.764,13.525,6.763a18.033,18.033,0,0,1,4.586,3.088c4.6,5.758,3.248,14.3,1.661,16.579" transform="translate(-47.046 -142.891)" fill="#f6a97e"/>
        <path id="Trazado_873977" data-name="Trazado 873977" d="M129.395,342.025c-7.077-12.382-4.823-16.218-4.724-16.376l.332.21-.166-.105.166.1c-.023.037-2.192,3.857,4.732,15.972Z" transform="translate(-62.795 -153.845)" fill="#d66947"/>
        <rect id="Rectángulo_401583" data-name="Rectángulo 401583" width="15.482" height="0.392" transform="matrix(0.982, -0.191, 0.191, 0.982, 47.779, 182.82)" fill="#d66947"/>
        <rect id="Rectángulo_401584" data-name="Rectángulo 401584" width="13.997" height="0.392" transform="matrix(0.98, -0.198, 0.198, 0.98, 51.148, 187.392)" fill="#d66947"/>
        <rect id="Rectángulo_401585" data-name="Rectángulo 401585" width="15.809" height="0.392" transform="matrix(0.982, -0.187, 0.187, 0.982, 46.499, 178.142)" fill="#d66947"/>
        <path id="Trazado_873978" data-name="Trazado 873978" d="M141.021,327.878c-7.748-1.587-7.691-6.763-7.689-6.814l.392.01c-.005.2-.035,4.9,7.375,6.42Z" transform="translate(-68.072 -151.66)" fill="#d66947"/>
        <path id="Trazado_873979" data-name="Trazado 873979" d="M159.828,345.99l-.333-.207c2.91-4.679,1.94-8.521,1.93-8.559l.379-.1c.043.163,1.022,4.045-1.976,8.867" transform="translate(-80.724 -159.316)" fill="#d66947"/>
        <path id="Trazado_873980" data-name="Trazado 873980" d="M153.142,318.495a5.737,5.737,0,0,0-2.167-1.478l.13-.37a6.03,6.03,0,0,1,2.336,1.593Z" transform="translate(-76.599 -149.828)" fill="#d66947"/>
        <path id="Trazado_873981" data-name="Trazado 873981" d="M510.236,347.24H484.621c-6.8,0-16.281-1.394-22.8-8.038-5.3-5.4-7.349-12.043-5.614-18.225a23.331,23.331,0,0,1,2.618-5.513c.472-.8.959-1.628,1.381-2.459,1.433-2.825,1.837-5.172,1.269-7.386-1.036-4.041-4.513-7.4-8.117-10.435l1.348-1.6c3.871,3.256,7.614,6.905,8.8,11.518.7,2.735.246,5.548-1.431,8.852-.451.889-.955,1.746-1.443,2.574a21.413,21.413,0,0,0-2.406,5.015c-1.527,5.441.329,11.343,5.091,16.193,6.015,6.126,14.909,7.412,21.31,7.412h25.615Z" transform="translate(-223.602 -138.558)" fill="#181818"/>
        <path id="Trazado_873982" data-name="Trazado 873982" d="M286.188,144.413a32.447,32.447,0,0,1-.386-5.814c.07-3.424,1.368-6.41,2.623-9.3a44.868,44.868,0,0,0,1.895-4.875,36.085,36.085,0,0,0,1.344-8.017l.391.026a36.436,36.436,0,0,1-1.36,8.1,45.092,45.092,0,0,1-1.91,4.918c-1.3,2.985-2.522,5.8-2.59,9.151a32.107,32.107,0,0,0,.381,5.744Z" transform="translate(-141.891 -55.02)" fill="#666"/>
        <path id="Trazado_873983" data-name="Trazado 873983" d="M447.451,216.256c28.063,18.07-4.193,46.114-20.01,22.088-15.129-9.673-24.711-26.793-35.53-46.939-12.448-18.835,14.72-37.035,28.3-18.39,9.614,12.875,13.713,19.5,27.241,43.241" transform="translate(-192.38 -77.789)" fill="#fa754a"/>
        <path id="Trazado_873984" data-name="Trazado 873984" d="M490.556,270.763l49.345,8.4-.845,19.037-51.981-.533c-17.409-1.513-13.227-28.116,3.481-26.9" transform="translate(-235.325 -127.96)" fill="#f6a97e"/>
        <rect id="Rectángulo_401586" data-name="Rectángulo 401586" width="24.67" height="35.026" transform="translate(168.214 63.493)" fill="#f6a97e"/>
        <path id="Trazado_873985" data-name="Trazado 873985" d="M345.426,156.295l-20.9-4.283c-4.17,3.252-8.136,4.827-11.949,4.884h-.118c-3.813-.057-7.778-1.633-11.949-4.884l-20.9,4.283c-13.571,3.951-18.559,14.219-15.3,25.755l14.848,53.909c10.9,15.294,22.733,19.412,33.366,18.483,10.633.928,22.466-3.19,33.366-18.483l14.848-53.909c3.255-11.536-1.734-21.8-15.3-25.755" transform="translate(-131.721 -71.065)" fill="#fa754a"/>
        <path id="Trazado_873986" data-name="Trazado 873986" d="M352.2,355.612c-2.369-15.542-7.8-31.133-16.945-44.356a204.972,204.972,0,0,1-67.162-.262,110.707,110.707,0,0,0-27.346,44.617Z" transform="translate(-120.848 -146.859)" fill="#181818"/>
        <path id="Trazado_873987" data-name="Trazado 873987" d="M358.829,38.316c-.725-6.765-3.765-12.86-9.493-16.7-11.6-7.776-29.412-5.984-37.141,6.414a19.154,19.154,0,0,0-2.23,5.084,25.1,25.1,0,0,0-.819,5.2s-1.385,12.868.695,20.851a38.27,38.27,0,0,0,5.86,12.767,24.3,24.3,0,0,0,7.292,6.654,21.437,21.437,0,0,0,6.7,2.512,25.061,25.061,0,0,0,4.2.426c.033,0,.067,0,.1-.005a.314.314,0,0,0,.1-.005,24,24,0,0,0,4.2-.416,21.442,21.442,0,0,0,6.7-2.512,24.3,24.3,0,0,0,7.292-6.654,38.269,38.269,0,0,0,5.86-12.767c2.079-7.981.7-20.843.695-20.851" transform="translate(-153.314 -8.078)" fill="#f6a97e"/>
        <path id="Trazado_873988" data-name="Trazado 873988" d="M305.149,75.334s-7.889-3.444-11.275,1.106S296.984,96.631,307,87.657s-1.851-12.323-1.851-12.323" transform="translate(-145.442 -35.035)" fill="#f6a97e"/>
        <path id="Trazado_873989" data-name="Trazado 873989" d="M589,282.285s10.561-7.074,13.87-6.821c4.715-2.018,10.332,1.027,11.358,3.654,3.4-.377,4.906,4.61,2.895,7.23a4.828,4.828,0,0,1-.78,5.809,4.941,4.941,0,0,1-2.625,5.953,5.286,5.286,0,0,1-5.1,5.2c-5.172.567-13.277-.382-18.154-3.912S585.4,285.656,589,282.285" transform="translate(-288.081 -129.883)" fill="#f6a97e"/>
        <path id="Trazado_873990" data-name="Trazado 873990" d="M628.323,293.74a3.361,3.361,0,0,1-2.042-.62c-.988-.74-1.456-2.1-1.391-4.039l.262-6.045.392.017-.262,6.043c-.06,1.8.354,3.049,1.232,3.709a3.692,3.692,0,0,0,3,.382c3.683-7.749,2.85-10.082,2.841-10.1l.363-.149c.041.1.947,2.463-2.886,10.5l-.036.076-.08.026a4.846,4.846,0,0,1-1.391.2" transform="translate(-306.37 -133.829)" fill="#d66947"/>
        <path id="Trazado_873991" data-name="Trazado 873991" d="M603.189,299.461l-.032-.391c3.6-.3,6.16-1.462,7.62-3.445A7.727,7.727,0,0,0,612,289.919l-.021-.1.065-.075a5.754,5.754,0,0,1,2.677-1.932l.09.382a5.433,5.433,0,0,0-2.408,1.735,7.971,7.971,0,0,1-1.309,5.919c-1.528,2.081-4.189,3.294-7.906,3.608" transform="translate(-296.012 -136.134)" fill="#d66947"/>
        <path id="Trazado_873992" data-name="Trazado 873992" d="M618.249,290.188a3.956,3.956,0,0,0-2.038-1.558l.109-.377a4.289,4.289,0,0,1,2.264,1.728Z" transform="translate(-302.235 -136.392)" fill="#d66947"/>
        <path id="Trazado_873993" data-name="Trazado 873993" d="M641.29,295.528l-3.907-.835.082-.384,3.907.835Z" transform="translate(-312.329 -139.261)" fill="#d66947"/>
        <path id="Trazado_873994" data-name="Trazado 873994" d="M631.912,301.684a43.047,43.047,0,0,1-10.15-2.307c-.028-.012-2.429-1.043-1.767-3.055a2.247,2.247,0,0,1,2.69-1.523l-.1.38a1.835,1.835,0,0,0-2.221,1.265c-.55,1.671,1.521,2.56,1.542,2.569a42.663,42.663,0,0,0,10.052,2.281Z" transform="translate(-303.984 -139.437)" fill="#d66947"/>
        <path id="Trazado_873995" data-name="Trazado 873995" d="M628.59,310.724l-7.71-3.032a3.1,3.1,0,0,1-1.163-4.193c.445-.785,1.135-1.157,1.678-.906l-.164.356c-.346-.156-.838.153-1.173.744a2.687,2.687,0,0,0,1,3.655l7.672,3.012Z" transform="translate(-303.719 -143.106)" fill="#d66947"/>
        <path id="Trazado_873996" data-name="Trazado 873996" d="M625.732,318.927c-.047,0-4.93-1.222-5.747-4-.091-1.454.8-2.791,1.6-2.957l.081.385a2.516,2.516,0,0,0-1.3,2.506c.73,2.465,5.346,3.673,5.392,3.682Z" transform="translate(-304.031 -147.584)" fill="#d66947"/>
        <path id="Trazado_873997" data-name="Trazado 873997" d="M628.134,325.6a2.747,2.747,0,0,1-.785-1.823l.392-.014a2.388,2.388,0,0,0,.645,1.536Z" transform="translate(-307.545 -152.949)" fill="#d66947"/>
        <path id="Trazado_873998" data-name="Trazado 873998" d="M592.576,319.528a6.372,6.372,0,0,1-3.949-4.16l.378-.1a6.085,6.085,0,0,0,3.689,3.89Z" transform="translate(-289.085 -149.159)" fill="#d66947"/>
        <path id="Trazado_873999" data-name="Trazado 873999" d="M632.308,298.515l-.392-.018c.022-.469.157-2.832.6-3.286.5-.512,1.43-.146,1.47-.129l-.146.364c-.2-.08-.779-.229-1.043.04a9.167,9.167,0,0,0-.49,3.029" transform="translate(-309.723 -139.548)" fill="#d66947"/>
        <path id="Trazado_874000" data-name="Trazado 874000" d="M586.13,299.144a11.143,11.143,0,0,1,.723-4.575l.362.151a10.968,10.968,0,0,0-.693,4.4Z" transform="translate(-287.884 -139.367)" fill="#d66947"/>
        <path id="Trazado_874001" data-name="Trazado 874001" d="M345.541,137.6a20.316,20.316,0,0,1-12.579-4.46l.243-.309a19.383,19.383,0,0,0,24.427.085l.244.307a19.742,19.742,0,0,1-12.335,4.377" transform="translate(-164.87 -62.847)" fill="#d66947"/>
        <path id="Trazado_874002" data-name="Trazado 874002" d="M304.79,90.479c-2.677-1.4-3.988-4.639-3.489-6.665a2.1,2.1,0,0,1,2.188-1.731v.392a1.726,1.726,0,0,0-1.807,1.432c-.463,1.881.846,4.942,3.291,6.224Z" transform="translate(-149.333 -38.83)" fill="#d66947"/>
        <path id="Trazado_874003" data-name="Trazado 874003" d="M306.525,92.29a3.018,3.018,0,0,0-3.557-.366l-.195-.341c.024-.013,2.338-1.3,4.032.433Z" transform="translate(-150.099 -43.111)" fill="#d66947"/>
        <path id="Trazado_874004" data-name="Trazado 874004" d="M392.671,75.334s7.889-3.444,11.274,1.106-3.109,20.191-13.125,11.218,1.851-12.323,1.851-12.323" transform="translate(-190.901 -35.035)" fill="#f6a97e"/>
        <path id="Trazado_874005" data-name="Trazado 874005" d="M406.033,90.479l-.182-.347c2.445-1.281,3.754-4.342,3.29-6.224a1.726,1.726,0,0,0-1.807-1.432v-.392a2.105,2.105,0,0,1,2.189,1.731c.5,2.026-.812,5.261-3.49,6.665" transform="translate(-200.002 -38.83)" fill="#d66947"/>
        <path id="Trazado_874006" data-name="Trazado 874006" d="M404.065,92.29l-.281-.274c1.693-1.735,4.009-.446,4.032-.433l-.194.341a3.018,3.018,0,0,0-3.557.366" transform="translate(-199.004 -43.112)" fill="#d66947"/>
        <path id="Trazado_874007" data-name="Trazado 874007" d="M354.208,116.516a6.583,6.583,0,0,1-3.474-1.021l.2-.335a6.553,6.553,0,0,0,6.846-.007l.18.349a8.2,8.2,0,0,1-3.756,1.014" transform="translate(-173.343 -54.488)" fill="#d66947"/>
        <path id="Trazado_874008" data-name="Trazado 874008" d="M351.207,109.707a12.309,12.309,0,0,1-6.493-1.908l.2-.335c4.056,2.465,8.357,2.462,13.149-.007l.18.349a15.359,15.359,0,0,1-7.039,1.9" transform="translate(-170.475 -50.845)" fill="#d66947"/>
        <path id="Trazado_874009" data-name="Trazado 874009" d="M311.212,96.263a22.671,22.671,0,0,1-1.4-8.657l.392.015a22.278,22.278,0,0,0,1.375,8.508Z" transform="translate(-153.485 -41.442)" fill="#d66947"/>
        <path id="Trazado_874010" data-name="Trazado 874010" d="M401.47,96.263l-.369-.134a22.278,22.278,0,0,0,1.375-8.508l.392-.015a22.671,22.671,0,0,1-1.4,8.657" transform="translate(-197.686 -41.442)" fill="#d66947"/>
        <path id="Trazado_874011" data-name="Trazado 874011" d="M356.612,89.962l-.034-.39c.027,0,2.679-.251,3.883-1.8.979-1.257-2.117-7.493-3.393-9.79l.343-.19c.482.868,4.674,8.533,3.36,10.222s-4.043,1.937-4.158,1.947" transform="translate(-176.152 -36.795)" fill="#d66947"/>
        <path id="Trazado_874012" data-name="Trazado 874012" d="M320.609,71.215a9.462,9.462,0,0,1,2.771-2.2,6.937,6.937,0,0,1,.845-.363,3.2,3.2,0,0,1,.464-.132,3.267,3.267,0,0,1,.525-.058,8.084,8.084,0,0,1,1.821.231,24.562,24.562,0,0,1,3.316,1.073,33.5,33.5,0,0,1,3.156,1.4.256.256,0,0,1-.2.47h0c-1.074-.369-2.158-.726-3.236-1.072s-2.169-.649-3.252-.88a7.5,7.5,0,0,0-1.573-.186,4.038,4.038,0,0,0-1.424.425,21.352,21.352,0,0,0-2.864,1.664l-.012.008a.256.256,0,0,1-.335-.381" transform="translate(-158.766 -32.637)" fill="#181818"/>
        <path id="Trazado_874013" data-name="Trazado 874013" d="M383.645,71.591a21.722,21.722,0,0,0-2.934-1.67,4.171,4.171,0,0,0-1.461-.421,7.863,7.863,0,0,0-1.609.187c-1.1.23-2.214.546-3.319.879s-2.207.7-3.3,1.072h0a.256.256,0,0,1-.2-.471,34.725,34.725,0,0,1,3.225-1.4,25.544,25.544,0,0,1,3.382-1.072,8.447,8.447,0,0,1,1.85-.232,4.5,4.5,0,0,1,1.865.545,9.712,9.712,0,0,1,2.846,2.21.256.256,0,0,1-.331.385Z" transform="translate(-183.05 -32.637)" fill="#181818"/>
        <path id="Trazado_874014" data-name="Trazado 874014" d="M330.247,80.59a3.532,3.532,0,1,1-5.1-1.918,9.028,9.028,0,0,0-4.913,1.993c2.476,5.2,6.843,6.611,13.42,3.585a20.328,20.328,0,0,0-3.411-3.66" transform="translate(-158.619 -37.218)" fill="#fff"/>
        <path id="Trazado_874015" data-name="Trazado 874015" d="M326.232,81.717a3.538,3.538,0,1,0,6.873-1.133,7.507,7.507,0,0,0-5.1-1.918,3.523,3.523,0,0,0-1.776,3.051" transform="translate(-161.477 -37.213)" fill="#181818"/>
        <path id="Trazado_874016" data-name="Trazado 874016" d="M379.147,78.666a3.557,3.557,0,1,1-5.1,1.918,20.363,20.363,0,0,0-3.411,3.66c6.578,3.025,10.945,1.617,13.42-3.585a9.022,9.022,0,0,0-4.913-1.993" transform="translate(-183.032 -37.215)" fill="#fff"/>
        <path id="Trazado_874017" data-name="Trazado 874017" d="M380.309,85.249a3.527,3.527,0,0,0,1.761-6.588,7.5,7.5,0,0,0-5.1,1.918,3.494,3.494,0,0,0-.2,1.133,3.538,3.538,0,0,0,3.538,3.538" transform="translate(-185.95 -37.21)" fill="#181818"/>
        <path id="Trazado_874018" data-name="Trazado 874018" d="M333.4,84.313c-3.961-5.637-8.263-6.82-13.153-3.616l-.215-.328c5.033-3.3,9.638-2.046,13.688,3.718Z" transform="translate(-158.521 -37.173)" fill="#181818"/>
        <path id="Trazado_874019" data-name="Trazado 874019" d="M370.722,84.266l-.322-.224c4.051-5.818,8.656-7.081,13.69-3.753l-.217.328c-4.888-3.233-9.19-2.039-13.151,3.65" transform="translate(-182.918 -37.128)" fill="#181818"/>
        <path id="Trazado_874020" data-name="Trazado 874020" d="M307.244,42.092c7.089-1.9,5.158-9.525,10.012-15.451,5.46-4.015,11.571-3.791,17.734-2.476,0,0,6.864,25.927,27.515,10.1-5.467,0-3.152-6.148-6.728-9.388l-8-11.344L326.836,10.07l-10.894,7.307q-9.754,7.215-10,18.972Z" transform="translate(-152.028 -4.801)" fill="#181818"/>
        <path id="Trazado_874021" data-name="Trazado 874021" d="M327.569,33.463A21.757,21.757,0,0,1,345.3,30.987c-3.627-16.195-17.733,2.476-17.733,2.476" transform="translate(-162.202 -11.623)" fill="#444"/>
        <path id="Trazado_874022" data-name="Trazado 874022" d="M320.719,34.31a11.64,11.64,0,0,1-5.647-8.5l.392-.018a11.242,11.242,0,0,0,5.465,8.185Z" transform="translate(-156.065 -12.297)" fill="#666"/>
        <path id="Trazado_874023" data-name="Trazado 874023" d="M326.811,26.641l-.354-.17a36.545,36.545,0,0,1,3.359-5.443c2.753-3.652,5.446-5.535,8.005-5.6l.009.392c-5.831.14-10.968,10.71-11.02,10.817" transform="translate(-161.617 -7.357)" fill="#666"/>
        <path id="Trazado_874024" data-name="Trazado 874024" d="M380.821,49.3a15.369,15.369,0,0,1-13.541-7.9l.354-.17c.058.12,6.007,12.009,21.477,5.946l.143.365a23.107,23.107,0,0,1-8.432,1.754" transform="translate(-181.476 -19.66)" fill="#666"/>
        <path id="Trazado_874025" data-name="Trazado 874025" d="M404.906,59.963l-.183-.347a39.425,39.425,0,0,0,4.131-2.709l.236.313a39.924,39.924,0,0,1-4.183,2.743" transform="translate(-199.461 -27.13)" fill="#666"/>
        <path id="Trazado_874026" data-name="Trazado 874026" d="M302.21,70.36a3.914,3.914,0,0,1-3.425-1.692l.343-.192c.05.088,1.267,2.168,4.656,1.271l.1.379a6.553,6.553,0,0,1-1.674.233" transform="translate(-148.174 -32.646)" fill="#666"/>
        <path id="Trazado_874027" data-name="Trazado 874027" d="M431.337,245.115l-.38-.1A272.117,272.117,0,0,0,437.33,211.9l.389.05a272.594,272.594,0,0,1-6.382,33.17" transform="translate(-212.185 -100.126)" fill="#db4d28"/>
        <path id="Trazado_874028" data-name="Trazado 874028" d="M282.66,258.425c-2.935-11.42-6.512-35.676-7.784-45.633l.389-.05c1.271,9.95,4.844,34.183,7.775,45.585Z" transform="translate(-136.616 -100.457)" fill="#db4d28"/>
        <path id="Trazado_874029" data-name="Trazado 874029" d="M451.29,272.2a4.533,4.533,0,0,1-3.545-.563c-4.533-2.9-8.214-8.283-11.489-12.462-6.551-9.78,8.261-32.043,24.877-27.915,2.065.593,10.825,10.586,8.594,12.575.507,1.12.966,2.267,1.364,3.424a1.008,1.008,0,0,1-.332,1.2s-.986-.675-1.321-.894c-12.257-.835-23.918,13.022-18.149,24.639" transform="translate(-214.287 -108.99)" fill="#181818"/>
        <path id="Trazado_874030" data-name="Trazado 874030" d="M461.036,284.513c-2.019-3.323-4.364-10.042,2.608-17.705,5.3-5.829,13.888-9.318,18.011-7.315l-.172.352c-3.982-1.931-12.349,1.512-17.549,7.227-6.8,7.475-4.525,14.008-2.563,17.238Z" transform="translate(-225.913 -122.394)" fill="#666"/>
        <path id="Trazado_874031" data-name="Trazado 874031" d="M455.791,244.78s-8.165-6.967-6.836-8.3c4.308-4.38,13.222-8.154,18.918-5.543l4.016,4.792Z" transform="translate(-220.994 -108.813)" fill="#181818"/>
        <path id="Trazado_874032" data-name="Trazado 874032" d="M458.067,256.176c-2.519,0-8.214-9.978-8.862-11.13l.342-.192c1.728,3.068,6.58,10.93,8.5,10.93a.6.6,0,0,0,.069,0,13.255,13.255,0,0,0,3.811-1.858c3.75-2.228,9.414-5.594,14.794-3.548l-.14.367c-5.2-1.981-10.549,1.2-14.454,3.518a12.97,12.97,0,0,1-3.97,1.911.929.929,0,0,1-.094,0" transform="translate(-221.234 -115.815)" fill="#666"/>
        <path id="Trazado_874033" data-name="Trazado 874033" d="M472.018,295.279c-1.73-1.309-4.022-6.343-3.641-12.022a15.7,15.7,0,0,1,8.424-13.084l.194.341a15.326,15.326,0,0,0-8.227,12.769c-.358,5.334,1.79,10.4,3.486,11.683Z" transform="translate(-230.303 -127.714)" fill="#db4d28"/>
        <path id="Trazado_874034" data-name="Trazado 874034" d="M264.557,293.832l-.37-.129c.7-2.009-.32-7.416-3.573-11.657a15.333,15.333,0,0,0-13.924-6.07l-.029-.391a15.7,15.7,0,0,1,14.264,6.223c3.464,4.516,4.346,9.977,3.632,12.024" transform="translate(-123.007 -130.286)" fill="#db4d28"/>
        <path id="Trazado_874035" data-name="Trazado 874035" d="M330.572,139.921s-2.7-.671-2.879,7.376c.241,5.1,8.686,5.61,15.772,5.618s12.676-3.055,13.531-4.336.57-8.658-1.755-9.151c-2.886,5.823-20.784,5.823-24.67.493" transform="translate(-162.355 -65.943)" fill="#fa754a"/>
        <path id="Trazado_874036" data-name="Trazado 874036" d="M310.852,248.054c-9.7,0-15.717-7.281-15.8-7.386l.306-.246c.118.147,12,14.5,29.313,2.359l.224.321c-5.22,3.661-9.958,4.953-14.042,4.953" transform="translate(-146.532 -113.735)" fill="#db4d28"/>
        <path id="Trazado_874037" data-name="Trazado 874037" d="M384.042,248.054c-4.084,0-8.82-1.291-14.042-4.953l.225-.321c17.324,12.147,29.2-2.212,29.313-2.359l.306.246c-.084.1-6.1,7.386-15.8,7.386" transform="translate(-182.864 -113.735)" fill="#db4d28"/>
        <path id="Trazado_874038" data-name="Trazado 874038" d="M342.872,161.147c-6.643,0-13.809-1.842-15.389-5.557l.361-.153c1.6,3.759,9.314,5.51,16.11,5.3,8.3-.257,12.167-2.9,13.012-5.29l.37.131c-1.355,3.83-7.795,5.379-13.37,5.552q-.545.017-1.095.017" transform="translate(-162.254 -73.537)" fill="#db4d28"/>
        <path id="Trazado_874039" data-name="Trazado 874039" d="M492.4,363.694l47.7-9.711a7.847,7.847,0,0,1,1.583-.158l18.123.037-17.136,4.024a1.117,1.117,0,0,1-.872,1.317l-.706.143v14.549a1.875,1.875,0,0,1-1.874,1.874H495.651a1.741,1.741,0,0,1-1.741-1.741v-2.875h0v-2.23l-.434.088a1.116,1.116,0,0,1-1.316-.872l-.636-3.129a1.117,1.117,0,0,1,.872-1.317" transform="translate(-242.781 -167.278)" fill="#fff"/>
        <path id="Trazado_874040" data-name="Trazado 874040" d="M531.951,372.593l47.179-9.705v15.327a1.874,1.874,0,0,1-1.874,1.874H533.692a1.741,1.741,0,0,1-1.741-1.741v-2.874h0v-2.881Z" transform="translate(-262.065 -171.599)" fill="#7baefa"/>
        <path id="Trazado_874041" data-name="Trazado 874041" d="M529.322,369.045l48.319-9.809a1.117,1.117,0,0,0,.872-1.316l-.635-3.129a1.117,1.117,0,0,0-1.317-.872l-48.319,9.809a1.117,1.117,0,0,0-.872,1.316l.635,3.129a1.117,1.117,0,0,0,1.317.872" transform="translate(-259.87 -167.312)" fill="#7baefa"/>
        <rect id="Rectángulo_401587" data-name="Rectángulo 401587" width="18.757" height="0.262" transform="translate(252.242 201.514)" fill="#92bbf4"/>
        <path id="Trazado_874042" data-name="Trazado 874042" d="M531.954,373.964l-.052-.256,47.179-9.578.052.256Z" transform="translate(-262.041 -172.191)" fill="#3a70bf"/>
        <rect id="Rectángulo_401588" data-name="Rectángulo 401588" width="18.758" height="0.262" transform="translate(250.08 196.725)" fill="#92bbf4"/>
        <path id="Trazado_874043" data-name="Trazado 874043" d="M607.247,388.756h-7.311a1.318,1.318,0,0,1,0-2.635h7.311a1.318,1.318,0,0,1,0,2.635m-7.311-2.373a1.056,1.056,0,0,0,0,2.112h7.311a1.056,1.056,0,0,0,0-2.112Z" transform="translate(-293.848 -182.675)" fill="#3a70bf"/>
        <rect id="Rectángulo_401589" data-name="Rectángulo 401589" width="3.204" height="0.262" transform="translate(254.708 203.446)" fill="#92bbf4"/>
        <path id="Trazado_874044" data-name="Trazado 874044" d="M437.554,142.6l-.376-.11c1.826-6.228-1.079-11.172-4.443-16.9-2.325-3.957-4.96-8.442-6.354-13.993l.38-.1c1.381,5.5,4,9.955,6.313,13.89,3.41,5.8,6.355,10.816,4.481,17.206" transform="translate(-210.015 -52.692)" fill="#666"/>
        <path id="Trazado_874045" data-name="Trazado 874045" d="M450.693,252.079c1.565,1.317,3.5-.372,3.773-.535,1.389-.842,3.391-4.187,3.391-4.187.573-.822-.077-1.313-.287-1.1-.093.11.321-.443.4-.56.682-1.053-.249-1.4-.623-1.063.663-.721-.078-1.5-.541-1.068.417-.567-.291-1.251-1.048-.535-.453.361-3.661,3.916-3.661,3.916-.307-.3.969-1.66.3-2.491a.18.18,0,0,0-.25.03,10.956,10.956,0,0,0-2.088,4.606,2.9,2.9,0,0,0,.632,2.992" transform="translate(-221.38 -114.812)" fill="#f6a97e"/>
        <path id="Trazado_874046" data-name="Trazado 874046" d="M460.917,251.727l-.2-.175,1.9-2.129.2.175Z" transform="translate(-226.552 -118.017)" fill="#d66947"/>
        <rect id="Rectángulo_401590" data-name="Rectángulo 401590" width="3.788" height="0.261" transform="matrix(0.637, -0.771, 0.771, 0.637, 233.447, 132.66)" fill="#d66947"/>
        <rect id="Rectángulo_401591" data-name="Rectángulo 401591" width="4.192" height="0.261" transform="translate(232.557 131.809) rotate(-48.978)" fill="#d66947"/>
        <path id="Trazado_874047" data-name="Trazado 874047" d="M387.936,237.572a4.343,4.343,0,0,1-2.108,4.027v0a40.349,40.349,0,0,1-11.971,5c2.379,2.23,4.99,4.764,4.836,5.684-.958,2.039-1.195,8.811-2.742,9.21-.806.407-13.078-6.657-11.584-11.726,3.561-11.821,15.191-16.127,15.191-16.127l.8.026c.639-.466,2.094-.081,2.942-.139a4.346,4.346,0,0,1,4.636,4.037" transform="translate(-180.019 -110.335)" fill="#fff"/>
        <path id="Trazado_874048" data-name="Trazado 874048" d="M409.522,384.515s-.58,2.35,1.034,2.7c1.929.452,4.439,1.778,4.07,3.345H403.766c.119-2.509.526-4.791,1.525-5.854,1.114.114,3.181-.927,4.231-.188" transform="translate(-199.055 -181.782)" fill="#fff"/>
        <path id="Trazado_874049" data-name="Trazado 874049" d="M379.273,384.515a2.1,2.1,0,0,0,1.173,2.887c1.453.438,3.382,1.552,2.537,3.155h-9.466c.118-2.509.525-4.791,1.525-5.854,1.114.114,3.182-.927,4.231-.188" transform="translate(-184.395 -181.782)" fill="#fff"/>
        <rect id="Rectángulo_401592" data-name="Rectángulo 401592" width="16.094" height="6.72" transform="translate(201.486 130.362) rotate(-69.704)" fill="#f6a97e"/>
        <path id="Trazado_874050" data-name="Trazado 874050" d="M388.841,286.785H372.21c-4.607,12.983-.683,53.963-.683,53.963,2.06.693,4.3.752,7.581,0,0,0,1.041-26.217,2.027-40.924a153.614,153.614,0,0,0,4.3,17.469,139.469,139.469,0,0,0,2.11,23.455,12.045,12.045,0,0,0,7.146,0c.019-7.863,1.315-16.553.858-24.633-.823-14.539-4.652-26.75-6.706-29.33" transform="translate(-182.812 -135.317)" fill="#77aaf4"/>
        <path id="Trazado_874051" data-name="Trazado 874051" d="M412.8,223.488h0a4.418,4.418,0,0,1-2.6-5.66l1.207-3.263a4.418,4.418,0,0,1,5.66-2.6c2.272.84,5.249-1.5,4.409.776l-1.46,3.95c.024,1.169.218,1.964-.153,2.3s-.994.8-.994.8c-1.423,3.785-3.792,4.539-6.064,3.7" transform="translate(-202.044 -100.125)" fill="#f6a97e"/>
        <path id="Trazado_874052" data-name="Trazado 874052" d="M409.172,205.907c2.2-2.121,6.123-1.573,8.246-.331,2.244-.382,3.5.781,3.473,2.29-.345,2.6-2.524,2.754-4.765,2.4-.8,2.573-1.328,4.057-2.386,4.111a2.874,2.874,0,0,0,.61-1.514,1.034,1.034,0,0,0-1.625-.98,3.086,3.086,0,0,0-.649,3.439c-2.675,1.543-4.216,1.111-6.514.261-.032-4.388-.521-9.722,3.608-9.682" transform="translate(-199.949 -96.716)" fill="#181818"/>
        <path id="Trazado_874053" data-name="Trazado 874053" d="M362.3,296.6s-.309-16.156,6.139-36.712a76.165,76.165,0,0,1,6.159-22.176c2.423-4.824,5.454-4.879,8.775-3.651l6.406,2.369c5.4,2.167,8.234,5.6,6.627,9.945-1.476,7.271-3.477,13.379-7.267,19.4,2.85,14.919,4.433,33.846,3.987,34.487-4.086.969-12.156,1.029-17.707.643-.175,0-.926-14.1-.926-14.1a98.543,98.543,0,0,0-.819,14.029c-6.8-.1-11.373-2.707-11.373-4.231" transform="translate(-179.171 -109.863)" fill="#fff"/>
        <path id="Trazado_874054" data-name="Trazado 874054" d="M451.131,259.71l.927-1.18c-.38-1.23-2.58-2.851-4.307-2.96l-1.528,1.809Z" transform="translate(-219.568 -120.918)" fill="#fff"/>
        <path id="Trazado_874055" data-name="Trazado 874055" d="M414.323,243.219a4.344,4.344,0,0,1,4.237,1.646l0,0a40.36,40.36,0,0,1,6.306,11.34c1.951-2.613,4.179-5.489,5.111-5.439,2.132.725,3.674,1.529,4.243,3.023.494.756-6.308,13.475-11.512,12.554-5.095-.975-11.6-14.8-11.6-14.8l.183-.357c-.535-.583-.313-2.072-.466-2.908a4.347,4.347,0,0,1,3.5-5.056" transform="translate(-202.558 -114.949)" fill="#fff"/>
        <rect id="Rectángulo_401593" data-name="Rectángulo 401593" width="2.705" height="0.262" transform="translate(222.058 143.942) rotate(-87.138)" fill="#92bbf4"/>
        <path id="Trazado_874056" data-name="Trazado 874056" d="M402.32,230.969a3.846,3.846,0,0,0-1.393,1.661c1.483,2.2,4.243,3.032,8.292,3.121a6.129,6.129,0,0,0-.555-2.457,14.893,14.893,0,0,1-6.344-2.325" transform="translate(-197.657 -109.275)" fill="#fff"/>
        <path id="Trazado_874057" data-name="Trazado 874057" d="M418.673,272.27a70.258,70.258,0,0,1-3.86-6.128l.231-.122a70,70,0,0,0,3.842,6.1Z" transform="translate(-204.344 -125.852)" fill="#92bbf4"/>
        <path id="Trazado_874058" data-name="Trazado 874058" d="M410.423,248.043l-.259-.042a5.4,5.4,0,0,1,2.316-4,5.738,5.738,0,0,1,4.361-.406l-.082.248a5.584,5.584,0,0,0-4.146.383,5.153,5.153,0,0,0-2.192,3.814" transform="translate(-202.116 -115.129)" fill="#92bbf4"/>
        <path id="Trazado_874059" data-name="Trazado 874059" d="M403.695,240c-1.765-.01-9.728-3.259-12.528-5.111l.144-.218c2.912,1.926,10.827,5.058,12.386,5.068Z" transform="translate(-192.967 -111.025)" fill="#92bbf4"/>
        <path id="Trazado_874060" data-name="Trazado 874060" d="M408.652,237.375a14.372,14.372,0,0,1-4.045-.82c-.986-.333-3.343-1.234-3.907-2.407l.236-.114c.361.752,1.765,1.6,3.755,2.272a11.821,11.821,0,0,0,4.4.777l.043.258a3.013,3.013,0,0,1-.48.034" transform="translate(-197.549 -110.732)" fill="#92bbf4"/>
        <path id="Trazado_874061" data-name="Trazado 874061" d="M421.143,219s-1.366,3.841,1.27,4.274c0,0,.261,5.054-4.106,4.342-2.468-.38.682-2.794,1.079-6.313Z" transform="translate(-205.592 -103.598)" fill="#181818"/>
        <path id="Trazado_874062" data-name="Trazado 874062" d="M451.539,260.643c-1.044-2.348-4.179-2.964-4.21-2.97l.049-.257c.134.026,3.3.648,4.4,3.121Z" transform="translate(-220.091 -121.795)" fill="#92bbf4"/>
        <path id="Trazado_874063" data-name="Trazado 874063" d="M374.591,259.41l-.255-.058c.277-1.216.538-2.448.813-3.754,1.349-6.387,2.877-13.628,6.726-18.841l.21.155c-3.815,5.168-5.337,12.378-6.68,18.74-.276,1.307-.537,2.541-.814,3.758" transform="translate(-184.776 -111.931)" fill="#92bbf4"/>
        <path id="Trazado_874064" data-name="Trazado 874064" d="M409.546,296.211l-.052-.256a4.379,4.379,0,0,0,2.052-.851l.184.186a4.5,4.5,0,0,1-2.183.921" transform="translate(-201.753 -139.637)" fill="#92bbf4"/>
        <path id="Trazado_874065" data-name="Trazado 874065" d="M389.8,292.385h0a21.743,21.743,0,0,1-10.316-2.688.131.131,0,0,1-.062-.139l.427-2.136a.131.131,0,0,1,.07-.092.134.134,0,0,1,.116,0,25.693,25.693,0,0,0,10.345,2.657.131.131,0,0,1,.12.165l-.569,2.136a.131.131,0,0,1-.127.1M379.7,289.518a21.489,21.489,0,0,0,10.008,2.6l.5-1.878a25.945,25.945,0,0,1-10.133-2.6Z" transform="translate(-187.264 -135.933)" fill="#92bbf4"/>
        <path id="Trazado_874066" data-name="Trazado 874066" d="M382.24,290.2a.487.487,0,1,1-.487-.487.486.486,0,0,1,.487.487" transform="translate(-188.078 -137.089)" fill="#aed3ff"/>
        <path id="Trazado_874067" data-name="Trazado 874067" d="M397.619,294.048a.487.487,0,1,1-.487-.487.486.486,0,0,1,.487.487" transform="translate(-195.523 -138.908)" fill="#aed3ff"/>
        <rect id="Rectángulo_401594" data-name="Rectángulo 401594" width="0.392" height="72.973" transform="translate(114.06 135.797)" fill="#181818"/>
        <rect id="Rectángulo_401595" data-name="Rectángulo 401595" width="0.392" height="72.973" transform="translate(89.699 135.797)" fill="#181818"/>
        <rect id="Rectángulo_401596" data-name="Rectángulo 401596" width="29.15" height="1.452" transform="translate(84.867 146.997)" fill="#181818"/>
        <rect id="Rectángulo_401597" data-name="Rectángulo 401597" width="29.15" height="1.452" transform="translate(87.055 135.293)" fill="#181818"/>
        <rect id="Rectángulo_401598" data-name="Rectángulo 401598" width="29.15" height="1.452" transform="translate(80.492 170.655)" fill="#181818"/>
        <rect id="Rectángulo_401599" data-name="Rectángulo 401599" width="29.15" height="1.452" transform="translate(82.68 158.7)" fill="#181818"/>
        <rect id="Rectángulo_401600" data-name="Rectángulo 401600" width="29.15" height="1.452" transform="translate(76.117 193.903)" fill="#181818"/>
        <rect id="Rectángulo_401601" data-name="Rectángulo 401601" width="29.15" height="1.452" transform="translate(78.305 182.279)" fill="#181818"/>
        <rect id="Rectángulo_401602" data-name="Rectángulo 401602" width="74.383" height="0.523" transform="translate(75.407 208.726) rotate(-78.87)" fill="#181818"/>
        <rect id="Rectángulo_401603" data-name="Rectángulo 401603" width="74.383" height="0.523" transform="matrix(0.193, -0.981, 0.981, 0.193, 99.76, 208.727)" fill="#181818"/>
        <path id="Trazado_874068" data-name="Trazado 874068" d="M261.209,100.116H259.2a.363.363,0,0,1-.363-.363V97.067a.363.363,0,0,1,.363-.363h2.007a.363.363,0,0,1,.363.363v2.687a.362.362,0,0,1-.363.363" transform="translate(-128.821 -45.755)" fill="#181818"/>
        <path id="Trazado_874069" data-name="Trazado 874069" d="M261.418,92.765h-5.324a.369.369,0,0,1-.369-.369V87.872a.34.34,0,0,1,.34-.34h5.353Z" transform="translate(-127.329 -41.412)" fill="#181818"/>
        <path id="Trazado_874070" data-name="Trazado 874070" d="M266.605,92.765s1-.732,1-.739V88.271l-1-.739Z" transform="translate(-132.57 -41.412)" fill="#77aaf4"/>
        <path id="Trazado_874071" data-name="Trazado 874071" d="M268.519,92.7a16.377,16.377,0,0,1,5.975-1.742v-.271a16.022,16.022,0,0,1-5.975-1.742Z" transform="translate(-133.525 -42.083)" fill="#181818"/>
        <path id="Trazado_874072" data-name="Trazado 874072" d="M260.787,117.785h-1.656a.8.8,0,0,1-.8-.8v-15.92a.262.262,0,0,1,.262-.262h2.732a.267.267,0,0,1,.266.267v15.9a.808.808,0,0,1-.808.808" transform="translate(-128.579 -47.669)" fill="#181818"/>
        <path id="Trazado_874073" data-name="Trazado 874073" d="M255.582,92.8h0a.251.251,0,0,1-.25-.25v-5.42a.25.25,0,0,1,.5,0v5.42a.251.251,0,0,1-.25.25" transform="translate(-127.111 -41.101)" fill="#fff"/>
        <rect id="Rectángulo_401604" data-name="Rectángulo 401604" width="3.261" height="3.179" transform="translate(129.755 55.591)" fill="#77aaf4"/>
        <rect id="Rectángulo_401605" data-name="Rectángulo 401605" width="2.732" height="0.262" transform="translate(130.019 51.248)" fill="#666"/>
        <rect id="Rectángulo_401606" data-name="Rectángulo 401606" width="2.732" height="0.262" transform="translate(130.019 52.973)" fill="#666"/>
        <path id="Trazado_874074" data-name="Trazado 874074" d="M259.584,112.407c.1-.192-.137-1.456-.491-1.064,0,0-2.151,2.714-2.972,2.973-.447.151-.347-1.289-.347-1.289a1.554,1.554,0,0,0-.774.266,5.536,5.536,0,0,0-1.991,3.45c-.266,1.143.658,3.205,2,2.892a21.345,21.345,0,0,0,3.6-1.269c.9-.55,1.561-2.627,1.561-2.627.172-.4.054-1.373-.126-1.072.281-.455-.008-1.081-.311-1.059a1,1,0,0,0-.154-1.2" transform="translate(-126 -52.635)" fill="#fca886"/>
        <path id="Trazado_874075" data-name="Trazado 874075" d="M261.512,115.961l-.173-.2a12.493,12.493,0,0,0,2.129-2.459l.218.144a12.759,12.759,0,0,1-2.174,2.511" transform="translate(-130.028 -53.611)" fill="#d66947"/>
        <path id="Trazado_874076" data-name="Trazado 874076" d="M263.707,119.9l-.191-.179a10.029,10.029,0,0,0,1.5-2.174l.231.123a10.268,10.268,0,0,1-1.538,2.23" transform="translate(-131.079 -55.62)" fill="#d66947"/>
        <path id="Trazado_874077" data-name="Trazado 874077" d="M262.627,117.9l-.179-.19a9.307,9.307,0,0,0,1.721-2.153l.227.13a9.546,9.546,0,0,1-1.768,2.213" transform="translate(-130.563 -54.679)" fill="#d66947"/>
        <path id="Trazado_874078" data-name="Trazado 874078" d="M256.969,117.351a.843.843,0,0,1-.506-.139l.16-.207c.015.01.356.251,1.057-.125l.123.23a1.773,1.773,0,0,1-.835.24" transform="translate(-127.663 -55.307)" fill="#d66947"/>
        <path id="Trazado_874079" data-name="Trazado 874079" d="M168.084,292.709s7.676,2.742,5.553,4.4H162.248c-.85.075-.331-2.116.244-4.4Z" transform="translate(-81.872 -138.488)" fill="#fff"/>
        <path id="Trazado_874080" data-name="Trazado 874080" d="M207.563,270.735s8.322,2.169,6.387,4.336H201.727c-.85.074-.331-2.085.244-4.336Z" transform="translate(-100.997 -128.092)" fill="#fff"/>
        <path id="Trazado_874081" data-name="Trazado 874081" d="M196.613,108.6s-2.124-2.8-2.124-4.332c0-2.065,6.179-5.711,8.046-5.236s3.105,4.7,3.105,4.7Z" transform="translate(-97.701 -46.823)" fill="#fff"/>
        <path id="Trazado_874082" data-name="Trazado 874082" d="M192.932,189.239a198.388,198.388,0,0,1,17.675,18.132,5.941,5.941,0,0,1,0,7.564l-12.556,16.948c-3.6.73-5.949.792-6.707,0a60.721,60.721,0,0,1,8.578-20.694c-6.37-2.773-17.726-12.406-19.782-19.551Z" transform="translate(-90.837 -89.372)" fill="#77aaf4"/>
        <path id="Trazado_874083" data-name="Trazado 874083" d="M167.231,188.218s-1.273,3.225.421,8.169a339.227,339.227,0,0,0-5.538,43.668,9.108,9.108,0,0,0,6.108-.567c9.554-24.985,12.626-39.874,14.385-54.647l-1.764-3.767-5.673,2.049Z" transform="translate(-82.054 -85.428)" fill="#77aaf4"/>
        <path id="Trazado_874084" data-name="Trazado 874084" d="M215.784,106.247a13.508,13.508,0,0,1,1.5.53,6.441,6.441,0,0,1,.427,4.872c-.75,2.8-2.583-3.93-2.583-3.93Z" transform="translate(-107.659 -50.265)" fill="#181818"/>
        <path id="Trazado_874085" data-name="Trazado 874085" d="M209.913,108.244s4.883,10.183,1.5,12.272a3.773,3.773,0,0,1-2.145.563l-1.623,4.85-6.149-2.73a16.565,16.565,0,0,0,.942-4,13.784,13.784,0,0,1-1.266-6.388l2.12-3.886,3.8-.677,2.208.235Z" transform="translate(-100.927 -51.186)" fill="#fca886"/>
        <path id="Trazado_874086" data-name="Trazado 874086" d="M196.4,108.5a5.065,5.065,0,0,1,.719-3.265,5.862,5.862,0,0,1,2.323-1.885,11.882,11.882,0,0,1,3.205-.921c.69-.111,1.385-.183,2.08-.238a8.48,8.48,0,0,0,2.3-.338,3.071,3.071,0,0,0,1.183-.745c.414,1.286.856,3.917-.762,4.911a21.265,21.265,0,0,1-6.812,2.269c.772,1.78,1.569,3.586,1.031,3.945a1.166,1.166,0,0,0-1.259-.86c-1.8.3-1.56,2.674.825,3.26a1.9,1.9,0,0,1-1.389,1.26c-4-2.784-4.97-5.61-3.446-7.392" transform="translate(-98.305 -47.816)" fill="#181818"/>
        <path id="Trazado_874087" data-name="Trazado 874087" d="M196.642,212.955l-.254-.061.881-3.639.255.061Z" transform="translate(-98.579 -99.006)" fill="#3a70bf"/>
        <path id="Trazado_874088" data-name="Trazado 874088" d="M213.93,131.213a4.205,4.205,0,0,1-2.977-1.846l.22-.142a4.015,4.015,0,0,0,2.778,1.727Z" transform="translate(-105.638 -61.145)" fill="#d66947"/>
        <path id="Trazado_874089" data-name="Trazado 874089" d="M185.441,133.012c-5.107,1.752-14.408,7.709-19.108,36.435,6.932,1.828,18.159,2.136,18.159,2.136a67.419,67.419,0,0,0,2.243-8.759l2.926,2.7c3.3-11.568,3.841-19.221,2.312-28.89-4.029-.276-6.432-3.69-6.532-3.624" transform="translate(-84.121 -62.834)" fill="#fff"/>
        <path id="Trazado_874090" data-name="Trazado 874090" d="M224.11,135.29l-14.079-2.45-1.077,8.319,15.514,1.506c2.754.181,4.393-1.095,5.093-2.674l6.692-16.849-4.223-.884Z" transform="translate(-104.783 -57.806)" fill="#fca886"/>
        <path id="Trazado_874091" data-name="Trazado 874091" d="M222.283,135.2a53.143,53.143,0,0,1,7.057-11.628,8.107,8.107,0,0,1,5.148,3s-3.6,15.379-7.856,16.725c-3.729,1.405-19.623-1.2-19.623-1.2s-1.326-6.335-1.326-6.445,1.1-4.014,1.1-4.014l3.973,1.051a61.721,61.721,0,0,1,11.522,2.516" transform="translate(-103.205 -58.426)" fill="#fff"/>
        <path id="Trazado_874092" data-name="Trazado 874092" d="M211.337,159.137a27.528,27.528,0,0,1-6.035-1.374l.087-.246a27.266,27.266,0,0,0,5.978,1.36Z" transform="translate(-102.915 -74.532)" fill="#92bbf4"/>
        <path id="Trazado_874093" data-name="Trazado 874093" d="M238.793,148.312l-.262-.005a3.216,3.216,0,0,0-1.3-2.637l.142-.219a3.419,3.419,0,0,1,1.422,2.862" transform="translate(-118.352 -68.82)" fill="#92bbf4"/>
        <path id="Trazado_874094" data-name="Trazado 874094" d="M217.263,229.768l1.835-1.958.191.179-1.309,1.4,2.913-.477.042.259Z" transform="translate(-108.696 -107.792)" fill="#3a70bf"/>
        <path id="Trazado_874095" data-name="Trazado 874095" d="M202.616,129.975a13.487,13.487,0,0,0,6.229,4.4l.284,2.193-3.4-.143-2.377-2.73-1.794-1.867Z" transform="translate(-101.108 -61.489)" fill="#fff"/>
        <path id="Trazado_874096" data-name="Trazado 874096" d="M203.3,144.6l-.261-.026a4.847,4.847,0,0,1,1.659-3.444,5.272,5.272,0,0,1,3.581-1.031l-.028.26a5.092,5.092,0,0,0-3.39.976A4.6,4.6,0,0,0,203.3,144.6" transform="translate(-101.818 -66.275)" fill="#92bbf4"/>
        <path id="Trazado_874097" data-name="Trazado 874097" d="M204.776,136.954a9.4,9.4,0,0,1-3.435-3.429l.225-.134a9.134,9.134,0,0,0,3.339,3.335Z" transform="translate(-100.987 -63.113)" fill="#92bbf4"/>
        <path id="Trazado_874098" data-name="Trazado 874098" d="M205.336,175.495l-.254-.063c.026-.1,2.613-10.447,3.488-15.91l.258.041c-.877,5.474-3.467,15.828-3.493,15.932" transform="translate(-102.799 -75.439)" fill="#92bbf4"/>
        <path id="Trazado_874099" data-name="Trazado 874099" d="M213.346,177.988l-.255-.059a76.468,76.468,0,0,0,1.472-8.737l.26.028a76.8,76.8,0,0,1-1.477,8.769" transform="translate(-106.668 -80.035)" fill="#92bbf4"/>
        <path id="Trazado_874100" data-name="Trazado 874100" d="M173.772,181.209a17,17,0,0,1-3.726-.459l.065-.254a15.881,15.881,0,0,0,4.42.425l.321-1.7a13.162,13.162,0,0,1-4.231-.625l.09-.246a13.057,13.057,0,0,0,4.282.61h.018a.13.13,0,0,1,.128.155l-.369,1.954a.131.131,0,0,1-.117.106c-.294.024-.589.035-.881.035" transform="translate(-85.841 -84.387)" fill="#92bbf4"/>
        <path id="Trazado_874101" data-name="Trazado 874101" d="M177.161,181.209a.356.356,0,1,1-.356-.356.356.356,0,0,1,.356.356" transform="translate(-88.925 -85.578)" fill="#aed3ff"/>
        <path id="Trazado_874102" data-name="Trazado 874102" d="M515.651,220.5a2.3,2.3,0,0,1-1.948.029,4.255,4.255,0,0,1-1.63-1.574,8.811,8.811,0,0,1-1.11-2.177.95.95,0,0,1,.7-1.358c-.048-.594.778-.944,1.052-.666-.169-.391.826-1.009,1.033-.494-.452-.907-1.66-3.633-1.66-3.633-.352-.766.586-1.511,1.131-.581.347.489,2.513,4.944,2.513,4.944.392-.212-.379-1.926.526-2.559a.187.187,0,0,1,.256.112,10.517,10.517,0,0,1,.629,5.165,3,3,0,0,1-1.488,2.792" transform="translate(-250.88 -99.148)" fill="#f3a786"/>
        <path id="Trazado_874103" data-name="Trazado 874103" d="M512.476,222.124a.822.822,0,0,1-.69-.408l.331-.212a.434.434,0,0,0,.359.228h0a.543.543,0,0,0,.434-.289l.111-.175.168.121a.5.5,0,0,0,.546.055.409.409,0,0,0,.182-.424l-.1-.688.444.535a.414.414,0,0,0,.523.135c.134-.08.166-.238.087-.432l-.93-2.267.363-.149.93,2.267a.7.7,0,0,1-.248.917.748.748,0,0,0-1.049.44.853.853,0,0,1-.813.026.871.871,0,0,1-.651.318Z" transform="translate(-251.289 -103.216)" fill="#d66947"/>
        <rect id="Rectángulo_401607" data-name="Rectángulo 401607" width="0.392" height="2.374" transform="matrix(0.916, -0.401, 0.401, 0.916, 261.698, 115.679)" fill="#d66947"/>
        <rect id="Rectángulo_401608" data-name="Rectángulo 401608" width="0.392" height="2.279" transform="translate(260.647 116.364) rotate(-25.619)" fill="#d66947"/>
        <path id="Trazado_874104" data-name="Trazado 874104" d="M517.219,225.221a3.309,3.309,0,0,1-.357-1.062l.389-.053a2.9,2.9,0,0,0,.317.934Z" transform="translate(-253.716 -106.043)" fill="#d66947"/>
        <path id="Trazado_874105" data-name="Trazado 874105" d="M517.755,220.8l-.331-.211a2.871,2.871,0,0,1,1.362-1.055l.127.371a2.512,2.512,0,0,0-1.157.9" transform="translate(-253.996 -103.88)" fill="#d66947"/>
        <path id="Trazado_874106" data-name="Trazado 874106" d="M564.485,206.885a9.233,9.233,0,0,1,6.16.389c2.074.925,3.4,2.77,4.521,4.88,1.007,1.9,2.054,3.775,3.146,5.62,1.783,3.012,2.768,7.217,1.1,10.654.61,5.382-14.717-.685-14.717-.685s-2.4,4.434-4.337,1.561c-3.842-4.11.653-13.373.653-13.373-.457-4.9.376-8.152,3.474-9.046" transform="translate(-274.867 -97.636)" fill="#181818"/>
        <path id="Trazado_874107" data-name="Trazado 874107" d="M541.4,237.436l-13.841,2.409-5.908-9.721a24.984,24.984,0,0,1-4.46,1.73l5.01,12.613c.688,1.552,2.3,2.806,5.007,2.628l15.252-1.48Z" transform="translate(-254.157 -108.822)" fill="#fca886"/>
        <path id="Trazado_874108" data-name="Trazado 874108" d="M526.574,236.938a52.254,52.254,0,0,0-6.937-11.432,7.969,7.969,0,0,0-5.061,2.945s3.534,15.119,7.723,16.443c3.665,1.381,19.29-1.18,19.29-1.18s1.3-6.227,1.3-6.336-1.086-3.946-1.086-3.946l-1.314.2a92.535,92.535,0,0,0-13.918,3.3" transform="translate(-252.929 -106.625)" fill="#fff"/>
        <path id="Trazado_874109" data-name="Trazado 874109" d="M534.737,249.829a3.365,3.365,0,0,1,1.4-2.816l.142.22a3.159,3.159,0,0,0-1.28,2.591Z" transform="translate(-262.378 -116.875)" fill="#92bbf4"/>
        <path id="Trazado_874110" data-name="Trazado 874110" d="M583.97,384.3a7.2,7.2,0,0,1-1.017,2.537c-.567.508-2.995,1.229-2.81,3.5h7.6s.891-.03.891-.845-.31-2.7-.532-4.6a3.584,3.584,0,0,0-4.131-.6" transform="translate(-285.036 -181.615)" fill="#fff"/>
        <path id="Trazado_874111" data-name="Trazado 874111" d="M558.634,385.5c-.991.139-.887,1.991-3.1,2.52-2.692.55-4.328,1.5-4.354,2.55.026.214-.077.4.038.534h11.125a.821.821,0,0,0,.821-.829,31.808,31.808,0,0,0-.574-3.933l-.365-.561c-.392.643-3.085,1.174-3.594-.28" transform="translate(-271.225 -182.381)" fill="#fff"/>
        <path id="Trazado_874112" data-name="Trazado 874112" d="M576.011,233.316c-3.516,1.874-7.274,3.043-12.354.365l3.351-1.3v-7.668h6.139V232.4Z" transform="translate(-277.181 -106.294)" fill="#f3a786"/>
        <path id="Trazado_874113" data-name="Trazado 874113" d="M576.011,240.476c-4.656,7.838-8.981,11.971-12.354.365l2.834-1.105c1.1.987,4.378,1.146,7.487.044Z" transform="translate(-277.181 -113.408)" fill="#77aaf4"/>
        <path id="Trazado_874114" data-name="Trazado 874114" d="M571.382,339.493c-.529-.443-3.968-42-3.968-42l-.55-.3s-.823,42.023-1.09,42.289c-.489.485-5.584-.016-5.967-.46-.238-.275-4.3-39.006-2.557-46.156a21.686,21.686,0,0,1,3.645-8.447h12.893s3.986,3.63,4.175,14.563c0,0,1.46,26.007-.717,40.194-.5.464-5.335.757-5.865.314" transform="translate(-273.919 -134.191)" fill="#181818"/>
        <path id="Trazado_874115" data-name="Trazado 874115" d="M577.651,276.3c-9.854,1.937-20.852,1.169-23.791-.122l1.547-17.947s-1.9-11.132-1.125-13.064a6.717,6.717,0,0,1,4.25-3.845l2.014-.711c.3,2.478,3.01,6.664,3.01,6.664s5.072-5.642,6.9-6.721l2.93.755c2.334.728,3.542,1.438,4.287,3.423,1.01,2.627-2.663,14.433-2.663,14.433a55.3,55.3,0,0,1,2.639,17.134" transform="translate(-272.51 -113.645)" fill="#fff"/>
        <path id="Trazado_874116" data-name="Trazado 874116" d="M569.006,223.776h0a4.544,4.544,0,0,0,4.531-4.531v-3.389a4.531,4.531,0,1,0-9.062,0s-.1,7.919,4.531,7.919" transform="translate(-277.57 -99.951)" fill="#f3a786"/>
        <path id="Trazado_874117" data-name="Trazado 874117" d="M571.6,233.793a4.676,4.676,0,0,1-1.679-.309l.14-.367a4.287,4.287,0,0,0,1.538.284,4.339,4.339,0,0,0,3.25-1.474l.294.26a4.73,4.73,0,0,1-3.544,1.607" transform="translate(-280.169 -109.741)" fill="#d66947"/>
        <path id="Trazado_874118" data-name="Trazado 874118" d="M573.17,215.041a14.388,14.388,0,0,1-6.329-4.079,3.7,3.7,0,0,0-2.631,2.61l-.52-2.066.681-1.765,3.1-1.127,3.2.187,2.189,1.615L574,212.777Z" transform="translate(-277.196 -98.693)" fill="#181818"/>
        <path id="Trazado_874119" data-name="Trazado 874119" d="M549.259,271.092h-10.9a1.145,1.145,0,0,1-1.142-1.142l-2.7-14.694a1.145,1.145,0,0,1,1.142-1.142h10.9a1.145,1.145,0,0,1,1.142,1.142l2.7,14.694a1.145,1.145,0,0,1-1.142,1.142" transform="translate(-262.44 -120.167)" fill="#77aaf4"/>
        <path id="Trazado_874120" data-name="Trazado 874120" d="M558.812,271.091v-.262a.994.994,0,0,0,.992-.992l-2.65-14.427a1,1,0,0,0-.994-1.015v-.262a1.254,1.254,0,0,1,1.253,1.253l2.65,14.427a1.257,1.257,0,0,1-1.252,1.277" transform="translate(-273.607 -120.176)" fill="#3a70bf"/>
        <path id="Trazado_874121" data-name="Trazado 874121" d="M581.013,220.737c.047,0,.619-.863,1.378-.315,1.2.871.045,3.413-1.257,3.135-1.3-.532-.12-2.82-.12-2.82" transform="translate(-285.221 -104.205)" fill="#f3a786"/>
        <path id="Trazado_874122" data-name="Trazado 874122" d="M559.242,270.062c-.931,1.82-3.374,1.016-3.685.97-1.607-.237-4.75-2.544-4.75-2.544-.847-.535-.438-1.24-.164-1.129.128.065-.468-.284-.588-.359-1.038-.706-.314-1.388.161-1.222-.891-.407-.509-1.412.085-1.194-.6-.361-.217-1.266.758-.9.558.157,4.893,2.189,4.893,2.189l-.308-1.813a10.743,10.743,0,0,1,3.021,3,2.9,2.9,0,0,1,.578,3" transform="translate(-270.443 -124.7)" fill="#f6a97e"/>
        <path id="Trazado_874123" data-name="Trazado 874123" d="M554.181,272.129,551.6,270.9l.112-.236,2.579,1.224Z" transform="translate(-271.434 -128.074)" fill="#d66947"/>
        <rect id="Rectángulo_401609" data-name="Rectángulo 401609" width="0.261" height="3.788" transform="translate(279.715 141.207) rotate(-62.455)" fill="#d66947"/>
        <rect id="Rectángulo_401610" data-name="Rectángulo 401610" width="0.262" height="4.192" transform="translate(279.818 139.98) rotate(-63.79)" fill="#d66947"/>
        <path id="Trazado_874124" data-name="Trazado 874124" d="M566,275.091l-1.435-.437c-.392-1.227.482-3.815,1.837-4.893l2.289.609Z" transform="translate(-277.57 -127.626)" fill="#fff"/>
        <path id="Trazado_874125" data-name="Trazado 874125" d="M576.894,246.5a27.349,27.349,0,0,0,.748,12.922c-3.1-1.025-7.85-2.468-8.585-1.893-1.334,1.815-2.137,3.357-1.749,4.908.028.9,12.886,7.437,16.626,3.7,3.619-3.716.454-18.84.454-18.84-.988-5.583-6.463-5.031-7.495-.8" transform="translate(-278.875 -114.979)" fill="#fff"/>
        <path id="Trazado_874126" data-name="Trazado 874126" d="M588.6,275.833a2.681,2.681,0,0,0-1.593-2.035l.122-.231a2.927,2.927,0,0,1,1.73,2.234Z" transform="translate(-288.312 -129.441)" fill="#92bbf4"/>
        <path id="Trazado_874127" data-name="Trazado 874127" d="M567.083,275.368c-.514-2.657,1.726-4.981,1.822-5.078l.187.183c-.023.022-2.24,2.324-1.752,4.845Z" transform="translate(-278.778 -127.877)" fill="#92bbf4"/>
        <path id="Trazado_874128" data-name="Trazado 874128" d="M578.055,261.017a.124.124,0,0,1-.041-.007c-5.631-1.891-7.912-1.805-8.477-1.732a.161.161,0,0,1-.05,0l-1.385-.368.067-.253,1.36.362c.612-.073,2.9-.132,8.328,1.667-2.345-7.887-1.716-12.985.137-13.956l.121.232c-2.038,1.068-2.01,7.039.064,13.89a.13.13,0,0,1-.034.132.129.129,0,0,1-.091.037" transform="translate(-279.3 -116.686)" fill="#92bbf4"/>
        <path id="Trazado_874129" data-name="Trazado 874129" d="M579.732,284.223c-4.13,0-11.5-2.328-13.747-4.673l-1.4-.426.076-.251,1.436.437a.128.128,0,0,1,.057.036c2.562,2.716,12.733,5.544,15.545,4.32l.1.24a5.409,5.409,0,0,1-2.068.318" transform="translate(-277.621 -131.937)" fill="#92bbf4"/>
        <path id="Trazado_874130" data-name="Trazado 874130" d="M568.634,249.1a.116.116,0,0,1-.1-.049,22.749,22.749,0,0,1-4.185-8.02l.252-.071a22.46,22.46,0,0,0,4.037,7.8,69.32,69.32,0,0,1,7.617-7.8l.171.2a69.482,69.482,0,0,0-7.692,7.895.128.128,0,0,1-.1.047" transform="translate(-277.509 -113.988)" fill="#92bbf4"/>
        <rect id="Rectángulo_401611" data-name="Rectángulo 401611" width="0.261" height="12.187" transform="translate(45.271 168.916) rotate(-12.463)" fill="#181818"/>
        <path id="Trazado_874131" data-name="Trazado 874131" d="M87.528,294.059l-7.459,1.648a1.358,1.358,0,0,1-1.619-1.033L72.9,269.569a1.358,1.358,0,0,1,1.033-1.619l7.459-1.648a1.358,1.358,0,0,1,1.619,1.033l5.548,25.106a1.358,1.358,0,0,1-1.033,1.619" transform="translate(-38.298 -125.843)" fill="#181818"/>
        <path id="Trazado_874132" data-name="Trazado 874132" d="M86,285.6l-9.393,2.076a1.127,1.127,0,0,1-1.343-.857l-5.292-23.946a1.127,1.127,0,0,1,.857-1.343l9.393-2.076a1.126,1.126,0,0,1,1.343.857l5.292,23.946A1.126,1.126,0,0,1,86,285.6" transform="translate(-36.904 -122.616)" fill="#181818"/>
        <path id="Trazado_874133" data-name="Trazado 874133" d="M86.028,285l-11.617,2.567a1.183,1.183,0,0,1-1.411-.9l-4.644-21.014a1.183,1.183,0,0,1,.9-1.411l11.617-2.567a1.183,1.183,0,0,1,1.411.9l4.644,21.014a1.183,1.183,0,0,1-.9,1.411" transform="translate(-36.133 -123.677)" fill="#7baefa"/>
        <path id="Trazado_874134" data-name="Trazado 874134" d="M81.965,311.417l-.056-.255,10.111-2.234.056.256Z" transform="translate(-42.608 -146.172)" fill="#666"/>
        <path id="Trazado_874135" data-name="Trazado 874135" d="M74.27,291.427c-.389,2.05,2.083,2.931,2.362,3.089,1.444.815,5.42.924,5.42.924,1.017.1,1.129-.725.838-.807-.144-.027.555.064.7.078,1.278.081,1.121-.921.635-1.085.972.23,1.294-.819.679-1.015.714.087.968-.885-.048-1.2-.548-.222-5.314-1.3-5.314-1.3.115-.424,1.961.031,2.365-.981a.184.184,0,0,0-.152-.207,11.171,11.171,0,0,0-5.14.445,2.96,2.96,0,0,0-2.346,2.058" transform="translate(-38.946 -136.633)" fill="#f6a97e"/>
        <rect id="Rectángulo_401612" data-name="Rectángulo 401612" width="0.261" height="2.913" transform="translate(41.017 157.534) rotate(-77.562)" fill="#d1655f"/>
        <rect id="Rectángulo_401613" data-name="Rectángulo 401613" width="0.262" height="3.865" transform="translate(41.435 156.446) rotate(-79.714)" fill="#d1655f"/>
        <rect id="Rectángulo_401614" data-name="Rectángulo 401614" width="0.262" height="4.278" transform="matrix(0.202, -0.979, 0.979, 0.202, 41.729, 155.22)" fill="#d1655f"/>
        <path id="Trazado_874136" data-name="Trazado 874136" d="M60.036,288.285c-.327-1.708.733-4.815,1.795-5.605l-15.588-6.449c-5.475-1.11-7.107,5.736-2.253,7.6a73.287,73.287,0,0,0,13.9,4.1c.685.107,2.148.351,2.148.351" transform="translate(-23.156 -130.595)" fill="#fff"/>
        <rect id="Rectángulo_401615" data-name="Rectángulo 401615" width="0.261" height="9.27" transform="translate(25.451 146.664) rotate(-67.314)" fill="#92bbf4"/>
        <path id="Trazado_874137" data-name="Trazado 874137" d="M67.554,297.312a55.358,55.358,0,0,1-8.065-1.894l.081-.249a55.1,55.1,0,0,0,8.02,1.883Z" transform="translate(-31.919 -139.664)" fill="#92bbf4"/>
        <path id="Trazado_874138" data-name="Trazado 874138" d="M87.184,275.53c-.115,2.065-2.746,2.325-3.057,2.411-1.609.441-5.525-.4-5.525-.4-1.019-.147-.929-.966-.625-.976.148.008-.558-.071-.7-.091-1.269-.226-.875-1.153-.359-1.2-1.006-.01-1.067-1.1-.419-1.138-.719-.086-.733-1.082.337-1.143.59-.084,5.511.013,5.511.013-.01-.435-1.926-.435-2.076-1.505a.184.184,0,0,1,.2-.163,11.392,11.392,0,0,1,4.921,1.65,2.939,2.939,0,0,1,1.8,2.538" transform="translate(-39.785 -128.367)" fill="#f6a97e"/>
        <rect id="Rectángulo_401616" data-name="Rectángulo 401616" width="0.262" height="2.935" transform="translate(38.237 148.375) rotate(-88.59)" fill="#d1655f"/>
        <rect id="Rectángulo_401617" data-name="Rectángulo 401617" width="0.262" height="3.894" transform="translate(37.136 147.06) rotate(-86.472)" fill="#d1655f"/>
        <path id="Trazado_874139" data-name="Trazado 874139" d="M81.287,276.85l-4.306-.166.01-.262,4.306.166Z" transform="translate(-40.258 -130.801)" fill="#d1655f"/>
        <path id="Trazado_874140" data-name="Trazado 874140" d="M92.764,276.42c.732-1.567.447-4.808-.4-5.82l16.805-2.5c5.623.234,5.566,7.209.366,7.852a72.14,72.14,0,0,1-14.585.641c-.7-.06-2.186-.173-2.186-.173" transform="translate(-47.591 -126.824)" fill="#fff"/>
        <path id="Trazado_874141" data-name="Trazado 874141" d="M97.547,270.767l-.047-.257c.49-.088,12.022-2.153,13.553-1.26l-.132.226c-1.159-.673-9.256.551-13.374,1.292" transform="translate(-50.04 -127.295)" fill="#92bbf4"/>
        <rect id="Rectángulo_401618" data-name="Rectángulo 401618" width="0.262" height="2.311" transform="matrix(0.017, -1, 1, 0.017, 48.936, 150)" fill="#92bbf4"/>
      </g>
    </g>
  </g>
</svg>
