<svg xmlns="http://www.w3.org/2000/svg" width="45.172" height="49" viewBox="0 0 45.172 49">
  <g id="almacenamiento" transform="translate(-20)">
    <g id="Grupo_1099959" data-name="Grupo 1099959" transform="translate(20)">
      <path id="Trazado_875010" data-name="Trazado 875010" d="M92.446,386.2H86.218a.718.718,0,0,1-.718-.718v-4.307a1.677,1.677,0,0,1,1.675-1.675h4.315a1.677,1.677,0,0,1,1.675,1.675v4.307A.718.718,0,0,1,92.446,386.2Zm-5.511-1.436h4.793v-3.589a.24.24,0,0,0-.239-.239H87.175a.24.24,0,0,0-.239.239Z" transform="translate(-79.231 -343.181)" fill="#7c5122"/>
      <path id="Trazado_875011" data-name="Trazado 875011" d="M157.53,386.2H151.3a.718.718,0,0,1-.718-.718v-4.307a1.677,1.677,0,0,1,1.675-1.675h4.315a1.677,1.677,0,0,1,1.675,1.675v4.307A.718.718,0,0,1,157.53,386.2Zm-5.511-1.436h4.793v-3.589a.24.24,0,0,0-.239-.239h-4.315a.24.24,0,0,0-.239.239Z" transform="translate(-138.087 -343.181)" fill="#7c5122"/>
      <path id="Trazado_875012" data-name="Trazado 875012" d="M106.328,359.232h-2.943a.718.718,0,0,1-.718-.718V356.7a1.2,1.2,0,0,1,1.2-1.2h1.986a1.2,1.2,0,0,1,1.2,1.2v1.818A.718.718,0,0,1,106.328,359.232ZM104.1,357.8h1.507v-.861H104.1Z" transform="translate(-94.756 -321.478)" fill="#7c5122"/>
      <path id="Trazado_875013" data-name="Trazado 875013" d="M171.411,359.232h-2.943a.718.718,0,0,1-.718-.718V356.7a1.2,1.2,0,0,1,1.2-1.2h1.986a1.2,1.2,0,0,1,1.2,1.2v1.818A.718.718,0,0,1,171.411,359.232Zm-2.225-1.436h1.507v-.861h-1.507Z" transform="translate(-153.611 -321.478)" fill="#7c5122"/>
      <path id="Trazado_875014" data-name="Trazado 875014" d="M291.376,373h-3.158a.718.718,0,0,1-.718-.718v-2.105a1.677,1.677,0,0,1,1.675-1.675h1.244a1.677,1.677,0,0,1,1.675,1.675v2.105A.718.718,0,0,1,291.376,373Zm-2.44-1.436h1.723v-1.388a.24.24,0,0,0-.239-.239h-1.244a.24.24,0,0,0-.239.239Z" transform="translate(-261.899 -333.233)" fill="#7c5122"/>
      <path id="Trazado_875015" data-name="Trazado 875015" d="M324.376,373h-3.158a.718.718,0,0,1-.718-.718v-2.105a1.677,1.677,0,0,1,1.675-1.675h1.244a1.677,1.677,0,0,1,1.675,1.675v2.105A.718.718,0,0,1,324.376,373Zm-2.44-1.436h1.723v-1.388a.24.24,0,0,0-.239-.239h-1.244a.24.24,0,0,0-.239.239Z" transform="translate(-291.741 -333.233)" fill="#7c5122"/>
      <path id="Trazado_875016" data-name="Trazado 875016" d="M357.376,373h-3.158a.718.718,0,0,1-.718-.718v-2.105a1.677,1.677,0,0,1,1.675-1.675h1.244a1.677,1.677,0,0,1,1.675,1.675v2.105A.718.718,0,0,1,357.376,373Zm-2.44-1.436h1.723v-1.388a.24.24,0,0,0-.239-.239h-1.244a.24.24,0,0,0-.239.239Z" transform="translate(-321.583 -333.233)" fill="#7c5122"/>
      <path id="Rectángulo_401737" data-name="Rectángulo 401737" d="M-6.782-7.5H7.478a.718.718,0,0,1,.718.718v3.254a.718.718,0,0,1-.718.718H-6.782A.718.718,0,0,1-7.5-3.528V-6.782A.718.718,0,0,1-6.782-7.5ZM6.76-6.064H-6.064v1.818H6.76Z" transform="translate(30.708 45.829)" fill="#7c5122"/>
      <path id="Línea_625" data-name="Línea 625" d="M-6.782-1.375A.718.718,0,0,1-7.5-2.093V-6.782A.718.718,0,0,1-6.782-7.5a.718.718,0,0,1,.718.718v4.689A.718.718,0,0,1-6.782-1.375Z" transform="translate(30.708 44.298)" fill="#7c5122"/>
      <path id="Línea_626" data-name="Línea 626" d="M-6.782-1.375A.718.718,0,0,1-7.5-2.093V-6.782A.718.718,0,0,1-6.782-7.5a.718.718,0,0,1,.718.718v4.689A.718.718,0,0,1-6.782-1.375Z" transform="translate(44.968 44.298)" fill="#7c5122"/>
      <g id="Grupo_1099957" data-name="Grupo 1099957" transform="translate(3.35 20.289)">
        <path id="Rectángulo_401738" data-name="Rectángulo 401738" d="M-6.782-7.5h7.3a.718.718,0,0,1,.718.718v2.616a.718.718,0,0,1-.718.718h-7.3A.718.718,0,0,1-7.5-4.166V-6.782A.718.718,0,0,1-6.782-7.5ZM-.2-6.064H-6.064v1.18H-.2Z" transform="translate(7.5 7.5)" fill="#7c5122"/>
        <path id="Trazado_875017" data-name="Trazado 875017" d="M131.968,212h6.819a1.2,1.2,0,0,1,1.2,1.2v2.137a.718.718,0,0,1-.718.718h-7.3a.718.718,0,0,1-.718-.718v-2.616A.718.718,0,0,1,131.968,212Zm6.58,1.436h-5.862v1.18h5.862Z" transform="translate(-123.953 -212)" fill="#7c5122"/>
        <path id="Rectángulo_401739" data-name="Rectángulo 401739" d="M-6.782-7.5h7.3a.718.718,0,0,1,.718.718v2.616a.718.718,0,0,1-.718.718h-7.3A.718.718,0,0,1-7.5-4.166V-6.782A.718.718,0,0,1-6.782-7.5ZM-.2-6.064H-6.064v1.18H-.2Z" transform="translate(7.5 10.116)" fill="#7c5122"/>
        <path id="Rectángulo_401740" data-name="Rectángulo 401740" d="M-6.782-7.5h7.3a.718.718,0,0,1,.718.718v2.616a.718.718,0,0,1-.718.718h-7.3A.718.718,0,0,1-7.5-4.166V-6.782A.718.718,0,0,1-6.782-7.5ZM-.2-6.064H-6.064v1.18H-.2Z" transform="translate(14.797 10.116)" fill="#7c5122"/>
        <path id="Rectángulo_401741" data-name="Rectángulo 401741" d="M-6.782-7.5h7.3a.718.718,0,0,1,.718.718v2.616a.718.718,0,0,1-.718.718h-7.3A.718.718,0,0,1-7.5-4.166V-6.782A.718.718,0,0,1-6.782-7.5ZM-.2-6.064H-6.064v1.18H-.2Z" transform="translate(7.5 12.732)" fill="#7c5122"/>
        <path id="Rectángulo_401742" data-name="Rectángulo 401742" d="M-6.782-7.5h7.3a.718.718,0,0,1,.718.718v2.616a.718.718,0,0,1-.718.718h-7.3A.718.718,0,0,1-7.5-4.166V-6.782A.718.718,0,0,1-6.782-7.5ZM-.2-6.064H-6.064v1.18H-.2Z" transform="translate(14.797 12.732)" fill="#7c5122"/>
      </g>
      <path id="Trazado_875018" data-name="Trazado 875018" d="M55.718,78.5h8.924a1.2,1.2,0,0,1,1.2,1.2V85.63a.718.718,0,0,1-.718.718h-9.4A.718.718,0,0,1,55,85.63V79.218A.718.718,0,0,1,55.718,78.5ZM64.4,79.936H56.436v4.977H64.4Z" transform="translate(-51.65 -70.987)" fill="#7c5122"/>
      <path id="Trazado_875019" data-name="Trazado 875019" d="M83.276,82.52H81.935a1.2,1.2,0,0,1-1.046-.615l-1.3-2.338a.718.718,0,0,1,.627-1.066h4.689a.718.718,0,0,1,.637,1.048l-1.206,2.326A1.192,1.192,0,0,1,83.276,82.52Zm-1.2-1.436h1.055l.6-1.148H81.438Z" transform="translate(-73.806 -70.987)" fill="#7c5122"/>
      <path id="Rectángulo_401743" data-name="Rectángulo 401743" d="M-6.782-7.5H30.255a.718.718,0,0,1,.718.718v2.871a.718.718,0,0,1-.718.718H-6.782A.718.718,0,0,1-7.5-3.911V-6.782A.718.718,0,0,1-6.782-7.5ZM29.537-6.064h-35.6v1.436h35.6Z" transform="translate(10.85 21.425)" fill="#7c5122"/>
      <path id="Rectángulo_401744" data-name="Rectángulo 401744" d="M-6.782-7.5H30.255a.718.718,0,0,1,.718.718v2.871a.718.718,0,0,1-.718.718H-6.782A.718.718,0,0,1-7.5-3.911V-6.782A.718.718,0,0,1-6.782-7.5ZM29.537-6.064h-35.6v1.436h35.6Z" transform="translate(10.85 35.637)" fill="#7c5122"/>
      <path id="Trazado_875020" data-name="Trazado 875020" d="M23.589,80.65H21.2a1.2,1.2,0,0,1-1.2-1.2v-34.6a.718.718,0,0,1,1.436,0V79.215H23.35V36.436H21.436v5.072a.718.718,0,0,1-1.436,0v-5.79A.718.718,0,0,1,20.718,35h3.35a.718.718,0,0,1,.718.718V79.454A1.2,1.2,0,0,1,23.589,80.65Z" transform="translate(-20 -31.65)" fill="#7c5122"/>
      <path id="Rectángulo_401745" data-name="Rectángulo 401745" d="M-6.782-7.5H30.255a.718.718,0,0,1,.718.718v2.871a.718.718,0,0,1-.718.718H-6.782A.718.718,0,0,1-7.5-3.911V-6.782A.718.718,0,0,1-6.782-7.5ZM29.537-6.064h-35.6v1.436h35.6Z" transform="translate(10.85 49.083)" fill="#7c5122"/>
      <path id="Trazado_875021" data-name="Trazado 875021" d="M445.589,80.65H443.2a1.2,1.2,0,0,1-1.2-1.2V69.07a.718.718,0,0,1,1.436,0V79.215h1.914V36.436h-1.914V65.721a.718.718,0,0,1-1.436,0v-30a.718.718,0,0,1,.718-.718h3.35a.718.718,0,0,1,.718.718V79.454A1.2,1.2,0,0,1,445.589,80.65Z" transform="translate(-401.613 -31.65)" fill="#7c5122"/>
      <path id="Trazado_875022" data-name="Trazado 875022" d="M64.454,4.785H20.718A.718.718,0,0,1,20,4.067V1.2A1.2,1.2,0,0,1,21.2,0H63.976a1.2,1.2,0,0,1,1.2,1.2V4.067A.718.718,0,0,1,64.454,4.785ZM21.436,3.35h42.3V1.436h-42.3Z" transform="translate(-20)" fill="#7c5122"/>
      <g id="Grupo_1099958" data-name="Grupo 1099958" transform="translate(24.488 20.241)">
        <path id="Trazado_875023" data-name="Trazado 875023" d="M285.46,215.567h-5.551c-1.616,0-3.663-1.171-4.015-2.852a1.006,1.006,0,0,1,.983-1.215h4.845a.718.718,0,0,1,0,1.436h-4.187a3.246,3.246,0,0,0,2.374,1.2h5.551a3.116,3.116,0,0,0,2.339-1.2h-2.727a.718.718,0,0,1,0-1.436h3.374a1.006,1.006,0,0,1,.984,1.21C289.087,214.394,287.062,215.567,285.46,215.567Z" transform="translate(-275.872 -211.5)" fill="#7c5122"/>
        <path id="Trazado_875024" data-name="Trazado 875024" d="M276.877,239h11.568a1.006,1.006,0,0,1,.984,1.21c-.343,1.684-2.367,2.858-3.97,2.858h-5.551c-1.616,0-3.663-1.171-4.015-2.852a1.006,1.006,0,0,1,.983-1.215Zm10.922,1.436H277.535a3.246,3.246,0,0,0,2.374,1.2h5.551A3.116,3.116,0,0,0,287.8,240.436Z" transform="translate(-275.872 -236.368)" fill="#7c5122"/>
        <path id="Trazado_875025" data-name="Trazado 875025" d="M276.877,266.5h11.568a1.006,1.006,0,0,1,.984,1.21c-.343,1.684-2.367,2.858-3.97,2.858h-5.551c-1.616,0-3.663-1.171-4.015-2.852a1.006,1.006,0,0,1,.983-1.215Zm10.922,1.436H277.535a3.246,3.246,0,0,0,2.374,1.2h5.551A3.116,3.116,0,0,0,287.8,267.936Z" transform="translate(-275.872 -261.236)" fill="#7c5122"/>
      </g>
      <path id="Trazado_875026" data-name="Trazado 875026" d="M279.53,99.008H273.3a.718.718,0,0,1-.718-.718V94.175a1.677,1.677,0,0,1,1.675-1.675h4.315a1.677,1.677,0,0,1,1.675,1.675V98.29A.718.718,0,0,1,279.53,99.008Zm-5.511-1.436h4.793v-3.4a.24.24,0,0,0-.239-.239h-4.315a.24.24,0,0,0-.239.239Z" transform="translate(-248.411 -83.647)" fill="#7c5122"/>
      <path id="Trazado_875027" data-name="Trazado 875027" d="M214.446,99.008h-6.229a.718.718,0,0,1-.718-.718V94.175a1.677,1.677,0,0,1,1.675-1.675h4.315a1.677,1.677,0,0,1,1.675,1.675V98.29A.718.718,0,0,1,214.446,99.008Zm-5.511-1.436h4.793v-3.4a.24.24,0,0,0-.239-.239h-4.315a.24.24,0,0,0-.239.239Z" transform="translate(-189.556 -83.647)" fill="#7c5122"/>
      <path id="Trazado_875028" data-name="Trazado 875028" d="M344.613,99.008h-6.229a.718.718,0,0,1-.718-.718V94.175a1.677,1.677,0,0,1,1.675-1.675h4.315a1.677,1.677,0,0,1,1.675,1.675V98.29A.718.718,0,0,1,344.613,99.008ZM339.1,97.572H343.9v-3.4a.24.24,0,0,0-.239-.239h-4.315a.24.24,0,0,0-.239.239Z" transform="translate(-307.265 -83.647)" fill="#7c5122"/>
      <path id="Trazado_875029" data-name="Trazado 875029" d="M228.328,72.232h-2.943a.718.718,0,0,1-.718-.718V69.7a1.2,1.2,0,0,1,1.2-1.2h1.986a1.2,1.2,0,0,1,1.2,1.2v1.818A.718.718,0,0,1,228.328,72.232ZM226.1,70.8h1.507v-.861H226.1Z" transform="translate(-205.081 -61.944)" fill="#7c5122"/>
      <path id="Trazado_875030" data-name="Trazado 875030" d="M293.411,72.232h-2.943a.718.718,0,0,1-.718-.718V69.7a1.2,1.2,0,0,1,1.2-1.2h1.986a1.2,1.2,0,0,1,1.2,1.2v1.818A.718.718,0,0,1,293.411,72.232ZM291.187,70.8h1.507v-.861h-1.507Z" transform="translate(-263.935 -61.944)" fill="#7c5122"/>
      <path id="Trazado_875031" data-name="Trazado 875031" d="M358.494,72.232h-2.943a.718.718,0,0,1-.718-.718V69.7a1.2,1.2,0,0,1,1.2-1.2h1.986a1.2,1.2,0,0,1,1.2,1.2v1.818A.718.718,0,0,1,358.494,72.232ZM356.27,70.8h1.507v-.861H356.27Z" transform="translate(-322.789 -61.944)" fill="#7c5122"/>
    </g>
  </g>
</svg>
