<svg id="Grupo_1099973" data-name="Grupo 1099973" xmlns="http://www.w3.org/2000/svg" xmlns:xlink="http://www.w3.org/1999/xlink" width="267.358" height="239.853" viewBox="0 0 267.358 239.853">
  <defs>
    <clipPath id="clip-path">
      <rect id="Rectángulo_401744" data-name="Rectángulo 401744" width="267.358" height="239.853" fill="none"/>
    </clipPath>
  </defs>
  <g id="Grupo_1099972" data-name="Grupo 1099972" clip-path="url(#clip-path)">
    <path id="Trazado_875090" data-name="Trazado 875090" d="M19.447,120.365c1.187-3.128.9-17.118-6.589-14.566s4.519,14.236,6.589,14.566" transform="translate(-3.845 -38.903)" fill="#e9c4b5" fill-rule="evenodd"/>
    <path id="Trazado_875091" data-name="Trazado 875091" d="M33.248,135.115c3.481-1.565,14.532-13.083,6.436-17.065s-7.839,15.129-6.436,17.065" transform="translate(-11.981 -43.335)" fill="#e9c4b5" fill-rule="evenodd"/>
    <path id="Trazado_875092" data-name="Trazado 875092" d="M23.289,140.794c-3.279,1.954-19.053,4.4-17.67-4.513s16.889,2.253,17.67,4.513" transform="translate(-2.041 -49.004)" fill="#e9c4b5" fill-rule="evenodd"/>
    <path id="Trazado_875093" data-name="Trazado 875093" d="M45.91,153.978c3.181-2.108,12.224-15.263,3.59-17.881s-5.288,16.2-3.59,17.881" transform="translate(-16.164 -50.099)" fill="#e9c4b5" fill-rule="evenodd"/>
    <path id="Trazado_875094" data-name="Trazado 875094" d="M36.484,161.285c-2.919,2.459-18.089,7.428-18.168-1.594s17.031-.509,18.168,1.594" transform="translate(-6.755 -57.393)" fill="#e9c4b5" fill-rule="evenodd"/>
    <path id="Trazado_875095" data-name="Trazado 875095" d="M60.471,171.509c2.923-2.454,10.424-16.544,1.55-18.171s-3.427,16.691-1.55,18.171" transform="translate(-21.055 -56.511)" fill="#e9c4b5" fill-rule="evenodd"/>
    <path id="Trazado_875096" data-name="Trazado 875096" d="M51.74,179.791c-2.623,2.772-17.136,9.42-18.232.464s16.865-2.426,18.232-.464" transform="translate(-12.339 -64.779)" fill="#e9c4b5" fill-rule="evenodd"/>
    <path id="Trazado_875097" data-name="Trazado 875097" d="M77.927,189.679c2.924-2.454,10.424-16.544,1.55-18.172s-3.426,16.691-1.55,18.172" transform="translate(-27.493 -63.212)" fill="#e9c4b5" fill-rule="evenodd"/>
    <path id="Trazado_875098" data-name="Trazado 875098" d="M69.2,197.962c-2.623,2.773-17.136,9.421-18.233.465S67.83,196,69.2,197.962" transform="translate(-18.777 -71.48)" fill="#e9c4b5" fill-rule="evenodd"/>
    <path id="Trazado_875099" data-name="Trazado 875099" d="M94.355,203.821c2.527-2.859,7.86-17.906-1.158-18.2s-.917,17.014,1.158,18.2" transform="translate(-32.832 -68.453)" fill="#e9c4b5" fill-rule="evenodd"/>
    <path id="Trazado_875100" data-name="Trazado 875100" d="M86.829,213.118c-2.184,3.13-15.552,11.854-17.962,3.159s16.32-4.9,17.962-3.159" transform="translate(-25.318 -77.734)" fill="#e9c4b5" fill-rule="evenodd"/>
    <path id="Trazado_875101" data-name="Trazado 875101" d="M16.031,110.838a.36.36,0,1,1,.671-.259c.008.018,2.469,6.413,4.259,10a.361.361,0,1,1-.646.321c-1.8-3.6-4.276-10.044-4.283-10.062" transform="translate(-5.903 -40.695)" fill="#f7ebd3" fill-rule="evenodd"/>
    <path id="Trazado_875102" data-name="Trazado 875102" d="M38.784,122.129a.36.36,0,1,1,.7.181c-.376,1.442-1.006,3.806-1.921,6.281a26.051,26.051,0,0,1-3.691,7.051.359.359,0,1,1-.562-.448,25.428,25.428,0,0,0,3.576-6.851c.908-2.457,1.529-4.79,1.9-6.213" transform="translate(-12.254 -44.94)" fill="#f7ebd3" fill-rule="evenodd"/>
    <path id="Trazado_875103" data-name="Trazado 875103" d="M9.854,139.7a.36.36,0,0,1,.251-.674c1.381.512,3.652,1.343,6.178,2a25.384,25.384,0,0,0,7.665,1,.361.361,0,0,1,.045.72,26.083,26.083,0,0,1-7.891-1.021c-2.559-.671-4.855-1.51-6.25-2.028" transform="translate(-3.548 -51.263)" fill="#f7ebd3" fill-rule="evenodd"/>
    <path id="Trazado_875104" data-name="Trazado 875104" d="M49.526,140.1a.361.361,0,1,1,.72.062c-.131,1.478-.359,3.906-.854,6.512a26.063,26.063,0,0,1-2.469,7.566.36.36,0,1,1-.629-.35,25.4,25.4,0,0,0,2.389-7.349c.486-2.56.713-4.971.843-6.442" transform="translate(-17.056 -51.543)" fill="#f7ebd3" fill-rule="evenodd"/>
    <path id="Trazado_875105" data-name="Trazado 875105" d="M22.636,162.762a.361.361,0,1,1,.136-.708c1.451.277,3.833.72,6.426.953a25.373,25.373,0,0,0,7.724-.288.361.361,0,0,1,.163.7,26.1,26.1,0,0,1-7.95.3c-2.645-.237-5.041-.683-6.5-.962" transform="translate(-8.24 -59.761)" fill="#f7ebd3" fill-rule="evenodd"/>
    <path id="Trazado_875106" data-name="Trazado 875106" d="M62.531,157.424a.36.36,0,1,1,.72-.02c.042,1.49.1,3.935-.087,6.567a26.061,26.061,0,0,1-1.57,7.8.36.36,0,1,1-.666-.273,25.4,25.4,0,0,0,1.516-7.578c.186-2.613.129-5.027.088-6.5" transform="translate(-22.459 -57.919)" fill="#f7ebd3" fill-rule="evenodd"/>
    <path id="Trazado_875107" data-name="Trazado 875107" d="M37.516,182.705a.361.361,0,0,1,.051-.72c1.473.106,3.891.268,6.5.2A25.376,25.376,0,0,0,51.7,181a.36.36,0,0,1,.246.677A26.078,26.078,0,0,1,44.08,182.9c-2.651.073-5.083-.09-6.563-.2" transform="translate(-13.712 -66.742)" fill="#f7ebd3" fill-rule="evenodd"/>
    <path id="Trazado_875108" data-name="Trazado 875108" d="M80.491,175.521a.36.36,0,1,1,.72-.02c.042,1.489.1,3.935-.088,6.567a26.072,26.072,0,0,1-1.57,7.8.36.36,0,0,1-.667-.274,25.357,25.357,0,0,0,1.517-7.578c.186-2.613.129-5.027.088-6.5" transform="translate(-29.082 -64.593)" fill="#f7ebd3" fill-rule="evenodd"/>
    <path id="Trazado_875109" data-name="Trazado 875109" d="M55.477,200.8a.361.361,0,0,1,.051-.72c1.473.107,3.891.269,6.5.2a25.359,25.359,0,0,0,7.635-1.186.36.36,0,0,1,.245.678A26.111,26.111,0,0,1,62.04,201c-2.65.072-5.083-.092-6.563-.2" transform="translate(-20.336 -73.415)" fill="#f7ebd3" fill-rule="evenodd"/>
    <path id="Trazado_875110" data-name="Trazado 875110" d="M94.639,189.549a.361.361,0,0,1,.708-.136c.283,1.457.734,3.854.978,6.5a26.088,26.088,0,0,1-.283,7.951.361.361,0,0,1-.7-.161,25.394,25.394,0,0,0,.269-7.725c-.239-2.594-.688-4.975-.969-6.424" transform="translate(-34.899 -69.745)" fill="#f7ebd3" fill-rule="evenodd"/>
    <path id="Trazado_875111" data-name="Trazado 875111" d="M73.212,217.354a.36.36,0,1,1-.065-.717c1.464-.133,3.869-.365,6.44-.86a25.383,25.383,0,0,0,7.342-2.408.361.361,0,1,1,.353.629,26.072,26.072,0,0,1-7.559,2.488c-2.592.5-5.026.733-6.51.868" transform="translate(-26.855 -78.671)" fill="#f7ebd3" fill-rule="evenodd"/>
    <path id="Trazado_875112" data-name="Trazado 875112" d="M71.776,181.2a.541.541,0,1,1-.61.894A152.661,152.661,0,0,1,41.911,155.1a162.584,162.584,0,0,1-22.06-33.724.541.541,0,0,1,.974-.47,161.449,161.449,0,0,0,21.912,33.5,151.552,151.552,0,0,0,29.04,26.8" transform="translate(-7.301 -44.475)" fill="#e9c4b5" fill-rule="evenodd"/>
    <path id="Trazado_875113" data-name="Trazado 875113" d="M390.7,120.365c-1.187-3.128-.9-17.118,6.589-14.566s-4.519,14.236-6.589,14.566" transform="translate(-143.891 -38.903)" fill="#e9c4b5" fill-rule="evenodd"/>
    <path id="Trazado_875114" data-name="Trazado 875114" d="M376.575,135.115c-3.481-1.565-14.532-13.083-6.436-17.065s7.839,15.129,6.436,17.065" transform="translate(-135.433 -43.335)" fill="#e9c4b5" fill-rule="evenodd"/>
    <path id="Trazado_875115" data-name="Trazado 875115" d="M382.06,140.794c3.279,1.954,19.053,4.4,17.671-4.513s-16.89,2.253-17.671,4.513" transform="translate(-140.899 -49.004)" fill="#e9c4b5" fill-rule="evenodd"/>
    <path id="Trazado_875116" data-name="Trazado 875116" d="M364.377,153.978c-3.181-2.108-12.224-15.263-3.59-17.881s5.288,16.2,3.59,17.881" transform="translate(-131.713 -50.099)" fill="#e9c4b5" fill-rule="evenodd"/>
    <path id="Trazado_875117" data-name="Trazado 875117" d="M368.625,161.285c2.919,2.459,18.089,7.428,18.168-1.594s-17.031-.509-18.168,1.594" transform="translate(-135.944 -57.393)" fill="#e9c4b5" fill-rule="evenodd"/>
    <path id="Trazado_875118" data-name="Trazado 875118" d="M349.92,171.509c-2.923-2.454-10.424-16.544-1.55-18.171s3.427,16.691,1.55,18.171" transform="translate(-126.926 -56.511)" fill="#e9c4b5" fill-rule="evenodd"/>
    <path id="Trazado_875119" data-name="Trazado 875119" d="M353.3,179.791c2.623,2.772,17.136,9.42,18.233.464s-16.865-2.426-18.233-.464" transform="translate(-130.294 -64.779)" fill="#e9c4b5" fill-rule="evenodd"/>
    <path id="Trazado_875120" data-name="Trazado 875120" d="M332.463,189.679c-2.924-2.454-10.424-16.544-1.55-18.172s3.427,16.691,1.55,18.172" transform="translate(-120.488 -63.212)" fill="#e9c4b5" fill-rule="evenodd"/>
    <path id="Trazado_875121" data-name="Trazado 875121" d="M335.846,197.962c2.623,2.773,17.136,9.421,18.233.465s-16.865-2.426-18.233-.465" transform="translate(-123.856 -71.48)" fill="#e9c4b5" fill-rule="evenodd"/>
    <path id="Trazado_875122" data-name="Trazado 875122" d="M315.987,203.821c-2.527-2.859-7.86-17.906,1.158-18.2s.917,17.014-1.158,18.2" transform="translate(-115.101 -68.453)" fill="#e9c4b5" fill-rule="evenodd"/>
    <path id="Trazado_875123" data-name="Trazado 875123" d="M318.275,213.118c2.184,3.13,15.552,11.854,17.962,3.159s-16.32-4.9-17.962-3.159" transform="translate(-117.376 -77.734)" fill="#e9c4b5" fill-rule="evenodd"/>
    <path id="Trazado_875124" data-name="Trazado 875124" d="M396.1,110.578a.36.36,0,1,1,.672.259c-.006.018-2.488,6.464-4.283,10.062a.361.361,0,1,1-.646-.321c1.79-3.587,4.251-9.983,4.258-10" transform="translate(-144.494 -40.695)" fill="#f7ebd3" fill-rule="evenodd"/>
    <path id="Trazado_875125" data-name="Trazado 875125" d="M372.583,122.31a.36.36,0,0,1,.7-.181c.371,1.423.992,3.756,1.9,6.213a25.443,25.443,0,0,0,3.575,6.851.359.359,0,1,1-.561.448,26.053,26.053,0,0,1-3.691-7.051c-.915-2.474-1.545-4.838-1.921-6.281" transform="translate(-137.4 -44.94)" fill="#f7ebd3" fill-rule="evenodd"/>
    <path id="Trazado_875126" data-name="Trazado 875126" d="M397.022,139.027a.36.36,0,0,1,.251.674,65.676,65.676,0,0,1-6.249,2.028,26.061,26.061,0,0,1-7.891,1.021.361.361,0,1,1,.045-.72,25.4,25.4,0,0,0,7.665-1c2.527-.663,4.8-1.493,6.178-2.005" transform="translate(-141.17 -51.263)" fill="#f7ebd3" fill-rule="evenodd"/>
    <path id="Trazado_875127" data-name="Trazado 875127" d="M363.141,140.158a.361.361,0,1,1,.72-.062c.13,1.471.356,3.883.842,6.442a25.4,25.4,0,0,0,2.39,7.349.36.36,0,1,1-.629.35,26.1,26.1,0,0,1-2.469-7.566c-.495-2.606-.722-5.034-.853-6.512" transform="translate(-133.921 -51.544)" fill="#f7ebd3" fill-rule="evenodd"/>
    <path id="Trazado_875128" data-name="Trazado 875128" d="M384.176,162.054a.361.361,0,1,1,.135.708c-1.458.279-3.854.725-6.5.962a26.1,26.1,0,0,1-7.95-.3.361.361,0,0,1,.163-.7,25.373,25.373,0,0,0,7.724.288c2.593-.233,4.975-.676,6.426-.953" transform="translate(-136.298 -59.761)" fill="#f7ebd3" fill-rule="evenodd"/>
    <path id="Trazado_875129" data-name="Trazado 875129" d="M351.075,157.4a.36.36,0,1,1,.72.02c-.042,1.47-.1,3.884.087,6.5A25.353,25.353,0,0,0,353.4,171.5a.36.36,0,0,1-.667.274,26.066,26.066,0,0,1-1.57-7.8c-.187-2.632-.129-5.077-.087-6.567" transform="translate(-129.456 -57.919)" fill="#f7ebd3" fill-rule="evenodd"/>
    <path id="Trazado_875130" data-name="Trazado 875130" d="M369.393,181.985a.361.361,0,0,1,.051.72c-1.481.107-3.912.269-6.563.2a26.068,26.068,0,0,1-7.864-1.228.36.36,0,1,1,.245-.677,25.376,25.376,0,0,0,7.635,1.185c2.6.071,5.023-.092,6.5-.2" transform="translate(-130.838 -66.741)" fill="#f7ebd3" fill-rule="evenodd"/>
    <path id="Trazado_875131" data-name="Trazado 875131" d="M333.114,175.5a.36.36,0,0,1,.72.02c-.042,1.469-.1,3.884.086,6.5a25.354,25.354,0,0,0,1.518,7.578.36.36,0,0,1-.667.274,26.034,26.034,0,0,1-1.57-7.8c-.188-2.632-.129-5.078-.088-6.567" transform="translate(-122.833 -64.593)" fill="#f7ebd3" fill-rule="evenodd"/>
    <path id="Trazado_875132" data-name="Trazado 875132" d="M351.433,200.082a.361.361,0,0,1,.051.72c-1.48.106-3.912.27-6.563.2a26.087,26.087,0,0,1-7.864-1.228.361.361,0,0,1,.245-.679,25.359,25.359,0,0,0,7.635,1.187c2.605.071,5.023-.092,6.5-.2" transform="translate(-124.214 -73.415)" fill="#f7ebd3" fill-rule="evenodd"/>
    <path id="Trazado_875133" data-name="Trazado 875133" d="M319.289,189.413a.361.361,0,0,1,.708.136c-.281,1.45-.73,3.831-.969,6.424a25.356,25.356,0,0,0,.269,7.725.361.361,0,0,1-.7.161,26.129,26.129,0,0,1-.283-7.951c.244-2.642.7-5.038.978-6.5" transform="translate(-117.327 -69.745)" fill="#f7ebd3" fill-rule="evenodd"/>
    <path id="Trazado_875134" data-name="Trazado 875134" d="M334.018,216.637a.36.36,0,1,1-.065.717c-1.483-.135-3.919-.369-6.51-.868A26.093,26.093,0,0,1,319.883,214a.361.361,0,0,1,.353-.629,25.4,25.4,0,0,0,7.343,2.409c2.571.495,4.975.727,6.439.86" transform="translate(-117.901 -78.671)" fill="#f7ebd3" fill-rule="evenodd"/>
    <path id="Trazado_875135" data-name="Trazado 875135" d="M314.05,182.089a.541.541,0,0,1-.61-.894,151.573,151.573,0,0,0,29.04-26.8,161.428,161.428,0,0,0,21.913-33.5.541.541,0,0,1,.974.47,162.534,162.534,0,0,1-22.06,33.724,152.663,152.663,0,0,1-29.256,26.991" transform="translate(-115.506 -44.475)" fill="#e9c4b5" fill-rule="evenodd"/>
    <path id="Trazado_875136" data-name="Trazado 875136" d="M93.19,16.019c2.388-2.342,7.988-15.166.121-15.987s-1.862,14.82-.121,15.987" transform="translate(-32.954 0)" fill="#e9c4b5" fill-rule="evenodd"/>
    <path id="Trazado_875137" data-name="Trazado 875137" d="M96.717,35.542c3.816.037,18.677-5.791,12.994-12.8S96.255,33.2,96.717,35.542" transform="translate(-35.661 -7.78)" fill="#e9c4b5" fill-rule="evenodd"/>
    <path id="Trazado_875138" data-name="Trazado 875138" d="M87.849,36.132c-3.8.4-19.143-3.985-14.153-11.5s14.391,9.124,14.153,11.5" transform="translate(-26.814 -8.369)" fill="#e9c4b5" fill-rule="evenodd"/>
    <path id="Trazado_875139" data-name="Trazado 875139" d="M100.839,57.713c3.773-.581,17.495-8.736,10.752-14.732S100,55.473,100.839,57.713" transform="translate(-37.154 -15.412)" fill="#e9c4b5" fill-rule="evenodd"/>
    <path id="Trazado_875140" data-name="Trazado 875140" d="M91.288,60.295c-3.681,1.009-19.537-.836-15.828-9.061s15.677,6.675,15.828,9.061" transform="translate(-27.623 -17.99)" fill="#e9c4b5" fill-rule="evenodd"/>
    <path id="Trazado_875141" data-name="Trazado 875141" d="M107.29,79.642c3.683-1,16.4-10.654,9.022-15.85s-10.105,13.719-9.022,15.85" transform="translate(-39.483 -23.194)" fill="#e9c4b5" fill-rule="evenodd"/>
    <path id="Trazado_875142" data-name="Trazado 875142" d="M97.42,83.564c-3.544,1.418-19.506,1.374-16.749-7.218S97,81.211,97.42,83.564" transform="translate(-29.633 -27.11)" fill="#e9c4b5" fill-rule="evenodd"/>
    <path id="Trazado_875143" data-name="Trazado 875143" d="M115.525,103.455c3.683-1,16.4-10.654,9.022-15.85s-10.106,13.719-9.022,15.85" transform="translate(-42.52 -31.975)" fill="#e9c4b5" fill-rule="evenodd"/>
    <path id="Trazado_875144" data-name="Trazado 875144" d="M105.656,107.378c-3.543,1.418-19.506,1.374-16.749-7.218s16.33,4.864,16.749,7.218" transform="translate(-32.67 -35.892)" fill="#e9c4b5" fill-rule="evenodd"/>
    <path id="Trazado_875145" data-name="Trazado 875145" d="M125.284,123.138c3.493-1.537,14.639-12.964,6.575-17.011s-7.963,15.064-6.575,17.011" transform="translate(-45.939 -38.931)" fill="#e9c4b5" fill-rule="evenodd"/>
    <path id="Trazado_875146" data-name="Trazado 875146" d="M115.315,128.729c-3.294,1.927-19.088,4.247-17.633-4.658s16.87,2.392,17.633,4.658" transform="translate(-35.989 -44.513)" fill="#e9c4b5" fill-rule="evenodd"/>
    <path id="Trazado_875147" data-name="Trazado 875147" d="M94.865,5.266a.36.36,0,0,1,.72.045c0,.02-.447,6.875-.324,10.866a.361.361,0,0,1-.721.02c-.123-4.035.324-10.911.326-10.93" transform="translate(-34.857 -1.817)" fill="#f7ebd3" fill-rule="evenodd"/>
    <path id="Trazado_875148" data-name="Trazado 875148" d="M107.766,26.408a.36.36,0,1,1,.556.458c-.944,1.15-2.5,3.031-4.377,4.9a26.07,26.07,0,0,1-6.3,4.855.36.36,0,1,1-.322-.644,25.379,25.379,0,0,0,6.118-4.722c1.851-1.846,3.395-3.706,4.329-4.845" transform="translate(-35.817 -9.691)" fill="#f7ebd3" fill-rule="evenodd"/>
    <path id="Trazado_875149" data-name="Trazado 875149" d="M77.367,28.885a.36.36,0,0,1,.511-.509c1.04,1.046,2.756,2.753,4.771,4.412a25.389,25.389,0,0,0,6.541,4.117.36.36,0,0,1-.261.672,26.093,26.093,0,0,1-6.738-4.233c-2.045-1.684-3.775-3.4-4.824-4.459" transform="translate(-28.493 -10.426)" fill="#f7ebd3" fill-rule="evenodd"/>
    <path id="Trazado_875150" data-name="Trazado 875150" d="M109.812,46.668a.361.361,0,1,1,.627.358c-.739,1.289-1.964,3.4-3.5,5.556a26.041,26.041,0,0,1-5.411,5.835.36.36,0,1,1-.424-.582,25.385,25.385,0,0,0,5.249-5.671c1.514-2.121,2.73-4.216,3.464-5.5" transform="translate(-37.229 -17.143)" fill="#f7ebd3" fill-rule="evenodd"/>
    <path id="Trazado_875151" data-name="Trazado 875151" d="M79.308,55.179a.361.361,0,0,1,.42-.588c1.2.862,3.183,2.264,5.436,3.559A25.363,25.363,0,0,0,92.3,61.125a.36.36,0,0,1-.144.706,26.073,26.073,0,0,1-7.347-3.057c-2.306-1.326-4.292-2.733-5.5-3.6" transform="translate(-29.192 -20.108)" fill="#f7ebd3" fill-rule="evenodd"/>
    <path id="Trazado_875152" data-name="Trazado 875152" d="M114.288,67.448a.36.36,0,1,1,.663.282c-.585,1.369-1.557,3.611-2.832,5.927a26.072,26.072,0,0,1-4.7,6.426.36.36,0,0,1-.489-.528,25.4,25.4,0,0,0,4.552-6.245c1.261-2.29,2.222-4.507,2.8-5.861" transform="translate(-39.394 -24.793)" fill="#f7ebd3" fill-rule="evenodd"/>
    <path id="Trazado_875153" data-name="Trazado 875153" d="M84.217,80.057a.361.361,0,1,1,.348-.632c1.29.713,3.415,1.872,5.813,2.9a25.38,25.38,0,0,0,7.431,2.123.361.361,0,1,1-.059.72,26.086,26.086,0,0,1-7.653-2.18c-2.435-1.045-4.578-2.213-5.879-2.931" transform="translate(-30.989 -29.274)" fill="#f7ebd3" fill-rule="evenodd"/>
    <path id="Trazado_875154" data-name="Trazado 875154" d="M123.013,91.406a.36.36,0,0,1,.663.282c-.585,1.369-1.557,3.611-2.833,5.928a26.044,26.044,0,0,1-4.695,6.425.36.36,0,1,1-.489-.528,25.434,25.434,0,0,0,4.552-6.245c1.26-2.29,2.222-4.507,2.8-5.862" transform="translate(-42.611 -33.628)" fill="#f7ebd3" fill-rule="evenodd"/>
    <path id="Trazado_875155" data-name="Trazado 875155" d="M92.942,104.015a.361.361,0,0,1,.347-.632c1.291.713,3.415,1.872,5.813,2.9a25.381,25.381,0,0,0,7.431,2.123.361.361,0,1,1-.06.72,26.07,26.07,0,0,1-7.653-2.179c-2.435-1.045-4.578-2.213-5.878-2.932" transform="translate(-34.207 -38.11)" fill="#f7ebd3" fill-rule="evenodd"/>
    <path id="Trazado_875156" data-name="Trazado 875156" d="M130.331,109.672a.36.36,0,1,1,.7.172c-.355,1.446-.95,3.815-1.832,6.308a26.077,26.077,0,0,1-3.59,7.1.361.361,0,0,1-.57-.444,25.362,25.362,0,0,0,3.479-6.9c.873-2.465,1.462-4.809,1.813-6.24" transform="translate(-46.085 -40.344)" fill="#f7ebd3" fill-rule="evenodd"/>
    <path id="Trazado_875157" data-name="Trazado 875157" d="M101.545,127.7a.361.361,0,0,1,.24-.68c1.39.494,3.674,1.293,6.208,1.919a25.351,25.351,0,0,0,7.676.889.361.361,0,1,1,.057.72,26.084,26.084,0,0,1-7.905-.91,65.651,65.651,0,0,1-6.276-1.938" transform="translate(-37.36 -46.835)" fill="#f7ebd3" fill-rule="evenodd"/>
    <path id="Trazado_875158" data-name="Trazado 875158" d="M116.15,92.542a.54.54,0,1,1-.927.555A152.671,152.671,0,0,1,99.97,56.331a162.419,162.419,0,0,1-5.9-39.863.54.54,0,1,1,1.079-.022,161.437,161.437,0,0,0,5.86,39.6,151.608,151.608,0,0,0,15.14,36.5" transform="translate(-34.692 -5.87)" fill="#e9c4b5" fill-rule="evenodd"/>
    <path id="Trazado_875159" data-name="Trazado 875159" d="M364.2,41.84c-2.32-2.411-7.544-15.392.344-15.984s1.43,14.868-.344,15.984" transform="translate(-132.891 -9.529)" fill="#e9c4b5" fill-rule="evenodd"/>
    <path id="Trazado_875160" data-name="Trazado 875160" d="M356.435,61.139c-3.816-.074-18.5-6.33-12.616-13.17s13.147,10.839,12.616,13.17" transform="translate(-126.289 -17.114)" fill="#e9c4b5" fill-rule="evenodd"/>
    <path id="Trazado_875161" data-name="Trazado 875161" d="M364.642,62.09c3.782.511,19.251-3.427,14.481-11.087s-14.65,8.7-14.481,11.087" transform="translate(-134.475 -18.062)" fill="#e9c4b5" fill-rule="evenodd"/>
    <path id="Trazado_875162" data-name="Trazado 875162" d="M352.611,83.213c-3.753-.691-17.233-9.241-10.32-15.038S353.512,81,352.611,83.213" transform="translate(-125.517 -24.731)" fill="#e9c4b5" fill-rule="evenodd"/>
    <path id="Trazado_875163" data-name="Trazado 875163" d="M359.808,86.145c3.65,1.116,19.553-.267,16.084-8.6s-15.864,6.216-16.084,8.6" transform="translate(-132.693 -27.659)" fill="#e9c4b5" fill-rule="evenodd"/>
    <path id="Trazado_875164" data-name="Trazado 875164" d="M346.211,104.968c-3.652-1.11-16.081-11.126-8.557-16.106s9.7,14.007,8.557,16.106" transform="translate(-123.646 -32.465)" fill="#e9c4b5" fill-rule="evenodd"/>
    <path id="Trazado_875165" data-name="Trazado 875165" d="M352.629,109.228c3.5,1.52,19.458,1.94,16.951-6.727s-16.465,4.386-16.951,6.727" transform="translate(-130.045 -36.718)" fill="#e9c4b5" fill-rule="evenodd"/>
    <path id="Trazado_875166" data-name="Trazado 875166" d="M337.285,128.532c-3.652-1.109-16.081-11.126-8.557-16.106s9.7,14.007,8.557,16.106" transform="translate(-120.354 -41.155)" fill="#e9c4b5" fill-rule="evenodd"/>
    <path id="Trazado_875167" data-name="Trazado 875167" d="M343.7,132.791c3.5,1.521,19.457,1.94,16.951-6.727s-16.465,4.387-16.951,6.727" transform="translate(-126.753 -45.408)" fill="#e9c4b5" fill-rule="evenodd"/>
    <path id="Trazado_875168" data-name="Trazado 875168" d="M327.749,147.95c-3.448-1.638-14.257-13.385-6.078-17.2s7.522,15.289,6.078,17.2" transform="translate(-117.525 -48.036)" fill="#e9c4b5" fill-rule="evenodd"/>
    <path id="Trazado_875169" data-name="Trazado 875169" d="M333.077,153.851c3.237,2.022,18.956,4.8,17.762-4.143s-16.934,1.9-17.762,4.143" transform="translate(-122.835 -53.926)" fill="#e9c4b5" fill-rule="evenodd"/>
    <path id="Trazado_875170" data-name="Trazado 875170" d="M366.248,31.114a.361.361,0,0,1,.721-.025c0,.02.247,6.916.007,10.936a.36.36,0,1,1-.72-.042c.239-3.995-.007-10.849-.008-10.869" transform="translate(-135.067 -11.337)" fill="#f7ebd3" fill-rule="evenodd"/>
    <path id="Trazado_875171" data-name="Trazado 875171" d="M346.922,52.115a.36.36,0,1,1,.569-.44c.9,1.167,2.4,3.077,4.186,4.969a25.385,25.385,0,0,0,5.979,4.9.361.361,0,0,1-.341.636,26.076,26.076,0,0,1-6.16-5.038c-1.824-1.928-3.325-3.849-4.234-5.023" transform="translate(-127.913 -19.005)" fill="#f7ebd3" fill-rule="evenodd"/>
    <path id="Trazado_875172" data-name="Trazado 875172" d="M376.654,54.691a.361.361,0,1,1,.5.522c-1.079,1.023-2.859,2.695-4.952,4.317a26.092,26.092,0,0,1-6.858,4.036.361.361,0,0,1-.24-.681,25.4,25.4,0,0,0,6.657-3.925c2.062-1.6,3.826-3.255,4.9-4.27" transform="translate(-134.556 -20.133)" fill="#f7ebd3" fill-rule="evenodd"/>
    <path id="Trazado_875173" data-name="Trazado 875173" d="M345.243,72.236a.36.36,0,0,1,.635-.339c.7,1.3,1.847,3.424,3.3,5.594a25.383,25.383,0,0,0,5.082,5.82.36.36,0,1,1-.44.571,26.053,26.053,0,0,1-5.24-5.99,65.678,65.678,0,0,1-3.34-5.656" transform="translate(-127.306 -26.444)" fill="#f7ebd3" fill-rule="evenodd"/>
    <path id="Trazado_875174" data-name="Trazado 875174" d="M373.334,80.842a.36.36,0,0,1,.4.6c-1.235.832-3.271,2.185-5.6,3.436a26.071,26.071,0,0,1-7.435,2.842.361.361,0,0,1-.121-.711,25.383,25.383,0,0,0,7.215-2.766c2.306-1.238,4.317-2.577,5.539-3.4" transform="translate(-132.867 -29.791)" fill="#f7ebd3" fill-rule="evenodd"/>
    <path id="Trazado_875175" data-name="Trazado 875175" d="M340.932,92.823a.36.36,0,1,1,.671-.263c.541,1.374,1.439,3.624,2.628,5.942a25.382,25.382,0,0,0,4.37,6.374.36.36,0,0,1-.5.513,26.074,26.074,0,0,1-4.506-6.56c-1.211-2.361-2.116-4.625-2.659-6.007" transform="translate(-125.722 -34.05)" fill="#f7ebd3" fill-rule="evenodd"/>
    <path id="Trazado_875176" data-name="Trazado 875176" d="M367.405,105.523a.361.361,0,1,1,.33.641c-1.325.682-3.505,1.79-5.961,2.76a26.072,26.072,0,0,1-7.715,1.955.36.36,0,0,1-.039-.72,25.373,25.373,0,0,0,7.488-1.908c2.436-.961,4.589-2.056,5.9-2.729" transform="translate(-130.433 -38.901)" fill="#f7ebd3" fill-rule="evenodd"/>
    <path id="Trazado_875177" data-name="Trazado 875177" d="M331.514,116.517a.36.36,0,1,1,.672-.262c.54,1.374,1.439,3.623,2.628,5.941a25.381,25.381,0,0,0,4.37,6.374.36.36,0,0,1-.505.513,26.07,26.07,0,0,1-4.506-6.559c-1.211-2.361-2.116-4.626-2.659-6.007" transform="translate(-122.249 -42.789)" fill="#f7ebd3" fill-rule="evenodd"/>
    <path id="Trazado_875178" data-name="Trazado 875178" d="M357.988,129.217a.361.361,0,1,1,.33.641c-1.325.682-3.505,1.791-5.961,2.76a26.066,26.066,0,0,1-7.715,1.954.36.36,0,0,1-.039-.72,25.372,25.372,0,0,0,7.488-1.907c2.436-.962,4.589-2.056,5.9-2.729" transform="translate(-126.96 -47.639)" fill="#f7ebd3" fill-rule="evenodd"/>
    <path id="Trazado_875179" data-name="Trazado 875179" d="M324.848,134.485a.361.361,0,1,1,.706-.15c.31,1.442.831,3.806,1.63,6.289a25.344,25.344,0,0,0,3.278,7,.361.361,0,0,1-.582.426,26.052,26.052,0,0,1-3.383-7.2c-.811-2.524-1.337-4.906-1.649-6.359" transform="translate(-119.797 -49.436)" fill="#f7ebd3" fill-rule="evenodd"/>
    <path id="Trazado_875180" data-name="Trazado 875180" d="M348.468,152.595a.36.36,0,0,1,.22.686c-1.419.458-3.751,1.2-6.329,1.756a26.057,26.057,0,0,1-7.928.678.361.361,0,1,1,.076-.717,25.388,25.388,0,0,0,7.7-.667c2.561-.554,4.862-1.285,6.262-1.736" transform="translate(-123.215 -56.269)" fill="#f7ebd3" fill-rule="evenodd"/>
    <path id="Trazado_875181" data-name="Trazado 875181" d="M330.448,118.294a.54.54,0,1,1-.91-.58A151.559,151.559,0,0,0,345.732,81.67a161.437,161.437,0,0,0,7.009-39.409.541.541,0,1,1,1.08.051,162.534,162.534,0,0,1-7.056,39.675,152.656,152.656,0,0,1-16.317,36.307" transform="translate(-121.498 -15.395)" fill="#e9c4b5" fill-rule="evenodd"/>
    <path id="Trazado_875182" data-name="Trazado 875182" d="M13.92,262.164c-.206-2.7-5.23-12.857-9.841-8.411s8.21,8.881,9.841,8.411" transform="translate(-1.138 -93.171)" fill="#e9c4b5" fill-rule="evenodd"/>
    <path id="Trazado_875183" data-name="Trazado 875183" d="M29.84,268.019c2.012-2.345,6.151-14.59-1.153-14.722s-.542,13.786,1.153,14.722" transform="translate(-9.353 -93.412)" fill="#e9c4b5" fill-rule="evenodd"/>
    <path id="Trazado_875184" data-name="Trazado 875184" d="M23.853,275.612c-1.731,2.56-12.451,9.781-14.505,2.771s13.155-4.159,14.505-2.771" transform="translate(-3.377 -100.992)" fill="#e9c4b5" fill-rule="evenodd"/>
    <path id="Trazado_875185" data-name="Trazado 875185" d="M45.213,277.635c1.608-2.64,3.71-15.393-3.52-14.342s1.7,13.692,3.52,14.342" transform="translate(-14.349 -97.077)" fill="#e9c4b5" fill-rule="evenodd"/>
    <path id="Trazado_875186" data-name="Trazado 875186" d="M40.534,285.689c-1.294,2.806-10.7,11.667-13.866,5.081s12.31-6.232,13.866-5.081" transform="translate(-9.678 -105.116)" fill="#e9c4b5" fill-rule="evenodd"/>
    <path id="Trazado_875187" data-name="Trazado 875187" d="M61.768,285.491c1.3-2.8,1.949-15.713-5.116-13.853s3.23,13.414,5.116,13.853" transform="translate(-19.99 -100.109)" fill="#e9c4b5" fill-rule="evenodd"/>
    <path id="Trazado_875188" data-name="Trazado 875188" d="M58.095,293.554c-.97,2.934-9.32,12.8-13.2,6.613s11.528-7.581,13.2-6.613" transform="translate(-16.324 -108.156)" fill="#e9c4b5" fill-rule="evenodd"/>
    <path id="Trazado_875189" data-name="Trazado 875189" d="M80.815,292.8c1.3-2.8,1.95-15.713-5.116-13.853s3.231,13.414,5.116,13.853" transform="translate(-27.015 -102.807)" fill="#e9c4b5" fill-rule="evenodd"/>
    <path id="Trazado_875190" data-name="Trazado 875190" d="M77.144,300.867c-.97,2.934-9.32,12.8-13.2,6.613s11.528-7.581,13.2-6.613" transform="translate(-23.349 -110.853)" fill="#e9c4b5" fill-rule="evenodd"/>
    <path id="Trazado_875191" data-name="Trazado 875191" d="M97.619,297.491c.869-2.965-.4-15.829-7.111-12.943s5.181,12.787,7.111,12.943" transform="translate(-32.628 -104.783)" fill="#e9c4b5" fill-rule="evenodd"/>
    <path id="Trazado_875192" data-name="Trazado 875192" d="M95.356,305.273c-.524,3.046-7.322,14.039-12.08,8.495s10.278-9.2,12.08-8.495" transform="translate(-30.37 -112.548)" fill="#e9c4b5" fill-rule="evenodd"/>
    <path id="Trazado_875193" data-name="Trazado 875193" d="M7.587,257.281a.359.359,0,1,1,.5-.519c.011.011,4.017,3.853,6.557,5.861a.36.36,0,0,1-.446.564c-2.561-2.026-6.6-5.895-6.608-5.906" transform="translate(-2.757 -94.654)" fill="#f7ebd3" fill-rule="evenodd"/>
    <path id="Trazado_875194" data-name="Trazado 875194" d="M30.5,256.577a.36.36,0,0,1,.708-.129c.221,1.189.574,3.142.754,5.273a21.15,21.15,0,0,1-.282,6.457.36.36,0,1,1-.7-.167,20.5,20.5,0,0,0,.262-6.232c-.179-2.112-.525-4.033-.742-5.2" transform="translate(-11.247 -94.466)" fill="#f7ebd3" fill-rule="evenodd"/>
    <path id="Trazado_875195" data-name="Trazado 875195" d="M13.041,279.066a.361.361,0,0,1-.059-.72c1.192-.1,3.146-.272,5.213-.654a20.467,20.467,0,0,0,5.94-1.9.361.361,0,0,1,.348.632,21.2,21.2,0,0,1-6.157,1.974c-2.119.391-4.086.566-5.284.665" transform="translate(-4.665 -101.693)" fill="#f7ebd3" fill-rule="evenodd"/>
    <path id="Trazado_875196" data-name="Trazado 875196" d="M43.591,266.518a.36.36,0,0,1,.677-.246c.413,1.13,1.083,2.99,1.617,5.074a21.192,21.192,0,0,1,.8,6.415.361.361,0,1,1-.72-.048,20.492,20.492,0,0,0-.773-6.188c-.523-2.04-1.187-3.884-1.6-5.006" transform="translate(-16.068 -98.11)" fill="#f7ebd3" fill-rule="evenodd"/>
    <path id="Trazado_875197" data-name="Trazado 875197" d="M30.356,290.5a.361.361,0,0,1-.179-.7c1.158-.3,3.056-.79,5.033-1.511a20.487,20.487,0,0,0,5.543-2.856A.36.36,0,0,1,41.2,286a21.158,21.158,0,0,1-5.743,2.969c-2.024.737-3.935,1.235-5.1,1.533" transform="translate(-11.029 -105.235)" fill="#f7ebd3" fill-rule="evenodd"/>
    <path id="Trazado_875198" data-name="Trazado 875198" d="M58.383,275.086a.36.36,0,0,1,.643-.325c.543,1.076,1.425,2.847,2.2,4.852a21.193,21.193,0,0,1,1.538,6.28.361.361,0,1,1-.72.034,20.5,20.5,0,0,0-1.49-6.055c-.759-1.968-1.632-3.721-2.169-4.786" transform="translate(-21.517 -101.255)" fill="#f7ebd3" fill-rule="evenodd"/>
    <path id="Trazado_875199" data-name="Trazado 875199" d="M48.334,299.713a.36.36,0,0,1-.257-.672c1.11-.426,2.928-1.135,4.821-2.087a20.491,20.491,0,0,0,5.172-3.484.361.361,0,1,1,.511.509,21.186,21.186,0,0,1-5.358,3.618c-1.911.961-3.76,1.682-4.889,2.116" transform="translate(-17.645 -108.189)" fill="#f7ebd3" fill-rule="evenodd"/>
    <path id="Trazado_875200" data-name="Trazado 875200" d="M77.774,282.171a.36.36,0,1,1,.643-.325c.543,1.076,1.425,2.846,2.2,4.851a21.2,21.2,0,0,1,1.538,6.281.36.36,0,0,1-.72.034,20.5,20.5,0,0,0-1.49-6.055c-.759-1.968-1.631-3.721-2.169-4.786" transform="translate(-28.668 -103.868)" fill="#f7ebd3" fill-rule="evenodd"/>
    <path id="Trazado_875201" data-name="Trazado 875201" d="M67.725,306.8a.36.36,0,1,1-.257-.672c1.11-.427,2.928-1.136,4.821-2.088a20.474,20.474,0,0,0,5.172-3.483.36.36,0,1,1,.511.508,21.141,21.141,0,0,1-5.358,3.619c-1.911.961-3.76,1.682-4.889,2.116" transform="translate(-24.796 -110.803)" fill="#f7ebd3" fill-rule="evenodd"/>
    <path id="Trazado_875202" data-name="Trazado 875202" d="M92.28,287.925a.36.36,0,0,1,.581-.424c.711.975,1.871,2.582,2.956,4.43a21.178,21.178,0,0,1,2.536,5.947.361.361,0,0,1-.706.15A20.489,20.489,0,0,0,95.2,292.3c-1.071-1.824-2.215-3.409-2.916-4.371" transform="translate(-34.006 -105.972)" fill="#f7ebd3" fill-rule="evenodd"/>
    <path id="Trazado_875203" data-name="Trazado 875203" d="M86.893,312.9a.36.36,0,0,1-.364-.621c1.026-.6,2.705-1.6,4.42-2.842a20.493,20.493,0,0,0,4.537-4.276.361.361,0,0,1,.588.42,21.177,21.177,0,0,1-4.7,4.44c-1.728,1.258-3.436,2.269-4.479,2.88" transform="translate(-31.845 -112.483)" fill="#f7ebd3" fill-rule="evenodd"/>
    <path id="Trazado_875204" data-name="Trazado 875204" d="M72.724,289.461a.54.54,0,1,1-.169,1.067A123.714,123.714,0,0,1,41.8,280.8,131.646,131.646,0,0,1,14,263.657a.541.541,0,1,1,.677-.843,130.636,130.636,0,0,0,27.565,17,122.6,122.6,0,0,0,30.478,9.643" transform="translate(-5.09 -96.879)" fill="#e9c4b5" fill-rule="evenodd"/>
    <path id="Trazado_875205" data-name="Trazado 875205" d="M408.106,231.535c-.559-2.651,1.423-13.807,7.093-10.829s-5.4,10.823-7.093,10.829" transform="translate(-150.471 -81.209)" fill="#e9c4b5" fill-rule="evenodd"/>
    <path id="Trazado_875206" data-name="Trazado 875206" d="M395.469,241.539c-2.589-1.688-9.989-12.285-3.013-14.457s4.377,13.083,3.013,14.457" transform="translate(-143.658 -83.667)" fill="#e9c4b5" fill-rule="evenodd"/>
    <path id="Trazado_875207" data-name="Trazado 875207" d="M398.954,247.4c2.378,1.974,14.691,5.906,14.7-1.4s-13.794-.31-14.7,1.4" transform="translate(-147.129 -89.518)" fill="#e9c4b5" fill-rule="evenodd"/>
    <path id="Trazado_875208" data-name="Trazado 875208" d="M383.324,255.114c-2.281-2.085-7.869-13.74-.634-14.755s2.2,13.62.634,14.755" transform="translate(-139.81 -88.623)" fill="#e9c4b5" fill-rule="evenodd"/>
    <path id="Trazado_875209" data-name="Trazado 875209" d="M385.806,262.08c2.028,2.332,13.543,8.205,14.734,1s-13.562-2.538-14.734-1" transform="translate(-142.28 -95.578)" fill="#e9c4b5" fill-rule="evenodd"/>
    <path id="Trazado_875210" data-name="Trazado 875210" d="M369.529,267.33c-2.033-2.329-6.27-14.54,1.034-14.732s.653,13.781-1.034,14.732" transform="translate(-135.142 -93.154)" fill="#e9c4b5" fill-rule="evenodd"/>
    <path id="Trazado_875211" data-name="Trazado 875211" d="M371.345,274.887c1.752,2.546,12.53,9.681,14.528,2.653s-13.189-4.052-14.528-2.653" transform="translate(-136.947 -100.698)" fill="#e9c4b5" fill-rule="evenodd"/>
    <path id="Trazado_875212" data-name="Trazado 875212" d="M353.29,279.682c-2.032-2.328-6.27-14.539,1.034-14.731s.653,13.781-1.034,14.731" transform="translate(-129.153 -97.71)" fill="#e9c4b5" fill-rule="evenodd"/>
    <path id="Trazado_875213" data-name="Trazado 875213" d="M355.1,287.239c1.752,2.546,12.531,9.68,14.528,2.653s-13.189-4.052-14.528-2.653" transform="translate(-130.958 -105.254)" fill="#e9c4b5" fill-rule="evenodd"/>
    <path id="Trazado_875214" data-name="Trazado 875214" d="M338.249,288.924c-1.665-2.6-4.048-15.308,3.2-14.416s-1.394,13.726-3.2,14.416" transform="translate(-124.097 -101.219)" fill="#e9c4b5" fill-rule="evenodd"/>
    <path id="Trazado_875215" data-name="Trazado 875215" d="M339.284,296.946c1.355,2.777,10.958,11.429,13.974,4.775s-12.444-5.959-13.974-4.775" transform="translate(-125.124 -109.226)" fill="#e9c4b5" fill-rule="evenodd"/>
    <path id="Trazado_875216" data-name="Trazado 875216" d="M413.688,224.274a.36.36,0,0,1,.624.358c-.008.015-2.8,4.862-4.69,7.521a.361.361,0,0,1-.588-.418c1.878-2.641,4.646-7.448,4.654-7.461" transform="translate(-150.822 -82.643)" fill="#f7ebd3" fill-rule="evenodd"/>
    <path id="Trazado_875217" data-name="Trazado 875217" d="M394.127,230.443a.36.36,0,1,1,.717-.07c.119,1.187.324,3.134.742,5.2a20.448,20.448,0,0,0,2,5.906.361.361,0,0,1-.627.359,21.2,21.2,0,0,1-2.077-6.123c-.425-2.107-.633-4.074-.752-5.273" transform="translate(-145.348 -84.839)" fill="#f7ebd3" fill-rule="evenodd"/>
    <path id="Trazado_875218" data-name="Trazado 875218" d="M411.422,247.823a.36.36,0,0,1,.141.706c-1.183.24-3.126.625-5.259.842a21.167,21.167,0,0,1-6.462-.173.36.36,0,0,1,.155-.7,20.478,20.478,0,0,0,6.236.158c2.1-.213,4.021-.593,5.189-.83" transform="translate(-147.353 -91.391)" fill="#f7ebd3" fill-rule="evenodd"/>
    <path id="Trazado_875219" data-name="Trazado 875219" d="M384.251,243.53a.361.361,0,0,1,.72.048,52.508,52.508,0,0,0-.132,5.253,20.435,20.435,0,0,0,.988,6.157.361.361,0,1,1-.677.249,21.166,21.166,0,0,1-1.032-6.382c-.069-2.151.052-4.123.133-5.324" transform="translate(-141.651 -89.687)" fill="#f7ebd3" fill-rule="evenodd"/>
    <path id="Trazado_875220" data-name="Trazado 875220" d="M398.447,263.923a.36.36,0,1,1,.023.72c-1.207.04-3.189.1-5.324-.043a21.192,21.192,0,0,1-6.346-1.242.361.361,0,0,1,.272-.67,20.462,20.462,0,0,0,6.12,1.192c2.113.138,4.066.082,5.255.042" transform="translate(-142.564 -96.867)" fill="#f7ebd3" fill-rule="evenodd"/>
    <path id="Trazado_875221" data-name="Trazado 875221" d="M372.046,255.811a.36.36,0,1,1,.708.129c-.217,1.169-.564,3.089-.742,5.2a20.511,20.511,0,0,0,.263,6.231.36.36,0,1,1-.7.167,21.19,21.19,0,0,1-.282-6.457c.18-2.13.532-4.083.753-5.272" transform="translate(-136.886 -94.231)" fill="#f7ebd3" fill-rule="evenodd"/>
    <path id="Trazado_875222" data-name="Trazado 875222" d="M384.18,277.709a.361.361,0,0,1-.059.72c-1.2-.1-3.164-.274-5.284-.665a21.206,21.206,0,0,1-6.157-1.973.361.361,0,1,1,.347-.633,20.5,20.5,0,0,0,5.94,1.9c2.069.381,4.023.554,5.214.653" transform="translate(-137.371 -101.459)" fill="#f7ebd3" fill-rule="evenodd"/>
    <path id="Trazado_875223" data-name="Trazado 875223" d="M355.412,268.042a.36.36,0,1,1,.709.129c-.217,1.169-.564,3.089-.742,5.2a20.533,20.533,0,0,0,.263,6.232.36.36,0,1,1-.7.167,21.187,21.187,0,0,1-.283-6.457c.181-2.13.533-4.083.753-5.272" transform="translate(-130.751 -98.742)" fill="#f7ebd3" fill-rule="evenodd"/>
    <path id="Trazado_875224" data-name="Trazado 875224" d="M367.547,289.94a.361.361,0,0,1-.059.72c-1.2-.1-3.164-.274-5.284-.665a21.173,21.173,0,0,1-6.157-1.973.361.361,0,0,1,.347-.632,20.5,20.5,0,0,0,5.94,1.9c2.069.381,4.022.554,5.214.653" transform="translate(-131.237 -105.969)" fill="#f7ebd3" fill-rule="evenodd"/>
    <path id="Trazado_875225" data-name="Trazado 875225" d="M342.243,277.511a.36.36,0,1,1,.677.243c-.4,1.117-1.057,2.956-1.576,5.012a20.464,20.464,0,0,0-.749,6.192.361.361,0,0,1-.721.051,21.176,21.176,0,0,1,.77-6.418c.523-2.072,1.188-3.943,1.6-5.08" transform="translate(-125.33 -102.255)" fill="#f7ebd3" fill-rule="evenodd"/>
    <path id="Trazado_875226" data-name="Trazado 875226" d="M351.557,301.006a.361.361,0,0,1-.175.7c-1.166-.293-3.078-.783-5.106-1.512a21.192,21.192,0,0,1-5.757-2.946.361.361,0,0,1,.446-.568,20.486,20.486,0,0,0,5.553,2.837c1.978.711,3.878,1.2,5.038,1.49" transform="translate(-125.529 -109.383)" fill="#f7ebd3" fill-rule="evenodd"/>
    <path id="Trazado_875227" data-name="Trazado 875227" d="M335.473,274.759a.541.541,0,0,1-.461-.978,122.646,122.646,0,0,0,26.561-17.788,130.619,130.619,0,0,0,21.7-24.038.542.542,0,0,1,.89.619,131.745,131.745,0,0,1-21.886,24.237,123.76,123.76,0,0,1-26.807,17.949" transform="translate(-123.434 -85.456)" fill="#e9c4b5" fill-rule="evenodd"/>
    <path id="Trazado_875228" data-name="Trazado 875228" d="M261.819,341.088C222.324,321.377,40.61,319.544,7.258,344.881c-20.331,15.445,118.781,18.248,201.674,12.4,44.476-3.135,67.321-8.992,52.886-16.2" transform="translate(-1.938 -120.255)" fill="#e9c4b5" fill-rule="evenodd"/>
    <path id="Trazado_875229" data-name="Trazado 875229" d="M238.93,332.273c-55.879-8.956-154.477-8.641-200.943,3.976a74.638,74.638,0,0,0-4.541,13.537c37.861-12.239,56.6-13.767,56.6-13.767H191.774s48.569,14.15,59.278,10.707c3.8-1.221-2.038-7.117-12.122-14.453" transform="translate(-12.334 -120.258)" fill="#da9485" fill-rule="evenodd"/>
    <path id="Trazado_875230" data-name="Trazado 875230" d="M136.841,22.519h14.714a.9.9,0,0,1,.9.9V38.129a.9.9,0,0,1-.9.9H136.841a.9.9,0,0,1-.9-.9V23.415a.9.9,0,0,1,.9-.9m13.819,1.791H137.736V37.233h12.923Z" transform="translate(-50.135 -8.305)" fill="#e9c4b5" fill-rule="evenodd"/>
    <path id="Trazado_875231" data-name="Trazado 875231" d="M142.142,29.092a.893.893,0,0,1,1.512-.951l3.1,4.93a27.044,27.044,0,0,1,10.352-7.9.891.891,0,1,1,.72,1.63,25.669,25.669,0,0,0-9.974,7.749c-.167.2-.318.384-.521.62a.852.852,0,0,1-.2.174.892.892,0,0,1-1.231-.28Z" transform="translate(-52.369 -9.254)" fill="#e9c4b5" fill-rule="evenodd"/>
    <path id="Trazado_875232" data-name="Trazado 875232" d="M250.745,30.4H265.46a.9.9,0,0,1,.9.9V46.006a.9.9,0,0,1-.9.9H250.745a.9.9,0,0,1-.9-.9V31.291a.9.9,0,0,1,.9-.9m13.819,1.791H251.641V45.11h12.923Z" transform="translate(-92.142 -11.21)" fill="#e9c4b5" fill-rule="evenodd"/>
    <path id="Trazado_875233" data-name="Trazado 875233" d="M256.047,36.969a.893.893,0,1,1,1.511-.952l3.1,4.93a27.04,27.04,0,0,1,10.351-7.9.891.891,0,1,1,.72,1.63,25.661,25.661,0,0,0-9.973,7.749c-.167.2-.318.384-.521.62a.894.894,0,0,1-1.435-.1Z" transform="translate(-94.376 -12.159)" fill="#e9c4b5" fill-rule="evenodd"/>
    <path id="Trazado_875234" data-name="Trazado 875234" d="M28.856,88.3a1.767,1.767,0,1,1,1.25-.518,1.76,1.76,0,0,1-1.25.518m-2.364.6a3.343,3.343,0,1,0-.98-2.364,3.334,3.334,0,0,0,.98,2.364" transform="translate(-9.409 -30.68)" fill="#e9c4b5" fill-rule="evenodd"/>
    <path id="Trazado_875235" data-name="Trazado 875235" d="M407.112,185.605a1.767,1.767,0,1,1,1.249-.518,1.762,1.762,0,0,1-1.249.518m-2.365.6a3.343,3.343,0,1,0-.979-2.364,3.333,3.333,0,0,0,.979,2.364" transform="translate(-148.905 -66.564)" fill="#e9c4b5" fill-rule="evenodd"/>
    <path id="Trazado_875236" data-name="Trazado 875236" d="M404.107,76.6a.676.676,0,1,1,1.353,0V78.96a.676.676,0,0,1-1.353,0Z" transform="translate(-149.03 -27.999)" fill="#e9c4b5" fill-rule="evenodd"/>
    <path id="Trazado_875237" data-name="Trazado 875237" d="M404.107,84.705a.676.676,0,0,1,1.353,0v2.363a.676.676,0,0,1-1.353,0Z" transform="translate(-149.03 -30.989)" fill="#e9c4b5" fill-rule="evenodd"/>
    <path id="Trazado_875238" data-name="Trazado 875238" d="M409.328,81.847a.676.676,0,0,1,0,1.353h-2.362a.676.676,0,1,1,0-1.353Z" transform="translate(-149.834 -30.184)" fill="#e9c4b5" fill-rule="evenodd"/>
    <path id="Trazado_875239" data-name="Trazado 875239" d="M401.22,81.847a.676.676,0,0,1,0,1.353h-2.362a.676.676,0,1,1,0-1.353Z" transform="translate(-146.844 -30.184)" fill="#e9c4b5" fill-rule="evenodd"/>
    <path id="Trazado_875240" data-name="Trazado 875240" d="M215.56,13.344a.676.676,0,0,1,1.352,0v2.363a.676.676,0,0,1-1.352,0Z" transform="translate(-79.496 -4.672)" fill="#e9c4b5" fill-rule="evenodd"/>
    <path id="Trazado_875241" data-name="Trazado 875241" d="M215.56,21.453a.676.676,0,0,1,1.352,0v2.362a.676.676,0,0,1-1.352,0Z" transform="translate(-79.496 -7.662)" fill="#e9c4b5" fill-rule="evenodd"/>
    <path id="Trazado_875242" data-name="Trazado 875242" d="M220.78,18.594a.676.676,0,1,1,0,1.352h-2.362a.676.676,0,0,1,0-1.352Z" transform="translate(-80.301 -6.857)" fill="#e9c4b5" fill-rule="evenodd"/>
    <path id="Trazado_875243" data-name="Trazado 875243" d="M212.671,18.594a.676.676,0,1,1,0,1.352H210.31a.676.676,0,1,1,0-1.352Z" transform="translate(-77.31 -6.857)" fill="#e9c4b5" fill-rule="evenodd"/>
    <path id="Trazado_875244" data-name="Trazado 875244" d="M190.815,39.832a1.767,1.767,0,1,1,1.249-.518,1.763,1.763,0,0,1-1.249.518m-2.365.6a3.343,3.343,0,1,0-.979-2.364,3.333,3.333,0,0,0,.979,2.364" transform="translate(-69.137 -12.805)" fill="#e9c4b5" fill-rule="evenodd"/>
    <path id="Trazado_875245" data-name="Trazado 875245" d="M320.593,24.806a1.767,1.767,0,1,1,1.25-.518,1.761,1.761,0,0,1-1.25.518m-2.364.6a3.342,3.342,0,1,0-.98-2.364,3.334,3.334,0,0,0,.98,2.364" transform="translate(-116.997 -7.264)" fill="#e9c4b5" fill-rule="evenodd"/>
    <path id="Trazado_875246" data-name="Trazado 875246" d="M5.926,164.814a.676.676,0,1,1,1.353,0v2.362a.676.676,0,1,1-1.353,0Z" transform="translate(-2.185 -60.532)" fill="#e9c4b5" fill-rule="evenodd"/>
    <path id="Trazado_875247" data-name="Trazado 875247" d="M5.926,172.921a.676.676,0,0,1,1.353,0v2.362a.676.676,0,1,1-1.353,0Z" transform="translate(-2.185 -63.522)" fill="#e9c4b5" fill-rule="evenodd"/>
    <path id="Trazado_875248" data-name="Trazado 875248" d="M11.147,170.062a.676.676,0,0,1,0,1.353H8.784a.676.676,0,0,1,0-1.353Z" transform="translate(-2.99 -62.717)" fill="#e9c4b5" fill-rule="evenodd"/>
    <path id="Trazado_875249" data-name="Trazado 875249" d="M3.039,170.062a.676.676,0,0,1,0,1.353H.677a.676.676,0,1,1,0-1.353Z" transform="translate(0 -62.717)" fill="#e9c4b5" fill-rule="evenodd"/>
    <path id="Trazado_875250" data-name="Trazado 875250" d="M1.125,198.223H15.84a.9.9,0,0,1,.9.9v14.714a.9.9,0,0,1-.9.9H1.125a.9.9,0,0,1-.9-.9V199.119a.9.9,0,0,1,.9-.9m13.819,1.791H2.02v12.923H14.943Z" transform="translate(-0.084 -73.102)" fill="#e9c4b5" fill-rule="evenodd"/>
    <path id="Trazado_875251" data-name="Trazado 875251" d="M6.425,204.8a.893.893,0,0,1,1.512-.951l3.1,4.93a27.056,27.056,0,0,1,10.352-7.9.891.891,0,1,1,.72,1.63,25.669,25.669,0,0,0-9.974,7.749c-.167.2-.318.384-.52.619a.894.894,0,0,1-1.434-.1Z" transform="translate(-2.319 -74.052)" fill="#e9c4b5" fill-rule="evenodd"/>
    <path id="Trazado_875252" data-name="Trazado 875252" d="M322.563,54.712s-1.919,4.764.809,16.319c1.76,7.453.839,9.7-2.447,17.856-4.312,10.709-14.924,37.295-14.3,36.168-5.36,5.487-36.913-7.22-36.973-14.89-.33,1.245,10.445-25.274,14.758-35.984,3.286-8.158,4.177-10.414,10.611-14.567,9.975-6.44,11.893-11.2,11.893-11.2Z" transform="translate(-99.442 -17.853)" fill="#d2e1e2" fill-rule="evenodd"/>
    <path id="Trazado_875253" data-name="Trazado 875253" d="M306.024,133.676,320.18,98.023c2.726-6.769,4.063-9.151,2.341-16.45q-.228-.965-.439-1.971c-1,5.619-31.919,1.431-29.241-4.061-2.164,2.445-3.076,5.1-4.853,9.517l-14.5,35.514c1.331,3.633,11.6,8.468,14.954,9.817s14.107,4.984,17.585,3.287" transform="translate(-100.858 -27.859)" fill="#f4f0e7" fill-rule="evenodd"/>
    <path id="Trazado_875254" data-name="Trazado 875254" d="M319.073,72.368c8.125.988,14.484,3.659,14.2,5.965s-7.094,3.374-15.219,2.385-14.485-3.658-14.2-5.964,7.094-3.373,15.219-2.385" transform="translate(-112.054 -26.552)" fill="#fff" fill-rule="evenodd"/>
    <path id="Trazado_875255" data-name="Trazado 875255" d="M312,111.207c-3.151,7.936-5.694,14.417-5.378,13.849-5.36,5.487-36.913-7.22-36.974-14.89-.329,1.245,10.445-25.274,14.758-35.984,3.286-8.158,4.177-10.414,10.611-14.567,9.974-6.441,11.893-11.2,11.893-11.2l7.806,3.143a81.188,81.188,0,0,1-8.26,12.114c-8.389,9.967-16.4,34.616-10.407,41.76,3.3,3.929,10.309,5.32,15.951,5.778" transform="translate(-99.442 -17.853)" fill="#bdcbda" fill-rule="evenodd"/>
    <path id="Trazado_875256" data-name="Trazado 875256" d="M306.024,133.676l5.044-12.705c-5.118-.639-10.745-2.139-13.6-5.536-4.788-5.706-.642-22.571,5.493-34.211-6.217-1.2-11.273-3.321-10.122-5.682-2.164,2.445-3.076,5.1-4.853,9.517l-14.5,35.514c1.331,3.633,11.6,8.468,14.954,9.817s14.107,4.984,17.585,3.287" transform="translate(-100.858 -27.859)" fill="#dcd6dc" fill-rule="evenodd"/>
    <path id="Trazado_875257" data-name="Trazado 875257" d="M314.078,80.076c-6.121-1.247-10.456-3.409-10.223-5.322.28-2.306,7.094-3.373,15.219-2.385a43.514,43.514,0,0,0-5,7.708" transform="translate(-112.055 -26.552)" fill="#e7e5f1" fill-rule="evenodd"/>
    <path id="Trazado_875258" data-name="Trazado 875258" d="M348.525,54.289a1.334,1.334,0,1,0-2.423-1.119c-.008.015-2.366,5-.883,13.825a1.334,1.334,0,0,0,2.63-.442c-1.344-8,.67-12.251.676-12.264" transform="translate(-127.132 -19.323)" fill="#eaf1f3" fill-rule="evenodd"/>
    <path id="Trazado_875259" data-name="Trazado 875259" d="M345.293,51.446c-.62,1.541-5.526,1.018-10.956-1.17s-9.331-5.209-8.709-6.75l1.848-4.587c.62-1.541,5.526-1.018,10.957,1.169s9.329,5.209,8.709,6.75l-1.848,4.588" transform="translate(-120.064 -14.034)" fill="#9bbad7" fill-rule="evenodd"/>
    <path id="Trazado_875260" data-name="Trazado 875260" d="M339.512,40.109c5.43,2.187,9.329,5.209,8.709,6.75s-5.526,1.018-10.957-1.169-9.329-5.209-8.708-6.75,5.526-1.018,10.957,1.169" transform="translate(-121.143 -14.034)" fill="#d2e1e2" fill-rule="evenodd"/>
    <path id="Trazado_875261" data-name="Trazado 875261" d="M324.459,106.7c32.426,42.515,2.52,84.961-48.374,76.98-25.342-3.973-30.145-33.182-30.145-33.182,26.173-14.6,54.136-26.65,78.518-43.8" transform="translate(-90.7 -39.35)" fill="#628640" fill-rule="evenodd"/>
    <path id="Trazado_875262" data-name="Trazado 875262" d="M332.726,175.218c-9.256,16.136-30.087,25.7-56.639,21.537-25.343-3.973-30.145-33.182-30.145-33.182,13.382-7.465,27.232-14.264,40.833-21.418,26.633,2.839,38.174,8.783,38.174,8.783.7,9.014-6.9,27.412-3.075,29.211,3.93,1.849,8.728-2.422,10.852-4.931" transform="translate(-90.7 -52.425)" fill="#628640" fill-rule="evenodd"/>
    <path id="Trazado_875263" data-name="Trazado 875263" d="M241.94,147.553A542.543,542.543,0,0,0,322.984,106.7c12.555,92.784-70.718,97.14-81.044,40.853" transform="translate(-89.224 -39.35)" fill="#7aa544" fill-rule="evenodd"/>
    <path id="Trazado_875264" data-name="Trazado 875264" d="M246,147.519c1.94,8.424,7.068,19.374,13.461,25.334C275.712,188,299.4,184.24,311.934,166.224c10.358-14.892,10.868-38.281,9.033-56.114-24.809,14.031-49.733,27.426-74.966,37.409" transform="translate(-90.722 -40.607)" fill="#c13f24" fill-rule="evenodd"/>
    <path id="Trazado_875265" data-name="Trazado 875265" d="M246,158.779c1.94,8.424,7.068,19.374,13.461,25.334,12.163,11.339,28.494,12.082,41.2,4.184-14.91-3.893-19.08-25.739-15.156-47.653-13.1,6.717-26.258,12.9-39.5,18.136" transform="translate(-90.722 -51.867)" fill="#b42120" fill-rule="evenodd"/>
    <path id="Trazado_875266" data-name="Trazado 875266" d="M346.8,142.912c-.235.951,3.458,2.821,3.963.809.516-2.056-3.671-1.988-3.963-.809" transform="translate(-127.893 -52.4)" fill="#512947" fill-rule="evenodd"/>
    <path id="Trazado_875267" data-name="Trazado 875267" d="M342.981,162.755c-.235.951,3.458,2.821,3.963.809.516-2.056-3.671-1.988-3.963-.809" transform="translate(-126.483 -59.718)" fill="#512947" fill-rule="evenodd"/>
    <path id="Trazado_875268" data-name="Trazado 875268" d="M328.223,183.915c-.737.645,1.224,4.292,2.788,2.93,1.6-1.391-1.875-3.731-2.788-2.93" transform="translate(-120.985 -67.765)" fill="#512947" fill-rule="evenodd"/>
    <path id="Trazado_875269" data-name="Trazado 875269" d="M300.252,208.173c-.979-.027-2.018,3.98.055,4.044,2.119.066,1.16-4.011-.055-4.044" transform="translate(-110.307 -76.772)" fill="#512947" fill-rule="evenodd"/>
    <path id="Trazado_875270" data-name="Trazado 875270" d="M280.48,179.35c-.56-.8-4.4.737-3.223,2.444,1.2,1.744,3.917-1.447,3.223-2.444" transform="translate(-102.167 -66.061)" fill="#512947" fill-rule="evenodd"/>
    <path id="Trazado_875271" data-name="Trazado 875271" d="M267.192,166.877c-.267-.942-4.4-.738-3.843,1.26.57,2.041,4.174-.091,3.843-1.26" transform="translate(-97.101 -61.342)" fill="#512947" fill-rule="evenodd"/>
    <path id="Trazado_875272" data-name="Trazado 875272" d="M284.752,197.749c-.663-.516-3.414,1.722-2.016,2.819,1.428,1.121,2.837-2.179,2.016-2.819" transform="translate(-104.125 -72.899)" fill="#512947" fill-rule="evenodd"/>
    <path id="Trazado_875273" data-name="Trazado 875273" d="M324.3,199.171c-.778.312-.231,3.817,1.42,3.162,1.688-.67-.454-3.549-1.42-3.162" transform="translate(-119.47 -73.439)" fill="#512947" fill-rule="evenodd"/>
    <path id="Trazado_875274" data-name="Trazado 875274" d="M343.852,177.939c-.487.684,1.872,3.334,2.906,1.889,1.056-1.478-2.3-2.738-2.906-1.889" transform="translate(-126.784 -65.52)" fill="#512947" fill-rule="evenodd"/>
    <path id="Trazado_875275" data-name="Trazado 875275" d="M351.944,128.378c.006.84,3.469,1.61,3.462-.167-.007-1.817-3.469-.874-3.462.167" transform="translate(-129.792 -46.904)" fill="#512947" fill-rule="evenodd"/>
    <path id="Trazado_875276" data-name="Trazado 875276" d="M353.634,155.768c.006.839,3.468,1.61,3.461-.168-.006-1.816-3.469-.873-3.461.168" transform="translate(-130.416 -57.005)" fill="#512947" fill-rule="evenodd"/>
    <path id="Trazado_875277" data-name="Trazado 875277" d="M265.635,181.506c-.512-.666-3.738.809-2.661,2.222,1.1,1.444,3.294-1.4,2.661-2.222" transform="translate(-96.901 -66.876)" fill="#512947" fill-rule="evenodd"/>
    <path id="Trazado_875278" data-name="Trazado 875278" d="M306.147,191.783c-.837.059-1.389,3.562.384,3.444,1.813-.12.655-3.516-.384-3.444" transform="translate(-112.612 -70.727)" fill="#512947" fill-rule="evenodd"/>
    <path id="Trazado_875279" data-name="Trazado 875279" d="M380.862,133.575a.881.881,0,0,1,1.654-.6,69.7,69.7,0,0,1,2.7,9.306h0a47.58,47.58,0,0,1,1.111,11.821.879.879,0,1,1-1.757-.075,45.916,45.916,0,0,0-1.076-11.378h0v0a67.982,67.982,0,0,0-2.635-9.066" transform="translate(-140.437 -48.825)" fill="#7aa544" fill-rule="evenodd"/>
    <path id="Trazado_875280" data-name="Trazado 875280" d="M322.083,106.675a.585.585,0,1,1,1.16-.158c4.732,35.222-4.309,57.794-17.952,69.2a38.046,38.046,0,0,1-17.315,8.3,37.048,37.048,0,0,1-18.292-1.148c-13.538-4.354-25.185-16.519-28.66-35.459a.586.586,0,1,1,1.152-.214c3.388,18.465,14.71,30.315,27.865,34.546a35.874,35.874,0,0,0,17.719,1.115,36.879,36.879,0,0,0,16.785-8.049c13.366-11.17,22.208-33.376,17.539-68.127" transform="translate(-88.882 -39.093)" fill="#9bc26c" fill-rule="evenodd"/>
    <path id="Trazado_875281" data-name="Trazado 875281" d="M322.69,161c-.888.415-.021,4.463,1.861,3.591,1.923-.891-.761-4.1-1.861-3.591" transform="translate(-118.875 -59.355)" fill="#512947" fill-rule="evenodd"/>
    <path id="Trazado_875282" data-name="Trazado 875282" d="M333.552,169.456c-.486.684,1.872,3.334,2.906,1.889,1.056-1.477-2.3-2.738-2.906-1.889" transform="translate(-122.986 -62.392)" fill="#512947" fill-rule="evenodd"/>
    <path id="Trazado_875283" data-name="Trazado 875283" d="M333.779,145.942c-.235.951,3.458,2.821,3.963.809.516-2.056-3.671-1.988-3.963-.809" transform="translate(-123.089 -53.517)" fill="#512947" fill-rule="evenodd"/>
    <path id="Trazado_875284" data-name="Trazado 875284" d="M315.342,174.262c-.791.28-.385,3.8,1.291,3.216,1.714-.6-.31-3.564-1.291-3.216" transform="translate(-116.15 -64.255)" fill="#512947" fill-rule="evenodd"/>
    <path id="Trazado_875285" data-name="Trazado 875285" d="M337.454,176.5c14.585,47.858-28.8,74.4-73.224,50.137-22.121-12.082-15.883-39-15.883-39,29.7-3.712,60.137-4.607,89.108-11.135" transform="translate(-91.288 -65.091)" fill="#628640" fill-rule="evenodd"/>
    <path id="Trazado_875286" data-name="Trazado 875286" d="M324.822,231.119c-14.527,10.81-37.415,11.986-60.593-.672-22.121-12.082-15.883-39-15.883-39,15.186-1.9,30.565-3.06,45.841-4.614,23.739,11.54,32.3,20.62,32.3,20.62-2.652,8.04-16.468,21.373-13.568,24.235,2.978,2.941,9.008.88,11.905-.567" transform="translate(-91.288 -68.901)" fill="#628640" fill-rule="evenodd"/>
    <path id="Trazado_875287" data-name="Trazado 875287" d="M246.2,184.225a582.069,582.069,0,0,0,90.378-7.724c-22.329,84.593-101.4,59.967-90.378,7.724" transform="translate(-90.407 -65.091)" fill="#7aa544" fill-rule="evenodd"/>
    <path id="Trazado_875288" data-name="Trazado 875288" d="M251,184.37c-1.282,7.953-.525,19.181,3.238,26.519,9.566,18.654,32.985,23.477,51.249,12.155,15.1-9.358,24.144-29.428,28.973-45.49-28.224,3.684-56.324,6.779-83.46,6.816" transform="translate(-92.352 -65.48)" fill="#e9bc1d" fill-rule="evenodd"/>
    <path id="Trazado_875289" data-name="Trazado 875289" d="M251,187.05c-1.282,7.953-.525,19.181,3.238,26.519,7.16,13.963,22.082,20.175,36.795,17.669-12.446-8.454-8.317-28.786,3.366-46.416-14.65,1.347-29.158,2.209-43.4,2.228" transform="translate(-92.352 -68.16)" fill="#dea414" fill-rule="evenodd"/>
    <path id="Trazado_875290" data-name="Trazado 875290" d="M354.609,200.067c-.568.744,2.184,3.621,3.39,2.051,1.233-1.6-2.687-2.972-3.39-2.051" transform="translate(-130.747 -73.673)" fill="#512947" fill-rule="evenodd"/>
    <path id="Trazado_875291" data-name="Trazado 875291" d="M341.287,212.173c-.786.506.819,4.148,2.488,3.085,1.707-1.088-1.513-3.711-2.488-3.085" transform="translate(-125.786 -78.212)" fill="#512947" fill-rule="evenodd"/>
    <path id="Trazado_875292" data-name="Trazado 875292" d="M321.385,225.588c-.922.307-.435,4.132,1.521,3.487,2-.66-.377-3.869-1.521-3.487" transform="translate(-118.357 -83.182)" fill="#512947" fill-rule="evenodd"/>
    <path id="Trazado_875293" data-name="Trazado 875293" d="M286.961,240.646c-.9-.357-3.336,2.757-1.432,3.519,1.947.78,2.549-3.076,1.432-3.519" transform="translate(-105.038 -88.737)" fill="#512947" fill-rule="evenodd"/>
    <path id="Trazado_875294" data-name="Trazado 875294" d="M279.288,209.211c-.225-.887-4.365-.863-3.895,1.016.482,1.921,4.174.084,3.895-1.016" transform="translate(-101.548 -76.945)" fill="#512947" fill-rule="evenodd"/>
    <path id="Trazado_875295" data-name="Trazado 875295" d="M271.606,193.746c.1-.907-3.825-2.14-4.038-.22-.218,1.962,3.917,1.344,4.038.22" transform="translate(-98.673 -70.996)" fill="#512947" fill-rule="evenodd"/>
    <path id="Trazado_875296" data-name="Trazado 875296" d="M276.493,226.519c-.427-.672-3.807.326-2.909,1.752.918,1.458,3.438-.918,2.909-1.752" transform="translate(-100.839 -83.458)" fill="#512947" fill-rule="evenodd"/>
    <path id="Trazado_875297" data-name="Trazado 875297" d="M312.914,240.933c-.84.005-1.615,3.225.163,3.221,1.817,0,.878-3.227-.163-3.221" transform="translate(-115.062 -88.853)" fill="#512947" fill-rule="evenodd"/>
    <path id="Trazado_875298" data-name="Trazado 875298" d="M339.095,229.237c-.7.427.519,3.525,2.011,2.626,1.524-.918-1.139-3.155-2.011-2.626" transform="translate(-124.979 -84.51)" fill="#512947" fill-rule="evenodd"/>
    <path id="Trazado_875299" data-name="Trazado 875299" d="M364.664,189.313c-.3.729,2.637,2.577,3.282,1.036.659-1.575-2.907-1.939-3.282-1.036" transform="translate(-134.476 -69.637)" fill="#512947" fill-rule="evenodd"/>
    <path id="Trazado_875300" data-name="Trazado 875300" d="M356.2,213.6c-.3.728,2.637,2.576,3.282,1.036.66-1.575-2.907-1.94-3.282-1.036" transform="translate(-131.353 -78.593)" fill="#512947" fill-rule="evenodd"/>
    <path id="Trazado_875301" data-name="Trazado 875301" d="M264.738,205.954c-.232-.75-3.773-.574-3.289,1.016.5,1.626,3.576-.085,3.289-1.016" transform="translate(-96.402 -75.796)" fill="#512947" fill-rule="evenodd"/>
    <path id="Trazado_875302" data-name="Trazado 875302" d="M298.572,227.67c-.8-.27-2.6,2.993-.905,3.57,1.73.59,1.9-3.236.905-3.57" transform="translate(-109.517 -83.956)" fill="#512947" fill-rule="evenodd"/>
    <path id="Trazado_875303" data-name="Trazado 875303" d="M387.3,203.5a.883.883,0,0,1,1.76.041,60.494,60.494,0,0,1-.9,8.976h0a41.961,41.961,0,0,1-3.3,10.611.907.907,0,0,1-1.161.415.8.8,0,0,1-.446-1.079,40.438,40.438,0,0,0,3.169-10.216h0v0a58.824,58.824,0,0,0,.872-8.746" transform="translate(-141.314 -74.752)" fill="#7aa544" fill-rule="evenodd"/>
    <path id="Trazado_875304" data-name="Trazado 875304" d="M335.625,176.271a.594.594,0,0,1,.71-.4.544.544,0,0,1,.427.662c-8.509,32.1-25.193,48.557-42.068,53.774a40.758,40.758,0,0,1-19.152,1.276,38.318,38.318,0,0,1-16.6-7.231c-11-8.386-17.378-22.888-13.668-40.466a.591.591,0,0,1,.69-.436.548.548,0,0,1,.46.644c-3.617,17.138,2.574,31.256,13.262,39.4a37.113,37.113,0,0,0,16.077,7.008,39.5,39.5,0,0,0,18.567-1.243c16.529-5.11,32.9-21.317,41.291-52.988" transform="translate(-90.064 -64.852)" fill="#9bc26c" fill-rule="evenodd"/>
    <path id="Trazado_875305" data-name="Trazado 875305" d="M311.936,207.54c-.935-.267-2.693,3.164-.716,3.736,2.021.585,1.875-3.405.716-3.736" transform="translate(-114.442 -76.533)" fill="#512947" fill-rule="evenodd"/>
    <path id="Trazado_875306" data-name="Trazado 875306" d="M328.621,201.538c-.758.216-.381,3.667,1.228,3.215,1.644-.462-.287-3.483-1.228-3.215" transform="translate(-121.053 -74.319)" fill="#512947" fill-rule="evenodd"/>
    <path id="Trazado_875307" data-name="Trazado 875307" d="M256.477,267.107,236.37,258.9c.874-4.608-2.005-10.433-7.82-7.411-6.531-9.565-17.4-.471-12.989,8.7,2.629,5.462,9.93,4,12.256,4.625,4.227,1.131,13.012,7.471,22.462,13.2,5.714-1.047,8.646-4.066,6.2-10.9" transform="translate(-79.118 -91.243)" fill="#fff" fill-rule="evenodd"/>
    <path id="Trazado_875308" data-name="Trazado 875308" d="M246.96,261.769l-2.4-.981c.874-4.607-2-10.433-7.819-7.411.28,3.637,4.165,7.357,10.221,8.392" transform="translate(-87.306 -93.135)" fill="#b3b3b4" fill-rule="evenodd"/>
    <path id="Trazado_875309" data-name="Trazado 875309" d="M259.046,269.376a.361.361,0,1,1-.257.675l-15.73-6.023a.361.361,0,0,1,.257-.674Z" transform="translate(-89.552 -97.113)" fill="#b3b3b4" fill-rule="evenodd"/>
    <path id="Trazado_875310" data-name="Trazado 875310" d="M320.854,315.874a61.818,61.818,0,0,1-51.2-28.281c-6.333-10.25-29.57-24.758-2.753-28.451s46.883-21.8,74.19-7.515Z" transform="translate(-93.771 -90.802)" fill="#953c3f" fill-rule="evenodd"/>
    <path id="Trazado_875311" data-name="Trazado 875311" d="M291.6,308.119a61.135,61.135,0,0,1-21.95-20.524c-6.333-10.25-29.57-24.758-2.753-28.451,24.15-3.325,42.826-18.334,66.245-10.857-15.386-4.67-27.73,9.878-33.683,14.478-6.1,4.715-17.748,8.32-19.135,23.3-1.32,14.258,10.174,21.406,11.277,22.057" transform="translate(-93.771 -90.805)" fill="#7b343d" fill-rule="evenodd"/>
    <path id="Trazado_875312" data-name="Trazado 875312" d="M333.327,312.4c-17-11.9,2.988-66.631,25.894-64.589,22.252,1.983,34.089,39.292,26.344,54.576s-35.308,21.86-52.239,10.013" transform="translate(-120.582 -91.368)" fill="#bf8189" fill-rule="evenodd"/>
    <path id="Trazado_875313" data-name="Trazado 875313" d="M338.159,311.677a28.414,28.414,0,0,0,5.23,2.878,34.3,34.3,0,0,0,12.281,2.577,39.3,39.3,0,0,0,17.889-3.706c4.767-2.282,9.3-5.822,11.732-10.614,1.887-3.725,2.229-8.611,2-12.714a51.36,51.36,0,0,0-3.615-15.843c-3.71-9.307-11.156-19.878-22.024-20.847a11.624,11.624,0,0,0-1.921-.011c-4.954.379-9.355,3.827-12.577,7.371a55.522,55.522,0,0,0-9.942,16.593c-2.544,6.4-4.4,13.9-4.3,20.821.068,4.7,1.113,10.6,5.248,13.494" transform="translate(-122.772 -93.437)" fill="#b1656e" fill-rule="evenodd"/>
    <path id="Trazado_875314" data-name="Trazado 875314" d="M379.222,263.63c-4.869,3.425-9.5,7.785-9.266,13.28a8.118,8.118,0,0,0,.581,2.769c-3.934-1.216-15.427-5.432-16.094-13.353a33,33,0,0,1,.471-8.2c-.5.347-.987.714-1.46,1.1a32.149,32.149,0,0,0-.283,7.212c.817,9.709,15.879,14.178,18.082,14.781a33.353,33.353,0,0,0,3.921,5.125c4.631,5.24-8.3,26.115-11.9,32.4q.779-.071,1.557-.174c3.888-6.923,12.511-22.219,12.9-28.32a15.9,15.9,0,0,1,.6,4.248c.155,9.536-1.052,14.849-5.078,22.011q.844-.31,1.668-.659c3.792-7.04,4.848-11.342,4.685-21.37-.1-6.277-2.721-9.025-5.057-11.479-1.685-1.769-3.209-3.37-3.325-6.135-.2-4.884,4.239-9.028,8.807-12.24q-.4-.5-.813-.99m-37.945,50c11.44-17.837,16.424-22.233-.688-35.848q.257-.606.526-1.212c18.168,14.338,13,19.2,1.222,37.745q-.538-.33-1.06-.685" transform="translate(-125.605 -95.192)" fill="#bf8189" fill-rule="evenodd"/>
    <path id="Trazado_875315" data-name="Trazado 875315" d="M379.8,287.856c2.25,3.8,1.726,10.066,1.76,14.787.058,7.929-.968,13.771-4.06,12.837-6.5-1.964-19.856-8.724-13.895-18s14.317-12.8,16.194-9.629" transform="translate(-133.543 -105.738)" fill="#fff" fill-rule="evenodd"/>
    <path id="Trazado_875316" data-name="Trazado 875316" d="M375.382,313.086c-5.262-1.7-11.8-6.835-8.052-12.031,1.687-2.339,8.6-11.037,12.235-9,1.76.987,1.826,9.288,1.554,15.156-.213,4.615.827,8-5.737,5.873" transform="translate(-135.058 -107.594)" fill="#b1656e" fill-rule="evenodd"/>
    <path id="Trazado_875317" data-name="Trazado 875317" d="M42.158,27.289c16.976-8.395,51.965,46.058,68.377,88.965,9.022,23.588,12.058,43.686,4.275,47.938-28.153,15.375-95.3-125.7-72.651-136.9" transform="translate(-13.856 -9.745)" fill="#b07453" fill-rule="evenodd"/>
    <path id="Trazado_875318" data-name="Trazado 875318" d="M44.294,27.341c-12.771,4.617,11.267,70.731,36.247,105.6,6.545,9.137,11.956,17.493,18.094,20.46,5.829,2.818,15.268.615,16.955-6.714,1.527-6.628.215-17.949-2.987-27.659C99.91,80.545,63.2,20.507,44.294,27.341" transform="translate(-15.03 -9.885)" fill="#d48d58" fill-rule="evenodd"/>
    <path id="Trazado_875319" data-name="Trazado 875319" d="M47.76,58.892a47.687,47.687,0,0,1,19.47-9.9c-7.15-5.811-20.193-1.056-19.47,9.9" transform="translate(-17.603 -17.147)" fill="#e9ca9f" fill-rule="evenodd"/>
    <path id="Trazado_875320" data-name="Trazado 875320" d="M56.656,83.011A63.161,63.161,0,0,1,79.683,71.321c-7.965-5.892-23.292-.086-23.027,11.689" transform="translate(-20.893 -25.444)" fill="#e9ca9f" fill-rule="evenodd"/>
    <path id="Trazado_875321" data-name="Trazado 875321" d="M70.373,110.421A63.175,63.175,0,0,1,93.4,98.732c-7.964-5.893-23.292-.086-23.027,11.689" transform="translate(-25.951 -35.553)" fill="#e9ca9f" fill-rule="evenodd"/>
    <path id="Trazado_875322" data-name="Trazado 875322" d="M84.09,137.832a63.162,63.162,0,0,1,23.028-11.689c-7.965-5.894-23.293-.087-23.028,11.689" transform="translate(-31.01 -45.661)" fill="#e9ca9f" fill-rule="evenodd"/>
    <path id="Trazado_875323" data-name="Trazado 875323" d="M97.808,165.243a63.177,63.177,0,0,1,23.028-11.689c-7.965-5.893-23.294-.086-23.028,11.689" transform="translate(-36.069 -55.771)" fill="#e9ca9f" fill-rule="evenodd"/>
    <path id="Trazado_875324" data-name="Trazado 875324" d="M112.7,192.065a63.173,63.173,0,0,1,23.028-11.689c-7.965-5.893-23.292-.086-23.028,11.689" transform="translate(-41.561 -65.662)" fill="#e9ca9f" fill-rule="evenodd"/>
    <path id="Trazado_875325" data-name="Trazado 875325" d="M127.17,214.624a47.689,47.689,0,0,1,19.47-9.9c-7.151-5.812-20.194-1.056-19.47,9.9" transform="translate(-46.888 -74.579)" fill="#e9ca9f" fill-rule="evenodd"/>
    <path id="Trazado_875326" data-name="Trazado 875326" d="M46.977,60.567a.555.555,0,0,1-.778-.084.549.549,0,0,1,.092-.773,56.739,56.739,0,0,1,9.733-6.459A55.3,55.3,0,0,1,67,49.183a.548.548,0,1,1,.283,1.06,54.255,54.255,0,0,0-10.762,3.987,55.706,55.706,0,0,0-9.541,6.338" transform="translate(-16.994 -18.131)" fill="#825637" fill-rule="evenodd"/>
    <path id="Trazado_875327" data-name="Trazado 875327" d="M55.814,84.6a.557.557,0,1,1-.676-.885,74.424,74.424,0,0,1,11.5-7.412,72.625,72.625,0,0,1,12.8-4.917.557.557,0,0,1,.314,1.068,71.525,71.525,0,0,0-12.6,4.844,73.3,73.3,0,0,0-11.324,7.3" transform="translate(-20.254 -26.319)" fill="#825637" fill-rule="evenodd"/>
    <path id="Trazado_875328" data-name="Trazado 875328" d="M69.536,112.012a.557.557,0,0,1-.676-.885,74.445,74.445,0,0,1,11.492-7.41A72.608,72.608,0,0,1,93.144,98.8a.557.557,0,1,1,.314,1.068,71.462,71.462,0,0,0-12.6,4.843,73.261,73.261,0,0,0-11.321,7.3" transform="translate(-25.314 -36.428)" fill="#825637" fill-rule="evenodd"/>
    <path id="Trazado_875329" data-name="Trazado 875329" d="M82.968,139.461a.557.557,0,1,1-.676-.885,75.484,75.484,0,0,1,11.662-7.52,73.652,73.652,0,0,1,12.982-4.99.557.557,0,0,1,.314,1.069,72.559,72.559,0,0,0-12.79,4.915,74.428,74.428,0,0,0-11.491,7.411" transform="translate(-30.268 -46.484)" fill="#825637" fill-rule="evenodd"/>
    <path id="Trazado_875330" data-name="Trazado 875330" d="M97.269,166.793a.556.556,0,1,1-.675-.884,73.168,73.168,0,0,1,11.312-7.295,71.421,71.421,0,0,1,12.593-4.84.556.556,0,1,1,.314,1.067,70.473,70.473,0,0,0-12.4,4.766,72.218,72.218,0,0,0-11.142,7.185" transform="translate(-35.542 -56.702)" fill="#825637" fill-rule="evenodd"/>
    <path id="Trazado_875331" data-name="Trazado 875331" d="M112.714,193.542a.556.556,0,0,1-.675-.884,71.019,71.019,0,0,1,10.982-7.082,69.264,69.264,0,0,1,12.226-4.7.557.557,0,0,1,.314,1.068,68.271,68.271,0,0,0-12.034,4.624,70.094,70.094,0,0,0-10.813,6.973" transform="translate(-41.238 -66.697)" fill="#825637" fill-rule="evenodd"/>
    <path id="Trazado_875332" data-name="Trazado 875332" d="M127.207,216.191a.549.549,0,1,1-.686-.857,53.91,53.91,0,0,1,9.247-6.135,52.514,52.514,0,0,1,10.424-3.866.548.548,0,1,1,.283,1.059,51.468,51.468,0,0,0-10.214,3.784,52.864,52.864,0,0,0-9.055,6.015" transform="translate(-46.582 -75.717)" fill="#825637" fill-rule="evenodd"/>
    <path id="Trazado_875333" data-name="Trazado 875333" d="M53.5,30.48a.836.836,0,0,1,.5-1.6,33.719,33.719,0,0,1,8.475,3.987,16.65,16.65,0,0,1,5.243,5.363.835.835,0,0,1-1.452.824,15.009,15.009,0,0,0-4.727-4.808A32.02,32.02,0,0,0,53.5,30.48" transform="translate(-19.514 -10.638)" fill="#e9ca9f" fill-rule="evenodd"/>
    <path id="Trazado_875334" data-name="Trazado 875334" d="M77.946,137.86a1.676,1.676,0,1,0-2.151,1.475,1.864,1.864,0,0,0,2.151-1.475" transform="translate(-27.549 -49.93)" fill="#d48d58" fill-rule="evenodd"/>
    <path id="Trazado_875335" data-name="Trazado 875335" d="M78.151,129.521a1.04,1.04,0,1,0-.663-1.476,1.159,1.159,0,0,0,.663,1.476" transform="translate(-28.543 -47.036)" fill="#d48d58" fill-rule="evenodd"/>
    <path id="Trazado_875336" data-name="Trazado 875336" d="M72.479,127.248a1.04,1.04,0,1,0-1.335.915,1.159,1.159,0,0,0,1.335-.915" transform="translate(-25.987 -46.362)" fill="#d48d58" fill-rule="evenodd"/>
    <path id="Trazado_875337" data-name="Trazado 875337" d="M51.491,72.512a.872.872,0,1,0-1.045-.867.97.97,0,0,0,1.045.867" transform="translate(-18.604 -26.113)" fill="#d48d58" fill-rule="evenodd"/>
    <path id="Trazado_875338" data-name="Trazado 875338" d="M121.855,111.763a.873.873,0,1,0-.721-1.15.97.97,0,0,0,.721,1.15" transform="translate(-44.659 -40.596)" fill="#d48d58" fill-rule="evenodd"/>
    <path id="Trazado_875339" data-name="Trazado 875339" d="M98.785,213.641c4.795,2.71,2.255,10.375-2.946,11.431a6.783,6.783,0,0,1-2.907,8.076,6.109,6.109,0,0,1-6.039,8.513c-1.232,3.771-5.531,5.07-9.118,3.175-8.705-4.6,9.878-37.487,21.011-31.195" transform="translate(-27.852 -78.494)" fill="#56753d" fill-rule="evenodd"/>
    <path id="Trazado_875340" data-name="Trazado 875340" d="M83.691,224.061l-3.549,5.212c5.68,3.063,11.781,5.706,11.35,8.138s-6.346,1.642-13.665-.413L75.9,241.506c18.983,2.775,18.366,4.5,26.47,12.747,5.041,1.237,13.813-11.7,11.459-16.519-9.688-4.993-13.836-5.38-19.332-19.938l-3.708,1.98c2.206,4.363,3.349,7.222,3.282,9.649-.073,2.608-5.317-.9-10.379-5.364" transform="translate(-27.991 -80.32)" fill="#9db14d" fill-rule="evenodd"/>
    <path id="Trazado_875341" data-name="Trazado 875341" d="M83.69,224.061l-3.549,5.212c3.365,1.815,6.878,3.482,9.093,5.046a9.628,9.628,0,0,0,1.265-5.069,49.042,49.042,0,0,1-6.809-5.189m2.637,14.748a54.859,54.859,0,0,1-8.5-1.812L75.9,241.506c3.919.573,7,1.1,9.5,1.651a6.813,6.813,0,0,0,.93-4.348m10.955-14.595a62.426,62.426,0,0,1-2.787-6.418l-3.708,1.98a38.807,38.807,0,0,1,2.885,6.787c1.2-.723,2.626-1.678,3.61-2.349" transform="translate(-27.99 -80.32)" fill="#7f9742" fill-rule="evenodd"/>
    <path id="Trazado_875342" data-name="Trazado 875342" d="M51.156,187.325c-1.889-4.889,4.138-8.569,7.149-5.68,2.715-6.7,13.175-6.813,14.941.3,5.032-1.39,10.784,3.92,8.2,9.56,8.561,7.287-1.966,19.2-10.873,16.475,2.529,3.653.653,11.032-5.7,14.646a7.029,7.029,0,0,1-8.783,10.167c-4.98,9.479-21.444,3.98-17.035-7.842-6.294.356-13.1-10.782-2.784-15.8a4.229,4.229,0,0,1,1.915-6.532c-6.289-9.926,6.063-18.692,12.971-15.291" transform="translate(-11.417 -65.133)" fill="#7aa544" fill-rule="evenodd"/>
    <path id="Trazado_875343" data-name="Trazado 875343" d="M53.717,186.446c.966-3.049,5-4.656,7.3-2.457-.735,2.628.257,4.55,1.718,6.583a10.115,10.115,0,0,0-3.565,11.958,5.478,5.478,0,0,0-4.768,5.963c-4.535-1.836-7.4-.316-10.5,3.97-.952-.46-3.092-1.536-4.923-.97a4.306,4.306,0,0,1-.679-1.427c2.5.92,3.932-.352,5.377-2.714,2.248,1.507,6.873.387,8.292-4.135,2.828-.271,6.13-4.756,3.434-7.525,7.452-6.5.2-10.552-1.687-9.245" transform="translate(-14.125 -67.477)" fill="#628640" fill-rule="evenodd"/>
    <path id="Trazado_875344" data-name="Trazado 875344" d="M82.28,185.3c3.566,1.216,6.245,5.221,4.324,9.409,8.561,7.287-1.967,19.2-10.874,16.475,2.529,3.653.654,11.032-5.7,14.646a7.029,7.029,0,0,1-8.782,10.167c-3.506,6.672-12.7,5.923-16.3.774,5.507,3.7,12.259-1.113,13.9-7.146,3.989,1.98,9.722-2.585,6.986-7.113,5.487-2.513,8.553-7.135,7.143-13.238,5.632,1.137,12.2-6.3,8.784-11.619,3.338-4.087,4.818-8.6.517-12.355" transform="translate(-16.577 -68.335)" fill="#628640" fill-rule="evenodd"/>
    <path id="Trazado_875345" data-name="Trazado 875345" d="M82.227,185.228a7.292,7.292,0,0,1,.7.279,7.566,7.566,0,0,1,3.563,3.376,6.429,6.429,0,0,1,.359,5.088c-.078.227-.168.456-.273.685a8.209,8.209,0,0,1,3.164,6.26,9.183,9.183,0,0,1-1.448,4.857,12.524,12.524,0,0,1-3.758,3.837,10.609,10.609,0,0,1-8.8,1.576q.109.163.206.335a8.562,8.562,0,0,1,.3,6.765,13.485,13.485,0,0,1-5.18,6.842q-.5.349-1.055.665a6.9,6.9,0,0,1,1.018,4.751,7.262,7.262,0,0,1-4.952,5.75,6.938,6.938,0,0,1-4.874-.309,8.906,8.906,0,0,1-2.777,3.184,9.26,9.26,0,0,1-5.087,1.624,10.622,10.622,0,0,1-5.182-1.2,9.232,9.232,0,0,1-3.289-2.85l-.084-.121.122.081a7.587,7.587,0,0,0,2.25,1.042,7.783,7.783,0,0,0,5.531-.648,11.721,11.721,0,0,0,4.442-3.975,12.079,12.079,0,0,0,1.636-3.548l.009-.032.03.014a4.926,4.926,0,0,0,3.67.222,6.143,6.143,0,0,0,2.524-1.534,5.015,5.015,0,0,0,1.385-2.515,4.472,4.472,0,0,0-.627-3.246l-.016-.026.028-.013a13.059,13.059,0,0,0,6.266-5.478,10.773,10.773,0,0,0,.862-7.728l-.01-.042.042.009a7.322,7.322,0,0,0,5.34-1.2,10.186,10.186,0,0,0,2.716-2.565,8.573,8.573,0,0,0,1.5-3.305,5.976,5.976,0,0,0-.8-4.5l-.011-.016.013-.016A12.858,12.858,0,0,0,84.8,191.3a6.67,6.67,0,0,0-2.6-6.027l-.105-.092Zm.676.329q-.276-.127-.562-.23a6.678,6.678,0,0,1,2.51,5.982,12.885,12.885,0,0,1-3.117,6.3,6.029,6.029,0,0,1,.8,4.528,8.621,8.621,0,0,1-1.509,3.327,10.29,10.29,0,0,1-2.731,2.579,7.4,7.4,0,0,1-5.339,1.219,10.813,10.813,0,0,1-.876,7.725,13.107,13.107,0,0,1-6.264,5.49,4.52,4.52,0,0,1,.619,3.258,5.066,5.066,0,0,1-1.4,2.544,6.192,6.192,0,0,1-2.546,1.548,4.986,4.986,0,0,1-3.681-.21,12.132,12.132,0,0,1-1.635,3.531,11.773,11.773,0,0,1-4.463,3.994,7.842,7.842,0,0,1-5.57.653,7.63,7.63,0,0,1-2.142-.968,9.2,9.2,0,0,0,3.184,2.714,10.572,10.572,0,0,0,5.154,1.2,9.209,9.209,0,0,0,5.057-1.615,8.874,8.874,0,0,0,2.773-3.188l.011-.022.023.01a6.887,6.887,0,0,0,4.859.316,7.207,7.207,0,0,0,4.913-5.706,6.849,6.849,0,0,0-1.024-4.738l-.016-.024.025-.015q.56-.319,1.076-.676a13.427,13.427,0,0,0,5.158-6.815,8.511,8.511,0,0,0-.3-6.721c-.078-.136-.16-.268-.249-.395l-.045-.065.076.023a10.535,10.535,0,0,0,8.828-1.548,12.461,12.461,0,0,0,3.741-3.819,9.124,9.124,0,0,0,1.44-4.828,8.165,8.165,0,0,0-3.16-6.233l-.016-.013.009-.019a7.216,7.216,0,0,0,.279-.7,6.378,6.378,0,0,0-.355-5.045,7.5,7.5,0,0,0-3.537-3.352" transform="translate(-16.514 -68.293)" fill="#7aa544" fill-rule="evenodd"/>
    <path id="Trazado_875346" data-name="Trazado 875346" d="M50.529,221.526a.44.44,0,1,1,.069.878,6.008,6.008,0,0,0-3.17,1.263,14.983,14.983,0,0,0-3.03,3.272.44.44,0,0,1-.567.128l-.059-.028c-.937-.453-2.908-1.408-4.526-.908a.439.439,0,0,1-.258-.84c1.8-.557,3.8.3,4.915.835a15.21,15.21,0,0,1,3-3.164,6.866,6.866,0,0,1,3.628-1.435" transform="translate(-14.264 -81.696)" fill="#56753d" fill-rule="evenodd"/>
    <path id="Trazado_875347" data-name="Trazado 875347" d="M72.093,184.211a.439.439,0,0,1,.846.234,5.51,5.51,0,0,0,.03,3.265,10.823,10.823,0,0,0,1.62,2.944.439.439,0,0,1-.1.613,10.347,10.347,0,0,0-3.726,5.283,9.076,9.076,0,0,0,.311,6.148.44.44,0,0,1-.812.341,9.947,9.947,0,0,1-.341-6.741,11.183,11.183,0,0,1,3.712-5.476,10.828,10.828,0,0,1-1.5-2.847,6.352,6.352,0,0,1-.04-3.765" transform="translate(-25.628 -67.816)" fill="#56753d" fill-rule="evenodd"/>
    <path id="Trazado_875348" data-name="Trazado 875348" d="M81.883,185.456a.44.44,0,1,1,.282-.833,7.617,7.617,0,0,1,.739.295,7.974,7.974,0,0,1,3.758,3.564,6.831,6.831,0,0,1,.384,5.406c-.05.146-.106.293-.167.442a8.521,8.521,0,0,1,3.078,6.368,9.583,9.583,0,0,1-1.508,5.076,12.94,12.94,0,0,1-3.883,3.965,11.257,11.257,0,0,1-8.211,1.852,9.291,9.291,0,0,1,.085,6.608,13.891,13.891,0,0,1-5.336,7.054q-.354.243-.727.471a7.248,7.248,0,0,1,.862,4.668A7.679,7.679,0,0,1,66,236.474a7.29,7.29,0,0,1-4.812-.183,9.263,9.263,0,0,1-2.726,3,9.674,9.674,0,0,1-5.314,1.7,11.027,11.027,0,0,1-5.382-1.251,9.639,9.639,0,0,1-3.434-2.979.439.439,0,0,1,.72-.5,8.763,8.763,0,0,0,3.124,2.7,10.158,10.158,0,0,0,4.952,1.151,8.793,8.793,0,0,0,4.831-1.54,8.467,8.467,0,0,0,2.644-3.042.439.439,0,0,1,.564-.2,6.475,6.475,0,0,0,4.571.3,6.783,6.783,0,0,0,4.628-5.375,6.437,6.437,0,0,0-.962-4.452l-.013-.021a.44.44,0,0,1,.166-.6q.545-.311,1.045-.657a13,13,0,0,0,5-6.6,8.1,8.1,0,0,0-.263-6.39c-.072-.126-.148-.247-.229-.364a.439.439,0,0,1,.489-.669,10.132,10.132,0,0,0,8.483-1.5,12.058,12.058,0,0,0,3.614-3.692,8.72,8.72,0,0,0,1.38-4.608,7.76,7.76,0,0,0-3-5.908.44.44,0,0,1-.133-.531q.149-.326.263-.66a5.969,5.969,0,0,0-.331-4.725,7.09,7.09,0,0,0-3.342-3.165,6.962,6.962,0,0,0-.656-.261" transform="translate(-16.321 -68.078)" fill="#56753d" fill-rule="evenodd"/>
    <path id="Trazado_875349" data-name="Trazado 875349" d="M111.061,234.121a.673.673,0,0,0-1.139.717,20.3,20.3,0,0,0,3.508,4.3,30.958,30.958,0,0,0,7.546,4.975.673.673,0,1,0,.6-1.206,29.623,29.623,0,0,1-7.227-4.759,19.011,19.011,0,0,1-3.285-4.028" transform="translate(-40.499 -86.225)" fill="#c1cd8e" fill-rule="evenodd"/>
    <path id="Trazado_875350" data-name="Trazado 875350" d="M103.869,256.792a.22.22,0,0,1,.2-.393c.011.006,3.83,1.912,10.667,8.042a.22.22,0,0,1-.293.328c-6.792-6.09-10.561-7.971-10.573-7.977" transform="translate(-38.261 -94.548)" fill="#628640" fill-rule="evenodd"/>
    <path id="Trazado_875351" data-name="Trazado 875351" d="M103.332,241.362a.219.219,0,1,1,.318-.3,97.683,97.683,0,0,0,9.613,8.786.22.22,0,0,1-.261.353,97.909,97.909,0,0,1-9.67-8.837" transform="translate(-38.085 -88.875)" fill="#628640" fill-rule="evenodd"/>
    <path id="Trazado_875352" data-name="Trazado 875352" d="M38.945,231.027c1.983-.766,3.935-1.043,6.07.922a3.726,3.726,0,0,1,4.068-.229,4.8,4.8,0,0,0-4.054,1.75c-1.489-1.427-2.834-2.3-6.084-2.443" transform="translate(-14.362 -84.987)" fill="#9bc26c" fill-rule="evenodd"/>
    <path id="Trazado_875353" data-name="Trazado 875353" d="M75.937,199.272c-.485-2.069-.492-4.04,1.748-5.885a3.726,3.726,0,0,1,.333-4.061,4.8,4.8,0,0,0,1.176,4.255c-1.617,1.279-2.667,2.49-3.257,5.69" transform="translate(-27.909 -69.821)" fill="#9bc26c" fill-rule="evenodd"/>
    <path id="Trazado_875354" data-name="Trazado 875354" d="M18.213,301.647l.966,4.269a3.19,3.19,0,0,1,2.71-.352c1.883.684,2.618,3.323,1.642,5.894a6.018,6.018,0,0,1-2.412,3.031L24.6,329.883c22.2-8.017,46.142-17.467,67.029-27.35a142.873,142.873,0,0,0-3.983-32.61Z" transform="translate(-6.717 -99.544)" fill="#e9bc1d" fill-rule="evenodd"/>
    <path id="Trazado_875355" data-name="Trazado 875355" d="M49.451,260.276C37.485,272.4,27.744,285.212,18.213,298.089c23.763-9.815,47.116-20.136,69.437-31.725a188.744,188.744,0,0,0-38.2-6.089" transform="translate(-6.717 -95.986)" fill="#dea414" fill-rule="evenodd"/>
    <path id="Trazado_875356" data-name="Trazado 875356" d="M38.585,318.162c2.008.729,2.791,3.542,1.75,6.282s-3.513,4.371-5.52,3.642-2.792-3.543-1.751-6.283,3.513-4.37,5.521-3.641" transform="translate(-12.024 -117.27)" fill="#dea414" fill-rule="evenodd"/>
    <path id="Trazado_875357" data-name="Trazado 875357" d="M73.8,327.611c1.9.691,2.642,3.353,1.658,5.947S72.128,337.7,70.228,337s-2.643-3.353-1.658-5.947,3.325-4.137,5.226-3.447" transform="translate(-25.127 -120.758)" fill="#dea414" fill-rule="evenodd"/>
    <path id="Trazado_875358" data-name="Trazado 875358" d="M83.919,300.962c2.13.774,2.96,3.757,1.857,6.664s-3.725,4.635-5.856,3.862-2.961-3.757-1.856-6.664,3.725-4.636,5.855-3.862" transform="translate(-28.609 -110.923)" fill="#dea414" fill-rule="evenodd"/>
    <path id="Trazado_875359" data-name="Trazado 875359" d="M114.186,310.549c2.13.773,2.961,3.757,1.857,6.663s-3.726,4.636-5.856,3.862-2.961-3.757-1.857-6.664,3.726-4.636,5.856-3.862" transform="translate(-39.771 -114.459)" fill="#dea414" fill-rule="evenodd"/>
    <path id="Trazado_875360" data-name="Trazado 875360" d="M95.713,317.556c1.4.508,1.943,2.465,1.219,4.373s-2.446,3.042-3.843,2.534-1.943-2.465-1.219-4.372,2.445-3.042,3.843-2.535" transform="translate(-33.762 -117.066)" fill="#dea414" fill-rule="evenodd"/>
    <path id="Trazado_875361" data-name="Trazado 875361" d="M61.789,310.958c1.354.492,1.882,2.389,1.18,4.237s-2.368,2.947-3.722,2.455-1.883-2.389-1.181-4.236,2.369-2.947,3.723-2.456" transform="translate(-21.299 -114.634)" fill="#dea414" fill-rule="evenodd"/>
    <path id="Trazado_875362" data-name="Trazado 875362" d="M106.071,298.715c1.075.39,1.495,1.9.937,3.363s-1.88,2.34-2.955,1.949-1.495-1.9-.937-3.363,1.88-2.339,2.955-1.949" transform="translate(-37.937 -110.128)" fill="#dea414" fill-rule="evenodd"/>
    <path id="Trazado_875363" data-name="Trazado 875363" d="M52.044,334.333c1.075.391,1.495,1.9.937,3.364s-1.88,2.339-2.955,1.949-1.5-1.9-.937-3.363,1.88-2.34,2.955-1.95" transform="translate(-18.013 -123.263)" fill="#dea414" fill-rule="evenodd"/>
    <path id="Trazado_875364" data-name="Trazado 875364" d="M33.908,345.873c1.751.636,2.435,3.09,1.526,5.48s-3.063,3.812-4.815,3.176-2.435-3.09-1.527-5.48,3.064-3.813,4.816-3.176" transform="translate(-10.581 -127.498)" fill="#dea414" fill-rule="evenodd"/>
    <path id="Trazado_875365" data-name="Trazado 875365" d="M124.858,285.281c1.665.6,2.315,2.937,1.452,5.209s-2.913,3.624-4.578,3.019-2.315-2.936-1.452-5.209,2.913-3.624,4.578-3.019" transform="translate(-44.217 -105.155)" fill="#dea414" fill-rule="evenodd"/>
    <path id="Trazado_875366" data-name="Trazado 875366" d="M99.092,281.736l-9.6,4.569c1.326,6.884,10.86,2.054,9.6-4.569" transform="translate(-33.004 -103.901)" fill="#dea414" fill-rule="evenodd"/>
    <path id="Trazado_875367" data-name="Trazado 875367" d="M88.775,285.529q4.833-2.266,9.615-4.592c-5.525-3.775-13.924,1.077-9.615,4.592" transform="translate(-32.301 -103.101)" fill="#be6e21" fill-rule="evenodd"/>
    <path id="Trazado_875368" data-name="Trazado 875368" d="M18.3,301.785a.556.556,0,0,1-.423-1.029c11.84-4.891,23.59-9.914,35.179-15.167,11.572-5.245,22.962-10.71,34.09-16.487a.557.557,0,0,1,.511.99C76.5,275.882,65.091,281.355,53.509,286.6c-11.566,5.243-23.333,10.273-35.213,15.181" transform="translate(-6.464 -99.218)" fill="#ba7122" fill-rule="evenodd"/>
    <path id="Trazado_875369" data-name="Trazado 875369" d="M67.059,272.824c.632,1.581-.817,3.533-3.238,4.36s-4.9.217-5.528-1.365.818-3.533,3.239-4.36,4.9-.216,5.527,1.365" transform="translate(-21.443 -99.975)" fill="#be6e21" fill-rule="evenodd"/>
    <path id="Trazado_875370" data-name="Trazado 875370" d="M86.6,270.984c.4,1-.519,2.243-2.056,2.768s-3.107.137-3.508-.867.519-2.242,2.055-2.767,3.107-.138,3.509.866" transform="translate(-29.852 -99.53)" fill="#be6e21" fill-rule="evenodd"/>
    <path id="Trazado_875371" data-name="Trazado 875371" d="M52.907,292.3c.587,1.468-.759,3.279-3.006,4.047s-4.544.2-5.131-1.267.759-3.279,3.007-4.047,4.543-.2,5.131,1.267" transform="translate(-16.46 -107.202)" fill="#be6e21" fill-rule="evenodd"/>
    <path id="Trazado_875372" data-name="Trazado 875372" d="M75.424,285.069c.331.831-.43,1.856-1.7,2.291s-2.572.114-2.9-.717.43-1.856,1.7-2.291,2.572-.113,2.9.717" transform="translate(-26.088 -104.794)" fill="#be6e21" fill-rule="evenodd"/>
    <path id="Trazado_875373" data-name="Trazado 875373" d="M107.034,269.288c.5,1.244-.644,2.78-2.549,3.431s-3.852.17-4.349-1.074.643-2.78,2.548-3.431,3.852-.17,4.35,1.074" transform="translate(-36.886 -98.807)" fill="#be6e21" fill-rule="evenodd"/>
    <path id="Trazado_875374" data-name="Trazado 875374" d="M74.441,263c.331.831-.43,1.856-1.7,2.291s-2.572.114-2.9-.717.43-1.856,1.7-2.291,2.572-.113,2.9.717" transform="translate(-25.726 -96.657)" fill="#be6e21" fill-rule="evenodd"/>
    <path id="Trazado_875375" data-name="Trazado 875375" d="M227.447,80.119c-36.809-.806-73.616-.723-110.424,0a.986.986,0,0,0-.976.975q0,.871,0,1.742c-.106,52.387,0,104.767,0,157.154a.948.948,0,0,0,.975.975,570.47,570.47,0,0,1,110.423,0,.947.947,0,0,0,.975-.975q.089-79.446.005-158.9a.985.985,0,0,0-.974-.975" transform="translate(-42.778 -29.335)" fill="#d48d58" fill-rule="evenodd"/>
    <path id="Trazado_875376" data-name="Trazado 875376" d="M125.331,86.849q10.861.587,21.7.907c.508.015,2.354-9.149,2.861-9.135,17.092.477,32.8-1.556,49.31.857.8.117,1.223,7.685,2.031,7.787,7.627.965,16.538-.024,24.323-.415.756,47.785.515,94.326,0,140.521q-50.109-2.392-100.22,0c-.347-46.71-.994-93.308,0-140.521" transform="translate(-46.025 -28.865)" fill="#825637" fill-rule="evenodd"/>
    <rect id="Rectángulo_401737" data-name="Rectángulo 401737" width="0.765" height="110.907" transform="translate(72.832 55.282)" fill="#63405a"/>
    <path id="Trazado_875377" data-name="Trazado 875377" d="M128.269,93.333a923.709,923.709,0,0,0,96.523,0c.728,46.023.5,90.847,0,135.338q-48.262-2.3-96.523,0c-.335-44.987-.958-89.866,0-135.338" transform="translate(-47.116 -34.42)" fill="#fff" fill-rule="evenodd"/>
    <path id="Trazado_875378" data-name="Trazado 875378" d="M225.4,151.694c.192,33.237-.029,65.957-.393,98.5q-48.262-2.3-96.523,0-.064-8.664-.139-17.325c64.51-19.619,85.229-46.62,97.055-81.175" transform="translate(-47.333 -55.943)" fill="#f4f0e7" fill-rule="evenodd"/>
    <path id="Trazado_875379" data-name="Trazado 875379" d="M163.234,69.389q5.528-.249,11.047-.379c3.257-.078,4.228-.467,4.228-1.985,0-7.833,7.178-8.854,10.071-8.854s10.072,1.021,10.072,8.854c0,1.517.97,1.906,4.228,1.985q5.522.132,11.047.379v14.26a3.7,3.7,0,0,1-3.689,3.688H166.923a3.7,3.7,0,0,1-3.689-3.688Z" transform="translate(-60.199 -21.453)" fill="#cfd7dd" fill-rule="evenodd"/>
    <path id="Trazado_875380" data-name="Trazado 875380" d="M165.484,71.579V85.9a2.279,2.279,0,0,0,2.269,2.268h43.314a2.279,2.279,0,0,0,2.269-2.268V71.579q-4.83-.2-9.661-.319c-2.446-.059-5.614-.187-5.614-3.4,0-5.221-3.895-7.434-8.651-7.434s-8.651,2.213-8.651,7.434c0,3.217-3.168,3.345-5.614,3.4q-4.832.116-9.661.319" transform="translate(-61.028 -22.283)" fill="#cfd7dd" fill-rule="evenodd"/>
    <path id="Trazado_875381" data-name="Trazado 875381" d="M188.679,102.867H167.022a3.7,3.7,0,0,1-3.52-2.587c.312.54,2.5,1.182,5.83,1.182h38.693c3.328,0,5.519-.642,5.83-1.182a3.7,3.7,0,0,1-3.519,2.587Z" transform="translate(-60.297 -36.982)" fill="#b3bdc4" fill-rule="evenodd"/>
    <path id="Trazado_875382" data-name="Trazado 875382" d="M202.042,65.288a2.3,2.3,0,1,1-2.3,2.3,2.3,2.3,0,0,1,2.3-2.3" transform="translate(-73.661 -24.077)" fill="#b3bdc4" fill-rule="evenodd"/>
    <path id="Trazado_875383" data-name="Trazado 875383" d="M184.371,199.141c-13.935-6.078-24.826-11.552-27.574-21.348-3.508-12.506-6.288-36.929-7.777-48.679,16.16-.562,26.678-5.654,35.35-14.327,8.673,8.673,19.191,13.764,35.351,14.327-1.488,11.75-4.269,36.173-7.777,48.679-2.747,9.8-13.639,15.27-27.575,21.348" transform="translate(-54.957 -42.332)" fill="#e0b12e" fill-rule="evenodd"/>
    <path id="Trazado_875384" data-name="Trazado 875384" d="M187.2,197.884c7.577-3.3,19.012-8.442,22.555-15.544,3.975-7.965,6.629-35.161,7.96-45.793-11.686-1.083-21.644-4.771-30.515-12.455-8.87,7.684-18.827,11.373-30.514,12.455,1.331,10.632,3.984,37.828,7.959,45.793,3.544,7.1,14.979,12.245,22.555,15.544" transform="translate(-57.783 -45.764)" fill="#6d495f" fill-rule="evenodd"/>
    <path id="Trazado_875385" data-name="Trazado 875385" d="M187.2,197.884V124.093c-8.87,7.684-18.827,11.373-30.514,12.455,1.331,10.632,3.984,37.828,7.959,45.793,3.544,7.1,14.979,12.245,22.555,15.544" transform="translate(-57.783 -45.764)" fill="#6d495f" fill-rule="evenodd"/>
    <path id="Trazado_875386" data-name="Trazado 875386" d="M188.774,196.528c6.907-3.007,17.331-7.7,20.561-14.169a11.772,11.772,0,0,0,.8-2.075,171.172,171.172,0,0,0,3.975-20.891c.917-6.251,1.694-12.513,2.478-18.777-10.654-.987-19.729-4.35-27.816-11.354-8.086,7-17.163,10.366-27.816,11.354.784,6.265,1.561,12.526,2.478,18.777a171.3,171.3,0,0,0,3.975,20.891,11.725,11.725,0,0,0,.8,2.075c3.231,6.474,13.654,11.162,20.56,14.169" transform="translate(-59.359 -47.67)" fill="#512947" fill-rule="evenodd"/>
    <path id="Trazado_875387" data-name="Trazado 875387" d="M213.579,164.588v10H198.007v15.573h-10V174.587H172.436v-10h15.571V149.016h10v15.572Z" transform="translate(-63.592 -54.955)" fill="#e9f3f8" fill-rule="evenodd"/>
    <rect id="Rectángulo_401738" data-name="Rectángulo 401738" width="67.076" height="1.382" transform="translate(103.3 162.154)" fill="#b3b3b4"/>
    <rect id="Rectángulo_401739" data-name="Rectángulo 401739" width="67.076" height="1.382" transform="translate(103.3 165.078)" fill="#b3b3b4"/>
    <rect id="Rectángulo_401740" data-name="Rectángulo 401740" width="67.076" height="1.382" transform="translate(103.3 168.002)" fill="#b3b3b4"/>
    <path id="Trazado_875388" data-name="Trazado 875388" d="M141.288,255.708h7.459a.369.369,0,0,1,.384.422l-.038,7.415a.629.629,0,0,1-.5.573.481.481,0,0,1-.106.012h-7.46a.369.369,0,0,1-.384-.422l.038-7.415a.63.63,0,0,1,.5-.574.566.566,0,0,1,.106-.011Zm6.855.966H141.67l-.033,6.491h6.474Z" transform="translate(-51.869 -94.302)" fill="#512947" fill-rule="evenodd"/>
    <path id="Trazado_875389" data-name="Trazado 875389" d="M143.643,260.017a.511.511,0,0,1,.16-.681.476.476,0,0,1,.679.006l1.038,1.368.74.968,1.226-1.275c1.149-1.193,2.3-2.387,3.313-3.433a.519.519,0,0,1,.7-.1.472.472,0,0,1-.054.676c-1.206,1.24-2.257,2.332-3.308,3.425l-1.654,1.718a.71.71,0,0,1-.071.067.479.479,0,0,1-.681,0q-.529-.687-1.048-1.37Z" transform="translate(-52.946 -94.696)" fill="#89ac40" fill-rule="evenodd"/>
    <rect id="Rectángulo_401741" data-name="Rectángulo 401741" width="67.076" height="1.382" transform="translate(103.3 175.788)" fill="#b3b3b4"/>
    <rect id="Rectángulo_401742" data-name="Rectángulo 401742" width="67.076" height="1.382" transform="translate(103.3 178.713)" fill="#b3b3b4"/>
    <rect id="Rectángulo_401743" data-name="Rectángulo 401743" width="67.076" height="1.382" transform="translate(103.3 181.636)" fill="#b3b3b4"/>
    <path id="Trazado_875390" data-name="Trazado 875390" d="M141.288,277.52h7.459a.369.369,0,0,1,.384.422l-.038,7.415a.63.63,0,0,1-.5.574.515.515,0,0,1-.106.011v0h-7.459a.369.369,0,0,1-.384-.422l.038-7.414a.63.63,0,0,1,.5-.574.561.561,0,0,1,.106-.011Zm6.855.966H141.67l-.033,6.491h6.474Z" transform="translate(-51.869 -102.346)" fill="#512947" fill-rule="evenodd"/>
    <path id="Trazado_875391" data-name="Trazado 875391" d="M143.643,281.829a.511.511,0,0,1,.16-.681.476.476,0,0,1,.679.006l1.038,1.368.74.968,1.226-1.275c1.149-1.193,2.3-2.387,3.313-3.433a.519.519,0,0,1,.7-.1.471.471,0,0,1-.054.675c-1.206,1.24-2.257,2.332-3.308,3.425l-1.654,1.718a.707.707,0,0,1-.071.067.479.479,0,0,1-.681,0q-.529-.687-1.048-1.37Z" transform="translate(-52.946 -102.74)" fill="#89ac40" fill-rule="evenodd"/>
  </g>
</svg>
