<svg xmlns="http://www.w3.org/2000/svg" width="53.159" height="53.157" viewBox="0 0 53.159 53.157">
  <g id="licencias" transform="translate(0.01 -0.008)">
    <path id="Trazado_875042" data-name="Trazado 875042" d="M96.016,40.008V87.849h35.438V40.008Zm0,0" transform="translate(-85.392 -35.57)" fill="#348fd9"/>
    <path id="Trazado_875043" data-name="Trazado 875043" d="M129.681,46.209l-6.2-6.2H96.016V86.077h33.666Zm0,0" transform="translate(-85.392 -35.57)" fill="#3086cd"/>
    <path id="Trazado_875044" data-name="Trazado 875044" d="M64.016,55.849H99.453V15.981L91.48,8.008H64.016Zm0,0" transform="translate(-56.935 -7.114)" fill="#60d1e0"/>
    <path id="Trazado_875045" data-name="Trazado 875045" d="M319.989,15.981h-7.974V8.008Zm0,0" transform="translate(-277.471 -7.114)" fill="#9fe4ed"/>
    <path id="Trazado_875046" data-name="Trazado 875046" d="M149.252,176.008l-29.236,29.236h29.236Zm0,0" transform="translate(-106.734 -156.509)" fill="#5ac6d4"/>
    <path id="Trazado_875047" data-name="Trazado 875047" d="M202.62,336.867H184.9a.886.886,0,0,1-.886-.886v-7.088a.886.886,0,0,1,.886-.886H202.62a.886.886,0,0,1,.886.886v7.088A.886.886,0,0,1,202.62,336.867ZM185.788,335.1h15.947V329.78H185.788Zm0,0" transform="translate(-163.646 -291.676)" fill="#348fd9"/>
    <path id="Trazado_875048" data-name="Trazado 875048" d="M216.016,360.008h3.544v1.772h-3.544Zm0,0" transform="translate(-192.102 -320.133)" fill="#348fd9"/>
    <path id="Trazado_875049" data-name="Trazado 875049" d="M264.016,360.008H271.1v1.772h-7.088Zm0,0" transform="translate(-234.787 -320.133)" fill="#348fd9"/>
    <path id="Trazado_875050" data-name="Trazado 875050" d="M248.016,221.327l5.315-5.315,12.4,12.4-5.315,5.315Zm0,0" transform="translate(-220.559 -192.083)" fill="#e0e0de"/>
    <path id="Trazado_875051" data-name="Trazado 875051" d="M317.3,144.008a5.316,5.316,0,0,0-5.316,5.316v.443l-7.973,8.416,4.43,4.43,8.416-7.973h.443a5.316,5.316,0,1,0,0-10.631Zm0,0" transform="translate(-270.357 -128.053)" fill="#95573a"/>
    <path id="Trazado_875052" data-name="Trazado 875052" d="M224.02,266.662,226.677,264l12.4,12.4-2.658,2.658Zm0,0" transform="translate(-199.22 -234.76)" fill="#ebebe9"/>
    <path id="Trazado_875053" data-name="Trazado 875053" d="M337.347,148.246c-3.671,9.282-9.405,13.714-13.242,15.931l2.2,2.2,8.416-7.973h.443a5.316,5.316,0,0,0,2.178-10.162Zm0,0" transform="translate(-288.222 -131.822)" fill="#8f4d2e"/>
    <path id="Trazado_875054" data-name="Trazado 875054" d="M191.852,59a1.506,1.506,0,0,0-2.01-2.01,1.506,1.506,0,0,0-2.84,0A1.506,1.506,0,0,0,185,59a1.506,1.506,0,0,0,0,2.84,1.506,1.506,0,0,0,2.01,2.005,1.506,1.506,0,0,0,2.84,0,1.506,1.506,0,0,0,2.005-2.01,1.506,1.506,0,0,0,0-2.835Zm0,0" transform="translate(-163.625 -49.778)" fill="#ffb531"/>
    <path id="Trazado_875055" data-name="Trazado 875055" d="M79.077,65.752A9.738,9.738,0,0,0,64.016,57.59V73.914a9.738,9.738,0,0,0,15.061-8.162Zm0,0" transform="translate(-56.935 -49.797)" fill="#5ac6d4"/>
    <path id="Trazado_875056" data-name="Trazado 875056" d="M328.016,80.008h6.2V81.78h-6.2Zm0,0" transform="translate(-291.699 -71.141)" fill="#5ac6d4"/>
    <g id="Grupo_1099970" data-name="Grupo 1099970" transform="translate(11.51 17.727)">
      <path id="Trazado_875057" data-name="Trazado 875057" d="M152.016,232.008h8.859v1.772h-8.859Zm0,0" transform="translate(-146.7 -224.034)" fill="#3fb7c7"/>
      <path id="Trazado_875058" data-name="Trazado 875058" d="M104.016,264.008h10.631v1.772H104.016Zm0,0" transform="translate(-104.016 -252.491)" fill="#3fb7c7"/>
      <path id="Trazado_875059" data-name="Trazado 875059" d="M104.016,200.008h18.6v1.772h-18.6Zm0,0" transform="translate(-104.016 -195.578)" fill="#3fb7c7"/>
      <path id="Trazado_875060" data-name="Trazado 875060" d="M104.016,296.008h5.316v1.772h-5.316Zm0,0" transform="translate(-104.016 -280.947)" fill="#3fb7c7"/>
      <path id="Trazado_875061" data-name="Trazado 875061" d="M104.016,328.008H111.1v1.772h-7.088Zm0,0" transform="translate(-104.016 -309.403)" fill="#3fb7c7"/>
      <path id="Trazado_875062" data-name="Trazado 875062" d="M104.016,360.008H111.1v1.772h-7.088Zm0,0" transform="translate(-104.016 -337.859)" fill="#3fb7c7"/>
      <path id="Trazado_875063" data-name="Trazado 875063" d="M104.016,392.008H111.1v1.772h-7.088Zm0,0" transform="translate(-104.016 -366.315)" fill="#3fb7c7"/>
      <path id="Trazado_875064" data-name="Trazado 875064" d="M104.016,232.008h3.544v1.772h-3.544Zm0,0" transform="translate(-104.016 -224.034)" fill="#3fb7c7"/>
      <path id="Trazado_875065" data-name="Trazado 875065" d="M168.016,296.008h3.544v1.772h-3.544Zm0,0" transform="translate(-160.928 -280.947)" fill="#3fb7c7"/>
      <path id="Trazado_875066" data-name="Trazado 875066" d="M168.016,160.008h3.544v1.772h-3.544Zm0,0" transform="translate(-160.928 -160.008)" fill="#3fb7c7"/>
      <path id="Trazado_875067" data-name="Trazado 875067" d="M216.016,160.008H223.1v1.772h-7.088Zm0,0" transform="translate(-203.612 -160.008)" fill="#3fb7c7"/>
    </g>
    <path id="Trazado_875068" data-name="Trazado 875068" d="M27.506,49.753a9.745,9.745,0,1,1-9.745-9.745A9.745,9.745,0,0,1,27.506,49.753Zm0,0" transform="translate(-7.137 -35.57)" fill="#7eb457"/>
    <path id="Trazado_875069" data-name="Trazado 875069" d="M37.644,92.723a.886.886,0,0,1-.626-.26l-2.658-2.658,1.253-1.253,2.031,2.031,8.233-8.233L47.129,83.6,38.27,92.464A.886.886,0,0,1,37.644,92.723Zm0,0" transform="translate(-30.563 -73.225)" fill="#ffb531"/>
    <path id="Trazado_875070" data-name="Trazado 875070" d="M192.494,111.2a9.628,9.628,0,0,0-.585-1.861A1.484,1.484,0,0,0,192.494,111.2Zm0,0" transform="translate(-170.555 -97.221)" fill="#f98500"/>
    <path id="Trazado_875071" data-name="Trazado 875071" d="M185.056,95.529a9.784,9.784,0,0,0-.907-1.619A1.474,1.474,0,0,0,185.056,95.529Zm0,0" transform="translate(-163.746 -83.503)" fill="#f98500"/>
    <path id="Trazado_875072" data-name="Trazado 875072" d="M388.445,41.753V32.894a.886.886,0,0,0-.886-.886h-3.544V33.78h2.658v7.973Zm0,0" transform="translate(-341.498 -28.456)"/>
    <path id="Trazado_875073" data-name="Trazado 875073" d="M56.016,240.008v22.149a.886.886,0,0,0,.886.886H92.339a.886.886,0,0,0,.886-.886v-6.2H91.453v5.316H57.788V240.008Zm0,0" transform="translate(-49.821 -213.422)"/>
    <path id="Trazado_875074" data-name="Trazado 875074" d="M84.733.1C84.7.084,84.679.077,84.65.067a.881.881,0,0,0-.229-.046.338.338,0,0,0-.055-.013H56.9a.886.886,0,0,0-.886.886V2.666h1.772V1.78H83.48V8.867a.886.886,0,0,0,.886.886h7.088v4.43h1.772V8.867c0-.019-.01-.035-.011-.055a.863.863,0,0,0-.046-.229c-.01-.029-.017-.055-.029-.083a.88.88,0,0,0-.177-.26L84.989.267A.887.887,0,0,0,84.733.1ZM90.2,7.981H85.252V3.032Zm0,0" transform="translate(-49.821)"/>
    <path id="Trazado_875075" data-name="Trazado 875075" d="M184.016,328.894v7.088a.886.886,0,0,0,.886.886h11.517V335.1H185.788V329.78h4.43v-1.772H184.9A.886.886,0,0,0,184.016,328.894Zm0,0" transform="translate(-163.646 -291.676)"/>
    <path id="Trazado_875076" data-name="Trazado 875076" d="M216.016,360.008h5.316v1.772h-5.316Zm0,0" transform="translate(-192.102 -320.133)"/>
    <path id="Trazado_875077" data-name="Trazado 875077" d="M132.339,136.008a6.21,6.21,0,0,0-6.2,6.2v.089l-4.518,4.77-2.829-2.829a.886.886,0,0,0-1.253,0l-7.973,7.973a.886.886,0,0,0,0,1.253l12.4,12.4a.886.886,0,0,0,1.253,0l2.658-2.658,4.689-4.688v13.808H96.016V174.1h35.438a.886.886,0,0,0,.886-.886V151.955h-1.772v4.063l-3.088-3.088,4.771-4.518h.089a6.2,6.2,0,0,0,0-12.4Zm-9.745,27.983-11.15-11.15,1.405-1.405L124,162.586Zm6.721-6.721-4.063,4.063-11.15-11.15,4.063-4.063,2.236,2.236-1.993,2.1a.886.886,0,0,0,.017,1.24l4.43,4.43a.886.886,0,0,0,1.235.017l2.1-1.993Zm3.025-10.631H131.9a.888.888,0,0,0-.61.243l-7.79,7.377-3.206-3.206,7.38-7.79a.886.886,0,0,0,.239-.61v-.443a4.43,4.43,0,1,1,4.43,4.43Zm0,0" transform="translate(-85.392 -120.939)"/>
    <path id="Trazado_875078" data-name="Trazado 875078" d="M152.016,232.008h8.859v1.772h-8.859Zm0,0" transform="translate(-135.19 -206.308)"/>
    <path id="Trazado_875079" data-name="Trazado 875079" d="M104.016,264.008h10.631v1.772H104.016Zm0,0" transform="translate(-92.506 -234.764)"/>
    <path id="Trazado_875080" data-name="Trazado 875080" d="M176.016,200.008h10.631v1.772H176.016Zm0,0" transform="translate(-156.532 -177.851)"/>
    <path id="Trazado_875081" data-name="Trazado 875081" d="M104.016,296.008h5.316v1.772h-5.316Zm0,0" transform="translate(-92.506 -263.22)"/>
    <path id="Trazado_875082" data-name="Trazado 875082" d="M104.016,328.008H111.1v1.772h-7.088Zm0,0" transform="translate(-92.506 -291.676)"/>
    <path id="Trazado_875083" data-name="Trazado 875083" d="M104.016,360.008H111.1v1.772h-7.088Zm0,0" transform="translate(-92.506 -320.133)"/>
    <path id="Trazado_875084" data-name="Trazado 875084" d="M104.016,392.008H111.1v1.772h-7.088Zm0,0" transform="translate(-92.506 -348.589)"/>
    <path id="Trazado_875085" data-name="Trazado 875085" d="M104.016,232.008h3.544v1.772h-3.544Zm0,0" transform="translate(-92.506 -206.308)"/>
    <path id="Trazado_875086" data-name="Trazado 875086" d="M168.016,296.008h3.544v1.772h-3.544Zm0,0" transform="translate(-149.418 -263.22)"/>
    <path id="Trazado_875087" data-name="Trazado 875087" d="M200.016,160.008h8.859v1.772h-8.859Zm0,0" transform="translate(-177.874 -142.281)"/>
    <path id="Trazado_875088" data-name="Trazado 875088" d="M10.624,53.258A10.632,10.632,0,0,0,21.237,43a2.342,2.342,0,0,0,1.718.537,2.4,2.4,0,0,0,3.689,0,2.4,2.4,0,0,0,2.608-2.608,2.4,2.4,0,0,0,0-3.689,2.4,2.4,0,0,0-2.608-2.608,2.4,2.4,0,0,0-3.689,0,2.4,2.4,0,0,0-2.608,2.608,2.3,2.3,0,0,0-.354.365,10.631,10.631,0,1,0-9.368,15.655ZM21.668,38.5a.885.885,0,0,0,.5-1.214A.62.62,0,0,1,23,36.455a.885.885,0,0,0,1.214-.5.62.62,0,0,1,1.17,0,.886.886,0,0,0,1.215.5.62.62,0,0,1,.828.828.885.885,0,0,0,.5,1.214.62.62,0,0,1,0,1.17.886.886,0,0,0-.5,1.215.6.6,0,0,1-.122.709.6.6,0,0,1-.709.122.886.886,0,0,0-1.214.5.62.62,0,0,1-1.17,0,.884.884,0,0,0-.5-.522.9.9,0,0,0-.339-.067.868.868,0,0,0-.379.089.62.62,0,0,1-.828-.828.886.886,0,0,0-.5-1.215.62.62,0,0,1,0-1.169ZM10.624,33.767a8.859,8.859,0,1,1-8.859,8.859A8.859,8.859,0,0,1,10.624,33.767Zm0,0" transform="translate(0 -28.444)"/>
    <path id="Trazado_875089" data-name="Trazado 875089" d="M37.017,92.464a.886.886,0,0,0,1.253,0L47.129,83.6l-1.253-1.253-8.233,8.233-2.031-2.031-1.253,1.253Zm0,0" transform="translate(-30.563 -73.225)"/>
  </g>
</svg>
