<svg xmlns="http://www.w3.org/2000/svg" xmlns:xlink="http://www.w3.org/1999/xlink" width="400.5" height="615.186" viewBox="0 0 400.5 615.186">
  <defs>
    <clipPath id="clip-path">
      <rect id="Rectángulo_401302" data-name="Rectángulo 401302" width="40.719" height="35.27" fill="none"/>
    </clipPath>
    <clipPath id="clip-path-2">
      <rect id="Rectángulo_401302-2" data-name="Rectángulo 401302" width="35.015" height="30.329" fill="none"/>
    </clipPath>
    <clipPath id="clip-path-3">
      <rect id="Rectángulo_401302-3" data-name="Rectángulo 401302" width="44.964" height="38.947" fill="none"/>
    </clipPath>
    <clipPath id="clip-path-4">
      <rect id="Rectángulo_401745" data-name="Rectángulo 401745" width="400.308" height="514.186" fill="none"/>
    </clipPath>
    <clipPath id="clip-path-5">
      <path id="Trazado_875417" data-name="Trazado 875417" d="M237.916,68.907a19.735,19.735,0,0,1-2.236,4.831,51.631,51.631,0,0,0-15.51,5.039,16.935,16.935,0,0,1-6.592-4.649c3.665-7.464,8.452-9.655,12.81-9.655,6.2,0,11.529,4.433,11.529,4.433" transform="translate(-213.577 -64.474)" fill="none"/>
    </clipPath>
    <clipPath id="clip-path-6">
      <path id="Trazado_875517" data-name="Trazado 875517" d="M2.879,213.379h194.29c1.59,0,2.88-3.58,2.88-8V8c0-4.416-1.289-8-2.88-8H2.879C1.289,0,0,3.58,0,8V205.382C0,209.8,1.289,213.379,2.879,213.379Z" transform="translate(0)" fill="#297929" stroke="#707070" stroke-width="1"/>
    </clipPath>
    <radialGradient id="radial-gradient" cx="0.5" cy="0.5" r="0.5" gradientTransform="matrix(1, 0, 0, -1, 0, 1)" gradientUnits="objectBoundingBox">
      <stop offset="0" stop-color="#fff" stop-opacity="0"/>
      <stop offset="1" stop-color="#f9a545"/>
    </radialGradient>
    <clipPath id="clip-path-7">
      <rect id="Rectángulo_401302-4" data-name="Rectángulo 401302" width="44.334" height="38.401" fill="none"/>
    </clipPath>
    <clipPath id="clip-path-8">
      <rect id="Rectángulo_401302-5" data-name="Rectángulo 401302" width="38.123" height="33.021" transform="translate(0 0)" fill="none"/>
    </clipPath>
    <clipPath id="clip-path-9">
      <rect id="Rectángulo_401302-6" data-name="Rectángulo 401302" width="48.955" height="42.404" fill="none"/>
    </clipPath>
  </defs>
  <g id="Grupo_1100003" data-name="Grupo 1100003" transform="translate(-1020 -4660)">
    <ellipse id="Elipse_11526" data-name="Elipse 11526" cx="174" cy="158.5" rx="174" ry="158.5" transform="translate(1026 4913.913)" fill="#f1e7c2"/>
    <path id="Rectángulo_401329" data-name="Rectángulo 401329" d="M0,0H155A200,200,0,0,1,355,200V577.913a0,0,0,0,1,0,0H0a0,0,0,0,1,0,0V0A0,0,0,0,1,0,0Z" transform="translate(1065.051 4696)" fill="#e6f2e9"/>
    <g id="Grupo_1099382" data-name="Grupo 1099382" transform="translate(1156.256 5142.379)">
      <path id="Trazado_873222" data-name="Trazado 873222" d="M-11263.109-11362.693s-47.492-92.82-137.232-112.411" transform="translate(11413.346 11493.657)" fill="none" stroke="#869a8a" stroke-width="2"/>
      <g id="Grupo_1099331" data-name="Grupo 1099331" transform="translate(89.415 51.463) rotate(50)">
        <g id="Grupo_1099328" data-name="Grupo 1099328" transform="translate(0 0)" clip-path="url(#clip-path)">
          <path id="Trazado_873219" data-name="Trazado 873219" d="M39.164,0S12.824,47.976,1.536,30.1c0,0-13.17-17.873,37.628-30.1" transform="translate(1.554 0.386)" fill="#c1ddc7"/>
          <path id="Trazado_873220" data-name="Trazado 873220" d="M30.065,0C25.982,3.791,20.028,9.369,15.8,12.878,10.875,16.857,5.917,21.109,0,23.508l.094-.028c.245-.066.48-.141.715-.226.085-.028.179-.066.282-.1,5.738-1.9,10.649-5.8,15.315-9.548A123.508,123.508,0,0,0,30.065,0" transform="translate(10.654 0.386)" fill="#869a8a"/>
          <path id="Trazado_873221" data-name="Trazado 873221" d="M40.564,0,39.53.248C24.013,3.985,4.682,10.723.711,21.611a10.428,10.428,0,0,0,.923,9.477c1.8,2.848,4.123,4.269,6.882,4.178C21.273,34.875,39.292,2.319,40.053.933ZM8.279,34.328c-2.346,0-4.268-1.235-5.869-3.77A9.672,9.672,0,0,1,1.6,21.91C3.7,16.2,11.86,8.039,38.7,1.42c-3.106,5.436-19.156,32.566-30.211,32.9l-.208,0" transform="translate(0 0)" fill="#869a8a"/>
        </g>
      </g>
      <g id="Grupo_1099332" data-name="Grupo 1099332" transform="matrix(-0.309, 0.951, -0.951, -0.309, 113.487, 37.184)">
        <g id="Grupo_1099328-2" data-name="Grupo 1099328" transform="translate(0 0)" clip-path="url(#clip-path-2)">
          <path id="Trazado_873219-2" data-name="Trazado 873219" d="M33.677,0S11.027,41.255,1.32,25.885C1.32,25.885-10,10.516,33.677,0" transform="translate(1.336 0.332)" fill="#c1ddc7"/>
          <path id="Trazado_873220-2" data-name="Trazado 873220" d="M25.853,0C22.342,3.26,17.222,8.057,13.59,11.074,9.351,14.5,5.088,18.152,0,20.215l.081-.024c.21-.057.413-.121.615-.194.073-.024.154-.057.243-.089C5.873,18.273,10.1,14.916,14.108,11.7A106.206,106.206,0,0,0,25.853,0" transform="translate(9.162 0.331)" fill="#869a8a"/>
          <path id="Trazado_873221-2" data-name="Trazado 873221" d="M34.882,0l-.89.214C20.649,3.427,4.026,9.221.611,18.583A8.967,8.967,0,0,0,1.4,26.732C2.95,29.182,4.95,30.4,7.323,30.325,18.293,29.989,33.787,1.994,34.442.8ZM7.119,29.519c-2.017,0-3.67-1.062-5.047-3.242a8.317,8.317,0,0,1-.694-7.436c1.8-4.912,8.82-11.928,31.9-17.619C30.605,5.9,16.8,29.225,7.3,29.517l-.179,0" transform="translate(0 0)" fill="#869a8a"/>
        </g>
      </g>
      <g id="Grupo_1099333" data-name="Grupo 1099333" transform="matrix(0.616, 0.788, -0.788, 0.616, 30.69, 0)">
        <g id="Grupo_1099328-3" data-name="Grupo 1099328" clip-path="url(#clip-path-3)">
          <path id="Trazado_873219-3" data-name="Trazado 873219" d="M43.246,0S14.161,52.977,1.7,33.24c0,0-14.543-19.737,41.55-33.24" transform="translate(1.716 0.427)" fill="#c1ddc7"/>
          <path id="Trazado_873220-3" data-name="Trazado 873220" d="M33.2,0C28.691,4.186,22.115,10.346,17.451,14.221,12.008,18.615,6.534,23.31,0,25.959c.031-.01.073-.021.1-.031.27-.073.53-.156.789-.249.093-.031.2-.073.312-.114,6.336-2.1,11.759-6.409,16.911-10.543A136.382,136.382,0,0,0,33.2,0" transform="translate(11.765 0.426)" fill="#869a8a"/>
          <path id="Trazado_873221-3" data-name="Trazado 873221" d="M44.793,0,43.65.274C26.516,4.4,5.17,11.841.785,23.863A11.515,11.515,0,0,0,1.8,34.328c1.984,3.145,4.553,4.714,7.6,4.613C23.491,38.51,43.387,2.561,44.228,1.03ZM9.142,37.906c-2.591,0-4.713-1.364-6.481-4.163a10.68,10.68,0,0,1-.891-9.549C4.086,17.886,13.1,8.877,42.731,1.569c-3.43,6-21.153,35.961-33.36,36.335-.077,0-.154,0-.23,0" transform="translate(0 0)" fill="#869a8a"/>
        </g>
      </g>
    </g>
    <g id="Grupo_1099995" data-name="Grupo 1099995" transform="translate(-128.508 -4.508)">
      <g id="Grupo_1099983" data-name="Grupo 1099983" transform="translate(1222.559 4664.508)">
        <circle id="Elipse_11585" data-name="Elipse 11585" cx="45" cy="45" r="45" fill="#fddbb4"/>
        <circle id="Elipse_11586" data-name="Elipse 11586" cx="33" cy="33" r="33" transform="translate(12 12)" fill="#feedda"/>
      </g>
      <g id="lista-de-verificacion" transform="translate(1247.722 4686.997)">
        <g id="Grupo_1099991" data-name="Grupo 1099991" transform="translate(0.655 0.655)">
          <g id="Grupo_1099990" data-name="Grupo 1099990">
            <g id="Grupo_1099987" data-name="Grupo 1099987">
              <g id="Grupo_1099984" data-name="Grupo 1099984">
                <path id="Trazado_875476" data-name="Trazado 875476" d="M70.789,88.254H43.12a1.6,1.6,0,0,1-1.6-1.6V50a1.6,1.6,0,0,1,1.6-1.6h27.67a1.6,1.6,0,0,1,1.6,1.6V86.649A1.6,1.6,0,0,1,70.789,88.254Z" transform="translate(-41.515 -44.817)" fill="#ffc250"/>
                <path id="Trazado_875477" data-name="Trazado 875477" d="M320.4,48.39h-5.37a1.6,1.6,0,0,1,1.6,1.6V86.648a1.6,1.6,0,0,1-1.6,1.6h5.37a1.6,1.6,0,0,0,1.6-1.6V49.995a1.6,1.6,0,0,0-1.6-1.6Z" transform="translate(-291.122 -44.816)" fill="#eab14d"/>
                <path id="Trazado_875478" data-name="Trazado 875478" d="M71.522,112.442V78.972A.574.574,0,0,1,72.1,78.4H96.582a.574.574,0,0,1,.574.574v33.471a.574.574,0,0,1-.574.574H72.1A.574.574,0,0,1,71.522,112.442Z" transform="translate(-68.899 -72.202)" fill="#f5f5f5"/>
                <path id="Trazado_875479" data-name="Trazado 875479" d="M302.186,78.4h-5.37a.574.574,0,0,1,.573.574v33.471a.574.574,0,0,1-.573.574h5.37a.574.574,0,0,0,.573-.574V78.972A.574.574,0,0,0,302.186,78.4Z" transform="translate(-274.503 -72.202)" fill="#eaeaea"/>
                <path id="Trazado_875480" data-name="Trazado 875480" d="M149.642,9.5V8.652A1.152,1.152,0,0,0,148.49,7.5h-4.513a1.152,1.152,0,0,0-1.152,1.152V9.5a.471.471,0,0,1-.471.471h-1.878a1.131,1.131,0,0,0-1.131,1.131v2.6h13.779V11.1a1.131,1.131,0,0,0-1.131-1.131h-1.878A.471.471,0,0,1,149.642,9.5Z" transform="translate(-130.794 -7.5)" fill="#c2d0da"/>
              </g>
              <g id="Grupo_1099986" data-name="Grupo 1099986" transform="translate(5.959 9.443)">
                <g id="Grupo_1099985" data-name="Grupo 1099985">
                  <path id="Trazado_875481" data-name="Trazado 875481" d="M109.694,121.612v-5.051a1.013,1.013,0,0,1,1.013-1.013h5.051a1.013,1.013,0,0,1,1.013,1.013v5.051a1.013,1.013,0,0,1-1.013,1.013h-5.051A1.013,1.013,0,0,1,109.694,121.612Z" transform="translate(-109.694 -115.548)" fill="#66b49d"/>
                  <path id="Trazado_875482" data-name="Trazado 875482" d="M109.694,242.019v-5.051a1.013,1.013,0,0,1,1.013-1.013h5.051a1.013,1.013,0,0,1,1.013,1.013v5.051a1.013,1.013,0,0,1-1.013,1.013h-5.051A1.013,1.013,0,0,1,109.694,242.019Z" transform="translate(-109.694 -225.432)" fill="#66b49d"/>
                  <path id="Trazado_875483" data-name="Trazado 875483" d="M109.694,362.424v-5.051a1.013,1.013,0,0,1,1.013-1.013h5.051a1.013,1.013,0,0,1,1.013,1.013v5.051a1.013,1.013,0,0,1-1.013,1.013h-5.051A1.013,1.013,0,0,1,109.694,362.424Z" transform="translate(-109.694 -335.314)" fill="#66b49d"/>
                </g>
              </g>
            </g>
            <g id="Grupo_1099989" data-name="Grupo 1099989" transform="translate(16.911 10.184)">
              <g id="Grupo_1099988" data-name="Grupo 1099988" transform="translate(1.076)">
                <path id="Trazado_875484" data-name="Trazado 875484" d="M264.282,177.009l-.644-.848-2.408-1.525-.926-.146-12.331,19.485a5.075,5.075,0,0,0-.646,1.526,3.972,3.972,0,0,1,3.52,2.229,5.074,5.074,0,0,0,1.1-1.236Z" transform="translate(-247.328 -170.08)" fill="#fc8086"/>
                <path id="Trazado_875485" data-name="Trazado 875485" d="M415.36,124.956l-1.041-.659a1.738,1.738,0,0,0-2.4.539l-.954,1.508.3.614,2.9,1.834.777.072.955-1.509A1.738,1.738,0,0,0,415.36,124.956Z" transform="translate(-396.665 -124.027)" fill="#8c9ba6"/>
              </g>
              <path id="Trazado_875486" data-name="Trazado 875486" d="M0,0H2.478V4.708H0Z" transform="matrix(0.535, -0.845, 0.845, 0.535, 14.055, 4.405)" fill="#c9e2e7"/>
              <path id="Trazado_875487" data-name="Trazado 875487" d="M239.608,417.124l-3.511,2.829a.666.666,0,0,1-1.066-.675l1.057-4.384A3.972,3.972,0,0,1,239.608,417.124Z" transform="translate(-235.011 -389.474)" fill="#7c8b96"/>
            </g>
          </g>
        </g>
        <g id="Grupo_1099994" data-name="Grupo 1099994" transform="translate(0 0)">
          <g id="Grupo_1099993" data-name="Grupo 1099993">
            <g id="Grupo_1099992" data-name="Grupo 1099992">
              <path id="Trazado_875488" data-name="Trazado 875488" d="M130.52,135.466a.655.655,0,0,0-.917.139l-1.3,1.763-.444-.609a.656.656,0,1,0-1.06.772l.765,1.051a.915.915,0,0,0,.734.375h0a.914.914,0,0,0,.734-.371l1.621-2.2A.656.656,0,0,0,130.52,135.466Z" transform="translate(-118.578 -123.51)"/>
              <path id="Trazado_875489" data-name="Trazado 875489" d="M130.519,258.493a.655.655,0,0,0-.917.139l-1.3,1.763-.444-.609a.656.656,0,1,0-1.06.772l.765,1.051a.914.914,0,0,0,.734.375h0a.915.915,0,0,0,.734-.371l1.621-2.2A.656.656,0,0,0,130.519,258.493Z" transform="translate(-118.577 -235.785)"/>
              <path id="Trazado_875490" data-name="Trazado 875490" d="M130.519,376.277a.655.655,0,0,0-.917.139l-1.3,1.763-.444-.609a.656.656,0,1,0-1.06.772l.765,1.051a.914.914,0,0,0,.734.375h0a.915.915,0,0,0,.734-.371l1.621-2.2A.656.656,0,0,0,130.519,376.277Z" transform="translate(-118.577 -343.275)"/>
              <path id="Trazado_875491" data-name="Trazado 875491" d="M221.181,134.178h8.1a.656.656,0,1,0,0-1.311h-8.1a.656.656,0,1,0,0,1.311Z" transform="translate(-204.225 -121.255)"/>
              <path id="Trazado_875492" data-name="Trazado 875492" d="M221.181,165.519h4.052a.656.656,0,0,0,0-1.311h-4.052a.656.656,0,1,0,0,1.311Z" transform="translate(-204.225 -149.857)"/>
              <path id="Trazado_875493" data-name="Trazado 875493" d="M221.181,254.583h5.437a.656.656,0,1,0,0-1.311h-5.437a.656.656,0,1,0,0,1.311Z" transform="translate(-204.225 -231.137)"/>
              <path id="Trazado_875494" data-name="Trazado 875494" d="M225.232,285.925a.656.656,0,0,0,0-1.311h-4.052a.656.656,0,1,0,0,1.311Z" transform="translate(-204.225 -259.739)"/>
              <path id="Trazado_875495" data-name="Trazado 875495" d="M108.917,108.047h-5.051a1.671,1.671,0,0,0-1.669,1.669v5.051a1.671,1.671,0,0,0,1.669,1.669h5.051a1.671,1.671,0,0,0,1.669-1.669v-5.051A1.671,1.671,0,0,0,108.917,108.047Zm.358,6.72a.358.358,0,0,1-.358.358h-5.051a.358.358,0,0,1-.358-.358v-5.051a.358.358,0,0,1,.358-.358h5.051a.358.358,0,0,1,.358.358Z" transform="translate(-96.239 -98.604)"/>
              <path id="Trazado_875496" data-name="Trazado 875496" d="M108.917,228.453h-5.051a1.671,1.671,0,0,0-1.669,1.669v5.051a1.671,1.671,0,0,0,1.669,1.669h5.051a1.671,1.671,0,0,0,1.669-1.669v-5.051A1.671,1.671,0,0,0,108.917,228.453Zm.358,6.72a.358.358,0,0,1-.358.358h-5.051a.358.358,0,0,1-.358-.358v-5.051a.358.358,0,0,1,.358-.358h5.051a.358.358,0,0,1,.358.358Z" transform="translate(-96.239 -208.487)"/>
              <path id="Trazado_875497" data-name="Trazado 875497" d="M108.917,348.857h-5.051a1.671,1.671,0,0,0-1.669,1.669v5.051a1.671,1.671,0,0,0,1.669,1.669h5.051a1.671,1.671,0,0,0,1.669-1.669v-5.051A1.671,1.671,0,0,0,108.917,348.857Zm.358,6.72a.358.358,0,0,1-.358.358h-5.051a.358.358,0,0,1-.358-.358v-5.051a.358.358,0,0,1,.358-.358h5.051a.358.358,0,0,1,.358.358Z" transform="translate(-96.239 -318.368)"/>
              <path id="Trazado_875498" data-name="Trazado 875498" d="M71.709,11.215l-1.041-.659a2.394,2.394,0,0,0-3.3.742l-.954,1.508L65.086,14.9l-1.5,2.368V7.425A1.231,1.231,0,0,0,62.358,6.2h-4.7V4.885h6.29a.95.95,0,0,1,.949.949v5.678a.656.656,0,0,0,1.311,0V5.834a2.263,2.263,0,0,0-2.26-2.26H57.524a1.789,1.789,0,0,0-1.651-1.106H54.179v-.66A1.81,1.81,0,0,0,52.371,0H47.858a1.81,1.81,0,0,0-1.808,1.808v.66H44.357a1.789,1.789,0,0,0-1.651,1.106H36.28a2.263,2.263,0,0,0-2.26,2.26V42.487a2.263,2.263,0,0,0,2.26,2.26H63.95a2.263,2.263,0,0,0,2.26-2.26v-14.7a.656.656,0,1,0-1.311,0v14.7a.95.95,0,0,1-.949.949H36.28a.95.95,0,0,1-.949-.949V5.834a.95.95,0,0,1,.949-.949h6.29V6.2h-4.7a1.231,1.231,0,0,0-1.229,1.229V40.9a1.231,1.231,0,0,0,1.229,1.229H62.358A1.231,1.231,0,0,0,63.587,40.9V28.523l6.584-10.4h0L71.5,16.026l.955-1.509a2.4,2.4,0,0,0-.742-3.3Zm-2.558.307a1.074,1.074,0,0,1,.816.142l1.041.659a1.084,1.084,0,0,1,.336,1.493l-.6.955-2.869-1.817.6-.954a1.075,1.075,0,0,1,.677-.477ZM56.733,36.9a4.413,4.413,0,0,1-.415.554,4.609,4.609,0,0,0-.7-.746L67.838,17.418l.875.554Zm-4.477,3.91-.012,0h0l.926-3.847a3.3,3.3,0,0,1,2.165,1.371c-3.472,2.8-3.028,2.435-3.078,2.48ZM67.168,14.061l2.869,1.817-.624.985-2.869-1.817ZM43.881,4.27c0-.008,0-.016,0-.024s0-.006,0-.008a.476.476,0,0,1,.475-.458h1.878a1.128,1.128,0,0,0,1.127-1.127V1.808a.5.5,0,0,1,.5-.5h4.513a.5.5,0,0,1,.5.5v.845a1.128,1.128,0,0,0,1.127,1.127h1.878a.476.476,0,0,1,.475.458s0,.006,0,.008,0,.016,0,.024V6.2H43.881ZM37.954,7.508H62.276V19.339L55.414,30.183a.656.656,0,1,0,1.108.7l9.321-14.729.887.561L54.513,36.009a4.6,4.6,0,0,0-.972-.311,4.433,4.433,0,0,1,.323-.612l1.019-1.61a.656.656,0,1,0-1.108-.7l-1.019,1.61a5.72,5.72,0,0,0-.73,1.723h0l-1.056,4.383a1.361,1.361,0,0,0-.038.323H37.954ZM62.276,40.814H54.344L56.595,39a5.718,5.718,0,0,0,1.246-1.4l4.436-7.009Z" transform="translate(-34.02 0)"/>
            </g>
          </g>
        </g>
      </g>
    </g>
    <g id="Grupo_1099996" data-name="Grupo 1099996" transform="translate(1232.051 4784.527)">
      <g id="Grupo_1099952" data-name="Grupo 1099952" transform="translate(15.784)">
        <rect id="Rectángulo_401736" data-name="Rectángulo 401736" width="119" height="32" rx="7" transform="translate(0)" fill="#f9a545"/>
        <path id="Trazado_875000" data-name="Trazado 875000" d="M2.1-2.779a1.417,1.417,0,0,1-.991-.277,1.082,1.082,0,0,1-.289-.819q0-.148.018-.5T.89-5.205q.037-.48.08-1.053t.092-1.164q.1-1.244.142-2.019l.068-1.219a5.63,5.63,0,0,1,.074-.708q.037-.154.16-.154.382,0,.782-.018t.77-.043q.369-.025.7-.043t.585-.018a4.138,4.138,0,0,1,1.355.2,2.338,2.338,0,0,1,.917.554,2.184,2.184,0,0,1,.517.862A3.611,3.611,0,0,1,7.293-8.9a3.725,3.725,0,0,1-.382,1.712A2.514,2.514,0,0,1,5.692-6.043L6.727-4.565q.283.419.431.646a.743.743,0,0,1,.148.339.488.488,0,0,1-.1.24,1.361,1.361,0,0,1-.308.308,1.99,1.99,0,0,1-.493.265,1.8,1.8,0,0,1-.646.111.992.992,0,0,1-.683-.259A2.469,2.469,0,0,1,4.553-3.6a5.286,5.286,0,0,1-.394-.979q-.166-.554-.314-1.157a4.772,4.772,0,0,1-.727-.086q-.037.542-.074,1.034t-.062.88q-.025.388-.049.64t-.025.3a.271.271,0,0,1-.049.142.192.192,0,0,1-.148.043ZM4.092-9.8q-.148,0-.332.018t-.394.043q-.025.431-.055,1.028T3.23-7.434a3.434,3.434,0,0,0,.751.1A1.172,1.172,0,0,0,4.6-7.483a1.138,1.138,0,0,0,.376-.363,1.272,1.272,0,0,0,.179-.462A2.6,2.6,0,0,0,5.2-8.752a1.114,1.114,0,0,0-.246-.776A1.129,1.129,0,0,0,4.092-9.8Zm6.957,7.142a4.379,4.379,0,0,1-1.077-.135,2.557,2.557,0,0,1-.961-.468,2.492,2.492,0,0,1-.7-.887,3.16,3.16,0,0,1-.271-1.391,6.65,6.65,0,0,1,.049-.739,4.84,4.84,0,0,1,.191-.887,4.693,4.693,0,0,1,.394-.905,3.075,3.075,0,0,1,.659-.807,3.219,3.219,0,0,1,.985-.579A3.856,3.856,0,0,1,11.7-9.675a3.456,3.456,0,0,1,1.084.148,1.924,1.924,0,0,1,.714.4,1.507,1.507,0,0,1,.394.585,2.04,2.04,0,0,1,.123.714,1.89,1.89,0,0,1-.228.96,2.116,2.116,0,0,1-.591.659,2.936,2.936,0,0,1-.807.413,6.543,6.543,0,0,1-.874.228,6.063,6.063,0,0,1-.794.1q-.363.018-.56.018a1.612,1.612,0,0,0,.068.462,1.189,1.189,0,0,0,.2.4,1.032,1.032,0,0,0,.357.283,1.2,1.2,0,0,0,.542.111.991.991,0,0,0,.5-.1,1.126,1.126,0,0,0,.289-.234q.111-.129.191-.234a.257.257,0,0,1,.215-.1,1.3,1.3,0,0,1,.215.031.962.962,0,0,1,.314.129.982.982,0,0,1,.283.271A.745.745,0,0,1,13.462-4a.915.915,0,0,1-.222.616,1.632,1.632,0,0,1-.573.419,3.167,3.167,0,0,1-.782.234A4.953,4.953,0,0,1,11.049-2.656Zm.234-5.381a.712.712,0,0,0-.462.154,1.3,1.3,0,0,0-.32.388,2.048,2.048,0,0,0-.2.517q-.068.283-.1.542A2.786,2.786,0,0,0,11.437-6.7a.765.765,0,0,0,.474-.7.7.7,0,0,0-.154-.443A.564.564,0,0,0,11.283-8.037Zm6.576,3.743a1.781,1.781,0,0,0,.622-.1,2.547,2.547,0,0,0,.462-.222q.2-.123.332-.222a.433.433,0,0,1,.246-.1q.283,0,.283.369a1.1,1.1,0,0,1-.037.24,2.817,2.817,0,0,1-.1.32q-.062.166-.129.314a1.018,1.018,0,0,1-.129.222q-.062.062-.215.2A2.111,2.111,0,0,1,18.782-3a3.485,3.485,0,0,1-.6.24,2.621,2.621,0,0,1-.763.1,3.533,3.533,0,0,1-.967-.142,2.357,2.357,0,0,1-.905-.493,2.642,2.642,0,0,1-.671-.948,3.7,3.7,0,0,1-.265-1.5,7.138,7.138,0,0,1,.043-.733,4.425,4.425,0,0,1,.179-.85,4.877,4.877,0,0,1,.363-.862,2.679,2.679,0,0,1,.61-.757,3,3,0,0,1,.917-.536,3.594,3.594,0,0,1,1.274-.2,3.393,3.393,0,0,1,1.041.142,2.1,2.1,0,0,1,.72.382,1.553,1.553,0,0,1,.425.56,1.685,1.685,0,0,1,.142.69,1.144,1.144,0,0,1-.419.979,1.938,1.938,0,0,1-1.182.314.694.694,0,0,1-.252-.031q-.068-.031-.068-.142,0-.3-.012-.529A1.451,1.451,0,0,0,18.32-7.7a.516.516,0,0,0-.166-.246.513.513,0,0,0-.32-.086.79.79,0,0,0-.61.246,1.621,1.621,0,0,0-.345.6,3.078,3.078,0,0,0-.148.72q-.031.369-.031.616a2,2,0,0,0,.277,1.219A1.063,1.063,0,0,0,17.859-4.294Zm5.911,1.638a3.6,3.6,0,0,1-1.41-.24,2.239,2.239,0,0,1-.893-.659A2.494,2.494,0,0,1,21-4.534a5.1,5.1,0,0,1-.135-1.2,5.894,5.894,0,0,1,.179-1.447,3.375,3.375,0,0,1,.61-1.262,3.115,3.115,0,0,1,1.139-.893,4.086,4.086,0,0,1,1.767-.339,2.84,2.84,0,0,1,2.223.757,3.1,3.1,0,0,1,.671,2.124,7.128,7.128,0,0,1-.055.843,4.556,4.556,0,0,1-.209.917,4.354,4.354,0,0,1-.419.887,3.035,3.035,0,0,1-.671.763,3.145,3.145,0,0,1-.979.529A4.151,4.151,0,0,1,23.769-2.656Zm.579-5.381a1.1,1.1,0,0,0-.745.24,1.544,1.544,0,0,0-.419.579A2.614,2.614,0,0,0,23-6.5a5.714,5.714,0,0,0-.043.634,2.167,2.167,0,0,0,.259,1.194.839.839,0,0,0,.739.382.971.971,0,0,0,.708-.271,1.887,1.887,0,0,0,.431-.653,3.283,3.283,0,0,0,.209-.8,5.511,5.511,0,0,0,.055-.7,1.763,1.763,0,0,0-.228-.967A.86.86,0,0,0,24.348-8.037ZM30.505-5q-.037.566-.086,1.077t-.074.893a.325.325,0,0,1-.062.2.31.31,0,0,1-.209.049h-.443a2.007,2.007,0,0,1-.622-.08.92.92,0,0,1-.382-.228.8.8,0,0,1-.2-.363,2.013,2.013,0,0,1-.055-.5q0-.185.018-.523t.068-.936q.049-.6.117-1.515t.166-2.272a.621.621,0,0,1,.062-.32.322.322,0,0,1,.2-.037h.48a1.773,1.773,0,0,1,.6.086,1.142,1.142,0,0,1,.382.222.751.751,0,0,1,.209.32,1.5,1.5,0,0,1,.074.382,2.052,2.052,0,0,1,.813-.9,2.316,2.316,0,0,1,1.071-.234,3.258,3.258,0,0,1,.64.062,1.725,1.725,0,0,1,.554.209,1.4,1.4,0,0,1,.419.388,1.557,1.557,0,0,1,.246.61,2.5,2.5,0,0,1,.837-.991,2.171,2.171,0,0,1,1.145-.277,3.286,3.286,0,0,1,.733.08,1.566,1.566,0,0,1,.61.277,1.369,1.369,0,0,1,.413.536,2.038,2.038,0,0,1,.154.843q0,.382-.037.936t-.086,1.2q-.049.646-.111,1.33t-.1,1.311q-.012.135-.025.209a.232.232,0,0,1-.043.111.155.155,0,0,1-.092.049.929.929,0,0,1-.172.012h-.394a2.285,2.285,0,0,1-.64-.074.892.892,0,0,1-.382-.209.746.746,0,0,1-.191-.339,1.758,1.758,0,0,1-.055-.462q0-.16.018-.456t.049-.64q.031-.345.062-.714t.062-.683q.031-.314.049-.548t.018-.308a1.2,1.2,0,0,0-.129-.566.51.51,0,0,0-.5-.246.8.8,0,0,0-.554.209,1.634,1.634,0,0,0-.394.579,4.26,4.26,0,0,0-.259.874,8.5,8.5,0,0,0-.135,1.1q-.025.382-.062.874T34.2-3.161q-.012.135-.025.209a.232.232,0,0,1-.043.111.155.155,0,0,1-.092.049.929.929,0,0,1-.172.012h-.394a2.285,2.285,0,0,1-.64-.074.892.892,0,0,1-.382-.209A.746.746,0,0,1,32.26-3.4a1.758,1.758,0,0,1-.055-.462q0-.246.043-.72t.086-.985q.043-.511.086-.973t.043-.671a1.2,1.2,0,0,0-.129-.566.51.51,0,0,0-.5-.246.753.753,0,0,0-.566.246,1.917,1.917,0,0,0-.388.659,5.251,5.251,0,0,0-.246.967A11.208,11.208,0,0,0,30.505-5Zm11.821,2.34a4.379,4.379,0,0,1-1.077-.135,2.557,2.557,0,0,1-.96-.468,2.491,2.491,0,0,1-.7-.887,3.16,3.16,0,0,1-.271-1.391,6.65,6.65,0,0,1,.049-.739,4.841,4.841,0,0,1,.191-.887,4.692,4.692,0,0,1,.394-.905,3.074,3.074,0,0,1,.659-.807,3.219,3.219,0,0,1,.985-.579,3.856,3.856,0,0,1,1.379-.222,3.456,3.456,0,0,1,1.084.148,1.924,1.924,0,0,1,.714.4,1.507,1.507,0,0,1,.394.585,2.04,2.04,0,0,1,.123.714,1.89,1.89,0,0,1-.228.96,2.116,2.116,0,0,1-.591.659,2.936,2.936,0,0,1-.807.413,6.544,6.544,0,0,1-.874.228,6.063,6.063,0,0,1-.794.1q-.363.018-.56.018a1.612,1.612,0,0,0,.068.462,1.188,1.188,0,0,0,.2.4,1.032,1.032,0,0,0,.357.283,1.2,1.2,0,0,0,.542.111.991.991,0,0,0,.5-.1,1.127,1.127,0,0,0,.289-.234q.111-.129.191-.234a.257.257,0,0,1,.215-.1,1.3,1.3,0,0,1,.215.031.962.962,0,0,1,.314.129.982.982,0,0,1,.283.271A.745.745,0,0,1,44.74-4a.915.915,0,0,1-.222.616,1.632,1.632,0,0,1-.573.419,3.167,3.167,0,0,1-.782.234A4.953,4.953,0,0,1,42.326-2.656Zm.234-5.381a.712.712,0,0,0-.462.154,1.3,1.3,0,0,0-.32.388,2.048,2.048,0,0,0-.2.517q-.068.283-.1.542A2.786,2.786,0,0,0,42.714-6.7a.765.765,0,0,0,.474-.7.7.7,0,0,0-.154-.443A.564.564,0,0,0,42.56-8.037Zm7.672,4.174q0-.271.043-.708t.086-.924q.043-.486.086-.942t.043-.763a1.078,1.078,0,0,0-.154-.573.643.643,0,0,0-.6-.252,1.169,1.169,0,0,0-.714.209,1.556,1.556,0,0,0-.474.763,7.953,7.953,0,0,0-.314,1.527q-.123.973-.234,2.5a.325.325,0,0,1-.062.2.31.31,0,0,1-.209.049h-.443a2.007,2.007,0,0,1-.622-.08.92.92,0,0,1-.382-.228.8.8,0,0,1-.2-.363,2.013,2.013,0,0,1-.055-.5q0-.185.018-.523t.068-.936q.049-.6.117-1.515T46.4-9.195a.621.621,0,0,1,.062-.32.322.322,0,0,1,.2-.037h.48a1.829,1.829,0,0,1,.61.086,1.078,1.078,0,0,1,.388.228.79.79,0,0,1,.209.332,1.58,1.58,0,0,1,.074.388,2.243,2.243,0,0,1,.874-.905,2.685,2.685,0,0,1,1.231-.252,3.242,3.242,0,0,1,.9.111,1.394,1.394,0,0,1,.634.376,1.641,1.641,0,0,1,.376.69,3.839,3.839,0,0,1,.123,1.053q0,.2-.025.566t-.062.807q-.037.437-.08.911l-.08.88q-.037.406-.062.714t-.025.406q0,.271-.062.326a.441.441,0,0,1-.271.055H51.5a2.285,2.285,0,0,1-.64-.074.892.892,0,0,1-.382-.209.746.746,0,0,1-.191-.339A1.758,1.758,0,0,1,50.232-3.863Zm5.677,1.207a2.478,2.478,0,0,1-.917-.172,1.977,1.977,0,0,1-.763-.542,2.693,2.693,0,0,1-.517-.936,4.306,4.306,0,0,1-.191-1.367,7.148,7.148,0,0,1,.049-.794,5.651,5.651,0,0,1,.172-.88,4.3,4.3,0,0,1,.345-.862,2.934,2.934,0,0,1,.56-.745,2.588,2.588,0,0,1,.813-.523,2.891,2.891,0,0,1,1.114-.2,1.983,1.983,0,0,1,.991.215,1.016,1.016,0,0,1,.474.745q.025-.48.049-.837t.043-.665q.018-.308.043-.616t.049-.7a.621.621,0,0,1,.062-.32.11.11,0,0,1,.062-.031.976.976,0,0,1,.135-.006h.48a1.885,1.885,0,0,1,.616.086,1.027,1.027,0,0,1,.394.234.838.838,0,0,1,.209.339,1.3,1.3,0,0,1,.062.4l-.025.308q-.025.308-.062.819t-.086,1.164q-.049.653-.1,1.348t-.1,1.379q-.049.683-.1,1.256t-.08.985q-.031.413-.043.548a.5.5,0,0,1-.062.2q-.037.049-.209.049h-.443a2.616,2.616,0,0,1-.486-.043,1.125,1.125,0,0,1-.394-.148.718.718,0,0,1-.259-.283,1,1,0,0,1-.092-.462,1.849,1.849,0,0,1-.671.763A2.01,2.01,0,0,1,55.909-2.656ZM56.98-8.037a.993.993,0,0,0-.93.548,3.057,3.057,0,0,0-.3,1.471,4.524,4.524,0,0,0,.043.628,2.031,2.031,0,0,0,.154.554,1.012,1.012,0,0,0,.3.394.771.771,0,0,0,.486.148,1.051,1.051,0,0,0,.887-.517,2.908,2.908,0,0,0,.357-1.625,4.712,4.712,0,0,0-.037-.6,1.584,1.584,0,0,0-.148-.511.929.929,0,0,0-.308-.357A.872.872,0,0,0,56.98-8.037Zm3.793,3.743a1.953,1.953,0,0,1,1-1.736,5.87,5.87,0,0,1,2.943-.677q.012-.135.018-.228t.006-.228a1.166,1.166,0,0,0-.148-.628.679.679,0,0,0-.616-.234,1.007,1.007,0,0,0-.419.074.673.673,0,0,0-.259.2,1.074,1.074,0,0,0-.16.314,4.1,4.1,0,0,0-.111.406.177.177,0,0,1-.111.142.87.87,0,0,1-.271.031q-1.256,0-1.256-.948a1.559,1.559,0,0,1,.179-.727,1.7,1.7,0,0,1,.53-.6,2.775,2.775,0,0,1,.88-.4,4.6,4.6,0,0,1,1.231-.148,2.874,2.874,0,0,1,1.983.566,2.066,2.066,0,0,1,.616,1.6q0,.135-.031.486t-.074.739q-.043.388-.074.733t-.031.48a.674.674,0,0,0,.111.437.585.585,0,0,0,.252.179,2.3,2.3,0,0,0,.252.074.12.12,0,0,1,.111.123,2.191,2.191,0,0,1-.074.554,1.569,1.569,0,0,1-.24.517,1.234,1.234,0,0,1-.456.382,1.544,1.544,0,0,1-.708.148,1.237,1.237,0,0,1-.887-.283,1.439,1.439,0,0,1-.394-.788,2.858,2.858,0,0,1-.77.751,2.172,2.172,0,0,1-1.238.32,2.715,2.715,0,0,1-.7-.086,1.473,1.473,0,0,1-.566-.283,1.384,1.384,0,0,1-.382-.511A1.834,1.834,0,0,1,60.773-4.294ZM64.6-5.7a3.969,3.969,0,0,0-.628.049,2.265,2.265,0,0,0-.548.154,1.056,1.056,0,0,0-.388.277.621.621,0,0,0-.148.419.426.426,0,0,0,.179.394.722.722,0,0,0,.388.111.976.976,0,0,0,.394-.086.981.981,0,0,0,.351-.265,1.673,1.673,0,0,0,.265-.437A1.892,1.892,0,0,0,64.6-5.7Zm6.576,1.4a1.781,1.781,0,0,0,.622-.1,2.547,2.547,0,0,0,.462-.222q.2-.123.332-.222a.433.433,0,0,1,.246-.1q.283,0,.283.369a1.1,1.1,0,0,1-.037.24,2.817,2.817,0,0,1-.1.32q-.062.166-.129.314a1.018,1.018,0,0,1-.129.222q-.062.062-.215.2A2.11,2.11,0,0,1,72.1-3a3.485,3.485,0,0,1-.6.24,2.621,2.621,0,0,1-.763.1,3.533,3.533,0,0,1-.967-.142,2.357,2.357,0,0,1-.905-.493,2.642,2.642,0,0,1-.671-.948,3.7,3.7,0,0,1-.265-1.5,7.14,7.14,0,0,1,.043-.733,4.426,4.426,0,0,1,.179-.85,4.877,4.877,0,0,1,.363-.862,2.679,2.679,0,0,1,.61-.757,3,3,0,0,1,.917-.536,3.594,3.594,0,0,1,1.274-.2,3.393,3.393,0,0,1,1.041.142,2.1,2.1,0,0,1,.72.382,1.553,1.553,0,0,1,.425.56,1.685,1.685,0,0,1,.142.69,1.144,1.144,0,0,1-.419.979,1.938,1.938,0,0,1-1.182.314.694.694,0,0,1-.252-.031q-.068-.031-.068-.142,0-.3-.012-.529A1.45,1.45,0,0,0,71.64-7.7a.516.516,0,0,0-.166-.246.513.513,0,0,0-.32-.086.79.79,0,0,0-.61.246,1.621,1.621,0,0,0-.345.6,3.078,3.078,0,0,0-.148.72q-.031.369-.031.616A2,2,0,0,0,70.3-4.639,1.063,1.063,0,0,0,71.178-4.294ZM75.6-2.779a2.007,2.007,0,0,1-.622-.08.92.92,0,0,1-.382-.228.8.8,0,0,1-.2-.363,2.012,2.012,0,0,1-.055-.5q0-.185.018-.523t.068-.936q.049-.6.117-1.515t.166-2.272a.621.621,0,0,1,.062-.32.322.322,0,0,1,.2-.037h.48a2.164,2.164,0,0,1,.622.074.871.871,0,0,1,.382.222.8.8,0,0,1,.2.357,1.829,1.829,0,0,1,.055.468q0,.185-.025.554t-.068,1Q76.572-6.24,76.5-5.3t-.185,2.272a.325.325,0,0,1-.062.2.31.31,0,0,1-.209.049Zm-.874-8.226a.936.936,0,0,1,.357-.776,1.5,1.5,0,0,1,.96-.283,1.134,1.134,0,0,1,.77.215.732.732,0,0,1,.24.573.972.972,0,0,1-.339.757,1.446,1.446,0,0,1-.991.3Q74.725-10.217,74.725-11.005Zm5.825,8.349a3.6,3.6,0,0,1-1.41-.24,2.239,2.239,0,0,1-.893-.659,2.494,2.494,0,0,1-.468-.979,5.1,5.1,0,0,1-.135-1.2,5.894,5.894,0,0,1,.179-1.447,3.375,3.375,0,0,1,.61-1.262,3.115,3.115,0,0,1,1.139-.893,4.086,4.086,0,0,1,1.767-.339,2.84,2.84,0,0,1,2.223.757,3.1,3.1,0,0,1,.671,2.124,7.128,7.128,0,0,1-.055.843,4.556,4.556,0,0,1-.209.917,4.354,4.354,0,0,1-.419.887,3.035,3.035,0,0,1-.671.763,3.145,3.145,0,0,1-.979.529A4.151,4.151,0,0,1,80.549-2.656Zm.579-5.381a1.1,1.1,0,0,0-.745.24,1.544,1.544,0,0,0-.419.579,2.613,2.613,0,0,0-.185.714,5.714,5.714,0,0,0-.043.634,2.167,2.167,0,0,0,.259,1.194.839.839,0,0,0,.739.382.971.971,0,0,0,.708-.271,1.887,1.887,0,0,0,.431-.653,3.283,3.283,0,0,0,.209-.8,5.511,5.511,0,0,0,.055-.7,1.763,1.763,0,0,0-.228-.967A.86.86,0,0,0,81.128-8.037Zm8.226,4.174q0-.271.043-.708t.086-.924q.043-.486.086-.942t.043-.763a1.078,1.078,0,0,0-.154-.573.643.643,0,0,0-.6-.252,1.169,1.169,0,0,0-.714.209,1.556,1.556,0,0,0-.474.763,7.953,7.953,0,0,0-.314,1.527q-.123.973-.234,2.5a.325.325,0,0,1-.062.2.31.31,0,0,1-.209.049h-.443a2.007,2.007,0,0,1-.622-.08.92.92,0,0,1-.382-.228.8.8,0,0,1-.2-.363,2.013,2.013,0,0,1-.055-.5q0-.185.018-.523t.068-.936q.049-.6.117-1.515t.166-2.272a.621.621,0,0,1,.062-.32.322.322,0,0,1,.2-.037h.48a1.828,1.828,0,0,1,.61.086,1.078,1.078,0,0,1,.388.228.791.791,0,0,1,.209.332,1.58,1.58,0,0,1,.074.388,2.243,2.243,0,0,1,.874-.905,2.685,2.685,0,0,1,1.231-.252,3.242,3.242,0,0,1,.9.111,1.394,1.394,0,0,1,.634.376,1.641,1.641,0,0,1,.376.69,3.839,3.839,0,0,1,.123,1.053q0,.2-.025.566t-.062.807q-.037.437-.08.911l-.08.88q-.037.406-.062.714t-.025.406q0,.271-.062.326a.441.441,0,0,1-.271.055h-.394a2.285,2.285,0,0,1-.64-.074.892.892,0,0,1-.382-.209.746.746,0,0,1-.191-.339A1.758,1.758,0,0,1,89.354-3.863Zm6.268,1.207a4.379,4.379,0,0,1-1.077-.135,2.557,2.557,0,0,1-.96-.468,2.491,2.491,0,0,1-.7-.887,3.16,3.16,0,0,1-.271-1.391,6.65,6.65,0,0,1,.049-.739,4.84,4.84,0,0,1,.191-.887,4.693,4.693,0,0,1,.394-.905,3.075,3.075,0,0,1,.659-.807,3.219,3.219,0,0,1,.985-.579,3.856,3.856,0,0,1,1.379-.222,3.456,3.456,0,0,1,1.084.148,1.924,1.924,0,0,1,.714.4,1.508,1.508,0,0,1,.394.585,2.04,2.04,0,0,1,.123.714,1.89,1.89,0,0,1-.228.96,2.116,2.116,0,0,1-.591.659,2.936,2.936,0,0,1-.807.413,6.544,6.544,0,0,1-.874.228,6.063,6.063,0,0,1-.794.1q-.363.018-.56.018a1.612,1.612,0,0,0,.068.462,1.189,1.189,0,0,0,.2.4,1.032,1.032,0,0,0,.357.283A1.2,1.2,0,0,0,95.9-4.2a.991.991,0,0,0,.5-.1,1.127,1.127,0,0,0,.289-.234q.111-.129.191-.234a.257.257,0,0,1,.215-.1,1.3,1.3,0,0,1,.215.031.962.962,0,0,1,.314.129.982.982,0,0,1,.283.271A.745.745,0,0,1,98.035-4a.915.915,0,0,1-.222.616,1.632,1.632,0,0,1-.573.419,3.167,3.167,0,0,1-.782.234A4.953,4.953,0,0,1,95.621-2.656Zm.234-5.381a.712.712,0,0,0-.462.154,1.3,1.3,0,0,0-.32.388,2.048,2.048,0,0,0-.2.517q-.068.283-.1.542A2.786,2.786,0,0,0,96.009-6.7a.765.765,0,0,0,.474-.7.7.7,0,0,0-.154-.443A.564.564,0,0,0,95.855-8.037ZM102.2-9.675a2.371,2.371,0,0,1,1.539.413,1.313,1.313,0,0,1,.493,1.053,1.015,1.015,0,0,1-.339.825,1.489,1.489,0,0,1-.979.283.5.5,0,0,1-.234-.037.145.145,0,0,1-.062-.135,1.976,1.976,0,0,0-.018-.252.8.8,0,0,0-.086-.271.553.553,0,0,0-.209-.215.773.773,0,0,0-.4-.086.865.865,0,0,0-.554.166.508.508,0,0,0-.209.413.482.482,0,0,0,.215.413,2.748,2.748,0,0,0,.542.289q.326.135.708.277a3,3,0,0,1,.708.376,2,2,0,0,1,.542.585,1.708,1.708,0,0,1,.215.905,1.869,1.869,0,0,1-.628,1.453,2.735,2.735,0,0,1-1.884.566,6.58,6.58,0,0,1-.794-.055,5.541,5.541,0,0,1-.856-.172,2.241,2.241,0,0,1-.683-.314.586.586,0,0,1-.277-.493,1.074,1.074,0,0,1,.043-.271,1.137,1.137,0,0,1,.135-.308,1.011,1.011,0,0,1,.222-.252.483.483,0,0,1,.314-.1.517.517,0,0,1,.271.074q.123.074.289.154a2.857,2.857,0,0,0,.413.154,2.34,2.34,0,0,0,.653.074,1.863,1.863,0,0,0,.548-.074.316.316,0,0,0,.24-.332.441.441,0,0,0-.2-.376,2.433,2.433,0,0,0-.5-.265l-.653-.265a2.723,2.723,0,0,1-.653-.376,1.874,1.874,0,0,1-.5-.6,1.969,1.969,0,0,1-.2-.942,2.1,2.1,0,0,1,.252-1.065,2.122,2.122,0,0,1,.653-.708,2.676,2.676,0,0,1,.905-.388A4.46,4.46,0,0,1,102.2-9.675Z" transform="translate(7.221 23.446)" fill="#12263f"/>
      </g>
      <path id="Polígono_1" data-name="Polígono 1" d="M6.5,0,13,19.012H0Z" transform="translate(0 22.5) rotate(-90)" fill="#f9a545"/>
    </g>
    <g id="Grupo_1099981" data-name="Grupo 1099981" transform="translate(1020 4761)">
      <g id="Grupo_1099976" data-name="Grupo 1099976">
        <g id="Grupo_1099975" data-name="Grupo 1099975" clip-path="url(#clip-path-4)">
          <path id="Trazado_875392" data-name="Trazado 875392" d="M145.652,404.094s-31.735,96.65-36.491,128.662c0,0,54.343,12.311,83.277,14.774,0,0,19.2-72.91,27.206-98.457,0,0,1.229,7.348,16.253,104.614,0,0,34.523-7.425,79.467-26.8,0,0-6.979-110.449-22.23-157.587s-113.346-39.943-147.483,34.792" transform="translate(-19.878 -13.5)" fill="#f9e1ba"/>
          <path id="Trazado_875393" data-name="Trazado 875393" d="M141.729,366.674s10.852,44.679,17.641,62.669c0,0,32.277-1.194,49.914-4.84l-37.542-67.176Z" transform="translate(54.929 -14.203)" fill="#f2ce99"/>
          <path id="Trazado_875394" data-name="Trazado 875394" d="M321.321,412.25,293.008,542.513l-33.983-7.089s19.928-87.693,36.491-128.661Z" transform="translate(-169.742 -16.168)" fill="#f2ce99"/>
          <path id="Trazado_875395" data-name="Trazado 875395" d="M241.352,450.813l-32.508,99.934,10.818,1.2,27.206-98.457Z" transform="translate(-47.102 -17.919)" fill="#f2ce99"/>
          <path id="Trazado_875396" data-name="Trazado 875396" d="M180.825,461.277l25.738,94.592-10.653,2.653Z" transform="translate(20.109 -18.335)" fill="#f2ce99"/>
          <line id="Línea_625" data-name="Línea 625" x1="21.388" y1="10.389" transform="translate(178.378 425.184)" fill="none" stroke="#56357c" stroke-linecap="round" stroke-linejoin="round" stroke-width="0.75"/>
          <path id="Trazado_875397" data-name="Trazado 875397" d="M176.4,538.173S152.69,399.7,138.23,344.11" transform="translate(91.172 -13.678)" fill="none" stroke="#56357c" stroke-linecap="round" stroke-linejoin="round" stroke-width="0.75"/>
          <path id="Trazado_875398" data-name="Trazado 875398" d="M309.985,375.642s-20.358,71.132-44.8,161.072" transform="translate(-164.318 -14.931)" fill="none" stroke="#56357c" stroke-linecap="round" stroke-linejoin="round" stroke-width="0.75"/>
          <line id="Línea_626" data-name="Línea 626" x2="4.554" y2="29.212" transform="translate(201.43 446.14)" fill="none" stroke="#56357c" stroke-linecap="round" stroke-linejoin="round" stroke-width="0.75"/>
          <path id="Trazado_875399" data-name="Trazado 875399" d="M216.968,458.995l-8.125-10.365,9.831,4.775Z" transform="translate(-18.909 -17.833)" fill="#56357c"/>
          <path id="Trazado_875400" data-name="Trazado 875400" d="M238.649,153.394s-18.317,18.775-50.236,7.122c0,0-45.431,15.328-44.042,38.488s17.687,176.289,17.687,176.289,66.372-37.656,135.963-51.515c0,0-18.133-110.921-59.371-170.384" transform="translate(-36.313 -6.097)" fill="#eeeff0"/>
          <path id="Trazado_875401" data-name="Trazado 875401" d="M198.888,159.531s5.7,27.128-15.08,52.707L196.5,341.281l31.421-4.937S217.605,149.411,211.558,148.75c0,0-8.83,8.486-12.671,10.781" transform="translate(-4.113 -5.913)" fill="#d3dbe2"/>
          <path id="Trazado_875402" data-name="Trazado 875402" d="M139.47,391.412l-1.24-9.067s68.111-45.169,135.962-51.515a73.089,73.089,0,0,1,5.867,13.419s-106.9,30.094-140.589,47.163" transform="translate(-12.486 -13.15)" fill="#56357c"/>
          <path id="Trazado_875403" data-name="Trazado 875403" d="M271.625,43.705c1.139,5.065,2.389,11.535,2.389,11.535s7.487-5.544,12.376,9.043c5.2,15.505-5.463,17.388-5.463,17.388s2.428,8.418.3,14.495c-2.644,7.563-10.372,12.088-10.372,12.088l4.848,26.468,2.484,13.561s-9.025,10.223-22.883,12.629c-13.964,1.681-27.354-5.507-27.354-5.507l-1.645-15.5-2.625-24.723s-8.7-2.111-13.41-8.593c-3.783-5.21-3.879-13.97-3.879-13.97s-10.75,1.263-10.233-15.082c.486-15.377,9.251-12.221,9.251-12.221s-.663-6.557-1.029-11.735c0,0-1.052-23.562,30.225-28.156s37.017,18.277,37.017,18.277" transform="translate(-75.855 -0.986)" fill="#ffb580"/>
          <path id="Trazado_875404" data-name="Trazado 875404" d="M290.02,25.453c-31.278,4.6-30.225,28.157-30.225,28.157.366,5.179,1.029,11.734,1.029,11.734s-8.765-3.156-9.251,12.221c-.518,16.344,10.233,15.082,10.233,15.082s.1,8.76,3.879,13.97c4.706,6.483,13.41,8.594,13.41,8.594l2.624,24.723,1.646,15.5A48.054,48.054,0,0,0,289,157.863l-3.176-41.119s-17.686-9.457-18.451-26.871c0,0-2.3-25.067-2.3-31.765s2.814-25.891,24.943-32.655" transform="translate(-131.267 -1.012)" fill="#f0a975"/>
          <path id="Trazado_875405" data-name="Trazado 875405" d="M257.649,113.531s-19.05,11.727-40.668,5.976c0,0,5.771,10.469,21.961,8.089s18.707-14.065,18.707-14.065" transform="translate(-65.696 -4.513)" fill="#56357c"/>
          <path id="Trazado_875406" data-name="Trazado 875406" d="M284.318,86.853s-3.024-1.454-2.482-3.942,2.721-2.072,2.428-4.626" transform="translate(-154.581 -3.112)" fill="none" stroke="#56357c" stroke-linecap="round" stroke-linejoin="round" stroke-width="0.75"/>
          <path id="Trazado_875407" data-name="Trazado 875407" d="M288.138,71.8s-4.9-1.444-4.593,7.347" transform="translate(-160.09 -2.851)" fill="none" stroke="#56357c" stroke-linecap="round" stroke-linejoin="round" stroke-width="0.75"/>
          <path id="Trazado_875408" data-name="Trazado 875408" d="M205.094,76.212s2.477-2.262,1.244-4.489-3.2-1.2-3.657-3.733" transform="translate(-0.999 -2.703)" fill="none" stroke="#56357c" stroke-linecap="round" stroke-linejoin="round" stroke-width="0.75"/>
          <path id="Trazado_875409" data-name="Trazado 875409" d="M200.847,60.637s4.277-2.792,6.512,5.716" transform="translate(0.085 -2.393)" fill="none" stroke="#56357c" stroke-linecap="round" stroke-linejoin="round" stroke-width="0.75"/>
          <path id="Trazado_875410" data-name="Trazado 875410" d="M233.451,83.178s4.76,2.5,1.158,5.951" transform="translate(-59.819 -3.306)" fill="none" stroke="#56357c" stroke-linecap="round" stroke-linejoin="round" stroke-width="0.75"/>
          <path id="Trazado_875411" data-name="Trazado 875411" d="M250.187,90.885c-4.442-2.266-.6-6.032-.6-6.032s2.579-2.283,1.249-8.108" transform="translate(-89.09 -3.051)" fill="none" stroke="#56357c" stroke-linecap="round" stroke-linejoin="round" stroke-width="0.75"/>
          <path id="Trazado_875412" data-name="Trazado 875412" d="M240.451,88.834s-1.2-1.162-2.566.465" transform="translate(-68.572 -3.515)" fill="none" stroke="#56357c" stroke-linecap="round" stroke-linejoin="round" stroke-width="0.75"/>
          <path id="Trazado_875413" data-name="Trazado 875413" d="M246.357,89.7s-1.2-1.162-2.566.465" transform="translate(-80.149 -3.55)" fill="none" stroke="#56357c" stroke-linecap="round" stroke-linejoin="round" stroke-width="0.75"/>
          <path id="Trazado_875414" data-name="Trazado 875414" d="M273.749,79.434a11.147,11.147,0,0,0-5.02-5.379,11.8,11.8,0,0,0-7.685-1.169,16.563,16.563,0,0,0-3.631,1.136,13.291,13.291,0,0,0-3.231,2.061,9.436,9.436,0,0,0-3.482,6.581.368.368,0,0,0,.647.251l.046-.055a16.278,16.278,0,0,1,4.842-3.885,20.751,20.751,0,0,1,2.717-1.185c.93-.308,1.943-.6,2.866-.812a12.1,12.1,0,0,1,5.64.162,19.065,19.065,0,0,1,5.709,2.719l.037.024a.369.369,0,0,0,.512-.1.376.376,0,0,0,.034-.35" transform="translate(-114.203 -2.889)" fill="#56357c"/>
          <path id="Trazado_875415" data-name="Trazado 875415" d="M235.674,73.747a19.733,19.733,0,0,0,2.241-4.841s-15.41-12.864-24.339,5.223a16.943,16.943,0,0,0,6.62,4.659,49.991,49.991,0,0,1,15.477-5.041" transform="translate(-42.695 -2.563)" fill="#fff"/>
        </g>
      </g>
      <g id="Grupo_1099978" data-name="Grupo 1099978" transform="translate(170.882 61.911)">
        <g id="Grupo_1099977" data-name="Grupo 1099977" transform="translate(0)" clip-path="url(#clip-path-5)">
          <path id="Trazado_875416" data-name="Trazado 875416" d="M233.635,71.3a7.931,7.931,0,1,1-8.982-6.717,7.932,7.932,0,0,1,8.982,6.717" transform="translate(-213.485 -64.475)" fill="#56357c"/>
        </g>
      </g>
      <g id="Grupo_1099980" data-name="Grupo 1099980">
        <g id="Grupo_1099982" data-name="Grupo 1099982">
          <path id="Trazado_875418" data-name="Trazado 875418" d="M213.944,74.042A24.055,24.055,0,0,1,218.4,67.9a11.075,11.075,0,0,1,5.892-3.038,14.66,14.66,0,0,1,6.815.425,19.905,19.905,0,0,1,6.515,3.649l.035.029a.367.367,0,0,0,.578-.407,12.069,12.069,0,0,0-5.727-6.5,13.554,13.554,0,0,0-8.964-1.3,11.958,11.958,0,0,0-4.389,1.75,12.547,12.547,0,0,0-3.32,3.21,14.168,14.168,0,0,0-2.6,8.179.367.367,0,0,0,.689.172Z" transform="translate(-42.708 -2.405)" fill="#56357c"/>
          <path id="Trazado_875419" data-name="Trazado 875419" d="M254.5,91.987s-13.779,2.792-27.36,4.131c0,0,5.537,11.582,15.513,10.076,10.591-1.6,11.848-14.207,11.848-14.207" transform="translate(-72.299 -3.656)" fill="#56357c"/>
          <path id="Trazado_875420" data-name="Trazado 875420" d="M248.9,100.352s-7.622-.556-9.7,2.355c0,0-2.676-1.917-9.156.883,0,0,3.093,3.744,9.8,2.934a11.819,11.819,0,0,0,9.048-6.172" transform="translate(-69.503 -3.987)" fill="#d36e92"/>
          <path id="Trazado_875421" data-name="Trazado 875421" d="M254.5,91.987s-12.484,9.97-27.36,4.131c0,0,13.719-2.359,27.36-4.131" transform="translate(-72.299 -3.656)" fill="#eeeff0"/>
          <path id="Trazado_875422" data-name="Trazado 875422" d="M261.287,61.191a2.716,2.716,0,0,1-3.1-4.211,16.92,16.92,0,0,1,9.745-6.518c10.444-2.472,6.172,6.191-.578,8.523-2.174.752-4.252,1.515-6.07,2.206" transform="translate(-121.286 -1.988)" fill="#56357c"/>
          <path id="Trazado_875423" data-name="Trazado 875423" d="M237.124,51.973a2.715,2.715,0,0,0,.729-5.176,16.928,16.928,0,0,0-11.671-1.116c-10.366,2.779-2.5,8.377,4.553,7.23,2.27-.37,4.461-.684,6.389-.938" transform="translate(-51.552 -1.793)" fill="#56357c"/>
          <path id="Trazado_875424" data-name="Trazado 875424" d="M267.983,67.684s-4.159-1.218-7.057,1.19" transform="translate(-118.229 -2.678)" fill="none" stroke="#56357c" stroke-linecap="round" stroke-linejoin="round" stroke-width="1"/>
          <path id="Trazado_875425" data-name="Trazado 875425" d="M293.042,53.264s-4.22-.268-3.3,3.6c1.366,5.71-1.176,2.97-3.137,2.53s-2.745-1.223-4.445-9.982S271.327,28.944,265.7,31.2s-5.816,9.141-2.082,9.671c0,0-15.606,2.747-12.957-9.953,0,0-2.518,12.572-17.148,10.164,0,0-.434,9.634-9.441,13.538,0,0,.3,6.455.9,12.911,0,0,.305,1.872-2.6,1.872s-1.32-1.82-3.1-5.292c0,0-4.653-7.409-7.049-10.393,0,0-6.487.535-8.883-7.291S204.719,34.6,204.719,34.6s-4.579-6.665,3.257-13.112c5.6-4.606,12.573-1.742,12.573-1.742s-.815-9.265,3.337-10.382c0,0,1.437,5.909,4.952,6.229,0,0,4.574-17.018,20.584-15.494,13.269,1.263,16.26,11.086,16.26,11.086s3.919-1.289,1.267-7.225c0,0,5.175,3.646,5.175,8.438a8.7,8.7,0,0,1,5.431-2.4s-1.437,1.6-.8,4.792c0,0,17.208-5.858,19.643,13.233,0,0,1.831,12.5-4.916,13.952Z" transform="translate(-90.811 0)" fill="#56357c"/>
          <path id="Trazado_875426" data-name="Trazado 875426" d="M290.429,84.536A3.643,3.643,0,0,0,289.3,85.76c-.784,1.357-.631,2.912.341,3.474s2.395-.085,3.179-1.442.631-2.913-.341-3.474" transform="translate(-170.333 -3.352)" fill="none" stroke="#56357c" stroke-linecap="round" stroke-linejoin="round" stroke-width="0.75"/>
          <path id="Trazado_875427" data-name="Trazado 875427" d="M283.289,89.894a1.639,1.639,0,1,0,1.639-1.639,1.639,1.639,0,0,0-1.639,1.639" transform="translate(-158.287 -3.508)" fill="#56357c"/>
          <path id="Trazado_875428" data-name="Trazado 875428" d="M204.5,80.546a34.087,34.087,0,0,1-6.361-2.172l1.387,5.426a7.472,7.472,0,0,0,4.974-3.254" transform="translate(5.544 -3.115)" fill="#f0a975"/>
          <path id="Trazado_875429" data-name="Trazado 875429" d="M381.284,178.339l-3.938,30.64s-26.538-1.207-30.64-13.028-9.437-9.819,13.5-41.46Z" transform="translate(-310.41 -6.141)" fill="#fdb580"/>
          <path id="Trazado_875430" data-name="Trazado 875430" d="M381.447,209.146s-26.538-1.206-30.64-13.028c-3.918-11.294-8.964-9.969,10.6-37.426,0,0-3.546,32.3,20.043,50.453" transform="translate(-314.511 -6.308)" fill="#f0a975"/>
          <path id="Trazado_875431" data-name="Trazado 875431" d="M323.465,152.509s4.114,17.825,11.752,24.484,18.021,3.33,15.474-14.691c0,0,13.039,1.864,8.628-8.234,0,0,7.157-3.333,2.451-11.666,0,0,4.02-3.432-2.255-8.922,0,0,3.628-6.372-5.294-8.725,0,0-7.646-.98-13.725-1.765a14.32,14.32,0,0,1-3.235-6.471c-.491-3.431-2.158-13.529-9.608-11.666s-3.039,5.98-1.078,13.922a29.956,29.956,0,0,1,0,4.607c-.2,2.549.98,8.145.98,8.145a126.972,126.972,0,0,0-4.091,20.981" transform="translate(-273.672 -4.159)" fill="#fdb580"/>
          <path id="Trazado_875432" data-name="Trazado 875432" d="M360.35,124.008s-10.845.006-12.94,8.537" transform="translate(-293.643 -4.929)" fill="none" stroke="#56357c" stroke-linecap="round" stroke-linejoin="round" stroke-width="0.75"/>
          <path id="Trazado_875433" data-name="Trazado 875433" d="M345.914,134.873s-3.869-2.579-18.311-.828" transform="translate(-260.187 -5.304)" fill="none" stroke="#56357c" stroke-linecap="round" stroke-linejoin="round" stroke-width="0.75"/>
          <path id="Trazado_875434" data-name="Trazado 875434" d="M325.255,142.491s17.337-2.056,20.566,1.639" transform="translate(-257.839 -5.641)" fill="none" stroke="#56357c" stroke-linecap="round" stroke-linejoin="round" stroke-width="0.75"/>
          <path id="Trazado_875435" data-name="Trazado 875435" d="M342.082,156.214s-2.963-3.809-14.274-3.809" transform="translate(-256.552 -6.058)" fill="none" stroke="#56357c" stroke-linecap="round" stroke-linejoin="round" stroke-width="0.75"/>
          <path id="Trazado_875436" data-name="Trazado 875436" d="M63.772,144.591l14.207,27.431s24.514-10.233,24.314-22.745,5.5-12.459-26.9-34.317Z" transform="translate(236.511 -4.57)" fill="#fdb580"/>
          <path id="Trazado_875437" data-name="Trazado 875437" d="M133.9,113.164s2.249,18.154-2.644,27.03-15.786,9.308-19.574-8.493c0,0-11.609,6.222-10.929-4.776,0,0-7.865-.677-6.3-10.118,0,0-4.952-1.845-.941-9.154,0,0-5.592-4.742,1.981-10.012,0,0,6.847-3.543,12.287-6.365a14.322,14.322,0,0,0,.82-7.187c-.716-3.391-2.613-13.448,5.024-14.253s4.906,4.575,5.787,12.707a29.889,29.889,0,0,0,1.58,4.328c1.059,2.328,1.872,7.986,1.872,7.986A127,127,0,0,1,133.9,113.164" transform="translate(178.007 -2.773)" fill="#fdb580"/>
          <path id="Trazado_875438" data-name="Trazado 875438" d="M103.353,92.327s10.189-3.714,15.084,3.581" transform="translate(182.627 -3.632)" fill="none" stroke="#56357c" stroke-linecap="round" stroke-linejoin="round" stroke-width="0.75"/>
          <path id="Trazado_875439" data-name="Trazado 875439" d="M116.3,109.128s2.75-3.75,16.917-7.057" transform="translate(155.409 -4.057)" fill="none" stroke="#56357c" stroke-linecap="round" stroke-linejoin="round" stroke-width="0.75"/>
          <path id="Trazado_875440" data-name="Trazado 875440" d="M132.164,110s-16.992,4.015-18.757,8.593" transform="translate(159.246 -4.373)" fill="none" stroke="#56357c" stroke-linecap="round" stroke-linejoin="round" stroke-width="0.75"/>
          <path id="Trazado_875441" data-name="Trazado 875441" d="M113.773,129.139s1.478-4.595,12.1-8.473" transform="translate(165.183 -4.796)" fill="none" stroke="#56357c" stroke-linecap="round" stroke-linejoin="round" stroke-width="0.75"/>
          <path id="Trazado_875442" data-name="Trazado 875442" d="M114.045,151.642l-13.968-4.9S92.31,145.1,86.216,134.265c0,0,2.4,15.58,12.347,14.483l8.405,16.228Z" transform="translate(203.474 -5.337)" fill="#f0a975"/>
          <path id="Trazado_875443" data-name="Trazado 875443" d="M0,210.852c0,49.907,44.149,203.466,44.149,203.466,50.866,4.8,93.694-7.688,93.694-7.688-16.8-63.171-46.37-148.035-46.37-148.035,86.961,15.8,114.936,11.131,119.424-30.385s-70.1-99.679-70.1-99.679c-1.85,16.65-19.455,22.065-25.581,23.452a1.36,1.36,0,0,0-.8,2.126,106.071,106.071,0,0,1,9.739,17.509S83.2,146.144,65.178,146.144c-9.01,0-21.126,1.4-30.989,2.8-1.407.2-5.65-25.491-25.773-22.289l4.7,25.669c3.461,8.589,7.275,29.687-13.118,58.532" transform="translate(189.217 -5.023)" fill="#7d8af5"/>
          <path id="Trazado_875444" data-name="Trazado 875444" d="M45.68,262.05c40.4,7.339,68.065,10.261,86.562,7.125,0,0-60.614-24.168-97.816-55.881,0,0,4.171,28,11.254,48.756" transform="translate(235.009 -8.478)" fill="#5669d8"/>
          <path id="Trazado_875445" data-name="Trazado 875445" d="M205.372,195.625s-2.946,24.013-18.211,31.152l-1.008-5.713s10.979-7.435,19.219-25.439" transform="translate(16.182 -7.776)" fill="#5669d8"/>
          <path id="Trazado_875446" data-name="Trazado 875446" d="M176.553,149.874s14.569,39.6-21.071,69.37c0,0,16.4,97.964,48.671,185.727" transform="translate(46.853 -5.957)" fill="none" stroke="#56357c" stroke-linecap="round" stroke-linejoin="round" stroke-width="0.75"/>
          <line id="Línea_627" data-name="Línea 627" x1="11.349" y1="32.795" transform="translate(276.425 241.536)" fill="none" stroke="#56357c" stroke-linecap="round" stroke-linejoin="round" stroke-width="0.75"/>
          <path id="Trazado_875447" data-name="Trazado 875447" d="M109.7,263.61l18.051,3.116-21.977-14.173Z" transform="translate(170.991 -10.039)" fill="#56357c"/>
          <path id="Trazado_875448" data-name="Trazado 875448" d="M100.938,172.954l12.294,26.85-35.5-39.826Z" transform="translate(212.433 -6.359)" fill="#5669d8"/>
          <path id="Trazado_875449" data-name="Trazado 875449" d="M73.206,164.3S85.88,187.326,94.2,211.716" transform="translate(235.816 -6.531)" fill="none" stroke="#56357c" stroke-linecap="round" stroke-linejoin="round" stroke-width="0.75"/>
          <path id="Trazado_875450" data-name="Trazado 875450" d="M88.169,140.559s-2.525,19.507-29.053,32.481" transform="translate(255.373 -5.587)" fill="none" stroke="#56357c" stroke-linecap="round" stroke-linejoin="round" stroke-width="0.75"/>
          <path id="Trazado_875451" data-name="Trazado 875451" d="M264.171,175.317a1.864,1.864,0,0,0-3.125.1c-59.4,98.956-26.564,125.351,5.541,127.541,32.373,2.208,55.079-21.676,55.079-21.676,4.414,59.6,6.622,116.985,6.622,116.985a276.956,276.956,0,0,0,80.932,17.493l-1.593-204.068c-30.551-21-28.409-46.962-27.595-51.905l-2.639-24.85c-14.716,4.133-15.687,22.892-15.687,22.892s-19.44,2.79-32.683,15.3-32.271,37.126-32.271,37.126a85.82,85.82,0,0,0,1.149-11.681,1.852,1.852,0,0,0-1.84-1.867c-4.805-.056-18.4-2.088-31.891-21.384" transform="translate(-227.933 -5.363)" fill="#7d8af5"/>
          <path id="Trazado_875452" data-name="Trazado 875452" d="M413,284.4s-22.706,23.882-55.079,21.675c-10.117-.689-20.305-3.782-27.658-10.792,0,0-26.893-20.384,3.437-81.747,0,0-18.068,69.044,48.937,67.152,19.605-.941,28.891-6.97,28.891-6.97Z" transform="translate(-319.266 -8.488)" fill="#5669d8"/>
          <line id="Línea_628" data-name="Línea 628" x1="3.581" y1="29.203" transform="translate(90.6 252.859)" fill="none" stroke="#56357c" stroke-linecap="round" stroke-linejoin="round" stroke-width="0.75"/>
          <ellipse id="Elipse_11583" data-name="Elipse 11583" cx="2.956" cy="2.956" rx="2.956" ry="2.956" transform="translate(156.134 273.232) rotate(-157.5)" fill="none" stroke="#56357c" stroke-linecap="round" stroke-linejoin="round" stroke-width="0.75"/>
          <ellipse id="Elipse_11584" data-name="Elipse 11584" cx="2.956" cy="2.956" rx="2.956" ry="2.956" transform="translate(153.178 297.763) rotate(-157.5)" fill="none" stroke="#56357c" stroke-linecap="round" stroke-linejoin="round" stroke-width="0.75"/>
          <path id="Trazado_875453" data-name="Trazado 875453" d="M259.025,330.709a2.956,2.956,0,1,0,2.956-2.956A2.956,2.956,0,0,0,259.025,330.709Z" transform="translate(-113.358 -13.028)" fill="none" stroke="#56357c" stroke-linecap="round" stroke-linejoin="round" stroke-width="0.75"/>
          <path id="Trazado_875454" data-name="Trazado 875454" d="M327.546,270.292l-8.435,25.1,10.9-7.958Z" transform="translate(-236.126 -10.744)" fill="#56357c"/>
          <path id="Trazado_875455" data-name="Trazado 875455" d="M325.725,212.282l21.781-26.2-24.978,52.737Z" transform="translate(-256.906 -7.396)" fill="#5669d8"/>
          <path id="Trazado_875456" data-name="Trazado 875456" d="M350.044,205.655s-3.754,31.876-5.8,46.78" transform="translate(-280.297 -8.175)" fill="none" stroke="#56357c" stroke-linecap="round" stroke-linejoin="round" stroke-width="0.75"/>
          <path id="Trazado_875457" data-name="Trazado 875457" d="M388.259,212.451s-26.216,9.651-43.048-22.134" transform="translate(-319.44 -7.565)" fill="none" stroke="#56357c" stroke-linecap="round" stroke-linejoin="round" stroke-width="0.75"/>
          <path id="Trazado_875458" data-name="Trazado 875458" d="M241.052,159.262l2.6-.49s1.252,47.457,35.61,63.386l-2.187,50.567-2.744-47.481s-38.977-13.342-33.277-65.983" transform="translate(-109.876 -6.311)" fill="#5669d8"/>
          <path id="Trazado_875459" data-name="Trazado 875459" d="M240.483,158.773s2.5,50.061,35.611,63.386c0,0-5.059,119.281-8.2,180.233" transform="translate(-106.71 -6.311)" fill="none" stroke="#56357c" stroke-linecap="round" stroke-linejoin="round" stroke-width="0.75"/>
          <path id="Trazado_875460" data-name="Trazado 875460" d="M372.2,98.815A17.179,17.179,0,0,0,363.02,88.1" transform="translate(-320.487 -3.502)" fill="none" stroke="#56357c" stroke-linecap="round" stroke-linejoin="round" stroke-width="0.75"/>
          <path id="Trazado_875461" data-name="Trazado 875461" d="M380.377,105.838s-2.473-2-7.3-2.118" transform="translate(-338.315 -4.123)" fill="none" stroke="#56357c" stroke-linecap="round" stroke-linejoin="round" stroke-width="0.75"/>
          <path id="Trazado_875462" data-name="Trazado 875462" d="M350.2,98.213s2.237-5.182,1.413-8.6" transform="translate(-287.766 -3.562)" fill="none" stroke="#56357c" stroke-linecap="round" stroke-linejoin="round" stroke-width="0.75"/>
          <path id="Trazado_875463" data-name="Trazado 875463" d="M358.287,89.565a1.248,1.248,0,1,0,1.249-1.248A1.249,1.249,0,0,0,358.287,89.565Z" transform="translate(-304.521 -3.511)" fill="none" stroke="#56357c" stroke-linecap="round" stroke-linejoin="round" stroke-width="0.75"/>
          <path id="Trazado_875464" data-name="Trazado 875464" d="M354.854,98.238a.942.942,0,1,0,.943-.943.942.942,0,0,0-.943.943" transform="translate(-297.179 -3.867)" fill="#56357c"/>
          <path id="Trazado_875465" data-name="Trazado 875465" d="M372.094,92.659a.943.943,0,1,0,.943-.943.943.943,0,0,0-.943.943" transform="translate(-330.974 -3.646)" fill="#56357c"/>
          <path id="Trazado_875466" data-name="Trazado 875466" d="M370.746,99.524a1.248,1.248,0,1,0,1.248-1.248A1.248,1.248,0,0,0,370.746,99.524Z" transform="translate(-328.942 -3.906)" fill="none" stroke="#56357c" stroke-linecap="round" stroke-linejoin="round" stroke-width="0.75"/>
          <path id="Trazado_875467" data-name="Trazado 875467" d="M361.3,107.783s-2.782-5-7.81-2.673" transform="translate(-300.43 -4.153)" fill="none" stroke="#56357c" stroke-linecap="round" stroke-linejoin="round" stroke-width="0.75"/>
          <path id="Trazado_875468" data-name="Trazado 875468" d="M96.347,64.379a17.183,17.183,0,0,1,10.322-9.623" transform="translate(201.122 -2.177)" fill="none" stroke="#56357c" stroke-linecap="round" stroke-linejoin="round" stroke-width="0.75"/>
          <path id="Trazado_875469" data-name="Trazado 875469" d="M90.046,72.469s2.681-1.714,7.491-1.293" transform="translate(216.305 -2.827)" fill="none" stroke="#56357c" stroke-linecap="round" stroke-linejoin="round" stroke-width="0.75"/>
          <path id="Trazado_875470" data-name="Trazado 875470" d="M118.993,62.489s-1.646-5.4-.447-8.7" transform="translate(167.901 -2.138)" fill="none" stroke="#56357c" stroke-linecap="round" stroke-linejoin="round" stroke-width="0.75"/>
          <path id="Trazado_875471" data-name="Trazado 875471" d="M110.622,54.9a1.247,1.247,0,1,1-1.1-1.379A1.247,1.247,0,0,1,110.622,54.9Z" transform="translate(185.842 -2.127)" fill="none" stroke="#56357c" stroke-linecap="round" stroke-linejoin="round" stroke-width="0.75"/>
          <path id="Trazado_875472" data-name="Trazado 875472" d="M115.025,63.068a.943.943,0,1,1-.832-1.042.942.942,0,0,1,.832,1.042" transform="translate(176.629 -2.465)" fill="#56357c"/>
          <path id="Trazado_875473" data-name="Trazado 875473" d="M97.27,59.446a.943.943,0,1,1-.832-1.042.942.942,0,0,1,.832,1.042" transform="translate(211.433 -2.321)" fill="#56357c"/>
          <path id="Trazado_875474" data-name="Trazado 875474" d="M99.352,66.187a1.248,1.248,0,1,1-1.1-1.379A1.248,1.248,0,0,1,99.352,66.187Z" transform="translate(207.935 -2.576)" fill="none" stroke="#56357c" stroke-linecap="round" stroke-linejoin="round" stroke-width="0.75"/>
          <path id="Trazado_875475" data-name="Trazado 875475" d="M109.141,72.209s3.322-4.661,8.058-1.786" transform="translate(178.306 -2.762)" fill="none" stroke="#56357c" stroke-linecap="round" stroke-linejoin="round" stroke-width="0.75"/>
        </g>
      </g>
    </g>
    <g id="Grupo_1099383" data-name="Grupo 1099383" transform="translate(1111.148 4713.852) rotate(90)">
      <path id="Trazado_873218" data-name="Trazado 873218" d="M0,1.536A1.648,1.648,0,0,0,.405,2.674a1.545,1.545,0,0,0,1.216.455,1.591,1.591,0,0,0,1.23-.455,1.615,1.615,0,0,0,.42-1.138,1.527,1.527,0,0,0-.42-1.1A1.62,1.62,0,0,0,1.621,0,1.572,1.572,0,0,0,.405.441,1.557,1.557,0,0,0,0,1.536Zm14.878,0a1.648,1.648,0,0,0,.405,1.138,1.545,1.545,0,0,0,1.216.455,1.591,1.591,0,0,0,1.23-.455,1.615,1.615,0,0,0,.42-1.138,1.527,1.527,0,0,0-.42-1.1A1.62,1.62,0,0,0,16.5,0a1.572,1.572,0,0,0-1.216.441A1.557,1.557,0,0,0,14.878,1.536Zm14.878,0a1.648,1.648,0,0,0,.405,1.138,1.545,1.545,0,0,0,1.216.455,1.591,1.591,0,0,0,1.23-.455,1.615,1.615,0,0,0,.42-1.138,1.527,1.527,0,0,0-.42-1.1A1.62,1.62,0,0,0,31.377,0a1.572,1.572,0,0,0-1.216.441A1.557,1.557,0,0,0,29.756,1.536Zm14.878,0a1.648,1.648,0,0,0,.405,1.138,1.545,1.545,0,0,0,1.216.455,1.591,1.591,0,0,0,1.23-.455,1.615,1.615,0,0,0,.42-1.138,1.527,1.527,0,0,0-.42-1.1A1.62,1.62,0,0,0,46.255,0a1.572,1.572,0,0,0-1.216.441A1.557,1.557,0,0,0,44.633,1.536Zm14.878,0a1.648,1.648,0,0,0,.405,1.138,1.545,1.545,0,0,0,1.216.455,1.591,1.591,0,0,0,1.23-.455,1.615,1.615,0,0,0,.42-1.138,1.527,1.527,0,0,0-.42-1.1A1.62,1.62,0,0,0,61.133,0a1.572,1.572,0,0,0-1.216.441A1.557,1.557,0,0,0,59.511,1.536Zm14.878,0a1.648,1.648,0,0,0,.405,1.138,1.545,1.545,0,0,0,1.216.455,1.591,1.591,0,0,0,1.23-.455,1.615,1.615,0,0,0,.42-1.138,1.527,1.527,0,0,0-.42-1.1A1.62,1.62,0,0,0,76.01,0a1.572,1.572,0,0,0-1.216.441A1.557,1.557,0,0,0,74.389,1.536Z" transform="translate(0 21.362)" fill="#5f6e62"/>
      <path id="Trazado_873216" data-name="Trazado 873216" d="M0,1.536A1.648,1.648,0,0,0,.405,2.674a1.545,1.545,0,0,0,1.216.455,1.591,1.591,0,0,0,1.23-.455,1.615,1.615,0,0,0,.42-1.138,1.527,1.527,0,0,0-.42-1.1A1.62,1.62,0,0,0,1.621,0,1.572,1.572,0,0,0,.405.441,1.557,1.557,0,0,0,0,1.536Zm14.878,0a1.648,1.648,0,0,0,.405,1.138,1.545,1.545,0,0,0,1.216.455,1.591,1.591,0,0,0,1.23-.455,1.615,1.615,0,0,0,.42-1.138,1.527,1.527,0,0,0-.42-1.1A1.62,1.62,0,0,0,16.5,0a1.572,1.572,0,0,0-1.216.441A1.557,1.557,0,0,0,14.878,1.536Zm14.878,0a1.648,1.648,0,0,0,.405,1.138,1.545,1.545,0,0,0,1.216.455,1.591,1.591,0,0,0,1.23-.455,1.615,1.615,0,0,0,.42-1.138,1.527,1.527,0,0,0-.42-1.1A1.62,1.62,0,0,0,31.377,0a1.572,1.572,0,0,0-1.216.441A1.557,1.557,0,0,0,29.756,1.536Zm14.878,0a1.648,1.648,0,0,0,.405,1.138,1.545,1.545,0,0,0,1.216.455,1.591,1.591,0,0,0,1.23-.455,1.615,1.615,0,0,0,.42-1.138,1.527,1.527,0,0,0-.42-1.1A1.62,1.62,0,0,0,46.255,0a1.572,1.572,0,0,0-1.216.441A1.557,1.557,0,0,0,44.633,1.536Zm14.878,0a1.648,1.648,0,0,0,.405,1.138,1.545,1.545,0,0,0,1.216.455,1.591,1.591,0,0,0,1.23-.455,1.615,1.615,0,0,0,.42-1.138,1.527,1.527,0,0,0-.42-1.1A1.62,1.62,0,0,0,61.133,0a1.572,1.572,0,0,0-1.216.441A1.557,1.557,0,0,0,59.511,1.536Zm14.878,0a1.648,1.648,0,0,0,.405,1.138,1.545,1.545,0,0,0,1.216.455,1.591,1.591,0,0,0,1.23-.455,1.615,1.615,0,0,0,.42-1.138,1.527,1.527,0,0,0-.42-1.1A1.62,1.62,0,0,0,76.01,0a1.572,1.572,0,0,0-1.216.441A1.557,1.557,0,0,0,74.389,1.536Z" transform="translate(0 10.357)" fill="#5f6e62"/>
      <path id="Trazado_873217" data-name="Trazado 873217" d="M0,1.536A1.648,1.648,0,0,0,.405,2.674a1.545,1.545,0,0,0,1.216.455,1.591,1.591,0,0,0,1.23-.455,1.615,1.615,0,0,0,.42-1.138,1.527,1.527,0,0,0-.42-1.1A1.62,1.62,0,0,0,1.621,0,1.572,1.572,0,0,0,.405.441,1.557,1.557,0,0,0,0,1.536Zm14.878,0a1.648,1.648,0,0,0,.405,1.138,1.545,1.545,0,0,0,1.216.455,1.591,1.591,0,0,0,1.23-.455,1.615,1.615,0,0,0,.42-1.138,1.527,1.527,0,0,0-.42-1.1A1.62,1.62,0,0,0,16.5,0a1.572,1.572,0,0,0-1.216.441A1.557,1.557,0,0,0,14.878,1.536Zm14.878,0a1.648,1.648,0,0,0,.405,1.138,1.545,1.545,0,0,0,1.216.455,1.591,1.591,0,0,0,1.23-.455,1.615,1.615,0,0,0,.42-1.138,1.527,1.527,0,0,0-.42-1.1A1.62,1.62,0,0,0,31.377,0a1.572,1.572,0,0,0-1.216.441A1.557,1.557,0,0,0,29.756,1.536Zm14.878,0a1.648,1.648,0,0,0,.405,1.138,1.545,1.545,0,0,0,1.216.455,1.591,1.591,0,0,0,1.23-.455,1.615,1.615,0,0,0,.42-1.138,1.527,1.527,0,0,0-.42-1.1A1.62,1.62,0,0,0,46.255,0a1.572,1.572,0,0,0-1.216.441A1.557,1.557,0,0,0,44.633,1.536Zm14.878,0a1.648,1.648,0,0,0,.405,1.138,1.545,1.545,0,0,0,1.216.455,1.591,1.591,0,0,0,1.23-.455,1.615,1.615,0,0,0,.42-1.138,1.527,1.527,0,0,0-.42-1.1A1.62,1.62,0,0,0,61.133,0a1.572,1.572,0,0,0-1.216.441A1.557,1.557,0,0,0,59.511,1.536Zm14.878,0a1.648,1.648,0,0,0,.405,1.138,1.545,1.545,0,0,0,1.216.455,1.591,1.591,0,0,0,1.23-.455,1.615,1.615,0,0,0,.42-1.138,1.527,1.527,0,0,0-.42-1.1A1.62,1.62,0,0,0,76.01,0a1.572,1.572,0,0,0-1.216.441A1.557,1.557,0,0,0,74.389,1.536Z" transform="translate(0 0)" fill="#5f6e62"/>
    </g>
    <g id="Grupo_1100002" data-name="Grupo 1100002" transform="translate(71.449)">
      <g id="Enmascarar_grupo_1098713" data-name="Enmascarar grupo 1098713" transform="translate(1149.002 5061.543)" clip-path="url(#clip-path-6)">
        <path id="Sustracción_32" data-name="Sustracción 32" d="M144.129,0a145.192,145.192,0,0,0-29.047,2.928A143.356,143.356,0,0,0,63.545,24.615,144.544,144.544,0,0,0,11.327,88.027a143.454,143.454,0,0,0-8.4,27.055,145.544,145.544,0,0,0,0,58.093,143.357,143.357,0,0,0,21.687,51.537,144.551,144.551,0,0,0,63.412,52.219,143.382,143.382,0,0,0,27.054,8.4,145.518,145.518,0,0,0,58.094,0,143.339,143.339,0,0,0,51.537-21.687,144.557,144.557,0,0,0,52.219-63.413,143.391,143.391,0,0,0,8.4-27.054,145.518,145.518,0,0,0,0-58.093,143.329,143.329,0,0,0-21.687-51.537A144.541,144.541,0,0,0,200.23,11.326a143.413,143.413,0,0,0-27.054-8.4A145.182,145.182,0,0,0,144.129,0Zm0,230.716a87.191,87.191,0,0,1-17.451-1.759,86.122,86.122,0,0,1-30.962-13.028,86.844,86.844,0,0,1-31.371-38.1A86.157,86.157,0,0,1,59.3,161.579a87.43,87.43,0,0,1,0-34.9A86.121,86.121,0,0,1,72.327,95.716a86.836,86.836,0,0,1,38.1-31.371A86.116,86.116,0,0,1,126.678,59.3a87.429,87.429,0,0,1,34.9,0A86.114,86.114,0,0,1,192.54,72.328a86.84,86.84,0,0,1,31.371,38.1,86.134,86.134,0,0,1,5.045,16.254,87.43,87.43,0,0,1,0,34.9,86.106,86.106,0,0,1-13.029,30.961,86.836,86.836,0,0,1-38.1,31.371,86.183,86.183,0,0,1-16.254,5.045A87.19,87.19,0,0,1,144.129,230.716Z" transform="translate(16.361 10.88)" fill="url(#radial-gradient)"/>
      </g>
      <g id="Grupo_1100001" data-name="Grupo 1100001" transform="translate(1078.602 5130.898)">
        <path id="Trazado_873222-2" data-name="Trazado 873222" d="M-11250.93-11352.717s-51.707-101.059-149.413-122.389" transform="translate(11414.501 11495.305)" fill="none" stroke="#869a8a" stroke-width="2"/>
        <g id="Grupo_1099331-2" data-name="Grupo 1099331" transform="translate(97.352 56.031) rotate(50)">
          <g id="Grupo_1099328-4" data-name="Grupo 1099328" transform="translate(0)" clip-path="url(#clip-path-7)">
            <path id="Trazado_873219-4" data-name="Trazado 873219" d="M42.64,0S13.962,52.234,1.672,32.774c0,0-14.339-19.46,40.968-32.774" transform="translate(1.692 0.421)" fill="#c1ddc7"/>
            <path id="Trazado_873220-4" data-name="Trazado 873220" d="M32.733,0C28.288,4.128,21.805,10.2,17.207,14.021,11.84,18.354,6.442,22.983,0,25.595c.031-.01.072-.02.1-.031.266-.072.522-.154.778-.246.092-.031.195-.072.307-.113,6.248-2.069,11.594-6.319,16.674-10.4A134.47,134.47,0,0,0,32.733,0" transform="translate(11.6 0.42)" fill="#869a8a"/>
            <path id="Trazado_873221-4" data-name="Trazado 873221" d="M44.165,0,43.038.27C26.144,4.338,5.1,11.675.774,23.529a11.353,11.353,0,0,0,1,10.318c1.956,3.1,4.489,4.648,7.493,4.548C23.162,37.97,42.779,2.525,43.608,1.016ZM9.013,37.375c-2.554,0-4.647-1.345-6.39-4.105a10.531,10.531,0,0,1-.879-9.415c2.284-6.219,11.168-15.1,40.387-22.308C38.75,7.465,21.275,37,9.24,37.372c-.076,0-.152,0-.226,0" transform="translate(0 0)" fill="#869a8a"/>
          </g>
        </g>
        <g id="Grupo_1099332-2" data-name="Grupo 1099332" transform="matrix(-0.309, 0.951, -0.951, -0.309, 123.561, 40.484)">
          <g id="Grupo_1099328-5" data-name="Grupo 1099328" transform="translate(0 0)" clip-path="url(#clip-path-8)">
            <path id="Trazado_873219-5" data-name="Trazado 873219" d="M36.667,0S12.006,44.917,1.438,28.183c0,0-12.33-16.734,35.229-28.183" transform="translate(1.455 0.362)" fill="#c1ddc7"/>
            <path id="Trazado_873220-5" data-name="Trazado 873220" d="M28.148,0c-3.822,3.549-9.4,8.772-13.352,12.057C10.181,15.783,5.54,19.763,0,22.009l.088-.026c.229-.062.449-.132.669-.211.079-.026.167-.062.264-.1,5.372-1.779,9.97-5.434,14.338-8.939A115.634,115.634,0,0,0,28.148,0" transform="translate(9.975 0.361)" fill="#869a8a"/>
            <path id="Trazado_873221-5" data-name="Trazado 873221" d="M37.978,0l-.969.233c-14.528,3.5-32.625,9.807-36.344,20a9.763,9.763,0,0,0,.864,8.872c1.682,2.667,3.86,4,6.443,3.911C19.917,32.651,36.786,2.171,37.5.874ZM7.751,32.139c-2.2,0-4-1.156-5.495-3.53a9.055,9.055,0,0,1-.756-8.1C3.464,15.165,11.1,7.527,36.23,1.33,33.322,6.42,18.295,31.82,7.945,32.137l-.195,0" transform="translate(0 0)" fill="#869a8a"/>
          </g>
        </g>
        <g id="Grupo_1099333-2" data-name="Grupo 1099333" transform="matrix(0.616, 0.788, -0.788, 0.616, 33.414, 0)">
          <g id="Grupo_1099328-6" data-name="Grupo 1099328" transform="translate(0)" clip-path="url(#clip-path-9)">
            <path id="Trazado_873219-6" data-name="Trazado 873219" d="M47.085,0S15.418,57.679,1.846,36.191c0,0-15.834-21.488,45.239-36.191" transform="translate(1.868 0.465)" fill="#c1ddc7"/>
            <path id="Trazado_873220-6" data-name="Trazado 873220" d="M36.146,0C31.237,4.558,24.078,11.264,19,15.483c-5.926,4.784-11.886,9.9-19,12.78.034-.011.079-.023.113-.034.294-.079.577-.17.86-.271.1-.034.215-.079.339-.124,6.9-2.285,12.8-6.978,18.412-11.479A148.488,148.488,0,0,0,36.146,0" transform="translate(12.809 0.464)" fill="#869a8a"/>
            <path id="Trazado_873221-6" data-name="Trazado 873221" d="M48.769,0,47.525.3C28.87,4.791,5.629,12.892.854,25.982A12.537,12.537,0,0,0,1.964,37.375c2.16,3.425,4.957,5.132,8.274,5.023,15.338-.469,37-39.61,37.916-41.276ZM9.953,41.271c-2.821,0-5.131-1.485-7.056-4.533a11.629,11.629,0,0,1-.97-10.4c2.522-6.867,12.332-16.676,44.6-24.634C42.789,8.244,23.493,40.861,10.2,41.268c-.084,0-.167,0-.25,0" transform="translate(0 0)" fill="#869a8a"/>
          </g>
        </g>
      </g>
    </g>
    <g id="Grupo_1099997" data-name="Grupo 1099997" transform="translate(25.404 369.404)">
      <g id="Grupo_1099983-2" data-name="Grupo 1099983" transform="translate(1222.559 4664.508)">
        <circle id="Elipse_11585-2" data-name="Elipse 11585" cx="58.5" cy="58.5" r="58.5" transform="translate(0.088 0.088)" fill="#fddbb4"/>
        <circle id="Elipse_11586-2" data-name="Elipse 11586" cx="42.5" cy="42.5" r="42.5" transform="translate(16.088 16.088)" fill="#feedda"/>
      </g>
      <g id="limpiar-deslizar" transform="translate(1253.605 4695.554)">
        <path id="Trazado_875499" data-name="Trazado 875499" d="M6.2,30.806l21.96,21.96a5.354,5.354,0,0,0,7.572,0l17.839-17.84a6.423,6.423,0,0,0,0-9.084L31.605,3.881a6.426,6.426,0,0,0-9.086,0L6.195,20.207a7.5,7.5,0,0,0,0,10.6" transform="translate(-1.339 -1.113)" fill="#f9d266"/>
        <path id="Trazado_875500" data-name="Trazado 875500" d="M10.87,57.141,23.893,44.121a8.393,8.393,0,0,1,3.282-2.03,8.4,8.4,0,0,0,3.282-2.03l8.006-8.005a1.774,1.774,0,0,0-2.509-2.509l2.509-2.509a1.774,1.774,0,1,0-2.509-2.509l2.509-2.509a1.774,1.774,0,0,0-2.509-2.509l-2.509,2.509a1.774,1.774,0,0,0-2.509-2.509l-5.018,5.018-1.254-1.255a1.774,1.774,0,0,0-2.509,0l-3.871,3.871a6.061,6.061,0,0,0-1.774,4.283,6.054,6.054,0,0,1-1.775,4.283L2,48.448Z" transform="translate(-1.113 -3.032)" fill="#fbe1ca"/>
        <g id="Grupo_1099998" data-name="Grupo 1099998" transform="translate(19.159 18.362)">
          <path id="Trazado_875501" data-name="Trazado 875501" d="M0,0H7.983V1.774H0Z" transform="translate(9.408 13.17) rotate(-45)" fill="#ffd2b0"/>
          <path id="Trazado_875502" data-name="Trazado 875502" d="M0,0H11.531V1.774H0Z" transform="translate(6.899 10.661) rotate(-45)" fill="#ffd2b0"/>
          <path id="Trazado_875503" data-name="Trazado 875503" d="M0,0H11.531V1.774H0Z" transform="translate(4.391 8.153) rotate(-45)" fill="#ffd2b0"/>
          <path id="Trazado_875504" data-name="Trazado 875504" d="M0,0H7.1V1.774H0Z" transform="translate(0 7.524) rotate(-45)" fill="#ffd2b0"/>
        </g>
        <path id="Trazado_875505" data-name="Trazado 875505" d="M47.644,55.322a5.322,5.322,0,0,0-5.322,5.322A5.322,5.322,0,0,0,37,55.322,5.322,5.322,0,0,0,42.322,50a5.322,5.322,0,0,0,5.322,5.322Z" transform="translate(-5.067 -6.535)" fill="#f2f2f2"/>
        <path id="Trazado_875506" data-name="Trazado 875506" d="M43.644,7.322a5.322,5.322,0,0,0-5.322,5.322A5.322,5.322,0,0,0,33,7.322,5.322,5.322,0,0,0,38.322,2a5.322,5.322,0,0,0,5.322,5.322Z" transform="translate(-4.615 -1.113)" fill="#f2f2f2"/>
        <path id="Trazado_875507" data-name="Trazado 875507" d="M13.644,19.322a5.322,5.322,0,0,0-5.322,5.322A5.322,5.322,0,0,0,3,19.322,5.322,5.322,0,0,0,8.322,14a5.322,5.322,0,0,0,5.322,5.322Z" transform="translate(-1.226 -2.468)" fill="#f2f2f2"/>
        <path id="Trazado_875508" data-name="Trazado 875508" d="M2.774,8.983H1A7.992,7.992,0,0,1,8.983,1V2.774A6.217,6.217,0,0,0,2.774,8.983Z" transform="translate(-1 -1)" fill="#e8e9ea"/>
        <path id="Trazado_875509" data-name="Trazado 875509" d="M11.774,10.983H10A7.992,7.992,0,0,1,17.983,3V4.774a6.217,6.217,0,0,0-6.209,6.209Z" transform="translate(-2.017 -1.226)" fill="#e8e9ea"/>
        <path id="Trazado_875510" data-name="Trazado 875510" d="M54,61.983V60.209A6.217,6.217,0,0,0,60.209,54h1.774A7.992,7.992,0,0,1,54,61.983Z" transform="translate(-6.987 -6.987)" fill="#e8e9ea"/>
        <path id="Trazado_875511" data-name="Trazado 875511" d="M52,52.983V51.209A6.217,6.217,0,0,0,58.209,45h1.774A7.992,7.992,0,0,1,52,52.983Z" transform="translate(-6.761 -5.971)" fill="#e8e9ea"/>
        <path id="Trazado_875512" data-name="Trazado 875512" d="M43.611,48.9a4.408,4.408,0,0,1-2.443-.739l12.72-12.72a7.362,7.362,0,0,0,2.141-5.169,7.262,7.262,0,0,0-2.141-5.17L37.621,8.835A4.408,4.408,0,0,1,40.063,8.1a.887.887,0,1,0,0-1.774,4.44,4.44,0,0,1-4.435-4.435.887.887,0,1,0-1.774,0,4.407,4.407,0,0,1-.738,2.441L31.927,3.141a7.312,7.312,0,0,0-10.34,0L9.755,14.973a4.408,4.408,0,0,1-.739-2.442.887.887,0,0,0-1.774,0,4.44,4.44,0,0,1-4.435,4.435.887.887,0,0,0,0,1.774,4.408,4.408,0,0,1,2.443.739,8.382,8.382,0,0,0,.012,11.842l5.25,5.249L1.294,45.79l1.254,1.254L15.287,34.305a6.9,6.9,0,0,0,2.034-4.91,5.205,5.205,0,0,1,1.514-3.655l3.873-3.872a.907.907,0,0,1,1.253,0l.627.627-4.4,4.392,1.259,1.256,5.018-5.019,5.019-5.017a.9.9,0,0,1,1.253,0,.887.887,0,0,1,0,1.253l-8.154,8.154,1.254,1.254L36.5,18.106a.887.887,0,0,1,1.252,1.255L35.25,21.867,27.1,30.021l1.258,1.256,8.161-8.161a.887.887,0,0,1,1.251,1.257l-2.5,2.5-.005,0-5.645,5.645,1.254,1.254,5.649-5.649a.887.887,0,1,1,1.251,1.258L29.759,37.4a7.557,7.557,0,0,1-2.939,1.816,9.35,9.35,0,0,0-3.63,2.244L10.162,54.488l1.254,1.254,9.132-9.136,6.674,6.674a6.24,6.24,0,0,0,8.826,0l.614-.614a4.408,4.408,0,0,1,.74,2.442.887.887,0,1,0,1.774,0,4.44,4.44,0,0,1,4.435-4.435.887.887,0,1,0,0-1.774ZM34.74,5.08a6.268,6.268,0,0,0,2.129,2.129A6.268,6.268,0,0,0,34.74,9.338a6.268,6.268,0,0,0-2.129-2.129A6.268,6.268,0,0,0,34.74,5.08ZM8.129,15.725a6.268,6.268,0,0,0,2.129,2.129,6.268,6.268,0,0,0-2.129,2.129A6.268,6.268,0,0,0,6,17.854a6.268,6.268,0,0,0,2.129-2.129Zm23.506,37.61a4.435,4.435,0,0,1-3.159-1.308L21.8,45.351l2.637-2.637A7.572,7.572,0,0,1,27.378,40.9a9.335,9.335,0,0,0,3.632-2.244l8.006-8.005a2.667,2.667,0,0,0,0-3.763,2.632,2.632,0,0,0-.742-.512l.742-.742a2.667,2.667,0,0,0,0-3.765,2.628,2.628,0,0,0-.742-.511l.742-.743a2.661,2.661,0,1,0-3.765-3.763l-.741.741A2.656,2.656,0,0,0,34,16.851a2.725,2.725,0,0,0-3.763,0l-4.391,4.39-.627-.627a2.726,2.726,0,0,0-3.763,0l-3.872,3.872a6.992,6.992,0,0,0-2.034,4.91,5.136,5.136,0,0,1-1.514,3.655l-2.269,2.265L6.517,30.067A6.608,6.608,0,0,1,6.5,20.735a4.4,4.4,0,0,1,.739,2.441.887.887,0,1,0,1.774,0,4.44,4.44,0,0,1,4.435-4.435.887.887,0,0,0,0-1.774,4.407,4.407,0,0,1-2.441-.738L22.841,4.4a5.539,5.539,0,0,1,7.832,0L31.86,5.583a4.408,4.408,0,0,1-2.442.739.887.887,0,1,0,0,1.774,4.44,4.44,0,0,1,4.435,4.435.887.887,0,0,0,1.774,0,4.407,4.407,0,0,1,.738-2.441L52.634,26.357a5.5,5.5,0,0,1,1.621,3.915,5.571,5.571,0,0,1-1.621,3.914L39.914,46.906a4.4,4.4,0,0,1-.739-2.441.887.887,0,1,0-1.774,0A4.44,4.44,0,0,1,32.966,48.9a.887.887,0,1,0,0,1.774,4.407,4.407,0,0,1,2.441.738l-.613.614a4.435,4.435,0,0,1-3.159,1.308Zm6.653-1.419a6.268,6.268,0,0,0-2.129-2.129,6.268,6.268,0,0,0,2.129-2.129,6.268,6.268,0,0,0,2.129,2.129A6.268,6.268,0,0,0,38.288,51.915Z" transform="translate(-1.033 -1)"/>
        <path id="Trazado_875513" data-name="Trazado 875513" d="M8.983,2.774V1A7.992,7.992,0,0,0,1,8.983H2.774A6.217,6.217,0,0,1,8.983,2.774Z" transform="translate(-1 -1)"/>
        <path id="Trazado_875514" data-name="Trazado 875514" d="M11.774,10.983a6.217,6.217,0,0,1,6.209-6.209V3A7.992,7.992,0,0,0,10,10.983Z" transform="translate(-2.017 -1.226)"/>
        <path id="Trazado_875515" data-name="Trazado 875515" d="M54,60.209v1.774A7.992,7.992,0,0,0,61.983,54H60.209A6.217,6.217,0,0,1,54,60.209Z" transform="translate(-6.987 -6.987)"/>
        <path id="Trazado_875516" data-name="Trazado 875516" d="M59.983,45H58.209A6.217,6.217,0,0,1,52,51.209v1.774A7.992,7.992,0,0,0,59.983,45Z" transform="translate(-6.761 -5.971)"/>
      </g>
    </g>
  </g>
</svg>
