<svg xmlns="http://www.w3.org/2000/svg" xmlns:xlink="http://www.w3.org/1999/xlink" width="295" height="247.442" viewBox="0 0 295 247.442">
  <defs>
    <clipPath id="clip-path">
      <rect id="Rectángulo_35929" data-name="Rectángulo 35929" width="295" height="246" transform="translate(705 766)" fill="#f9a545"/>
    </clipPath>
    <clipPath id="clip-path-2">
      <rect id="Rectángulo_401691" data-name="Rectángulo 401691" width="91.334" height="69.298" fill="#7c5122"/>
    </clipPath>
    <clipPath id="clip-path-3">
      <rect id="Rectángulo_401693" data-name="Rectángulo 401693" width="57.132" height="237.147" fill="none"/>
    </clipPath>
    <clipPath id="clip-path-4">
      <rect id="Rectángulo_401695" data-name="Rectángulo 401695" width="57.718" height="241.209" fill="none"/>
    </clipPath>
    <clipPath id="clip-path-5">
      <rect id="Rectángulo_401698" data-name="Rectángulo 401698" width="34.704" height="24.877" fill="none"/>
    </clipPath>
    <clipPath id="clip-path-6">
      <rect id="Rectángulo_401699" data-name="Rectángulo 401699" width="33.367" height="13.963" fill="none"/>
    </clipPath>
    <clipPath id="clip-path-7">
      <path id="Trazado_874348" data-name="Trazado 874348" d="M1.585,117.442H108.521c.875,0,1.585-1.97,1.585-4.4V4.4c0-2.431-.71-4.4-1.585-4.4H1.585C.71,0,0,1.97,0,4.4v108.64C0,115.472.71,117.442,1.585,117.442Z" transform="translate(0 0)" fill="#297929" stroke="#707070" stroke-width="1"/>
    </clipPath>
    <radialGradient id="radial-gradient" cx="0.5" cy="0.5" r="0.5" gradientTransform="matrix(1, 0, 0, -1, 0, 1)" gradientUnits="objectBoundingBox">
      <stop offset="0" stop-color="#fff" stop-opacity="0"/>
      <stop offset="1" stop-color="#f9a545"/>
    </radialGradient>
    <clipPath id="clip-path-8">
      <rect id="Rectángulo_401707" data-name="Rectángulo 401707" width="45.717" height="37.092" fill="none"/>
    </clipPath>
    <clipPath id="clip-path-9">
      <rect id="Rectángulo_401706" data-name="Rectángulo 401706" width="45.717" height="37.092" transform="translate(0 0)" fill="none"/>
    </clipPath>
    <clipPath id="clip-path-10">
      <rect id="Rectángulo_401700" data-name="Rectángulo 401700" width="22.324" height="18.087" transform="translate(10.344 4.277)" fill="none"/>
    </clipPath>
    <clipPath id="clip-path-11">
      <rect id="Rectángulo_401701" data-name="Rectángulo 401701" width="16.123" height="6.992" transform="translate(12.924 1.283)" fill="none"/>
    </clipPath>
    <clipPath id="clip-path-12">
      <rect id="Rectángulo_401702" data-name="Rectángulo 401702" width="22.324" height="18.087" transform="translate(23.392 18.141)" fill="none"/>
    </clipPath>
    <clipPath id="clip-path-13">
      <rect id="Rectángulo_401703" data-name="Rectángulo 401703" width="16.123" height="6.992" transform="translate(25.972 15.147)" fill="none"/>
    </clipPath>
    <clipPath id="clip-path-14">
      <rect id="Rectángulo_401704" data-name="Rectángulo 401704" width="22.324" height="18.087" transform="translate(2.26 19.005)" fill="none"/>
    </clipPath>
    <clipPath id="clip-path-15">
      <rect id="Rectángulo_401705" data-name="Rectángulo 401705" width="16.123" height="6.992" transform="translate(4.84 16.011)" fill="none"/>
    </clipPath>
    <clipPath id="clip-path-16">
      <rect id="Rectángulo_401710" data-name="Rectángulo 401710" width="55.68" height="67.495" fill="none"/>
    </clipPath>
    <clipPath id="clip-path-17">
      <rect id="Rectángulo_401709" data-name="Rectángulo 401709" width="55.68" height="67.495" transform="translate(0 0)" fill="none"/>
    </clipPath>
    <clipPath id="clip-path-18">
      <rect id="Rectángulo_401708" data-name="Rectángulo 401708" width="48.737" height="61.85" transform="translate(6.942 5.644)" fill="none"/>
    </clipPath>
    <clipPath id="clip-path-19">
      <rect id="Rectángulo_401714" data-name="Rectángulo 401714" width="44.02" height="74.502" fill="none"/>
    </clipPath>
    <clipPath id="clip-path-20">
      <rect id="Rectángulo_401713" data-name="Rectángulo 401713" width="44.02" height="74.502" transform="translate(0 0)" fill="none"/>
    </clipPath>
    <clipPath id="clip-path-21">
      <rect id="Rectángulo_401711" data-name="Rectángulo 401711" width="41.606" height="65.998" transform="translate(2.414 8.503)" fill="none"/>
    </clipPath>
    <clipPath id="clip-path-22">
      <rect id="Rectángulo_401712" data-name="Rectángulo 401712" width="8.022" height="54.172" transform="translate(2.389 10.028)" fill="none"/>
    </clipPath>
  </defs>
  <g id="Grupo_1100045" data-name="Grupo 1100045" transform="translate(5664.813 11491.721)">
    <g id="Enmascarar_grupo_1098695" data-name="Enmascarar grupo 1098695" transform="translate(-6369.813 -12257.721)" clip-path="url(#clip-path)">
      <path id="Trazado_874347" data-name="Trazado 874347" d="M52.394,238.044C21.164,241.681-5.179,214.015.87,183.263q.23-1.17.5-2.371C12.819,129.64,63.6,140.128,53.55,69.8,44.964,9.738,111.628-18.25,153.4,12.9a69.74,69.74,0,0,1,18.515,21.128c39.611,68.363,91.383,50.461,108.486,90.113,20.586,47.728-16.212,108.248-71.266,104.323-40.92-2.917-119.226,5.216-156.737,9.583" transform="translate(713.814 770.182)" fill="#e5963c" fill-rule="evenodd"/>
      <g id="Grupo_1099801" data-name="Grupo 1099801" transform="translate(714.634 776.951)">
        <g id="Grupo_1099802" data-name="Grupo 1099802">
          <g id="Grupo_1099799" data-name="Grupo 1099799">
            <g id="Grupo_1099803" data-name="Grupo 1099803">
              <path id="Trazado_874260" data-name="Trazado 874260" d="M41.5,351.04c-.543.036-.973,6.106,2.146,8.47,3.6,2.728,13.919,6.92,27.025,4.338s20-7.157,25-11.95,12.006-11.546,17.9-13.263c5.474-1.593,14.309-5.328,15.974-7.169s.92-9.489.92-9.489Z" transform="translate(28.912 226.415)" fill="#263238"/>
              <path id="Trazado_874261" data-name="Trazado 874261" d="M123.919,306.39a4.062,4.062,0,0,1,2.294,2.468c.543,2.085.739,4.789,1.839,8.2,1.524,4.738,2.981,14.561,2.509,18.536s-12.318,8.111-17.96,10.7c-5.762,2.648-12.3,7.755-17.972,13.116-5.876,5.547-18.607,11.565-27.214,12.256-13.138,1.053-21.89-1.972-24.828-6.545-3.635-5.66-2.413-11.856,12.243-19.878,2.775-1.518,12.437-8.15,15.721-10.538a78.117,78.117,0,0,0,9.785-8.361,59.608,59.608,0,0,0,4.314-4.886c1.184-1.506,2.87-3.342,3.51-5.159.145-.412.233-.889.359-1.315a22.2,22.2,0,0,0,.753-3.621c.162-1.277.194-3.127,1.342-3.962,1.315-.959,20.161,1.65,21.615,3.662a11.19,11.19,0,0,1,1.6,5.416c.1.884.135,1.776.2,2.664.029.378-.089,1.068.431.875.492-.182.967-1.543,1.128-2.006.354-1.018.554-2.1.949-3.1a9.058,9.058,0,0,1,1.673-3.337c2.378-2.286,4.837-2.034,5.515-2.805,0,0,.162-1.621.192-2.378" transform="translate(28.732 215.454)" fill="#455a64"/>
              <path id="Trazado_874262" data-name="Trazado 874262" d="M54.131,329.463c19.127.071,25.436,14.985,26.72,22.24a44.875,44.875,0,0,1-13.334,3.737c-13.14,1.054-22.429-1.93-25.369-6.5-3.429-5.338-1.18-13.443,11.984-19.473" transform="translate(28.631 231.678)" fill="#fafafa"/>
              <path id="Trazado_874263" data-name="Trazado 874263" d="M72.9,334.679a.919.919,0,0,0,.576-.25.939.939,0,0,0,.046-1.322c-2.863-3.086-11.9-9.526-18.768-8.315a.935.935,0,0,0,.32,1.843c6.414-1.111,14.814,5.3,17.085,7.75a.923.923,0,0,0,.741.295" transform="translate(37.961 228.288)" fill="#f5f5f5"/>
              <path id="Trazado_874264" data-name="Trazado 874264" d="M77.534,331.548a.934.934,0,0,0,.62-1.572c-2.865-3.088-11.9-9.54-18.766-8.315a.931.931,0,0,0-.758,1.082.921.921,0,0,0,1.078.761c6.413-1.119,14.814,5.3,17.083,7.75a.923.923,0,0,0,.743.295" transform="translate(41.218 226.085)" fill="#f5f5f5"/>
              <path id="Trazado_874265" data-name="Trazado 874265" d="M81.785,328.039a.923.923,0,0,0,.576-.25.937.937,0,0,0,.044-1.322c-2.861-3.09-11.926-9.529-18.766-8.317a.936.936,0,0,0,.32,1.844c6.406-1.114,14.814,5.3,17.083,7.75a.929.929,0,0,0,.743.295" transform="translate(44.208 223.618)" fill="#f5f5f5"/>
              <path id="Trazado_874266" data-name="Trazado 874266" d="M86.6,324.539a.921.921,0,0,0,.564-.24.938.938,0,0,0,.066-1.322c-3.946-4.386-13.494-9.517-20.357-8.307a.935.935,0,0,0,.318,1.843c6.181-1.085,15.153,3.832,18.657,7.719a.925.925,0,0,0,.751.307" transform="translate(46.482 221.15)" fill="#f5f5f5"/>
              <path id="Trazado_874267" data-name="Trazado 874267" d="M127.5,349c.6,8.71,2.006,14.474,5.142,19.551s8.961,6.617,14.83,5.055,13.362-5.649,14.969-13.186,2.534-12.7,1.112-20.771Z" transform="translate(89.655 238.838)" fill="#263238"/>
              <path id="Trazado_874268" data-name="Trazado 874268" d="M156.511,308.108c2.425-.283,1.9,11.723,3.427,23.427,1.632,12.542,3.486,17.5,4.934,27.786,1.656,11.749-.228,17.027-4.26,24.187s-18.488,14.3-25.759,4.193c-5.927-8.24-6.264-17.449-5.857-29.2.422-12.151-.843-20.292-1.925-29.459-1.119-9.483-3.1-17.768-1.007-18.771a84.424,84.424,0,0,0,2.153,9.136c.254.652,1.208,2.275,1.557-.184.1-.731-.138-2.412-.083-3.136.152-2.035,1.376-2.386,2.17-2.841a23.272,23.272,0,0,1,10.308-2.393c4.735-.077,8.829-.281,11.485,1.047,1.6.8,1.572,2.32,1.761,3.8.225,1.77.266,2.863.691,2.505.86-.724.405-10.1.405-10.1" transform="translate(88.002 216.658)" fill="#455a64"/>
              <path id="Trazado_874269" data-name="Trazado 874269" d="M163.964,343.577c.5,7.3-1.191,12.324-4.345,17.93-4.03,7.16-19.66,14.338-26.931,4.229-3.616-5.028-4.636-11.011-5.19-17.121,4.209-7.9,29.624-11.647,36.466-5.038" transform="translate(89.657 239.212)" fill="#fafafa"/>
              <path id="Trazado_874270" data-name="Trazado 874270" d="M130.937,339.65a.956.956,0,0,0,.3-.085c.1-.048,11.265-4.832,22.211-2.417a.9.9,0,0,0,.385-1.766c-11.577-2.548-22.966,2.354-23.392,2.56a.9.9,0,0,0,.5,1.708" transform="translate(91.372 235.325)" fill="#f5f5f5"/>
              <path id="Trazado_874271" data-name="Trazado 874271" d="M153.134,332.183a.9.9,0,0,0,.182-1.758c-10.909-3.575-22.913,2.11-23.365,2.354a.9.9,0,0,0,.852,1.589c.1-.053,11.8-5.564,21.951-2.224a.88.88,0,0,0,.38.039" transform="translate(91.048 231.527)" fill="#f5f5f5"/>
              <path id="Trazado_874272" data-name="Trazado 874272" d="M153.015,327.434a.9.9,0,0,0,.2-1.749c-12-4.166-23.387,2.025-23.809,2.289a.9.9,0,0,0,.95,1.533c.094-.061,11.1-5.992,22.268-2.117a.907.907,0,0,0,.4.044" transform="translate(90.697 228.011)" fill="#f5f5f5"/>
              <path id="Trazado_874273" data-name="Trazado 874273" d="M152.682,322.627a.9.9,0,0,0,.208-1.746c-11.248-4.086-23.508,2.269-23.966,2.545a.9.9,0,0,0-.317,1.236.886.886,0,0,0,1.23.317c.107-.063,12-6.2,22.44-2.4a.879.879,0,0,0,.405.049" transform="translate(90.349 224.683)" fill="#ebebeb"/>
              <path id="Trazado_874274" data-name="Trazado 874274" d="M168.373,124.555c10.369,18.246,18.735,33.63,21.435,81.835,3.047,54.4,2.592,75.12,2.86,81.687s4.575,18.607,8.235,50.938-.194,110.717-.194,110.717-2.591,5.28-15.186,6.481c-11.619,1.105-18.441-2.9-18.441-2.9S148.616,350.394,144.06,330.937s-17.843-83.443-17.843-83.443l-4.365,61.073s3.679,17.831.344,46.228-12.106,86.756-12.106,86.756-2.693,7.775-17.569,8.863c-14.552,1.065-23.353-5.684-23.353-5.684s-2.151-123.4-2.391-155.564S64.633,173.49,74.591,125.8Z" transform="translate(46.746 87.587)" fill="#37474f"/>
              <path id="Trazado_874275" data-name="Trazado 874275" d="M76.678,168.123c5.04,13.246,23.083,22.418,31,24.22l9.65,50.679.012,61.738,4.367-61.073-10.839-61.77s-21.917-1.38-34.187-13.793m74.886-7.014c1.334,5.21,2.543,10.454,3.832,15.692,1.264,5.246,2.533,10.488,3.894,15.77a104.056,104.056,0,0,0-1.214-16.264,162.778,162.778,0,0,0-3.12-16.01,142.184,142.184,0,0,0-4.856-15.615,76.158,76.158,0,0,0-7.222-14.714c1.695,5.188,3.2,10.345,4.638,15.531,1.4,5.191,2.778,10.384,4.049,15.61m9.238-10.117c1.805,3.132,3.521,6.307,5.253,9.487l5.113,9.7A42.98,42.98,0,0,0,168.55,159.4a69.986,69.986,0,0,0-4.7-10.069,79.613,79.613,0,0,0-6.162-9.248,58.483,58.483,0,0,0-7.557-8.2c1.664,3.335,3.481,6.5,5.288,9.662,1.785,3.17,3.63,6.285,5.38,9.448m-7.142,146.92c-3.284-16.639-5.656-33.464-8.005-50.306-2.287-16.848-4.561-33.718-7.075-50.563,1.172,16.984,2.545,33.95,4.381,50.881,1.8,16.933,4.031,33.851,7.273,50.633,3.456,16.739,6.937,33.342,10.628,49.975q5.46,24.943,11.587,49.766-4.126-25.206-8.916-50.3c-3.142-16.72-6.5-33.471-9.872-50.088m-75.7-54.995,2.5-44.382c-2.219,14.673-3.921,29.418-5.207,44.2-1.242,14.8-2.425,29.537-2.361,44.53.622,14.918,1.02,73.927,2.9,88.645,1.306-16.475.877-59.948.877-59.948-.434-7.38-.083-21.45-.293-28.777-.179-7.293.213-14.714.5-22.092s.717-14.78,1.078-22.174" transform="translate(51.259 91.394)" fill="#263238"/>
              <path id="Trazado_874276" data-name="Trazado 874276" d="M30.281,125.981c4.433,3.32,9.075,8.55,16.633,14.462s19.062,16.308,30,22.441c10.987,6.16,16.325,8.6,29.428-5.629,16.637-18.068,32.793-43.237,32.793-43.237L137.705,62.59c-11.239,3.686-17.6,9.89-24.346,20.755-12.714,20.474-21.338,33.7-28.711,45.511,0,0-32.165-17.924-36.355-20.786a16.925,16.925,0,0,1-6.687-8.911,78.8,78.8,0,0,0-3.422-8.932c-1.346-3.1-1.863-4.267-3.434-8.155s-2.819-10.456-3.32-11.9c-.95-1.63-3.4-1.438-5.411,2.625-1.245,2.517-.927,5.8-.775,7.956.17,2.4.952,5.305.23,5.711S21.3,85.18,17.854,84.427s-6.515-2.177-10.3-.973A4.5,4.5,0,0,0,4.546,89.47a5.823,5.823,0,0,0,2.073,2.265,4.838,4.838,0,0,0-3.643,1.2c-1.627,1.478-1.518,5.28.031,6.665a2.985,2.985,0,0,0-2.872,2.677c-.368,2.258-.083,4.49,2.187,5.334,0,0-1.855.468-1.952,1.56s-.063,3.7,1.833,4.929,6.477,1.414,6.477,1.414.351.8,2.519,1.877a53.945,53.945,0,0,0,7.242,3.742c2.846,1.073,8.312,2.209,11.841,4.852" transform="translate(0 44.013)" fill="#37474f"/>
              <path id="Trazado_874277" data-name="Trazado 874277" d="M102.454,141.375l19.738-26.456-2.233-52.815c-8.637,1.592-12.861,5.127-17.168,10.466-7.01,8.691-12.806,18.7-17.62,26.417-5.663,9.08-18.471,29.649-18.471,29.649L38.468,112.7a31.5,31.5,0,0,1-1.855,14.992c-3.035,7.673-11.3,10.71-11.3,10.71S44.2,155.095,53.562,160.913s16.949,9.746,23.02,7.193,14.883-12,25.872-26.73" transform="translate(17.801 43.672)" fill="#869a8a"/>
              <path id="Trazado_874279" data-name="Trazado 874279" d="M13.737,100.367a1.931,1.931,0,0,1-.429,1.647,15.336,15.336,0,0,1-1.587,1.628,9.287,9.287,0,0,1-.853.746,3.755,3.755,0,0,1-.94.508l-2.207.846a9.331,9.331,0,0,0,2.4-.228,3.059,3.059,0,0,0,1.187-.5,9.233,9.233,0,0,0,.979-.755,9.976,9.976,0,0,0,1.562-1.9,2.6,2.6,0,0,0,.324-1.264,1.666,1.666,0,0,0-.283-.77,10.693,10.693,0,0,0,1.8-.709,5.978,5.978,0,0,0,2.485-1.79,4.5,4.5,0,0,0,.491-1.49,1.7,1.7,0,0,0-.005-.5l.68-1.027a13.227,13.227,0,0,0,3.3,5.351,15.851,15.851,0,0,0,6.484,4.1s-2.86-1.1-5.7-5.3c-2.444-3.614-2.063-8.869-1.1-11.57a1.4,1.4,0,0,0,.162-.056,2.142,2.142,0,0,0,.714-.9,2.887,2.887,0,0,0,.046-2.115,5.9,5.9,0,0,0-.976-1.736,11.145,11.145,0,0,0-6.528-3.609,5.33,5.33,0,0,0-.961-1.359,8.467,8.467,0,0,0-1.322-1.126,10.6,10.6,0,0,1,1.177,1.252,4.946,4.946,0,0,1,.829,1.436l.031.089.1.031a11.514,11.514,0,0,1,6.091,3.74c.7.91,1.233,2.134.785,3.049-.281.547-.482.7-1.071.627-.565-.055-1.2-.187-1.829-.262-1.272-.162-2.521-.16-3.735-.291a14.7,14.7,0,0,1-3.532-.857c-1.148-.431-2.255-.993-3.374-1.535A25.211,25.211,0,0,1,5.66,81.967a30.148,30.148,0,0,0,6.414,3.887,12.454,12.454,0,0,0,3.674,1.032c1.262.16,2.514.179,3.71.358.247.032.489.078.732.123A2.294,2.294,0,0,1,21.02,88.8a2.548,2.548,0,0,1-1.237,2.49,15.212,15.212,0,0,1-2.691,1.587,8.529,8.529,0,0,1-2.943.739c-1.984-.036-3.985-1.063-6-1.741-2.02-.72-4.043-1.434-6.1-2.052,1.928.955,3.894,1.816,5.862,2.667.979.434,1.974.828,2.987,1.219a9.44,9.44,0,0,0,3.258.739,9.448,9.448,0,0,0,2.025-.429,3.059,3.059,0,0,1,1.688,1.042,1.413,1.413,0,0,1,.279,1.182,4,4,0,0,1-.508,1.226,6.359,6.359,0,0,1-2.274,1.451,6,6,0,0,1-2.6.722,10.53,10.53,0,0,1-2.681-.76,17.709,17.709,0,0,0-2.907-.559c-1.935-.244-3.871-.419-5.818-.491,1.9.416,3.817.753,5.714,1.126a28.467,28.467,0,0,1,2.783.656,10.643,10.643,0,0,0,2.882.869,4.187,4.187,0,0,0,.995-.123m6.888-12.888c-.015-.015-.029-.036-.046-.051h0c.014.017.031.034.043.051" transform="translate(0.958 53.781)" fill="#263238"/>
              <path id="Trazado_874280" data-name="Trazado 874280" d="M180.79,202.184c6.065-4.922-.966-19.733-3.134-49.624-.559-7.709,2.078-26.808,2.078-26.808S168.365,109.1,172.955,71.9l-26.05-7.47-32-3.422L96.95,68.8c-4.762,4.195-13.5,10.829-20.426,20.881-10,14.5-11.505,30.271-.72,41.805.16,2.281-2.3,28.8-3.277,37.757-1.356,12.42-7.681,24.981-.465,31.111,21.074,17.9,80.147,20.541,108.729,1.833" transform="translate(48.062 42.902)" fill="#869a8a"/>
              <path id="Trazado_874281" data-name="Trazado 874281" d="M162.755,43.643c-.129,6.176-5.076,18.786-9.967,26.04-4.084,6.058-6.005,9.558-11.113,14.784a4.251,4.251,0,0,1-1.194.957,3.7,3.7,0,0,1-1.376.271c-3.027.162-6.249-.416-9.3-.548-4.171-.181-8.341-.39-12.51-.584a53.925,53.925,0,0,1-9.414-.995A26.926,26.926,0,0,1,87.256,61.844c-.657-3.747.991-8.622-.383-12.045-.659-1.642-1.836-3.182-2.539-4.876-1.9-4.573-3.1-9.64-2.463-14.608,1.318-10.245,8.153-23.351,27.183-26.492,16.782-2.769,42.008.915,46.928,20.064,7.959,3.812,6.925,12.452,6.774,19.757" transform="translate(57.45 2.113)" fill="#263238"/>
              <path id="Trazado_874282" data-name="Trazado 874282" d="M146.282,53.286c.446-4.464,1.579-27.529-16.071-35.6S99.835,13.312,92.192,16.4c-3.389,2.131-6.651,3.873-8.736,7.714,0,0-1.913-4.358-.153-8.123,1.555-3.326,5.021-3.856,6.808-5.036,6.917-4.571,21.058-14.862,43.278-9.383s47.64,33.059,39.925,66.35C166.954,95.362,140.9,93.071,140.9,93.071l.9-19.643Z" transform="translate(58.056 0)" fill="#ad722f"/>
              <g id="Grupo_1099764" data-name="Grupo 1099764" transform="translate(141.445 23.819)" opacity="0.3">
                <g id="Grupo_1099763" data-name="Grupo 1099763">
                  <g id="Grupo_1099762" data-name="Grupo 1099762" clip-path="url(#clip-path-2)">
                    <path id="Trazado_874284" data-name="Trazado 874284" d="M149.227,56.249A53.492,53.492,0,0,0,143,16.592c.46,2.747.858,5.5,1.156,8.278.492,4.583.715,9.3-.562,13.728-2.958,10.253-13.837,16.824-24.526,17.068l-1.356,6.1-.9,19.643s26.054,2.291,32.415-25.155" transform="translate(-59.303 -12.152)" fill="#7c5122"/>
                    <path id="Trazado_874285" data-name="Trazado 874285" d="M83.113,14.274c.056-.1.121-.189.179-.288-.082.041-.165.08-.245.124.039.1.066.164.066.164" transform="translate(-83.047 -13.984)" fill="#7c5122"/>
                  </g>
                </g>
              </g>
              <path id="Trazado_874286" data-name="Trazado 874286" d="M126.92,10.916C114.978,5.44,100.059,6.065,92.737,9.9c-7.8,4.086-8.693,6.981-8.693,6.981s13.3-13.447,37.1-6.608c22.024,6.329,23.555,26.8,22.883,36.2-.7,6.961-.984,9.047-1.339,13.421-.01.119,1.673-2.969,1.69-3.088.908-6.2,1.112-9.206,1.259-10.718.978-18.822-6.009-29.35-18.713-35.174" transform="translate(59.1 4.863)" fill="#fafafa"/>
              <path id="Trazado_874287" data-name="Trazado 874287" d="M145.633,68.375c4.11.916,8.112-.949,10.725-3.566,5.8-5.813,6.545-11.922,4.1-16.1-2.008-3.434-7.191-5.774-10.965-3.641-4.037,2.279-4.234,4.255-5.827,6.941-1.409,2.374-3.759-.371-4.273-2a9.517,9.517,0,0,1-.284-3.108q.082-3.319.405-6.627a22.717,22.717,0,0,1-6.806-3.941c-4.815-4.313-5.646-12.457-5.064-18.529-8.729,3.192-18.8,5.069-27.98,3.066q.628-1.523,1.254-3.044a61.413,61.413,0,0,1-8.7,3.771c-2.848.981-4.45.8-5.329,3.795a102.582,102.582,0,0,0-3.05,15.68c-2.592,19.885.426,33.309,4.96,37.714,3.12,3.032,9.049,5.225,16.213,5.082l-.32,7.52s-21.423,20.386,4.977,19.439c19.783-.709,30.443-15.5,30.443-15.5l1.284-30.251s.336,2.427,4.241,3.3" transform="translate(58.281 12.52)" fill="#ffbda7"/>
              <path id="Trazado_874288" data-name="Trazado 874288" d="M94.417,45.239a5.878,5.878,0,0,0,6.741,4.788,5.778,5.778,0,0,0,4.868-6.614Z" transform="translate(66.394 30.528)" fill="#b16668"/>
              <path id="Trazado_874289" data-name="Trazado 874289" d="M104.066,44.56a5.8,5.8,0,0,1-4.834,4.726,5.922,5.922,0,0,1-2.076-.056,5.942,5.942,0,0,1,6.91-4.67" transform="translate(68.32 31.268)" fill="#f28f8f"/>
              <path id="Trazado_874290" data-name="Trazado 874290" d="M87.1,26.36l7.685-2.2A3.883,3.883,0,0,0,89.928,21.4,4.1,4.1,0,0,0,87.1,26.36" transform="translate(61.153 14.941)" fill="#263238"/>
              <path id="Trazado_874291" data-name="Trazado 874291" d="M103.555,24.4l7.4,4.292a4.006,4.006,0,0,0-1.363-5.723,4.561,4.561,0,0,0-6.036,1.431" transform="translate(72.82 15.734)" fill="#263238"/>
              <path id="Trazado_874292" data-name="Trazado 874292" d="M80.8,26.186a5.308,5.308,0,0,0,.879,3.156,2.385,2.385,0,0,1,.378,1.133c.152,2.095-.118,6,.516,8.291s2.172,5.983,8.255,6.876a14.829,14.829,0,0,0,3.217.15c.083-.005.169-.014.249-.019a10.168,10.168,0,0,0,2.756-.62c.056-.022.114-.044.169-.07a2.566,2.566,0,0,0,.245-.1c.072-.031.143-.063.31-.143.1-.046.194-.094.29-.146s.215-.116.32-.177.206-.119.308-.187c.2-.128.4-.262.586-.407a12.156,12.156,0,0,0,2.643-2.8c1.87-2.64,2.257-6.617,4.554-6.794a2.063,2.063,0,0,1,.273,0,2.531,2.531,0,0,1,.29.026c3,.416,1.863,4.658,2.975,7.925s3.33,6.605,9.838,7.506c.29.041.574.07.845.1.233.017.46.036.681.041a12.921,12.921,0,0,0,1.61-.01c.175-.014.346-.027.513-.044s.336-.043.494-.066c.106-.012.211-.031.315-.049a10.094,10.094,0,0,0,1.911-.55c.23-.1.445-.192.663-.3a9.123,9.123,0,0,0,1.175-.7,10.629,10.629,0,0,0,2.509-2.594c1.41-2,2.4-5.81,3.274-7.748a3.6,3.6,0,0,1,.717-1.1,5.843,5.843,0,0,0,2.006-2.689,2.364,2.364,0,0,0-1.346-2.751c-.5-.133-1.022-.266-1.562-.4-5.041-1.221-11.708-2.316-15.911-1.807-5.277.649-7.3,1.926-10.1,1.54-2.616-.387-4.028-2.151-8.528-4.193-3.59-1.625-9.872-2.374-14.741-2.567q-.782-.033-1.511-.043a2.556,2.556,0,0,0-2.063,2.33m32.575,7.063c2.543-1.833,6.4-1.977,9.5-1.906,4.917.24,7.743,1.679,8.671,2.739.961,1.1-.332,5.191-1.189,7.244a11.869,11.869,0,0,1-2.614,4.2,8.393,8.393,0,0,1-7.332,2.119c-3.5-.445-5.52-1.839-6.685-3.429l0,0a8.7,8.7,0,0,1-1.548-4.556c-.155-2.442.015-5.239,1.2-6.406m-28.1-5.765a4.542,4.542,0,0,1,1.315-.548,13.6,13.6,0,0,1,5.546-.09c.688.112,1.422.269,2.2.475,3.371.9,6.7,2.836,7.4,4.27s-.029,4.151-.92,6.443a9.807,9.807,0,0,1-2.042,3.26c-1.523,1.56-3.946,2.766-7.77,2.151a8.709,8.709,0,0,1-3.476-1.26c-3.132-2.051-3.34-5.743-3.437-7.457-.119-2.192-.009-6.455,1.189-7.244" transform="translate(56.809 16.776)" fill="#37474f"/>
              <path id="Trazado_874293" data-name="Trazado 874293" d="M89.162,42.677l10.64,5.81,3.745-13.775c-.2-2.127-.4-4.321-2.2-4.674Z" transform="translate(62.699 21.123)" fill="#f0997a"/>
              <path id="Trazado_874294" data-name="Trazado 874294" d="M112.305,28.7l16.894,8.71a18.449,18.449,0,0,0-2.734,1.994l-14.728-7.22Z" transform="translate(78.574 20.18)" fill="#37474f"/>
              <path id="Trazado_874295" data-name="Trazado 874295" d="M86.94,30.361c-.8,1.671.351,2.379,1.96,3.142s3.071,1.294,3.87-.376a3.229,3.229,0,1,0-5.83-2.766" transform="translate(60.954 19.983)" fill="#263238"/>
              <path id="Trazado_874296" data-name="Trazado 874296" d="M93.371,29.713a8.339,8.339,0,0,0-2.313-1.139,6.913,6.913,0,0,0-2.47-.409,7.987,7.987,0,0,0-2.616.458c-.058.022-.136.2-.034.2a22.764,22.764,0,0,1,2.289.031A13.15,13.15,0,0,1,94,31.033c.308.2.9.62.961.674.083.082.192-.16.153-.244a5.587,5.587,0,0,0-1.742-1.751" transform="translate(60.397 19.803)" fill="#263238"/>
              <path id="Trazado_874297" data-name="Trazado 874297" d="M108.433,33.4c.2,1.841-1.119,2.129-2.889,2.318s-3.326.206-3.527-1.635a3.228,3.228,0,1,1,6.416-.683" transform="translate(71.723 21.371)" fill="#263238"/>
              <path id="Trazado_874298" data-name="Trazado 874298" d="M103.612,30.687a8.318,8.318,0,0,1,2.56-.31,6.847,6.847,0,0,1,2.465.429,8.017,8.017,0,0,1,2.32,1.3c.048.039.061.235-.034.2-.651-.228-1.214-.473-2.172-.727a11.778,11.778,0,0,0-2.807-.3,11.9,11.9,0,0,0-3.36.443c-.358.089-1.058.286-1.129.32-.106.049-.128-.215-.065-.281a5.6,5.6,0,0,1,2.223-1.076" transform="translate(71.272 21.361)" fill="#263238"/>
              <path id="Trazado_874299" data-name="Trazado 874299" d="M95.941,60.5c10.313,0,24.25-3.086,28.193-9.471-2.316,6.956-9.708,10.33-15.555,11.713a61.678,61.678,0,0,1-12.8,1.681Z" transform="translate(67.348 35.886)" fill="#f0997a"/>
              <path id="Trazado_874300" data-name="Trazado 874300" d="M121.158,62.105s-11.587,19.227-11.2,52.637,4.3,133.953,6.407,184.509c34.519-2.025,50.716-16.065,50.716-16.065s-2.97-35.951-5.321-66.9c-2.42-31.858-8.536-47.874-7.027-68.925C159.046,87.309,143.9,69.277,143.9,69.277Z" transform="translate(77.319 43.672)" fill="#e5e5e5"/>
              <g id="Grupo_1099770" data-name="Grupo 1099770" transform="translate(187.274 105.777)" opacity="0.3">
                <g id="Grupo_1099769" data-name="Grupo 1099769">
                  <g id="Grupo_1099768" data-name="Grupo 1099768" clip-path="url(#clip-path-3)">
                    <path id="Trazado_874302" data-name="Trazado 874302" d="M121.782,63.669l21.331,6.726c1.792,2.514,14.251,22.16,10.327,76.876-.879,12.27.756,22.578,2.827,35.631,1.49,9.385,3.178,20.021,4.2,33.487,2.146,28.254,4.841,61.077,5.265,66.217a58.938,58.938,0,0,1-11.716,6.723c-7.324,3.28-19.52,7.38-36.4,8.54-2.057-49.458-5.958-149.521-6.351-183.14a123.345,123.345,0,0,1,5.358-38.337,77.512,77.512,0,0,1,5.157-12.721m-.623-1.564s-11.587,19.227-11.2,52.637,4.3,133.953,6.407,184.509c34.519-2.025,50.716-16.063,50.716-16.063s-2.97-35.953-5.321-66.9c-2.42-31.858-8.536-47.874-7.027-68.925C159.046,87.309,143.9,69.277,143.9,69.277Z" transform="translate(-109.955 -62.105)" fill="#ba68c8"/>
                  </g>
                </g>
              </g>
              <path id="Trazado_874303" data-name="Trazado 874303" d="M119.612,58.531l-.165,4.221S92.141,83.1,87.26,107.377,77.79,299.74,77.79,299.74s-9.89-2.34-15.9-7.194c4.319-62.138,13.1-160.506,13.1-160.506a34.048,34.048,0,0,1-5.328-19.115c.353-11.1,6.411-31.107,24.57-48.306a159.246,159.246,0,0,1,25.378-6.087" transform="translate(43.524 41.159)" fill="#e5e5e5"/>
              <g id="Grupo_1099776" data-name="Grupo 1099776" transform="translate(105.418 99.69)" opacity="0.3">
                <g id="Grupo_1099775" data-name="Grupo 1099775">
                  <g id="Grupo_1099774" data-name="Grupo 1099774" clip-path="url(#clip-path-4)">
                    <path id="Trazado_874305" data-name="Trazado 874305" d="M118.248,60.057l-.078,2.03a117.973,117.973,0,0,0-13.946,12.994c-6.9,7.533-15.659,19.207-18.24,32.039-4.643,23.1-8.935,172.425-9.451,190.93-2.846-.824-8.988-2.858-13.29-6.106C67.53,230.49,76.2,133.135,76.291,132.155l.043-.477-.278-.392a32.9,32.9,0,0,1-5.089-18.32c.37-11.616,6.872-30.922,23.964-47.213a160.139,160.139,0,0,1,23.317-5.7m1.364-1.526a159.231,159.231,0,0,0-25.376,6.087c-18.16,17.2-24.218,37.212-24.57,48.308a34.045,34.045,0,0,0,5.328,19.113s-8.778,98.37-13.1,160.506c6.005,4.854,15.9,7.194,15.9,7.194s4.592-168.091,9.472-192.363,32.185-44.626,32.185-44.626Z" transform="translate(-61.894 -58.531)" fill="#ba68c8"/>
                  </g>
                </g>
              </g>
              <path id="Trazado_874306" data-name="Trazado 874306" d="M77.047,163.9c-3.59-20.539-5.84-44.745-5.84-44.745l4.04-6.166H70.221s7.77-21.694,17.422-34.335S113.889,56.86,113.889,56.86l-.3,7.067S91.913,84.259,86.263,101.685,77.047,163.9,77.047,163.9" transform="translate(49.379 39.984)" fill="#f5f5f5"/>
              <path id="Trazado_874308" data-name="Trazado 874308" d="M121.856,57.368c.869.2,2.967.783,5.822,4.115,3.725,4.345,7.206,8.18,7.206,8.18L122.97,116.1l-4.958.072,3.79,9.565-10.475,33.746s-2.55-36.1-1.628-57.423a74.684,74.684,0,0,1,11.779-36.619Z" transform="translate(76.999 40.341)" fill="#f5f5f5"/>
              <path id="Trazado_874310" data-name="Trazado 874310" d="M48.6,91.81l77.032,23.307,19.456,97.358-73.166-24.16Z" transform="translate(34.177 64.561)" fill="#455a64"/>
              <g id="Grupo_1099785" data-name="Grupo 1099785" transform="translate(140.027 229.627)" opacity="0.15">
                <g id="Grupo_1099784" data-name="Grupo 1099784">
                  <g id="Grupo_1099783" data-name="Grupo 1099783" clip-path="url(#clip-path-5)">
                    <path id="Trazado_874311" data-name="Trazado 874311" d="M82.5,135a.955.955,0,0,1,.739-.172c8.983.472,17.642,3.829,26.63,4.156a7.727,7.727,0,0,1,3.049.5l4,20.036a10.231,10.231,0,0,1-1.5.126,33.008,33.008,0,0,1-3.851-.022,49.476,49.476,0,0,1-10.265-1.177,16.6,16.6,0,0,1-8.77-5.174,20.312,20.312,0,0,0-2.26-2.689c-1.189-1.017-2.775-1.509-3.883-2.611-1.429-1.42-1.8-3.577-1.919-5.59a4.49,4.49,0,0,0-.342-1.805,2.846,2.846,0,0,0-.269-.421c-.186-.244-.4-.468-.588-.709a5.041,5.041,0,0,1-.976-3.98.88.88,0,0,1,.2-.472" transform="translate(-82.214 -134.821)"/>
                  </g>
                </g>
              </g>
              <g id="Grupo_1099788" data-name="Grupo 1099788" transform="translate(105.329 167.138)" opacity="0.15">
                <g id="Grupo_1099787" data-name="Grupo 1099787">
                  <g id="Grupo_1099786" data-name="Grupo 1099786" clip-path="url(#clip-path-6)">
                    <path id="Trazado_874312" data-name="Trazado 874312" d="M62.389,102.3l-.533-2.991c-.3-1.65,4.272-1.555,10.2.215l11.35,3.388c5.929,1.768,10.974,4.542,11.268,6.193l.533,2.989Z" transform="translate(-61.842 -98.132)"/>
                  </g>
                </g>
              </g>
              <path id="Trazado_874313" data-name="Trazado 874313" d="M59.241,95.344c-.189-1.032,1.671-1.233,4.152-.45l4.491,1.417s-1.119-6.464,8.869-3.856,11.928,9.972,11.928,9.972l4.791,1.552c2.648.857,5.021,2.388,5.3,3.418l.489,1.981L59.6,97.384s-.169-1.008-.358-2.04" transform="translate(41.649 64.578)" fill="#7c5122"/>
              <path id="Trazado_874315" data-name="Trazado 874315" d="M94.385,111.466c-.245-1.373-3.788-3.514-8.376-5.215-.029-.172-.06-.344-.08-.48-.221-1.434.584-2.088,3.377-1.238l.111-1.3L61.887,95.148l.247,1.191c3.64,1.02,6.021,1.642,6.479,4.186.037.21.06.38.1.581-4.35-.947-7.385-.785-7.143.565l.533,2.991,32.821,9.8Z" transform="translate(43.283 66.908)" fill="#ad722f"/>
              <path id="Trazado_874317" data-name="Trazado 874317" d="M216.408,130.491a112.855,112.855,0,0,0-5.348-21.637L178.808,123.06s-6.854,3.58-22.564,11.086c-8.516,4.069-16.146,7.1-23.588,5.59-2.2-.446-9.7-1.494-11.936-1.683-2.429-.208-4.668-.273-7.1-.33-1.557-.036-4.321,0-4.321,0l1.664,8.332c.565.288,1.17.565,1.364.691.954.62.887,1.753-.509,2.33a32.128,32.128,0,0,1-12.733,2.189,73.01,73.01,0,0,1-12.893-1.584,7.916,7.916,0,0,0-2.241-.221,2.6,2.6,0,0,0-1.938,1.015,2.689,2.689,0,0,0,.121,2.829,9.72,9.72,0,0,0,2.068,2.146,5.782,5.782,0,0,1,1.817,2.333c.473,1.381-.017,3,.651,4.3.778,1.514,2.737,1.911,4.069,2.974,1.162.925,1.811,2.333,2.722,3.509a12.613,12.613,0,0,0,5.682,3.9c6.169,2.286,12.4,1.635,18.788.806,13.316-1.73,23.382-6.859,29.782-8.828s14.516-3.417,33.623-8.685c15.579-4.3,19.8-5.847,25.485-8.1,6.8-2.7,10.923-6.438,9.587-17.172" transform="translate(57.426 76.546)" fill="#37474f"/>
              <path id="Trazado_874318" data-name="Trazado 874318" d="M186.055,149.448c-3.79-12.255-8.928-27.934-14.671-43.166-2.764-7.329-3.9-11.418-9.235-22.455C157.18,73.544,146.5,69.852,134.766,66.316c0,0-11.451,19.955-3.82,44.012,4.1,12.922,17.79,41.987,17.79,41.987l-25.79,13.345s4.411,1.977,7.482,10.984c3.1,9.09-.014,15.7-.014,15.7s25.964-7.278,35.8-9.6,18.863-7.652,21.418-11.583,2.218-9.453-1.574-21.707" transform="translate(86.456 46.633)" fill="#869a8a"/>
            </g>
          </g>
        </g>
      </g>
    </g>
    <g id="Enmascarar_grupo_1098696" data-name="Enmascarar grupo 1098696" transform="translate(-5480 -11361.721)" clip-path="url(#clip-path-7)">
      <path id="Sustracción_30" data-name="Sustracción 30" d="M79.326,0A79.9,79.9,0,0,0,63.339,1.612,78.9,78.9,0,0,0,34.974,13.548a79.554,79.554,0,0,0-28.74,34.9A78.953,78.953,0,0,0,1.612,63.339a80.1,80.1,0,0,0,0,31.974,78.906,78.906,0,0,0,11.936,28.365,79.561,79.561,0,0,0,34.9,28.741,78.918,78.918,0,0,0,14.89,4.622,80.089,80.089,0,0,0,31.974,0A78.885,78.885,0,0,0,123.679,145.1a79.56,79.56,0,0,0,28.74-34.9,78.921,78.921,0,0,0,4.622-14.89,80.1,80.1,0,0,0,0-31.974,78.892,78.892,0,0,0-11.936-28.365,79.553,79.553,0,0,0-34.9-28.74,78.932,78.932,0,0,0-14.89-4.622A79.893,79.893,0,0,0,79.326,0Zm0,126.983a47.981,47.981,0,0,1-9.6-.968,47.4,47.4,0,0,1-17.041-7.171A47.8,47.8,0,0,1,35.414,97.877a47.424,47.424,0,0,1-2.777-8.946,48.116,48.116,0,0,1,0-19.209,47.4,47.4,0,0,1,7.171-17.041A47.791,47.791,0,0,1,60.776,35.414a47.389,47.389,0,0,1,8.946-2.777,48.128,48.128,0,0,1,19.209,0,47.4,47.4,0,0,1,17.041,7.171,47.8,47.8,0,0,1,17.266,20.968,47.413,47.413,0,0,1,2.777,8.946,48.116,48.116,0,0,1,0,19.209,47.385,47.385,0,0,1-7.171,17.04,47.8,47.8,0,0,1-20.967,17.266,47.435,47.435,0,0,1-8.946,2.777A47.982,47.982,0,0,1,79.326,126.983Z" transform="translate(8.772 5.874)" fill="url(#radial-gradient)"/>
    </g>
    <g id="Grupo_1099825" data-name="Grupo 1099825" transform="translate(-5621.979 -11469.721)">
      <g id="Grupo_1099824" data-name="Grupo 1099824" clip-path="url(#clip-path-8)">
        <g id="Grupo_1099823" data-name="Grupo 1099823">
          <g id="Grupo_1099822" data-name="Grupo 1099822" clip-path="url(#clip-path-9)">
            <path id="Trazado_874349" data-name="Trazado 874349" d="M28.434,19.96a11.166,11.166,0,1,1,1.83-15.683,11.181,11.181,0,0,1-1.83,15.683" fill="#009a00"/>
            <path id="Trazado_874350" data-name="Trazado 874350" d="M26.173,19.906A11.11,11.11,0,0,1,22.4,21.861c-1.03.3.15.5-.908.5l-2.74-.066c-.316-.013-.631-.041-.944-.082A11.16,11.16,0,0,1,18.672,0c.277-.014,2.724.034,3,.041,1.156.028.135.182,1.232.56a11.162,11.162,0,0,1,3.268,19.3" fill="#006403"/>
            <path id="Trazado_874351" data-name="Trazado 874351" d="M17.735,22.273c-.166,0-.333,0-.5-.012Z" fill="#009a00"/>
            <path id="Trazado_874352" data-name="Trazado 874352" d="M28.124,19.569A10.666,10.666,0,1,1,29.873,4.587a10.669,10.669,0,0,1-1.749,14.982" fill="#5db300"/>
            <path id="Trazado_874353" data-name="Trazado 874353" d="M27.4,18.653A9.51,9.51,0,0,1,14.061,17.1l-.006-.008A9.505,9.505,0,0,1,15.611,3.752c.084-.067.168-.13.252-.193A9.513,9.513,0,0,1,28.932,5.276l.026.033a9.509,9.509,0,0,1-1.286,13.118c-.089.077-.179.152-.273.226" fill="#fff1e5"/>
            <path id="Trazado_874354" data-name="Trazado 874354" d="M14.642,16.631A8.755,8.755,0,0,1,16.075,4.339c.073-.058.145-.111.217-.166l.021-.017A8.765,8.765,0,0,1,28.347,5.743l.024.03a8.761,8.761,0,0,1-1.184,12.085c-.085.073-.167.14-.252.207a8.761,8.761,0,0,1-12.287-1.426Z" fill="#a8de7a"/>
            <path id="Trazado_874355" data-name="Trazado 874355" d="M24.65,7.383a1.169,1.169,0,0,1,1.638.039,1.169,1.169,0,0,1-.339,1.6,5.863,5.863,0,0,1-2.311.494A5.86,5.86,0,0,1,24.65,7.383" fill="#fff1e5"/>
            <path id="Trazado_874356" data-name="Trazado 874356" d="M18.364,15.022a1.169,1.169,0,0,1-1.638-.039,1.168,1.168,0,0,1,.339-1.6,5.863,5.863,0,0,1,2.311-.494,5.86,5.86,0,0,1-1.012,2.135" fill="#fff1e5"/>
            <path id="Trazado_874357" data-name="Trazado 874357" d="M17.686,8.059a1.168,1.168,0,0,1,.039-1.637,1.168,1.168,0,0,1,1.6.339,5.85,5.85,0,0,1,.493,2.31,5.86,5.86,0,0,1-2.135-1.012" fill="#fff1e5"/>
            <path id="Trazado_874358" data-name="Trazado 874358" d="M25.327,14.344a1.065,1.065,0,1,1-1.642,1.3,5.85,5.85,0,0,1-.493-2.31,5.86,5.86,0,0,1,2.135,1.012" fill="#fff1e5"/>
            <g id="Grupo_1099806" data-name="Grupo 1099806" opacity="0.3" style="mix-blend-mode: multiply;isolation: isolate">
              <g id="Grupo_1099805" data-name="Grupo 1099805">
                <g id="Grupo_1099804" data-name="Grupo 1099804" clip-path="url(#clip-path-10)">
                  <path id="Trazado_874359" data-name="Trazado 874359" d="M11.2,6.919s4.423,7.432,11.5,6.937c6.727-.47,7.564-9.579,7.564-9.579a11.166,11.166,0,1,1-19.4,3.546Z" fill="#5db300"/>
                </g>
              </g>
            </g>
            <g id="Grupo_1099809" data-name="Grupo 1099809" opacity="0.5" style="mix-blend-mode: screen;isolation: isolate">
              <g id="Grupo_1099808" data-name="Grupo 1099808">
                <g id="Grupo_1099807" data-name="Grupo 1099807" clip-path="url(#clip-path-11)">
                  <path id="Trazado_874360" data-name="Trazado 874360" d="M12.924,5.544S20.137-3.129,29,4.271c0,0,.293,1.216-.656,4,0,0-4.959-8.343-15.425-2.73" fill="#a8de7a"/>
                </g>
              </g>
            </g>
            <path id="Trazado_874361" data-name="Trazado 874361" d="M41.482,33.825a11.166,11.166,0,1,1,1.83-15.684,11.181,11.181,0,0,1-1.83,15.684" fill="#009a00"/>
            <path id="Trazado_874362" data-name="Trazado 874362" d="M39.222,33.771a11.11,11.11,0,0,1-3.777,1.955c-1.03.3.15.5-.908.5l-2.74-.066q-.474-.021-.944-.082a11.16,11.16,0,0,1,.868-22.213c.277-.014,2.724.034,3,.041,1.156.028.135.182,1.232.56a11.162,11.162,0,0,1,3.268,19.3" fill="#006403"/>
            <path id="Trazado_874363" data-name="Trazado 874363" d="M30.784,36.138c-.166,0-.333,0-.5-.012Z" fill="#009a00"/>
            <path id="Trazado_874364" data-name="Trazado 874364" d="M41.172,33.433a10.667,10.667,0,1,1,1.749-14.982,10.668,10.668,0,0,1-1.749,14.982" fill="#5db300"/>
            <path id="Trazado_874365" data-name="Trazado 874365" d="M40.448,32.518A9.51,9.51,0,0,1,27.11,30.969l-.006-.008A9.505,9.505,0,0,1,28.66,17.617c.084-.067.168-.13.252-.193a9.513,9.513,0,0,1,13.069,1.717l.026.033a9.509,9.509,0,0,1-1.286,13.118c-.089.077-.179.152-.273.226" fill="#fff1e5"/>
            <path id="Trazado_874366" data-name="Trazado 874366" d="M27.691,30.5A8.756,8.756,0,0,1,29.124,18.2c.073-.057.145-.111.217-.166l.021-.016A8.765,8.765,0,0,1,41.4,19.608l.024.03a8.76,8.76,0,0,1-1.184,12.084c-.085.073-.167.141-.252.208A8.76,8.76,0,0,1,27.7,30.5Z" fill="#a8de7a"/>
            <path id="Trazado_874367" data-name="Trazado 874367" d="M37.7,21.247A1.065,1.065,0,1,1,39,22.888a5.863,5.863,0,0,1-2.311.494A5.86,5.86,0,0,1,37.7,21.247" fill="#fff1e5"/>
            <path id="Trazado_874368" data-name="Trazado 874368" d="M31.413,28.887a1.065,1.065,0,1,1-1.3-1.641,5.863,5.863,0,0,1,2.311-.494,5.86,5.86,0,0,1-1.012,2.135" fill="#fff1e5"/>
            <path id="Trazado_874369" data-name="Trazado 874369" d="M30.734,21.924a1.065,1.065,0,1,1,1.642-1.3,5.85,5.85,0,0,1,.493,2.31,5.86,5.86,0,0,1-2.135-1.012" fill="#fff1e5"/>
            <path id="Trazado_874370" data-name="Trazado 874370" d="M38.375,28.209a1.065,1.065,0,1,1-1.642,1.3A5.876,5.876,0,0,1,36.24,27.2a5.86,5.86,0,0,1,2.135,1.012" fill="#fff1e5"/>
            <g id="Grupo_1099812" data-name="Grupo 1099812" opacity="0.3" style="mix-blend-mode: multiply;isolation: isolate">
              <g id="Grupo_1099811" data-name="Grupo 1099811">
                <g id="Grupo_1099810" data-name="Grupo 1099810" clip-path="url(#clip-path-12)">
                  <path id="Trazado_874371" data-name="Trazado 874371" d="M24.244,20.784s4.423,7.432,11.5,6.937c6.727-.47,7.564-9.579,7.564-9.579a11.166,11.166,0,1,1-19.4,3.546Z" fill="#5db300"/>
                </g>
              </g>
            </g>
            <g id="Grupo_1099815" data-name="Grupo 1099815" opacity="0.5" style="mix-blend-mode: screen;isolation: isolate">
              <g id="Grupo_1099814" data-name="Grupo 1099814">
                <g id="Grupo_1099813" data-name="Grupo 1099813" clip-path="url(#clip-path-13)">
                  <path id="Trazado_874372" data-name="Trazado 874372" d="M25.972,19.409s7.213-8.673,16.08-1.274c0,0,.3,1.217-.655,4,0,0-4.959-8.343-15.425-2.73" fill="#a8de7a"/>
                </g>
              </g>
            </g>
            <path id="Trazado_874373" data-name="Trazado 874373" d="M20.35,34.689A11.166,11.166,0,1,1,22.18,19a11.181,11.181,0,0,1-1.83,15.684" fill="#009a00"/>
            <path id="Trazado_874374" data-name="Trazado 874374" d="M18.09,34.635a11.11,11.11,0,0,1-3.777,1.955c-1.03.3.15.5-.908.5l-2.74-.066c-.316-.013-.631-.041-.944-.082a11.16,11.16,0,0,1,.868-22.213c.277-.014,2.724.034,3,.041,1.156.028.135.182,1.232.56a11.162,11.162,0,0,1,3.268,19.3" fill="#006403"/>
            <path id="Trazado_874375" data-name="Trazado 874375" d="M9.652,37c-.166,0-.333,0-.5-.012Z" fill="#009a00"/>
            <path id="Trazado_874376" data-name="Trazado 874376" d="M20.04,34.3a10.667,10.667,0,1,1,1.749-14.982A10.67,10.67,0,0,1,20.04,34.3" fill="#5db300"/>
            <path id="Trazado_874377" data-name="Trazado 874377" d="M19.316,33.382A9.512,9.512,0,0,1,5.978,31.833l-.006-.008A9.505,9.505,0,0,1,7.528,18.481c.084-.067.168-.13.252-.193A9.513,9.513,0,0,1,20.849,20l.026.033a9.509,9.509,0,0,1-1.286,13.118c-.089.077-.179.152-.273.226" fill="#fff1e5"/>
            <path id="Trazado_874378" data-name="Trazado 874378" d="M6.559,31.36A8.756,8.756,0,0,1,7.992,19.067c.072-.057.145-.111.217-.166l.021-.016a8.765,8.765,0,0,1,12.034,1.587l.024.03A8.759,8.759,0,0,1,19.1,32.586c-.084.073-.166.141-.251.208A8.76,8.76,0,0,1,6.565,31.367Z" fill="#a8de7a"/>
            <path id="Trazado_874379" data-name="Trazado 874379" d="M16.566,22.111a1.065,1.065,0,1,1,1.3,1.642,5.876,5.876,0,0,1-2.311.493,5.86,5.86,0,0,1,1.012-2.135" fill="#fff1e5"/>
            <path id="Trazado_874380" data-name="Trazado 874380" d="M10.281,29.751a1.169,1.169,0,0,1-1.638-.039,1.168,1.168,0,0,1,.339-1.6,5.863,5.863,0,0,1,2.311-.494,5.86,5.86,0,0,1-1.012,2.135" fill="#fff1e5"/>
            <path id="Trazado_874381" data-name="Trazado 874381" d="M9.6,22.788a1.168,1.168,0,0,1,.039-1.637,1.168,1.168,0,0,1,1.6.339,5.85,5.85,0,0,1,.493,2.31A5.86,5.86,0,0,1,9.6,22.788" fill="#fff1e5"/>
            <path id="Trazado_874382" data-name="Trazado 874382" d="M17.243,29.073A1.168,1.168,0,0,1,17.2,30.71a1.168,1.168,0,0,1-1.6-.339,5.869,5.869,0,0,1-.493-2.31,5.86,5.86,0,0,1,2.135,1.012" fill="#fff1e5"/>
            <g id="Grupo_1099818" data-name="Grupo 1099818" opacity="0.3" style="mix-blend-mode: multiply;isolation: isolate">
              <g id="Grupo_1099817" data-name="Grupo 1099817">
                <g id="Grupo_1099816" data-name="Grupo 1099816" clip-path="url(#clip-path-14)">
                  <path id="Trazado_874383" data-name="Trazado 874383" d="M3.112,21.648s4.423,7.432,11.5,6.937c6.727-.47,7.564-9.579,7.564-9.579a11.166,11.166,0,1,1-19.4,3.546Z" fill="#5db300"/>
                </g>
              </g>
            </g>
            <g id="Grupo_1099821" data-name="Grupo 1099821" opacity="0.5" style="mix-blend-mode: screen;isolation: isolate">
              <g id="Grupo_1099820" data-name="Grupo 1099820">
                <g id="Grupo_1099819" data-name="Grupo 1099819" clip-path="url(#clip-path-15)">
                  <path id="Trazado_874384" data-name="Trazado 874384" d="M4.84,20.273S12.053,11.6,20.921,19c0,0,.294,1.217-.656,4,0,0-4.959-8.343-15.425-2.73" fill="#a8de7a"/>
                </g>
              </g>
            </g>
          </g>
        </g>
      </g>
    </g>
    <g id="Grupo_1099832" data-name="Grupo 1099832" transform="translate(-5579.813 -11460.468)">
      <g id="Grupo_1099831" data-name="Grupo 1099831" clip-path="url(#clip-path-16)">
        <g id="Grupo_1099830" data-name="Grupo 1099830">
          <g id="Grupo_1099829" data-name="Grupo 1099829" clip-path="url(#clip-path-17)">
            <path id="Trazado_874385" data-name="Trazado 874385" d="M1.526,65.379a12.519,12.519,0,0,0,5.417,1.847c12.548,1.784,37.6-5.321,45.295-21.717,9.1-19.369-2.712-39.865-2.712-39.865l-2.264.649-2.254.646-1.47.42a98.11,98.11,0,0,1-8.669,26.028C27,49.162,4.349,57.9,1.067,59.092c-.153.056-.265.1-.33.118l-.069.024Z" fill="#ffbf00"/>
            <path id="Trazado_874386" data-name="Trazado 874386" d="M43.538,7.359l5.987-1.714.193-2.985L49.88.153A12.679,12.679,0,0,0,44.424.5a5.215,5.215,0,0,0-2.137,1.32Z" fill="#d66316"/>
            <path id="Trazado_874387" data-name="Trazado 874387" d="M43.538,7.359l5.987-1.714.193-2.985s-2.25,2.4-4.057,1.749C43.921,3.779,44.378.758,44.424.5a5.215,5.215,0,0,0-2.137,1.32Z" fill="#b23f00"/>
            <path id="Trazado_874388" data-name="Trazado 874388" d="M1.526,65.379c8.305,5.9,41.616-.5,50.712-19.87S49.526,5.644,49.526,5.644l-2.264.649c0,.09,0,.182.012.28,0,0,14.421,28.094-10.589,45.352-14.2,9.8-27.058,11.2-35.618,7.167-.26.094-.4.142-.4.142Z" fill="#ff9d00"/>
            <path id="Trazado_874389" data-name="Trazado 874389" d="M.737,59.21a3.457,3.457,0,0,1,2.292,2.628c.591,3.141-1.5,3.541-1.5,3.541S-1.3,63.081.737,59.21" fill="#b23f00"/>
            <path id="Trazado_874390" data-name="Trazado 874390" d="M.737,59.21c7.088.389,15.951-1.079,25.832-7.034C51.375,37.227,45.008,6.939,45.008,6.939l-1.47.42a98.11,98.11,0,0,1-8.669,26.028C27,49.162,4.349,57.9,1.067,59.092c-.153.056-.265.1-.33.118" fill="#ffd000"/>
            <g id="Grupo_1099828" data-name="Grupo 1099828" opacity="0.3" style="mix-blend-mode: multiply;isolation: isolate">
              <g id="Grupo_1099827" data-name="Grupo 1099827">
                <g id="Grupo_1099826" data-name="Grupo 1099826" clip-path="url(#clip-path-18)">
                  <path id="Trazado_874391" data-name="Trazado 874391" d="M6.943,67.225h0C19.49,69.01,44.538,61.9,52.237,45.51c9.1-19.37-2.712-39.865-2.712-39.865l-2.264.649-2.253.645-1.47.421s10.694,23.187-.071,40.675S6.943,67.225,6.943,67.225" fill="#ff9d00"/>
                </g>
              </g>
            </g>
          </g>
        </g>
      </g>
    </g>
    <g id="Grupo_1099842" data-name="Grupo 1099842" transform="translate(-5636 -11426.721)">
      <g id="Grupo_1099841" data-name="Grupo 1099841" clip-path="url(#clip-path-19)">
        <g id="Grupo_1099840" data-name="Grupo 1099840">
          <g id="Grupo_1099839" data-name="Grupo 1099839" clip-path="url(#clip-path-20)">
            <path id="Trazado_874392" data-name="Trazado 874392" d="M26.975,73.714C15.983,76.474,6.64,71.681,2.414,63.959a19.8,19.8,0,0,1-2.09-13.08q.107-.593.223-1.138c1.29-6.01,3.5-8,3.948-12.808A35.148,35.148,0,0,0,3.448,26.394c-1.107-5.136-.6-8.8.556-11.4l0-.006a10.752,10.752,0,0,1,6.715-6.04,7.992,7.992,0,0,1,1.519-.2,11.082,11.082,0,0,1,7.335,2.321c2.266,1.743,4.469,4.731,5.921,9.79,1.4,4.9,2.731,7.857,4.114,9.932,2.607,3.912,5.417,4.673,9.336,9.3q.363.429.739.9c8.942,11.309,3.732,28.59-12.71,32.718" fill="#77cf45"/>
            <path id="Trazado_874393" data-name="Trazado 874393" d="M26.3,71.016c-8.628,2.166-16.2-.5-20.9-5.6A18.982,18.982,0,0,1,.547,49.742c.033-.231.071-.462.112-.694,1.081-6.034,3.122-8.119,3.836-12.114.455-2.54.374-5.852-.83-11.441-1-4.64-.626-8.034.339-10.5l0-.006a10.38,10.38,0,0,1,6.655-6.279,8.218,8.218,0,0,1,1.8-.2,10.689,10.689,0,0,1,7.12,2.564c2.037,1.714,3.987,4.527,5.3,9.1,1.612,5.618,3.117,8.589,4.736,10.622,2.453,3.083,5.168,4.012,8.915,8.751q.216.273.42.552C46.958,50.974,41.851,67.111,26.3,71.016" fill="#ff9a24"/>
            <path id="Trazado_874394" data-name="Trazado 874394" d="M10.156,9.086S8.773,3.575,11.6,0l1.367.622s-2.793,4.226-1.823,8.217Z" fill="#ffa838"/>
            <path id="Trazado_874395" data-name="Trazado 874395" d="M25.276,68.04C10.523,71.744-.406,61.232,1.774,48.1,3.351,38.6,7.409,39.3,4.4,25.425s6.41-16.12,6.41-16.12,9.471-2.5,13.372,11.153S31.22,31.6,37.093,39.228c8.124,10.549,2.936,25.108-11.817,28.812" fill="#ff7f00"/>
            <path id="Trazado_874396" data-name="Trazado 874396" d="M26.554,47.964q.216.871.408,1.713c2.224,9.759-8.677,12.5-11.324,2.843q-.228-.833-.449-1.7A101.667,101.667,0,0,1,12.217,22.9a2.026,2.026,0,0,1,3.777-.949,101.659,101.659,0,0,1,10.56,26.009" fill="#ff9a24"/>
            <path id="Trazado_874397" data-name="Trazado 874397" d="M24.007,44.572q.156.627.294,1.234c1.6,7.029-6.25,9-8.156,2.047q-.165-.6-.324-1.226a73.188,73.188,0,0,1-2.14-20.1,1.459,1.459,0,0,1,2.72-.683,73.176,73.176,0,0,1,7.606,18.733" fill="#ff7f00"/>
            <path id="Trazado_874398" data-name="Trazado 874398" d="M15.731,30.728a1.517,1.517,0,1,1-1.84-1.1,1.469,1.469,0,0,1,.158-.031h0a1.517,1.517,0,0,1,1.681,1.133" fill="#b23f00"/>
            <path id="Trazado_874399" data-name="Trazado 874399" d="M15.731,30.728a1.517,1.517,0,0,1-2.813,1.077h0a1.276,1.276,0,0,0,1.939-.859,1.3,1.3,0,0,0-.808-1.352,1.517,1.517,0,0,1,1.681,1.133" fill="#58111a"/>
            <path id="Trazado_874400" data-name="Trazado 874400" d="M13.812,29.991c.149.109.11.417-.087.688s-.479.4-.629.294-.111-.418.087-.689.479-.4.629-.293" fill="#d96700"/>
            <path id="Trazado_874401" data-name="Trazado 874401" d="M19.376,29.813a1.517,1.517,0,1,1-1.84-1.1,1.422,1.422,0,0,1,.158-.031h0a1.517,1.517,0,0,1,1.681,1.133" fill="#b23f00"/>
            <path id="Trazado_874402" data-name="Trazado 874402" d="M19.376,29.813a1.517,1.517,0,0,1-2.813,1.077h0a1.276,1.276,0,0,0,1.939-.859,1.3,1.3,0,0,0-.808-1.352,1.517,1.517,0,0,1,1.681,1.133" fill="#58111a"/>
            <path id="Trazado_874403" data-name="Trazado 874403" d="M17.456,29.076c.15.109.111.417-.087.688s-.479.4-.629.294-.11-.418.087-.689.48-.4.629-.293" fill="#d96700"/>
            <path id="Trazado_874404" data-name="Trazado 874404" d="M17.2,28.355a1.517,1.517,0,1,1-1.84-1.1,1.422,1.422,0,0,1,.158-.031h0A1.517,1.517,0,0,1,17.2,28.355" fill="#b23f00"/>
            <path id="Trazado_874405" data-name="Trazado 874405" d="M17.2,28.355a1.517,1.517,0,0,1-2.813,1.077h0a1.276,1.276,0,0,0,1.939-.859,1.3,1.3,0,0,0-.808-1.352A1.517,1.517,0,0,1,17.2,28.355" fill="#58111a"/>
            <path id="Trazado_874406" data-name="Trazado 874406" d="M15.286,27.618c.15.109.11.417-.087.688s-.479.4-.629.294-.111-.418.087-.689.479-.4.629-.293" fill="#d96700"/>
            <path id="Trazado_874407" data-name="Trazado 874407" d="M17.886,31.066a1.517,1.517,0,1,1-1.84-1.1,1.469,1.469,0,0,1,.158-.031h0a1.517,1.517,0,0,1,1.681,1.133" fill="#b23f00"/>
            <path id="Trazado_874408" data-name="Trazado 874408" d="M17.886,31.066a1.517,1.517,0,0,1-2.813,1.077h0a1.276,1.276,0,0,0,1.939-.859,1.3,1.3,0,0,0-.808-1.352,1.517,1.517,0,0,1,1.681,1.133" fill="#58111a"/>
            <path id="Trazado_874409" data-name="Trazado 874409" d="M15.967,30.329c.149.109.11.417-.087.688s-.479.4-.629.294-.111-.418.087-.689.479-.4.629-.293" fill="#d96700"/>
            <path id="Trazado_874410" data-name="Trazado 874410" d="M16.126,33.275a1.517,1.517,0,1,1-1.84-1.1,1.469,1.469,0,0,1,.158-.031h0a1.517,1.517,0,0,1,1.681,1.133" fill="#b23f00"/>
            <path id="Trazado_874411" data-name="Trazado 874411" d="M16.126,33.275a1.517,1.517,0,0,1-2.813,1.077h0a1.276,1.276,0,0,0,1.939-.859,1.3,1.3,0,0,0-.808-1.352,1.517,1.517,0,0,1,1.681,1.133" fill="#58111a"/>
            <path id="Trazado_874412" data-name="Trazado 874412" d="M14.207,32.539c.15.109.111.417-.087.688s-.479.4-.629.294-.11-.418.087-.689.479-.4.629-.293" fill="#d96700"/>
            <path id="Trazado_874413" data-name="Trazado 874413" d="M20.052,32.024A1.517,1.517,0,0,1,17.239,33.1a1.477,1.477,0,0,1-.129-.338,1.517,1.517,0,0,1,1.1-1.841,1.422,1.422,0,0,1,.158-.031h0a1.517,1.517,0,0,1,1.681,1.133" fill="#b23f00"/>
            <path id="Trazado_874414" data-name="Trazado 874414" d="M20.052,32.024A1.517,1.517,0,0,1,17.239,33.1h0a1.275,1.275,0,0,0,1.938-.859,1.3,1.3,0,0,0-.807-1.352,1.517,1.517,0,0,1,1.681,1.133" fill="#58111a"/>
            <path id="Trazado_874415" data-name="Trazado 874415" d="M18.133,31.287c.15.109.111.417-.087.688s-.479.4-.629.294-.11-.418.087-.689.479-.4.629-.293" fill="#d96700"/>
            <path id="Trazado_874416" data-name="Trazado 874416" d="M18.457,33.827a1.517,1.517,0,1,1-1.84-1.1,1.47,1.47,0,0,1,.158-.031h0a1.517,1.517,0,0,1,1.681,1.133" fill="#b23f00"/>
            <path id="Trazado_874417" data-name="Trazado 874417" d="M18.457,33.827A1.517,1.517,0,0,1,15.644,34.9h0a1.276,1.276,0,0,0,1.939-.859,1.3,1.3,0,0,0-.808-1.352,1.517,1.517,0,0,1,1.681,1.133" fill="#58111a"/>
            <path id="Trazado_874418" data-name="Trazado 874418" d="M16.538,33.091c.15.109.11.417-.087.688s-.479.4-.629.294-.11-.418.087-.689.479-.4.629-.293" fill="#d96700"/>
            <path id="Trazado_874419" data-name="Trazado 874419" d="M16.649,35.845a1.517,1.517,0,1,1-1.84-1.1,1.469,1.469,0,0,1,.158-.031h0a1.517,1.517,0,0,1,1.681,1.133" fill="#b23f00"/>
            <path id="Trazado_874420" data-name="Trazado 874420" d="M16.649,35.845a1.517,1.517,0,0,1-2.813,1.077h0a1.276,1.276,0,0,0,1.939-.859,1.3,1.3,0,0,0-.808-1.352,1.517,1.517,0,0,1,1.681,1.133" fill="#58111a"/>
            <path id="Trazado_874421" data-name="Trazado 874421" d="M14.73,35.109c.15.109.111.417-.087.688s-.479.4-.629.294-.11-.418.087-.689.48-.4.629-.293" fill="#d96700"/>
            <path id="Trazado_874422" data-name="Trazado 874422" d="M21.06,34.4a1.517,1.517,0,1,1-1.84-1.1,1.469,1.469,0,0,1,.158-.031h0A1.517,1.517,0,0,1,21.06,34.4" fill="#b23f00"/>
            <path id="Trazado_874423" data-name="Trazado 874423" d="M21.06,34.4a1.517,1.517,0,0,1-2.813,1.077h0a1.276,1.276,0,0,0,1.939-.859,1.3,1.3,0,0,0-.808-1.352A1.517,1.517,0,0,1,21.06,34.4" fill="#58111a"/>
            <path id="Trazado_874424" data-name="Trazado 874424" d="M19.141,33.665c.15.109.111.417-.087.688s-.479.4-.629.294-.11-.418.087-.689.48-.4.629-.293" fill="#d96700"/>
            <path id="Trazado_874425" data-name="Trazado 874425" d="M19.137,36.448a1.517,1.517,0,1,1-1.84-1.1,1.422,1.422,0,0,1,.158-.031h0a1.517,1.517,0,0,1,1.681,1.133" fill="#b23f00"/>
            <path id="Trazado_874426" data-name="Trazado 874426" d="M19.137,36.448a1.517,1.517,0,0,1-2.813,1.077h0a1.276,1.276,0,0,0,1.939-.859,1.3,1.3,0,0,0-.808-1.352,1.517,1.517,0,0,1,1.681,1.133" fill="#58111a"/>
            <path id="Trazado_874427" data-name="Trazado 874427" d="M17.218,35.712c.15.109.111.417-.087.688s-.479.4-.629.294-.11-.418.087-.689.479-.4.629-.293" fill="#d96700"/>
            <path id="Trazado_874428" data-name="Trazado 874428" d="M17.2,38.509a1.517,1.517,0,1,1-1.84-1.1,1.422,1.422,0,0,1,.158-.031h0A1.517,1.517,0,0,1,17.2,38.509" fill="#b23f00"/>
            <path id="Trazado_874429" data-name="Trazado 874429" d="M17.2,38.509a1.517,1.517,0,0,1-2.813,1.077h0a1.275,1.275,0,0,0,1.938-.859,1.3,1.3,0,0,0-.807-1.352A1.517,1.517,0,0,1,17.2,38.509" fill="#58111a"/>
            <path id="Trazado_874430" data-name="Trazado 874430" d="M15.277,37.773c.149.109.111.417-.087.688s-.479.4-.629.294-.111-.418.087-.689.479-.4.629-.293" fill="#d96700"/>
            <path id="Trazado_874431" data-name="Trazado 874431" d="M21.563,36.892a1.517,1.517,0,0,1-2.813,1.077,1.477,1.477,0,0,1-.129-.338,1.517,1.517,0,0,1,1.1-1.841,1.422,1.422,0,0,1,.158-.031h0a1.517,1.517,0,0,1,1.681,1.133" fill="#b23f00"/>
            <path id="Trazado_874432" data-name="Trazado 874432" d="M21.563,36.892a1.517,1.517,0,0,1-2.813,1.077h0a1.275,1.275,0,0,0,1.938-.859,1.3,1.3,0,0,0-.807-1.352,1.517,1.517,0,0,1,1.681,1.133" fill="#58111a"/>
            <path id="Trazado_874433" data-name="Trazado 874433" d="M19.644,36.156c.15.109.111.417-.087.688s-.479.4-.629.294-.11-.418.087-.689.479-.4.629-.293" fill="#d96700"/>
            <path id="Trazado_874434" data-name="Trazado 874434" d="M19.8,39.019a1.517,1.517,0,1,1-1.84-1.1,1.469,1.469,0,0,1,.158-.031h0A1.517,1.517,0,0,1,19.8,39.019" fill="#b23f00"/>
            <path id="Trazado_874435" data-name="Trazado 874435" d="M19.8,39.019A1.517,1.517,0,0,1,16.991,40.1h0a1.276,1.276,0,0,0,1.939-.859,1.3,1.3,0,0,0-.808-1.352A1.517,1.517,0,0,1,19.8,39.019" fill="#58111a"/>
            <path id="Trazado_874436" data-name="Trazado 874436" d="M17.885,38.283c.15.109.11.417-.087.688s-.479.4-.629.294-.111-.418.087-.689.479-.4.629-.293" fill="#d96700"/>
            <path id="Trazado_874437" data-name="Trazado 874437" d="M18.087,41.087a1.517,1.517,0,1,1-1.84-1.1,1.469,1.469,0,0,1,.158-.031h0a1.517,1.517,0,0,1,1.681,1.133" fill="#b23f00"/>
            <path id="Trazado_874438" data-name="Trazado 874438" d="M18.087,41.087a1.517,1.517,0,0,1-2.813,1.077h0a1.276,1.276,0,0,0,1.939-.859,1.3,1.3,0,0,0-.808-1.352,1.517,1.517,0,0,1,1.681,1.133" fill="#58111a"/>
            <path id="Trazado_874439" data-name="Trazado 874439" d="M16.167,40.351c.15.109.111.417-.087.688s-.479.4-.629.294-.11-.418.087-.689.479-.4.629-.293" fill="#d96700"/>
            <path id="Trazado_874440" data-name="Trazado 874440" d="M22.013,39.836a1.517,1.517,0,1,1-1.84-1.1,1.469,1.469,0,0,1,.158-.031h0a1.517,1.517,0,0,1,1.681,1.133" fill="#b23f00"/>
            <path id="Trazado_874441" data-name="Trazado 874441" d="M22.013,39.836A1.517,1.517,0,0,1,19.2,40.913h0a1.275,1.275,0,0,0,1.938-.859,1.3,1.3,0,0,0-.807-1.352,1.517,1.517,0,0,1,1.681,1.133" fill="#58111a"/>
            <path id="Trazado_874442" data-name="Trazado 874442" d="M20.094,39.1c.15.109.111.417-.087.688s-.479.4-.629.294-.11-.418.087-.689.48-.4.629-.293" fill="#d96700"/>
            <path id="Trazado_874443" data-name="Trazado 874443" d="M20.417,41.64a1.517,1.517,0,1,1-1.84-1.1,1.47,1.47,0,0,1,.158-.031h0a1.517,1.517,0,0,1,1.681,1.133" fill="#b23f00"/>
            <path id="Trazado_874444" data-name="Trazado 874444" d="M20.417,41.64A1.517,1.517,0,0,1,17.6,42.717h0a1.276,1.276,0,0,0,1.939-.859,1.3,1.3,0,0,0-.808-1.352,1.517,1.517,0,0,1,1.681,1.133" fill="#58111a"/>
            <path id="Trazado_874445" data-name="Trazado 874445" d="M18.5,40.9c.15.109.111.417-.087.688s-.479.4-.629.294-.11-.418.087-.689.479-.4.629-.293" fill="#d96700"/>
            <path id="Trazado_874446" data-name="Trazado 874446" d="M18.61,43.657a1.517,1.517,0,1,1-1.84-1.1,1.422,1.422,0,0,1,.158-.031h0a1.517,1.517,0,0,1,1.681,1.133" fill="#b23f00"/>
            <path id="Trazado_874447" data-name="Trazado 874447" d="M18.61,43.657A1.517,1.517,0,0,1,15.8,44.734h0a1.275,1.275,0,0,0,1.938-.859,1.3,1.3,0,0,0-.807-1.352,1.517,1.517,0,0,1,1.681,1.133" fill="#58111a"/>
            <path id="Trazado_874448" data-name="Trazado 874448" d="M16.69,42.921c.15.109.11.417-.087.688s-.479.4-.629.294-.11-.418.087-.689.479-.4.629-.293" fill="#d96700"/>
            <path id="Trazado_874449" data-name="Trazado 874449" d="M23.021,42.214a1.517,1.517,0,1,1-1.84-1.1,1.469,1.469,0,0,1,.158-.031h0a1.517,1.517,0,0,1,1.681,1.133" fill="#b23f00"/>
            <path id="Trazado_874450" data-name="Trazado 874450" d="M23.021,42.214a1.517,1.517,0,0,1-2.813,1.077h0a1.276,1.276,0,0,0,1.939-.859,1.3,1.3,0,0,0-.808-1.352,1.517,1.517,0,0,1,1.681,1.133" fill="#58111a"/>
            <path id="Trazado_874451" data-name="Trazado 874451" d="M21.1,41.477c.15.109.11.417-.087.688s-.479.4-.629.294-.11-.418.087-.689.479-.4.629-.293" fill="#d96700"/>
            <path id="Trazado_874452" data-name="Trazado 874452" d="M18.96,46.025a1.517,1.517,0,1,1-1.84-1.1,1.422,1.422,0,0,1,.158-.031h0a1.517,1.517,0,0,1,1.681,1.133" fill="#b23f00"/>
            <path id="Trazado_874453" data-name="Trazado 874453" d="M18.96,46.025A1.517,1.517,0,0,1,16.147,47.1h0a1.276,1.276,0,0,0,1.939-.859,1.3,1.3,0,0,0-.808-1.352,1.517,1.517,0,0,1,1.681,1.133" fill="#58111a"/>
            <path id="Trazado_874454" data-name="Trazado 874454" d="M17.041,45.288c.148.109.11.417-.088.688s-.478.4-.629.294-.111-.418.087-.689.479-.4.63-.293" fill="#d96700"/>
            <path id="Trazado_874455" data-name="Trazado 874455" d="M21.166,44.243a1.517,1.517,0,1,1-1.84-1.1,1.469,1.469,0,0,1,.158-.031h0a1.517,1.517,0,0,1,1.681,1.133" fill="#b23f00"/>
            <path id="Trazado_874456" data-name="Trazado 874456" d="M21.166,44.243a1.517,1.517,0,0,1-2.813,1.077h0a1.276,1.276,0,0,0,1.939-.859,1.3,1.3,0,0,0-.808-1.352,1.517,1.517,0,0,1,1.681,1.133" fill="#58111a"/>
            <path id="Trazado_874457" data-name="Trazado 874457" d="M19.247,43.507c.149.109.111.417-.087.688s-.479.4-.629.294-.111-.418.087-.689.479-.4.629-.293" fill="#d96700"/>
            <path id="Trazado_874458" data-name="Trazado 874458" d="M21.721,46.543a1.517,1.517,0,1,1-1.84-1.1,1.451,1.451,0,0,1,.157-.031h0a1.519,1.519,0,0,1,1.682,1.133" fill="#b23f00"/>
            <path id="Trazado_874459" data-name="Trazado 874459" d="M21.721,46.543a1.518,1.518,0,0,1-2.814,1.077h0a1.275,1.275,0,0,0,1.938-.859,1.3,1.3,0,0,0-.808-1.352,1.519,1.519,0,0,1,1.682,1.133" fill="#58111a"/>
            <path id="Trazado_874460" data-name="Trazado 874460" d="M19.8,45.806c.149.109.11.417-.087.688s-.48.4-.629.294-.111-.418.087-.689.479-.4.629-.293" fill="#d96700"/>
            <path id="Trazado_874461" data-name="Trazado 874461" d="M23.762,44.13a1.517,1.517,0,1,1-1.84-1.1A1.469,1.469,0,0,1,22.08,43h0a1.517,1.517,0,0,1,1.681,1.133" fill="#b23f00"/>
            <path id="Trazado_874462" data-name="Trazado 874462" d="M23.762,44.13a1.517,1.517,0,0,1-2.813,1.077h0a1.276,1.276,0,0,0,1.939-.859A1.3,1.3,0,0,0,22.081,43a1.517,1.517,0,0,1,1.681,1.133" fill="#58111a"/>
            <path id="Trazado_874463" data-name="Trazado 874463" d="M21.843,43.394c.15.109.111.417-.087.688s-.479.4-.629.294-.11-.418.087-.689.48-.4.629-.293" fill="#d96700"/>
            <path id="Trazado_874464" data-name="Trazado 874464" d="M20.444,48.506a1.517,1.517,0,1,1-1.84-1.1,1.422,1.422,0,0,1,.158-.031h0a1.517,1.517,0,0,1,1.681,1.133" fill="#b23f00"/>
            <path id="Trazado_874465" data-name="Trazado 874465" d="M20.444,48.506a1.517,1.517,0,0,1-2.813,1.077h0a1.275,1.275,0,0,0,1.938-.859,1.3,1.3,0,0,0-.807-1.352,1.517,1.517,0,0,1,1.681,1.133" fill="#58111a"/>
            <path id="Trazado_874466" data-name="Trazado 874466" d="M18.525,47.769c.15.109.111.417-.087.688s-.479.4-.629.294-.11-.418.087-.689.479-.4.629-.293" fill="#d96700"/>
            <path id="Trazado_874467" data-name="Trazado 874467" d="M24.108,46.213a1.517,1.517,0,1,1-1.84-1.1,1.422,1.422,0,0,1,.158-.031h0a1.517,1.517,0,0,1,1.681,1.133" fill="#b23f00"/>
            <path id="Trazado_874468" data-name="Trazado 874468" d="M24.108,46.213A1.517,1.517,0,0,1,21.3,47.29h0a1.276,1.276,0,0,0,1.939-.859,1.3,1.3,0,0,0-.808-1.352,1.517,1.517,0,0,1,1.681,1.133" fill="#58111a"/>
            <path id="Trazado_874469" data-name="Trazado 874469" d="M22.189,45.477c.15.109.111.417-.087.688s-.479.4-.629.294-.11-.418.087-.689.479-.4.629-.293" fill="#d96700"/>
            <path id="Trazado_874470" data-name="Trazado 874470" d="M23.12,48.506a1.517,1.517,0,1,1-1.84-1.1,1.469,1.469,0,0,1,.158-.031h0a1.517,1.517,0,0,1,1.681,1.133" fill="#b23f00"/>
            <path id="Trazado_874471" data-name="Trazado 874471" d="M23.12,48.506a1.517,1.517,0,0,1-2.813,1.077h0a1.276,1.276,0,0,0,1.939-.859,1.3,1.3,0,0,0-.808-1.352,1.517,1.517,0,0,1,1.681,1.133" fill="#58111a"/>
            <path id="Trazado_874472" data-name="Trazado 874472" d="M21.2,47.77c.148.109.109.417-.088.688s-.48.4-.629.294-.111-.418.087-.689.479-.4.63-.293" fill="#d96700"/>
            <g id="Grupo_1099835" data-name="Grupo 1099835" opacity="0.5" style="mix-blend-mode: multiply;isolation: isolate">
              <g id="Grupo_1099834" data-name="Grupo 1099834">
                <g id="Grupo_1099833" data-name="Grupo 1099833" clip-path="url(#clip-path-21)">
                  <path id="Trazado_874473" data-name="Trazado 874473" d="M26.975,73.714C15.983,76.474,6.64,71.681,2.414,63.959c3.4,4.529,8.962,7.364,11.434,7.7,7.972,1.079,18.5-5.981,19.988-15.272,1.913-11.929-8.317-18.929-11.893-32.166S11.9,9.148,11.9,9.148q.169-.207.34-.4c.071-.083.143-.163.216-.243a10.691,10.691,0,0,1,7.119,2.564c2.266,1.743,4.469,4.731,5.921,9.79,1.4,4.9,2.731,7.857,4.114,9.932,2.454,3.083,5.169,4.011,8.916,8.75.144.183.284.366.42.552q.363.429.739.9c8.942,11.309,3.732,28.59-12.71,32.718" fill="#ff7f00"/>
                </g>
              </g>
            </g>
            <g id="Grupo_1099838" data-name="Grupo 1099838" opacity="0.5">
              <g id="Grupo_1099837" data-name="Grupo 1099837">
                <g id="Grupo_1099836" data-name="Grupo 1099836" clip-path="url(#clip-path-22)">
                  <path id="Trazado_874474" data-name="Trazado 874474" d="M8.507,64.2S-.322,55.612,3.231,46.1c3.8-10.167,3.255-13.481,2.592-17.325C5.482,26.8,1.685,14.219,10.41,10.029c0,0-6.254,5.618-3.482,15.41,2.907,10.272-.043,13.732-2.12,20.266-2.422,7.62.637,12.753,3.7,18.5" fill="#ff9a24"/>
                </g>
              </g>
            </g>
          </g>
        </g>
      </g>
    </g>
  </g>
</svg>
