<svg xmlns="http://www.w3.org/2000/svg" width="87" height="87" viewBox="0 0 87 87">
  <g id="Grupo_1099599" data-name="Grupo 1099599" transform="translate(-1215.333 -429)">
    <g id="Elipse_11502" data-name="Elipse 11502" transform="translate(1215.333 429)" fill="#f9a545" stroke="#fff" stroke-width="5">
      <circle cx="43.5" cy="43.5" r="43.5" stroke="none"/>
      <circle cx="43.5" cy="43.5" r="41" fill="none"/>
    </g>
    <g id="reshot-icon-dishes-TBDKN36ULZ" transform="translate(1240.113 450.783)">
      <path id="Trazado_873628" data-name="Trazado 873628" d="M255.087,8.323v.823a.825.825,0,0,1-.826.823h-.139l-.273,7.634a1.645,1.645,0,0,1-.425,1.046l-1.089,1.2-1.763,29.036a.825.825,0,0,1-.824.774h-12.48a.825.825,0,0,1-.824-.777l-1.655-29.033-1.158-1.189a1.644,1.644,0,0,1-.466-1.1l-.242-7.6h-.129a.825.825,0,0,1-.826-.823V8.323a.825.825,0,0,1,.826-.823h21.469A.825.825,0,0,1,255.087,8.323Z" transform="translate(-212.289 -6.864)" fill="#c1e9fd"/>
      <path id="Trazado_873629" data-name="Trazado 873629" d="M255.087,8.324v.823a.825.825,0,0,1-.826.823h-.139l-.273,7.634a1.645,1.645,0,0,1-.425,1.046l-1.089,1.2-1.763,29.036a.825.825,0,0,1-.824.774h-2.585a.825.825,0,0,0,.824-.774l1.763-29.036,1.089-1.2a1.646,1.646,0,0,0,.426-1.047l.218-6.091a1.49,1.49,0,0,0-1.489-1.543h-17.2a.825.825,0,0,1-.826-.823V8.324a.825.825,0,0,1,.826-.823h21.468A.824.824,0,0,1,255.087,8.324Z" transform="translate(-212.289 -6.865)" fill="#a4e0f7"/>
      <path id="Trazado_873630" data-name="Trazado 873630" d="M21.537,13.947v1.1A6.447,6.447,0,0,1,15.09,21.5H13.947A6.447,6.447,0,0,1,7.5,15.052V7.5h7.59A6.447,6.447,0,0,1,21.537,13.947Z" transform="translate(-6.864 -6.864)" fill="#8eb55e"/>
      <path id="Trazado_873631" data-name="Trazado 873631" d="M22.363,184.691a14.823,14.823,0,1,1,14.863-14.823A14.843,14.843,0,0,1,22.363,184.691Z" transform="translate(-6.864 -141.893)" fill="#f9e1a2"/>
      <path id="Trazado_873632" data-name="Trazado 873632" d="M84.716,241.113a9.058,9.058,0,1,1,9.083-9.058A9.071,9.071,0,0,1,84.716,241.113Z" transform="translate(-69.217 -204.079)" fill="#eacc8f"/>
      <path id="Trazado_873633" data-name="Trazado 873633" d="M182.567,232.055a9.07,9.07,0,0,1-9.083,9.058c-.288,0-.573-.014-.854-.04a9.056,9.056,0,0,0,0-18.036c.281-.026.566-.04.854-.04A9.07,9.07,0,0,1,182.567,232.055Z" transform="translate(-157.985 -204.079)" fill="#d8b77c"/>
      <path id="Trazado_873634" data-name="Trazado 873634" d="M33.751,39.152a.636.636,0,0,1-.61-.661L33.967,17.9a.636.636,0,0,1,1.271.051l-.826,20.587a.636.636,0,0,1-.635.611ZM41.973,0H20.5a1.462,1.462,0,0,0-1.462,1.46v.823a1.462,1.462,0,0,0,.972,1.376l.225,7.065a2.276,2.276,0,0,0,.646,1.519l.992,1.019.036.635a15.46,15.46,0,0,0-6.415-1.38,15.66,15.66,0,0,0-1.929.119l-2.223-2.217V7.274a.636.636,0,1,0-1.272,0V9.15L8.153,7.234V4.919a.636.636,0,0,0-1.272,0V5.965L3.4,2.491a.636.636,0,1,0-.9.9L6,6.88H4.643a.636.636,0,0,0,0,1.272H7.272l1.9,1.894H6.939a.636.636,0,1,0,0,1.272h3.508l1.591,1.586A15.464,15.464,0,1,0,28.122,36.936l.064,1.605a.636.636,0,1,0,1.271-.051l-.141-3.517a15.415,15.415,0,0,0-.615-15.1c0-.012,0-.025,0-.037l-.069-1.929a.636.636,0,0,0-1.272.046l0,.074a15.674,15.674,0,0,0-1.252-1.317.636.636,0,0,0-.87.928,14.035,14.035,0,0,1,4.484,10.338,14.208,14.208,0,1,1-6.01-11.583.636.636,0,1,0,.734-1.039q-.6-.421-1.224-.782l-.054-.947H33.281a.636.636,0,0,0,0-1.272H22.768l-.971-1a1.006,1.006,0,0,1-.286-.671L21.29,3.743H36.142a.636.636,0,1,0,0-1.272H20.5a.189.189,0,0,1-.189-.187V1.46a.189.189,0,0,1,.189-.187H41.973a.189.189,0,0,1,.189.187v.823a.189.189,0,0,1-.189.187H38.619a.636.636,0,1,0,0,1.272h2.555l-.25,6.976a1.01,1.01,0,0,1-.261.641l-1.089,1.2a.637.637,0,0,0-.164.389L37.647,41.986a.189.189,0,0,1-.189.176H24.978a.188.188,0,0,1-.189-.177.636.636,0,1,0-1.271.072,1.462,1.462,0,0,0,1.46,1.377h12.48a1.463,1.463,0,0,0,1.459-1.371L40.666,13.25l.939-1.036a2.284,2.284,0,0,0,.59-1.45l.254-7.1a1.462,1.462,0,0,0,.985-1.38V1.46A1.462,1.462,0,0,0,41.973,0ZM5.409,15.108a.636.636,0,1,0,.275-1.242A5.659,5.659,0,0,1,1.272,8.377v-7.1H8.4a5.637,5.637,0,0,1,5.639,5.622V8.377a5.585,5.585,0,0,1-.37,2.008.636.636,0,0,0,1.188.456,6.849,6.849,0,0,0,.455-2.464V6.895A6.911,6.911,0,0,0,8.4,0H.636A.636.636,0,0,0,0,.636V8.377a6.9,6.9,0,0,0,5.409,6.731ZM18.392,32.545a.636.636,0,1,0,.819.974,7.035,7.035,0,0,0,0-11.087.636.636,0,1,0-.819.974,5.765,5.765,0,0,1,0,9.139Zm-7.651,2.39a.636.636,0,0,0-.716,1.052,9.7,9.7,0,1,0-1.773-1.551.636.636,0,1,0,.947-.85,8.443,8.443,0,1,1,1.542,1.349Z"/>
    </g>
  </g>
</svg>
