<svg xmlns="http://www.w3.org/2000/svg" width="22.555" height="28.238" viewBox="0 0 22.555 28.238">
  <g id="apple3" transform="translate(-51.52 -0.003)">
    <path id="Trazado_873642" data-name="Trazado 873642" d="M288.265,23.227a6.83,6.83,0,0,1-2.426-.53l-.346-.141.054-.369c.118-.8.537-2.742,1.891-3.516A3.114,3.114,0,0,1,289,18.3a6.831,6.831,0,0,1,2.426.53l.346.141-.054.369c-.118.8-.537,2.742-1.891,3.516A3.113,3.113,0,0,1,288.265,23.227Z" transform="translate(-221.07 -17.285)" fill="#9dbf81"/>
    <path id="Trazado_873643" data-name="Trazado 873643" d="M290.113,25.3a6.83,6.83,0,0,1-2.426-.53l-.346-.141.054-.369a7.917,7.917,0,0,1,.262-1.16c-.075.034-.148.069-.218.109-1.354.774-1.773,2.716-1.891,3.516l-.054.369.346.141a6.831,6.831,0,0,0,2.426.53,3.114,3.114,0,0,0,1.563-.375,4,4,0,0,0,1.629-2.356A3.251,3.251,0,0,1,290.113,25.3Z" transform="translate(-221.07 -21.827)" fill="#b4ea87"/>
    <path id="Trazado_873644" data-name="Trazado 873644" d="M71.922,157.166a5.987,5.987,0,0,1-2.016-.346,5.987,5.987,0,0,1-2.016.346c-3.322,0-6.738-2.949-8.123-7.011-1.273-3.737-.869-7.866,1.03-10.519a6.288,6.288,0,0,1,5.3-2.741,6.634,6.634,0,0,1,2.606.544l.279.118,2.007-.069.272-.109a6.61,6.61,0,0,1,2.463-.485,6.288,6.288,0,0,1,5.3,2.741c1.9,2.653,2.3,6.782,1.029,10.519C78.661,154.217,75.245,157.166,71.922,157.166Z" transform="translate(-7.098 -129.341)" fill="#b4ea87"/>
    <path id="Trazado_873645" data-name="Trazado 873645" d="M75.05,155.532c-3.322,0-6.738-2.949-8.122-7.011-1.273-3.737-.869-7.866,1.03-10.519a7.36,7.36,0,0,1,.524-.651,6.589,6.589,0,0,0-2.386-.455,6.288,6.288,0,0,0-5.3,2.741c-1.9,2.653-2.3,6.782-1.029,10.519,1.384,4.063,4.8,7.011,8.122,7.011a5.987,5.987,0,0,0,2.016-.346,5.986,5.986,0,0,0,2.016.346,7.37,7.37,0,0,0,4.588-1.814A6.019,6.019,0,0,1,75.05,155.532Z" transform="translate(-7.099 -129.342)" fill="#9dbf81"/>
    <path id="Trazado_873646" data-name="Trazado 873646" d="M235.561,22.627c-.072,0-.143,0-.212-.007l-.041,0-.04-.01a.9.9,0,0,1-.672-.77l0-.018-.317-9.032a.44.44,0,0,1,.276-.424l2.085-.834a.44.44,0,0,1,.6.447l-.863,9.841a.9.9,0,0,1-.734.8l-.041.007h-.042Z" transform="translate(-172.678 -10.86)" fill="#f9a545"/>
    <path id="Trazado_873647" data-name="Trazado 873647" d="M236.476,28.485a.9.9,0,0,1-.672-.77l0-.018-.267-7.619-.982.393a.44.44,0,0,0-.276.424l.317,9.032,0,.018a.9.9,0,0,0,.672.77l.04.01.041,0c.069,0,.14.007.212.007h.042l.041-.007a.9.9,0,0,0,.734-.8l.126-1.434Z" transform="translate(-172.677 -18.969)" fill="#fddbb4"/>
    <path id="Trazado_873648" data-name="Trazado 873648" d="M73.63,16.7a.446.446,0,0,0-.444.423,13.343,13.343,0,0,1-.69,3.543c-1.321,3.876-4.547,6.689-7.672,6.689a5.512,5.512,0,0,1-1.866-.322.446.446,0,0,0-.3,0,5.511,5.511,0,0,1-1.866.322c-3.125,0-6.352-2.813-7.672-6.689-1.226-3.6-.846-7.557.966-10.089A5.829,5.829,0,0,1,59,8.029a6.146,6.146,0,0,1,2.42.506l.084,2.379a3.581,3.581,0,0,1-.754-.542.446.446,0,0,0-.63.631,4.638,4.638,0,0,0,1.661,1,3.634,3.634,0,0,0,.881.178,1.345,1.345,0,0,0,.152.009h.026l.065,0A3.618,3.618,0,0,0,65.5,11a.446.446,0,0,0-.012-.642.456.456,0,0,0-.627.02,3.517,3.517,0,0,1-.745.575l.217-2.477a6.119,6.119,0,0,1,2.286-.451,5.829,5.829,0,0,1,4.91,2.543,9.352,9.352,0,0,1,1.57,4.2.444.444,0,0,0,.44.387h0a.444.444,0,0,0,.44-.5,10.249,10.249,0,0,0-1.724-4.6,6.689,6.689,0,0,0-5.635-2.915,6.938,6.938,0,0,0-2.2.36l.151-1.716a7.209,7.209,0,0,0,2.622.575,3.54,3.54,0,0,0,1.771-.427C70.86,4.846,71.1,1.866,71.106,1.74a.446.446,0,0,0-.247-.432c-.113-.056-2.8-1.366-4.7-.283A3.565,3.565,0,0,0,64.87,2.379L65.035.5a.458.458,0,0,0-.077-.306.447.447,0,0,0-.532-.159L61.453,1.224a.446.446,0,0,0-.28.43l.207,5.909A6.961,6.961,0,0,0,59,7.137a6.689,6.689,0,0,0-5.635,2.915c-1.974,2.759-2.4,7.036-1.085,10.9a11.863,11.863,0,0,0,3.552,5.312,7.894,7.894,0,0,0,4.965,1.981,6.408,6.408,0,0,0,2.016-.322,6.409,6.409,0,0,0,2.016.322,7.9,7.9,0,0,0,4.965-1.981,11.863,11.863,0,0,0,3.552-5.312,14.185,14.185,0,0,0,.734-3.788.444.444,0,0,0-.444-.465ZM66.605,1.8c1.176-.672,2.9-.091,3.574.183-.106.72-.481,2.5-1.656,3.172s-2.9.091-3.574-.183C65.055,4.252,65.43,2.471,66.605,1.8Zm-2.521-.668-.858,9.783a.417.417,0,0,1-.343.376q-.09,0-.178-.006a.416.416,0,0,1-.314-.36l-.316-8.99Z" transform="translate(0 0)"/>
  </g>
</svg>
