<svg xmlns="http://www.w3.org/2000/svg" xmlns:xlink="http://www.w3.org/1999/xlink" width="319.167" height="408.152" viewBox="0 0 319.167 408.152">
  <defs>
    <clipPath id="clip-path">
      <rect id="Rectángulo_401735" data-name="Rectángulo 401735" width="172.379" height="408.152" fill="none"/>
    </clipPath>
    <clipPath id="clip-path-2">
      <path id="Trazado_874353" data-name="Trazado 874353" d="M135.975,137.962H1.986c-1.1,0-1.986-2.315-1.986-5.17V5.17C0,2.315.889,0,1.986,0h133.99c1.1,0,1.986,2.315,1.986,5.17V132.792C137.961,135.647,137.072,137.962,135.975,137.962Z" fill="#e6f2e9" stroke="#707070" stroke-width="1"/>
    </clipPath>
    <clipPath id="clip-path-3">
      <rect id="Rectángulo_401302" data-name="Rectángulo 401302" width="30.574" height="26.483" fill="none"/>
    </clipPath>
    <clipPath id="clip-path-4">
      <rect id="Rectángulo_401302-2" data-name="Rectángulo 401302" width="26.291" height="22.772" fill="none"/>
    </clipPath>
    <clipPath id="clip-path-5">
      <rect id="Rectángulo_401302-3" data-name="Rectángulo 401302" width="33.761" height="29.243" fill="none"/>
    </clipPath>
  </defs>
  <g id="Grupo_1100043" data-name="Grupo 1100043" transform="translate(-306 -560.848)">
    <circle id="Elipse_11526" data-name="Elipse 11526" cx="122.572" cy="122.572" r="122.572" transform="translate(380.023 703.033)" fill="#f1e7c2"/>
    <path id="Rectángulo_401329" data-name="Rectángulo 401329" d="M200,0h89.826a0,0,0,0,1,0,0V389.92a0,0,0,0,1,0,0H0a0,0,0,0,1,0,0V200A200,200,0,0,1,200,0Z" transform="translate(306 579.08)" fill="#f9a545"/>
    <g id="Grupo_1099383" data-name="Grupo 1099383" transform="translate(575.914 613.154) rotate(90)">
      <path id="Trazado_873218" data-name="Trazado 873218" d="M0,1.2A1.237,1.237,0,0,1,.3.342,1.16,1.16,0,0,1,1.217,0a1.2,1.2,0,0,1,.924.342,1.212,1.212,0,0,1,.315.854,1.147,1.147,0,0,1-.315.822,1.216,1.216,0,0,1-.924.331A1.18,1.18,0,0,1,.3,2.018,1.169,1.169,0,0,1,0,1.2Zm11.171,0a1.237,1.237,0,0,1,.3-.854A1.16,1.16,0,0,1,12.389,0a1.2,1.2,0,0,1,.924.342,1.212,1.212,0,0,1,.315.854,1.147,1.147,0,0,1-.315.822,1.216,1.216,0,0,1-.924.331,1.18,1.18,0,0,1-.913-.331A1.169,1.169,0,0,1,11.171,1.2Zm11.171,0a1.237,1.237,0,0,1,.3-.854A1.16,1.16,0,0,1,23.56,0a1.2,1.2,0,0,1,.924.342A1.212,1.212,0,0,1,24.8,1.2a1.147,1.147,0,0,1-.315.822,1.216,1.216,0,0,1-.924.331,1.18,1.18,0,0,1-.913-.331A1.169,1.169,0,0,1,22.342,1.2Zm11.171,0a1.237,1.237,0,0,1,.3-.854A1.16,1.16,0,0,1,34.731,0a1.2,1.2,0,0,1,.924.342,1.212,1.212,0,0,1,.315.854,1.147,1.147,0,0,1-.315.822,1.216,1.216,0,0,1-.924.331,1.18,1.18,0,0,1-.913-.331A1.169,1.169,0,0,1,33.513,1.2Zm11.171,0a1.237,1.237,0,0,1,.3-.854A1.16,1.16,0,0,1,45.9,0a1.2,1.2,0,0,1,.924.342,1.212,1.212,0,0,1,.315.854,1.147,1.147,0,0,1-.315.822,1.216,1.216,0,0,1-.924.331,1.18,1.18,0,0,1-.913-.331A1.169,1.169,0,0,1,44.684,1.2Zm11.171,0a1.237,1.237,0,0,1,.3-.854A1.16,1.16,0,0,1,57.073,0,1.2,1.2,0,0,1,58,.342a1.212,1.212,0,0,1,.315.854A1.147,1.147,0,0,1,58,2.018a1.216,1.216,0,0,1-.924.331,1.18,1.18,0,0,1-.913-.331A1.169,1.169,0,0,1,55.855,1.2Z" fill="#5f6e62"/>
      <path id="Trazado_873216" data-name="Trazado 873216" d="M0,1.2A1.237,1.237,0,0,1,.3.342,1.16,1.16,0,0,1,1.217,0a1.2,1.2,0,0,1,.924.342,1.212,1.212,0,0,1,.315.854,1.147,1.147,0,0,1-.315.822,1.216,1.216,0,0,1-.924.331A1.18,1.18,0,0,1,.3,2.018,1.169,1.169,0,0,1,0,1.2Zm11.171,0a1.237,1.237,0,0,1,.3-.854A1.16,1.16,0,0,1,12.389,0a1.2,1.2,0,0,1,.924.342,1.212,1.212,0,0,1,.315.854,1.147,1.147,0,0,1-.315.822,1.216,1.216,0,0,1-.924.331,1.18,1.18,0,0,1-.913-.331A1.169,1.169,0,0,1,11.171,1.2Zm11.171,0a1.237,1.237,0,0,1,.3-.854A1.16,1.16,0,0,1,23.56,0a1.2,1.2,0,0,1,.924.342A1.212,1.212,0,0,1,24.8,1.2a1.147,1.147,0,0,1-.315.822,1.216,1.216,0,0,1-.924.331,1.18,1.18,0,0,1-.913-.331A1.169,1.169,0,0,1,22.342,1.2Zm11.171,0a1.237,1.237,0,0,1,.3-.854A1.16,1.16,0,0,1,34.731,0a1.2,1.2,0,0,1,.924.342,1.212,1.212,0,0,1,.315.854,1.147,1.147,0,0,1-.315.822,1.216,1.216,0,0,1-.924.331,1.18,1.18,0,0,1-.913-.331A1.169,1.169,0,0,1,33.513,1.2Zm11.171,0a1.237,1.237,0,0,1,.3-.854A1.16,1.16,0,0,1,45.9,0a1.2,1.2,0,0,1,.924.342,1.212,1.212,0,0,1,.315.854,1.147,1.147,0,0,1-.315.822,1.216,1.216,0,0,1-.924.331,1.18,1.18,0,0,1-.913-.331A1.169,1.169,0,0,1,44.684,1.2Zm11.171,0a1.237,1.237,0,0,1,.3-.854A1.16,1.16,0,0,1,57.073,0,1.2,1.2,0,0,1,58,.342a1.212,1.212,0,0,1,.315.854A1.147,1.147,0,0,1,58,2.018a1.216,1.216,0,0,1-.924.331,1.18,1.18,0,0,1-.913-.331A1.169,1.169,0,0,1,55.855,1.2Z" transform="translate(0 8.263)" fill="#5f6e62"/>
      <path id="Trazado_873217" data-name="Trazado 873217" d="M0,1.2A1.237,1.237,0,0,1,.3.342,1.16,1.16,0,0,1,1.217,0a1.2,1.2,0,0,1,.924.342,1.212,1.212,0,0,1,.315.854,1.147,1.147,0,0,1-.315.822,1.216,1.216,0,0,1-.924.331A1.18,1.18,0,0,1,.3,2.018,1.169,1.169,0,0,1,0,1.2Zm11.171,0a1.237,1.237,0,0,1,.3-.854A1.16,1.16,0,0,1,12.389,0a1.2,1.2,0,0,1,.924.342,1.212,1.212,0,0,1,.315.854,1.147,1.147,0,0,1-.315.822,1.216,1.216,0,0,1-.924.331,1.18,1.18,0,0,1-.913-.331A1.169,1.169,0,0,1,11.171,1.2Zm11.171,0a1.237,1.237,0,0,1,.3-.854A1.16,1.16,0,0,1,23.56,0a1.2,1.2,0,0,1,.924.342A1.212,1.212,0,0,1,24.8,1.2a1.147,1.147,0,0,1-.315.822,1.216,1.216,0,0,1-.924.331,1.18,1.18,0,0,1-.913-.331A1.169,1.169,0,0,1,22.342,1.2Zm11.171,0a1.237,1.237,0,0,1,.3-.854A1.16,1.16,0,0,1,34.731,0a1.2,1.2,0,0,1,.924.342,1.212,1.212,0,0,1,.315.854,1.147,1.147,0,0,1-.315.822,1.216,1.216,0,0,1-.924.331,1.18,1.18,0,0,1-.913-.331A1.169,1.169,0,0,1,33.513,1.2Zm11.171,0a1.237,1.237,0,0,1,.3-.854A1.16,1.16,0,0,1,45.9,0a1.2,1.2,0,0,1,.924.342,1.212,1.212,0,0,1,.315.854,1.147,1.147,0,0,1-.315.822,1.216,1.216,0,0,1-.924.331,1.18,1.18,0,0,1-.913-.331A1.169,1.169,0,0,1,44.684,1.2Zm11.171,0a1.237,1.237,0,0,1,.3-.854A1.16,1.16,0,0,1,57.073,0,1.2,1.2,0,0,1,58,.342a1.212,1.212,0,0,1,.315.854A1.147,1.147,0,0,1,58,2.018a1.216,1.216,0,0,1-.924.331,1.18,1.18,0,0,1-.913-.331A1.169,1.169,0,0,1,55.855,1.2Z" transform="translate(0 16.04)" fill="#5f6e62"/>
    </g>
    <g id="Grupo_1099951" data-name="Grupo 1099951" transform="translate(365.146 560.848)">
      <g id="Grupo_1099950" data-name="Grupo 1099950" clip-path="url(#clip-path)">
        <path id="Trazado_874944" data-name="Trazado 874944" d="M177.594,394.361a125.634,125.634,0,0,1-4.877,24.857c-3.832,11.847-5.309,14.072-5.309,14.072s-18.479-45.988,10.187-38.929" transform="translate(-11.494 -28.007)" fill="#ff9f87"/>
        <path id="Trazado_874945" data-name="Trazado 874945" d="M162.472,436.513,169.61,398.6l-66.688,2.262-3.134,35.646Z" transform="translate(-7.1 -28.361)" fill="#21191b"/>
        <path id="Trazado_874946" data-name="Trazado 874946" d="M108,435.5c5.343-18.732,9.116-31.923,9.116-31.923L45.479,384.435,37.863,435.5Z" transform="translate(-2.694 -27.353)" fill="#21191b"/>
        <path id="Trazado_874947" data-name="Trazado 874947" d="M50.63,436.07,56.9,393.923a1.352,1.352,0,0,0-2.674-.4L47.9,436.07Z" transform="translate(-3.408 -27.918)" fill="#3f3538"/>
        <path id="Trazado_874948" data-name="Trazado 874948" d="M175.279,381.209a8.131,8.131,0,0,0,6.343-6.735c3.506-22.891.837-66.955-3.37-96.7C170.3,221.538,159.736,140,159.736,140c-7.006,37.9-11.3,193.379-.525,239.207,5.623,2.19,11.015,3.061,16.068,2" transform="translate(-10.864 -9.961)" fill="#fef5eb"/>
        <path id="Trazado_874949" data-name="Trazado 874949" d="M163.2,330.121q-.311-3.242-.62-6.534c-.08-.774-.149-1.547-.221-2.32-.2-2.067-.4-4.145-.6-6.216q-.153-1.6-.3-3.191c-.1-1.117-.214-2.23-.309-3.337-.058-.616-.111-1.24-.169-1.856-.053-.567-.1-1.133-.149-1.706-.125-1.344-.243-2.687-.348-4.022-.037-.348-.065-.7-.095-1.05s-.054-.711-.086-1.059q-.23-2.766-.43-5.472c-.067-.9-.132-1.794-.19-2.678-.053-.721-.1-1.435-.144-2.147-.014-.222-.025-.446-.042-.668-.025-.443-.053-.885-.078-1.324-.046-.721-.091-1.447-.128-2.163-.03-.615-.062-1.23-.088-1.833-.037-.733-.074-1.453-.107-2.168q-.1-2.257-.153-4.423c-.059-2.3-.086-4.521-.07-6.645q.017-1.742.07-3.393c.009-.348.021-.709.03-1.071.017-.758.033-1.535.038-2.336.028-2.9-.006-6.057-.08-9.432-.016-.806-.036-1.633-.062-2.464a.9.9,0,0,0-.006-.132c-.014-.752-.037-1.516-.063-2.289q-.039-1.248-.079-2.539a.609.609,0,0,1,0-.095c-.011-.319-.023-.636-.033-.959-.017-.372-.028-.742-.042-1.113-.011-.355-.033-.706-.045-1.054-.036-1.034-.078-2.079-.116-3.132-.042-1.033-.09-2.076-.132-3.127-.026-.689-.053-1.388-.084-2.082-.07-1.834-.149-3.7-.229-5.581-.014-.381-.026-.757-.042-1.141-.009-.309-.026-.629-.038-.942q-.142-3.434-.274-6.94c-.022-.737-.048-1.469-.074-2.212-.022-.678-.053-1.351-.073-2.034-.021-.735-.049-1.473-.071-2.206,0-.063,0-.121,0-.179-.028-.9-.054-1.806-.074-2.707-.021-.557-.032-1.119-.049-1.675-.111-4.277-.186-8.564-.207-12.809q-.013-2.233.007-4.445c0-.277,0-.553,0-.822.059-8.59-.3-18.756-.314-26.331-.03-23.731-9.42-39.965-30.1-46.67l-15.749-5.109a22.693,22.693,0,0,0-16.749,1.116c-9.075,4.319-23.662,11.943-34.5,20.9-1.351,1.118-2.644,2.258-3.862,3.415-5.3,5.028-9.146,10.378-10.069,15.735-.227,1.315-.487,3.249-.773,5.745-.153,1.352-.322,2.878-.492,4.548-1.135,11.015-2.55,28.593-3.832,49.137-.033.555-.07,1.117-.1,1.692q-.156,2.509-.311,5.085c-.037.673-.074,1.357-.116,2.045q-.056,1.091-.127,2.195-.081,1.406-.161,2.823c-.037.732-.079,1.465-.121,2.2-.033.682-.07,1.352-.107,2.03-.033.594-.059,1.194-.09,1.788-.051.98-.1,1.965-.154,2.957-.033.562-.058,1.123-.083,1.69q-.185,3.6-.356,7.26-.254,5.531-.488,11.144c-.02.587-.049,1.176-.07,1.764-.046,1.315-.1,2.629-.141,3.948q-.123,3.124-.23,6.259c-.142,4.434-.274,8.874-.385,13.288-.042,1.9-.091,3.8-.127,5.692-.012.478-.017.95-.026,1.427-.028,1.383-.048,2.755-.082,4.128,0,.265,0,.525-.008.785-.017.915-.033,1.827-.042,2.745-.012,1.011-.028,2.013-.038,3.013-.011,1.066-.016,2.125-.028,3.179q-.024,2.766-.025,5.5c0,.658,0,1.308,0,1.96v1.7c0,.975,0,1.935.009,2.9q.018,4.375.079,8.6.032,2.352.091,4.658c.011.641.028,1.277.042,1.912.016.657.033,1.322.053,1.966.8,28.286,3.439,49.4,9.168,52.678,18.547,10.594,101.456,11.849,113.993,5.273,7.052-3.7,5.22-29.885,2.485-59.042M46.887,303.628l-6.425-25.267q5.045-16.521,11.481-32.023Z" transform="translate(-2.652 -7.912)" fill="#fef5eb"/>
        <path id="Trazado_874950" data-name="Trazado 874950" d="M71.828,330.91a1.277,1.277,0,0,1-.135-2.547,87.986,87.986,0,0,0,29.549-10.143c14.242-7.861,32.787-23.417,40.261-52.885a1.277,1.277,0,0,1,2.475.628,86.836,86.836,0,0,1-17.545,34.971,84.468,84.468,0,0,1-24.048,19.573,88.773,88.773,0,0,1-30.422,10.4,1.119,1.119,0,0,1-.137.007" transform="translate(-5.02 -18.81)" fill="#fddbb4"/>
        <path id="Trazado_874951" data-name="Trazado 874951" d="M134.609,141.034a2.665,2.665,0,1,1-2.884-2.426,2.666,2.666,0,0,1,2.884,2.426" transform="translate(-9.199 -9.861)" fill="#7c5122"/>
        <path id="Trazado_874952" data-name="Trazado 874952" d="M135.733,154.038a2.665,2.665,0,1,1-2.885-2.425,2.667,2.667,0,0,1,2.885,2.425" transform="translate(-9.279 -10.787)" fill="#7c5122"/>
        <path id="Trazado_874953" data-name="Trazado 874953" d="M137.165,170.618a2.665,2.665,0,1,1-2.884-2.426,2.666,2.666,0,0,1,2.884,2.426" transform="translate(-9.381 -11.966)" fill="#7c5122"/>
        <path id="Trazado_874954" data-name="Trazado 874954" d="M131.123,133.815l-.048,0c-19.145.739-33.983-10.137-34.6-10.6a1.06,1.06,0,0,1,1.265-1.7c.147.109,14.881,10.892,33.257,10.182a1.06,1.06,0,0,1,.13,2.115" transform="translate(-6.834 -8.631)" fill="#fddbb4"/>
        <path id="Trazado_874955" data-name="Trazado 874955" d="M64.809,368.6a1.06,1.06,0,0,0,1-1.4c-9.932-28.89-20.061-59.13-25.27-83.536C47.913,258.3,64.478,222.107,80.5,187.1a1.059,1.059,0,0,0-1.926-.882c-16.108,35.191-32.763,71.581-40.14,97.1a1.049,1.049,0,0,0-.019.515c5.216,24.568,15.4,54.99,25.394,84.045a1.061,1.061,0,0,0,1,.715" transform="translate(-2.731 -13.206)" fill="#fddbb4"/>
        <path id="Trazado_874956" data-name="Trazado 874956" d="M75.228,203.685a1.057,1.057,0,0,0,.6-.184l11.658-7.949a1.06,1.06,0,1,0-1.194-1.751L74.63,201.749a1.06,1.06,0,0,0,.6,1.936" transform="translate(-5.277 -13.776)" fill="#fddbb4"/>
        <path id="Trazado_874957" data-name="Trazado 874957" d="M97.091,376.591a119.688,119.688,0,0,0,31.162-4.5,147.029,147.029,0,0,0,27-10.279,1.354,1.354,0,1,0-1.271-2.392c-.436.231-44.072,23.03-80.268,10.915a1.354,1.354,0,1,0-.86,2.568,76.374,76.374,0,0,0,24.239,3.686" transform="translate(-5.118 -25.562)" fill="#fddbb4"/>
        <path id="Trazado_874958" data-name="Trazado 874958" d="M108.305,391.183c6.292,0,12.732-.651,17.873-2.614a1.355,1.355,0,0,0-.966-2.531c-14.255,5.443-40.4,0-40.661-.059a1.354,1.354,0,1,0-.563,2.648,131.378,131.378,0,0,0,24.317,2.555" transform="translate(-5.9 -27.461)" fill="#fddbb4"/>
        <path id="Trazado_874959" data-name="Trazado 874959" d="M81.105,168.82l-.014.024c-2.171,4.608-4.374,9.356-6.539,14.051l-6.461,14.157q-6.409,14.171-12.578,28.391c-4.091,9.471-8.085,18.966-11.785,28.395-1.839,4.7-3.615,9.4-5.18,13.955-.777,2.265-1.5,4.5-2.088,6.543-.283,1-.557,2-.729,2.761-.054.216-.087.374-.121.533l-.053.24a.066.066,0,0,0,0,.024v-.015a.074.074,0,0,0-.009-.029s-.009-.014-.015-.014v.047a1.369,1.369,0,0,1-.043.2c0,.268-.044.465-.033.849,0,.178-.01.332,0,.533l.019.609c.01.4.063.894.082,1.339l.144,1.474c.23,2.03.591,4.258,1.018,6.534.859,4.57,2.006,9.356,3.255,14.161,2.53,9.63,5.526,19.4,8.694,29.149s6.558,19.51,10.057,29.231q2.621,7.294,5.344,14.564l2.735,7.253,2.761,7.173.1.24a14.619,14.619,0,0,1-27.017,11.152l-3.25-7.32-3.174-7.283q-3.146-7.287-6.207-14.617c-4.076-9.779-8.046-19.615-11.858-29.586s-7.46-20.052-10.772-30.513c-1.286-4.094-2.526-8.232-3.658-12.539-.322-1.215-.63-2.439-.932-3.682-.682-2.838-1.315-5.751-1.839-8.891l-.37-2.42c-.1-.854-.22-1.656-.3-2.563l-.124-1.345c-.039-.45-.063-.955-.087-1.43C0,279.232,0,278.123,0,277.082l.067-1.762.024-.437.044-.5.1-1,.058-.5.062-.456.111-.73c.072-.489.149-.974.23-1.4.317-1.81.667-3.351,1.026-4.888.721-3.02,1.494-5.8,2.291-8.52a1.2,1.2,0,0,1,.038-.121c1.58-5.381,3.27-10.513,5-15.6,3.491-10.226,7.173-20.2,10.931-30.119S27.6,191.3,31.516,181.489L37.434,166.8c2-4.9,3.985-9.74,6.053-14.694.111-.259.255-.591.374-.845A20.587,20.587,0,1,1,81.105,168.82" transform="translate(0 -9.922)" fill="#fef5eb"/>
        <path id="Trazado_874960" data-name="Trazado 874960" d="M87.65,156.675a1.376,1.376,0,0,1-.2.058,1.278,1.278,0,0,1-1.44-.81c-3.216-8.669-8.048-14.191-14.362-16.413-5.072-1.783-10.306-1.156-14.355-.031,1.217-1.158,2.51-2.3,3.861-3.415A24.505,24.505,0,0,1,72.493,137.1c7.067,2.485,12.419,8.52,15.909,17.931a1.276,1.276,0,0,1-.752,1.642" transform="translate(-4.076 -9.664)" fill="#fddbb4"/>
        <path id="Trazado_874961" data-name="Trazado 874961" d="M3.72,309.471c-.321-1.215-.629-2.438-.932-3.682-.682-2.838-1.315-5.751-1.838-8.891l-.37-2.42c-.1-.854-.221-1.656-.3-2.563l-.124-1.344c-.038-.451-.062-.956-.086-1.43C0,288.219,0,287.11,0,286.068l.067-1.762.024-.437.043-.5.1-1,.058-.5.062-.456.111-.729c.072-.49.149-.975.23-1.4.317-1.81.667-3.351,1.027-4.888.72-3.019,1.493-5.8,2.29-8.52a1.21,1.21,0,0,1,.039-.121c4.484,9.52,14.713,35.136-.332,43.724" transform="translate(0 -18.908)" fill="#7c5122"/>
        <path id="Trazado_874962" data-name="Trazado 874962" d="M70.113,437.561l9-4.862.131-.072a5.231,5.231,0,0,0,1.542-7.8c-3.28-4.188-8.9-11.275-8.9-11.275-9.458-1.192-16.41,2.626-22.134,8.9,0,0,.018,8.375,2.474,15.111Z" transform="translate(-3.54 -29.41)" fill="#ff9f87"/>
        <path id="Trazado_874963" data-name="Trazado 874963" d="M76.466,438.252c8.5-5.9,12.02-12.6,12.252-13.059a1.476,1.476,0,0,0-2.628-1.345c-.061.119-4.459,8.411-15.353,14.4Z" transform="translate(-5.033 -30.1)" fill="#3f3538"/>
        <path id="Trazado_874964" data-name="Trazado 874964" d="M37.056,294.985a1.354,1.354,0,0,0,.3-2.674l-17.151-3.948A1.354,1.354,0,1,0,19.6,291l17.15,3.949a1.372,1.372,0,0,0,.3.034" transform="translate(-1.32 -20.515)" fill="#fddbb4"/>
        <path id="Trazado_874965" data-name="Trazado 874965" d="M20.877,298.079a1.339,1.339,0,0,0,.507-.1l10.447-4.228a1.354,1.354,0,1,0-1.015-2.51L20.369,295.47a1.354,1.354,0,0,0,.508,2.609" transform="translate(-1.389 -20.715)" fill="#fddbb4"/>
        <path id="Trazado_874966" data-name="Trazado 874966" d="M93.357,45.068s-6.539-8.377-3.964-16.118,12.4-8.36,12.4-8.36-1.78-8.514,4.258-11.3,28.506,2.084,40.83-.659C158.537,6.039,161.321,0,161.321,0s8.965,27.709-9.45,30.729-51.55,1.351-58.514,14.338" transform="translate(-6.318 0)" fill="#21191b"/>
        <path id="Trazado_874967" data-name="Trazado 874967" d="M93.923,48.149c-.385-.279-9.412-6.925-7.388-15.259,1.824-7.513,8.44-9.027,13.756-10.242.663-.152,1.291-.3,1.9-.448l.225.9c-.618.154-1.249.3-1.918.451-5.331,1.219-11.372,2.6-13.061,9.555-1.876,7.726,6.94,14.223,7.03,14.288Z" transform="translate(-6.136 -1.58)" fill="#21191b"/>
        <path id="Trazado_874968" data-name="Trazado 874968" d="M157.66,31.727a13.213,13.213,0,0,1-2.089-.149l.156-.916c.065.011,6.469,1.044,10.111-3.09,3.187-3.618,3.416-10.021.681-19.031l.889-.269c2.837,9.342,2.541,16.045-.878,19.92-2.656,3.01-6.508,3.535-8.87,3.535" transform="translate(-11.069 -0.589)" fill="#21191b"/>
        <path id="Trazado_874969" data-name="Trazado 874969" d="M132.054,121.439s-.031.012-.1.031a56.571,56.571,0,0,1-8.427,1.219h-.049a42.88,42.88,0,0,1-23.9-6.718l.343-17.431.368-18.71,4.293,1.311L131.3,89.3l.508,21.766Z" transform="translate(-7.085 -5.68)" fill="#ff9f87"/>
        <path id="Trazado_874970" data-name="Trazado 874970" d="M110.287,85.357s1.821,24.751,22.327,27.915L132.06,89.69Z" transform="translate(-7.847 -6.073)" fill="#21191b"/>
        <path id="Trazado_874971" data-name="Trazado 874971" d="M150.68,50.7s7.989-4.928,11.818,4.816-5.016,22.172-14.106,20.148c0,0-1.312-19.954,2.289-24.964" transform="translate(-10.542 -3.519)" fill="#ff7e6a"/>
        <path id="Trazado_874972" data-name="Trazado 874972" d="M153.343,99.989s9.108-13.175,6.953-35.3c0,0-2.29,17.253-4.935,20.11Z" transform="translate(-10.911 -4.603)" fill="#21191b"/>
        <path id="Trazado_874973" data-name="Trazado 874973" d="M156.031,63.529c-.174,3.219-.478,6.479-.957,9.69-.308,2.1-.694,4.17-1.166,6.2-1.677,7.222-4.442,13.853-8.826,18.755-8.548,9.553-20.688,5.39-31.054-3.942A72.29,72.29,0,0,1,97.546,71.836v-.007c-.545-1.177-1.051-2.343-1.5-3.508A35.245,35.245,0,0,1,93.42,56.326q-.018-1.934,0-3.714c.016-1.346.056-2.625.113-3.848.04-.8.091-1.574.149-2.32a54.4,54.4,0,0,1,1.045-7.575c1.963-8.871,6.3-13.12,14.145-16.669,5.71-2.594,15.342-3.463,24.305-2.456a25.291,25.291,0,0,1,19.641,13.485c.342.636.644,1.283.922,1.951,0,0,0,.016.011.023a25.427,25.427,0,0,1,1.872,7.652,153.606,153.606,0,0,1,.4,20.674" transform="translate(-6.646 -1.376)" fill="#ff9f87"/>
        <path id="Trazado_874974" data-name="Trazado 874974" d="M160.375,66.906c-.174,3.219-.478,6.479-.957,9.69a.35.35,0,0,1-.062,0,4.9,4.9,0,0,1,0-9.8,4.99,4.99,0,0,1,1.019.107" transform="translate(-10.99 -4.753)" fill="#ff7e6a"/>
        <path id="Trazado_874975" data-name="Trazado 874975" d="M129.8,70.875a4.9,4.9,0,1,1-4.9-4.9,4.9,4.9,0,0,1,4.9,4.9" transform="translate(-8.538 -4.694)" fill="#ff7e6a"/>
        <path id="Trazado_874976" data-name="Trazado 874976" d="M123.065,55.918s8.38-2.358,15.094-1.006c0,0,.909-6.018-6.714-5.471-5.531.4-9.232,1.213-8.38,6.477" transform="translate(-8.748 -3.515)" fill="#21191b"/>
        <path id="Trazado_874977" data-name="Trazado 874977" d="M161.575,56.666s-7.76-2.516-14.1-1.5c0,0-.63-5.669,6.488-4.876,5.164.575,8.6,1.476,7.608,6.373" transform="translate(-10.492 -3.573)" fill="#21191b"/>
        <path id="Trazado_874978" data-name="Trazado 874978" d="M96.247,72.074q.676,1.743,1.5,3.5v.007a18.314,18.314,0,0,0,9.334,2.769c.241,0,.394-.007.438-.013a.951.951,0,1,0-.121-1.9c-.033,0-.152.007-.337.007a16.553,16.553,0,0,1-10.813-4.375" transform="translate(-6.848 -5.128)" fill="#ff7e6a"/>
        <path id="Trazado_874979" data-name="Trazado 874979" d="M148.77,97.345c-3.384,6.238-7.274,8.007-19.131,7.092-6.142-.473-12.662-4.685-16.507-9.821a23.69,23.69,0,0,1-4.256-11.482c-.733-6.728-3.952-27.763-4.06-28.5-3.457-.194-7.552-1.274-11.39-2.019.006-.659.022-1.3.04-1.933.022-.654.046-1.291.073-1.916.04-.8.091-1.576.149-2.321a54.02,54.02,0,0,1,1.046-7.575C96.7,30,101.035,25.749,108.876,22.2c5.711-2.593,15.344-3.464,24.306-2.457a25.273,25.273,0,0,1,19.375,12.988c.09.165.181.33.267.5a4.869,4.869,0,0,0-.375-.4c-4.845-4.7-21.416-2.889-27.183-1.978a4.589,4.589,0,0,0-3.872,4.521,4.525,4.525,0,0,0,.108.984,7.01,7.01,0,0,1-.3,4.043c-.517,1.337-1.4,2.77-2.815,2.98a8.488,8.488,0,0,0-4.777,2.121c-2.918,2.775-1.967,7.12-1.967,7.12s5.908,22.179,9.611,23.572,7.091-.637,21.353.631c0,0,7.853,1.041,10.709,2.109a1.208,1.208,0,0,1,.592.489c1.581,2.451-2.042,12.226-5.141,17.93" transform="translate(-6.647 -1.376)" fill="#21191b"/>
        <path id="Trazado_874980" data-name="Trazado 874980" d="M140.744,98.722A9.963,9.963,0,0,1,137.7,97.65a.908.908,0,0,1,.926-1.563,8.114,8.114,0,0,0,7.53.093.909.909,0,0,1,.854,1.605,9.455,9.455,0,0,1-6.261.938" transform="translate(-9.766 -6.828)" fill="#3f3538"/>
        <path id="Trazado_874981" data-name="Trazado 874981" d="M133.86,85.918s10.537,2.273,19.13.663c0,0-3.832,7.511-11.794,6.287a8.995,8.995,0,0,1-7.336-6.951" transform="translate(-9.524 -6.113)" fill="#fff"/>
        <path id="Trazado_874982" data-name="Trazado 874982" d="M152.559,32.732a1.363,1.363,0,0,1-.109.092c-4.845-4.7-21.416-2.89-27.182-1.98a4.591,4.591,0,0,0-3.873,4.523,4.517,4.517,0,0,0,.108.983,7,7,0,0,1-.3,4.043c-.517,1.337-1.4,2.77-2.814,2.981a8.478,8.478,0,0,0-4.777,2.121A97.6,97.6,0,0,0,93.468,50.68c.023-.655.046-1.292.074-1.917.04-.8.091-1.574.148-2.319a53.973,53.973,0,0,1,1.047-7.575C96.7,30,101.037,25.75,108.879,22.2c5.71-2.591,15.343-3.463,24.305-2.456a25.272,25.272,0,0,1,19.375,12.988" transform="translate(-6.65 -1.376)" fill="#21191b"/>
        <path id="Trazado_874983" data-name="Trazado 874983" d="M129.49,31.256s6.851-1.361,11.075,2.045,5.216,4.116,7.708,4.005c2.629-.116,1.634-5.009,5.054-5s-17.075-7.738-23.836-1.049" transform="translate(-9.213 -2.03)" fill="#21191b"/>
        <path id="Trazado_874984" data-name="Trazado 874984" d="M101.618,50.327S92.839,46.054,90.681,56.3s7.817,19.247,16.743,18.62c0,0-1.423-20.25-5.806-24.592" transform="translate(-6.431 -3.518)" fill="#ff9f87"/>
        <path id="Trazado_874985" data-name="Trazado 874985" d="M103.1,67.94a.944.944,0,0,1-.907-.78,15.78,15.78,0,0,0-5.96-9.623.946.946,0,0,1,1.052-1.572,17.409,17.409,0,0,1,6.77,10.863.946.946,0,0,1-.766,1.1.87.87,0,0,1-.189.015" transform="translate(-6.817 -3.971)" fill="#ff7e6a"/>
        <path id="Trazado_874986" data-name="Trazado 874986" d="M95.758,63.681A.946.946,0,0,1,95.34,61.9c.129-.068,3.192-1.651,5.682-1.193a.946.946,0,1,1-.345,1.86,8.545,8.545,0,0,0-4.459,1.009.949.949,0,0,1-.46.107" transform="translate(-6.748 -4.313)" fill="#ff7e6a"/>
        <path id="Trazado_874987" data-name="Trazado 874987" d="M146.76,78.32a14.584,14.584,0,0,1-3.218-.447,1.023,1.023,0,1,1,.486-1.988,10.574,10.574,0,0,0,3.4.35c-.072-1.682-1.208-9.364-2.315-16.193a1.023,1.023,0,1,1,2.02-.328c.591,3.639,2.5,15.621,2.327,17.023a1.6,1.6,0,0,1-.7,1.13,3.629,3.629,0,0,1-2,.451" transform="translate(-10.158 -4.188)" fill="#ff7e6a"/>
        <path id="Trazado_874988" data-name="Trazado 874988" d="M132.793,61.787c.032,1.777-.738,3.232-1.72,3.25s-1.8-1.409-1.834-3.187.738-3.232,1.72-3.25,1.8,1.41,1.834,3.187" transform="translate(-9.195 -4.169)" fill="#21191b"/>
        <path id="Trazado_874989" data-name="Trazado 874989" d="M156.1,61.787c.032,1.777-.739,3.232-1.72,3.25s-1.8-1.409-1.834-3.187.738-3.232,1.721-3.25,1.8,1.41,1.834,3.187" transform="translate(-10.853 -4.169)" fill="#21191b"/>
        <path id="Trazado_874990" data-name="Trazado 874990" d="M147.556,62.885c0-5.737,4.235-10.4,9.44-10.4s9.439,4.667,9.439,10.4S162.2,73.29,157,73.29s-9.44-4.667-9.44-10.4m1.212,0c0,5.069,3.691,9.193,8.228,9.193s8.228-4.124,8.228-9.193-3.691-9.193-8.228-9.193-8.228,4.124-8.228,9.193" transform="translate(-10.499 -3.734)" fill="#fff"/>
        <path id="Trazado_874991" data-name="Trazado 874991" d="M122.392,62.885c0-5.737,4.235-10.4,9.44-10.4s9.439,4.667,9.439,10.4-4.234,10.4-9.439,10.4-9.44-4.667-9.44-10.4m1.212,0c0,5.069,3.691,9.193,8.228,9.193s8.228-4.124,8.228-9.193-3.691-9.193-8.228-9.193-8.228,4.124-8.228,9.193" transform="translate(-8.708 -3.734)" fill="#fff"/>
        <path id="Trazado_874992" data-name="Trazado 874992" d="M112.888,52.947a24.366,24.366,0,0,1,10.064,4.828c.5.411.794.689.848.742l-.848.867c-.011-.011-.188-.181-.513-.455a23.725,23.725,0,0,0-9.519-4.714Z" transform="translate(-8.032 -3.767)" fill="#fff"/>
        <path id="Trazado_874993" data-name="Trazado 874993" d="M141.123,58.642c3.358-2.9,7.362-.3,7.531-.188l.672-1.009c-.048-.032-4.934-3.226-8.995.28Z" transform="translate(-9.985 -3.99)" fill="#fff"/>
        <path id="Trazado_874994" data-name="Trazado 874994" d="M143.218,237.087a.7.7,0,0,1-.669-.5c-.068-.236-6.9-23.85-16.959-50.211-13.291-34.819-26.156-58.591-37.207-68.748a.7.7,0,1,1,.943-1.025c6.27,5.763,13.041,15.649,20.126,29.386a398.788,398.788,0,0,1,17.443,39.9c8.112,21.25,14.125,40.719,16.2,47.643,6.441-32.408,3.64-61.822.083-81-3.964-21.376-9.7-35-9.755-35.139a.7.7,0,1,1,1.283-.545c.058.136,5.841,13.874,9.835,35.388a227.274,227.274,0,0,1,3.809,38.07,207.239,207.239,0,0,1-4.452,46.238.7.7,0,0,1-.658.551h-.024" transform="translate(-6.273 -8.283)" fill="#fff"/>
        <path id="Trazado_874995" data-name="Trazado 874995" d="M129.616,287.168h29.918a1.429,1.429,0,0,0,1.429-1.429v-42.9a1.429,1.429,0,0,0-1.429-1.429H129.616a1.429,1.429,0,0,0-1.429,1.429v42.9a1.429,1.429,0,0,0,1.429,1.429" transform="translate(-9.121 -17.177)" fill="#f5f2ee"/>
        <path id="Trazado_874996" data-name="Trazado 874996" d="M135.7,250.173h18.219a.4.4,0,1,0,0-.8H135.7a.4.4,0,1,0,0,.8" transform="translate(-9.627 -17.743)" fill="#e6d7d4"/>
        <path id="Trazado_874997" data-name="Trazado 874997" d="M135.7,257.062h18.219a.4.4,0,1,0,0-.8H135.7a.4.4,0,1,0,0,.8" transform="translate(-9.627 -18.233)" fill="#e6d7d4"/>
        <path id="Trazado_874998" data-name="Trazado 874998" d="M135.7,263.855h18.219a.4.4,0,1,0,0-.8H135.7a.4.4,0,1,0,0,.8" transform="translate(-9.627 -18.717)" fill="#e6d7d4"/>
        <path id="Trazado_874999" data-name="Trazado 874999" d="M158.474,285.027H131.03a.348.348,0,0,1-.348-.348V244.255a.348.348,0,0,1,.348-.348h27.444a.348.348,0,0,1,.348.348v40.424a.348.348,0,0,1-.348.348m-27.1-.7h26.746V244.6H131.379Z" transform="translate(-9.298 -17.354)" fill="#e6d7d4"/>
      </g>
    </g>
    <g id="Enmascarar_grupo_1098694" data-name="Enmascarar grupo 1098694" transform="translate(306 830.811)" clip-path="url(#clip-path-2)">
      <path id="Sustracción_24" data-name="Sustracción 24" d="M99.4,186.376a106.573,106.573,0,0,1-20.032-1.893,103.787,103.787,0,0,1-18.658-5.43,101.666,101.666,0,0,1-16.884-8.592,99.027,99.027,0,0,1-14.711-11.379A95.445,95.445,0,0,1,16.975,145.29a91.533,91.533,0,0,1-9.164-15.829,88.055,88.055,0,0,1,0-72.546,91.533,91.533,0,0,1,9.164-15.829A95.468,95.468,0,0,1,29.112,27.294,99.013,99.013,0,0,1,43.823,15.915,101.656,101.656,0,0,1,60.707,7.323a103.765,103.765,0,0,1,18.658-5.43,106.911,106.911,0,0,1,40.064,0,103.766,103.766,0,0,1,18.658,5.43,101.7,101.7,0,0,1,16.884,8.592,99.036,99.036,0,0,1,14.711,11.379,95.446,95.446,0,0,1,12.137,13.792,91.483,91.483,0,0,1,9.165,15.829,88.061,88.061,0,0,1,0,72.546,91.483,91.483,0,0,1-9.165,15.829,95.446,95.446,0,0,1-12.137,13.792,99.026,99.026,0,0,1-14.711,11.379,101.674,101.674,0,0,1-16.884,8.592,103.787,103.787,0,0,1-18.658,5.43A106.566,106.566,0,0,1,99.4,186.376ZM99.4,37.2a64,64,0,0,0-12.035,1.137A62.351,62.351,0,0,0,76.153,41.6a61.085,61.085,0,0,0-10.143,5.162A59.45,59.45,0,0,0,57.172,53.6a57.332,57.332,0,0,0-7.292,8.286A54.976,54.976,0,0,0,44.374,71.4a52.9,52.9,0,0,0,0,43.583,54.982,54.982,0,0,0,5.505,9.51,57.33,57.33,0,0,0,7.292,8.286,59.452,59.452,0,0,0,8.838,6.836,61.087,61.087,0,0,0,10.143,5.161,62.322,62.322,0,0,0,11.209,3.262,64.233,64.233,0,0,0,24.069,0,62.34,62.34,0,0,0,11.209-3.262,61.075,61.075,0,0,0,10.143-5.161,59.5,59.5,0,0,0,8.837-6.836,57.329,57.329,0,0,0,7.292-8.286,54.993,54.993,0,0,0,5.505-9.51,52.9,52.9,0,0,0,0-43.583,54.942,54.942,0,0,0-5.505-9.509,57.331,57.331,0,0,0-7.292-8.286,59.493,59.493,0,0,0-8.837-6.836A61.073,61.073,0,0,0,122.64,41.6a62.369,62.369,0,0,0-11.209-3.262A64,64,0,0,0,99.4,37.2Z" transform="translate(126.678 193.41) rotate(180)" fill="#e6f2e9"/>
    </g>
    <g id="Grupo_1099657" data-name="Grupo 1099657" transform="translate(385.458 869.676)">
      <path id="Trazado_873222" data-name="Trazado 873222" d="M-11400.342-11390.7s35.659-69.694,103.041-84.4" transform="translate(11400.342 11489.036)" fill="none" stroke="#869a8a" stroke-width="2"/>
      <g id="Grupo_1099331" data-name="Grupo 1099331" transform="translate(65.954 55.664) rotate(130)">
        <g id="Grupo_1099328" data-name="Grupo 1099328" transform="translate(0 0)" clip-path="url(#clip-path-3)">
          <path id="Trazado_873219" data-name="Trazado 873219" d="M29.406,25.6S9.629-10.425,1.153,3c0,0-9.889,13.42,28.253,22.6" transform="translate(1.167 0.594)" fill="#c1ddc7"/>
          <path id="Trazado_873220" data-name="Trazado 873220" d="M22.574,17.651c-3.065-2.847-7.537-7.035-10.708-9.67C8.165,4.994,4.443,1.8,0,0L.071.021c.184.049.36.106.537.17C.671.212.742.24.819.268c4.309,1.427,8,4.358,11.5,7.169A92.736,92.736,0,0,1,22.574,17.651" transform="translate(8 8.542)" fill="#869a8a"/>
          <path id="Trazado_873221" data-name="Trazado 873221" d="M30.458,26.482l-.777-.186C18.03,23.49,3.516,18.431.534,10.255A7.83,7.83,0,0,1,1.226,3.14C2.576,1,4.322-.065,6.394,0,15.973.3,29.5,24.741,30.074,25.781ZM6.216.707c-1.762,0-3.2.927-4.407,2.831A7.262,7.262,0,0,0,1.2,10.031C2.778,14.32,8.9,20.446,29.056,25.415,26.724,21.333,14.672.963,6.372.709l-.156,0" transform="translate(0 0.001)" fill="#869a8a"/>
        </g>
      </g>
      <g id="Grupo_1099332" data-name="Grupo 1099332" transform="matrix(0.309, 0.951, -0.951, 0.309, 49.251, 20.882)">
        <g id="Grupo_1099328-2" data-name="Grupo 1099328" clip-path="url(#clip-path-4)">
          <path id="Trazado_873219-2" data-name="Trazado 873219" d="M25.287,22.012S8.28-8.964.991,2.576c0,0-8.5,11.54,24.3,19.436" transform="translate(1.003 0.511)" fill="#c1ddc7"/>
          <path id="Trazado_873220-2" data-name="Trazado 873220" d="M19.412,15.178c-2.636-2.448-6.481-6.049-9.208-8.315C7.021,4.294,3.82,1.549,0,0L.061.018c.158.043.31.091.462.146C.577.182.638.207.7.231,4.41,1.458,7.58,3.978,10.593,6.4a79.745,79.745,0,0,1,8.819,8.783" transform="translate(6.879 7.345)" fill="#869a8a"/>
          <path id="Trazado_873221-2" data-name="Trazado 873221" d="M26.191,22.772l-.668-.16C15.5,20.2,3.023,15.849.459,8.819a6.733,6.733,0,0,1,.6-6.119A4.979,4.979,0,0,1,5.5,0C13.736.255,25.369,21.275,25.861,22.17ZM5.345.608A4.415,4.415,0,0,0,1.556,3.042a6.245,6.245,0,0,0-.521,5.584c1.354,3.688,6.623,8.956,23.951,13.229C22.98,18.345,12.617.828,5.479.609l-.134,0" transform="translate(0 0.001)" fill="#869a8a"/>
        </g>
      </g>
      <g id="Grupo_1099333" data-name="Grupo 1099333" transform="matrix(-0.616, 0.788, -0.788, -0.616, 112.805, 18.004)">
        <g id="Grupo_1099328-3" data-name="Grupo 1099328" transform="translate(0 0)" clip-path="url(#clip-path-5)">
          <path id="Trazado_873219-3" data-name="Trazado 873219" d="M32.471,28.266S10.633-11.511,1.273,3.308c0,0-10.919,14.819,31.2,24.959" transform="translate(1.288 0.656)" fill="#c1ddc7"/>
          <path id="Trazado_873220-3" data-name="Trazado 873220" d="M24.927,19.491C21.542,16.348,16.605,11.723,13.1,8.814,9.016,5.514,4.906,1.989,0,0L.078.023c.2.055.4.117.593.187C.741.234.819.265.9.3,5.662,1.872,9.734,5.109,13.6,8.213A102.4,102.4,0,0,1,24.927,19.491" transform="translate(8.834 9.432)" fill="#869a8a"/>
          <path id="Trazado_873221-3" data-name="Trazado 873221" d="M33.633,29.242l-.858-.206C19.91,25.939,3.882,20.352.589,11.325a8.646,8.646,0,0,1,.765-7.857C2.844,1.106,4.773-.072,7.061,0,17.638.327,32.578,27.32,33.209,28.469ZM6.864.78C4.919.78,3.325,1.8,2,3.906a8.019,8.019,0,0,0-.669,7.17c1.739,4.736,8.5,11.5,30.756,16.988C29.509,23.557,16.2,1.063,7.036.783l-.172,0" transform="translate(0 0.001)" fill="#869a8a"/>
        </g>
      </g>
    </g>
    <g id="Grupo_1100000" data-name="Grupo 1100000" transform="translate(484.683 841.364)">
      <g id="Grupo_1099983" data-name="Grupo 1099983">
        <circle id="Elipse_11585" data-name="Elipse 11585" cx="45.168" cy="45.168" r="45.168" fill="#fddbb4"/>
        <circle id="Elipse_11586" data-name="Elipse 11586" cx="32.776" cy="32.776" r="32.776" transform="translate(12.791 12.791)" fill="#feedda"/>
      </g>
      <g id="seguro-de-salud" transform="translate(25.151 25.976)">
        <g id="Grupo_1100007" data-name="Grupo 1100007" transform="translate(0.598 0.598)">
          <g id="Grupo_1100005" data-name="Grupo 1100005" transform="translate(0)">
            <g id="Grupo_1100004" data-name="Grupo 1100004">
              <path id="Trazado_875518" data-name="Trazado 875518" d="M31.677,47.1c19.988-8.186,19.417-31.22,19.417-31.22C44.812,9.594,31.677,7.5,31.677,7.5S18.542,9.594,12.26,15.876C12.26,15.876,11.689,38.91,31.677,47.1Z" transform="translate(-12.258 -7.5)" fill="#a2c6fe"/>
              <path id="Trazado_875519" data-name="Trazado 875519" d="M31.677,47.138C11.688,38.951,12.26,15.917,12.26,15.917c6.146-6.146,18.851-8.283,19.4-8.372-.426.083-8.278,1.647-13.812,5.9a6.457,6.457,0,0,0-2.49,5.666C15.915,25.723,18.628,40.833,31.677,47.138Z" transform="translate(-12.258 -7.541)" fill="#7898d5"/>
              <path id="Trazado_875520" data-name="Trazado 875520" d="M81.6,92.28c-6.181-3.009-10.584-8.1-13.1-15.168a37.1,37.1,0,0,1-2-9.536C70.9,64.2,78.214,62.282,81.6,61.653c3.382.635,10.714,2.568,15.1,5.925a37.1,37.1,0,0,1-2,9.535C92.183,84.177,87.78,89.271,81.6,92.28Z" transform="translate(-62.18 -57.339)" fill="#f5f0f0"/>
              <path id="Trazado_875521" data-name="Trazado 875521" d="M81.6,92.28c-6.181-3.009-10.583-8.1-13.1-15.168a37.081,37.081,0,0,1-2-9.536C70.9,64.2,78.214,62.281,81.6,61.652a39.7,39.7,0,0,0-7.443,2.455,8.481,8.481,0,0,0-4.83,9.479c.235,1.119.533,2.307.91,3.526C72.416,84.176,76.236,89.271,81.6,92.28Z" transform="translate(-62.18 -57.338)" fill="#e8ded8"/>
            </g>
          </g>
          <g id="Grupo_1100006" data-name="Grupo 1100006" transform="translate(11.895 10.964)">
            <path id="Trazado_875522" data-name="Trazado 875522" d="M175.53,149.506q-1.179-.051-2.358-.082a.893.893,0,0,1-.869-.869q-.032-1.179-.082-2.358a.887.887,0,0,0-.708-.833,12.451,12.451,0,0,0-4.866,0,.887.887,0,0,0-.708.833q-.051,1.179-.082,2.358a.893.893,0,0,1-.869.869q-1.179.032-2.358.082a.887.887,0,0,0-.833.708,12.45,12.45,0,0,0,0,4.866.887.887,0,0,0,.833.708q1.179.051,2.358.082a.893.893,0,0,1,.869.869q.032,1.179.082,2.358a.887.887,0,0,0,.708.833,12.451,12.451,0,0,0,4.866,0,.887.887,0,0,0,.708-.833q.051-1.179.082-2.358a.893.893,0,0,1,.869-.869q1.179-.032,2.358-.082a.887.887,0,0,0,.833-.708,12.451,12.451,0,0,0,0-4.866.887.887,0,0,0-.833-.708Z" transform="translate(-161.555 -145.123)" fill="#dd636e"/>
          </g>
        </g>
        <g id="Grupo_1100008" data-name="Grupo 1100008" transform="translate(0 0)">
          <path id="Trazado_875523" data-name="Trazado 875523" d="M44.782,8.959a.6.6,0,0,0-.175-.408c-2.673-2.673-6.813-4.924-12.3-6.69A55.134,55.134,0,0,0,24.862.008a.6.6,0,0,0-.188,0,55.134,55.134,0,0,0-7.442,1.854C11.741,3.627,7.6,5.878,4.928,8.551a.6.6,0,0,0-.175.408A39.644,39.644,0,0,0,7,21.71a33.562,33.562,0,0,0,5.843,10.534,29.657,29.657,0,0,0,11.7,8.5.6.6,0,0,0,.453,0,29.659,29.659,0,0,0,11.7-8.5A33.563,33.563,0,0,0,42.537,21.71,39.639,39.639,0,0,0,44.782,8.959Zm-3.388,12.4A32.349,32.349,0,0,1,35.76,31.5a28.442,28.442,0,0,1-10.992,8.049A28.443,28.443,0,0,1,13.776,31.5,32.351,32.351,0,0,1,8.141,21.356,39.839,39.839,0,0,1,5.947,9.225C11.806,3.558,23.592,1.406,24.768,1.2c1.176.2,12.962,2.354,18.821,8.022A39.843,39.843,0,0,1,41.394,21.356Z" transform="translate(-4.751 0)"/>
          <path id="Trazado_875524" data-name="Trazado 875524" d="M74.579,54.16c-1.011.188-10.026,1.955-15.348,6.037a.6.6,0,0,0-.232.518,37.455,37.455,0,0,0,2.03,9.694c2.569,7.209,7.078,12.425,13.4,15.5a.6.6,0,0,0,.523,0c6.324-3.079,10.833-8.3,13.4-15.5a37.457,37.457,0,0,0,2.03-9.692.6.6,0,0,0-.233-.518,22.471,22.471,0,0,0-3.571-2.184.6.6,0,1,0-.535,1.069,21.93,21.93,0,0,1,3.122,1.872,36.239,36.239,0,0,1-1.939,9.053c-2.424,6.8-6.642,11.749-12.537,14.7-5.9-2.953-10.113-7.9-12.537-14.7a36.825,36.825,0,0,1-1.939-9.055,28.923,28.923,0,0,1,7.5-3.707,50.3,50.3,0,0,1,6.968-1.889,50.143,50.143,0,0,1,9.225,2.755.6.6,0,1,0,.458-1.1A51.354,51.354,0,0,0,74.8,54.16a.6.6,0,0,0-.22,0Z" transform="translate(-54.675 -49.836)"/>
          <path id="Trazado_875525" data-name="Trazado 875525" d="M168.609,148.3c-.748.033-1.538.06-2.348.083a1.491,1.491,0,0,0-1.45,1.449c-.022.794-.049,1.584-.082,2.349a.29.29,0,0,1-.227.273,11.906,11.906,0,0,1-4.635,0,.29.29,0,0,1-.227-.273c-.033-.765-.06-1.555-.082-2.349a1.491,1.491,0,0,0-1.451-1.45q-.58-.016-1.16-.036a.6.6,0,0,0-.042,1.194q.584.02,1.17.036a.3.3,0,0,1,.288.287c.022.8.05,1.6.082,2.368a1.478,1.478,0,0,0,1.189,1.394,13.094,13.094,0,0,0,5.1,0,1.478,1.478,0,0,0,1.189-1.394c.033-.771.061-1.567.082-2.368a.3.3,0,0,1,.288-.287c.817-.022,1.613-.05,2.368-.083a1.478,1.478,0,0,0,1.394-1.189,13.091,13.091,0,0,0,0-5.1,1.478,1.478,0,0,0-1.394-1.189c-.771-.034-1.568-.061-2.367-.082a.3.3,0,0,1-.289-.288c-.022-.8-.05-1.6-.082-2.368a1.478,1.478,0,0,0-1.189-1.394,13.1,13.1,0,0,0-5.1,0,1.478,1.478,0,0,0-1.189,1.394c-.033.771-.061,1.567-.082,2.368a.3.3,0,0,1-.288.288c-.8.021-1.6.049-2.368.082a1.478,1.478,0,0,0-1.394,1.189,13.078,13.078,0,0,0-.025,4.967.6.6,0,1,0,1.174-.22,11.89,11.89,0,0,1,.023-4.515.29.29,0,0,1,.273-.227c.764-.033,1.554-.061,2.349-.082a1.492,1.492,0,0,0,1.449-1.45c.022-.794.049-1.584.082-2.349a.29.29,0,0,1,.227-.273,11.907,11.907,0,0,1,4.635,0,.29.29,0,0,1,.227.273c.033.765.06,1.555.082,2.349a1.493,1.493,0,0,0,1.451,1.45c.794.021,1.584.048,2.348.082a.29.29,0,0,1,.273.227,11.9,11.9,0,0,1,0,4.634A.29.29,0,0,1,168.609,148.3Z" transform="translate(-142.167 -126.674)"/>
        </g>
      </g>
    </g>
    <g id="Grupo_1099997" data-name="Grupo 1099997" transform="translate(341.386 663.046)">
      <g id="Grupo_1099983-2" data-name="Grupo 1099983">
        <circle id="Elipse_11585-2" data-name="Elipse 11585" cx="41.923" cy="41.923" r="41.923" fill="#fddbb4"/>
        <circle id="Elipse_11586-2" data-name="Elipse 11586" cx="30.358" cy="30.358" r="30.358" transform="translate(11.565 11.565)" fill="#feedda"/>
      </g>
      <g id="Layer_1" transform="translate(22.166 21.203)">
        <g id="Grupo_1100024" data-name="Grupo 1100024" transform="translate(0 0)">
          <g id="Grupo_1100020" data-name="Grupo 1100020" transform="translate(0.409 0.407)">
            <g id="Grupo_1100009" data-name="Grupo 1100009" transform="translate(16.979)">
              <path id="Trazado_875526" data-name="Trazado 875526" d="M115.99,6a3.227,3.227,0,0,0-3.227,3.227v1.925a3.227,3.227,0,0,0,6.454,0V9.227A3.227,3.227,0,0,0,115.99,6Z" transform="translate(-112.763 -6)" fill="#feb69f"/>
            </g>
            <g id="Grupo_1100010" data-name="Grupo 1100010" transform="translate(4.138 8.379)">
              <path id="Trazado_875527" data-name="Trazado 875527" d="M66.115,59.182a1.772,1.772,0,0,1-1.772,1.773H56.156a.5.5,0,0,0-.5.541l1.883,24.943.717,1.68a.49.49,0,0,1-.45.681H54.027a.816.816,0,0,1-.813-.746l-.991-11.732a2.185,2.185,0,0,0-4.355,0l-.991,11.732a.816.816,0,0,1-.813.746H42.287a.49.49,0,0,1-.45-.681l.717-1.68L42.9,81.8a1.737,1.737,0,1,0,.259-3.436L44.437,61.5a.5.5,0,0,0-.5-.541H35.748a1.773,1.773,0,0,1,0-3.545h28.6A1.772,1.772,0,0,1,66.115,59.182Z" transform="translate(-33.976 -57.41)" fill="#72c2e9"/>
            </g>
            <g id="Grupo_1100011" data-name="Grupo 1100011" transform="translate(18.99 12.878)">
              <circle id="Elipse_11589" data-name="Elipse 11589" cx="1.737" cy="1.737" r="1.737" fill="#fc5d3d"/>
            </g>
            <g id="Grupo_1100012" data-name="Grupo 1100012" transform="translate(11.9 2.286)">
              <circle id="Elipse_11590" data-name="Elipse 11590" cx="1.737" cy="1.737" r="1.737" fill="#fc5d3d"/>
            </g>
            <g id="Grupo_1100013" data-name="Grupo 1100013" transform="translate(4.137 8.379)">
              <path id="Trazado_875528" data-name="Trazado 875528" d="M41.132,57.41v3.545H35.745a1.773,1.773,0,0,1,0-3.545Z" transform="translate(-33.973 -57.41)" fill="#feb69f"/>
            </g>
            <g id="Grupo_1100014" data-name="Grupo 1100014" transform="translate(29.117 8.379)">
              <path id="Trazado_875529" data-name="Trazado 875529" d="M194.392,59.182a1.772,1.772,0,0,1-1.772,1.773h-5.387V57.41h5.387A1.772,1.772,0,0,1,194.392,59.182Z" transform="translate(-187.233 -57.41)" fill="#feb69f"/>
            </g>
            <g id="Grupo_1100015" data-name="Grupo 1100015" transform="translate(25.494 0.869)">
              <circle id="Elipse_11591" data-name="Elipse 11591" cx="1.737" cy="1.737" r="1.737" fill="#fc5d3d"/>
            </g>
            <g id="Grupo_1100017" data-name="Grupo 1100017" transform="translate(0 15.35)">
              <g id="Grupo_1100016" data-name="Grupo 1100016">
                <path id="Trazado_875530" data-name="Trazado 875530" d="M18.368,109.441H9.295a.7.7,0,0,1-.609-1.055l1.446-2.505,3.09-5.352a.7.7,0,0,1,1.218,0l4.537,7.858a.7.7,0,0,1-.609,1.055Z" transform="translate(-8.59 -100.176)" fill="#f0c020"/>
              </g>
            </g>
            <g id="Grupo_1100019" data-name="Grupo 1100019" transform="translate(11.683 29.337)">
              <g id="Grupo_1100018" data-name="Grupo 1100018">
                <path id="Trazado_875531" data-name="Trazado 875531" d="M83.741,187.726a1.737,1.737,0,1,1-1.832-1.736A1.738,1.738,0,0,1,83.741,187.726Z" transform="translate(-80.266 -185.99)" fill="#fc5d3d"/>
              </g>
            </g>
          </g>
          <g id="Grupo_1100023" data-name="Grupo 1100023" transform="translate(0)">
            <g id="Grupo_1100021" data-name="Grupo 1100021" transform="translate(24.249 11.796)">
              <path id="Trazado_875532" data-name="Trazado 875532" d="M157.428,103.147h-1.586a.407.407,0,0,1,0-.815h.979c-.007-.036-1.768-23.387-1.771-23.423a.407.407,0,1,1,.813-.061l1.76,23.308.181.423A.408.408,0,0,1,157.428,103.147Zm-2.095-25.486a.407.407,0,0,1-.406-.377l-.074-.975a.407.407,0,1,1,.813-.061l.074.975a.408.408,0,0,1-.376.437Z" transform="translate(-154.853 -75.871)" fill="#c5e5fe"/>
            </g>
            <g id="Grupo_1100022" data-name="Grupo 1100022" transform="translate(1.437 16.898)">
              <path id="Trazado_875533" data-name="Trazado 875533" d="M22.917,114.581H17.489a.407.407,0,0,1,0-.815h4.722l-3.453-5.98a.407.407,0,0,1,.706-.407l3.806,6.592A.408.408,0,0,1,22.917,114.581Zm-7.058,0h-.554a.407.407,0,1,1,0-.815h.554a.407.407,0,1,1,0,.815Z" transform="translate(-14.898 -107.174)" fill="#f8e5b0"/>
            </g>
            <path id="Trazado_875534" data-name="Trazado 875534" d="M123.012,37.141a.409.409,0,0,0,.407-.407.808.808,0,0,1,1.617,0,.407.407,0,1,0,.815,0,1.623,1.623,0,1,0-3.247,0A.408.408,0,0,0,123.012,37.141Z" transform="translate(-103.613 -29.958)"/>
            <path id="Trazado_875535" data-name="Trazado 875535" d="M114.048,13.4a.41.41,0,0,0,.052-.308.4.4,0,0,0-.181-.254.414.414,0,0,0-.561.127.406.406,0,0,0,.127.562.41.41,0,0,0,.562-.127Z" transform="translate(-95.82 -11.268)"/>
            <path id="Trazado_875536" data-name="Trazado 875536" d="M62.735,15.382a2.145,2.145,0,1,0-1.352-3.808L59.428,9.935a.4.4,0,0,0-.261-.095H57.392a.407.407,0,0,0,0,.815h1.627L60.86,12.2a2.143,2.143,0,0,0,1.875,3.184ZM61.5,12.737l.969.812A.407.407,0,0,0,63,12.925l-.968-.812a1.329,1.329,0,1,1-.524.624Z" transform="translate(-48.688 -8.807)"/>
            <path id="Trazado_875537" data-name="Trazado 875537" d="M123.42,22.457v-.38a.407.407,0,1,0-.815,0v.38a.407.407,0,1,0,.815,0Z" transform="translate(-103.613 -18.708)"/>
            <path id="Trazado_875538" data-name="Trazado 875538" d="M138.34,22.457v-.38a.407.407,0,1,0-.815,0v.38a.407.407,0,1,0,.815,0Z" transform="translate(-116.101 -18.708)"/>
            <path id="Trazado_875539" data-name="Trazado 875539" d="M31.473,14.059a2.182,2.182,0,0,0,2.179,2.181H41.84a.1.1,0,0,1,.1.095c0,.012-1.248,16.543-1.249,16.555a2.142,2.142,0,0,0-1.3,3.289l-1.741,1.736H36.037a.407.407,0,0,0,0,.815h1.777a.407.407,0,0,0,.287-.119l1.862-1.856a2.168,2.168,0,0,0,.417.222l-.321,4.242-.691,1.619a.9.9,0,0,0,.825,1.249h3.777a1.223,1.223,0,0,0,1.219-1.12l.991-11.732a1.778,1.778,0,0,1,3.543,0l.991,11.732a1.223,1.223,0,0,0,1.219,1.12h3.777a.9.9,0,0,0,.825-1.249l-.691-1.619-.874-11.584a.408.408,0,0,0-.813.059v0l.88,11.652a11.954,11.954,0,0,0,.748,1.809.083.083,0,0,1-.075.114H51.932a.412.412,0,0,1-.407-.373l-.991-11.732a2.593,2.593,0,0,0-5.167,0L44.376,42.9a.411.411,0,0,1-.407.373H40.192a.082.082,0,0,1-.075-.112,12,12,0,0,0,.748-1.811l.319-4.224a2.142,2.142,0,0,0,.321-4.257c.006-.076,1.245-16.455,1.245-16.531a.912.912,0,0,0-.911-.909H39.447v-2.73H56.453v2.73H54.061a.911.911,0,0,0-.908.984l.417,5.519L50.387,19.48a2.143,2.143,0,1,0-4.06-.957,2.14,2.14,0,0,0,3.562,1.6l3.763,2.892.259,3.425a.407.407,0,1,0,.812-.062l-.2-2.7,2.114,1.625a.4.4,0,0,0,.248.085h2.23a.407.407,0,0,0,0-.815H57.019l-2.582-1.986-.472-6.252v-.008a.1.1,0,0,1,.1-.095h8.187a2.18,2.18,0,0,0,0-4.36H50.24a3.629,3.629,0,0,0,1.345-2.82V7.135a3.636,3.636,0,0,0-5.393-3.182.408.408,0,0,0-.16.554.418.418,0,0,0,.554.158,2.783,2.783,0,0,1,1.364-.35,2.831,2.831,0,0,1,2.82,2.82V9.06a2.82,2.82,0,1,1-5.64,0c0-2.129,0-1.922,0-2.085a.407.407,0,1,0-.813-.044c-.008.162,0,.143,0,2.129a3.629,3.629,0,0,0,1.344,2.82H33.652a2.184,2.184,0,0,0-2.18,2.179ZM42.493,34.98a1.333,1.333,0,0,1-1.938,1.182l.9-.894a.41.41,0,0,0,0-.577.414.414,0,0,0-.575,0l-.9.893a1.327,1.327,0,0,1,1.1-1.933,1.336,1.336,0,0,1,1.41,1.328Zm7.229-16.011-1-.771a.419.419,0,0,0-.572.075.409.409,0,0,0,.075.572l1,.77a1.343,1.343,0,1,1,.5-.647Zm7.546-6.275h4.979a1.365,1.365,0,0,1,0,2.73h-4.98Zm-18.636,2.73H33.653a1.365,1.365,0,0,1,0-2.73h4.979Z" transform="translate(-27.334 -3.5)"/>
            <path id="Trazado_875540" data-name="Trazado 875540" d="M170.254,151.553a.407.407,0,1,0,.438.375A.408.408,0,0,0,170.254,151.553Z" transform="translate(-143.181 -127.421)"/>
            <path id="Trazado_875541" data-name="Trazado 875541" d="M11.422,237.145h5.625a.407.407,0,0,0,0-.815H11.422a.407.407,0,0,0,0,.815Z" transform="translate(-10.211 -198.381)"/>
            <path id="Trazado_875542" data-name="Trazado 875542" d="M11.422,226.3h5.625a.407.407,0,0,0,0-.815H11.422a.407.407,0,0,0,0,.815Z" transform="translate(-10.211 -189.307)"/>
            <path id="Trazado_875543" data-name="Trazado 875543" d="M11.422,215.455h5.625a.407.407,0,1,0,0-.815H11.422a.407.407,0,1,0,0,.815Z" transform="translate(-10.211 -180.226)"/>
            <path id="Trazado_875544" data-name="Trazado 875544" d="M204.731,242.677a.408.408,0,0,0-.408-.407h-7.851a.407.407,0,0,0,0,.815h7.851A.408.408,0,0,0,204.731,242.677Z" transform="translate(-165.099 -203.352)"/>
            <path id="Trazado_875545" data-name="Trazado 875545" d="M204.324,231.43h-7.851a.407.407,0,0,0,0,.815h7.851a.407.407,0,1,0,0-.815Z" transform="translate(-165.099 -194.279)"/>
            <path id="Trazado_875546" data-name="Trazado 875546" d="M204.324,220.58h-7.851a.407.407,0,0,0,0,.815h7.851a.407.407,0,1,0,0-.815Z" transform="translate(-165.099 -185.198)"/>
            <path id="Trazado_875547" data-name="Trazado 875547" d="M196.472,208.62a.407.407,0,0,0,0,.815H200.4a.407.407,0,1,0,0-.815Z" transform="translate(-165.099 -175.187)"/>
            <path id="Trazado_875548" data-name="Trazado 875548" d="M11.422,31.665h5.625a.407.407,0,1,0,0-.815H11.422a.407.407,0,0,0,0,.815Z" transform="translate(-10.211 -26.392)"/>
            <path id="Trazado_875549" data-name="Trazado 875549" d="M11.422,20.825h5.625a.407.407,0,1,0,0-.815H11.422a.407.407,0,1,0,0,.815Z" transform="translate(-10.211 -17.319)"/>
            <path id="Trazado_875550" data-name="Trazado 875550" d="M11.422,9.975h5.625a.407.407,0,1,0,0-.815H11.422a.407.407,0,0,0,0,.815Z" transform="translate(-10.211 -8.237)"/>
            <path id="Trazado_875551" data-name="Trazado 875551" d="M216.447,41.18h-5.625a.407.407,0,1,0,0,.815h5.625a.407.407,0,0,0,0-.815Z" transform="translate(-177.11 -35.038)"/>
            <path id="Trazado_875552" data-name="Trazado 875552" d="M216.447,30.33h-5.625a.407.407,0,1,0,0,.815h5.625a.407.407,0,0,0,0-.815Z" transform="translate(-177.11 -25.957)"/>
            <path id="Trazado_875553" data-name="Trazado 875553" d="M216.447,19.49h-5.625a.407.407,0,1,0,0,.815h5.625a.407.407,0,0,0,0-.815Z" transform="translate(-177.11 -16.884)"/>
            <path id="Trazado_875554" data-name="Trazado 875554" d="M166.755,11.382h2.092a.407.407,0,0,0,0-.815h-2.092a2.145,2.145,0,1,0,0,.815Zm-3.435-.407a1.329,1.329,0,0,1,2.595-.407H164.65a.407.407,0,0,0,0,.815h1.265a1.329,1.329,0,0,1-2.595-.407Z" transform="translate(-137.009 -7.961)"/>
            <path id="Trazado_875555" data-name="Trazado 875555" d="M38.653,124.372a.407.407,0,0,0,.407-.407v-1.182a.407.407,0,0,0-.815,0v1.182A.407.407,0,0,0,38.653,124.372Z" transform="translate(-33.003 -102.999)"/>
            <path id="Trazado_875556" data-name="Trazado 875556" d="M38.246,137.525a.407.407,0,0,0,.815,0v-.248a.407.407,0,1,0-.815,0Z" transform="translate(-33.003 -115.132)"/>
            <path id="Trazado_875557" data-name="Trazado 875557" d="M7.195,107.759h9.074a1.112,1.112,0,0,0,.96-1.666l-4.536-7.858a1.11,1.11,0,0,0-1.923,0L9.923,99.7a.4.4,0,0,0-.041.31.407.407,0,0,0,.189.248.421.421,0,0,0,.557-.15l.846-1.465a.3.3,0,0,1,.512,0l4.538,7.859a.3.3,0,0,1-.256.443H7.195a.3.3,0,0,1-.258-.442L9,102.931a.406.406,0,0,0-.15-.556.417.417,0,0,0-.556.148l-2.06,3.57A1.112,1.112,0,0,0,7.195,107.759Z" transform="translate(-6.081 -82.329)"/>
            <path id="Trazado_875558" data-name="Trazado 875558" d="M24.374,117.712a.407.407,0,1,0,.556-.148A.417.417,0,0,0,24.374,117.712Z" transform="translate(-21.347 -98.929)"/>
            <path id="Trazado_875559" data-name="Trazado 875559" d="M216.515,154.927a.408.408,0,0,0-.407-.407h-5.455a.407.407,0,0,0,0,.815h5.455A.408.408,0,0,0,216.515,154.927Z" transform="translate(-176.968 -129.905)"/>
            <path id="Trazado_875560" data-name="Trazado 875560" d="M216.108,143.68h-5.455a.407.407,0,0,0,0,.815h5.455a.407.407,0,0,0,0-.815Z" transform="translate(-176.968 -120.832)"/>
            <path id="Trazado_875561" data-name="Trazado 875561" d="M216.108,132.83h-5.455a.407.407,0,0,0,0,.815h5.455a.407.407,0,0,0,0-.815Z" transform="translate(-176.968 -111.75)"/>
          </g>
        </g>
      </g>
    </g>
  </g>
</svg>
