<svg xmlns="http://www.w3.org/2000/svg" xmlns:xlink="http://www.w3.org/1999/xlink" width="328.456" height="396.588" viewBox="0 0 328.456 396.588">
  <defs>
    <clipPath id="clip-path">
      <rect id="Rectángulo_401745" data-name="Rectángulo 401745" width="328.299" height="314.692" fill="none"/>
    </clipPath>
    <clipPath id="clip-path-2">
      <path id="Trazado_875417" data-name="Trazado 875417" d="M213.577,68.11a16.184,16.184,0,0,0,1.834,3.962,42.343,42.343,0,0,1,12.72,4.133,13.889,13.889,0,0,0,5.406-3.812c-3.006-6.121-6.932-7.918-10.505-7.918-5.083,0-9.455,3.636-9.455,3.636" transform="translate(-213.577 -64.474)" fill="none"/>
    </clipPath>
    <clipPath id="clip-path-3">
      <path id="Trazado_875517" data-name="Trazado 875517" d="M161.7,175H2.362C1.057,175,0,172.059,0,168.437V6.558C0,2.936,1.057,0,2.362,0H161.7c1.3,0,2.361,2.936,2.361,6.558V168.437C164.063,172.059,163.006,175,161.7,175Z" transform="translate(0)" fill="#297929" stroke="#707070" stroke-width="1"/>
    </clipPath>
    <radialGradient id="radial-gradient" cx="0.5" cy="0.5" r="0.5" gradientUnits="objectBoundingBox">
      <stop offset="0" stop-color="#fff" stop-opacity="0"/>
      <stop offset="1" stop-color="#f9a545"/>
    </radialGradient>
    <clipPath id="clip-path-4">
      <rect id="Rectángulo_401302" data-name="Rectángulo 401302" width="36.359" height="31.493" fill="none"/>
    </clipPath>
    <clipPath id="clip-path-5">
      <rect id="Rectángulo_401302-2" data-name="Rectángulo 401302" width="31.265" height="27.081" fill="none"/>
    </clipPath>
    <clipPath id="clip-path-6">
      <rect id="Rectángulo_401302-3" data-name="Rectángulo 401302" width="40.149" height="34.776" fill="none"/>
    </clipPath>
  </defs>
  <g id="Grupo_1100039" data-name="Grupo 1100039" transform="translate(0 -23.934)">
    <ellipse id="Elipse_11526" data-name="Elipse 11526" cx="142.7" cy="129.988" rx="142.7" ry="129.988" transform="translate(38.135 28.111)" fill="#f1e7c2"/>
    <path id="Rectángulo_401329" data-name="Rectángulo 401329" d="M200,0h53.248a0,0,0,0,1,0,0V396.588a0,0,0,0,1,0,0H0a0,0,0,0,1,0,0V200A200,200,0,0,1,200,0Z" transform="translate(0.368 23.934)" fill="#c1ddc7"/>
    <g id="Grupo_1099981" data-name="Grupo 1099981" transform="translate(0.157 77.241)">
      <g id="Grupo_1099976" data-name="Grupo 1099976">
        <g id="Grupo_1099975" data-name="Grupo 1099975" clip-path="url(#clip-path)">
          <path id="Trazado_875392" data-name="Trazado 875392" d="M248.345,392.5s26.027,79.264,29.926,105.518c0,0-44.568,10.1-68.3,12.117,0,0-15.749-59.795-22.312-80.746,0,0-1.008,6.026-13.33,85.8,0,0-28.313-6.089-65.173-21.977,0,0,5.724-90.581,18.231-129.239s92.957-32.758,120.953,28.533" transform="translate(-23.195 -72.166)" fill="#f9e1ba"/>
          <path id="Trazado_875393" data-name="Trazado 875393" d="M197.132,364.993s-8.9,36.642-14.467,51.4c0,0-26.471-.979-40.935-3.969l30.789-55.092Z" transform="translate(-30.115 -75.926)" fill="#f2ce99"/>
          <path id="Trazado_875394" data-name="Trazado 875394" d="M259.025,411.263l23.22,106.831,27.87-5.813s-16.343-71.918-29.926-105.517Z" transform="translate(-55.039 -86.43)" fill="#f2ce99"/>
          <path id="Trazado_875395" data-name="Trazado 875395" d="M213.367,450.813l26.661,81.958-8.872.986L208.844,453.01Z" transform="translate(-44.376 -95.79)" fill="#f2ce99"/>
          <path id="Trazado_875396" data-name="Trazado 875396" d="M201.933,461.277l-21.108,77.577,8.737,2.176Z" transform="translate(-38.422 -98.014)" fill="#f2ce99"/>
          <line id="Línea_625" data-name="Línea 625" y1="8.52" x2="17.54" transform="translate(164.468 348.7)" fill="none" stroke="#56357c" stroke-linecap="round" stroke-linejoin="round" stroke-width="0.75"/>
          <path id="Trazado_875397" data-name="Trazado 875397" d="M138.23,503.264s19.445-113.566,31.3-159.154" transform="translate(-29.372 -73.118)" fill="none" stroke="#56357c" stroke-linecap="round" stroke-linejoin="round" stroke-width="0.75"/>
          <path id="Trazado_875398" data-name="Trazado 875398" d="M265.182,375.642s16.7,58.336,36.744,132.1" transform="translate(-56.347 -79.818)" fill="none" stroke="#56357c" stroke-linecap="round" stroke-linejoin="round" stroke-width="0.75"/>
          <line id="Línea_626" data-name="Línea 626" x1="3.735" y2="23.957" transform="translate(159.368 365.887)" fill="none" stroke="#56357c" stroke-linecap="round" stroke-linejoin="round" stroke-width="0.75"/>
          <path id="Trazado_875399" data-name="Trazado 875399" d="M210.243,457.131l6.663-8.5-8.063,3.916Z" transform="translate(-44.376 -95.326)" fill="#56357c"/>
          <path id="Trazado_875400" data-name="Trazado 875400" d="M193.03,153.394s15.022,15.4,41.2,5.841c0,0,37.259,12.57,36.119,31.564s-14.505,144.577-14.505,144.577-54.432-30.882-111.505-42.248c0,0,14.871-90.968,48.691-139.735" transform="translate(-30.67 -32.594)" fill="#eeeff0"/>
          <path id="Trazado_875401" data-name="Trazado 875401" d="M207.618,157.591s-4.677,22.248,12.367,43.226l-10.408,105.83L183.808,302.6s8.46-153.307,13.419-153.849c0,0,7.241,6.959,10.391,8.841" transform="translate(-39.056 -31.607)" fill="#d3dbe2"/>
          <path id="Trazado_875402" data-name="Trazado 875402" d="M253.53,380.515l1.017-7.436s-55.859-37.044-111.5-42.248a59.943,59.943,0,0,0-4.812,11s87.672,24.681,115.3,38.679" transform="translate(-29.372 -70.296)" fill="#56357c"/>
          <path id="Trazado_875403" data-name="Trazado 875403" d="M209.423,40.308c-.934,4.154-1.959,9.46-1.959,9.46s-6.14-4.547-10.15,7.416c-4.261,12.716,4.48,14.26,4.48,14.26s-1.991,6.9-.249,11.888c2.168,6.2,8.506,9.913,8.506,9.913l-3.976,21.707-2.037,11.121s7.4,8.384,18.767,10.357c11.452,1.379,22.433-4.516,22.433-4.516l1.349-12.71L248.74,98.93s7.138-1.731,11-7.048c3.1-4.273,3.182-11.457,3.182-11.457s8.816,1.036,8.393-12.369c-.4-12.611-7.587-10.023-7.587-10.023s.543-5.377.844-9.624c0,0,.863-19.323-24.788-23.092s-30.358,14.99-30.358,14.99" transform="translate(-41.677 -5.273)" fill="#ffb580"/>
          <path id="Trazado_875404" data-name="Trazado 875404" d="M251.555,25.453c25.652,3.769,24.788,23.092,24.788,23.092-.3,4.247-.844,9.623-.844,9.623s7.188-2.589,7.587,10.023c.424,13.4-8.393,12.369-8.393,12.369s-.079,7.185-3.182,11.457c-3.86,5.317-11,7.048-11,7.048l-2.152,20.275-1.35,12.709a39.414,39.414,0,0,1-4.62,1.995l2.6-33.722s14.5-7.755,15.132-22.037c0,0,1.883-20.558,1.883-26.051S269.7,31,251.555,25.453" transform="translate(-53.451 -5.408)" fill="#f0a975"/>
          <path id="Trazado_875405" data-name="Trazado 875405" d="M216.981,113.531s15.624,9.617,33.352,4.9c0,0-4.733,8.585-18.01,6.634s-15.342-11.535-15.342-11.535" transform="translate(-46.105 -24.123)" fill="#56357c"/>
          <path id="Trazado_875406" data-name="Trazado 875406" d="M281.771,85.312s2.48-1.192,2.036-3.233-2.232-1.7-1.992-3.794" transform="translate(-59.872 -16.634)" fill="none" stroke="#56357c" stroke-linecap="round" stroke-linejoin="round" stroke-width="0.75"/>
          <path id="Trazado_875407" data-name="Trazado 875407" d="M283.531,71.787s4.018-1.184,3.767,6.025" transform="translate(-60.246 -15.238)" fill="none" stroke="#56357c" stroke-linecap="round" stroke-linejoin="round" stroke-width="0.75"/>
          <path id="Trazado_875408" data-name="Trazado 875408" d="M203.984,74.733s-2.032-1.855-1.02-3.682,2.626-.985,3-3.062" transform="translate(-43.066 -14.447)" fill="none" stroke="#56357c" stroke-linecap="round" stroke-linejoin="round" stroke-width="0.75"/>
          <path id="Trazado_875409" data-name="Trazado 875409" d="M206.188,60.558s-3.508-2.29-5.341,4.688" transform="translate(-42.677 -12.791)" fill="none" stroke="#56357c" stroke-linecap="round" stroke-linejoin="round" stroke-width="0.75"/>
          <path id="Trazado_875410" data-name="Trazado 875410" d="M235.506,83.178s-3.9,2.052-.95,4.88" transform="translate(-49.604 -17.674)" fill="none" stroke="#56357c" stroke-linecap="round" stroke-linejoin="round" stroke-width="0.75"/>
          <path id="Trazado_875411" data-name="Trazado 875411" d="M248.886,88.341c3.643-1.859.495-4.947.495-4.947s-2.115-1.872-1.025-6.65" transform="translate(-52.705 -16.307)" fill="none" stroke="#56357c" stroke-linecap="round" stroke-linejoin="round" stroke-width="0.75"/>
          <path id="Trazado_875412" data-name="Trazado 875412" d="M237.885,88.762s.986-.953,2.1.381" transform="translate(-50.547 -18.79)" fill="none" stroke="#56357c" stroke-linecap="round" stroke-linejoin="round" stroke-width="0.75"/>
          <path id="Trazado_875413" data-name="Trazado 875413" d="M243.791,89.63s.986-.953,2.1.381" transform="translate(-51.802 -18.975)" fill="none" stroke="#56357c" stroke-linecap="round" stroke-linejoin="round" stroke-width="0.75"/>
          <path id="Trazado_875414" data-name="Trazado 875414" d="M250.723,78.22a9.142,9.142,0,0,1,4.117-4.412,9.676,9.676,0,0,1,6.3-.958,13.582,13.582,0,0,1,2.978.932,10.9,10.9,0,0,1,2.65,1.69,7.738,7.738,0,0,1,2.856,5.4.3.3,0,0,1-.531.206l-.038-.045a13.349,13.349,0,0,0-3.971-3.186,17.017,17.017,0,0,0-2.229-.972c-.763-.253-1.593-.5-2.351-.666a9.921,9.921,0,0,0-4.625.133,15.636,15.636,0,0,0-4.682,2.23l-.03.02a.3.3,0,0,1-.42-.081.308.308,0,0,1-.028-.287" transform="translate(-53.269 -15.445)" fill="#56357c"/>
          <path id="Trazado_875415" data-name="Trazado 875415" d="M215.415,72.078a16.183,16.183,0,0,1-1.838-3.97s12.638-10.55,19.96,4.283a13.9,13.9,0,0,1-5.429,3.821,41,41,0,0,0-12.693-4.134" transform="translate(-45.382 -13.699)" fill="#fff"/>
        </g>
      </g>
      <g id="Grupo_1099978" data-name="Grupo 1099978" transform="translate(168.196 50.774)">
        <g id="Grupo_1099977" data-name="Grupo 1099977" transform="translate(0)" clip-path="url(#clip-path-2)">
          <path id="Trazado_875416" data-name="Trazado 875416" d="M217.921,70.074a6.5,6.5,0,1,0,7.366-5.509,6.5,6.5,0,0,0-7.366,5.509" transform="translate(-214.486 -64.479)" fill="#56357c"/>
        </g>
      </g>
      <g id="Grupo_1099980" data-name="Grupo 1099980" transform="translate(0 0)">
        <g id="Grupo_1099982" data-name="Grupo 1099982" transform="translate(0)">
          <path id="Trazado_875418" data-name="Trazado 875418" d="M233.175,71.607a19.727,19.727,0,0,0-3.655-5.035,9.083,9.083,0,0,0-4.832-2.492,12.023,12.023,0,0,0-5.589.349,16.325,16.325,0,0,0-5.343,2.993l-.028.024a.3.3,0,0,1-.474-.334,9.9,9.9,0,0,1,4.7-5.328,11.116,11.116,0,0,1,7.351-1.067,9.807,9.807,0,0,1,3.6,1.435,10.29,10.29,0,0,1,2.722,2.633,11.62,11.62,0,0,1,2.131,6.708.3.3,0,0,1-.3.3.3.3,0,0,1-.262-.158Z" transform="translate(-45.309 -12.857)" fill="#56357c"/>
          <path id="Trazado_875419" data-name="Trazado 875419" d="M227.138,91.987s11.3,2.29,22.439,3.388c0,0-4.541,9.5-12.722,8.263-8.686-1.312-9.716-11.651-9.716-11.651" transform="translate(-48.263 -19.546)" fill="#56357c"/>
          <path id="Trazado_875420" data-name="Trazado 875420" d="M230.052,100.345s6.251-.456,7.952,1.931c0,0,2.195-1.572,7.509.725,0,0-2.537,3.071-8.04,2.406a9.693,9.693,0,0,1-7.421-5.061" transform="translate(-48.882 -21.314)" fill="#d36e92"/>
          <path id="Trazado_875421" data-name="Trazado 875421" d="M227.138,91.987s10.238,8.177,22.439,3.388c0,0-11.251-1.935-22.439-3.388" transform="translate(-48.263 -19.546)" fill="#eeeff0"/>
          <path id="Trazado_875422" data-name="Trazado 875422" d="M268.222,59.182a2.227,2.227,0,0,0,2.54-3.453,13.876,13.876,0,0,0-7.992-5.346c-8.565-2.027-5.061,5.077.474,6.99,1.783.617,3.487,1.243,4.978,1.809" transform="translate(-54.74 -10.629)" fill="#56357c"/>
          <path id="Trazado_875423" data-name="Trazado 875423" d="M223.107,50.738a2.227,2.227,0,0,1-.6-4.245,13.883,13.883,0,0,1,9.571-.915c8.5,2.279,2.047,6.87-3.734,5.929-1.862-.3-3.659-.561-5.24-.769" transform="translate(-46.998 -9.586)" fill="#56357c"/>
          <path id="Trazado_875424" data-name="Trazado 875424" d="M260.926,67.629s3.411-1,5.787.976" transform="translate(-55.443 -14.317)" fill="none" stroke="#56357c" stroke-linecap="round" stroke-linejoin="round" stroke-width="1"/>
          <path id="Trazado_875425" data-name="Trazado 875425" d="M205.483,43.683s3.461-.22,2.7,2.951c-1.121,4.683.965,2.436,2.573,2.075s2.252-1,3.645-8.186,8.888-16.785,13.507-14.938,4.77,7.5,1.707,7.931c0,0,12.8,2.253,10.626-8.163,0,0,2.065,10.31,14.063,8.336,0,0,.356,7.9,7.743,11.1,0,0-.246,5.294-.739,10.588,0,0-.25,1.536,2.129,1.536s1.083-1.492,2.54-4.34c0,0,3.816-6.076,5.781-8.523,0,0,5.32.439,7.285-5.98s-1.129-9.7-1.129-9.7,3.756-5.466-2.671-10.754c-4.593-3.778-10.311-1.429-10.311-1.429s.669-7.6-2.737-8.515c0,0-1.179,4.846-4.061,5.109,0,0-3.751-13.956-16.881-12.707-10.882,1.036-13.335,9.092-13.335,9.092s-3.214-1.057-1.039-5.925c0,0-4.244,2.99-4.244,6.92A7.137,7.137,0,0,0,218.186,8.2a4.624,4.624,0,0,1,.655,3.93s-14.112-4.8-16.109,10.853c0,0-1.5,10.249,4.031,11.443Z" transform="translate(-43.038 0)" fill="#56357c"/>
          <path id="Trazado_875426" data-name="Trazado 875426" d="M291.172,84.5a2.988,2.988,0,0,1,.925,1c.643,1.113.517,2.389-.28,2.849s-1.964-.069-2.607-1.183-.517-2.389.28-2.849" transform="translate(-61.365 -17.917)" fill="none" stroke="#56357c" stroke-linecap="round" stroke-linejoin="round" stroke-width="0.75"/>
          <path id="Trazado_875427" data-name="Trazado 875427" d="M285.978,89.6a1.344,1.344,0,1,1-1.344-1.344,1.344,1.344,0,0,1,1.344,1.344" transform="translate(-60.194 -18.753)" fill="#56357c"/>
          <path id="Trazado_875428" data-name="Trazado 875428" d="M198.14,80.155a27.955,27.955,0,0,0,5.217-1.781l-1.137,4.45a6.128,6.128,0,0,1-4.079-2.669" transform="translate(-42.102 -16.654)" fill="#f0a975"/>
          <path id="Trazado_875429" data-name="Trazado 875429" d="M343.071,174.049l3.23,25.128s21.765-.99,25.128-10.684,7.74-8.052-11.069-34Z" transform="translate(-72.897 -32.827)" fill="#fdb580"/>
          <path id="Trazado_875430" data-name="Trazado 875430" d="M347.172,200.07s21.765-.989,25.128-10.684c3.213-9.263,7.351-8.176-8.69-30.693,0,0,2.908,26.493-16.438,41.378" transform="translate(-73.768 -33.72)" fill="#f0a975"/>
          <path id="Trazado_875431" data-name="Trazado 875431" d="M356.194,143.9s-3.374,14.619-9.638,20.08-14.779,2.731-12.691-12.048c0,0-10.694,1.529-7.076-6.753,0,0-5.869-2.733-2.01-9.568,0,0-3.3-2.815,1.849-7.317,0,0-2.975-5.226,4.342-7.155,0,0,6.271-.8,11.256-1.447a11.744,11.744,0,0,0,2.653-5.307c.4-2.814,1.77-11.1,7.88-9.568s2.493,4.9.884,11.417a24.569,24.569,0,0,0,0,3.779,35.007,35.007,0,0,1-.8,6.68,104.132,104.132,0,0,1,3.355,17.207" transform="translate(-68.731 -22.232)" fill="#fdb580"/>
          <path id="Trazado_875432" data-name="Trazado 875432" d="M347.41,124.008s8.894,0,10.613,7" transform="translate(-73.819 -26.35)" fill="none" stroke="#56357c" stroke-linecap="round" stroke-linejoin="round" stroke-width="0.75"/>
          <path id="Trazado_875433" data-name="Trazado 875433" d="M327.6,134.614s3.173-2.115,15.017-.679" transform="translate(-69.61 -28.353)" fill="none" stroke="#56357c" stroke-linecap="round" stroke-linejoin="round" stroke-width="0.75"/>
          <path id="Trazado_875434" data-name="Trazado 875434" d="M342.121,142.389s-14.219-1.686-16.866,1.344" transform="translate(-69.111 -30.156)" fill="none" stroke="#56357c" stroke-linecap="round" stroke-linejoin="round" stroke-width="0.75"/>
          <path id="Trazado_875435" data-name="Trazado 875435" d="M327.808,155.529s2.43-3.124,11.706-3.124" transform="translate(-69.654 -32.384)" fill="none" stroke="#56357c" stroke-linecap="round" stroke-linejoin="round" stroke-width="0.75"/>
          <path id="Trazado_875436" data-name="Trazado 875436" d="M95.583,139.261l-11.651,22.5s-20.1-8.393-19.94-18.653-4.509-10.218,22.058-28.144Z" transform="translate(-13.551 -24.428)" fill="#fdb580"/>
          <path id="Trazado_875437" data-name="Trazado 875437" d="M91.946,105.356s-1.844,14.889,2.168,22.168,12.946,7.633,16.053-6.966c0,0,9.521,5.1,8.963-3.917,0,0,6.451-.555,5.169-8.3,0,0,4.061-1.513.772-7.507,0,0,4.586-3.889-1.625-8.211,0,0-5.615-2.906-10.077-5.22a11.746,11.746,0,0,1-.673-5.895c.587-2.781,2.143-11.029-4.12-11.689s-4.023,3.752-4.746,10.421a24.511,24.511,0,0,1-1.3,3.549A34.951,34.951,0,0,0,101,90.342a104.155,104.155,0,0,0-9.053,15.014" transform="translate(-19.447 -14.822)" fill="#fdb580"/>
          <path id="Trazado_875438" data-name="Trazado 875438" d="M115.723,92.157s-8.356-3.046-12.37,2.937" transform="translate(-21.961 -19.417)" fill="none" stroke="#56357c" stroke-linecap="round" stroke-linejoin="round" stroke-width="0.75"/>
          <path id="Trazado_875439" data-name="Trazado 875439" d="M130.177,107.858s-2.255-3.075-13.874-5.787" transform="translate(-24.713 -21.689)" fill="none" stroke="#56357c" stroke-linecap="round" stroke-linejoin="round" stroke-width="0.75"/>
          <path id="Trazado_875440" data-name="Trazado 875440" d="M113.407,110s13.935,3.293,15.383,7.047" transform="translate(-24.097 -23.374)" fill="none" stroke="#56357c" stroke-linecap="round" stroke-linejoin="round" stroke-width="0.75"/>
          <path id="Trazado_875441" data-name="Trazado 875441" d="M123.7,127.615s-1.212-3.768-9.925-6.949" transform="translate(-24.175 -25.64)" fill="none" stroke="#56357c" stroke-linecap="round" stroke-linejoin="round" stroke-width="0.75"/>
          <path id="Trazado_875442" data-name="Trazado 875442" d="M86.216,148.516,97.671,144.5s6.37-1.351,11.368-10.234c0,0-1.967,12.777-10.126,11.877L92.02,159.451Z" transform="translate(-18.32 -28.529)" fill="#f0a975"/>
          <path id="Trazado_875443" data-name="Trazado 875443" d="M173.119,195.656c0,40.93-36.207,166.865-36.207,166.865a228.538,228.538,0,0,1-76.84-6.3C73.851,304.409,98.1,234.81,98.1,234.81,26.783,247.767,3.841,243.939.16,209.891s57.491-81.748,57.491-81.748c1.518,13.655,15.955,18.1,20.979,19.234a1.115,1.115,0,0,1,.656,1.744A86.99,86.99,0,0,0,71.3,163.48s33.589-20.892,48.366-20.892c7.389,0,17.325,1.147,25.415,2.293,1.154.164,4.634-20.905,21.137-18.28l-3.856,21.052c-2.838,7.044-5.966,24.347,10.758,48" transform="translate(0 -26.853)" fill="#7d8af5"/>
          <path id="Trazado_875444" data-name="Trazado 875444" d="M105.417,253.279c-33.13,6.019-55.822,8.415-70.991,5.843,0,0,49.71-19.82,80.22-45.829,0,0-3.421,22.96-9.23,39.985" transform="translate(-7.315 -45.322)" fill="#5669d8"/>
          <path id="Trazado_875445" data-name="Trazado 875445" d="M186.153,195.625s2.416,19.693,14.935,25.549l.827-4.686s-9-6.1-15.762-20.863" transform="translate(-39.555 -41.567)" fill="#5669d8"/>
          <path id="Trazado_875446" data-name="Trazado 875446" d="M178.118,149.874s-11.948,32.473,17.28,56.892c0,0-13.454,80.342-39.916,152.318" transform="translate(-33.038 -31.846)" fill="none" stroke="#56357c" stroke-linecap="round" stroke-linejoin="round" stroke-width="0.75"/>
          <line id="Línea_627" data-name="Línea 627" y1="26.896" x2="9.308" transform="translate(92.291 198.087)" fill="none" stroke="#56357c" stroke-linecap="round" stroke-linejoin="round" stroke-width="0.75"/>
          <path id="Trazado_875447" data-name="Trazado 875447" d="M120.576,261.621l-14.8,2.555L123.8,252.553Z" transform="translate(-22.475 -53.664)" fill="#56357c"/>
          <path id="Trazado_875448" data-name="Trazado 875448" d="M87.816,170.62l-10.083,22.02,29.113-32.662Z" transform="translate(-16.517 -33.993)" fill="#5669d8"/>
          <path id="Trazado_875449" data-name="Trazado 875449" d="M90.42,164.3a279.671,279.671,0,0,0-17.214,38.884" transform="translate(-15.555 -34.912)" fill="none" stroke="#56357c" stroke-linecap="round" stroke-linejoin="round" stroke-width="0.75"/>
          <path id="Trazado_875450" data-name="Trazado 875450" d="M59.116,140.559s2.071,16,23.827,26.639" transform="translate(-12.561 -29.867)" fill="none" stroke="#56357c" stroke-linecap="round" stroke-linejoin="round" stroke-width="0.75"/>
          <path id="Trazado_875451" data-name="Trazado 875451" d="M347.045,168.053a1.529,1.529,0,0,1,2.563.079c48.711,81.155,21.786,102.8-4.544,104.6-26.55,1.811-45.171-17.777-45.171-17.777-3.62,48.876-5.431,95.941-5.431,95.941a227.133,227.133,0,0,1-66.374,14.346l1.306-167.359c25.056-17.226,23.3-38.514,22.631-42.568l2.164-20.38c12.069,3.389,12.865,18.774,12.865,18.774s15.943,2.288,26.8,12.547S320.324,196.7,320.324,196.7a70.384,70.384,0,0,1-.943-9.58,1.519,1.519,0,0,1,1.509-1.531c3.941-.046,15.091-1.712,26.154-17.537" transform="translate(-48.465 -28.671)" fill="#7d8af5"/>
          <path id="Trazado_875452" data-name="Trazado 875452" d="M319.266,271.656s18.622,19.586,45.171,17.776c8.3-.565,16.653-3.1,22.683-8.851,0,0,22.055-16.717-2.818-67.042,0,0,14.818,56.624-40.134,55.073-16.079-.772-23.694-5.717-23.694-5.717Z" transform="translate(-67.839 -45.374)" fill="#5669d8"/>
          <line id="Línea_628" data-name="Línea 628" y1="23.95" x2="2.937" transform="translate(251.06 207.374)" fill="none" stroke="#56357c" stroke-linecap="round" stroke-linejoin="round" stroke-width="0.75"/>
          <ellipse id="Elipse_11583" data-name="Elipse 11583" cx="2.424" cy="2.424" rx="2.424" ry="2.424" transform="translate(198.396 219.602) rotate(-22.5)" fill="none" stroke="#56357c" stroke-linecap="round" stroke-linejoin="round" stroke-width="0.75"/>
          <ellipse id="Elipse_11584" data-name="Elipse 11584" cx="2.424" cy="2.424" rx="2.424" ry="2.424" transform="translate(200.82 239.721) rotate(-22.5)" fill="none" stroke="#56357c" stroke-linecap="round" stroke-linejoin="round" stroke-width="0.75"/>
          <path id="Trazado_875453" data-name="Trazado 875453" d="M263.874,330.177a2.424,2.424,0,1,1-2.424-2.424A2.424,2.424,0,0,1,263.874,330.177Z" transform="translate(-55.039 -69.642)" fill="none" stroke="#56357c" stroke-linecap="round" stroke-linejoin="round" stroke-width="0.75"/>
          <path id="Trazado_875454" data-name="Trazado 875454" d="M321.13,270.292l6.918,20.585-8.937-6.526Z" transform="translate(-67.806 -57.433)" fill="#56357c"/>
          <path id="Trazado_875455" data-name="Trazado 875455" d="M340.392,207.569l-17.863-21.49,20.485,43.25Z" transform="translate(-68.532 -39.539)" fill="#5669d8"/>
          <path id="Trazado_875456" data-name="Trazado 875456" d="M344.245,205.655S347.324,231.8,349,244.02" transform="translate(-73.147 -43.699)" fill="none" stroke="#56357c" stroke-linecap="round" stroke-linejoin="round" stroke-width="0.75"/>
          <path id="Trazado_875457" data-name="Trazado 875457" d="M345.211,208.469s21.5,7.915,35.3-18.152" transform="translate(-73.352 -40.44)" fill="none" stroke="#56357c" stroke-linecap="round" stroke-linejoin="round" stroke-width="0.75"/>
          <path id="Trazado_875458" data-name="Trazado 875458" d="M271.818,159.174l-2.131-.4s-1.027,38.92-29.2,51.984l1.793,41.471,2.251-38.94s31.965-10.942,27.291-54.113" transform="translate(-51.099 -33.737)" fill="#5669d8"/>
          <path id="Trazado_875459" data-name="Trazado 875459" d="M269.688,158.773s-2.05,41.056-29.205,51.984c0,0,4.149,97.825,6.725,147.812" transform="translate(-51.099 -33.737)" fill="none" stroke="#56357c" stroke-linecap="round" stroke-linejoin="round" stroke-width="0.75"/>
          <path id="Trazado_875460" data-name="Trazado 875460" d="M363.02,96.888a14.089,14.089,0,0,1,7.533-8.786" transform="translate(-77.136 -18.721)" fill="none" stroke="#56357c" stroke-linecap="round" stroke-linejoin="round" stroke-width="0.75"/>
          <path id="Trazado_875461" data-name="Trazado 875461" d="M373.076,105.457a10.376,10.376,0,0,1,5.987-1.737" transform="translate(-79.273 -22.039)" fill="none" stroke="#56357c" stroke-linecap="round" stroke-linejoin="round" stroke-width="0.75"/>
          <path id="Trazado_875462" data-name="Trazado 875462" d="M351.508,96.667s-1.835-4.249-1.158-7.05" transform="translate(-74.412 -19.042)" fill="none" stroke="#56357c" stroke-linecap="round" stroke-linejoin="round" stroke-width="0.75"/>
          <path id="Trazado_875463" data-name="Trazado 875463" d="M360.335,89.341a1.024,1.024,0,1,1-1.025-1.024A1.024,1.024,0,0,1,360.335,89.341Z" transform="translate(-76.13 -18.766)" fill="none" stroke="#56357c" stroke-linecap="round" stroke-linejoin="round" stroke-width="0.75"/>
          <path id="Trazado_875464" data-name="Trazado 875464" d="M356.4,98.068a.773.773,0,1,1-.773-.773.773.773,0,0,1,.773.773" transform="translate(-75.401 -20.674)" fill="#56357c"/>
          <path id="Trazado_875465" data-name="Trazado 875465" d="M373.64,92.489a.773.773,0,1,1-.773-.773.773.773,0,0,1,.773.773" transform="translate(-79.064 -19.488)" fill="#56357c"/>
          <path id="Trazado_875466" data-name="Trazado 875466" d="M372.793,99.3a1.023,1.023,0,1,1-1.024-1.024A1.024,1.024,0,0,1,372.793,99.3Z" transform="translate(-78.778 -20.882)" fill="none" stroke="#56357c" stroke-linecap="round" stroke-linejoin="round" stroke-width="0.75"/>
          <path id="Trazado_875467" data-name="Trazado 875467" d="M353.49,107.191s2.281-4.1,6.4-2.192" transform="translate(-75.111 -22.203)" fill="none" stroke="#56357c" stroke-linecap="round" stroke-linejoin="round" stroke-width="0.75"/>
          <path id="Trazado_875468" data-name="Trazado 875468" d="M104.812,62.648a14.092,14.092,0,0,0-8.465-7.892" transform="translate(-20.472 -11.635)" fill="none" stroke="#56357c" stroke-linecap="round" stroke-linejoin="round" stroke-width="0.75"/>
          <path id="Trazado_875469" data-name="Trazado 875469" d="M96.189,72.224a10.381,10.381,0,0,0-6.143-1.06" transform="translate(-19.133 -15.11)" fill="none" stroke="#56357c" stroke-linecap="round" stroke-linejoin="round" stroke-width="0.75"/>
          <path id="Trazado_875470" data-name="Trazado 875470" d="M118.109,60.924s1.35-4.427.366-7.135" transform="translate(-25.096 -11.43)" fill="none" stroke="#56357c" stroke-linecap="round" stroke-linejoin="round" stroke-width="0.75"/>
          <path id="Trazado_875471" data-name="Trazado 875471" d="M108.141,54.652a1.023,1.023,0,1,0,.9-1.131A1.023,1.023,0,0,0,108.141,54.652Z" transform="translate(-22.977 -11.371)" fill="none" stroke="#56357c" stroke-linecap="round" stroke-linejoin="round" stroke-width="0.75"/>
          <path id="Trazado_875472" data-name="Trazado 875472" d="M113.151,62.879a.773.773,0,1,0,.682-.854.773.773,0,0,0-.682.854" transform="translate(-24.042 -13.179)" fill="#56357c"/>
          <path id="Trazado_875473" data-name="Trazado 875473" d="M95.4,59.257a.773.773,0,1,0,.682-.854.773.773,0,0,0-.682.854" transform="translate(-20.269 -12.409)" fill="#56357c"/>
          <path id="Trazado_875474" data-name="Trazado 875474" d="M96.87,65.937a1.023,1.023,0,1,0,.9-1.131A1.024,1.024,0,0,0,96.87,65.937Z" transform="translate(-20.582 -13.769)" fill="none" stroke="#56357c" stroke-linecap="round" stroke-linejoin="round" stroke-width="0.75"/>
          <path id="Trazado_875475" data-name="Trazado 875475" d="M115.75,71.72s-2.725-3.823-6.609-1.465" transform="translate(-23.191 -14.765)" fill="none" stroke="#56357c" stroke-linecap="round" stroke-linejoin="round" stroke-width="0.75"/>
        </g>
      </g>
    </g>
    <g id="Grupo_1099383" data-name="Grupo 1099383" transform="translate(235.896 38.574) rotate(90)">
      <path id="Trazado_873218" data-name="Trazado 873218" d="M0,1.306A1.351,1.351,0,0,1,.332.373,1.267,1.267,0,0,1,1.33,0,1.3,1.3,0,0,1,2.339.373a1.324,1.324,0,0,1,.344.933,1.252,1.252,0,0,1-.344.9,1.328,1.328,0,0,1-1.009.362,1.289,1.289,0,0,1-1-.362A1.277,1.277,0,0,1,0,1.306Zm12.2,0a1.351,1.351,0,0,1,.332-.933,1.267,1.267,0,0,1,1-.373A1.3,1.3,0,0,1,14.54.373a1.324,1.324,0,0,1,.344.933,1.252,1.252,0,0,1-.344.9,1.328,1.328,0,0,1-1.009.362,1.289,1.289,0,0,1-1-.362A1.277,1.277,0,0,1,12.2,1.306Zm12.2,0a1.351,1.351,0,0,1,.332-.933,1.267,1.267,0,0,1,1-.373,1.3,1.3,0,0,1,1.009.373,1.324,1.324,0,0,1,.344.933,1.252,1.252,0,0,1-.344.9,1.328,1.328,0,0,1-1.009.362,1.289,1.289,0,0,1-1-.362A1.277,1.277,0,0,1,24.4,1.306Zm12.2,0a1.351,1.351,0,0,1,.332-.933,1.267,1.267,0,0,1,1-.373,1.3,1.3,0,0,1,1.009.373,1.324,1.324,0,0,1,.344.933,1.252,1.252,0,0,1-.344.9,1.328,1.328,0,0,1-1.009.362,1.289,1.289,0,0,1-1-.362A1.277,1.277,0,0,1,36.6,1.306Zm12.2,0a1.351,1.351,0,0,1,.332-.933,1.267,1.267,0,0,1,1-.373,1.3,1.3,0,0,1,1.009.373,1.324,1.324,0,0,1,.344.933,1.252,1.252,0,0,1-.344.9,1.328,1.328,0,0,1-1.009.362,1.289,1.289,0,0,1-1-.362A1.277,1.277,0,0,1,48.806,1.306Zm12.2,0A1.351,1.351,0,0,1,61.34.373a1.267,1.267,0,0,1,1-.373,1.3,1.3,0,0,1,1.009.373,1.324,1.324,0,0,1,.344.933,1.252,1.252,0,0,1-.344.9,1.328,1.328,0,0,1-1.009.362,1.289,1.289,0,0,1-1-.362A1.277,1.277,0,0,1,61.008,1.306Z" transform="translate(0 0)" fill="#5f6e62"/>
      <path id="Trazado_873216" data-name="Trazado 873216" d="M0,1.306A1.351,1.351,0,0,1,.332.373,1.267,1.267,0,0,1,1.33,0,1.3,1.3,0,0,1,2.339.373a1.324,1.324,0,0,1,.344.933,1.252,1.252,0,0,1-.344.9,1.328,1.328,0,0,1-1.009.362,1.289,1.289,0,0,1-1-.362A1.277,1.277,0,0,1,0,1.306Zm12.2,0a1.351,1.351,0,0,1,.332-.933,1.267,1.267,0,0,1,1-.373A1.3,1.3,0,0,1,14.54.373a1.324,1.324,0,0,1,.344.933,1.252,1.252,0,0,1-.344.9,1.328,1.328,0,0,1-1.009.362,1.289,1.289,0,0,1-1-.362A1.277,1.277,0,0,1,12.2,1.306Zm12.2,0a1.351,1.351,0,0,1,.332-.933,1.267,1.267,0,0,1,1-.373,1.3,1.3,0,0,1,1.009.373,1.324,1.324,0,0,1,.344.933,1.252,1.252,0,0,1-.344.9,1.328,1.328,0,0,1-1.009.362,1.289,1.289,0,0,1-1-.362A1.277,1.277,0,0,1,24.4,1.306Zm12.2,0a1.351,1.351,0,0,1,.332-.933,1.267,1.267,0,0,1,1-.373,1.3,1.3,0,0,1,1.009.373,1.324,1.324,0,0,1,.344.933,1.252,1.252,0,0,1-.344.9,1.328,1.328,0,0,1-1.009.362,1.289,1.289,0,0,1-1-.362A1.277,1.277,0,0,1,36.6,1.306Zm12.2,0a1.351,1.351,0,0,1,.332-.933,1.267,1.267,0,0,1,1-.373,1.3,1.3,0,0,1,1.009.373,1.324,1.324,0,0,1,.344.933,1.252,1.252,0,0,1-.344.9,1.328,1.328,0,0,1-1.009.362,1.289,1.289,0,0,1-1-.362A1.277,1.277,0,0,1,48.806,1.306Zm12.2,0A1.351,1.351,0,0,1,61.34.373a1.267,1.267,0,0,1,1-.373,1.3,1.3,0,0,1,1.009.373,1.324,1.324,0,0,1,.344.933,1.252,1.252,0,0,1-.344.9,1.328,1.328,0,0,1-1.009.362,1.289,1.289,0,0,1-1-.362A1.277,1.277,0,0,1,61.008,1.306Z" transform="translate(0 9.025)" fill="#5f6e62"/>
      <path id="Trazado_873217" data-name="Trazado 873217" d="M0,1.306A1.351,1.351,0,0,1,.332.373,1.267,1.267,0,0,1,1.33,0,1.3,1.3,0,0,1,2.339.373a1.324,1.324,0,0,1,.344.933,1.252,1.252,0,0,1-.344.9,1.328,1.328,0,0,1-1.009.362,1.289,1.289,0,0,1-1-.362A1.277,1.277,0,0,1,0,1.306Zm12.2,0a1.351,1.351,0,0,1,.332-.933,1.267,1.267,0,0,1,1-.373A1.3,1.3,0,0,1,14.54.373a1.324,1.324,0,0,1,.344.933,1.252,1.252,0,0,1-.344.9,1.328,1.328,0,0,1-1.009.362,1.289,1.289,0,0,1-1-.362A1.277,1.277,0,0,1,12.2,1.306Zm12.2,0a1.351,1.351,0,0,1,.332-.933,1.267,1.267,0,0,1,1-.373,1.3,1.3,0,0,1,1.009.373,1.324,1.324,0,0,1,.344.933,1.252,1.252,0,0,1-.344.9,1.328,1.328,0,0,1-1.009.362,1.289,1.289,0,0,1-1-.362A1.277,1.277,0,0,1,24.4,1.306Zm12.2,0a1.351,1.351,0,0,1,.332-.933,1.267,1.267,0,0,1,1-.373,1.3,1.3,0,0,1,1.009.373,1.324,1.324,0,0,1,.344.933,1.252,1.252,0,0,1-.344.9,1.328,1.328,0,0,1-1.009.362,1.289,1.289,0,0,1-1-.362A1.277,1.277,0,0,1,36.6,1.306Zm12.2,0a1.351,1.351,0,0,1,.332-.933,1.267,1.267,0,0,1,1-.373,1.3,1.3,0,0,1,1.009.373,1.324,1.324,0,0,1,.344.933,1.252,1.252,0,0,1-.344.9,1.328,1.328,0,0,1-1.009.362,1.289,1.289,0,0,1-1-.362A1.277,1.277,0,0,1,48.806,1.306Zm12.2,0A1.351,1.351,0,0,1,61.34.373a1.267,1.267,0,0,1,1-.373,1.3,1.3,0,0,1,1.009.373,1.324,1.324,0,0,1,.344.933,1.252,1.252,0,0,1-.344.9,1.328,1.328,0,0,1-1.009.362,1.289,1.289,0,0,1-1-.362A1.277,1.277,0,0,1,61.008,1.306Z" transform="translate(0 17.519)" fill="#5f6e62"/>
    </g>
    <g id="Grupo_1100002" data-name="Grupo 1100002" transform="translate(0 245.526)">
      <g id="Enmascarar_grupo_1098713" data-name="Enmascarar grupo 1098713" transform="translate(0)" clip-path="url(#clip-path-3)">
        <path id="Sustracción_32" data-name="Sustracción 32" d="M118.2,236.405A119.075,119.075,0,0,1,94.38,234a117.569,117.569,0,0,1-42.266-17.786A118.543,118.543,0,0,1,9.289,164.213,117.649,117.649,0,0,1,2.4,142.024a119.363,119.363,0,0,1,0-47.643A117.569,117.569,0,0,1,20.187,52.115,118.548,118.548,0,0,1,72.193,9.289,117.59,117.59,0,0,1,94.38,2.4a119.342,119.342,0,0,1,47.643,0A117.556,117.556,0,0,1,184.29,20.187a118.554,118.554,0,0,1,42.825,52.006A117.6,117.6,0,0,1,234,94.381a119.342,119.342,0,0,1,0,47.643,117.546,117.546,0,0,1-17.786,42.267,118.541,118.541,0,0,1-52.006,42.825A117.616,117.616,0,0,1,142.024,234,119.067,119.067,0,0,1,118.2,236.405Zm0-189.214a71.506,71.506,0,0,0-14.312,1.443A70.63,70.63,0,0,0,78.5,59.319,71.222,71.222,0,0,0,52.77,90.561a70.658,70.658,0,0,0-4.138,13.33,71.7,71.7,0,0,0,0,28.623,70.63,70.63,0,0,0,10.685,25.392,71.216,71.216,0,0,0,31.244,25.728,70.624,70.624,0,0,0,13.33,4.138,71.7,71.7,0,0,0,28.623,0,70.623,70.623,0,0,0,25.392-10.685,71.218,71.218,0,0,0,25.728-31.244,70.639,70.639,0,0,0,4.138-13.33,71.7,71.7,0,0,0,0-28.623A70.618,70.618,0,0,0,177.086,78.5a71.216,71.216,0,0,0-31.243-25.728,70.681,70.681,0,0,0-13.33-4.138A71.505,71.505,0,0,0,118.2,47.191Z" transform="translate(150.645 245.328) rotate(180)" fill="url(#radial-gradient)"/>
      </g>
      <g id="Grupo_1100001" data-name="Grupo 1100001" transform="translate(87.652 56.879)">
        <path id="Trazado_873222" data-name="Trazado 873222" d="M-11400.343-11374.733s42.405-82.88,122.536-100.373" transform="translate(11400.343 11491.673)" fill="none" stroke="#869a8a" stroke-width="2"/>
        <g id="Grupo_1099331" data-name="Grupo 1099331" transform="translate(78.433 66.195) rotate(130)">
          <g id="Grupo_1099328" data-name="Grupo 1099328" transform="translate(0 0)" clip-path="url(#clip-path-4)">
            <path id="Trazado_873219" data-name="Trazado 873219" d="M34.97,30.441S11.451-12.4,1.371,3.562c0,0-11.76,15.959,33.6,26.879" transform="translate(1.387 0.707)" fill="#c1ddc7"/>
            <path id="Trazado_873220" data-name="Trazado 873220" d="M26.845,20.991c-3.645-3.385-8.962-8.366-12.734-11.5C9.71,5.939,5.283,2.142,0,0L.084.025C.3.084.512.151.722.227.8.252.882.286.974.319,6.1,2.016,10.483,5.5,14.649,8.845a110.281,110.281,0,0,1,12.2,12.146" transform="translate(9.514 10.158)" fill="#869a8a"/>
            <path id="Trazado_873221" data-name="Trazado 873221" d="M36.22,31.492,35.3,31.27C21.441,27.934,4.181,21.918.635,12.2a9.311,9.311,0,0,1,.824-8.462C3.063,1.191,5.14-.078,7.6,0,19,.352,35.084,29.422,35.763,30.659ZM7.392.84C5.3.84,3.581,1.943,2.152,4.207a8.636,8.636,0,0,0-.721,7.722c1.873,5.1,9.159,12.385,33.122,18.3C31.78,25.37,17.448,1.145,7.578.843l-.186,0" transform="translate(0 0.001)" fill="#869a8a"/>
          </g>
        </g>
        <g id="Grupo_1099332" data-name="Grupo 1099332" transform="matrix(0.309, 0.951, -0.951, 0.309, 58.569, 24.833)">
          <g id="Grupo_1099328-2" data-name="Grupo 1099328" transform="translate(0 0)" clip-path="url(#clip-path-5)">
            <path id="Trazado_873219-2" data-name="Trazado 873219" d="M30.071,26.177S9.847-10.66,1.179,3.063c0,0-10.112,13.724,28.892,23.113" transform="translate(1.193 0.608)" fill="#c1ddc7"/>
            <path id="Trazado_873220-2" data-name="Trazado 873220" d="M23.085,18.05c-3.135-2.911-7.707-7.194-10.95-9.888C8.35,5.107,4.543,1.842,0,0L.072.022C.26.072.441.13.621.2.686.217.758.246.838.274,5.244,1.734,9.014,4.731,12.6,7.606A94.833,94.833,0,0,1,23.085,18.05" transform="translate(8.181 8.735)" fill="#869a8a"/>
            <path id="Trazado_873221-2" data-name="Trazado 873221" d="M31.146,27.081l-.795-.191C18.438,24.021,3.6,18.847.546,10.487a8.007,8.007,0,0,1,.709-7.276C2.634,1.024,4.42-.067,6.539,0c9.8.3,23.631,25.3,24.215,26.361ZM6.356.723c-1.8,0-3.277.948-4.506,2.895a7.427,7.427,0,0,0-.62,6.64c1.611,4.386,7.876,10.65,28.482,15.732C27.328,21.816,15,.985,6.516.725l-.16,0" transform="translate(0 0.001)" fill="#869a8a"/>
          </g>
        </g>
        <g id="Grupo_1099333" data-name="Grupo 1099333" transform="matrix(-0.616, 0.788, -0.788, -0.616, 134.148, 21.41)">
          <g id="Grupo_1099328-3" data-name="Grupo 1099328" transform="translate(0 0)" clip-path="url(#clip-path-6)">
            <path id="Trazado_873219-3" data-name="Trazado 873219" d="M38.615,33.614s-25.971-47.3-37.1-29.681c0,0-12.985,17.623,37.1,29.681" transform="translate(1.532 0.78)" fill="#c1ddc7"/>
            <path id="Trazado_873220-3" data-name="Trazado 873220" d="M29.644,23.179c-4.025-3.738-9.9-9.238-14.061-12.7C10.722,6.558,5.834,2.365,0,0L.093.028C.334.093.566.167.8.25c.083.028.176.065.278.1,5.658,1.874,10.5,5.723,15.1,9.414A121.777,121.777,0,0,1,29.644,23.179" transform="translate(10.505 11.217)" fill="#869a8a"/>
            <path id="Trazado_873221-3" data-name="Trazado 873221" d="M40,34.775l-1.02-.245C23.676,30.846,4.617,24.2.7,13.467a10.282,10.282,0,0,1,.91-9.344C3.382,1.315,5.676-.086,8.4,0c12.579.385,30.345,32.485,31.1,33.851ZM8.163.928c-2.313,0-4.208,1.218-5.787,3.718a9.537,9.537,0,0,0-.8,8.527c2.068,5.632,10.114,13.676,36.575,20.2C35.092,28.014,19.267,1.265,8.368.931l-.2,0" transform="translate(0 0.001)" fill="#869a8a"/>
          </g>
        </g>
      </g>
    </g>
    <g id="Grupo_1099997" data-name="Grupo 1099997" transform="translate(42.985 220.726)">
      <g id="Grupo_1099983" data-name="Grupo 1099983" transform="translate(0 0)">
        <circle id="Elipse_11585" data-name="Elipse 11585" cx="40.945" cy="40.945" r="40.945" fill="#fddbb4"/>
        <circle id="Elipse_11586" data-name="Elipse 11586" cx="29.747" cy="29.747" r="29.747" transform="translate(11.199 11.199)" fill="#feedda"/>
      </g>
      <g id="limpiar-deslizar" transform="translate(21.73 21.668)">
        <path id="Trazado_875499" data-name="Trazado 875499" d="M38.473,22.162,23.1,37.532a3.747,3.747,0,0,1-5.3,0L5.317,25.046a4.5,4.5,0,0,1,0-6.358L20.688,3.317a4.5,4.5,0,0,1,6.359,0L38.473,14.744a5.247,5.247,0,0,1,0,7.419" transform="translate(-3.379 -1.379)" fill="#f9d266"/>
        <path id="Trazado_875500" data-name="Trazado 875500" d="M21.676,45.693,12.562,36.58a5.874,5.874,0,0,0-2.3-1.421,5.876,5.876,0,0,1-2.3-1.421l-5.6-5.6a1.242,1.242,0,0,1,1.756-1.756L2.364,24.623a1.242,1.242,0,0,1,1.756-1.756L2.364,21.111a1.242,1.242,0,0,1,1.756-1.756l1.756,1.756a1.242,1.242,0,0,1,1.756-1.756l3.512,3.512.878-.879a1.242,1.242,0,0,1,1.756,0L16.487,24.7a4.242,4.242,0,0,1,1.242,3,4.238,4.238,0,0,0,1.242,3l8.914,8.915Z" transform="translate(9.987 -7.821)" fill="#fbe1ca"/>
        <g id="Grupo_1099998" data-name="Grupo 1099998" transform="translate(13.67 12.852)">
          <path id="Trazado_875501" data-name="Trazado 875501" d="M0,1.242H5.587V0H0Z" transform="translate(3.95 10.096) rotate(-135)" fill="#ffd2b0"/>
          <path id="Trazado_875502" data-name="Trazado 875502" d="M0,1.242H8.07V0H0Z" transform="translate(5.706 8.34) rotate(-135)" fill="#ffd2b0"/>
          <path id="Trazado_875503" data-name="Trazado 875503" d="M0,1.242H8.07V0H0Z" transform="translate(7.461 6.584) rotate(-135)" fill="#ffd2b0"/>
          <path id="Trazado_875504" data-name="Trazado 875504" d="M0,1.242H4.967V0H0Z" transform="translate(10.535 6.144) rotate(-135)" fill="#ffd2b0"/>
        </g>
        <path id="Trazado_875505" data-name="Trazado 875505" d="M37,53.725a3.725,3.725,0,0,1,3.725,3.725,3.725,3.725,0,0,1,3.725-3.725A3.725,3.725,0,0,1,40.725,50,3.725,3.725,0,0,1,37,53.725Z" transform="translate(-28.308 -19.578)" fill="#f2f2f2"/>
        <path id="Trazado_875506" data-name="Trazado 875506" d="M33,5.725A3.725,3.725,0,0,1,36.725,9.45,3.725,3.725,0,0,1,40.45,5.725,3.725,3.725,0,0,1,36.725,2,3.725,3.725,0,0,1,33,5.725Z" transform="translate(-21.825 -1.379)" fill="#f2f2f2"/>
        <path id="Trazado_875507" data-name="Trazado 875507" d="M3,17.725A3.725,3.725,0,0,1,6.725,21.45a3.725,3.725,0,0,1,3.725-3.725A3.725,3.725,0,0,1,6.725,14,3.725,3.725,0,0,1,3,17.725Z" transform="translate(26.801 -5.929)" fill="#f2f2f2"/>
        <path id="Trazado_875508" data-name="Trazado 875508" d="M5.346,6.588H6.588A5.594,5.594,0,0,0,1,1V2.242A4.352,4.352,0,0,1,5.346,6.588Z" transform="translate(31.905 -1)" fill="#e8e9ea"/>
        <path id="Trazado_875509" data-name="Trazado 875509" d="M14.346,8.588h1.242A5.594,5.594,0,0,0,10,3V4.242A4.352,4.352,0,0,1,14.346,8.588Z" transform="translate(17.317 -1.758)" fill="#e8e9ea"/>
        <path id="Trazado_875510" data-name="Trazado 875510" d="M59.588,59.588V58.346A4.352,4.352,0,0,1,55.242,54H54A5.594,5.594,0,0,0,59.588,59.588Z" transform="translate(-54 -21.095)" fill="#e8e9ea"/>
        <path id="Trazado_875511" data-name="Trazado 875511" d="M57.588,50.588V49.346A4.352,4.352,0,0,1,53.242,45H52A5.594,5.594,0,0,0,57.588,50.588Z" transform="translate(-50.758 -17.683)" fill="#e8e9ea"/>
        <path id="Trazado_875512" data-name="Trazado 875512" d="M9.986,34.526a3.085,3.085,0,0,0,1.71-.517l-8.9-8.9a5.153,5.153,0,0,1-1.5-3.618,5.083,5.083,0,0,1,1.5-3.618L14.179,6.484a3.085,3.085,0,0,0-1.709-.517.621.621,0,1,1,0-1.242,3.108,3.108,0,0,0,3.1-3.1.621.621,0,0,1,1.242,0,3.084,3.084,0,0,0,.517,1.709l.832-.831a5.118,5.118,0,0,1,7.237,0l8.281,8.282A3.085,3.085,0,0,0,34.2,9.071a.621.621,0,1,1,1.242,0,3.108,3.108,0,0,0,3.1,3.1.621.621,0,0,1,0,1.242,3.085,3.085,0,0,0-1.71.517,5.866,5.866,0,0,1-.009,8.288L33.152,25.9,39.6,32.349l-.878.878L29.81,24.311a4.827,4.827,0,0,1-1.424-3.436,3.643,3.643,0,0,0-1.06-2.559l-2.711-2.71a.635.635,0,0,0-.877,0l-.439.439,3.076,3.074L25.5,20l-3.512-3.513L18.47,12.974a.633.633,0,0,0-.877,0,.621.621,0,0,0,0,.877L23.3,19.558l-.878.878L14.96,12.973a.621.621,0,0,0-.876.879l1.754,1.754,5.707,5.707-.88.879L14.953,16.48a.621.621,0,0,0-.875.88l1.753,1.753,0,0,3.951,3.951-.878.878-3.954-3.954a.621.621,0,1,0-.875.88l5.6,5.6a5.29,5.29,0,0,0,2.057,1.271,6.544,6.544,0,0,1,2.541,1.571L33.4,38.437l-.878.878-6.392-6.394-4.671,4.671a4.368,4.368,0,0,1-6.177,0l-.43-.43a3.085,3.085,0,0,0-.518,1.709.621.621,0,1,1-1.242,0,3.108,3.108,0,0,0-3.1-3.1.621.621,0,1,1,0-1.242Zm6.208-30.67a4.387,4.387,0,0,1-1.49,1.49,4.387,4.387,0,0,1,1.49,1.49,4.387,4.387,0,0,1,1.49-1.49,4.387,4.387,0,0,1-1.49-1.49Zm18.625,7.45a4.387,4.387,0,0,1-1.49,1.49,4.387,4.387,0,0,1,1.49,1.49,4.387,4.387,0,0,1,1.49-1.49,4.387,4.387,0,0,1-1.49-1.49ZM18.367,37.63a3.1,3.1,0,0,0,2.211-.916l4.671-4.672L23.4,30.2a5.3,5.3,0,0,0-2.056-1.27,6.534,6.534,0,0,1-2.542-1.571l-5.6-5.6a1.867,1.867,0,0,1,0-2.634,1.842,1.842,0,0,1,.519-.358l-.52-.52a1.867,1.867,0,0,1,0-2.635,1.84,1.84,0,0,1,.519-.358l-.52-.52a1.863,1.863,0,1,1,2.635-2.634l.518.518a1.859,1.859,0,0,1,.359-.518,1.907,1.907,0,0,1,2.634,0l3.073,3.073.439-.439a1.908,1.908,0,0,1,2.634,0l2.71,2.71a4.893,4.893,0,0,1,1.424,3.436,3.6,3.6,0,0,0,1.06,2.559l1.588,1.586,3.674-3.674a4.625,4.625,0,0,0,.009-6.532,3.081,3.081,0,0,0-.517,1.709.621.621,0,1,1-1.242,0,3.108,3.108,0,0,0-3.1-3.1.621.621,0,0,1,0-1.242,3.085,3.085,0,0,0,1.709-.517l-8.28-8.282a3.877,3.877,0,0,0-5.481,0l-.831.831a3.085,3.085,0,0,0,1.709.517.621.621,0,0,1,0,1.242,3.108,3.108,0,0,0-3.1,3.1.621.621,0,0,1-1.242,0,3.085,3.085,0,0,0-.517-1.709L3.671,18.748a3.849,3.849,0,0,0-1.135,2.74,3.9,3.9,0,0,0,1.135,2.74l8.9,8.9a3.081,3.081,0,0,0,.517-1.709.621.621,0,0,1,1.242,0,3.108,3.108,0,0,0,3.1,3.1.621.621,0,1,1,0,1.242,3.084,3.084,0,0,0-1.709.517l.429.43a3.1,3.1,0,0,0,2.211.916Zm-4.656-.993a4.387,4.387,0,0,1,1.49-1.49,4.387,4.387,0,0,1-1.49-1.49,4.387,4.387,0,0,1-1.49,1.49A4.387,4.387,0,0,1,13.711,36.637Z" transform="translate(-1.294 -1)"/>
        <path id="Trazado_875513" data-name="Trazado 875513" d="M1,2.242V1A5.594,5.594,0,0,1,6.588,6.588H5.346A4.352,4.352,0,0,0,1,2.242Z" transform="translate(31.905 -1)"/>
        <path id="Trazado_875514" data-name="Trazado 875514" d="M14.346,8.588A4.352,4.352,0,0,0,10,4.242V3a5.594,5.594,0,0,1,5.588,5.588Z" transform="translate(17.317 -1.758)"/>
        <path id="Trazado_875515" data-name="Trazado 875515" d="M59.588,58.346v1.242A5.594,5.594,0,0,1,54,54h1.242A4.352,4.352,0,0,0,59.588,58.346Z" transform="translate(-54 -21.095)"/>
        <path id="Trazado_875516" data-name="Trazado 875516" d="M52,45h1.242a4.352,4.352,0,0,0,4.346,4.346v1.242A5.594,5.594,0,0,1,52,45Z" transform="translate(-50.758 -17.683)"/>
      </g>
    </g>
    <g id="Grupo_1099995" data-name="Grupo 1099995" transform="translate(216.711 214.277)">
      <g id="Grupo_1099983-2" data-name="Grupo 1099983" transform="translate(0 0)">
        <circle id="Elipse_11585-2" data-name="Elipse 11585" cx="36.905" cy="36.905" r="36.905" fill="#fddbb4"/>
        <circle id="Elipse_11586-2" data-name="Elipse 11586" cx="27.064" cy="27.064" r="27.064" transform="translate(9.841 9.841)" fill="#feedda"/>
      </g>
      <g id="lista-de-verificacion" transform="translate(21.352 18.443)">
        <g id="Grupo_1099991" data-name="Grupo 1099991" transform="translate(0.537 0.538)">
          <g id="Grupo_1099990" data-name="Grupo 1099990" transform="translate(0)">
            <g id="Grupo_1099987" data-name="Grupo 1099987" transform="translate(5.423)">
              <g id="Grupo_1099984" data-name="Grupo 1099984">
                <path id="Trazado_875476" data-name="Trazado 875476" d="M42.831,81.083H65.523a1.316,1.316,0,0,0,1.316-1.316V49.707a1.316,1.316,0,0,0-1.316-1.316H42.831a1.316,1.316,0,0,0-1.316,1.316v30.06A1.316,1.316,0,0,0,42.831,81.083Z" transform="translate(-41.515 -45.46)" fill="#ffc250"/>
                <path id="Trazado_875477" data-name="Trazado 875477" d="M316.342,48.39h4.4a1.316,1.316,0,0,0-1.316,1.316v30.06a1.316,1.316,0,0,0,1.316,1.316h-4.4a1.316,1.316,0,0,1-1.316-1.316V49.706A1.316,1.316,0,0,1,316.342,48.39Z" transform="translate(-315.026 -45.459)" fill="#eab14d"/>
                <path id="Trazado_875478" data-name="Trazado 875478" d="M92.545,106.318V78.868a.47.47,0,0,0-.47-.47H71.992a.47.47,0,0,0-.47.47v27.45a.47.47,0,0,0,.47.47H92.074A.47.47,0,0,0,92.545,106.318Z" transform="translate(-69.371 -73.316)" fill="#f5f5f5"/>
                <path id="Trazado_875479" data-name="Trazado 875479" d="M297.286,78.4h4.4a.47.47,0,0,0-.47.47v27.45a.47.47,0,0,0,.47.47h-4.4a.47.47,0,0,1-.47-.47V78.868A.47.47,0,0,1,297.286,78.4Z" transform="translate(-294.665 -73.316)" fill="#eaeaea"/>
                <path id="Trazado_875480" data-name="Trazado 875480" d="M142.2,9.138V8.445a.945.945,0,0,1,.945-.945h3.7a.945.945,0,0,1,.945.945v.693a.386.386,0,0,0,.386.386h1.54a.928.928,0,0,1,.928.928v2.13h-11.3v-2.13a.928.928,0,0,1,.928-.928h1.54A.386.386,0,0,0,142.2,9.138Z" transform="translate(-132.332 -7.5)" fill="#c2d0da"/>
              </g>
              <g id="Grupo_1099986" data-name="Grupo 1099986" transform="translate(14.633 7.744)">
                <g id="Grupo_1099985" data-name="Grupo 1099985">
                  <path id="Trazado_875481" data-name="Trazado 875481" d="M115.5,120.521v-4.142a.831.831,0,0,0-.831-.831h-4.142a.831.831,0,0,0-.831.831v4.142a.831.831,0,0,0,.831.831h4.142A.831.831,0,0,0,115.5,120.521Z" transform="translate(-109.694 -115.548)" fill="#66b49d"/>
                  <path id="Trazado_875482" data-name="Trazado 875482" d="M115.5,240.928v-4.142a.831.831,0,0,0-.831-.831h-4.142a.831.831,0,0,0-.831.831v4.142a.831.831,0,0,0,.831.831h4.142A.831.831,0,0,0,115.5,240.928Z" transform="translate(-109.694 -227.325)" fill="#66b49d"/>
                  <path id="Trazado_875483" data-name="Trazado 875483" d="M115.5,361.333v-4.142a.831.831,0,0,0-.831-.831h-4.142a.831.831,0,0,0-.831.831v4.142a.831.831,0,0,0,.831.831h4.142A.831.831,0,0,0,115.5,361.333Z" transform="translate(-109.694 -339.1)" fill="#66b49d"/>
                </g>
              </g>
            </g>
            <g id="Grupo_1099989" data-name="Grupo 1099989" transform="translate(0 8.352)">
              <g id="Grupo_1099988" data-name="Grupo 1099988">
                <path id="Trazado_875484" data-name="Trazado 875484" d="M247.328,176.556l.528-.7,1.975-1.251.759-.12L260.7,190.47a4.16,4.16,0,0,1,.53,1.251,3.257,3.257,0,0,0-2.887,1.828,4.161,4.161,0,0,1-.9-1.014Z" transform="translate(-245.237 -170.873)" fill="#fc8086"/>
                <path id="Trazado_875485" data-name="Trazado 875485" d="M411.63,124.789l.853-.54a1.425,1.425,0,0,1,1.967.442l.783,1.237-.25.5-2.375,1.5-.638.059-.783-1.237A1.425,1.425,0,0,1,411.63,124.789Z" transform="translate(-410.967 -124.027)" fill="#8c9ba6"/>
              </g>
              <path id="Trazado_875486" data-name="Trazado 875486" d="M0,3.861H2.032V0H0Z" transform="matrix(-0.535, -0.845, 0.845, -0.535, 2.089, 5.678)" fill="#c9e2e7"/>
              <path id="Trazado_875487" data-name="Trazado 875487" d="M235.011,416.723l2.879,2.32a.546.546,0,0,0,.874-.553l-.866-3.6A3.257,3.257,0,0,0,235.011,416.723Z" transform="translate(-221.903 -394.047)" fill="#7c8b96"/>
            </g>
          </g>
        </g>
        <g id="Grupo_1099994" data-name="Grupo 1099994" transform="translate(0 0)">
          <g id="Grupo_1099993" data-name="Grupo 1099993">
            <g id="Grupo_1099992" data-name="Grupo 1099992">
              <path id="Trazado_875488" data-name="Trazado 875488" d="M126.9,135.443a.538.538,0,0,1,.752.114L128.711,137l.364-.5a.538.538,0,1,1,.869.633l-.628.862a.75.75,0,0,1-.6.307h0a.75.75,0,0,1-.6-.3l-1.33-1.807A.538.538,0,0,1,126.9,135.443Z" transform="translate(-104.867 -125.638)"/>
              <path id="Trazado_875489" data-name="Trazado 875489" d="M126.894,258.47a.538.538,0,0,1,.752.114l1.064,1.446.364-.5a.538.538,0,1,1,.869.633l-.628.862a.75.75,0,0,1-.6.307h0a.75.75,0,0,1-.6-.3l-1.33-1.806A.538.538,0,0,1,126.894,258.47Z" transform="translate(-104.866 -239.847)"/>
              <path id="Trazado_875490" data-name="Trazado 875490" d="M126.894,376.254a.538.538,0,0,1,.752.114l1.064,1.446.364-.5a.538.538,0,0,1,.869.633l-.628.862a.75.75,0,0,1-.6.307h0a.75.75,0,0,1-.6-.3l-1.33-1.806A.538.538,0,0,1,126.894,376.254Z" transform="translate(-104.866 -349.189)"/>
              <path id="Trazado_875491" data-name="Trazado 875491" d="M227.708,133.942h-6.646a.538.538,0,1,1,0-1.075h6.646a.538.538,0,1,1,0,1.075Z" transform="translate(-209.793 -123.344)"/>
              <path id="Trazado_875492" data-name="Trazado 875492" d="M224.385,165.283h-3.323a.538.538,0,1,1,0-1.075h3.323a.538.538,0,1,1,0,1.075Z" transform="translate(-206.47 -152.438)"/>
              <path id="Trazado_875493" data-name="Trazado 875493" d="M225.522,254.347h-4.459a.538.538,0,0,1,0-1.075h4.459a.538.538,0,0,1,0,1.075Z" transform="translate(-207.606 -235.118)"/>
              <path id="Trazado_875494" data-name="Trazado 875494" d="M221.063,285.689a.538.538,0,1,1,0-1.075h3.323a.538.538,0,1,1,0,1.075Z" transform="translate(-206.47 -264.214)"/>
              <path id="Trazado_875495" data-name="Trazado 875495" d="M103.566,108.047h4.142a1.37,1.37,0,0,1,1.369,1.369v4.142a1.37,1.37,0,0,1-1.369,1.369h-4.142a1.37,1.37,0,0,1-1.369-1.369v-4.142A1.37,1.37,0,0,1,103.566,108.047Zm-.293,5.511a.294.294,0,0,0,.293.293h4.142a.294.294,0,0,0,.293-.293v-4.142a.294.294,0,0,0-.293-.293h-4.142a.294.294,0,0,0-.293.293Z" transform="translate(-82.142 -100.303)"/>
              <path id="Trazado_875496" data-name="Trazado 875496" d="M103.566,228.453h4.142a1.37,1.37,0,0,1,1.369,1.369v4.142a1.37,1.37,0,0,1-1.369,1.369h-4.142a1.37,1.37,0,0,1-1.369-1.369v-4.142A1.37,1.37,0,0,1,103.566,228.453Zm-.293,5.511a.294.294,0,0,0,.293.293h4.142a.294.294,0,0,0,.293-.293v-4.142a.294.294,0,0,0-.293-.293h-4.142a.294.294,0,0,0-.293.293Z" transform="translate(-82.142 -212.078)"/>
              <path id="Trazado_875497" data-name="Trazado 875497" d="M103.566,348.857h4.142a1.37,1.37,0,0,1,1.369,1.369v4.142a1.37,1.37,0,0,1-1.369,1.369h-4.142a1.37,1.37,0,0,1-1.369-1.369v-4.142A1.37,1.37,0,0,1,103.566,348.857Zm-.293,5.511a.294.294,0,0,0,.293.293h4.142a.294.294,0,0,0,.293-.293v-4.142a.294.294,0,0,0-.293-.293h-4.142a.294.294,0,0,0-.293.293Z" transform="translate(-82.142 -323.852)"/>
              <path id="Trazado_875498" data-name="Trazado 875498" d="M34.932,9.2l.853-.54a1.963,1.963,0,0,1,2.709.609l.783,1.237,1.087,1.717,1.229,1.942V6.09A1.009,1.009,0,0,1,42.6,5.082h3.853V4.006H41.3a.779.779,0,0,0-.778.778V9.441a.538.538,0,0,1-1.075,0V4.784A1.856,1.856,0,0,1,41.3,2.931h5.269a1.467,1.467,0,0,1,1.354-.907h1.389V1.483A1.484,1.484,0,0,1,50.791,0h3.7a1.484,1.484,0,0,1,1.483,1.483v.542h1.389a1.467,1.467,0,0,1,1.354.907h5.27a1.856,1.856,0,0,1,1.854,1.854v30.06A1.856,1.856,0,0,1,63.988,36.7H41.3a1.856,1.856,0,0,1-1.854-1.854V22.788a.538.538,0,1,1,1.075,0V34.845a.779.779,0,0,0,.778.778H63.988a.779.779,0,0,0,.778-.778V4.784a.779.779,0,0,0-.778-.778H58.83V5.082h3.853A1.009,1.009,0,0,1,63.691,6.09v27.45a1.009,1.009,0,0,1-1.008,1.008H42.6a1.009,1.009,0,0,1-1.008-1.008V23.392l-5.4-8.532h0l-1.086-1.716-.783-1.237A1.965,1.965,0,0,1,34.932,9.2Zm2.1.252a.881.881,0,0,0-.67.116l-.853.541a.889.889,0,0,0-.275,1.225l.5.783,2.353-1.49-.5-.782a.881.881,0,0,0-.555-.391ZM47.214,30.264a3.619,3.619,0,0,0,.341.454,3.78,3.78,0,0,1,.572-.612L38.107,14.285l-.718.454Zm3.672,3.207.01,0h0l-.76-3.155a2.707,2.707,0,0,0-1.775,1.124C51.209,33.731,50.846,33.435,50.886,33.471ZM38.656,11.532,36.3,13.022l.511.808,2.353-1.49Zm19.1-8.03c0-.007,0-.013,0-.02s0,0,0-.007a.39.39,0,0,0-.389-.376h-1.54a.925.925,0,0,1-.924-.924V1.483a.408.408,0,0,0-.407-.407h-3.7a.408.408,0,0,0-.407.407v.693a.925.925,0,0,1-.924.924h-1.54a.39.39,0,0,0-.389.376s0,0,0,.007,0,.013,0,.02v1.58H57.754Zm4.861,2.655H42.668v9.7L48.3,24.753a.538.538,0,1,1-.909.575l-7.644-12.08-.727.46L49.035,29.531a3.776,3.776,0,0,1,.8-.255,3.635,3.635,0,0,0-.265-.5l-.836-1.321a.538.538,0,1,1,.909-.575l.836,1.321a4.691,4.691,0,0,1,.6,1.413h0l.866,3.595a1.116,1.116,0,0,1,.031.265H62.615ZM42.668,33.472h6.5l-1.845-1.487a4.689,4.689,0,0,1-1.022-1.145l-3.638-5.748Z" transform="translate(-34.02 0)"/>
            </g>
          </g>
        </g>
      </g>
    </g>
  </g>
</svg>
